<?xml version="1.0" standalone="no"?>
<!DOCTYPE svg PUBLIC "-//W3C//DTD SVG 1.1//EN" "http://www.w3.org/Graphics/SVG/1.1/DTD/svg11.dtd" >
<svg xmlns="http://www.w3.org/2000/svg" xmlns:xlink="http://www.w3.org/1999/xlink" version="1.1">
<metadata>
Created by FontForge 20141024 at Tue Oct 27 15:39:26 2015
 By Jimmy Warting
Copyright (c) ParaType, Inc., 2008. All rights reserved.
</metadata>
<defs>
<font id="Pallada-Regular" horiz-adv-x="462" >
  <font-face 
    font-family="Pallada-Regular"
    font-weight="400"
    font-stretch="normal"
    units-per-em="1000"
    panose-1="4 3 5 4 5 1 2 2 2 2"
    ascent="748"
    descent="-252"
    x-height="472"
    cap-height="687.001"
    bbox="-74.999 -238.071 963 858.004"
    underline-thickness="20"
    underline-position="-113"
    unicode-range="U+0020-F6DE"
  />
<missing-glyph horiz-adv-x="500" 
 />
    <glyph glyph-name="afii10017.var.accented" unicode="&#x410;`" horiz-adv-x="545" 
d="M537 31l-1.00293 -32.9961c-40.667 -3.33301 -69.667 -5 -87 -5c-15.333 0 -26.666 4.5 -33.999 13.5s-15 27.833 -23 56.5c-0.666992 2 -15.667 65.667 -45 191l-210 2c-26 -82.667 -39 -139 -39 -169c0 -18 2 -31.333 6 -40s12 -17.334 24 -26.001l-1 -23
c-29.333 -3.33301 -53.666 -5 -72.999 -5c-14 0 -22.833 3.16699 -26.5 9.5s-5.5 16.166 -5.5 29.499c0 26 16.667 87.333 50 184l43 128c4.66699 14 12.667 36.667 24 68l27 75c6.66699 18.667 12.834 38.167 18.501 58.5s8.5 35.166 8.5 44.499
c0 5.33301 -0.5 10.166 -1.5 14.499s-2.83301 7.83301 -5.5 10.5s-5 4.66699 -7 6s-5.33301 2.5 -10 3.5s-7.83398 1.66699 -9.50098 2s-5.5 0.5 -11.5 0.5h-10v28c93.333 24 150 36 170 36c17.333 0 27.666 -6.66699 30.999 -20l34 -145l57 -252
c18.667 -84.667 32 -137 40 -157c10.667 -30 20.834 -51.667 30.501 -65s21.834 -20.333 36.501 -21zM150.997 296.004l188 -6l-49 223c-12 56.667 -22.667 94 -32 112h-9l-36 -126zM326.997 858.004l86 -14l-142 -129l-27 7z" />
    <glyph glyph-name="afii10022.var.accented" unicode="&#x415;`" horiz-adv-x="509" 
d="M441 176l28 -5.00098l-26 -167c-55.333 -6.66699 -129.333 -10 -222 -10c-59.333 0 -96.166 1.5 -110.499 4.5s-21.5 12.167 -21.5 27.5c0 12.667 0.666992 36.167 2 70.5s2.33301 69.833 3 106.5l4 254c0.666992 16.667 1 44.667 1 84
c0 41.333 -4.66699 68.166 -14 80.499s-27 18.5 -53 18.5l1 33c112 9.33301 201.667 14 269 14c61.333 0 102.833 -2.33301 124.5 -7s32.5 -15.667 32.5 -33c0 -12.667 -5 -33 -15 -61s-20.667 -51 -32 -69l-30 -5c2.66699 18.667 4 37 4 55
c0 12.667 -0.666992 22.5 -2 29.5s-5 14.667 -11 23s-16.5 14.5 -31.5 18.5s-34.5 6 -58.5 6c-45.333 0 -74.333 -7.66699 -87 -23c-7.33301 -9.33301 -11.666 -35 -12.999 -77l-3 -173l189 5l-11 -59c-14.667 2.66699 -36.834 5.16699 -66.501 7.5s-55.5 3.83301 -77.5 4.5
l-34 1c0 -13.333 -0.666992 -48.666 -2 -105.999s-2 -93 -2 -107c0 -32.667 6.5 -54.167 19.5 -64.5s39.833 -15.5 80.5 -15.5c25.333 0 47.666 4.16699 66.999 12.5s35.333 20.833 48 37.5s22.167 30.834 28.5 42.501s13.5 27.167 21.5 46.5zM309 857.999l86 -14l-142 -129
l-27 7z" />
    <glyph glyph-name="afii10026.var.accented" unicode="&#x418;`" horiz-adv-x="612" 
d="M591 27l-0.00292969 -26.999h-110c-11.333 0 -19.166 4.5 -23.499 13.5s-6.5 25.167 -6.5 48.5c0 9.33301 0.5 59.666 1.5 150.999s1.5 142 1.5 152l-2 191l-160 -333c-46.667 -96 -84.667 -164 -114 -204c-9.33301 -7.33301 -22.5 -14 -39.5 -20s-29.833 -9 -38.5 -9
l-12 7c0.666992 16.667 1.83398 58.167 3.50098 124.5s2.5 101.5 2.5 105.5l4 230c1.33301 77.333 -2 127.166 -10 149.499s-26.667 33.5 -56 33.5l1 33c53.333 12 96 18 128 18c18 0 27 -21 27 -63c0 -56.667 -2.66699 -137.334 -8 -242.001l-8 -293h2
c57.333 100 100.666 182 129.999 246c88.667 191.333 138.667 295.333 150 312c8.66699 12.667 18.834 21.834 30.501 27.501s28.5 9.83398 50.5 12.501l7 -4c-3.33301 -61.333 -5 -111.333 -5 -150v-371c0 -19.333 0.166992 -33.166 0.5 -41.499s1.33301 -19.5 3 -33.5
s4.33398 -24.333 8.00098 -31s9 -13.334 16 -20.001s15.833 -11 26.5 -13zM360.997 858.001l86 -14l-142 -129l-27 7z" />
    <glyph glyph-name="afii10032.var.accented" unicode="&#x41e;`" horiz-adv-x="627" 
d="M588 358c0 -57.333 -6.83008 -108.667 -20.4971 -154s-30.834 -81.166 -51.501 -107.499s-44.167 -48.166 -70.5 -65.499s-50.833 -29 -73.5 -35s-44.334 -9 -65.001 -9c-75.333 0 -138 28.667 -188 86s-75 141.666 -75 252.999c0 59.333 6.83301 111.833 20.5 157.5
s30.5 81.5 50.5 107.5s43.5 47.167 70.5 63.5s52.167 27.166 75.5 32.499s46.666 8 69.999 8c76.667 0 138.667 -28.167 186 -84.5s71 -140.5 71 -252.5zM497.003 353.999c0 198.667 -58.6689 298.002 -176.002 298.002c-124 0 -186 -107.333 -186 -322
c0 -98.667 16 -173.334 48 -224.001s76.667 -76 134 -76c20 0 39.333 4.5 58 13.5s37.834 24.5 57.501 46.5s35.334 55.667 47.001 101s17.5 99.666 17.5 162.999zM368.001 858.001l86 -14l-142 -129l-27 7z" />
    <glyph glyph-name="afii10037.var.accented" unicode="&#x423;`" horiz-adv-x="528" 
d="M518 654c0 -26.667 -19.668 -88.668 -59.001 -186.001l-49 -120c-16 -40 -40.333 -97 -73 -171l-7 -15c-4 -10.667 -7.33301 -18.667 -10 -24l-13 -26.5c-6 -12.333 -11.333 -22.333 -16 -30l-17.5 -28c-7 -11 -13.833 -20 -20.5 -27s-14 -14 -22 -21
s-16.167 -12.167 -24.5 -15.5s-16.833 -5 -25.5 -5c-26.667 0 -40 13 -40 39c0 25.333 5.33301 52 16 80l13 2c8.66699 -11.333 16.334 -19.333 23.001 -24s16 -7 28 -7c10.667 0 19.667 5.5 27 16.5s11 27.833 11 50.5c0 5.33301 -1 12.5 -3 21.5s-5.33301 20.167 -10 33.5
s-9.33398 26 -14.001 38l-18.5 48.5l-19.5 51.5l-32 87c-21.333 57.333 -45.333 112 -72 164c-18 35.333 -42.667 53 -74 53v29c42 12.667 78 19 108 19c12 0 23.667 -10.5 35 -31.5s28.666 -63.5 51.999 -127.5l103 -288h9l46 114c14 36 27.667 77.167 41 123.5
s20 82.5 20 108.5c0 22 -3.16699 36.833 -9.5 44.5s-17.166 14.167 -32.499 19.5l1 23c44.667 9.33301 76.667 14 96 14c12.667 0 21.334 -2.16699 26.001 -6.5s7 -13.166 7 -26.499zM318.999 857.999l86 -14l-142 -129l-27 7z" />
    <glyph glyph-name="afii10045.var.accented" unicode="&#x42b;`" horiz-adv-x="749" 
d="M499 224c0 -39.333 -7.83105 -74.665 -23.498 -105.998s-36.167 -56.5 -61.5 -75.5s-52.666 -33.333 -81.999 -43s-59 -14.5 -89 -14.5c-32.667 0 -68.167 3.5 -106.5 10.5s-57.5 14.167 -57.5 21.5c0 4 0.5 10 1.5 18l4 33.5c1.66699 14.333 3.16699 28.833 4.5 43.5
c6 73.333 9 142.666 9 207.999v137c0 58 -1.5 98.833 -4.5 122.5s-8.83301 39.667 -17.5 48s-23.334 12.5 -44.001 12.5v33c54 12 97 18 129 18c18 0 27 -21 27 -63c0 -8.66699 -0.5 -26.334 -1.5 -53.001s-2 -58 -3 -94s-1.83301 -65 -2.5 -87l-3 -155
c-0.666992 -22.667 -1.66699 -53.167 -3 -91.5s-2 -60.833 -2 -67.5c0 -19.333 5.16699 -32.833 15.5 -40.5s32.5 -11.5 66.5 -11.5c50 0 88.333 18.667 115 56s40 80.333 40 129c0 96 -42.667 144 -128 144c-36.667 0 -65.334 -4.33301 -86.001 -13v38
c29.333 11.333 65.666 17 108.999 17c58 0 104.833 -14.167 140.5 -42.5s53.5 -72.5 53.5 -132.5zM714.002 27.001l0.000976562 -27.0029h-105c-13.333 0 -22.166 3.83301 -26.499 11.5s-6.5 26.167 -6.5 55.5c0 20.667 1.33301 71 4 151l8 239
c2.66699 80.667 1.16699 131.334 -4.5 152.001s-22.834 31 -51.501 31v33c47.333 12 87 18 119 18c18 0 27 -21 27 -63c0 -15.333 -1.33301 -56.166 -4 -122.499s-4.33398 -118.5 -5.00098 -156.5l-3 -140l-2 -89c0 -30 3.66699 -52.667 11 -68s20.333 -23.666 39 -24.999z
M429.003 857.998l86 -14l-142 -129l-27 7z" />
    <glyph glyph-name="afii10047.var.accented" unicode="&#x42d;`" horiz-adv-x="549" 
d="M508 379c0 -67.333 -9.6709 -127.332 -29.0039 -179.999s-44.5 -93.667 -75.5 -123s-63.833 -51.5 -98.5 -66.5s-70 -22.5 -106 -22.5c-49.333 0 -87 8 -113 24s-39 36 -39 60c0 30 19 56.333 57 79l12 -5c0 -42.667 10.667 -72.167 32 -88.5s47 -24.5 77 -24.5
c12.667 0 26.167 2.16699 40.5 6.5s30.166 13.166 47.499 26.499s33 30.333 47 51s26.333 49.167 37 85.5s17 77.5 19 123.5c-33.333 -2 -79.333 -5.66699 -138 -11s-97 -9.66602 -115 -12.999l11 66l243 -2c-0.666992 99.333 -14.667 172 -42 218s-70.333 69 -129 69
c-18 0 -34.667 -2.16699 -50 -6.5s-28.666 -11.5 -39.999 -21.5s-20.666 -19 -27.999 -27s-14.666 -20 -21.999 -36s-12.333 -27.333 -15 -34s-7 -18.334 -13 -35.001l-30 -7c0 74 4 127 12 159l8 13c4.66699 2.66699 11.834 6.16699 21.501 10.5s30.834 10 63.501 17
s67 10.5 103 10.5c82 0 144.5 -24.5 187.5 -73.5s64.5 -129.833 64.5 -242.5zM328.996 858.001l86 -14l-142 -129l-27 7z" />
    <glyph glyph-name="afii10048.var.accented" unicode="&#x42e;`" horiz-adv-x="872" 
d="M830 358c0 -59.333 -7.00195 -112 -21.002 -158s-31 -82 -51 -108s-43.167 -47.333 -69.5 -64s-50.166 -27.667 -71.499 -33s-41.666 -8 -60.999 -8c-78.667 0 -142.334 30.167 -191.001 90.5s-73 149.5 -73 267.5l-112 2l-2 -76c0 -12 -0.5 -34.833 -1.5 -68.5
s-1.5 -56.5 -1.5 -68.5c0 -41.333 2.83301 -68.333 8.5 -81s15.834 -21.334 30.501 -26.001v-27h-97c-11.333 0 -18.833 4.33301 -22.5 13s-5.5 25 -5.5 49c0 29.333 1.33301 84 4 164l5 231c0.666992 16.667 1 44.667 1 84c0 41.333 -4.66699 68.166 -14 80.499
s-27 18.5 -53 18.5l1 33c53.333 12 96 18 128 18c18 0 27 -21 27 -63c0 -30 -1.16699 -73 -3.5 -129s-3.83301 -93.667 -4.5 -113l115 7c5.33301 46.667 15.5 88.334 30.5 125.001s32 65.834 51 87.501s40.333 39.5 64 53.5s46 23.5 67 28.5s42.167 7.5 63.5 7.5
c80.667 0 144 -27.833 190 -83.5s69 -140.167 69 -253.5zM739.998 354c0 198.667 -59.001 298 -177.001 298c-18.667 0 -36 -2.83301 -52 -8.5s-32.333 -16.167 -49 -31.5s-30.667 -35 -42 -59s-20.666 -55.833 -27.999 -95.5s-11 -85.5 -11 -137.5
c0 -95.333 15.833 -167.5 47.5 -216.5s77.167 -73.5 136.5 -73.5c14.667 0 29 2.5 43 7.5s29.333 14.833 46 29.5s31 33.5 43 56.5s22.167 54.333 30.5 94s12.5 85.167 12.5 136.5zM490.997 858l86 -14l-142 -129l-27 7z" />
    <glyph glyph-name="afii10049.var.accented" unicode="&#x42f;`" horiz-adv-x="523" 
d="M496 27l0.000976562 -26.9961h-107c-11.333 0 -19 4.33301 -23 13s-6 25 -6 49c0 9.33301 0.666992 32.666 2 69.999s2 61 2 71l1 198c1.33301 103.333 0.333008 168.666 -3 195.999c-4 32 -25.667 48 -65 48c-37.333 0 -70 -12.667 -98 -38s-42.333 -60 -43 -104
c0 -84.667 39.333 -134.334 118 -149.001c15.333 -2.66699 41.333 -4 78 -4v-21c-34.667 -10 -59.334 -25.333 -74.001 -46c-12 -18 -24.5 -38.167 -37.5 -60.5l-47.5 -85.5c-18.667 -34.667 -28.334 -52.667 -29.001 -54c-12 -22 -21.667 -38 -29 -48
s-17.5 -19.5 -30.5 -28.5s-28.167 -13.5 -45.5 -13.5c-6 0 -14.333 1.66699 -25 5s-20 6.66602 -28 9.99902l-11 6l4 23c17.333 0 31.5 5.83301 42.5 17.5s25.833 33.167 44.5 64.5c45.333 76.667 71 119.667 77 129c26 38.667 49 65.667 69 81
c-11.333 1.33301 -22.833 3.33301 -34.5 6s-26 8 -43 16s-31.667 17.667 -44 29s-23 26.833 -32 46.5s-13.5 42.167 -13.5 67.5c0 36 7.33301 67 22 93s34.667 46 60 60s51.833 24.167 79.5 30.5s57.5 9.5 89.5 9.5l139 -4l7 -4c-4.66699 -22 -7.66699 -67 -9 -135
c-1.33301 -29.333 -2.66602 -82 -3.99902 -158l-3 -220c0 -52 3 -87.667 9 -107s19.667 -30 41 -32zM316.001 858.004l86 -14l-142 -129l-27 7z" />
    <glyph glyph-name="afii10065.var.accented" unicode="&#x430;`" horiz-adv-x="446" 
d="M436 29l-1 -23.001c-40 -10 -69.333 -15 -88 -15c-33.333 0 -51 24.667 -53 74c-40 -51.333 -85.667 -77 -137 -77c-31.333 0 -58 9.66699 -80 29s-33 50 -33 92c0 28.667 4 52.5 12 71.5s21.833 34.5 41.5 46.5s39.167 21 58.5 27s46.666 12.667 81.999 20l61 13
c0.666992 18 1 42.667 1 74c0 28.667 -6 47.834 -18 57.501s-29.333 14.5 -52 14.5c-55.333 0 -81.666 -25.333 -78.999 -76l-8 -11c-49.333 0 -74 12.333 -74 37c0 24 22 45.333 66 64s92.667 28 146 28c37.333 0 63.333 -8.5 78 -25.5s22 -43.167 22 -78.5
c0 -2 -1.66699 -52 -5 -150l-2 -94c0 -40.667 3.66699 -67.167 11 -79.5s24.333 -18.5 51 -18.5zM298 248.999l-55 -11c-40.667 -8.66699 -69 -20.334 -85 -35.001c-20 -18 -30 -43 -30 -75c0 -25.333 5.5 -45.5 16.5 -60.5s26.167 -22.5 45.5 -22.5
c22.667 0 42.667 6.33301 60 19s29 25.334 35 38.001l9 19zM267 653.999l82 -13l-135 -123l-26 7z" />
    <glyph glyph-name="afii10070.var.accented" unicode="&#x435;`" horiz-adv-x="429" 
d="M401 373c-1.33301 -36.667 -17.1689 -65.501 -47.502 -86.501s-67.5 -34.5 -111.5 -40.5l-105 -14c-2 -54 9.83301 -98.833 35.5 -134.5s58.834 -53.5 99.501 -53.5c25.333 0 48.333 3 69 9s35 12.333 43 19l12 9v-32c-4.66699 -4 -11.334 -9.33301 -20.001 -16
s-27 -15.334 -55 -26.001s-57 -16 -87 -16c-52.667 0 -96.667 19.167 -132 57.5s-51.666 97.5 -48.999 177.5c1.33301 46 10.333 86.333 27 121s37.167 60.834 61.5 78.501s47.833 30.667 70.5 39s44 12.5 64 12.5c15.333 0 29.5 -1.33301 42.5 -4s26.333 -7.5 40 -14.5
s24.334 -17.667 32.001 -32s11.167 -32.166 10.5 -53.499zM317.997 370.999c0.666992 18.667 -3.66797 34.167 -13.001 46.5s-23.666 18.5 -42.999 18.5c-30.667 0 -57.334 -12.833 -80.001 -38.5s-37 -68.5 -43 -128.5l78 9c64.667 7.33301 98.334 38.333 101.001 93z
M261.995 653.999l82 -13l-135 -123l-26 7z" />
    <glyph glyph-name="afii10074.var.accented" unicode="&#x438;`" horiz-adv-x="504" 
d="M485 32l-1.99805 -23.999c-42.667 -8.66699 -71.334 -13 -86.001 -13c-12.667 0 -22.167 1.5 -28.5 4.5s-11.5 9.5 -15.5 19.5c-6 18 -8 67 -6 147l2 116c0 6 1.33301 24.5 4 55.5s4 50.167 4 57.5l-3 1c-36.667 -80.667 -68.334 -147.667 -95.001 -201
c-34.667 -69.333 -65.334 -122.666 -92.001 -159.999c-21.333 -30 -43 -45 -65 -45c-20 0 -30 22.333 -30 67c0 24.667 1 65 3 121c2 62.667 3 113 3 151c0 42.667 -4.5 70.5 -13.5 83.5s-24.167 20.5 -45.5 22.5l2 28c40 6 71 9 93 9c17.333 0 29.5 -5.33301 36.5 -16
s10.5 -29.667 10.5 -57c0 -6 -1.33301 -40.333 -4 -103s-4 -103.334 -4 -122.001c0 -42.667 3 -64 9 -64c2 0 4.33301 1 7 3s5.66699 5 9 9s6.5 8 9.5 12s6.5 9.66699 10.5 17s7.33301 13.666 10 18.999l11 21.5l11 21.5l11 22c4.66699 9.33301 8 16.333 10 21l39.5 83
l35 75c9 19.333 16.167 33.333 21.5 42c8 14 29 21 63 21c10 0 16.667 -1.16699 20 -3.5s5 -7.83301 5 -16.5c0 -2.66699 -0.666992 -15 -2 -37s-2.66602 -47.167 -3.99902 -75.5s-2 -50.5 -2 -66.5l-2 -83c-1.33301 -44.667 -0.666016 -80 2.00098 -106
c1.33301 -38 20.666 -57 57.999 -57zM296.002 654.001l82 -13l-135 -123l-26 7z" />
    <glyph glyph-name="afii10080.var.accented" unicode="&#x43e;`" horiz-adv-x="471" 
d="M441 248c0 -72.667 -19 -133.667 -57 -183s-88.333 -74 -151 -74c-58.667 0 -104.5 20.167 -137.5 60.5s-49.5 98.833 -49.5 175.5c0 46 7.16699 86.167 21.5 120.5s32.833 60.333 55.5 78s45.5 30.667 68.5 39s45.833 12.5 68.5 12.5c52 0 95.167 -17.333 129.5 -52
s51.5 -93.667 51.5 -177zM355 237c0 42 -2.66602 76.835 -7.99902 104.502s-13.333 48.167 -24 61.5s-21.667 22.5 -33 27.5s-25 7.5 -41 7.5c-33.333 0 -61.333 -16 -84 -48s-34 -83 -34 -153c0 -74.667 10 -127.834 30 -159.501s45.667 -47.5 77 -47.5
c33.333 0 61.166 16.667 83.499 50s33.5 85.666 33.5 156.999zM279.001 654.002l82 -13l-135 -123l-26 7z" />
    <glyph glyph-name="afii10085.var.accented" unicode="&#x443;`" horiz-adv-x="456" 
d="M437 442c0 -20 -6.49902 -56.8369 -19.499 -110.504s-34.5 -119.5 -64.5 -197.5l-44 -115c-64.667 -169.333 -132.334 -254 -203.001 -254c-28 0 -42 11 -42 33c0 22.667 7 47.334 21 74.001l13 2c15.333 -20.667 32.666 -31 51.999 -31c16 0 29.167 6.83301 39.5 20.5
s15.5 31.834 15.5 54.501c0 23.333 -13.333 84.333 -40 183l-23 85c-25.333 92.667 -47.666 160.667 -66.999 204c-4.66699 10.667 -10 19.334 -16 26.001s-12.667 11.334 -20 14.001s-12.166 4.16699 -14.499 4.5s-7.16602 0.833008 -14.499 1.5v27
c47.333 6 83.333 9 108 9c12 0 22 -7.33301 30 -22s19.333 -48 34 -100l44 -160c20.667 -78 34 -130.333 40 -157h5l37 106c34 96.667 51 176 51 238c0 18 -3.33301 31.333 -10 40s-17 15 -31 19l-1 21c27.333 7.33301 53 11 77 11c11.333 0 19.166 -0.166992 23.499 -0.5
s8.66602 -2.5 12.999 -6.5s6.5 -10.333 6.5 -19zM272.001 653.996l82 -13l-135 -123l-26 7z" />
    <glyph glyph-name="afii10093.var.accented" unicode="&#x44b;`" horiz-adv-x="614" 
d="M599 29l-2 -24c-36.667 -6.66699 -63.334 -10 -80.001 -10c-20 0 -35.333 5.83301 -46 17.5s-16 33.5 -16 65.5c0 3.33301 1.16699 27 3.5 71s3.83301 75.667 4.5 95c1.33301 78.667 2 123.667 2 135c0 6.66699 -0.333008 12.5 -1 17.5s-1.83398 9.33301 -3.50098 13
l-4.5 10c-1.33301 3 -3.66602 5.33301 -6.99902 7s-5.66602 3 -6.99902 4s-4 1.83301 -8 2.5s-6.5 1.16699 -7.5 1.5s-3.5 0.5 -7.5 0.5h-7l1 28c44 6 78.333 9 103 9c8 0 13.667 -0.666992 17 -2s6.5 -6.16602 9.5 -14.499s4.5 -21.5 4.5 -39.5
c0 -30.667 -1 -67.334 -3 -110.001c-4.66699 -94.667 -7 -154.667 -7 -180c0 -36 4.66699 -61.167 14 -75.5s25.333 -21.5 48 -21.5zM403 181c0 -56.667 -22.3369 -102.836 -67.0039 -138.503s-92.667 -53.5 -144 -53.5c-80.667 0 -121 15 -121 45
c0 6.66699 1.16699 27.334 3.5 62.001s3.83301 59.667 4.5 75l4 112c0.666992 14.667 1 28 1 40s-0.333008 22.833 -1 32.5s-1.16699 18 -1.5 25s-1.5 13.167 -3.5 18.5s-3.5 9.83301 -4.5 13.5s-3.16699 6.83398 -6.5 9.50098s-5.66602 4.66699 -6.99902 6
s-4.16602 2.5 -8.49902 3.5s-7.66602 1.66699 -9.99902 2s-6.16602 0.833008 -11.499 1.5l1 28c44.667 6 79.334 9 104.001 9c8 0 13.667 -0.666992 17 -2s6.5 -6.16602 9.5 -14.499s4.5 -21.5 4.5 -39.5c0 -4.66699 -0.5 -17.167 -1.5 -37.5s-2.16699 -46.333 -3.5 -78
s-2.33301 -57.167 -3 -76.5c-3.33301 -68.667 -5 -113 -5 -133c0 -41.333 16 -62 48 -62c34.667 0 63.667 13 87 39s35 60.333 35 103c0 60 -24.667 90 -74 90c-22.667 0 -46.334 -5.66699 -71.001 -17l-2 32c42.667 18 79 27 109 27c78.667 0 118 -40.667 118 -122z
M350.996 653.998l82 -13l-135 -123l-26 7z" />
    <glyph glyph-name="afii10095.var.accented" unicode="&#x44d;`" horiz-adv-x="410" 
d="M377 259c0 -80.667 -21.001 -145.497 -63.001 -194.497s-92.333 -73.5 -151 -73.5c-32.667 0 -59.667 4 -81 12s-35.333 16.5 -42 25.5s-10 18.167 -10 27.5c0 19.333 15.333 39.333 46 60l11 -10c6 -24 16.833 -42.167 32.5 -54.5s33.167 -18.5 52.5 -18.5
c36.667 0 65.667 15.667 87 47s32 78.666 32 141.999l-181 -15l7 52l175 -4c0 70 -9.66699 118 -29 144s-44.666 39 -75.999 39c-33.333 0 -56.833 -10.167 -70.5 -30.5s-19.5 -42.5 -17.5 -66.5l-12 -10c-22.667 2 -38.834 8.33301 -48.501 19s-14.5 21.667 -14.5 33
c0 25.333 15.333 47.333 46 66s70.334 28 119.001 28c24 0 46.5 -3.5 67.5 -10.5s40.833 -18.333 59.5 -34s33.5 -38.334 44.5 -68.001s16.5 -64.834 16.5 -105.501zM248.999 654.003l82 -13l-135 -123l-26 7z" />
    <glyph glyph-name="afii10096.var.accented" unicode="&#x44e;`" horiz-adv-x="684" 
d="M647 248c0 -72.667 -19.0039 -133.664 -57.0039 -182.997s-88.333 -74 -151 -74c-58 0 -103.5 19.667 -136.5 59s-49.833 96.666 -50.5 171.999h-93l-1 -27c-2 -50 -2.66699 -87.333 -2 -112c0.666992 -18 3.33398 -30.833 8.00098 -38.5s13.334 -12.834 26.001 -15.501
l-1 -27c-35.333 -4.66699 -61.666 -7 -78.999 -7c-14 0 -23.333 4.16699 -28 12.5s-7 26.166 -7 53.499c0 24.667 1 61.667 3 111l4 111c1.33301 44 1 77 -1 99c-0.666992 9.33301 -2 17.5 -4 24.5s-4 12.333 -6 16s-5.5 6.5 -10.5 8.5s-8.33301 3.16699 -10 3.5
s-5.5 0.5 -11.5 0.5h-10l1 28c44.667 6 79.334 9 104.001 9c8 0 13.667 -0.666992 17 -2s6.5 -6.16602 9.5 -14.499s4.5 -21.5 4.5 -39.5l-3 -110l-2 -45l94 3c4 39.333 13.667 73.666 29 102.999s33.833 51.5 55.5 66.5s43 26 64 33s42.167 10.5 63.5 10.5
c52 0 95.167 -17.333 129.5 -52s51.5 -93.667 51.5 -177zM560.996 237.003c0 42 -2.66602 76.835 -7.99902 104.502s-13.333 48.167 -24 61.5s-21.667 22.5 -33 27.5s-25 7.5 -41 7.5c-33.333 0 -61.333 -16 -84 -48s-34 -83 -34 -153c0 -74.667 10 -127.834 30 -159.501
s45.667 -47.5 77 -47.5c33.333 0 61.166 16.667 83.499 50s33.5 85.666 33.5 156.999zM385.997 654.005l82 -13l-135 -123l-26 7z" />
    <glyph glyph-name="afii10097.var.accented" unicode="&#x44f;`" horiz-adv-x="451" 
d="M434 32l-2.00293 -23.9971c-42.667 -8.66699 -71.334 -13 -86.001 -13c-8.66699 0 -15.334 0.666992 -20.001 2s-9.66699 4.66602 -15 9.99902s-9.33301 14.166 -12 26.499s-4 28.5 -4 48.5c0 12 0.666992 29.667 2 53s2 35.666 2 36.999l6 143
c2 50.667 2 80.334 0 89.001c-1.33301 10.667 -4.66602 18.334 -9.99902 23.001s-10.166 7.16699 -14.499 7.5s-12.5 0.5 -24.5 0.5c-25.333 0 -48.833 -8 -70.5 -24s-33.167 -42 -34.5 -78c-0.666992 -22 2.83301 -40.5 10.5 -55.5s18.5 -25.333 32.5 -31
s26.333 -9.5 37 -11.5s22.334 -3 35.001 -3h26l-1 -28h-9c-10 0 -19.667 -2.33301 -29 -7s-18.666 -13.334 -27.999 -26.001s-16.166 -22.334 -20.499 -29.001s-11.666 -19.667 -21.999 -39s-16.166 -30.333 -17.499 -33c-14.667 -28 -27.834 -47.5 -39.501 -58.5
s-29.167 -16.5 -52.5 -16.5c-8.66699 0 -18.167 1 -28.5 3s-18.5 4 -24.5 6l-9 2l1 26c12 -1.33301 23 1 33 7s17.5 12.333 22.5 19s11.833 17 20.5 31c20.667 32.667 38.5 57.667 53.5 75s34.833 32.333 59.5 45v4c-34.667 2.66699 -65.667 13.667 -93 33
s-40.333 48.333 -39 87c3.33301 94 79 141 227 141c43.333 0 75 -4.66699 95 -14c-4 -52.667 -6.66699 -104 -8 -154l-4 -111c-2.66699 -48 -3.33398 -83.333 -2.00098 -106c1.33301 -38 20.333 -57 57 -57zM268.997 654.003l82 -13l-135 -123l-26 7z" />
    <glyph glyph-name=".notdef" horiz-adv-x="500" 
 />
    <glyph glyph-name="space" unicode=" " horiz-adv-x="500" 
 />
    <glyph glyph-name="exclam" unicode="!" horiz-adv-x="209" 
d="M58 696l91 21l-18 -544l-38 -10zM172 53c0 -15.333 -5.66699 -28.666 -17 -39.999s-24.666 -17 -39.999 -17s-28.666 5.66699 -39.999 17s-17 24.666 -17 39.999s5.66699 28.666 17 39.999s24.666 17 39.999 17s28.666 -5.66699 39.999 -17s17 -24.666 17 -39.999z" />
    <glyph glyph-name="quotedbl" unicode="&#x22;" horiz-adv-x="324" 
d="M189 690h87l-21 -203h-45zM56 690h86l-21 -203h-44z" />
    <glyph glyph-name="numbersign" unicode="#" horiz-adv-x="616" 
d="M467 506h128l-9 -47h-127l-45 -259h130l-14 -50h-123l-39 -209h-53l37 210h-157l-37 -210h-53l38 211h-133l12 50h129l46 259h-130l10 45h130l36 211h53l-38 -211h157l35 211h52zM360 201l47 258h-157l-45 -258h155z" />
    <glyph glyph-name="dollar" unicode="$" 
d="M426 196c0 -50 -14.834 -92.665 -44.501 -127.998s-70.5 -58.666 -122.5 -69.999v-76l-47 -29l2 98c-4.66699 -0.666992 -12 -1 -22 -1c-38.667 0 -70 3.5 -94 10.5s-39.833 14.833 -47.5 23.5s-11.5 18.334 -11.5 29.001c0 32 14.667 70.333 44 115l15 -7
c6 -86.667 43.333 -130 112 -130c0.666992 0 2 0.333008 4 1v293l-30 16c-21.333 11.333 -38.333 21.166 -51 29.499s-26.834 19.666 -42.501 33.999s-27.334 31.166 -35.001 50.499s-11.5 41.333 -11.5 66c0 17.333 2.5 34 7.5 50s13.5 32.167 25.5 48.5
s29.667 30.333 53 42s51.333 19.167 84 22.5l-1 71l48 15l-2 -83c38 0 69 -3.66699 93 -11s39.833 -15.333 47.5 -24s11.5 -18.334 11.5 -29.001s-4.66699 -26.5 -14 -47.5s-22.333 -42.5 -39 -64.5l-15 7c0 46 -7.66699 77.833 -23 95.5s-35.666 27.834 -60.999 30.501
v-251l16 -8c0.666992 0 4.83398 -2 12.501 -6s13.334 -6.83301 17.001 -8.5s9.83398 -5.16699 18.501 -10.5s15.5 -9.83301 20.5 -13.5s11.667 -8.83398 20 -15.501s15 -13.167 20 -19.5s10.5 -14 16.5 -23s10.667 -18 14 -27s6.16602 -19.167 8.49902 -30.5
s3.5 -23 3.5 -35zM213.999 418.002l-0.000976562 225c-26.667 -4 -48.167 -15 -64.5 -33s-24.166 -41 -23.499 -69c0.666992 -30.667 8.5 -55.167 23.5 -73.5s36.5 -34.833 64.5 -49.5zM338.998 173.002c0 28.667 -6.5 52.5 -19.5 71.5s-32.833 36.5 -59.5 52.5l-1 -256
c53.333 20.667 80 64.667 80 132z" />
    <glyph glyph-name="percent" unicode="%" horiz-adv-x="676" 
d="M325 539c0 -50.667 -13.334 -91.333 -40.001 -122s-58.667 -46 -96 -46c-40.667 0 -74.667 12.5 -102 37.5s-41 64.167 -41 117.5c0 56.667 14.833 98.667 44.5 126s61.834 41 96.501 41c14.667 0 28.5 -1.66699 41.5 -5s27.5 -9.83301 43.5 -19.5
s28.833 -25.5 38.5 -47.5s14.5 -49.333 14.5 -82zM485.999 724.001l46 -2l-155 -359l-156 -375l-61 -15l192 427zM644.999 159.001c0 -50.667 -13.334 -91.5 -40.001 -122.5s-58.667 -46.5 -96 -46.5c-40.667 0 -74.667 12.667 -102 38s-41 64.666 -41 117.999
c0 56.667 14.833 98.5 44.5 125.5s61.834 40.5 96.501 40.5c14.667 0 28.5 -1.66699 41.5 -5s27.5 -9.66602 43.5 -18.999s28.833 -25 38.5 -47s14.5 -49.333 14.5 -82zM257.998 530.001c0 44 -7.33398 75.667 -22.001 95s-31.334 29 -50.001 29
c-9.33301 0 -17.5 -1.16699 -24.5 -3.5s-14.667 -7.16602 -23 -14.499s-14.666 -19.5 -18.999 -36.5s-6.5 -38.5 -6.5 -64.5c0 -42.667 7.33301 -74.334 22 -95.001s32.667 -31 54 -31c22.667 0 39.834 8 51.501 24s17.5 48.333 17.5 97zM577.997 149.001
c0 44 -7.33398 75.833 -22.001 95.5s-31.334 29.5 -50.001 29.5c-9.33301 0 -17.5 -1.16699 -24.5 -3.5s-14.667 -7.16602 -23 -14.499s-14.666 -19.5 -18.999 -36.5s-6.5 -38.5 -6.5 -64.5c0 -42.667 7.33301 -74.334 22 -95.001s32.667 -31 54 -31
c22.667 0 39.834 8 51.501 24s17.5 48 17.5 96z" />
    <glyph glyph-name="ampersand" unicode="&#x26;" horiz-adv-x="695" 
d="M657 160l22.998 -9.00488c-27.333 -103.333 -72 -155 -134 -155c-14.667 0 -27.167 1 -37.5 3s-24.666 8.83301 -42.999 20.5s-38.166 28.5 -59.499 50.5c-58 -54 -124 -81 -198 -81c-22 0 -43.167 2.83301 -63.5 8.5s-40 14.834 -59 27.501s-34.333 31 -46 55
s-17.5 52 -17.5 84c0 24.667 3.33301 47.667 10 69s14 38.666 22 51.999s19.667 27 35 41s27.166 24 35.499 30s20.5 14 36.5 24l-15 23c-31.333 47.333 -47 93.333 -47 138c0 42 14.167 78.167 42.5 108.5s71.166 45.5 128.499 45.5c40.667 0 73.5 -11.167 98.5 -33.5
s37.5 -52.166 37.5 -89.499c0 -15.333 -2.83301 -30.333 -8.5 -45s-11.5 -26.667 -17.5 -36s-16.167 -20.166 -30.5 -32.499s-24.666 -20.666 -30.999 -24.999s-18.5 -12.166 -36.5 -23.499s-28 -17.666 -30 -18.999c36.667 -56 98 -132 184 -228
c12.667 16.667 22.5 37.5 29.5 62.5s10.5 46.167 10.5 63.5c0 10.667 -1 19.5 -3 26.5s-6 12.667 -12 17s-10.333 7 -13 8s-9 3.16699 -19 6.5v21c27.333 7.33301 53 11 77 11c10.667 0 18.167 -0.333008 22.5 -1s8.33301 -3 12 -7s5.5 -10.333 5.5 -19
c0 -68 -27.333 -140.333 -82 -217c26 -29.333 45.667 -49.333 59 -60s28 -16 44 -16c18 0 33.833 6.66699 47.5 20s27.834 40.333 42.501 81zM342.998 564.995c0 28 -6.83301 50.999 -20.5 68.999s-34.167 27 -61.5 27c-58 0 -87 -37.333 -87 -112
c0 -27.333 11.333 -58.666 34 -93.999l22 -34c39.333 21.333 68 43 86 65s27 48.333 27 79zM379.998 99.9941c-25.333 27.333 -57.168 65.1689 -95.501 113.502s-72.166 94.5 -101.499 138.5c-25.333 -20.667 -44 -43.834 -56 -69.501s-18 -57.5 -18 -95.5
c0 -46.667 12.333 -83.334 37 -110.001s55.334 -40 92.001 -40c55.333 0 102.666 21 141.999 63z" />
    <glyph glyph-name="quotesingle" unicode="'" horiz-adv-x="172" 
d="M46 690h86l-21 -203h-44z" />
    <glyph glyph-name="parenleft" unicode="(" horiz-adv-x="309" 
d="M247 -193l-21.999 -19.002c-128 152.667 -192 316.334 -192 491.001c0 96.667 16.667 184.334 50 263.001s80.666 154.667 141.999 228l22 -19c-35.333 -48.667 -65.5 -113.5 -90.5 -194.5s-37.5 -173.5 -37.5 -277.5s12.5 -196.5 37.5 -277.5
s55.167 -145.833 90.5 -194.5z" />
    <glyph glyph-name="parenright" unicode=")" horiz-adv-x="309" 
d="M95 -212l-21.999 19.002c35.333 48.667 65.5 113.5 90.5 194.5s37.5 173.5 37.5 277.5s-12.5 196.5 -37.5 277.5s-55.167 145.833 -90.5 194.5l22 19c61.333 -73.333 108.666 -149.333 141.999 -228s50 -166.334 50 -263.001c0 -174.667 -64 -338.334 -192 -491.001z" />
    <glyph glyph-name="asterisk" unicode="*" horiz-adv-x="454" 
d="M384 616l31 -53l-133 -70l132 -69l-30 -52l-127 79l5 -149h-61l7 148l-127 -80l-31 54l133 70l-133 69l31 53l126 -80l-6 150h62l-6 -150z" />
    <glyph glyph-name="plus" unicode="+" horiz-adv-x="552" 
d="M494 315l-18 -57.999c-70 1.33301 -128.333 2.33301 -175 3l4 -175l-58 -15c2 90 3 153.333 3 190l-198 -3l15 58c73.333 -2 134.333 -3.33301 183 -4l-3 173l58 18c-2.66699 -94.667 -4 -158.334 -4 -191.001z" />
    <glyph glyph-name="comma" unicode="," horiz-adv-x="169" 
d="M141 35c0 -28 -8.83105 -59.166 -26.498 -93.499s-41.834 -61.833 -72.501 -82.5l-15 16l13.5 13.5c5.66699 5.66699 13 17 22 34s13.5 33.5 13.5 49.5c0 10.667 -6.33301 24.667 -19 42s-19 30.666 -19 39.999c0 16.667 4.16699 30.167 12.5 40.5
s20.166 15.5 35.499 15.5c36.667 0 55 -25 55 -75z" />
    <glyph glyph-name="hyphen" unicode="-" horiz-adv-x="416" 
d="M375 321l-15 -65c-86 2.66699 -146 4 -180 4l-135 -4l15 65l158 -5z" />
    <glyph glyph-name="period" unicode="." horiz-adv-x="190" 
d="M153 53c0 -15.333 -5.66699 -28.666 -17 -39.999s-24.666 -17 -39.999 -17s-28.666 5.66699 -39.999 17s-17 24.666 -17 39.999s5.66699 28.666 17 39.999s24.666 17 39.999 17s28.666 -5.66699 39.999 -17s17 -24.666 17 -39.999z" />
    <glyph glyph-name="slash" unicode="/" horiz-adv-x="382" 
d="M348 735l42 -18l-332 -883l-39 18z" />
    <glyph glyph-name="zero" unicode="0" 
d="M443 358c0 -58 -4.83301 -109.668 -14.5 -155.001s-21.834 -81.166 -36.501 -107.499s-32 -48 -52 -65s-39.167 -28.5 -57.5 -34.5s-37.166 -9 -56.499 -9c-58 0 -105.333 27 -142 81s-55 136.667 -55 248c0 59.333 4.83301 112 14.5 158s22 82 37 108
s32.667 47.333 53 64s39.333 27.667 57 33s36.167 8 55.5 8c61.333 0 109.5 -26.667 144.5 -80s52.5 -136.333 52.5 -249zM352 353.999c0 42 -1.5 78.833 -4.5 110.5s-8.5 61.834 -16.5 90.501s-20 50.667 -36 66s-35.667 23 -59 23c-24 0 -44 -7.83301 -60 -23.5
s-29.333 -48.334 -40 -98.001s-16 -117.167 -16 -202.5c0 -193.333 38.667 -290 116 -290s116 108 116 324z" />
    <glyph glyph-name="one" unicode="1" 
d="M313 27l-0.000976562 -26.999h-87c-11.333 0 -19.166 4.5 -23.499 13.5s-6.5 25.167 -6.5 48.5c0 9.33301 0.5 32.666 1.5 69.999s1.5 61 1.5 71v254c0 56 -3.66699 91.333 -11 106s-23.333 22 -48 22l-59 -5v33l202 72l7 -4c-4.66699 -79.333 -7 -125 -7 -137v-273
c0 -118 3 -188.333 9 -211c4 -17.333 11 -28.333 21 -33z" />
    <glyph glyph-name="two" unicode="2" 
d="M404 157l27.001 -4.99902l-54 -142c-24.667 -9.33301 -84.667 -14 -180 -14h-183l26 79l36 36.5c20.667 21 42.5 44.667 65.5 71s48.5 57.166 76.5 92.499c72.667 93.333 109 174 109 242c0 72 -31.333 108 -94 108c-50.667 0 -100 -29.667 -148 -89l-27 21
c26.667 36 59 66.667 97 92s78.667 38 122 38c96.667 0 145 -45.333 145 -136c0 -96 -63 -206.333 -189 -331l-144 -145c63.333 -2.66699 122.666 -1.33398 177.999 3.99902c41.333 4 71 11.333 89 22s34 29.334 48 56.001z" />
    <glyph glyph-name="three" unicode="3" 
d="M413 246c0 -51.333 -20.498 -99.168 -61.498 -143.501s-93.167 -78.833 -156.5 -103.5c-22 -8.66699 -47 -16 -75 -22s-50.667 -9.66699 -68 -11l-25 -3l4 36c47.333 0 98.333 13 153 39c31.333 14.667 61 38.667 89 72s42 72.333 42 117c0 72 -32.667 108 -98 108
c-16 0 -34.667 -3.33301 -56 -10l-32 -9v39l32 12c94 35.333 141 92.333 141 171c0 35.333 -8 60.333 -24 75s-34 22 -54 22c-48.667 0 -97.667 -20.667 -147 -62l-11 33c62 53.333 126.667 80 194 80c87.333 0 131 -40.333 131 -121c0 -68 -43.667 -129 -131 -183v-6
c10 0 19.667 -0.333008 29 -1s22.166 -3.5 38.499 -8.5s30.166 -11.667 41.499 -20s21.5 -21.166 30.5 -38.499s13.5 -38 13.5 -62z" />
    <glyph glyph-name="four" unicode="4" 
d="M417 235l-10 -75c-19.333 -3.33301 -41 -5.33301 -65 -6l-6 -151c0 -16 -8.66699 -29 -26 -39s-37 -15 -59 -15c6.66699 62 10 130.333 10 205c-66 -2 -102.667 -3 -110 -3l-126 5l2 55l292 481l31 -5c-3.33301 -56 -5.33301 -103.667 -6 -143
c-1.33301 -56 -2 -162.333 -2 -319zM258 220l7.99902 297l-179 -295c38.667 -2.66699 74 -4 106 -4c16.667 0 38.334 0.666992 65.001 2z" />
    <glyph glyph-name="five" unicode="5" 
d="M403 734l28 -4.99902l-26 -132c-28 -14.667 -117.667 -21 -269 -19l-11 -184c38 8 73 12 105 12c120.667 0 181 -50.333 181 -151c0 -52 -16.833 -100.5 -50.5 -145.5s-88.834 -81.833 -165.501 -110.5c-22 -8 -47 -15 -75 -21s-50.667 -10 -68 -12l-25 -3l4 36
c47.333 0 98.333 13 153 39c30 14.667 59.333 39.167 88 73.5s43 72.833 43 115.5s-9.5 74.667 -28.5 96s-49.5 32 -91.5 32c-12 0 -24.333 -1.33301 -37 -4s-23 -5.33398 -31 -8.00098s-17.167 -6 -27.5 -10s-16.833 -6.33301 -19.5 -7l-9 6l22 333
c48.667 -2.66699 102.334 -3.33398 161.001 -2.00098c44.667 1.33301 78 6.83301 100 16.5s38.333 27.834 49 54.501z" />
    <glyph glyph-name="six" unicode="6" 
d="M423 236c0 -74.667 -18.833 -135.001 -56.5 -181.001s-84.167 -69 -139.5 -69c-123.333 0 -185 91.667 -185 275c0 106.667 28.667 199.5 86 278.5s126.333 131.167 207 156.5l12 -32c-62.667 -26 -114.167 -71.333 -154.5 -136s-60.5 -151.667 -60.5 -261v-49
c0 -11.333 0.666992 -26.666 2 -45.999s3.16602 -34.5 5.49902 -45.5s5.83301 -23.5 10.5 -37.5s10.334 -24.5 17.001 -31.5s15.167 -13.167 25.5 -18.5s22.166 -8 35.499 -8c30.667 0 56.334 15 77.001 45s31 68 31 114c0 67.333 -7.33301 115.333 -22 144s-40 43 -76 43
c-30.667 0 -56 -7.66699 -76 -23l5 42c34 18.667 67.667 28 101 28c17.333 0 33.5 -2.16699 48.5 -6.5s31.333 -12.333 49 -24s31.667 -31 42 -58s15.5 -60.167 15.5 -99.5z" />
    <glyph glyph-name="seven" unicode="7" 
d="M436 684l-21.001 -77l-223 -607h-82l266 597c-40 1.33301 -88.667 0 -146 -4c-35.333 -2.66699 -60.166 -5 -74.499 -7s-29.833 -7.5 -46.5 -16.5s-31 -22.167 -43 -39.5l-27 5l54 132c24.667 11.333 139 17 343 17z" />
    <glyph glyph-name="eight" unicode="8" 
d="M425 182c0 -54 -17.6719 -100.165 -53.0049 -138.498s-83.666 -57.5 -144.999 -57.5s-108.333 16.5 -141 49.5s-49 74.5 -49 124.5c0 48.667 12.667 87.834 38 117.501s60 54.834 104 75.501c-78.667 52 -118 112.667 -118 182c0 25.333 4.83301 47.666 14.5 66.999
s21.167 34.166 34.5 44.499s28.833 18.666 46.5 24.999s32.667 10.333 45 12s23.833 2.5 34.5 2.5c113.333 0 170 -48 170 -144c0 -16.667 -2.33301 -32.334 -7 -47.001s-10 -27.167 -16 -37.5s-14.167 -20.666 -24.5 -30.999s-18.666 -18 -24.999 -23
s-14.666 -11 -24.999 -18l-18.5 -12.5c0.666992 -0.666992 6.33398 -4.33398 17.001 -11.001s17 -10.834 19 -12.501s7.83301 -6 17.5 -13s16 -12 19 -15l16 -16c7.66699 -7.66699 12.834 -14.167 15.501 -19.5s6.66699 -12.166 12 -20.499s9 -16.5 11 -24.5
s3.83301 -17.167 5.5 -27.5s2.5 -20.833 2.5 -31.5zM335.995 535.002c0 39.333 -8.66504 66.8311 -25.998 82.498s-42 23.5 -74 23.5c-28.667 0 -51.5 -8 -68.5 -24s-25.5 -39.333 -25.5 -70c0 -24 6.33301 -46.5 19 -67.5s25.667 -36.833 39 -47.5
s30.666 -22.667 51.999 -36c21.333 10.667 40.666 27.834 57.999 51.501s26 52.834 26 87.501zM339.997 172c0 14 -2.33203 27.334 -6.99902 40.001s-9.33398 23 -14.001 31s-14.167 17.833 -28.5 29.5s-25.333 20.167 -33 25.5l-43.5 30c-12.667 -8 -21 -13.167 -25 -15.5
s-12.333 -8.83301 -25 -19.5s-21.667 -20.5 -27 -29.5s-10.833 -21.833 -16.5 -38.5s-8.5 -34.334 -8.5 -53.001c0 -48.667 11.5 -84.334 34.5 -107.001s49.833 -34 80.5 -34c31.333 0 58 11.333 80 34s33 58.334 33 107.001z" />
    <glyph glyph-name="nine" unicode="9" 
d="M424 411c0 -107.333 -28.1699 -200.333 -84.5029 -279s-125.166 -130.667 -206.499 -156l-13 34c143.333 56 215 187.667 215 395c0 30 -0.166992 53 -0.5 69s-2.16602 36.5 -5.49902 61.5s-8.16602 43.833 -14.499 56.5s-16 24 -29 34s-28.833 15 -47.5 15
c-30 0 -55.333 -15 -76 -45s-31 -68 -31 -114c0 -67.333 7.16699 -115.333 21.5 -144s39.5 -43 75.5 -43c36.667 0 65 9 85 27v-40c-14 -9.33301 -32 -17.333 -54 -24s-42 -10 -60 -10c-13.333 0 -26 1 -38 3s-25.5 7 -40.5 15s-28 18.333 -39 31s-20.167 31 -27.5 55
s-11 52 -11 84c0 74 19 134.167 57 180.5s84.667 69.5 140 69.5c122.667 0 184 -91.667 184 -275z" />
    <glyph glyph-name="colon" unicode=":" horiz-adv-x="190" 
d="M153 413c0 -15.333 -5.66699 -28.666 -17 -39.999s-24.666 -17 -39.999 -17s-28.666 5.66699 -39.999 17s-17 24.666 -17 39.999s5.66699 28.666 17 39.999s24.666 17 39.999 17s28.666 -5.66699 39.999 -17s17 -24.666 17 -39.999zM153 53
c0 -15.333 -5.66699 -28.666 -17 -39.999s-24.666 -17 -39.999 -17s-28.666 5.66699 -39.999 17s-17 24.666 -17 39.999s5.66699 28.666 17 39.999s24.666 17 39.999 17s28.666 -5.66699 39.999 -17s17 -24.666 17 -39.999z" />
    <glyph glyph-name="semicolon" unicode=";" horiz-adv-x="190" 
d="M153 413c0 -15.333 -5.66699 -28.666 -17 -39.999s-24.666 -17 -39.999 -17s-28.666 5.66699 -39.999 17s-17 24.666 -17 39.999s5.66699 28.666 17 39.999s24.666 17 39.999 17s28.666 -5.66699 39.999 -17s17 -24.666 17 -39.999zM141 35
c0 -28 -8.83105 -59.166 -26.498 -93.499s-41.834 -61.833 -72.501 -82.5l-15 16l13.5 13.5c5.66699 5.66699 13 17 22 34s13.5 33.5 13.5 49.5c0 10.667 -6.33301 24.667 -19 42s-19 30.666 -19 39.999c0 16.667 4.16699 30.167 12.5 40.5s20.166 15.5 35.499 15.5
c36.667 0 55 -25 55 -75z" />
    <glyph glyph-name="less" unicode="&#x3c;" horiz-adv-x="581" 
d="M133 271l377 -184l-10 -43l-437 215v24l437 215l10 -43z" />
    <glyph glyph-name="equal" unicode="=" horiz-adv-x="549" 
d="M494 343v-46h-439v46h439zM494 193v-47h-439v47h439z" />
    <glyph glyph-name="greater" unicode="&#x3e;" horiz-adv-x="581" 
d="M94 87l377 184l-377 184l10 43l437 -215v-24l-437 -215z" />
    <glyph glyph-name="question" unicode="?" horiz-adv-x="434" 
d="M410 570c0 -20 -2.49609 -39.1709 -7.49609 -57.5039s-13 -36.666 -24 -54.999s-21.167 -33.666 -30.5 -45.999s-22.5 -28.666 -39.5 -48.999s-29.5 -35.833 -37.5 -46.5c-40 -52.667 -62 -104.667 -66 -156l-32 -5c2.66699 40.667 15 85 37 133
c9.33301 19.333 24.666 47.333 45.999 84s37.166 68.167 47.499 94.5s15.5 53.833 15.5 82.5c0 69.333 -31.667 104 -95 104c-37.333 0 -65.833 -10.833 -85.5 -32.5s-29.5 -48.167 -29.5 -79.5c0 -14 1.66699 -24.667 5 -32c-10.667 -16 -26.334 -24 -47.001 -24
c-8.66699 0 -16.5 4 -23.5 12s-10.5 20.333 -10.5 37c0 45.333 19.333 83 58 113s92 45 160 45c16.667 0 32.667 -1.5 48 -4.5s32.166 -8.33301 50.499 -16s33 -20.167 44 -37.5s16.5 -38.666 16.5 -63.999zM246.004 52.9961c0 -15.333 -5.66699 -28.666 -17 -39.999
s-24.666 -17 -39.999 -17s-28.666 5.66699 -39.999 17s-17 24.666 -17 39.999s5.66699 28.666 17 39.999s24.666 17 39.999 17s28.666 -5.66699 39.999 -17s17 -24.666 17 -39.999z" />
    <glyph glyph-name="at" unicode="@" horiz-adv-x="861" 
d="M830 424c0 -48.667 -9.33008 -93.8301 -27.9971 -135.497s-42.667 -75.834 -72 -102.501s-61.166 -47.334 -95.499 -62.001s-67.833 -22 -100.5 -22c-24.667 0 -37 11 -37 33l13 81l-4 1c-30 -40.667 -57.5 -70 -82.5 -88s-51.833 -27 -80.5 -27
c-18 0 -34.5 6.66699 -49.5 20s-22.5 37.666 -22.5 72.999c0 36 7.16699 75.5 21.5 118.5s32.166 78.5 53.499 106.5c45.333 62 103 93 173 93c24 0 47.333 -3.66699 70 -11l47 17l8 -7l-59 -235c-11.333 -60.667 -17 -95.334 -17 -104.001c0 -17.333 8.66699 -26 26 -26
c42.667 0 82.167 23.667 118.5 71s54.5 114.666 54.5 201.999c0 76.667 -25 138.167 -75 184.5s-118.667 69.5 -206 69.5c-108 0 -193.667 -37.667 -257 -113s-95 -174.666 -95 -297.999c0 -106 29 -190 87 -252s136.667 -93 236 -93c94 0 187 30 279 90l13 -25
c-94 -70 -195 -105 -303 -105c-65.333 0 -123.333 10.333 -174 31s-91.334 49 -122.001 85s-53.834 77 -69.501 123s-23.5 95.667 -23.5 149c0 131.333 40.667 238.5 122 321.5s184.666 124.5 309.999 124.5c111.333 0 196 -26.167 254 -78.5s87 -122.166 87 -209.499z
M559.003 465.004c-18.667 11.333 -38.668 16.999 -60.001 16.999c-43.333 0 -79.333 -29 -108 -87c-11.333 -23.333 -21.666 -52.333 -30.999 -87s-14 -63.667 -14 -87c0 -22.667 4.16699 -39.167 12.5 -49.5s18.166 -15.5 29.499 -15.5c27.333 0 58.333 24 93 72
c24.667 32.667 43.334 78.334 56.001 137.001z" />
    <glyph glyph-name="A" unicode="A" horiz-adv-x="544" 
d="M537 31l-1.00293 -32.9961c-40.667 -3.33301 -69.667 -5 -87 -5c-15.333 0 -26.666 4.5 -33.999 13.5s-15 27.833 -23 56.5c-0.666992 2 -15.667 65.667 -45 191l-210 2c-26 -82.667 -39 -139 -39 -169c0 -18 2 -31.333 6 -40s12 -17.334 24 -26.001l-1 -23
c-29.333 -3.33301 -53.666 -5 -72.999 -5c-14 0 -22.833 3.16699 -26.5 9.5s-5.5 16.166 -5.5 29.499c0 26 16.667 87.333 50 184l43 128c4.66699 14 12.667 36.667 24 68l27 75c6.66699 18.667 12.834 38.167 18.501 58.5s8.5 35.166 8.5 44.499
c0 5.33301 -0.5 10.166 -1.5 14.499s-2.83301 7.83301 -5.5 10.5s-5 4.66699 -7 6s-5.33301 2.5 -10 3.5s-7.83398 1.66699 -9.50098 2s-5.5 0.5 -11.5 0.5h-10v28c93.333 24 150 36 170 36c17.333 0 27.666 -6.66699 30.999 -20l34 -145l57 -252
c18.667 -84.667 32 -137 40 -157c10.667 -30 20.834 -51.667 30.501 -65s21.834 -20.333 36.501 -21zM150.997 296.004l188 -6l-49 223c-12 56.667 -22.667 94 -32 112h-9l-36 -126z" />
    <glyph glyph-name="B" unicode="B" horiz-adv-x="539" 
d="M498 188c-0.666992 -33.333 -6.99707 -62.6631 -18.9971 -87.9961s-26.833 -45 -44.5 -59s-38.5 -25.5 -62.5 -34.5s-46.167 -14.833 -66.5 -17.5s-41.166 -4 -62.499 -4c-32.667 0 -68.167 3.5 -106.5 10.5s-57.5 14.167 -57.5 21.5c0 4.66699 1.16699 18.5 3.5 41.5
s3.83301 40.833 4.5 53.5c2.66699 42 4.66699 80 6 114l5 231c0.666992 16.667 1 44.667 1 84c0 41.333 -4.83301 68.166 -14.5 80.499s-27.5 18.5 -53.5 18.5l1 33c112.667 9.33301 202.667 14 270 14c21.333 0 40.666 -1.66699 57.999 -5s35.5 -9.66602 54.5 -18.999
s33.667 -24.333 44 -45s15.166 -46.334 14.499 -77.001c-0.666992 -46 -13.667 -83.333 -39 -112s-52 -48.334 -80 -59.001l-2 -7c45.333 -10.667 81.166 -28.334 107.499 -53.001s39.166 -65.334 38.499 -122.001zM385.003 525.003c0.666992 38 -7.83398 67.333 -25.501 88
s-43.167 31 -76.5 31c-28 0 -47.667 -1.5 -59 -4.5s-21 -9.16699 -29 -18.5c-10 -12 -14.667 -37.667 -14 -77l-2 -173l77 6c38 2 68.833 15.667 92.5 41s35.834 61 36.501 107zM409.002 188.003c1.33301 48 -8.83203 84.833 -30.499 110.5s-59.167 38.5 -112.5 38.5
c-10.667 0 -23.334 -0.833008 -38.001 -2.5s-26.667 -3.5 -36 -5.5l-14 -3l-3 -108c-2 -61.333 -3 -107.333 -3 -138c0 -18.667 5.33301 -32 16 -40s33 -12 67 -12c100.667 0 152 53.333 154 160z" />
    <glyph glyph-name="C" unicode="C" horiz-adv-x="531" 
d="M492 125l10.999 -31c-2 -2.66699 -5.16699 -6.5 -9.5 -11.5s-13.5 -13.667 -27.5 -26s-28.833 -23.166 -44.5 -32.499s-35.834 -17.833 -60.501 -25.5s-49.667 -11.5 -75 -11.5c-70.667 0 -129 26 -175 78s-69 132.333 -69 241c0 118.667 30 213 90 283
c28.667 33.333 61.834 58 99.501 74s74.5 24 110.5 24c52 0 88 -7.66699 108 -23s30 -32.333 30 -51c0 -10.667 -5.5 -25.834 -16.5 -45.501s-26.167 -39.167 -45.5 -58.5l-17 4c4 20 6 38.333 6 55c0 29.333 -7.16699 49.333 -21.5 60s-35.166 16 -62.499 16
c-53.333 0 -98.5 -26.5 -135.5 -79.5s-55.5 -131.167 -55.5 -234.5c0 -96 17.333 -167.167 52 -213.5s77.667 -69.5 129 -69.5c64 0 123.667 26 179 78z" />
    <glyph glyph-name="D" unicode="D" horiz-adv-x="600" 
d="M567 395c0 -54 -5.33203 -103.164 -15.999 -147.497s-25.167 -80.833 -43.5 -109.5s-38.333 -53.334 -60 -74.001s-45 -36.334 -70 -47.001s-47.833 -18.334 -68.5 -23.001s-40.667 -7 -60 -7c-112.667 0 -169 10.667 -169 32c0 4 0.5 9.5 1.5 16.5
s2.33301 18.833 4 35.5l5.5 57c4.66699 57.333 7 114.333 7 171v158c0 54.667 -2.16699 95 -6.5 121s-10.833 42.833 -19.5 50.5s-22.334 11.5 -41.001 11.5l1 33c112.667 9.33301 202.667 14 270 14c20.667 0 39.5 -1 56.5 -3s39.333 -8.33301 67 -19s51 -25.667 70 -45
s35.667 -48.333 50 -87s21.5 -84.667 21.5 -138zM480.001 368.003c0 38 -2.6709 72.002 -8.00391 102.002s-11.666 54.5 -18.999 73.5s-17.333 35.333 -30 49s-24 23.667 -34 30s-22.667 11.333 -38 15s-27.166 5.66699 -35.499 6s-19.166 0.5 -32.499 0.5
c-28 0 -47.667 -1.5 -59 -4.5s-21 -9.16699 -29 -18.5c-9.33301 -10.667 -14 -36.334 -14 -77.001c0 -90.667 -0.333008 -164.334 -1 -221.001c-0.666992 -32 -2 -77.5 -4 -136.5s-3 -94.5 -3 -106.5c0 -16.667 6 -29.167 18 -37.5s33.667 -12.5 65 -12.5
c26.667 0 52.334 5.5 77.001 16.5s48.5 28.667 71.5 53s41.333 59.5 55 105.5s20.5 100.333 20.5 163z" />
    <glyph glyph-name="E" unicode="E" horiz-adv-x="509" 
d="M441 176l28 -5.00098l-26 -167c-55.333 -6.66699 -129.333 -10 -222 -10c-59.333 0 -96.166 1.5 -110.499 4.5s-21.5 12.167 -21.5 27.5c0 12.667 0.666992 36.167 2 70.5s2.33301 69.833 3 106.5l4 254c0.666992 16.667 1 44.667 1 84
c0 41.333 -4.66699 68.166 -14 80.499s-27 18.5 -53 18.5l1 33c112 9.33301 201.667 14 269 14c61.333 0 102.833 -2.33301 124.5 -7s32.5 -15.667 32.5 -33c0 -12.667 -5 -33 -15 -61s-20.667 -51 -32 -69l-30 -5c2.66699 18.667 4 37 4 55
c0 12.667 -0.666992 22.5 -2 29.5s-5 14.667 -11 23s-16.5 14.5 -31.5 18.5s-34.5 6 -58.5 6c-45.333 0 -74.333 -7.66699 -87 -23c-7.33301 -9.33301 -11.666 -35 -12.999 -77l-3 -173l189 5l-11 -59c-14.667 2.66699 -36.834 5.16699 -66.501 7.5s-55.5 3.83301 -77.5 4.5
l-34 1c0 -13.333 -0.666992 -48.666 -2 -105.999s-2 -93 -2 -107c0 -32.667 6.5 -54.167 19.5 -64.5s39.833 -15.5 80.5 -15.5c25.333 0 47.666 4.16699 66.999 12.5s35.333 20.833 48 37.5s22.167 30.834 28.5 42.501s13.5 27.167 21.5 46.5z" />
    <glyph glyph-name="F" unicode="F" horiz-adv-x="471" 
d="M459 647c0 -12.667 -4.99805 -32.998 -14.998 -60.998s-20.667 -51 -32 -69l-30 -5c2.66699 18.667 4 37 4 55c0 12.667 -0.666992 22.5 -2 29.5s-5 14.667 -11 23s-16.5 14.5 -31.5 18.5s-34.5 6 -58.5 6c-46 0 -75.333 -7.66699 -88 -23
c-8 -8.66699 -12.333 -34.334 -13 -77.001l-2 -171l189 3l-11 -59c-14.667 2.66699 -36.834 5.16699 -66.501 7.5s-55.834 3.83301 -78.501 4.5l-34 1l-3 -164c-2 -50.667 0.166992 -86 6.5 -106s20.166 -31 41.499 -33v-27h-107c-11.333 0 -19 3.83301 -23 11.5
s-6 22.5 -6 44.5c0 11.333 1 37.166 3 77.499s3 63.5 3 69.5l4 254c0.666992 37.333 -0.333008 77 -3 119c-0.666992 7.33301 -1.5 14 -2.5 20s-2.66699 11.167 -5 15.5l-6 11c-1.66699 3 -4.16699 5.5 -7.5 7.5s-6 3.66699 -8 5s-5.16699 2.33301 -9.5 3
s-7.16602 1.16699 -8.49902 1.5s-4.33301 0.5 -9 0.5h-8l1 33c112.667 9.33301 202.667 14 270 14c61.333 0 102.833 -2.33301 124.5 -7s32.5 -15.667 32.5 -33z" />
    <glyph glyph-name="G" unicode="G" horiz-adv-x="552" 
d="M503 371l6.99902 -3.99902c-1.33301 -28 -2.66602 -71.667 -3.99902 -131l-2 -142c-2 -2.66699 -5.16699 -6.5 -9.5 -11.5s-13.5 -13.667 -27.5 -26s-28.833 -23.166 -44.5 -32.499s-35.834 -17.833 -60.501 -25.5s-49.667 -11.5 -75 -11.5
c-71.333 0 -130 26.167 -176 78.5s-68.667 132.833 -68 241.5c0 118.667 30 213 90 283c28.667 33.333 61.834 57.833 99.501 73.5s74.5 23.5 110.5 23.5c52 0 88 -7.66699 108 -23s30 -32.333 30 -51c0 -10.667 -5.5 -25.834 -16.5 -45.501s-26.167 -39.167 -45.5 -58.5
l-17 4c4 20 6 38.333 6 55c0 29.333 -7.16699 49.333 -21.5 60s-35.166 16 -62.499 16c-49.333 0 -93.5 -26.833 -132.5 -80.5s-58.5 -131.167 -58.5 -232.5c0 -96 17.833 -167.667 53.5 -215s79.167 -71 130.5 -71c23.333 0 43.666 3 60.999 9s29 12 35 18l8 9
c0.666992 9.33301 1 37.666 1 84.999c0 31.333 -1 56.333 -3 75s-4.33301 33.667 -7 45s-8.16699 19.333 -16.5 24s-16.333 7.5 -24 8.5s-20.167 1.5 -37.5 1.5v33z" />
    <glyph glyph-name="H" unicode="H" horiz-adv-x="596" 
d="M564 27l-0.000976562 -27h-107c-11.333 -0 -18.833 4.33301 -22.5 13s-5.5 25 -5.5 49c0 9.33301 0.833008 32.666 2.5 69.999s2.5 61 2.5 71l4 141l-258 3l-2 -76c0 -12 -0.5 -34.833 -1.5 -68.5s-1.5 -56.5 -1.5 -68.5c0 -41.333 2.83301 -68.333 8.5 -81
s15.834 -21.334 30.501 -26.001v-27h-97c-11.333 0 -18.833 4.33301 -22.5 13s-5.5 25 -5.5 49c0 29.333 1.33301 84 4 164l5 231c0.666992 16.667 1 44.667 1 84c0 41.333 -4.66699 68.166 -14 80.499s-27 18.5 -53 18.5l1 33c53.333 12 96 18 128 18c18 0 27 -21 27 -63
c0 -30 -1.16699 -73 -3.5 -129s-3.83301 -93.667 -4.5 -113l258 10v61c0 86.667 -2.66699 138.834 -8 156.501s-24.666 26.5 -57.999 26.5l1 33c53.333 12 96 18 128 18c18 0 27 -21 27 -63c0 -15.333 -1.33301 -56.166 -4 -122.499s-4.33398 -118.5 -5.00098 -156.5
l-3 -140l-2 -89c0 -30 3.66699 -52.667 11 -68s20.333 -23.666 39 -24.999z" />
    <glyph glyph-name="I" unicode="I" horiz-adv-x="256" 
d="M224 27l0.000976562 -27.0029h-105c-13.333 0 -22.166 3.83301 -26.499 11.5s-6.5 26.167 -6.5 55.5c0 20.667 1.33301 71 4 151l8 239c2.66699 80.667 1.16699 131.334 -4.5 152.001s-22.834 31 -51.501 31v33c47.333 12 87 18 119 18c18 0 27 -21 27 -63
c0 -15.333 -1.33301 -56.166 -4 -122.499s-4.33398 -118.5 -5.00098 -156.5l-3 -140l-2 -89c0 -30 3.66699 -52.667 11 -68s20.333 -23.666 39 -24.999z" />
    <glyph glyph-name="J" unicode="J" horiz-adv-x="256" 
d="M188 628c0 -8 -0.333984 -22.832 -1.00098 -44.499l-2.5 -82c-1 -33 -1.83301 -63.167 -2.5 -90.5l-3 -188c-0.666992 -27.333 -2.83398 -56.166 -6.50098 -86.499s-10.5 -63 -20.5 -98s-22.167 -66.167 -36.5 -93.5s-33.333 -50 -57 -68s-50.5 -27 -80.5 -27
c-31.333 0 -47 10.667 -47 32c0 7.33301 0.833008 13.833 2.5 19.5s4.16699 12.167 7.5 19.5s5.66602 12.666 6.99902 15.999l15 4c18.667 -23.333 36.334 -35 53.001 -35c48.667 0 73.667 49 75 147l4 246l3 158c2 86.667 -0.333008 138.667 -7 156
c-9.33301 17.333 -25.666 26.333 -48.999 27v33c47.333 12 87 18 119 18c10.667 0 17.834 -3.83301 21.501 -11.5s5.5 -24.834 5.5 -51.501z" />
    <glyph glyph-name="K" unicode="K" horiz-adv-x="548" 
d="M551 32l-0.000976562 -27c-29.333 -6.66699 -56 -10 -80 -10c-15.333 0 -27.833 4.5 -37.5 13.5s-21.167 23.833 -34.5 44.5c-24 36 -53 82.333 -87 139c-31.333 49.333 -54.333 83 -69 101s-30 29 -46 33l-9 2l1 25c45.333 20 94.333 70.667 147 152
c26 39.333 39 76 39 110c0 6 -0.833008 11 -2.5 15s-4 7 -7 9s-5.66699 3.5 -8 4.5s-5.66602 2 -9.99902 3s-7.16602 1.83301 -8.49902 2.5v27c54 7.33301 89.333 11 106 11c6.66699 0 11.667 -0.166992 15 -0.5s6.33301 -1.66602 9 -3.99902s4 -5.83301 4 -10.5
c0 -12 -6.5 -31.167 -19.5 -57.5s-26.5 -50.166 -40.5 -71.499c-19.333 -30 -32.833 -50.5 -40.5 -61.5s-21 -28 -40 -51s-39.167 -44.167 -60.5 -63.5c23.333 -12 58.666 -52.667 105.999 -122c2 -3.33301 17 -27 45 -71s47 -72.667 57 -86
c10 -12.667 17.5 -21.834 22.5 -27.501s11.833 -11.334 20.5 -17.001s18 -9.5 28 -11.5zM203.999 27l-0.00195312 -26.999h-87c-11.333 0 -18.833 4.33301 -22.5 13s-5.5 25 -5.5 49c0 10 1.66699 65 5 165l4 230c2 86.667 -0.333008 138.667 -7 156
c-9.33301 17.333 -25.666 26.333 -48.999 27v33c47.333 12 87 18 119 18c10.667 0 17.834 -3.83301 21.501 -11.5s5.5 -24.834 5.5 -51.501c0 -14 -2 -86.333 -6 -217l-4 -140c-3.33301 -80 -3.5 -139 -0.5 -177s11.833 -60.333 26.5 -67z" />
    <glyph glyph-name="L" unicode="L" horiz-adv-x="472" 
d="M435 176l27.999 -4.99902l-26 -167c-55.333 -6.66699 -115.333 -10 -180 -10c-70 0 -116.667 2.16699 -140 6.5s-35 12.5 -35 24.5c0 5.33301 1.66699 37.333 5 96c5.33301 82.667 8.33301 151.334 9 206.001l2 130c0 11.333 0.166992 25.5 0.5 42.5s0.5 28.833 0.5 35.5
c0 44 -3.66699 72.5 -11 85.5s-22.666 19.5 -45.999 19.5v33c47.333 12 87 18 119 18c10.667 0 17.834 -3.83301 21.501 -11.5s5.5 -24.834 5.5 -51.501c0 -14 -2 -86.333 -6 -217l-4 -140c-3.33301 -92 -5 -145 -5 -159c0 -32.667 6.16699 -53.334 18.5 -62.001
s40.833 -13 85.5 -13c24 0 45.167 4.16699 63.5 12.5s33.666 20.833 45.999 37.5s21.5 30.667 27.5 42s13 27 21 47z" />
    <glyph glyph-name="M" unicode="M" horiz-adv-x="772" 
d="M741 26v-26.998c-34 -4 -59.667 -6 -77 -6c-18.667 0 -31 3.83301 -37 11.5s-11 26.834 -15 57.501c-3.33301 26 -12 151.333 -26 376l-10 159c-29.333 -92 -55.333 -168.667 -78 -230c-43.333 -118.667 -74.333 -194 -93 -226c-17.333 -28.667 -32.666 -43 -45.999 -43
c-28 0 -57 61 -87 183l-79 326l-23 -92c-14 -56 -25.833 -119.333 -35.5 -190s-14.5 -125.667 -14.5 -165s3 -70.333 9 -93s19.333 -35 40 -37l1 -23c-38 -9.33301 -65 -14 -81 -14c-14.667 0 -25.167 3.33301 -31.5 10s-9.5 18.334 -9.5 35.001
c0 48.667 8.33301 118 25 208c10.667 57.333 19.667 103.333 27 138c26 128.667 39 204 39 226c0 7.33301 -1.16699 13.166 -3.5 17.499s-6 7.5 -11 9.5s-9.33301 3.16699 -13 3.5s-9.16699 0.5 -16.5 0.5h-14l-3 27c54.667 14 98.667 21 132 21
c18 0 31.167 -1.33301 39.5 -4s13.5 -8.33398 15.5 -17.001c4.66699 -18.667 20.334 -89.334 47.001 -212.001c34.667 -162 59 -243 73 -243c7.33301 0 16.166 11.333 26.499 34s30.166 73.667 59.499 153c34 91.333 59.333 174 76 248c28 21.333 60.667 34.666 98 39.999
l11 -4c0.666992 -46.667 6.66699 -158 18 -334c6.66699 -106.667 14.667 -191 24 -253c3.33301 -24 7.83301 -41.667 13.5 -53s15.5 -17.333 29.5 -18z" />
    <glyph glyph-name="N" unicode="N" horiz-adv-x="631" 
d="M570 647c0 -14.667 -2.66309 -72.6689 -7.99609 -174.002l-13 -238c-4 -79.333 -6 -131.666 -6 -156.999s0.666992 -51.333 2 -78l-40 -8l-193 325l-150 258c-6 -190 -8.33301 -336 -7 -438c0.666992 -20 1.66699 -35.833 3 -47.5s4.83301 -24 10.5 -37
s13.167 -22.167 22.5 -27.5l1 -23c-26 -3.33301 -47 -5 -63 -5c-26.667 0 -40 13.333 -40 40c0 6 1.5 31.667 4.5 77s4.83301 75 5.5 89l11 248c2.66699 62.667 4 104.334 4 125.001c0 13.333 -2 24.5 -6 33.5s-8 15.667 -12 20s-10.833 7.66602 -20.5 9.99902
s-16.334 3.5 -20.001 3.5h-21.5l-1 31c65.333 10 106.666 15 123.999 15c18.667 0 31 -2.83301 37 -8.5s19.667 -25.834 41 -60.501l107 -188l68 -116l62 -102l23 -37c0.666992 24.667 2.5 67.834 5.5 129.501s4.16699 98.334 3.5 110.001s-1.33398 52.5 -2.00098 122.5
c-1.33301 44 -4.33301 71.833 -9 83.5s-17.334 20.5 -38.001 26.5l1 27c28.667 7.33301 57.667 11 87 11c18 0 27 -13.333 27 -40z" />
    <glyph glyph-name="O" unicode="O" horiz-adv-x="627" 
d="M588 358c0 -57.333 -6.83008 -108.667 -20.4971 -154s-30.834 -81.166 -51.501 -107.499s-44.167 -48.166 -70.5 -65.499s-50.833 -29 -73.5 -35s-44.334 -9 -65.001 -9c-75.333 0 -138 28.667 -188 86s-75 141.666 -75 252.999c0 59.333 6.83301 111.833 20.5 157.5
s30.5 81.5 50.5 107.5s43.5 47.167 70.5 63.5s52.167 27.166 75.5 32.499s46.666 8 69.999 8c76.667 0 138.667 -28.167 186 -84.5s71 -140.5 71 -252.5zM497.003 353.999c0 198.667 -58.6689 298.002 -176.002 298.002c-124 0 -186 -107.333 -186 -322
c0 -98.667 16 -173.334 48 -224.001s76.667 -76 134 -76c20 0 39.333 4.5 58 13.5s37.834 24.5 57.501 46.5s35.334 55.667 47.001 101s17.5 99.666 17.5 162.999z" />
    <glyph glyph-name="P" unicode="P" horiz-adv-x="491" 
d="M475 532c0 -114.667 -70.667 -183.999 -212 -207.999c-12.667 -2 -33 -4 -61 -6v39c8 -0.666992 26.667 1 56 5c33.333 5.33301 63.166 20.166 89.499 44.499s39.5 60.833 39.5 109.5c0 41.333 -9.83301 73 -29.5 95s-46.5 33 -80.5 33c-24.667 0 -42.5 -1.5 -53.5 -4.5
s-20.5 -9.16699 -28.5 -18.5c-6.66699 -7.33301 -11 -48.333 -13 -123c-6.66699 -213.333 -10 -324 -10 -332c0 -42 2.16699 -73 6.5 -93s9.5 -32.333 15.5 -37s16.333 -7.66699 31 -9v-27h-107c-13.333 -0 -22.166 3.83301 -26.499 11.5s-6.5 26.167 -6.5 55.5
c0 8.66699 0.333008 24.334 1 47.001s1.66699 47 3 73s2 42 2 48l6 222c2 77.333 -1.16699 127.166 -9.5 149.499s-27.166 33.5 -56.499 33.5l1 33c99.333 9.33301 182.666 14 249.999 14c18 0 35.167 -1.16699 51.5 -3.5s33.5 -6.83301 51.5 -13.5s33.333 -15.5 46 -26.5
s23.167 -26 31.5 -45s12.5 -41.167 12.5 -66.5z" />
    <glyph glyph-name="Q" unicode="Q" horiz-adv-x="637" 
d="M626 -50l3.99902 -19c-2.66699 -3.33301 -6.66699 -7.33301 -12 -12s-16 -11 -32 -19s-32.333 -12 -49 -12c-30.667 0 -62 18.667 -94 56c-28.667 32.667 -48.667 50.334 -60 53.001c-24.667 -6.66699 -47 -10 -67 -10c-76.667 0 -140.334 27.167 -191.001 81.5
s-76 136.833 -76 247.5c0 59.333 6.5 112.166 19.5 158.499s29.167 83 48.5 110s42 49.167 68 66.5s50.333 29 73 35s45.334 9 68.001 9c82 0 147 -27.833 195 -83.5s72 -140.167 72 -253.5c0 -149.333 -44.667 -257 -134 -323c8 -6 19.333 -17 34 -33
s22.334 -24.333 23.001 -25c24.667 -24.667 47.667 -37 69 -37c7.33301 0 14.5 0.833008 21.5 2.5s12.167 3.5 15.5 5.5zM501.999 354c0 198.667 -61.998 298 -185.998 298c-23.333 0 -44.666 -5 -63.999 -15s-37.833 -26.5 -55.5 -49.5s-31.5 -57.333 -41.5 -103
s-15 -100.5 -15 -164.5c0 -193.333 62 -290 186 -290c14.667 0 29.167 2.5 43.5 7.5s29.666 14.833 45.999 29.5s30.666 33.5 42.999 56.5s22.666 54.333 30.999 94s12.5 85.167 12.5 136.5z" />
    <glyph glyph-name="R" unicode="R" horiz-adv-x="543" 
d="M538 32l-1 -27.001c-28 -6.66699 -54 -10 -78 -10c-16 0 -29.167 4 -39.5 12s-20.833 21.667 -31.5 41c-6.66699 11.333 -19.667 36.333 -39 75l-30 60c-16.667 33.333 -29.334 58 -38.001 74s-18.667 30.833 -30 44.5s-22 21.167 -32 22.5l-19 3v28
c36 1.33301 59 3 69 5c39.333 8.66699 70.333 24.334 93 47.001s34.334 59 35.001 109c0.666992 42 -8 73.833 -26 95.5s-44 32.5 -78 32.5c-32.667 0 -55.167 -1.5 -67.5 -4.5s-22.5 -9.16699 -30.5 -18.5s-12.333 -50.333 -13 -123c-4 -194.667 -6 -305.334 -6 -332.001
v-14c0 -47.333 1.66699 -78.166 5 -92.499s13.333 -25.166 30 -32.499v-27h-89c-13.333 0 -22.166 3.5 -26.499 10.5s-6.5 22.5 -6.5 46.5c0 5.33301 0.5 18.666 1.5 39.999s1.5 36.666 1.5 45.999l3 98c2 84 3 156 3 216c0 58 -2.16699 99.833 -6.5 125.5
s-10.5 41.667 -18.5 48s-22 9.5 -42 9.5l1 33c106 9.33301 192.667 14 260 14c24.667 0 47.334 -2.16699 68.001 -6.5s41.167 -11.666 61.5 -21.999s36.166 -26.333 47.499 -48s16.666 -47.834 15.999 -78.501c-0.666992 -27.333 -5.83398 -52.166 -15.501 -74.499
s-20.834 -40.166 -33.501 -53.499s-28.167 -25 -46.5 -35s-33.5 -17 -45.5 -21s-24.667 -7.33301 -38 -10c21.333 -12 48.333 -48 81 -108c45.333 -86.667 71.333 -134 78 -142c12.667 -16.667 24.334 -29.334 35.001 -38.001s23.334 -14.667 38.001 -18z" />
    <glyph glyph-name="S" unicode="S" horiz-adv-x="439" 
d="M411 196c0 -62 -21.6641 -112.002 -64.9971 -150.002s-101.333 -57 -174 -57c-38.667 0 -70.167 3.66699 -94.5 11s-40.333 15.333 -48 24s-11.5 18.334 -11.5 29.001c0 32 14.667 70.667 44 116l17 -7c6 -86.667 46.333 -130 121 -130c32 0 60.333 12 85 36
s37 59 37 105c0 16.667 -2.5 31.667 -7.5 45s-10.333 24.333 -16 33s-16.167 18.5 -31.5 29.5s-27.5 19 -36.5 24l-49.5 26.5c-3.33301 2 -6.33301 3.66699 -9 5l-8 4c-46.667 24 -77.334 43 -92.001 57c-32.667 30 -49 71.333 -49 124c0 19.333 3.16699 37.833 9.5 55.5
s17 35.334 32 53.001s37.667 31.667 68 42s66.833 15.5 109.5 15.5c38.667 0 70.167 -3.66699 94.5 -11s40.333 -15.333 48 -24s11.5 -18.334 11.5 -29.001c0 -26.667 -17.667 -64.334 -53 -113.001l-17 7c0 24 -2.33301 44.333 -7 61s-10.334 29.167 -17.001 37.5
s-15.667 14.833 -27 19.5s-20.833 7.33398 -28.5 8.00098s-17.834 1 -30.501 1c-32 0 -58.167 -9 -78.5 -27s-30.5 -43.333 -30.5 -76c0 -13.333 1.16699 -25.666 3.5 -36.999s6.5 -21.333 12.5 -30s11.5 -16 16.5 -22s12.667 -12 23 -18s18.666 -10.667 24.999 -14
s16 -8 29 -14l28.5 -13c49.333 -24 83 -43.333 101 -58c42.667 -36.667 64.334 -83 65.001 -139z" />
    <glyph glyph-name="T" unicode="T" horiz-adv-x="548" 
d="M533 652c0 -15.333 -4.33594 -36.498 -13.0029 -63.498s-20 -51.833 -34 -74.5l-30 -5c4 21.333 6 46.666 6 75.999c0 11.333 -2 20.833 -6 28.5s-8.83301 13.334 -14.5 17.001s-13.667 6.5 -24 8.5s-18.666 3.16699 -24.999 3.5s-15.5 0.5 -27.5 0.5h-58
c4 -24 6 -61 6 -111c0 -12 -1.16699 -45.333 -3.5 -100s-3.83301 -96 -4.5 -124c-2 -92 -3 -139.333 -3 -142c0 -42 2.16699 -73 6.5 -93s9.5 -32.333 15.5 -37s16.333 -7.66699 31 -9v-27h-110c-13.333 0 -22.166 3.83301 -26.499 11.5s-6.5 26.167 -6.5 55.5
c0 11.333 1.16699 39.5 3.5 84.5s3.5 70.167 3.5 75.5l9 262c0 4 0.166992 16.333 0.5 37s0.5 33.667 0.5 39c0 16 -0.333008 27.167 -1 33.5s-2.66699 13.833 -6 22.5s-9.33301 14.5 -18 17.5s-20.334 4.5 -35.001 4.5c-33.333 0 -57 -8.33301 -71 -25
c-7.33301 -9.33301 -12.666 -16.833 -15.999 -22.5s-7.33301 -15.334 -12 -29.001s-9 -31.834 -13 -54.501l-29 -10c-5.33301 26 -8 56.333 -8 91c0 30 3.33301 57.333 10 82l12 9c39.333 -0.666992 117.333 -1 234 -1c28 0 65.833 0.833008 113.5 2.5s76.167 2.5 85.5 2.5
c18.667 0 32.334 -1.66699 41.001 -5s13.667 -7 15 -11s2 -10.667 2 -20z" />
    <glyph glyph-name="U" unicode="U" horiz-adv-x="563" 
d="M511 649c0 -18 -0.999023 -49.8311 -2.99902 -95.498s-3.33301 -80.5 -4 -104.5l-8 -235c-2.66699 -76.667 -22.834 -134.167 -60.501 -172.5s-90.167 -57.5 -157.5 -57.5c-72 0 -121 17.667 -147 53s-39 85.666 -39 150.999l6 269
c1.33301 61.333 0.166016 104.666 -3.50098 129.999s-9.16699 40.5 -16.5 45.5s-21.666 7.5 -42.999 7.5h-5l2 33c54 12 97 18 129 18c18 0 27 -21 27 -63c0 -42.667 -1 -85.667 -3 -129s-3 -71.666 -3 -84.999c-4.66699 -146 -7 -226 -7 -240
c0 -12.667 1.66699 -25.834 5 -39.501s8.83301 -28.5 16.5 -44.5s20.334 -29 38.001 -39s38.5 -15 62.5 -15c25.333 0 47.166 4.33301 65.499 13s32.333 19 42 31s17.667 28 24 48s10.333 37.667 12 53s3.16699 34.333 4.5 57c3.33301 58.667 5 158.667 5 300
c0 44 -3.5 73.5 -10.5 88.5s-20.167 22.5 -39.5 22.5l1 27c22 7.33301 47.667 11 77 11c22 0 33 -12.667 33 -38z" />
    <glyph glyph-name="V" unicode="V" horiz-adv-x="551" 
d="M535 654c0 -32 -17.0049 -100.333 -51.0049 -205l-37 -113c-11.333 -34.667 -29.333 -85 -54 -151s-37 -99.333 -37 -100l-25 -69c-30.667 -12.667 -62 -21.334 -94 -26.001l-13 4c-29.333 145.333 -58 277.333 -86 396c-21.333 91.333 -40.333 158 -57 200
c-6 16 -14 27.833 -24 35.5s-17.5 11.834 -22.5 12.501s-13.5 1.33398 -25.5 2.00098l1 33c42.667 10 79.334 15 110.001 15c18.667 0 32.834 -12.833 42.501 -38.5s22.834 -75.5 39.501 -149.5l41.5 -197.5c17.667 -85.667 29.834 -142.834 36.501 -171.501l14 -62h9
l42 113c30 80 54.5 159.167 73.5 237.5s28.5 133.833 28.5 166.5c0 19.333 -3.16699 32.5 -9.5 39.5s-17.166 13.167 -32.499 18.5l1 29c44.667 9.33301 76.667 14 96 14c22 0 33 -11 33 -33z" />
    <glyph glyph-name="W" unicode="W" horiz-adv-x="830" 
d="M800 654c1.33301 -33.333 -12.3291 -101.665 -40.9961 -204.998l-31 -113c-8.66699 -33.333 -23.167 -81.5 -43.5 -144.5s-31.5 -98.5 -33.5 -106.5l-26 -69c-42 -16 -74.333 -25.333 -97 -28l-10 4c-8.66699 84 -24.334 194 -47.001 330s-39 226.667 -49 272
c-4.66699 -25.333 -12.334 -59.5 -23.001 -102.5s-22.834 -89.667 -36.501 -140s-21.167 -77.5 -22.5 -81.5l-76 -251c-28 -14.667 -60.667 -23.667 -98 -27l-8 1c-9.33301 84.667 -19.333 170 -30 256l-17 134c-12.667 96 -26.334 165.333 -41.001 208
c-4 11.333 -8.16699 20.5 -12.5 27.5s-9.33301 11.833 -15 14.5s-10.5 4.5 -14.5 5.5s-9.66699 1.5 -17 1.5l2 33c38.667 10 73.334 15 104.001 15c16 0 27.5 -11.667 34.5 -35s15.833 -69.666 26.5 -138.999c24 -164 39.333 -289.333 46 -376l6 -78h5
c32 102.667 58.333 191 79 265l36.5 133.5c7 25.667 14.833 59 23.5 100s13.667 74.5 15 100.5c6.66699 6.66699 18.334 14.167 35.001 22.5s28 12.5 34 12.5c8.66699 0 15.167 -2.5 19.5 -7.5s8.5 -15.833 12.5 -32.5c17.333 -76.667 34.666 -166 51.999 -268
c28 -160.667 44.333 -269.334 49 -326.001h6l38 115c26 77.333 46.333 156.666 61 237.999s21 139 19 173c-0.666992 15.333 -3.33398 27.166 -8.00098 35.499s-9.5 13.333 -14.5 15s-13.167 3.5 -24.5 5.5l2 31c44 9.33301 75.667 14 95 14c22 0 33.667 -11 35 -33z" />
    <glyph glyph-name="X" unicode="X" horiz-adv-x="514" 
d="M492 31l-1 -32.998c-40.667 -3.33301 -69.667 -5 -87 -5c-15.333 0 -27.166 4.5 -35.499 13.5s-19.166 27.167 -32.499 54.5c-6 12.667 -21.833 50.667 -47.5 114s-42.834 104 -51.501 122c-28.667 -41.333 -54.667 -84.166 -78 -128.499s-35 -77.833 -35 -100.5
c0 -6.66699 0.333008 -12 1 -16s3.16699 -8.16699 7.5 -12.5l7.5 -7.5c0.666992 -0.666992 5.66699 -4.33398 15 -11.001l-1 -23c-32.667 -3.33301 -63.667 -5 -93 -5c-21.333 0 -32 7.66699 -32 23c0 17.333 21 61.833 63 133.5s83.333 134.167 124 187.5
c-60 138 -102 223.667 -126 257c-24.667 34 -50.334 51 -77.001 51v33c38 6.66699 70 10 96 10c24.667 0 47.667 -20 69 -60c4 -8 13.667 -29 29 -63l71 -164c58.667 97.333 88 163.666 88 198.999c0 25.333 -11.333 42 -34 50l1 23c44.667 9.33301 76.667 14 96 14
c12.667 0 21.5 -1.83301 26.5 -5.5s7.5 -10.834 7.5 -21.501c0 -38 -55 -139 -165 -303c50 -111.333 87.333 -191.333 112 -240c14 -28.667 27.5 -50 40.5 -64s26.833 -21.333 41.5 -22z" />
    <glyph glyph-name="Y" unicode="Y" horiz-adv-x="513" 
d="M498 658c0 -6.66699 -2 -17.166 -6 -31.499s-12.5 -35.833 -25.5 -64.5s-29.167 -60 -48.5 -94l-114 -201l-6 -101c-4.66699 -89.333 11.333 -135.666 48 -138.999v-27h-107c-11.333 0 -19.166 4.5 -23.499 13.5s-6.16602 25.167 -5.49902 48.5c0 8 0.666992 21.333 2 40
s2.66602 41.667 3.99902 69s2.66602 51 3.99902 71l-72 180c-32.667 83.333 -56.334 139.333 -71.001 168c-8 16 -16.167 27.833 -24.5 35.5s-15.166 12 -20.499 13s-13.666 1.5 -24.999 1.5l1 33c38.667 10 73.334 15 104.001 15c4 0 7.83301 -0.833008 11.5 -2.5
s7.16699 -4.5 10.5 -8.5s6.5 -8 9.5 -12s6.16699 -9.66699 9.5 -17s6.16602 -13.833 8.49902 -19.5s5.16602 -13.167 8.49902 -22.5l8.5 -23.5c2.33301 -6.33301 5.33301 -15 9 -26l8.5 -25.5l84 -223l49 93c50.667 96.667 76 163.334 76 200.001
c0.666992 17.333 -1.83301 29.166 -7.5 35.499s-15.5 10.833 -29.5 13.5l2 26c44.667 7.33301 76.667 11 96 11c8 0 13.833 -0.333008 17.5 -1s7 -3.33398 10 -8.00098s4.5 -11.334 4.5 -20.001z" />
    <glyph glyph-name="Z" unicode="Z" horiz-adv-x="451" 
d="M403 174l28 -5.00098l-33 -167c-49.333 -6 -110 -9 -182 -9l-195 5v36c59.333 122.667 121.666 244.334 186.999 365.001c11.333 21.333 28.166 51.333 50.499 90l53 94.5c13 24.333 20.833 41.5 23.5 51.5c-22 4.66699 -59.333 7 -112 7
c-20 0 -39.167 -3.16699 -57.5 -9.5s-31.166 -12.5 -38.499 -18.5c-28.667 -22.667 -50 -59 -64 -109l-26 4c1.33301 38.667 8 93 20 163l12 9h175c12.667 0 33.667 0.333008 63 1s50 1 62 1c20.667 0 35.667 -1 45 -3s14 -7 14 -15c0 -14 -2.33301 -29.333 -7 -46
c-10 -20 -22.5 -43.5 -37.5 -70.5l-55.5 -99.5l-56 -101l-158 -303c26.667 -4.66699 65.334 -7 116.001 -7c80 0 137.667 45.333 173 136z" />
    <glyph glyph-name="bracketleft" unicode="[" horiz-adv-x="335" 
d="M274 -120v-36h-176v886h176v-36h-99v-814h99z" />
    <glyph glyph-name="backslash" unicode="\" horiz-adv-x="408" 
d="M60 735l329 -883l-39 -18l-332 883z" />
    <glyph glyph-name="bracketright" unicode="]" horiz-adv-x="325" 
d="M62 -156v36h99v814h-99v36h176v-886h-176z" />
    <glyph glyph-name="asciicircum" unicode="^" horiz-adv-x="344" 
d="M174 743l144 -206h-34l-110 101l-110 -101h-34z" />
    <glyph glyph-name="underscore" unicode="_" horiz-adv-x="488" 
d="M492 -69v-60h-495v60h495z" />
    <glyph glyph-name="grave" unicode="`" horiz-adv-x="232" 
d="M112 748l57 -177l-34 -17l-99 156z" />
    <glyph glyph-name="a" unicode="a" horiz-adv-x="446" 
d="M436 29l-1 -23.001c-40 -10 -69.333 -15 -88 -15c-33.333 0 -51 24.667 -53 74c-40 -51.333 -85.667 -77 -137 -77c-31.333 0 -58 9.66699 -80 29s-33 50 -33 92c0 28.667 4 52.5 12 71.5s21.833 34.5 41.5 46.5s39.167 21 58.5 27s46.666 12.667 81.999 20l61 13
c0.666992 18 1 42.667 1 74c0 28.667 -6 47.834 -18 57.501s-29.333 14.5 -52 14.5c-55.333 0 -81.666 -25.333 -78.999 -76l-8 -11c-49.333 0 -74 12.333 -74 37c0 24 22 45.333 66 64s92.667 28 146 28c37.333 0 63.333 -8.5 78 -25.5s22 -43.167 22 -78.5
c0 -2 -1.66699 -52 -5 -150l-2 -94c0 -40.667 3.66699 -67.167 11 -79.5s24.333 -18.5 51 -18.5zM298 248.999l-55 -11c-40.667 -8.66699 -69 -20.334 -85 -35.001c-20 -18 -30 -43 -30 -75c0 -25.333 5.5 -45.5 16.5 -60.5s26.167 -22.5 45.5 -22.5
c22.667 0 42.667 6.33301 60 19s29 25.334 35 38.001l9 19z" />
    <glyph glyph-name="b" unicode="b" horiz-adv-x="465" 
d="M433 293c0 -48 -6.99512 -91.498 -20.9951 -130.498s-32.5 -70.333 -55.5 -94s-47.833 -41.834 -74.5 -54.501s-53.667 -19 -81 -19c-34.667 0 -65.334 4 -92.001 12s-40 17.667 -40 29c0 3.33301 0.666992 10 2 20s2.66602 25 3.99902 45s2.33301 43.667 3 71l10 343
c1.33301 56 -2.16699 94.5 -10.5 115.5s-25.166 31.5 -50.499 31.5l-1 23c46.667 8 80 12 100 12c6 0 10.667 -0.333008 14 -1s7.16602 -3.33398 11.499 -8.00098s7.66602 -11.5 9.99902 -20.5s4.16602 -22 5.49902 -39s1.66602 -37.833 0.999023 -62.5l-5 -194
c44 70 95.333 105 154 105c35.333 0 63.5 -15.667 84.5 -47s31.5 -77 31.5 -137zM351.005 257.002c0 99.333 -26 149 -78 149c-32.667 0 -59.334 -14.5 -80.001 -43.5s-31.667 -65.833 -33 -110.5l-6 -177c7.33301 -26 29 -39 65 -39c36.667 0 67.834 19 93.501 57
s38.5 92.667 38.5 164z" />
    <glyph glyph-name="c" unicode="c" horiz-adv-x="418" 
d="M390 413c-0.666992 -8.66699 -7 -18.3311 -19 -28.998s-27.333 -18.334 -46 -23.001l-12 10c-0.666992 20 -7 35.833 -19 47.5s-27.667 17.5 -47 17.5c-32.667 0 -59.834 -16.5 -81.501 -49.5s-32.5 -80.5 -32.5 -142.5c0 -68.667 10.667 -119.334 32 -152.001
s56.666 -49 105.999 -49c19.333 0 38.166 3.83301 56.499 11.5s31.833 15.167 40.5 22.5l12 11l7 -32c-4.66699 -4.66699 -11.167 -10.5 -19.5 -17.5s-26.166 -16.333 -53.499 -28s-55.666 -17.5 -84.999 -17.5c-51.333 0 -94 17.5 -128 52.5s-51 90.167 -51 165.5
c0 48 7 90.167 21 126.5s31.833 64 53.5 83s43.834 33.167 66.501 42.5s45 14 67 14c88 0 132 -21.333 132 -64z" />
    <glyph glyph-name="d" unicode="d" horiz-adv-x="471" 
d="M456 26l-1.99902 -23.999c-36 -8.66699 -61.333 -13 -76 -13c-8.66699 0 -15.167 0.5 -19.5 1.5s-9.33301 3.33301 -15 7s-9.66699 10 -12 19s-3.16602 20.833 -2.49902 35.5l7 71l-5 2c-29.333 -46 -57 -80 -83 -102s-55.333 -33 -88 -33
c-11.333 0 -22.333 2.16699 -33 6.5s-22.167 12.333 -34.5 24s-21.833 30.667 -28.5 57s-9.33398 58.5 -8.00098 96.5c3.33301 94 26.833 167.167 70.5 219.5s95.834 79.166 156.501 80.499h59l1 41c2 56 -1 94.5 -9 115.5s-24.667 31.5 -50 31.5l-1 23
c46.667 8 80 12 100 12c6 0 10.667 -0.333008 14 -1s7.16602 -3.33398 11.499 -8.00098s7.66602 -11.5 9.99902 -20.5s4 -22 5 -39s1.16699 -37.833 0.5 -62.5l-13 -371c-2 -53.333 -2.66699 -90.666 -2 -111.999c1.33301 -38 17 -57 47 -57zM340.001 416.001
c-24.667 13.333 -49.668 20 -75.001 20c-36.667 0 -66.667 -18.667 -90 -56s-36.333 -96.666 -39 -177.999c-2 -53.333 3.83301 -91.5 17.5 -114.5s29.834 -34.5 48.501 -34.5c32 0 64 28.333 96 85c20 37.333 32 90.666 36 159.999z" />
    <glyph glyph-name="e" unicode="e" horiz-adv-x="429" 
d="M401 373c-1.33301 -36.667 -17.1689 -65.501 -47.502 -86.501s-67.5 -34.5 -111.5 -40.5l-105 -14c-2 -54 9.83301 -98.833 35.5 -134.5s58.834 -53.5 99.501 -53.5c25.333 0 48.333 3 69 9s35 12.333 43 19l12 9v-32c-4.66699 -4 -11.334 -9.33301 -20.001 -16
s-27 -15.334 -55 -26.001s-57 -16 -87 -16c-52.667 0 -96.667 19.167 -132 57.5s-51.666 97.5 -48.999 177.5c1.33301 46 10.333 86.333 27 121s37.167 60.834 61.5 78.501s47.833 30.667 70.5 39s44 12.5 64 12.5c15.333 0 29.5 -1.33301 42.5 -4s26.333 -7.5 40 -14.5
s24.334 -17.667 32.001 -32s11.167 -32.166 10.5 -53.499zM317.997 370.999c0.666992 18.667 -3.66797 34.167 -13.001 46.5s-23.666 18.5 -42.999 18.5c-30.667 0 -57.334 -12.833 -80.001 -38.5s-37 -68.5 -43 -128.5l78 9c64.667 7.33301 98.334 38.333 101.001 93z" />
    <glyph glyph-name="f" unicode="f" horiz-adv-x="293" 
d="M361 658c0 -7.33301 -6.00098 -15.665 -18.001 -24.998s-27.667 -18.333 -47 -27l-7 8c-5.33301 32.667 -24 49 -56 49c-13.333 0 -24.166 -3.33301 -32.499 -10s-14.666 -18.5 -18.999 -35.5s-7.16602 -33.5 -8.49902 -49.5s-2.66602 -40 -3.99902 -72v-25l131 -3
l-8 -38l-125 -9c3.33301 -102.667 5 -178 5 -226c0 -126.667 -11 -216 -33 -268c-18.667 -42.667 -42.334 -78.834 -71.001 -108.501s-60.334 -44.5 -95.001 -44.5c-32 0 -48 9.33301 -48 28c0 14.667 6.33301 34.667 19 60l12 3c18.667 -23.333 36.667 -35 54 -35
c27.333 0 46.833 12.167 58.5 36.5s18.834 58.166 21.501 101.499c2 28.667 3 95.667 3 201l-5 252l-80 6l7 32l75 12c3.33301 41.333 11.166 78.833 23.499 112.5s32.166 62.667 59.499 87s60 36.5 98 36.5c30.667 0 53.5 -4.83301 68.5 -14.5s22.167 -21.167 21.5 -34.5z
" />
    <glyph glyph-name="g" unicode="g" horiz-adv-x="454" 
d="M410 480l11.9961 -4.99512c-6.66699 -65.333 -10 -106.333 -10 -123l-8 -294c-3.33301 -82.667 -26.166 -150.834 -68.499 -204.501s-98.5 -80.5 -168.5 -80.5c-87.333 0 -130 24.667 -128 74c-0.666992 12 6 23.167 20 33.5s32 17.5 54 21.5l8 -11
c0 -53.333 22.667 -80 68 -80c40.667 0 72.167 13.667 94.5 41s35.5 79.666 39.5 156.999l6 112l-4 2c-27.333 -45.333 -53.333 -78.833 -78 -100.5s-53.334 -32.5 -86.001 -32.5c-11.333 0 -22.166 2.16699 -32.499 6.5s-21.666 12.166 -33.999 23.499
s-22.166 30.166 -29.499 56.499s-11 58.833 -11 97.5c0 94 22.833 166.667 68.5 218s96.834 78.666 153.501 81.999c39.333 2 70.333 -0.666992 93 -8c2 0 8.16699 2 18.5 6s17.833 6.66699 22.5 8zM331.996 366.005c0 30 -5.16699 49.167 -15.5 57.5
s-28.166 12.5 -53.499 12.5c-34.667 0 -65 -19 -91 -57s-39 -97 -39 -177c0 -99.333 23 -149 69 -149c20.667 0 39.5 9.83301 56.5 29.5s30.5 41.167 40.5 64.5c17.333 40.667 27.666 91 30.999 151c1.33301 22 2 44.667 2 68z" />
    <glyph glyph-name="h" unicode="h" horiz-adv-x="482" 
d="M474 29l-1.99414 -24.001c-36.667 -6.66699 -63.334 -10 -80.001 -10c-22 0 -37.833 6.16699 -47.5 18.5s-14.5 38.833 -14.5 79.5c0 2.66699 0.5 15 1.5 37s2 47.667 3 77s1.5 54.666 1.5 75.999c0 45.333 -4 76.333 -12 93s-23 25 -45 25
c-27.333 0 -52.833 -18.667 -76.5 -56s-38.834 -87.333 -45.501 -150c-2.66699 -28 -4 -65 -4 -111c0 -17.333 2.66699 -30.166 8 -38.499s14.666 -13.833 27.999 -16.5l-1 -27c-35.333 -4.66699 -61.666 -7 -78.999 -7c-14.667 0 -24.667 4.33301 -30 13
s-8 26.334 -8 53.001c0 8.66699 1 28 3 58s3 51 3 63l4 101c4 94 6 171.333 6 232c0 59.333 -3.83301 98.666 -11.5 117.999s-24.167 29 -49.5 29l-1 23c46.667 8 80 12 100 12c6 0 10.667 -0.333008 14 -1s7.16602 -3.33398 11.499 -8.00098s7.66602 -11.5 9.99902 -20.5
s4.16602 -22 5.49902 -39s1.66602 -37.833 0.999023 -62.5c-2.66699 -134.667 -4.66699 -212.667 -6 -234c22 52 49 88.667 81 110s60.667 32 86 32c30.667 0 53 -9.66699 67 -29s21 -58.333 21 -117c0 -13.333 -1 -43.666 -3 -90.999s-3 -75.666 -3 -84.999
c0 -50 4.66699 -83 14 -99s26 -24 50 -24z" />
    <glyph glyph-name="i" unicode="i" horiz-adv-x="230" 
d="M171 595c0 -15.333 -5.66699 -28.666 -17 -39.999s-24.666 -17 -39.999 -17s-28.666 5.66699 -39.999 17s-17 24.666 -17 39.999s5.66699 28.666 17 39.999s24.666 17 39.999 17s28.666 -5.66699 39.999 -17s17 -24.666 17 -39.999zM211 29l-1.99902 -23.999
c-36.667 -6.66699 -63.334 -10 -80.001 -10c-20 0 -35.333 5.83301 -46 17.5s-16 33.5 -16 65.5c0 4 0.5 15.667 1.5 35l3.5 68.5c1.33301 26.333 2.33301 47.166 3 62.499c0.666992 22 1 50.333 1 85c0 41.333 -4.66699 68.833 -14 82.5s-24.333 21.5 -45 23.5l2 28
c40 6 71 9 93 9c31.333 0 47 -24.333 47 -73c0 -19.333 -1 -50.333 -3 -93c-4.66699 -94.667 -7 -154.667 -7 -180c0 -36 4.66699 -61.167 14 -75.5s25.333 -21.5 48 -21.5z" />
    <glyph glyph-name="j" unicode="j" horiz-adv-x="238" 
d="M182 595c0 -15.333 -5.66699 -28.666 -17 -39.999s-24.666 -17 -39.999 -17s-28.666 5.66699 -39.999 17s-17 24.666 -17 39.999s5.66699 28.666 17 39.999s24.666 17 39.999 17s28.666 -5.66699 39.999 -17s17 -24.666 17 -39.999zM182 399
c0 -2.66699 -1.66504 -70.6689 -4.99805 -204.002c-3.33301 -121.333 -15 -210.666 -35 -267.999c-14 -40 -36.167 -75.5 -66.5 -106.5s-61.833 -46.5 -94.5 -46.5c-32 0 -48 6.33301 -48 19c-0.666992 16.667 4.33301 39.334 15 68.001l14 4c20 -23.333 38.333 -35 55 -35
c12.667 0 23.5 3.5 32.5 10.5s16.333 17.5 22 31.5s10.167 29.667 13.5 47s5.66602 37.833 6.99902 61.5s2.16602 47.167 2.49902 70.5s0.5 49.333 0.5 78v43c0 16 0.333008 42.5 1 79.5s0.666992 62.833 0 77.5c-0.666992 42 -5.16699 69.667 -13.5 83s-22.5 21 -42.5 23
l2 28c40 6 71 9 93 9c31.333 0 47 -24.333 47 -73z" />
    <glyph glyph-name="k" unicode="k" horiz-adv-x="451" 
d="M439 33l-1.00391 -25c-32.667 -10.667 -59 -16 -79 -16c-18 0 -32.5 5.66699 -43.5 17s-27.833 35.333 -50.5 72l-99 160l1 15c14 6 27.167 13.667 39.5 23s21.833 17.5 28.5 24.5s16.334 18.167 29.001 33.5c27.333 32 40 58.667 38 80
c-0.666992 3.33301 -1.66699 6.16602 -3 8.49902s-2.66602 4 -3.99902 5s-3.66602 2.33301 -6.99902 4l-7 3.5l1 21c34.667 7.33301 65.334 11 92.001 11c17.333 0 26 -5.66699 26 -17c-0.666992 -16.667 -12 -39.334 -34 -68.001c-42.667 -49.333 -85.667 -90 -129 -122
c11.333 -13.333 33 -44.166 65 -92.499s52.667 -78.166 62 -89.499c24.667 -30 49.667 -46 75 -48zM190.996 29l-1 -26.999c-35.333 -4.66699 -61.666 -7 -78.999 -7c-18 0 -28.667 8.33301 -32 25s-4.33301 58.667 -3 126c0.666992 11.333 1 20 1 26l10 343
c1.33301 56 -2.16699 94.5 -10.5 115.5s-25.166 31.5 -50.499 31.5l-1 23c46.667 8 80 12 100 12c6 0 10.667 -0.333008 14 -1s7.16602 -3.33398 11.499 -8.00098s7.66602 -11.5 9.99902 -20.5s4.16602 -22 5.49902 -39s1.66602 -37.833 0.999023 -62.5l-10 -371
c-1.33301 -57.333 -1.66602 -94.666 -0.999023 -111.999c1.33301 -18 4.33301 -30.833 9 -38.5s13.334 -12.834 26.001 -15.501z" />
    <glyph glyph-name="l" unicode="l" horiz-adv-x="240" 
d="M227 29l-1.99902 -23.998c-39.333 -6.66699 -67.333 -10 -84 -10c-42 0 -63 27.667 -63 83c0 4 0.5 15.667 1.5 35s2 42.166 3 68.499s1.83301 47.166 2.5 62.499c4 90 6 180.333 6 271c0 47.333 -1.66699 80.833 -5 100.5s-8.83301 32.334 -16.5 38.001
s-20.834 8.5 -39.501 8.5l-1 23c46.667 8 80 12 100 12c9.33301 0 16.666 -2.33301 21.999 -7s10 -17 14 -37s6 -49 6 -87c0 -18.667 -1.66699 -84.834 -5 -198.501s-4.66602 -190.167 -3.99902 -229.5c0.666992 -44.667 5 -74 13 -88s25.333 -21 52 -21z" />
    <glyph glyph-name="m" unicode="m" horiz-adv-x="723" 
d="M711 29l-2.00488 -23.9971c-36.667 -6.66699 -63.334 -10 -80.001 -10c-20.667 0 -36.167 6.33301 -46.5 19s-15.5 39 -15.5 79c0 2.66699 0.5 15 1.5 37s2 47.667 3 77s1.5 54.666 1.5 75.999c0 43.333 -3.33301 74.5 -10 93.5s-18 28.5 -34 28.5
c-23.333 0 -45 -13.167 -65 -39.5s-34.833 -54 -44.5 -83s-16.167 -56.5 -19.5 -82.5c-3.33301 -26.667 -5 -62.334 -5 -107.001c0 -22 2.5 -38.333 7.5 -49s15.167 -16.667 30.5 -18l-2 -24c-29.333 -4.66699 -51.333 -7 -66 -7c-15.333 0 -26.833 4 -34.5 12
s-11.5 24.667 -11.5 50c0 16.667 1.83301 52.5 5.5 107.5s5.5 92.167 5.5 111.5c0 46 -4.16699 79 -12.5 99s-22.166 30 -41.499 30c-20 0 -39 -12.167 -57 -36.5s-31.833 -51.333 -41.5 -81s-15.5 -56.167 -17.5 -79.5l-1 -13c-2 -50 -2.66699 -87.333 -2 -112
c0.666992 -18 3.33398 -30.833 8.00098 -38.5s13.334 -12.834 26.001 -15.501l-1 -27c-35.333 -4.66699 -61.666 -7 -78.999 -7c-10 0 -17.333 1.66699 -22 5s-8 10.666 -10 21.999s-3 26.833 -3 46.5s0.666992 46.5 2 80.5c0 3.33301 0.166992 5.83301 0.5 7.5s0.5 4 0.5 7
v8.5l4 111c0.666992 20.667 0.333984 53.667 -0.999023 99c0 8 -0.666992 15.167 -2 21.5s-3.33301 11.333 -6 15s-5 6.66699 -7 9s-5 4 -9 5s-7 1.66699 -9 2s-5.33301 0.5 -10 0.5h-9l1 28c44.667 6 79.334 9 104.001 9c8 0 13.667 -0.666992 17 -2
s6.5 -6.16602 9.5 -14.499s4.5 -21.5 4.5 -39.5c0 -36.667 -0.666992 -65.667 -2 -87c13.333 41.333 34.833 75.833 64.5 103.5s60.5 41.5 92.5 41.5c31.333 0 53.833 -11.167 67.5 -33.5s20.5 -49.166 20.5 -80.499v-31c46 96.667 99.667 145 161 145
c26 0 46.333 -9.33301 61 -28s22 -53.334 22 -104.001c0 -13.333 -1 -46 -3 -98s-3 -82.667 -3 -92c0 -50 4.66699 -83 14 -99s26 -24 50 -24z" />
    <glyph glyph-name="n" unicode="n" horiz-adv-x="482" 
d="M476 29l-1.99805 -24.002c-36.667 -6.66699 -63.334 -10 -80.001 -10c-22 0 -37.833 6.16699 -47.5 18.5s-14.5 38.833 -14.5 79.5c0 2.66699 0.5 15 1.5 37s2 47.667 3 77s1.5 54.666 1.5 75.999c0 45.333 -4 76.333 -12 93s-23 25 -45 25
c-27.333 0 -52.833 -18.667 -76.5 -56s-38.834 -87.333 -45.501 -150c-2.66699 -28 -4 -65 -4 -111c0 -17.333 2.66699 -30.166 8 -38.499s14.666 -13.833 27.999 -16.5l-1 -27c-35.333 -4.66699 -61.666 -7 -78.999 -7c-14.667 0 -24.667 4.33301 -30 13
s-8 26.334 -8 53.001c0 8.66699 1 28 3 58s3 51 3 63l4 101c1.33301 37.333 1 70.333 -1 99c-0.666992 8 -1.66699 15.167 -3 21.5s-3.33301 11.333 -6 15s-5 6.66699 -7 9s-5 4 -9 5s-7 1.66699 -9 2s-5.33301 0.5 -10 0.5h-8l1 28c42 6.66699 75.333 10 100 10
c7.33301 0 13 -0.833008 17 -2.5s8 -6.83398 12 -15.501s6 -21.667 6 -39c0 -24 -1 -52 -3 -84c22 52 49 88.667 81 110s60.667 32 86 32c30.667 0 53 -9.66699 67 -29s21 -58.333 21 -117c0 -13.333 -1 -43.666 -3 -90.999s-3 -75.666 -3 -84.999c0 -50 4.66699 -83 14 -99
s26 -24 50 -24z" />
    <glyph glyph-name="o" unicode="o" horiz-adv-x="471" 
d="M441 248c0 -72.667 -19 -133.667 -57 -183s-88.333 -74 -151 -74c-58.667 0 -104.5 20.167 -137.5 60.5s-49.5 98.833 -49.5 175.5c0 46 7.16699 86.167 21.5 120.5s32.833 60.333 55.5 78s45.5 30.667 68.5 39s45.833 12.5 68.5 12.5c52 0 95.167 -17.333 129.5 -52
s51.5 -93.667 51.5 -177zM355 237c0 42 -2.66602 76.835 -7.99902 104.502s-13.333 48.167 -24 61.5s-21.667 22.5 -33 27.5s-25 7.5 -41 7.5c-33.333 0 -61.333 -16 -84 -48s-34 -83 -34 -153c0 -74.667 10 -127.834 30 -159.501s45.667 -47.5 77 -47.5
c33.333 0 61.166 16.667 83.499 50s33.5 85.666 33.5 156.999z" />
    <glyph glyph-name="p" unicode="p" horiz-adv-x="478" 
d="M443 257c-2 -56 -13.8311 -104.501 -35.498 -145.501s-47.334 -70.667 -77.001 -89s-60.834 -27.5 -93.501 -27.5c-31.333 0 -59.666 5.66699 -84.999 17l-1 -31c0 -12 -0.333008 -23 -1 -33s-1 -19 -1 -27c0 -37.333 2.5 -65 7.5 -83s11.5 -29.167 19.5 -33.5
s20.333 -6.5 37 -6.5l-2 -24c-36.667 -6.66699 -63.334 -10 -80.001 -10c-14.667 0 -25.667 1.33301 -33 4s-14 10.834 -20 24.501s-9 34.167 -9 61.5l5 137l8 204l4 137c0 59.333 -10 92.666 -30 99.999c-4 1.33301 -11 2.33301 -21 3h-5l1 28c44.667 6 79.334 9 104.001 9
c8 0 13.667 -0.666992 17 -2s6.5 -6.16602 9.5 -14.499s4.5 -21.5 4.5 -39.5v-44c15.333 30 35.5 55 60.5 75s53.167 30 84.5 30c40 0 72.667 -17.667 98 -53s36.666 -91 33.999 -167zM360.002 230.999c4 118 -24.334 177 -85.001 177c-31.333 0 -57.833 -18 -79.5 -54
s-33.167 -76 -34.5 -120l-5 -139c2.66699 -17.333 11.334 -32 26.001 -44s32.667 -18 54 -18c78 0 119.333 66 124 198z" />
    <glyph glyph-name="q" unicode="q" horiz-adv-x="472" 
d="M457 -202l-6.00293 -21.9971c-32 -9.33301 -56 -14 -72 -14c-24 0 -40.667 5 -50 15s-14 30.667 -14 62c0 61.333 1.66699 118 5 170l6 112l-4 2c-27.333 -45.333 -53.333 -78.833 -78 -100.5s-53.334 -32.5 -86.001 -32.5c-11.333 0 -22.166 2.16699 -32.499 6.5
s-21.666 12.166 -33.999 23.499s-22.166 30.166 -29.499 56.499s-11 58.833 -11 97.5c0 94 22.833 166.667 68.5 218s96.834 78.666 153.501 81.999c39.333 2 70.333 -0.666992 93 -8c2 0 8.16699 2 18.5 6s17.833 6.66699 22.5 8l12 -5c-4.66699 -24 -8 -65 -10 -123
l-8 -294c-2.66699 -122 -3.66699 -190 -3 -204c0.666992 -19.333 5.16699 -33.5 13.5 -42.5s23.5 -13.5 45.5 -13.5zM328.997 366.003c0 30 -5.16699 49.167 -15.5 57.5s-28.166 12.5 -53.499 12.5c-34.667 0 -65 -19 -91 -57s-39 -97 -39 -177c0 -99.333 23 -149 69 -149
c20.667 0 39.5 9.83301 56.5 29.5s30.5 41.167 40.5 64.5c17.333 40.667 27.666 91 30.999 151c1.33301 22 2 44.667 2 68z" />
    <glyph glyph-name="r" unicode="r" horiz-adv-x="368" 
d="M372 446c-1.33301 -30 -19.668 -58.334 -55.001 -85.001l-10 7c-3.33301 27.333 -17 41 -41 41s-47 -16.167 -69 -48.5s-34.333 -79.833 -37 -142.5l-1 -23c-2.66699 -57.333 -3.33398 -94.666 -2.00098 -111.999c1.33301 -18.667 4.16602 -31.667 8.49902 -39
s12.833 -12.333 25.5 -15l-1 -27c-35.333 -4.66699 -61.666 -7 -78.999 -7c-10 0 -17.333 1.66699 -22 5s-8 10.666 -10 21.999s-3 26.833 -3 46.5s0.666992 46.5 2 80.5c0 3.33301 0.166992 5.83301 0.5 7.5s0.5 4 0.5 7v8.5l4 111
c0.666992 20.667 0.333984 53.667 -0.999023 99c0 8 -0.666992 15.167 -2 21.5s-3.33301 11.333 -6 15s-5 6.66699 -7 9s-5 4 -9 5s-7 1.66699 -9 2s-5.33301 0.5 -10 0.5h-9l1 28c44.667 6 79.334 9 104.001 9c8 0 13.667 -0.666992 17 -2s6.5 -6.16602 9.5 -14.499
s4.5 -21.5 4.5 -39.5l-2 -60c16 36.667 39 66.334 69 89.001s60.667 34 92 34c14.667 0 25.667 -2 33 -6s11.5 -7.83301 12.5 -11.5s1.5 -8.83398 1.5 -15.501z" />
    <glyph glyph-name="s" unicode="s" horiz-adv-x="387" 
d="M361 149c0 -36 -18.332 -71.3359 -54.999 -106.003s-83 -52 -139 -52c-26 0 -48.333 2.5 -67 7.5s-32.167 11.333 -40.5 19s-14.333 15 -18 22s-5.5 13.833 -5.5 20.5c0 26 23.333 46 70 60l10 -10c0 -52 24.333 -78 73 -78c28.667 0 51 8.33301 67 25
s24 40.334 24 71.001c0 12 -2.5 22.667 -7.5 32s-12.667 17.333 -23 24s-20.166 12.167 -29.499 16.5s-21.333 9.16602 -36 14.499s-25.667 9.66602 -33 12.999c-17.333 8 -30.833 14.833 -40.5 20.5s-20.167 13.334 -31.5 23.001s-19.666 21.334 -24.999 35.001
s-8 29.5 -8 47.5c0 34.667 15.167 63.834 45.5 87.501s71.5 35.5 123.5 35.5c48 0 82.667 -6.5 104 -19.5s32 -27.833 32 -44.5c0 -25.333 -23 -43.333 -69 -54l-8 8c0 47.333 -23.333 71 -70 71c-22.667 0 -41.334 -5.66699 -56.001 -17s-22 -28.666 -22 -51.999
c0 -12 2.16699 -22.5 6.5 -31.5s11.166 -16.833 20.499 -23.5s17.166 -11.667 23.499 -15s16 -7.33301 29 -12s20.833 -7.66699 23.5 -9c4 -2 13.667 -6 29 -12s26 -10.5 32 -13.5s14.667 -8.16699 26 -15.5s19.5 -14.5 24.5 -21.5s9.66699 -16.333 14 -28
s6.5 -24.5 6.5 -38.5z" />
    <glyph glyph-name="t" unicode="t" horiz-adv-x="340" 
d="M321 80l8.99902 -24.998c-29.333 -22.667 -62.166 -39.334 -98.499 -50.001s-65.5 -16 -87.5 -16c-45.333 0 -68 28 -68 84c0 46.667 1.66699 100.667 5 162c2.66699 69.333 4 112.666 4 129.999c0 28 -3.33301 45 -10 51c-6 5.33301 -21.667 8 -47 8l3 37
c24 8.66699 43.333 23.667 58 45c24.667 38 41.334 92.667 50.001 164l35 8l-7 -204l131 -6l-8 -43l-125 -5c-2.66699 -64.667 -4.33398 -117.667 -5.00098 -159l-2 -118c0 -36 4 -61 12 -75s23 -21 45 -21c30.667 0 66 11 106 33z" />
    <glyph glyph-name="u" unicode="u" horiz-adv-x="484" 
d="M469 27l-1.99414 -23.999c-42.667 -8.66699 -71.334 -13 -86.001 -13c-16 0 -28.333 4.16699 -37 12.5s-13.334 24.833 -14.001 49.5c0 26 0.666992 49.667 2 71c-34 -48.667 -69 -83.167 -105 -103.5s-65.333 -30.5 -88 -30.5c-20 0 -35.5 6.16699 -46.5 18.5
s-16.5 34.166 -16.5 65.499c0 21.333 0.833008 50.833 2.5 88.5s2.5 62.167 2.5 73.5c0.666992 17.333 1 48.666 1 93.999c0 41.333 -4.66699 68.833 -14 82.5s-24.333 21.5 -45 23.5l2 28c40 6 71 9 93 9c31.333 0 47 -24.333 47 -73c0 -7.33301 -0.666992 -27.333 -2 -60
s-2.33301 -58.667 -3 -78l-2 -118c0.666992 -28.667 4.16699 -49.667 10.5 -63s16.833 -20 31.5 -20c32.667 0 63 20.167 91 60.5s42.667 78.166 44 113.499l2 53c0.666992 9.33301 1 30.333 1 63s-2.33301 54.834 -7 66.501s-13 17.834 -25 18.501l4 24
c33.333 10 58 15 74 15c9.33301 0 16.166 -0.5 20.499 -1.5s8.16602 -5.16699 11.499 -12.5s5 -18.333 5 -33c0 -7.33301 -0.666992 -20.833 -2 -40.5s-2.83301 -46.167 -4.5 -79.5s-2.83398 -68 -3.50098 -104c-0.666992 -44 -0.333984 -83.667 0.999023 -119
c1.33301 -38 20.333 -57 57 -57z" />
    <glyph glyph-name="v" unicode="v" horiz-adv-x="429" 
d="M423 441c0 -44 -15.332 -102.999 -45.999 -176.999l-90 -216c-11.333 -25.333 -20.666 -40.333 -27.999 -45c-8 -5.33301 -20.333 -10.333 -37 -15s-28.667 -7 -36 -7c-5.33301 0 -8.83301 1.5 -10.5 4.5s-3.83398 10.5 -6.50098 22.5
c-11.333 51.333 -19.333 86.666 -24 105.999l-18 72c-21.333 87.333 -42.333 155.333 -63 204c-6 14 -12.833 24.667 -20.5 32s-13.834 11.5 -18.501 12.5s-11 1.5 -19 1.5v27c42.667 6 76.334 9 101.001 9c12 0 21.833 -7 29.5 -21s18.5 -47.667 32.5 -101l77 -296h4l24 60
c19.333 47.333 35.166 94.833 47.499 142.5s18.5 83.5 18.5 107.5c0 24.667 -2.5 41.834 -7.5 51.501s-13.833 16.5 -26.5 20.5v21c27.333 7.33301 53 11 77 11c15.333 0 25.833 -1.33301 31.5 -4s8.5 -10.334 8.5 -23.001z" />
    <glyph glyph-name="w" unicode="w" horiz-adv-x="675" 
d="M652 441c0 -42 -15.3291 -106.333 -45.9961 -193l-72 -200c-8.66699 -23.333 -18 -38.333 -28 -45c-8.66699 -5.33301 -20.667 -10.333 -36 -15s-27 -7 -35 -7c-6.66699 0 -10.834 1.33301 -12.501 4s-3.83398 10.334 -6.50098 23.001l-12 63c-6 32 -10.667 56 -14 72
c-8 39.333 -16.167 75.666 -24.5 108.999s-14.5 56.666 -18.5 69.999l-6 21l-42 -155c-16.667 -57.333 -31 -104 -43 -140c-8 -22.667 -17.333 -37.667 -28 -45c-8.66699 -6 -20.667 -11.167 -36 -15.5s-27.333 -6.5 -36 -6.5c-6 0 -9.83301 1.33301 -11.5 4
s-3.83398 10.334 -6.50098 23.001l-5.5 30.5l-8 46c-3 17.667 -5.16699 31.5 -6.5 41.5l-19 109c-12 67.333 -23.333 119 -34 155c-4 14.667 -10 25.667 -18 33s-14.333 11.333 -19 12s-11.667 1 -21 1v27c41.333 6 74.333 9 99 9c12 0 21.167 -7.33301 27.5 -22
s14.5 -48 24.5 -100l53 -296h4l24 78c22 70.667 40 135.334 54 194.001c17.333 74 27.333 113 30 117c4.66699 6.66699 14 13.167 28 19.5s24 9.5 30 9.5c9.33301 0 20.666 -31 33.999 -93l73 -325h4l28 76c35.333 96 53 174 53 234c0 40 -12.667 64 -38 72v21
c27.333 7.33301 53 11 77 11c15.333 0 25.833 -1.33301 31.5 -4s8.5 -10.334 8.5 -23.001z" />
    <glyph glyph-name="x" unicode="x" horiz-adv-x="439" 
d="M428 28v-27c-29.333 -6 -58.333 -9 -87 -9c-4 0 -7.5 0.333008 -10.5 1l-9 2c-3 0.666992 -5.83301 2.33398 -8.5 5.00098s-5.16699 5 -7.5 7s-5 5.33301 -8 10l-8 12c-2.33301 3.33301 -5.5 8.66602 -9.5 15.999l-10.5 19.5l-13 24
c-5.66699 10.333 -10.5 19.5 -14.5 27.5l-43 80c-54 -65.333 -81 -108.333 -81 -129c0 -19.333 10 -32.333 30 -39l-1 -24c-26.667 -5.33301 -52 -8 -76 -8c-14.667 0 -25 1.66699 -31 5s-9 10.666 -9 21.999c0 7.33301 3.16699 17 9.5 29s15.666 26.333 27.999 43
s23.833 31.334 34.5 44.001l41.5 49.5l35.5 42.5l-33 64l-17.5 33.5c-5.66699 11 -9.66699 19 -12 24s-5.83301 11.167 -10.5 18.5l-17 26c-18 26 -40.667 39 -68 39v27c42.667 6 76.334 9 101.001 9c13.333 0 24 -6 32 -18s19.333 -34.333 34 -67l47 -104
c49.333 59.333 74 100.333 74 123c0 8 -1.66699 14 -5 18s-11 8 -23 12v21c27.333 7.33301 53 11 77 11c26.667 0 40 -9 40 -27c0 -23.333 -48 -86 -144 -188c34 -69.333 68 -129 102 -179c21.333 -30.667 45 -46 71 -46z" />
    <glyph glyph-name="y" unicode="y" horiz-adv-x="456" 
d="M437 442c0 -20 -6.49902 -56.8369 -19.499 -110.504s-34.5 -119.5 -64.5 -197.5l-44 -115c-64.667 -169.333 -132.334 -254 -203.001 -254c-28 0 -42 11 -42 33c0 22.667 7 47.334 21 74.001l13 2c15.333 -20.667 32.666 -31 51.999 -31c16 0 29.167 6.83301 39.5 20.5
s15.5 31.834 15.5 54.501c0 23.333 -13.333 84.333 -40 183l-23 85c-25.333 92.667 -47.666 160.667 -66.999 204c-4.66699 10.667 -10 19.334 -16 26.001s-12.667 11.334 -20 14.001s-12.166 4.16699 -14.499 4.5s-7.16602 0.833008 -14.499 1.5v27
c47.333 6 83.333 9 108 9c12 0 22 -7.33301 30 -22s19.333 -48 34 -100l44 -160c20.667 -78 34 -130.333 40 -157h5l37 106c34 96.667 51 176 51 238c0 18 -3.33301 31.333 -10 40s-17 15 -31 19l-1 21c27.333 7.33301 53 11 77 11c11.333 0 19.166 -0.166992 23.499 -0.5
s8.66602 -2.5 12.999 -6.5s6.5 -10.333 6.5 -19z" />
    <glyph glyph-name="z" unicode="z" horiz-adv-x="391" 
d="M370 467l8.00195 -18.001c-60.667 -81.333 -112.334 -155.666 -155.001 -222.999c-40 -62.667 -69.333 -110.334 -88 -143.001c88 10 137.333 15 148 15c30.667 0 51.5 -2.83301 62.5 -8.5s16.5 -17.5 16.5 -35.5c0 -25.333 -6.66699 -49.666 -20 -72.999l-4 -1
c-6 7.33301 -17 13 -33 17s-30.5 6.16699 -43.5 6.5s-32.167 0.5 -57.5 0.5h-12c-22.667 0 -53.167 -1.33301 -91.5 -4s-60.166 -4 -65.499 -4l-1 18c42 55.333 92 129 150 221c53.333 85.333 83.666 136.333 90.999 153c-19.333 -4 -38.333 -6 -57 -6
c-13.333 0 -28.833 1.16699 -46.5 3.5s-31.834 3.5 -42.501 3.5c-37.333 0 -64.666 -22.333 -81.999 -67l-18 11c21.333 94 46.666 141 75.999 141c24.667 0 59 -2.66699 103 -8s70.667 -8 80 -8c32.667 0 60 3 82 9z" />
    <glyph glyph-name="braceleft" unicode="{" horiz-adv-x="389" 
d="M355 760l-0.000976562 -37.999h-29c-32 0 -52.833 -11.667 -62.5 -35s-14.5 -64.666 -14.5 -123.999v-86c0 -26 -3 -48.667 -9 -68c-24.667 -73.333 -65.667 -113 -123 -119v-12c30.667 -4 56.167 -17 76.5 -39s35.833 -48.667 46.5 -80c6 -18.667 9 -41.334 9 -68.001
v-86c0 -59.333 4.83301 -100.666 14.5 -123.999s30.5 -35 62.5 -35h19v-38h-37c-56 0 -94.5 15.167 -115.5 45.5s-31.5 78.166 -31.5 143.499v73c0 124 -39.667 186 -119 186h-11v56h11c79.333 0 119 62 119 186v73c0 63.333 13.833 110.666 41.5 141.999
s72.834 47 135.501 47h17z" />
    <glyph glyph-name="bar" unicode="|" horiz-adv-x="229" 
d="M143 760v-951h-52v951h52z" />
    <glyph glyph-name="braceright" unicode="}" horiz-adv-x="389" 
d="M32 722l-0.000976562 37.999h17c62.667 0 107.834 -15.667 135.501 -47s41.5 -78.666 41.5 -141.999v-73c0 -124 39.667 -186 119 -186h11v-56h-11c-79.333 0 -119 -62 -119 -186v-73c0 -65.333 -10.5 -113.166 -31.5 -143.499s-59.5 -45.5 -115.5 -45.5h-37v38h19
c32 0 52.833 11.667 62.5 35s14.5 64.666 14.5 123.999v86c0 26 3 48.667 9 68c10.667 31.333 26.167 58 46.5 80s45.833 35 76.5 39v12c-57.333 6 -98.333 45.667 -123 119c-6 18.667 -9 41.334 -9 68.001v86c0 59.333 -4.83301 100.666 -14.5 123.999s-30.5 35 -62.5 35
h-29z" />
    <glyph glyph-name="asciitilde" unicode="~" horiz-adv-x="588" 
d="M526 373l23 -13c-14 -32.667 -35 -61.5 -63 -86.5s-61.333 -37.5 -100 -37.5c-28 0 -63.333 11.5 -106 34.5s-77 34.5 -103 34.5c-46.667 0 -84.667 -21.333 -114 -64l-23 15c50 78.667 104.667 118 164 118c30 0 66 -11.333 108 -34s75.667 -34 101 -34
c44 0 81.667 22.333 113 67z" />
    <glyph glyph-name="nbspace" unicode="&#xa0;" horiz-adv-x="233" 
 />
    <glyph glyph-name="currency" unicode="&#xa4;" horiz-adv-x="543" 
d="M444 156l75 -76l-32 -33l-76 76c-41.333 -32.667 -86.333 -49 -135 -49s-93.667 16.333 -135 49l-75 -76l-32 33l74 76c-32 40 -48 85 -48 135s16 95 48 135l-74 75l32 33l75 -76c41.333 32.667 86.333 49 135 49s93.667 -16.333 135 -49l76 76l32 -33l-75 -75
c32.667 -41.333 49 -86.333 49 -135s-16.333 -93.667 -49 -135zM443 291c0 47.333 -16.333 87.668 -49 121.001s-72 50 -118 50c-45.333 0 -84.5 -16.833 -117.5 -50.5s-49.5 -73.834 -49.5 -120.501c0 -47.333 16.5 -87.833 49.5 -121.5s72.167 -50.5 117.5 -50.5
c46 0 85.333 16.833 118 50.5s49 74.167 49 121.5z" />
    <glyph glyph-name="brokenbar" unicode="&#xa6;" horiz-adv-x="211" 
d="M133 696v-351h-52v351h52zM133 196v-351h-52v351h52z" />
    <glyph glyph-name="section" unicode="&#xa7;" horiz-adv-x="433" 
d="M401 321c0 -35.333 -9.66699 -66.334 -29 -93.001s-42.666 -48.334 -69.999 -65.001c30.667 -17.333 50.834 -33 60.501 -47s14.5 -37.333 14.5 -70c0 -39.333 -16 -73.833 -48 -103.5s-74 -44.5 -126 -44.5c-83.333 0 -125 26 -125 78
c0 11.333 4.33301 22.666 13 33.999s19.334 19.666 32.001 24.999l14 -4c3.33301 -32.667 14.666 -55.834 33.999 -69.501s38 -20.5 56 -20.5c26 0 47.667 7.16699 65 21.5s26 34.166 26 59.499c0 9.33301 -0.666992 17.833 -2 25.5s-4.5 14.5 -9.5 20.5l-12 14.5
c-3 3.66699 -9.33301 7.83398 -19 12.501l-20 9.5c-3.66699 1.66699 -12.334 5 -26.001 10s-22.5 8.16699 -26.5 9.5c-4.66699 2 -13.334 5.16699 -26.001 9.5s-22.167 7.83301 -28.5 10.5s-15.333 6.66699 -27 12s-20.667 10.166 -27 14.499s-13.833 10.333 -22.5 18
s-15.167 15.334 -19.5 23.001s-8.16602 16.834 -11.499 27.501s-5 22 -5 34c0 28.667 10 56.5 30 83.5s43 48.5 69 64.5c-26 14 -44.667 30.167 -56 48.5s-17 43.5 -17 75.5c0 40.667 15.833 75.5 47.5 104.5s73.834 43.5 126.501 43.5c83.333 0 125 -26 125 -78
c0 -11.333 -4.33301 -22.666 -13 -33.999s-19.334 -19.666 -32.001 -24.999l-14 4c-5.33301 60 -34.666 90 -87.999 90c-24.667 0 -46.334 -7.16699 -65.001 -21.5s-28 -34.166 -28 -59.499c0 -31.333 9 -54.166 27 -68.499s46.667 -27.833 86 -40.5
c4 -1.33301 12.667 -4 26 -8s23 -7 29 -9s15 -5.33301 27 -10s21 -9 27 -13s13.333 -9.5 22 -16.5s15.167 -14.167 19.5 -21.5s8.16602 -16.333 11.499 -27s5 -22 5 -34zM328 291.999c0 9.33301 -1.16797 18.0049 -3.50098 26.0049s-6.5 15 -12.5 21l-16 15.5
c-4.66699 4.33301 -12.167 8.66602 -22.5 12.999s-18.166 7.5 -23.499 9.5s-14.333 5.16699 -27 9.5s-21.334 7.16602 -26.001 8.49902l-29 10c-39.333 -26 -59 -60.667 -59 -104c0 -7.33301 0.833008 -14.166 2.5 -20.499s3.33398 -12 5.00098 -17s4.83398 -10 9.50098 -15
l11 -12c2.66699 -3 7.66699 -6.66699 15 -11l15 -9c2.66699 -1.66699 8.66699 -4.33398 18 -8.00098s15.166 -5.83398 17.499 -6.50098s8.83301 -2.83398 19.5 -6.50098s16.667 -5.83398 18 -6.50098l29 -10c18 12 32.333 28.333 43 49s16 42 16 64z" />
    <glyph glyph-name="dieresis" unicode="&#xa8;" horiz-adv-x="429" 
d="M368 595c0 -15.333 -5.5 -28.666 -16.5 -39.999s-23.833 -17 -38.5 -17s-27.5 5.66699 -38.5 17s-16.5 24.666 -16.5 39.999s5.5 28.666 16.5 39.999s23.833 17 38.5 17s27.5 -5.66699 38.5 -17s16.5 -24.666 16.5 -39.999zM217 595
c0 -15.333 -5.5 -28.666 -16.5 -39.999s-23.833 -17 -38.5 -17s-27.5 5.66699 -38.5 17s-16.5 24.666 -16.5 39.999s5.5 28.666 16.5 39.999s23.833 17 38.5 17s27.5 -5.66699 38.5 -17s16.5 -24.666 16.5 -39.999z" />
    <glyph glyph-name="copyright" unicode="&#xa9;" horiz-adv-x="763" 
d="M738 348c0 -98.667 -34.833 -185.167 -104.5 -259.5s-153.5 -111.5 -251.5 -111.5c-99.333 0 -183.333 36.5 -252 109.5s-103 160.167 -103 261.5c0 100.667 34.333 187.334 103 260.001s152.667 109 252 109c98 0 181.833 -36.833 251.5 -110.5
s104.5 -159.834 104.5 -258.501zM701 348c0 88 -31.167 165.333 -93.5 232s-137.5 100 -225.5 100c-88.667 0 -163.834 -32.833 -225.501 -98.5s-92.5 -143.5 -92.5 -233.5c0 -90.667 30.833 -169 92.5 -235s136.834 -99 225.501 -99c88 0 163.167 33.5 225.5 100.5
s93.5 144.833 93.5 233.5zM548 208l9.00098 -21.002c-2 -2 -4.66699 -4.5 -8 -7.5s-10.666 -8.66699 -21.999 -17s-23.333 -15.666 -36 -21.999s-28.834 -12 -48.501 -17s-39.834 -7.5 -60.501 -7.5c-54.667 0 -101.5 18.333 -140.5 55s-58.5 91 -58.5 163
c0 38 5.16699 71.833 15.5 101.5s23.5 53.334 39.5 71.001s34.667 32.334 56 44.001s41.833 19.667 61.5 24s39.834 6.5 60.501 6.5c80 0 120 -16.333 120 -49c0 -15.333 -16.333 -37.666 -49 -66.999l-11 7c0 18 -2.5 32.667 -7.5 44s-12.5 19.166 -22.5 23.499
s-18.5 7 -25.5 8s-16.5 1.5 -28.5 1.5c-13.333 0 -26.833 -2.83301 -40.5 -8.5s-28 -15.334 -43 -29.001s-27.333 -35 -37 -64s-14.5 -63.5 -14.5 -103.5c0 -62 15.167 -108.833 45.5 -140.5s64.166 -47.5 101.499 -47.5c53.333 0 101.333 17.333 144 52z" />
    <glyph glyph-name="guillemotleft" unicode="&#xab;" horiz-adv-x="417" 
d="M291 272l98 -184l-15 -11l-180 195l180 195l15 -11zM141 272l106 -200l-15 -11l-200 211l200 211l15 -11z" />
    <glyph glyph-name="logicalnot" unicode="&#xac;" horiz-adv-x="498" 
d="M468 288v-123h-46v70h-374v53h420z" />
    <glyph glyph-name="uni00AD" unicode="&#xad;" horiz-adv-x="356" 
d="M304 268l-15 -65c-52.667 2.66699 -96 4 -130 4l-115 -4l15 65l138 -5z" />
    <glyph glyph-name="registered" unicode="&#xae;" horiz-adv-x="759" 
d="M740 348c0 -99.333 -35 -186.331 -105 -260.998s-154.333 -112 -253 -112c-99.333 0 -183.833 36.833 -253.5 110.5s-104.5 161.167 -104.5 262.5s34.833 188.666 104.5 261.999s154.167 110 253.5 110c98.667 0 183 -37.333 253 -112s105 -161.334 105 -260.001z
M698 348.002c0 88 -30.833 164.999 -92.5 230.999s-136.167 99 -223.5 99c-88 0 -162.667 -32.667 -224 -98s-92 -142.666 -92 -231.999c0 -90 30.667 -167.667 92 -233s136 -98 224 -98c87.333 0 161.833 33.167 223.5 99.5s92.5 143.5 92.5 231.5zM557 149.001
l0.00292969 -20.0029c-20 -9.33301 -38 -14 -54 -14c-4.66699 0 -8.83398 0.666992 -12.501 2s-6.66699 2.5 -9 3.5s-5.16602 3.5 -8.49902 7.5s-5.33301 6.5 -6 7.5s-2.83398 4.5 -6.50098 10.5s-5.83398 9.33301 -6.50098 10c-10.667 16 -26.334 44.667 -47.001 86
c-16 29.333 -28.5 50.333 -37.5 63s-18.5 21.667 -28.5 27l-6 3v21c18.667 2 31.334 3.66699 38.001 5c24 4.66699 43.667 15.5 59 32.5s23 40.167 23 69.5c0 56.667 -23 85 -69 85c-28.667 0 -47.334 -5.33301 -56.001 -16c-5.33301 -8 -8 -24.667 -8 -50v-138
c0 -91.333 0.333008 -145 1 -161v-9.5c0 -4.33301 0.166992 -7.16602 0.5 -8.49902s0.666016 -3.66602 0.999023 -6.99902s0.833008 -5.83301 1.5 -7.5s1.66699 -3.5 3 -5.5s2.83301 -3.66699 4.5 -5s3.83398 -2.33301 6.50098 -3v-19h-53
c-9.33301 0 -16.166 1.33301 -20.499 4s-6.5 9.33398 -6.5 20.001c0 6.66699 0.666992 23.834 2 51.501s2 48.167 2 61.5v169c0 12.667 -1.33301 39 -4 79c-0.666992 6 -1.5 11.333 -2.5 16s-2.66699 8.33398 -5 11.001s-4.16602 5 -5.49902 7s-3.83301 3.5 -7.5 4.5
s-6 1.66699 -7 2s-3.83301 0.5 -8.5 0.5h-6v24c76 7.33301 136.333 11 181 11c31.333 0 59.166 -7.83301 83.499 -23.5s36.5 -43.167 36.5 -82.5c0 -38 -12.833 -67.667 -38.5 -89s-52.834 -34.666 -81.501 -39.999c18 -10.667 38.333 -37 61 -79
c24 -44.667 40 -72.334 48 -83.001c0.666992 -0.666992 2.16699 -2.5 4.5 -5.5s3.83301 -4.83301 4.5 -5.5s2 -2.16699 4 -4.5s3.33301 -3.83301 4 -4.5s2 -1.83398 4 -3.50098s3.5 -2.83398 4.5 -3.50098s2.5 -1.5 4.5 -2.5s4 -1.66699 6 -2l6 -1
c2 -0.333008 4.33301 -0.5 7 -0.5z" />
    <glyph glyph-name="degree" unicode="&#xb0;" horiz-adv-x="311" 
d="M282 541c0 -34 -11.833 -63.001 -35.5 -87.001s-53.167 -36 -88.5 -36c-36.667 0 -66 11.833 -88 35.5s-33 52.834 -33 87.501s11 63.667 33 87s51.333 35 88 35c34.667 0 64 -11.833 88 -35.5s36 -52.5 36 -86.5zM236 540.999c0 22 -7.16797 40.167 -21.501 54.5
s-33.166 21.5 -56.499 21.5c-22.667 0 -40.834 -7.16699 -54.501 -21.5s-20.5 -32.5 -20.5 -54.5s6.83301 -40.333 20.5 -55s31.834 -22 54.501 -22c24 0 43 6.66699 57 20s21 32.333 21 57z" />
    <glyph glyph-name="plusminus" unicode="&#xb1;" horiz-adv-x="526" 
d="M494 325l-18 -58c-70 1.33301 -128.333 2.33301 -175 3l4 -115l-58 -15c2 50 3 93.333 3 130l-198 -3l15 58c73.333 -2 134.333 -3.33301 183 -4l-3 123l58 18c-2.66699 -61.333 -4 -108.333 -4 -141zM496 107l-14 -59l-226 3l-205 -4l11 60
c90 -1.33301 157.333 -2 202 -2z" />
    <glyph glyph-name="acute" unicode="&#xb4;" horiz-adv-x="448" 
d="M268 654l82 -13l-135 -123l-26 7z" />
    <glyph glyph-name="mu" unicode="&#xb5;" horiz-adv-x="576" 
d="M537 167l22 -5.00195c-2.66699 -37.333 -15.667 -75.666 -39 -114.999s-53.666 -59 -90.999 -59c-43.333 0 -67 26.667 -71 80l-1 24c-14.667 -37.333 -31 -64 -49 -80s-42.333 -24 -73 -24c-30 0 -54 10 -72 30s-32 53 -42 99
c-5.33301 -56.667 -9.33301 -107.667 -12 -153c-4 -66 -1.33301 -119.667 8 -161c-7.33301 -18 -24.333 -27 -51 -27c-12.667 0 -22.667 4.66699 -30 14s-11 21.333 -11 36c0 12 8.16699 57.333 24.5 136s26.833 149.334 31.5 212.001l17 294h78l-13 -277
c-1.33301 -12.667 -2 -33.667 -2 -63c0 -20.667 6.66699 -38.5 20 -53.5s33.333 -22.5 60 -22.5s47.667 11.833 63 35.5s24 50.167 26 79.5l19 301h80l-19 -303c-2 -26 -3 -46 -3 -60c2.66699 -35.333 17.667 -53 45 -53c12 0 22.667 3 32 9s16.666 12.167 21.999 18.5
s10.5 16.5 15.5 30.5s8 23.5 9 28.5s3.16699 14.5 6.5 28.5z" />
    <glyph glyph-name="paragraph" unicode="&#xb6;" horiz-adv-x="517" 
d="M476 687l0.000976562 -37h-101v-838h-43v838h-108v-838h-43v604c-92.667 -2.66699 -140.334 42.333 -143.001 135c0 38.667 12.333 71 37 97s58.667 39 102 39h299z" />
    <glyph glyph-name="periodcentered" unicode="&#xb7;" horiz-adv-x="277" 
d="M195 329c0 -15.333 -5.5 -28.333 -16.5 -39s-23.833 -16 -38.5 -16s-27.5 5.33301 -38.5 16s-16.5 23.667 -16.5 39s5.5 28.333 16.5 39s23.833 16 38.5 16s27.5 -5.33301 38.5 -16s16.5 -23.667 16.5 -39z" />
    <glyph glyph-name="guillemotright" unicode="&#xbb;" horiz-adv-x="417" 
d="M45 88l98 184l-98 184l15 11l180 -195l-180 -195zM187 72l106 200l-106 200l15 11l200 -211l-200 -211z" />
    <glyph glyph-name="tilde" unicode="&#x2dc;" horiz-adv-x="495" 
d="M439 582l21.999 -14c-38 -62 -81 -93 -129 -93c-8 0 -16.333 1 -25 3s-15.5 4 -20.5 6s-13.167 5.5 -24.5 10.5l-24 10.5c-42 17.333 -70.333 26 -85 26c-36.667 0 -65.334 -14.333 -86.001 -43l-22 14c33.333 54.667 76.333 82 129 82c8 0 16.333 -1 25 -3
s15.334 -3.83301 20.001 -5.5s12.834 -5 24.501 -10l24.5 -10.5c3.33301 -1.33301 9 -3.83301 17 -7.5l17.5 -8c3.66699 -1.66699 8.66699 -3.5 15 -5.5s12.333 -3.5 18 -4.5s11.5 -1.5 17.5 -1.5c29.333 0 58 18 86 54z" />
    <glyph glyph-name="uni037E" unicode="&#x37e;" horiz-adv-x="190" 
d="M153 413c0 -15.333 -5.66699 -28.666 -17 -39.999s-24.666 -17 -39.999 -17s-28.666 5.66699 -39.999 17s-17 24.666 -17 39.999s5.66699 28.666 17 39.999s24.666 17 39.999 17s28.666 -5.66699 39.999 -17s17 -24.666 17 -39.999zM141 35
c0 -28 -8.83105 -59.166 -26.498 -93.499s-41.834 -61.833 -72.501 -82.5l-15 16l13.5 13.5c5.66699 5.66699 13 17 22 34s13.5 33.5 13.5 49.5c0 10.667 -6.33301 24.667 -19 42s-19 30.666 -19 39.999c0 16.667 4.16699 30.167 12.5 40.5s20.166 15.5 35.499 15.5
c36.667 0 55 -25 55 -75z" />
    <glyph glyph-name="uni03BC" unicode="&#x3bc;" horiz-adv-x="576" 
d="M537 167l22 -5.00195c-2.66699 -37.333 -15.667 -75.666 -39 -114.999s-53.666 -59 -90.999 -59c-43.333 0 -67 26.667 -71 80l-1 24c-14.667 -37.333 -31 -64 -49 -80s-42.333 -24 -73 -24c-30 0 -54 10 -72 30s-32 53 -42 99
c-5.33301 -56.667 -9.33301 -107.667 -12 -153c-4 -66 -1.33301 -119.667 8 -161c-7.33301 -18 -24.333 -27 -51 -27c-12.667 0 -22.667 4.66699 -30 14s-11 21.333 -11 36c0 12 8.16699 57.333 24.5 136s26.833 149.334 31.5 212.001l17 294h78l-13 -277
c-1.33301 -12.667 -2 -33.667 -2 -63c0 -20.667 6.66699 -38.5 20 -53.5s33.333 -22.5 60 -22.5s47.667 11.833 63 35.5s24 50.167 26 79.5l19 301h80l-19 -303c-2 -26 -3 -46 -3 -60c2.66699 -35.333 17.667 -53 45 -53c12 0 22.667 3 32 9s16.666 12.167 21.999 18.5
s10.5 16.5 15.5 30.5s8 23.5 9 28.5s3.16699 14.5 6.5 28.5z" />
    <glyph glyph-name="afii10023" unicode="&#x401;" horiz-adv-x="509" 
d="M441 176l28 -5.00098l-26 -167c-55.333 -6.66699 -129.333 -10 -222 -10c-59.333 0 -96.166 1.5 -110.499 4.5s-21.5 12.167 -21.5 27.5c0 12.667 0.666992 36.167 2 70.5s2.33301 69.833 3 106.5l4 254c0.666992 16.667 1 44.667 1 84
c0 41.333 -4.66699 68.166 -14 80.499s-27 18.5 -53 18.5l1 33c112 9.33301 201.667 14 269 14c61.333 0 102.833 -2.33301 124.5 -7s32.5 -15.667 32.5 -33c0 -12.667 -5 -33 -15 -61s-20.667 -51 -32 -69l-30 -5c2.66699 18.667 4 37 4 55
c0 12.667 -0.666992 22.5 -2 29.5s-5 14.667 -11 23s-16.5 14.5 -31.5 18.5s-34.5 6 -58.5 6c-45.333 0 -74.333 -7.66699 -87 -23c-7.33301 -9.33301 -11.666 -35 -12.999 -77l-3 -173l189 5l-11 -59c-14.667 2.66699 -36.834 5.16699 -66.501 7.5s-55.5 3.83301 -77.5 4.5
l-34 1c0 -13.333 -0.666992 -48.666 -2 -105.999s-2 -93 -2 -107c0 -32.667 6.5 -54.167 19.5 -64.5s39.833 -15.5 80.5 -15.5c25.333 0 47.666 4.16699 66.999 12.5s35.333 20.833 48 37.5s22.167 30.834 28.5 42.501s13.5 27.167 21.5 46.5zM385 768.999
c0 -14 -5 -25.833 -15 -35.5s-22 -14.5 -36 -14.5s-26.167 4.83301 -36.5 14.5s-15.5 21.5 -15.5 35.5s5.16699 25.833 15.5 35.5s22.5 14.5 36.5 14.5s26 -4.83301 36 -14.5s15 -21.5 15 -35.5zM232 768.999c0 -14 -5.16699 -25.833 -15.5 -35.5s-22.5 -14.5 -36.5 -14.5
s-26 4.83301 -36 14.5s-15 21.5 -15 35.5s5 25.833 15 35.5s22 14.5 36 14.5s26.167 -4.83301 36.5 -14.5s15.5 -21.5 15.5 -35.5z" />
    <glyph glyph-name="afii10051" unicode="&#x402;" horiz-adv-x="663" 
d="M631 209c0 -67.333 -20.666 -120.334 -61.999 -159.001s-85 -58 -131 -58c-53.333 0 -80 14 -80 42c0 25.333 11.667 44.333 35 57l11 -7c4.66699 -33.333 22.667 -50 54 -50c56 0 84 51.333 84 154c0 58 -12.667 101.833 -38 131.5s-61.333 44.5 -108 44.5
c-47.333 0 -84 -11 -110 -33c-2.66699 -53.333 -4 -108.333 -4 -165c0 -43.333 1.16699 -74.166 3.5 -92.499s5.33301 -29.5 9 -33.5s11.167 -8.33301 22.5 -13v-27h-89c-13.333 -0 -22.166 3.83301 -26.499 11.5s-6.5 26.167 -6.5 55.5c0 11.333 1.16699 39.5 3.5 84.5
s3.5 70.167 3.5 75.5l8 262c2.66699 87.333 -0.333008 137 -9 149l-1 2c-3.33301 2 -13 3 -29 3c-34.667 0 -58.334 -8.33301 -71.001 -25c-11.333 -14 -19.5 -27 -24.5 -39s-10.5 -34.333 -16.5 -67l-29 -10c-5.33301 26 -8 56.333 -8 91c0.666992 34 4 61.333 10 82l12 9
c24.667 -0.666992 95.334 -1 212.001 -1c28 0 69.167 0.833008 123.5 2.5s86.166 2.5 95.499 2.5c14 0 25.333 -0.666992 34 -2s14.667 -4 18 -8s5.16602 -7.66699 5.49902 -11s0.5 -8.33301 0.5 -15c0 -40 -15.667 -86 -47 -138l-30 -5c4 21.333 6 46.666 6 75.999
c0 11.333 -2 20.833 -6 28.5s-8.83301 13.334 -14.5 17.001s-13.667 6.5 -24 8.5s-18.666 3.16699 -24.999 3.5s-15.5 0.5 -27.5 0.5h-78c4 -24 6 -61 6 -111c0 -7.33301 -0.5 -20.166 -1.5 -38.499s-2 -39.333 -3 -63s-1.83301 -41.834 -2.5 -54.501
c39.333 20 91.333 30 156 30c22.667 0 44.5 -3.33301 65.5 -10s41.167 -17.167 60.5 -31.5s34.666 -34.833 45.999 -61.5s17 -58 17 -94z" />
    <glyph glyph-name="afii10052" unicode="&#x403;" horiz-adv-x="456" 
d="M445 647c0 -12.667 -4.83105 -33.0029 -14.498 -61.0029s-19.834 -51 -30.501 -69l-30 -5c5.33301 42 4.66602 73 -2.00098 93c-4.66699 14.667 -13.5 24.834 -26.5 30.501s-37.167 8.5 -72.5 8.5c-16 0 -27.667 -0.333008 -35 -1s-14.833 -2.66699 -22.5 -6
s-13.5 -8.33301 -17.5 -15c-2 -3.33301 -3.66699 -8.66602 -5 -15.999s-2.33301 -18 -3 -32s-1.16699 -27.167 -1.5 -39.5l-1.5 -56.5c-0.666992 -25.333 -1.33398 -47 -2.00098 -65c-0.666992 -25.333 -1.83398 -56.666 -3.50098 -93.999s-3 -69.333 -4 -96
s-1.5 -45.667 -1.5 -57c0 -42 2.16699 -73 6.5 -93s9.5 -32.333 15.5 -37s16.333 -7.66699 31 -9v-27h-107c-13.333 -0 -22.166 3.83301 -26.499 11.5s-6.5 26.167 -6.5 55.5c0 8.66699 0.333008 24.334 1 47.001s1.66699 47 3 73s2 42 2 48l6 222
c2 77.333 -1.16699 127.166 -9.5 149.499s-27.166 33.5 -56.499 33.5l1 33c102.667 9.33301 187.667 14 255 14c60.667 0 102.167 -2.5 124.5 -7.5s33.5 -15.833 33.5 -32.5zM269.002 857.997l86 -14l-142 -129l-27 7z" />
    <glyph glyph-name="afii10053" unicode="&#x404;" horiz-adv-x="536" 
d="M492 125l10.9951 -31.0029c-2 -2.66699 -5.16699 -6.5 -9.5 -11.5s-13.5 -13.667 -27.5 -26s-28.833 -23.166 -44.5 -32.499s-35.834 -17.833 -60.501 -25.5s-49.667 -11.5 -75 -11.5c-71.333 0 -130.5 24.833 -177.5 74.5s-70.5 127.167 -70.5 232.5
c0 62.667 7.16699 118.167 21.5 166.5s32.333 86.333 54 114s46.834 50.334 75.501 68.001s55.334 29.5 80.001 35.5s49 9 73 9c52 0 88 -7.66699 108 -23s30 -32.333 30 -51c0 -10.667 -5.5 -25.834 -16.5 -45.501s-26.167 -39.167 -45.5 -58.5l-17 4c4 20 6 38.333 6 55
c0 29.333 -7.16699 49.333 -21.5 60s-35.166 16 -62.499 16c-21.333 0 -41.333 -3.66699 -60 -11s-37.334 -20.166 -56.001 -38.499s-34.167 -46.333 -46.5 -84s-19.833 -83.5 -22.5 -137.5l234 3l-10 -59c-32.667 6.66699 -107.667 10 -225 10v-7
c0 -180.667 59 -271 177 -271c10.667 0 21.334 0.833008 32.001 2.5s19.834 3.33398 27.501 5.00098s16.334 4.66699 26.001 9s17 7.5 22 9.5s12 6.16699 21 12.5l17.5 12.5c2.66699 2 8.33398 6.5 17.001 13.5s13.667 10.833 15 11.5z" />
    <glyph glyph-name="afii10054" unicode="&#x405;" horiz-adv-x="439" 
d="M411 196c0 -62 -21.6641 -112.002 -64.9971 -150.002s-101.333 -57 -174 -57c-38.667 0 -70.167 3.66699 -94.5 11s-40.333 15.333 -48 24s-11.5 18.334 -11.5 29.001c0 32 14.667 70.667 44 116l17 -7c6 -86.667 46.333 -130 121 -130c32 0 60.333 12 85 36
s37 59 37 105c0 16.667 -2.5 31.667 -7.5 45s-10.333 24.333 -16 33s-16.167 18.5 -31.5 29.5s-27.5 19 -36.5 24l-49.5 26.5c-3.33301 2 -6.33301 3.66699 -9 5l-8 4c-46.667 24 -77.334 43 -92.001 57c-32.667 30 -49 71.333 -49 124c0 19.333 3.16699 37.833 9.5 55.5
s17 35.334 32 53.001s37.667 31.667 68 42s66.833 15.5 109.5 15.5c38.667 0 70.167 -3.66699 94.5 -11s40.333 -15.333 48 -24s11.5 -18.334 11.5 -29.001c0 -26.667 -17.667 -64.334 -53 -113.001l-17 7c0 24 -2.33301 44.333 -7 61s-10.334 29.167 -17.001 37.5
s-15.667 14.833 -27 19.5s-20.833 7.33398 -28.5 8.00098s-17.834 1 -30.501 1c-32 0 -58.167 -9 -78.5 -27s-30.5 -43.333 -30.5 -76c0 -13.333 1.16699 -25.666 3.5 -36.999s6.5 -21.333 12.5 -30s11.5 -16 16.5 -22s12.667 -12 23 -18s18.666 -10.667 24.999 -14
s16 -8 29 -14l28.5 -13c49.333 -24 83 -43.333 101 -58c42.667 -36.667 64.334 -83 65.001 -139z" />
    <glyph glyph-name="afii10055" unicode="&#x406;" horiz-adv-x="256" 
d="M224 27l0.000976562 -27.0029h-105c-13.333 0 -22.166 3.83301 -26.499 11.5s-6.5 26.167 -6.5 55.5c0 20.667 1.33301 71 4 151l8 239c2.66699 80.667 1.16699 131.334 -4.5 152.001s-22.834 31 -51.501 31v33c47.333 12 87 18 119 18c18 0 27 -21 27 -63
c0 -15.333 -1.33301 -56.166 -4 -122.499s-4.33398 -118.5 -5.00098 -156.5l-3 -140l-2 -89c0 -30 3.66699 -52.667 11 -68s20.333 -23.666 39 -24.999z" />
    <glyph glyph-name="afii10056" unicode="&#x407;" horiz-adv-x="264" 
d="M225 769c0 -14 -5 -25.833 -15 -35.5s-22 -14.5 -36 -14.5s-26.167 4.83301 -36.5 14.5s-15.5 21.5 -15.5 35.5s5.16699 25.833 15.5 35.5s22.5 14.5 36.5 14.5s26 -4.83301 36 -14.5s15 -21.5 15 -35.5zM102 769c0 -14 -5.16699 -25.833 -15.5 -35.5
s-22.5 -14.5 -36.5 -14.5s-26 4.83301 -36 14.5s-15 21.5 -15 35.5s5 25.833 15 35.5s22 14.5 36 14.5s26.167 -4.83301 36.5 -14.5s15.5 -21.5 15.5 -35.5zM224 27l0.000976562 -27.0029h-105c-13.333 0 -22.166 3.83301 -26.499 11.5s-6.5 26.167 -6.5 55.5
c0 20.667 1.33301 71 4 151l8 239c2.66699 80.667 1.16699 131.334 -4.5 152.001s-22.834 31 -51.501 31v33c47.333 12 87 18 119 18c18 0 27 -21 27 -63c0 -15.333 -1.33301 -56.166 -4 -122.499s-4.33398 -118.5 -5.00098 -156.5l-3 -140l-2 -89
c0 -30 3.66699 -52.667 11 -68s20.333 -23.666 39 -24.999z" />
    <glyph glyph-name="afii10057" unicode="&#x408;" horiz-adv-x="256" 
d="M188 628c0 -8 -0.333984 -22.832 -1.00098 -44.499l-2.5 -82c-1 -33 -1.83301 -63.167 -2.5 -90.5l-3 -188c-0.666992 -27.333 -2.83398 -56.166 -6.50098 -86.499s-10.5 -63 -20.5 -98s-22.167 -66.167 -36.5 -93.5s-33.333 -50 -57 -68s-50.5 -27 -80.5 -27
c-31.333 0 -47 10.667 -47 32c0 7.33301 0.833008 13.833 2.5 19.5s4.16699 12.167 7.5 19.5s5.66602 12.666 6.99902 15.999l15 4c18.667 -23.333 36.334 -35 53.001 -35c48.667 0 73.667 49 75 147l4 246l3 158c2 86.667 -0.333008 138.667 -7 156
c-9.33301 17.333 -25.666 26.333 -48.999 27v33c47.333 12 87 18 119 18c10.667 0 17.834 -3.83301 21.501 -11.5s5.5 -24.834 5.5 -51.501z" />
    <glyph glyph-name="afii10058" unicode="&#x409;" horiz-adv-x="755" 
d="M754 175c0 -27.333 -4.83203 -52.0049 -14.499 -74.0049s-21.834 -39.5 -36.501 -52.5s-31.334 -23.833 -50.001 -32.5s-36.334 -14.5 -53.001 -17.5s-32.667 -4.5 -48 -4.5c-35.333 0 -67.666 3.83301 -96.999 11.5s-49.666 18.5 -60.999 32.5
c-4.66699 6 -9.66699 17 -15 33s-10 31.833 -14 47.5s-9.33301 38.334 -16 68.001s-12.334 53.5 -17.001 71.5l-63 255c-15.333 60.667 -26.333 96.334 -33 107.001h-9l-33 -121l-34.5 -125l-34.5 -123c-8 -28.667 -15.333 -58.5 -22 -89.5s-10 -53.5 -10 -67.5
c0 -34 12.333 -59.333 37 -76l-1 -23c-37.333 -1.33301 -65.666 -2 -84.999 -2c-10 0 -17.5 1.83301 -22.5 5.5s-8 8 -9 13s-1.5 11.833 -1.5 20.5c0 32.667 15.667 97 47 193l39 119c49.333 151.333 74 234.333 74 249c0 9.33301 -1.83301 16.833 -5.5 22.5
s-9.16699 9.83398 -16.5 12.501s-13.166 4.16699 -17.499 4.5l-19.5 1.5v28c76 16.667 128.333 25 157 25c20.667 0 34 -4.5 40 -13.5s14.333 -35.5 25 -79.5c3.33301 -11.333 5.66602 -20.333 6.99902 -27l72 -293c23.333 -96.667 38.666 -154 45.999 -172
c9.33301 -24 19.833 -41.167 31.5 -51.5s31.167 -15.5 58.5 -15.5c34.667 0 62.667 11.333 84 34s32 59.334 32 110.001c0 44.667 -16.167 82.834 -48.5 114.501s-75.166 47.5 -128.499 47.5c-13.333 0 -25.333 -0.5 -36 -1.5s-18 -2.16699 -22 -3.5l-7 -1l-6 38
c18.667 5.33301 40 8 64 8c92 0 160.5 -19.333 205.5 -58s67.5 -88 67.5 -148z" />
    <glyph glyph-name="afii10059" unicode="&#x40a;" horiz-adv-x="867" 
d="M839 224c0 -51.333 -13.666 -95.8271 -40.999 -133.494s-59.5 -64.667 -96.5 -81s-74.5 -24.5 -112.5 -24.5c-50.667 0 -94.667 5 -132 15c-18.667 5.33301 -28 26 -28 62c0 8.66699 0.333008 22.167 1 40.5s1.5 38.166 2.5 59.499s1.5 35 1.5 41l4 141l-258 3l-2 -76
c-1.33301 -116.667 0.333984 -186 5.00098 -208c3.33301 -19.333 10.333 -31.333 21 -36v-27h-87c-11.333 0 -18.833 4.33301 -22.5 13s-5.5 25 -5.5 49c0 29.333 1.33301 84 4 164l5 231c1.33301 77.333 -2 127.166 -10 149.499s-26.667 33.5 -56 33.5v33
c54 12 97 18 129 18c18 0 27 -21 27 -63c0 -56.667 -2.66699 -137.334 -8 -242.001l258 10v61c1.33301 77.333 -2 127.166 -10 149.499s-26.667 33.5 -56 33.5v33c54 12 97 18 129 18c18 0 27 -21 27 -63c0 -12.667 -0.5 -31.667 -1.5 -57s-2.16699 -56.833 -3.5 -94.5
s-2.33301 -67.834 -3 -90.501c-6.66699 -188.667 -10 -285.334 -10 -290.001c0 -23.333 6.5 -40.5 19.5 -51.5s36.167 -16.5 69.5 -16.5c49.333 0 86.833 18.667 112.5 56s38.5 80.333 38.5 129c0 96 -42.667 144 -128 144c-36.667 0 -65.334 -4.33301 -86.001 -13v38
c29.333 11.333 65.666 17 108.999 17c58 0 104.833 -14.167 140.5 -42.5s53.5 -72.5 53.5 -132.5z" />
    <glyph glyph-name="afii10060" unicode="&#x40b;" horiz-adv-x="668" 
d="M644 27v-27h-107c-13.333 -0 -22.166 3.83301 -26.499 11.5s-6.5 26.167 -6.5 55.5l3 136v48c0 46.667 -6.66699 79.334 -20 98.001s-38.333 28 -75 28c-48.667 0 -90.667 -15.333 -126 -46c-2.66699 -53.333 -4 -108.333 -4 -165c0 -43.333 1.66699 -74.166 5 -92.499
s7.33301 -29.5 12 -33.5s14.334 -8.33301 29.001 -13v-27h-100c-13.333 0 -22.166 3.83301 -26.499 11.5s-6.5 26.167 -6.5 55.5c0 11.333 1.16699 39.5 3.5 84.5s3.5 70.167 3.5 75.5l8 262c2.66699 87.333 -0.333008 137 -9 149l-1 2c-3.33301 2 -13 3 -29 3
c-34.667 0 -58.334 -8.33301 -71.001 -25c-11.333 -14 -19.5 -27 -24.5 -39s-10.5 -34.333 -16.5 -67l-29 -10c-5.33301 26 -8 56.333 -8 91c0.666992 34 4 61.333 10 82l12 9c24.667 -0.666992 95.334 -1 212.001 -1c28 0 69.167 0.833008 123.5 2.5s86.166 2.5 95.499 2.5
c14 0 25.333 -0.666992 34 -2s14.667 -4 18 -8s5.16602 -7.66699 5.49902 -11s0.5 -8.33301 0.5 -15c0 -40 -15.667 -86 -47 -138l-30 -5c4 21.333 6 46.666 6 75.999c0 11.333 -2 20.833 -6 28.5s-8.83301 13.334 -14.5 17.001s-13.667 6.5 -24 8.5
s-18.666 3.16699 -24.999 3.5s-15.5 0.5 -27.5 0.5h-78c4 -24 6 -61 6 -111c0 -7.33301 -0.333008 -18.5 -1 -33.5s-1.33398 -34 -2.00098 -57s-1.33398 -42.5 -2.00098 -58.5c26 12 56.167 22.667 90.5 32s60.5 14 78.5 14c14 0 25.5 -0.333008 34.5 -1
s20.5 -3.33398 34.5 -8.00098s25.333 -11.334 34 -20.001s16.167 -21.667 22.5 -39s9.5 -38.333 9.5 -63c0 -30 -0.666992 -59.667 -2 -89s-2 -48.333 -2 -57c0 -33.333 1.83301 -58.333 5.5 -75s9 -28 16 -34s18.5 -11.333 34.5 -16z" />
    <glyph glyph-name="afii10061" unicode="&#x40c;" horiz-adv-x="548" 
d="M551 32l-0.000976562 -27c-29.333 -6.66699 -56 -10 -80 -10c-15.333 0 -27.833 4.5 -37.5 13.5s-21.167 23.833 -34.5 44.5c-24 36 -53 82.333 -87 139c-31.333 49.333 -54.333 83 -69 101s-30 29 -46 33l-9 2l1 25c45.333 20 94.333 70.667 147 152
c26 39.333 39 76 39 110c0 6 -0.833008 11 -2.5 15s-4 7 -7 9s-5.66699 3.5 -8 4.5s-5.66602 2 -9.99902 3s-7.16602 1.83301 -8.49902 2.5v27c54 7.33301 89.333 11 106 11c6.66699 0 11.667 -0.166992 15 -0.5s6.33301 -1.66602 9 -3.99902s4 -5.83301 4 -10.5
c0 -12 -6.5 -31.167 -19.5 -57.5s-26.5 -50.166 -40.5 -71.499c-19.333 -30 -32.833 -50.5 -40.5 -61.5s-21 -28 -40 -51s-39.167 -44.167 -60.5 -63.5c23.333 -12 58.666 -52.667 105.999 -122c2 -3.33301 17 -27 45 -71s47 -72.667 57 -86
c10 -12.667 17.5 -21.834 22.5 -27.501s11.833 -11.334 20.5 -17.001s18 -9.5 28 -11.5zM203.999 27l-0.00195312 -26.999h-87c-11.333 0 -18.833 4.33301 -22.5 13s-5.5 25 -5.5 49c0 10 1.66699 65 5 165l4 230c2 86.667 -0.333008 138.667 -7 156
c-9.33301 17.333 -25.666 26.333 -48.999 27v33c47.333 12 87 18 119 18c10.667 0 17.834 -3.83301 21.501 -11.5s5.5 -24.834 5.5 -51.501c0 -14 -2 -86.333 -6 -217l-4 -140c-3.33301 -80 -3.5 -139 -0.5 -177s11.833 -60.333 26.5 -67zM328.997 858.001l86 -14l-142 -129
l-27 7z" />
    <glyph glyph-name="afii10062" unicode="&#x40e;" horiz-adv-x="528" 
d="M518 654c0 -26.667 -19.668 -88.668 -59.001 -186.001l-49 -120c-16 -40 -40.333 -97 -73 -171l-7 -15c-4 -10.667 -7.33301 -18.667 -10 -24l-13 -26.5c-6 -12.333 -11.333 -22.333 -16 -30l-17.5 -28c-7 -11 -13.833 -20 -20.5 -27s-14 -14 -22 -21
s-16.167 -12.167 -24.5 -15.5s-16.833 -5 -25.5 -5c-26.667 0 -40 13 -40 39c0 25.333 5.33301 52 16 80l13 2c8.66699 -11.333 16.334 -19.333 23.001 -24s16 -7 28 -7c10.667 0 19.667 5.5 27 16.5s11 27.833 11 50.5c0 5.33301 -1 12.5 -3 21.5s-5.33301 20.167 -10 33.5
s-9.33398 26 -14.001 38l-18.5 48.5l-19.5 51.5l-32 87c-21.333 57.333 -45.333 112 -72 164c-18 35.333 -42.667 53 -74 53v29c42 12.667 78 19 108 19c12 0 23.667 -10.5 35 -31.5s28.666 -63.5 51.999 -127.5l103 -288h9l46 114c14 36 27.667 77.167 41 123.5
s20 82.5 20 108.5c0 22 -3.16699 36.833 -9.5 44.5s-17.166 14.167 -32.499 19.5l1 23c44.667 9.33301 76.667 14 96 14c12.667 0 21.334 -2.16699 26.001 -6.5s7 -13.166 7 -26.499zM422.999 846.999l29.998 -10c-40 -82 -107.333 -123 -202 -123
c-64.667 0 -97 17.667 -97 53c0 14.667 5.33301 28.667 16 42s21.334 23 32.001 29l17 8c10.667 -26 23.334 -44.333 38.001 -55s35 -16 61 -16c40.667 0 75.667 24 105 72z" />
    <glyph glyph-name="afii10145" unicode="&#x40f;" horiz-adv-x="606" 
d="M576 24l0.00585938 -27.0029c-73.333 4.66699 -120 7 -140 7c-32.667 0 -56.334 -11.667 -71.001 -35s-26.667 -74.666 -36 -153.999l-32 -5c0 52.667 -3.5 93 -10.5 121s-16.167 46 -27.5 54s-27.333 12 -48 12c-26.667 0 -45.834 0.333008 -57.501 1
s-23.334 3.33398 -35.001 8.00098s-19.334 11.667 -23.001 21s-5.5 22.666 -5.5 39.999c0 27.333 0.666992 56.166 2 86.499s2 50.833 2 61.5l4 242c-1.33301 22.667 -1.16602 42.834 0.500977 60.501s1.33398 32.834 -0.999023 45.501s-3.33301 23.5 -3 32.5
s-1.5 16.333 -5.5 22s-6.66699 10 -8 13s-5 5.16699 -11 6.5s-10.833 2.16602 -14.5 2.49902s-9.83398 0.5 -18.501 0.5h-5v33c54 12 97 18 129 18c18 0 27 -21 27 -63c0 -42.667 -1 -85.667 -3 -129s-3 -71.666 -3 -84.999c-4.66699 -146 -7 -226 -7 -240
c0 -55.333 5.33301 -92.333 16 -111s37.334 -28 80.001 -28c28.667 0 86 4.66699 172 14c-6.66699 27.333 -9 88.666 -7 183.999l4 238c0 18 0.166992 33.333 0.5 46s0 24.834 -1 36.501s-1.33301 21.167 -1 28.5s-0.833984 14.333 -3.50098 21s-4 11.667 -4 15
s-2.5 6.5 -7.5 9.5s-7.66699 5 -8 6s-4.33301 2.16699 -12 3.5s-11.834 2 -12.501 2s-6.33398 0.333008 -17.001 1v33c54 12 97 18 129 18c11.333 0 18.666 -4.66699 21.999 -14s5 -25.666 5 -48.999c0 -42.667 -1 -85.667 -3 -129s-3 -71.666 -3 -84.999
c-4.66699 -150.667 -7 -233.334 -7 -248.001c0 -52 4.16699 -88 12.5 -108s23.833 -31.333 46.5 -34z" />
    <glyph glyph-name="afii10017" unicode="&#x410;" horiz-adv-x="545" 
d="M537 31l-1.00293 -32.9961c-40.667 -3.33301 -69.667 -5 -87 -5c-15.333 0 -26.666 4.5 -33.999 13.5s-15 27.833 -23 56.5c-0.666992 2 -15.667 65.667 -45 191l-210 2c-26 -82.667 -39 -139 -39 -169c0 -18 2 -31.333 6 -40s12 -17.334 24 -26.001l-1 -23
c-29.333 -3.33301 -53.666 -5 -72.999 -5c-14 0 -22.833 3.16699 -26.5 9.5s-5.5 16.166 -5.5 29.499c0 26 16.667 87.333 50 184l43 128c4.66699 14 12.667 36.667 24 68l27 75c6.66699 18.667 12.834 38.167 18.501 58.5s8.5 35.166 8.5 44.499
c0 5.33301 -0.5 10.166 -1.5 14.499s-2.83301 7.83301 -5.5 10.5s-5 4.66699 -7 6s-5.33301 2.5 -10 3.5s-7.83398 1.66699 -9.50098 2s-5.5 0.5 -11.5 0.5h-10v28c93.333 24 150 36 170 36c17.333 0 27.666 -6.66699 30.999 -20l34 -145l57 -252
c18.667 -84.667 32 -137 40 -157c10.667 -30 20.834 -51.667 30.501 -65s21.834 -20.333 36.501 -21zM150.997 296.004l188 -6l-49 223c-12 56.667 -22.667 94 -32 112h-9l-36 -126z" />
    <glyph glyph-name="afii10018" unicode="&#x411;" horiz-adv-x="536" 
d="M499 224c0 -39.333 -7.82715 -74.667 -23.4941 -106s-36.167 -56.5 -61.5 -75.5s-52.666 -33.333 -81.999 -43s-59 -14.5 -89 -14.5c-35.333 0 -65.833 1.5 -91.5 4.5s-44.167 7 -55.5 12s-17 10.167 -17 15.5c0 4 0.5 10 1.5 18l4 33.5
c1.66699 14.333 3.16699 28.833 4.5 43.5c6 73.333 9 142.666 9 207.999v137c0 34 -1 73.667 -3 119c-0.666992 8.66699 -1.83398 16.167 -3.50098 22.5s-3.33398 11.833 -5.00098 16.5s-4.33398 8.5 -8.00098 11.5l-8.5 7c-2 1.66699 -5.33301 3 -10 4
s-7.83398 1.66699 -9.50098 2s-5.16699 0.5 -10.5 0.5h-9l1 33c112.667 9.33301 202.667 14 270 14c60.667 0 102.167 -2.5 124.5 -7.5s33.166 -15.833 32.499 -32.5c0 -12.667 -5 -33 -15 -61s-20.667 -51 -32 -69l-30 -5c5.33301 43.333 5.33301 74.333 0 93
c-4.66699 14.667 -13.5 24.834 -26.5 30.501s-37.167 8.5 -72.5 8.5c-46 0 -75.333 -7.66699 -88 -23c-8.66699 -10 -13.334 -35.667 -14.001 -77c0 -8 -0.166992 -21 -0.5 -39s-0.666016 -40 -0.999023 -66s-0.5 -48 -0.5 -66l-1 -87c0 -26.667 -1 -70 -3 -130l-2 -76
c0 -18 5.33301 -31.167 16 -39.5s32.667 -12.5 66 -12.5c48 0 85.833 18.333 113.5 55s41.5 80 41.5 130c0 96 -42.667 144 -128 144c-36.667 0 -65.334 -4.33301 -86.001 -13v38c29.333 11.333 65.666 17 108.999 17c58 0 104.833 -14.167 140.5 -42.5
s53.5 -72.5 53.5 -132.5z" />
    <glyph glyph-name="afii10019" unicode="&#x412;" horiz-adv-x="539" 
d="M498 188c-0.666992 -33.333 -6.99707 -62.6631 -18.9971 -87.9961s-26.833 -45 -44.5 -59s-38.5 -25.5 -62.5 -34.5s-46.167 -14.833 -66.5 -17.5s-41.166 -4 -62.499 -4c-32.667 0 -68.167 3.5 -106.5 10.5s-57.5 14.167 -57.5 21.5c0 4.66699 1.16699 18.5 3.5 41.5
s3.83301 40.833 4.5 53.5c2.66699 42 4.66699 80 6 114l5 231c0.666992 16.667 1 44.667 1 84c0 41.333 -4.83301 68.166 -14.5 80.499s-27.5 18.5 -53.5 18.5l1 33c112.667 9.33301 202.667 14 270 14c21.333 0 40.666 -1.66699 57.999 -5s35.5 -9.66602 54.5 -18.999
s33.667 -24.333 44 -45s15.166 -46.334 14.499 -77.001c-0.666992 -46 -13.667 -83.333 -39 -112s-52 -48.334 -80 -59.001l-2 -7c45.333 -10.667 81.166 -28.334 107.499 -53.001s39.166 -65.334 38.499 -122.001zM385.003 525.003c0.666992 38 -7.83398 67.333 -25.501 88
s-43.167 31 -76.5 31c-28 0 -47.667 -1.5 -59 -4.5s-21 -9.16699 -29 -18.5c-10 -12 -14.667 -37.667 -14 -77l-2 -173l77 6c38 2 68.833 15.667 92.5 41s35.834 61 36.501 107zM409.002 188.003c1.33301 48 -8.83203 84.833 -30.499 110.5s-59.167 38.5 -112.5 38.5
c-10.667 0 -23.334 -0.833008 -38.001 -2.5s-26.667 -3.5 -36 -5.5l-14 -3l-3 -108c-2 -61.333 -3 -107.333 -3 -138c0 -18.667 5.33301 -32 16 -40s33 -12 67 -12c100.667 0 152 53.333 154 160z" />
    <glyph glyph-name="afii10020" unicode="&#x413;" horiz-adv-x="456" 
d="M445 647c0 -12.667 -4.83105 -33.0029 -14.498 -61.0029s-19.834 -51 -30.501 -69l-30 -5c5.33301 42 4.66602 73 -2.00098 93c-4.66699 14.667 -13.5 24.834 -26.5 30.501s-37.167 8.5 -72.5 8.5c-16 0 -27.667 -0.333008 -35 -1s-14.833 -2.66699 -22.5 -6
s-13.5 -8.33301 -17.5 -15c-2 -3.33301 -3.66699 -8.66602 -5 -15.999s-2.33301 -18 -3 -32s-1.16699 -27.167 -1.5 -39.5l-1.5 -56.5c-0.666992 -25.333 -1.33398 -47 -2.00098 -65c-0.666992 -25.333 -1.83398 -56.666 -3.50098 -93.999s-3 -69.333 -4 -96
s-1.5 -45.667 -1.5 -57c0 -42 2.16699 -73 6.5 -93s9.5 -32.333 15.5 -37s16.333 -7.66699 31 -9v-27h-107c-13.333 -0 -22.166 3.83301 -26.499 11.5s-6.5 26.167 -6.5 55.5c0 8.66699 0.333008 24.334 1 47.001s1.66699 47 3 73s2 42 2 48l6 222
c2 77.333 -1.16699 127.166 -9.5 149.499s-27.166 33.5 -56.499 33.5l1 33c102.667 9.33301 187.667 14 255 14c60.667 0 102.167 -2.5 124.5 -7.5s33.5 -15.833 33.5 -32.5z" />
    <glyph glyph-name="afii10021" unicode="&#x414;" horiz-adv-x="597" 
d="M589 40c-2 -40 -9.83301 -81.835 -23.5 -125.502s-26.834 -78.167 -39.501 -103.5l-27 -2c11.333 55.333 17 96.666 17 123.999c0 10.667 -0.5 19 -1.5 25s-3.5 12.333 -7.5 19s-11 11.5 -21 14.5s-23 4.5 -39 4.5c-138.667 0 -221 -0.333008 -247 -1
c-46.667 -1.33301 -77.5 -3.83301 -92.5 -7.5s-28.167 -15.167 -39.5 -34.5c-5.33301 -9.33301 -9.83301 -24 -13.5 -44s-5.83398 -37.667 -6.50098 -53l-1 -22l-26 -11c-4 38 -7.33301 78.333 -10 121c-2.66699 40.667 -4 70 -4 88c26.667 3.33301 45.667 11.333 57 24
c18.667 22.667 40.334 76.334 65.001 161.001l40 139c38 133.333 57 211.333 57 234c0 5.33301 -0.5 10.166 -1.5 14.499s-2.83301 7.83301 -5.5 10.5s-5 4.66699 -7 6s-5.33301 2.5 -10 3.5s-7.83398 1.66699 -9.50098 2s-5.5 0.5 -11.5 0.5h-10v28
c93.333 24 150 36 170 36c18.667 0 30 -8 34 -24c8 -29.333 18.667 -79.666 32 -150.999c14.667 -79.333 31.667 -157.666 51 -234.999c18.667 -74 34.334 -127.667 47.001 -161c6.66699 -18 12.667 -31.667 18 -41s9.5 -15.666 12.5 -18.999s7.83301 -7.33301 14.5 -12
c3.33301 -2.66699 8.33301 -4.66699 15 -6s12.334 -2 17.001 -2h7zM443 45.998c-16.667 30.667 -37 94.668 -61 192.001c-8 32.667 -18.333 79.834 -31 141.501l-28 133.5c-14 63.333 -24.667 100.666 -32 111.999h-9l-26 -109c-6.66699 -28 -16.834 -68.167 -30.501 -120.5
l-25.5 -96.5c-5.33301 -20.667 -13.5 -50.667 -24.5 -90s-19 -69.333 -24 -90s-7.5 -35.334 -7.5 -44.001c0 -8 2.33301 -14.167 7 -18.5s12.834 -7.5 24.501 -9.5s22.167 -3.16699 31.5 -3.5s24 -0.5 44 -0.5z" />
    <glyph glyph-name="afii10022" unicode="&#x415;" horiz-adv-x="509" 
d="M441 176l28 -5.00098l-26 -167c-55.333 -6.66699 -129.333 -10 -222 -10c-59.333 0 -96.166 1.5 -110.499 4.5s-21.5 12.167 -21.5 27.5c0 12.667 0.666992 36.167 2 70.5s2.33301 69.833 3 106.5l4 254c0.666992 16.667 1 44.667 1 84
c0 41.333 -4.66699 68.166 -14 80.499s-27 18.5 -53 18.5l1 33c112 9.33301 201.667 14 269 14c61.333 0 102.833 -2.33301 124.5 -7s32.5 -15.667 32.5 -33c0 -12.667 -5 -33 -15 -61s-20.667 -51 -32 -69l-30 -5c2.66699 18.667 4 37 4 55
c0 12.667 -0.666992 22.5 -2 29.5s-5 14.667 -11 23s-16.5 14.5 -31.5 18.5s-34.5 6 -58.5 6c-45.333 0 -74.333 -7.66699 -87 -23c-7.33301 -9.33301 -11.666 -35 -12.999 -77l-3 -173l189 5l-11 -59c-14.667 2.66699 -36.834 5.16699 -66.501 7.5s-55.5 3.83301 -77.5 4.5
l-34 1c0 -13.333 -0.666992 -48.666 -2 -105.999s-2 -93 -2 -107c0 -32.667 6.5 -54.167 19.5 -64.5s39.833 -15.5 80.5 -15.5c25.333 0 47.666 4.16699 66.999 12.5s35.333 20.833 48 37.5s22.167 30.834 28.5 42.501s13.5 27.167 21.5 46.5z" />
    <glyph glyph-name="afii10024" unicode="&#x416;" horiz-adv-x="814" 
d="M790 32l0.000976562 -27.0049c-28 -6.66699 -54 -10 -78 -10c-15.333 0 -27.833 4.5 -37.5 13.5s-21.167 23.833 -34.5 44.5c-7.33301 10.667 -21.5 34.5 -42.5 71.5s-31.833 56.167 -32.5 57.5c-26.667 45.333 -48.334 79.333 -65.001 102s-33.334 39 -50.001 49v20
c43.333 19.333 91.666 70 144.999 152c27.333 42.667 41 79.334 41 110.001c0 6 -0.833008 11 -2.5 15s-4 7 -7 9s-5.66699 3.5 -8 4.5s-5.66602 2 -9.99902 3s-7.16602 1.83301 -8.49902 2.5v27c54 7.33301 89.333 11 106 11c6.66699 0 11.667 -0.166992 15 -0.5
s6.33301 -1.66602 9 -3.99902s4 -5.83301 4 -10.5c0 -12 -6.33301 -31.5 -19 -58.5s-25.334 -50.5 -38.001 -70.5c-47.333 -73.333 -95.666 -133 -144.999 -179c17.333 -18 31.166 -34.167 41.499 -48.5s29.833 -45.166 58.5 -92.499
c50.667 -83.333 78.667 -128.333 84 -135c13.333 -17.333 25.333 -30.166 36 -38.499s23.334 -14.166 38.001 -17.499zM462.001 26.9951l-0.000976562 -26.999h-87c-11.333 0 -18.833 4.33301 -22.5 13s-5.5 25 -5.5 49c0 10 1.66699 65 5 165l4 230
c2 86.667 0.333008 138 -5 154c-10.667 18 -27 27.667 -49 29l1 33c45.333 12 84 18 116 18c10.667 0 17.834 -3.83301 21.501 -11.5s5.5 -24.834 5.5 -51.501c0 -14 -2 -86.333 -6 -217l-4 -140c-3.33301 -80 -3.5 -139 -0.5 -177s11.833 -60.333 26.5 -67zM342 351.996
l-2.00098 -17c-12 -11.333 -26 -29 -42 -53c-17.333 -26 -43.166 -67.667 -77.499 -125s-52.833 -88 -55.5 -92c-16.667 -26.667 -32.5 -46.334 -47.5 -59.001s-32.833 -19 -53.5 -19c-8.66699 0 -18.5 1.83301 -29.5 5.5s-19.833 7.5 -26.5 11.5l-10 5l4 23
c24 -0.666992 56.333 28.333 97 87c7.33301 10 16.333 23.5 27 40.5l38 59.5l34 53c8 12 31 42.667 69 92c-14 10.667 -29.167 26.834 -45.5 48.501s-37.5 52 -63.5 91l-49 73.5c-18.667 27.333 -34.667 46 -48 56s-28.666 15.333 -45.999 16v26c34 10.667 61.667 16 83 16
c14.667 0 26.5 -5 35.5 -15s22.167 -33 39.5 -69l41 -85c8 -16 20.167 -37.167 36.5 -63.5s32.5 -49.166 48.5 -68.499c17.333 -20.667 31.666 -33.334 42.999 -38.001z" />
    <glyph glyph-name="afii10025" unicode="&#x417;" horiz-adv-x="469" 
d="M433 210c0 -63.333 -25.8359 -116.333 -77.5029 -159s-117.5 -64 -197.5 -64c-43.333 0 -77 8.16699 -101 24.5s-36 36.166 -36 59.499c0 30 19 56.333 57 79l12 -5c0 -42.667 11.167 -72.5 33.5 -89.5s48.5 -25.5 78.5 -25.5c14.667 0 29.334 2.83301 44.001 8.5
s29.334 14.5 44.001 26.5s26.5 30 35.5 54s13.5 52.333 13.5 85c0 45.333 -11.167 77.666 -33.5 96.999s-60.166 29 -113.499 29l-68 -4l7 42l41 2c40 2 73.667 18.333 101 49s41 68.334 41 113.001c0 33.333 -8.66699 60.333 -26 81s-45.333 31 -84 31
c-46.667 0 -81.667 -24 -105 -72c-5.33301 -11.333 -12 -29 -20 -53l-5 -13l-30 -7c0 74 4 127 12 159l12 9c40 13.333 87.333 20 142 20c69.333 0 118.833 -10 148.5 -30s44.5 -53.333 44.5 -100c0 -44 -13.667 -82.167 -41 -114.5s-58.333 -58.166 -93 -77.499v-7
c58 -6 99.833 -21.333 125.5 -46s38.5 -58.667 38.5 -102z" />
    <glyph glyph-name="afii10026" unicode="&#x418;" horiz-adv-x="612" 
d="M591 27l-0.00292969 -26.999h-110c-11.333 0 -19.166 4.5 -23.499 13.5s-6.5 25.167 -6.5 48.5c0 9.33301 0.5 59.666 1.5 150.999s1.5 142 1.5 152l-2 191l-160 -333c-46.667 -96 -84.667 -164 -114 -204c-9.33301 -7.33301 -22.5 -14 -39.5 -20s-29.833 -9 -38.5 -9
l-12 7c0.666992 16.667 1.83398 58.167 3.50098 124.5s2.5 101.5 2.5 105.5l4 230c1.33301 77.333 -2 127.166 -10 149.499s-26.667 33.5 -56 33.5l1 33c53.333 12 96 18 128 18c18 0 27 -21 27 -63c0 -56.667 -2.66699 -137.334 -8 -242.001l-8 -293h2
c57.333 100 100.666 182 129.999 246c88.667 191.333 138.667 295.333 150 312c8.66699 12.667 18.834 21.834 30.501 27.501s28.5 9.83398 50.5 12.501l7 -4c-3.33301 -61.333 -5 -111.333 -5 -150v-371c0 -19.333 0.166992 -33.166 0.5 -41.499s1.33301 -19.5 3 -33.5
s4.33398 -24.333 8.00098 -31s9 -13.334 16 -20.001s15.833 -11 26.5 -13z" />
    <glyph glyph-name="afii10027" unicode="&#x419;" horiz-adv-x="612" 
d="M591 27l-0.00292969 -26.999h-110c-11.333 0 -19.166 4.5 -23.499 13.5s-6.5 25.167 -6.5 48.5c0 9.33301 0.5 59.666 1.5 150.999s1.5 142 1.5 152l-2 191l-160 -333c-46.667 -96 -84.667 -164 -114 -204c-9.33301 -7.33301 -22.5 -14 -39.5 -20s-29.833 -9 -38.5 -9
l-12 7c0.666992 16.667 1.83398 58.167 3.50098 124.5s2.5 101.5 2.5 105.5l4 230c1.33301 77.333 -2 127.166 -10 149.499s-26.667 33.5 -56 33.5l1 33c53.333 12 96 18 128 18c18 0 27 -21 27 -63c0 -56.667 -2.66699 -137.334 -8 -242.001l-8 -293h2
c57.333 100 100.666 182 129.999 246c88.667 191.333 138.667 295.333 150 312c8.66699 12.667 18.834 21.834 30.501 27.501s28.5 9.83398 50.5 12.501l7 -4c-3.33301 -61.333 -5 -111.333 -5 -150v-371c0 -19.333 0.166992 -33.166 0.5 -41.499s1.33301 -19.5 3 -33.5
s4.33398 -24.333 8.00098 -31s9 -13.334 16 -20.001s15.833 -11 26.5 -13zM472.997 847.001l29.998 -10c-40 -82 -107.333 -123 -202 -123c-64.667 0 -97 17.667 -97 53c0 14.667 5.33301 28.667 16 42s21.334 23 32.001 29l17 8c10.667 -26 23.334 -44.333 38.001 -55
s35 -16 61 -16c40.667 0 75.667 24 105 72z" />
    <glyph glyph-name="afii10028" unicode="&#x41a;" horiz-adv-x="548" 
d="M551 32l-0.000976562 -27c-29.333 -6.66699 -56 -10 -80 -10c-15.333 0 -27.833 4.5 -37.5 13.5s-21.167 23.833 -34.5 44.5c-24 36 -53 82.333 -87 139c-31.333 49.333 -54.333 83 -69 101s-30 29 -46 33l-9 2l1 25c45.333 20 94.333 70.667 147 152
c26 39.333 39 76 39 110c0 6 -0.833008 11 -2.5 15s-4 7 -7 9s-5.66699 3.5 -8 4.5s-5.66602 2 -9.99902 3s-7.16602 1.83301 -8.49902 2.5v27c54 7.33301 89.333 11 106 11c6.66699 0 11.667 -0.166992 15 -0.5s6.33301 -1.66602 9 -3.99902s4 -5.83301 4 -10.5
c0 -12 -6.5 -31.167 -19.5 -57.5s-26.5 -50.166 -40.5 -71.499c-19.333 -30 -32.833 -50.5 -40.5 -61.5s-21 -28 -40 -51s-39.167 -44.167 -60.5 -63.5c23.333 -12 58.666 -52.667 105.999 -122c2 -3.33301 17 -27 45 -71s47 -72.667 57 -86
c10 -12.667 17.5 -21.834 22.5 -27.501s11.833 -11.334 20.5 -17.001s18 -9.5 28 -11.5zM203.999 27l-0.00195312 -26.999h-87c-11.333 0 -18.833 4.33301 -22.5 13s-5.5 25 -5.5 49c0 10 1.66699 65 5 165l4 230c2 86.667 -0.333008 138.667 -7 156
c-9.33301 17.333 -25.666 26.333 -48.999 27v33c47.333 12 87 18 119 18c10.667 0 17.834 -3.83301 21.501 -11.5s5.5 -24.834 5.5 -51.501c0 -14 -2 -86.333 -6 -217l-4 -140c-3.33301 -80 -3.5 -139 -0.5 -177s11.833 -60.333 26.5 -67z" />
    <glyph glyph-name="afii10029" unicode="&#x41b;" horiz-adv-x="548" 
d="M541 31l-0.00195312 -32.998c-40.667 -3.33301 -69.667 -5 -87 -5c-15.333 0 -26.666 4.5 -33.999 13.5s-15.333 27.833 -24 56.5c-4 12.667 -8.33301 28.5 -13 47.5l-17.5 72.5l-18.5 75l-63 255c-18 70.667 -28 108 -30 112h-9l-36 -126
c-67.333 -224.667 -101 -359.667 -101 -405c0 -34 12.333 -59.333 37 -76l-1 -23c-37.333 -1.33301 -65.666 -2 -84.999 -2c-10 0 -17.5 1.83301 -22.5 5.5s-8 8 -9 13s-1.5 11.833 -1.5 20.5c0 30 15.667 94.333 47 193l38 119c4.66699 14 12.667 36.667 24 68l27 75
c6.66699 18.667 12.834 38.167 18.501 58.5s8.5 35.166 8.5 44.499c0 5.33301 -0.5 10.166 -1.5 14.499s-2.83301 7.83301 -5.5 10.5s-5 4.66699 -7 6s-5.33301 2.5 -10 3.5s-7.83398 1.66699 -9.50098 2s-5.5 0.5 -11.5 0.5h-10v28c93.333 24 150 36 170 36
c17.333 0 27.666 -6.66699 30.999 -20c1.33301 -5.33301 5.83301 -25.5 13.5 -60.5s14.834 -66.167 21.501 -93.5l60 -243c20.667 -82.667 35 -134 43 -154c12 -30.667 22.667 -53 32 -67s21.333 -21.333 36 -22z" />
    <glyph glyph-name="afii10030" unicode="&#x41c;" horiz-adv-x="772" 
d="M741 26v-26.998c-34 -4 -59.667 -6 -77 -6c-18.667 0 -31 3.83301 -37 11.5s-11 26.834 -15 57.501c-3.33301 26 -12 151.333 -26 376l-10 159c-29.333 -92 -55.333 -168.667 -78 -230c-43.333 -118.667 -74.333 -194 -93 -226c-17.333 -28.667 -32.666 -43 -45.999 -43
c-28 0 -57 61 -87 183l-79 326l-23 -92c-14 -56 -25.833 -119.333 -35.5 -190s-14.5 -125.667 -14.5 -165s3 -70.333 9 -93s19.333 -35 40 -37l1 -23c-38 -9.33301 -65 -14 -81 -14c-14.667 0 -25.167 3.33301 -31.5 10s-9.5 18.334 -9.5 35.001
c0 48.667 8.33301 118 25 208c10.667 57.333 19.667 103.333 27 138c26 128.667 39 204 39 226c0 7.33301 -1.16699 13.166 -3.5 17.499s-6 7.5 -11 9.5s-9.33301 3.16699 -13 3.5s-9.16699 0.5 -16.5 0.5h-14l-3 27c54.667 14 98.667 21 132 21
c18 0 31.167 -1.33301 39.5 -4s13.5 -8.33398 15.5 -17.001c4.66699 -18.667 20.334 -89.334 47.001 -212.001c34.667 -162 59 -243 73 -243c7.33301 0 16.166 11.333 26.499 34s30.166 73.667 59.499 153c34 91.333 59.333 174 76 248c28 21.333 60.667 34.666 98 39.999
l11 -4c0.666992 -46.667 6.66699 -158 18 -334c6.66699 -106.667 14.667 -191 24 -253c3.33301 -24 7.83301 -41.667 13.5 -53s15.5 -17.333 29.5 -18z" />
    <glyph glyph-name="afii10031" unicode="&#x41d;" horiz-adv-x="596" 
d="M564 27l-0.000976562 -27h-107c-11.333 -0 -18.833 4.33301 -22.5 13s-5.5 25 -5.5 49c0 9.33301 0.833008 32.666 2.5 69.999s2.5 61 2.5 71l4 141l-258 3l-2 -76c0 -12 -0.5 -34.833 -1.5 -68.5s-1.5 -56.5 -1.5 -68.5c0 -41.333 2.83301 -68.333 8.5 -81
s15.834 -21.334 30.501 -26.001v-27h-97c-11.333 0 -18.833 4.33301 -22.5 13s-5.5 25 -5.5 49c0 29.333 1.33301 84 4 164l5 231c0.666992 16.667 1 44.667 1 84c0 41.333 -4.66699 68.166 -14 80.499s-27 18.5 -53 18.5l1 33c53.333 12 96 18 128 18c18 0 27 -21 27 -63
c0 -30 -1.16699 -73 -3.5 -129s-3.83301 -93.667 -4.5 -113l258 10v61c0 86.667 -2.66699 138.834 -8 156.501s-24.666 26.5 -57.999 26.5l1 33c53.333 12 96 18 128 18c18 0 27 -21 27 -63c0 -15.333 -1.33301 -56.166 -4 -122.499s-4.33398 -118.5 -5.00098 -156.5
l-3 -140l-2 -89c0 -30 3.66699 -52.667 11 -68s20.333 -23.666 39 -24.999z" />
    <glyph glyph-name="afii10032" unicode="&#x41e;" horiz-adv-x="627" 
d="M588 358c0 -57.333 -6.83008 -108.667 -20.4971 -154s-30.834 -81.166 -51.501 -107.499s-44.167 -48.166 -70.5 -65.499s-50.833 -29 -73.5 -35s-44.334 -9 -65.001 -9c-75.333 0 -138 28.667 -188 86s-75 141.666 -75 252.999c0 59.333 6.83301 111.833 20.5 157.5
s30.5 81.5 50.5 107.5s43.5 47.167 70.5 63.5s52.167 27.166 75.5 32.499s46.666 8 69.999 8c76.667 0 138.667 -28.167 186 -84.5s71 -140.5 71 -252.5zM497.003 353.999c0 198.667 -58.6689 298.002 -176.002 298.002c-124 0 -186 -107.333 -186 -322
c0 -98.667 16 -173.334 48 -224.001s76.667 -76 134 -76c20 0 39.333 4.5 58 13.5s37.834 24.5 57.501 46.5s35.334 55.667 47.001 101s17.5 99.666 17.5 162.999z" />
    <glyph glyph-name="afii10033" unicode="&#x41f;" horiz-adv-x="605" 
d="M571 27l-0.00390625 -26.998h-107c-11.333 0 -18.833 4.33301 -22.5 13s-5.5 25 -5.5 49c0 2 1.66699 53 5 153c4.66699 146 7 226.667 7 242c0 73.333 -2.66699 118.333 -8 135c-7.33301 24.667 -26.666 40 -57.999 46c-15.333 2.66699 -36.666 4 -63.999 4
c-25.333 0 -49.5 -0.666992 -72.5 -2s-39.5 -2.66602 -49.5 -3.99902l-16 -3c3.33301 -18.667 5 -63.667 5 -135c0 -12.667 -2.33301 -88.334 -7 -227.001c-2 -53.333 -3 -99 -3 -137c0 -40 2.83301 -66.667 8.5 -80s15.834 -22.333 30.501 -27v-27h-97
c-11.333 0 -18.833 4.33301 -22.5 13s-5.5 25 -5.5 49c0 29.333 1.33301 84 4 164l7 231c2 77.333 -1.16699 127.166 -9.5 149.499s-27.166 33.5 -56.499 33.5l1 33c106 9.33301 194 14 264 14c118.667 0 186.334 -5.66699 203.001 -17
c10 -6.66699 17.5 -18.334 22.5 -35.001s7.5 -47 7.5 -91c0 -16.667 -1.33301 -67.667 -4 -153l-6 -225c-1.33301 -51.333 1.16699 -86.833 7.5 -106.5s20.166 -30.5 41.499 -32.5z" />
    <glyph glyph-name="afii10034" unicode="&#x420;" horiz-adv-x="491" 
d="M475 532c0 -114.667 -70.667 -183.999 -212 -207.999c-12.667 -2 -33 -4 -61 -6v39c8 -0.666992 26.667 1 56 5c33.333 5.33301 63.166 20.166 89.499 44.499s39.5 60.833 39.5 109.5c0 41.333 -9.83301 73 -29.5 95s-46.5 33 -80.5 33c-24.667 0 -42.5 -1.5 -53.5 -4.5
s-20.5 -9.16699 -28.5 -18.5c-6.66699 -7.33301 -11 -48.333 -13 -123c-6.66699 -213.333 -10 -324 -10 -332c0 -42 2.16699 -73 6.5 -93s9.5 -32.333 15.5 -37s16.333 -7.66699 31 -9v-27h-107c-13.333 -0 -22.166 3.83301 -26.499 11.5s-6.5 26.167 -6.5 55.5
c0 8.66699 0.333008 24.334 1 47.001s1.66699 47 3 73s2 42 2 48l6 222c2 77.333 -1.16699 127.166 -9.5 149.499s-27.166 33.5 -56.499 33.5l1 33c99.333 9.33301 182.666 14 249.999 14c18 0 35.167 -1.16699 51.5 -3.5s33.5 -6.83301 51.5 -13.5s33.333 -15.5 46 -26.5
s23.167 -26 31.5 -45s12.5 -41.167 12.5 -66.5z" />
    <glyph glyph-name="afii10035" unicode="&#x421;" horiz-adv-x="531" 
d="M492 125l10.999 -31c-2 -2.66699 -5.16699 -6.5 -9.5 -11.5s-13.5 -13.667 -27.5 -26s-28.833 -23.166 -44.5 -32.499s-35.834 -17.833 -60.501 -25.5s-49.667 -11.5 -75 -11.5c-70.667 0 -129 26 -175 78s-69 132.333 -69 241c0 118.667 30 213 90 283
c28.667 33.333 61.834 58 99.501 74s74.5 24 110.5 24c52 0 88 -7.66699 108 -23s30 -32.333 30 -51c0 -10.667 -5.5 -25.834 -16.5 -45.501s-26.167 -39.167 -45.5 -58.5l-17 4c4 20 6 38.333 6 55c0 29.333 -7.16699 49.333 -21.5 60s-35.166 16 -62.499 16
c-53.333 0 -98.5 -26.5 -135.5 -79.5s-55.5 -131.167 -55.5 -234.5c0 -96 17.333 -167.167 52 -213.5s77.667 -69.5 129 -69.5c64 0 123.667 26 179 78z" />
    <glyph glyph-name="afii10036" unicode="&#x422;" horiz-adv-x="548" 
d="M533 652c0 -15.333 -4.33594 -36.498 -13.0029 -63.498s-20 -51.833 -34 -74.5l-30 -5c4 21.333 6 46.666 6 75.999c0 11.333 -2 20.833 -6 28.5s-8.83301 13.334 -14.5 17.001s-13.667 6.5 -24 8.5s-18.666 3.16699 -24.999 3.5s-15.5 0.5 -27.5 0.5h-58
c4 -24 6 -61 6 -111c0 -12 -1.16699 -45.333 -3.5 -100s-3.83301 -96 -4.5 -124c-2 -92 -3 -139.333 -3 -142c0 -42 2.16699 -73 6.5 -93s9.5 -32.333 15.5 -37s16.333 -7.66699 31 -9v-27h-110c-13.333 0 -22.166 3.83301 -26.499 11.5s-6.5 26.167 -6.5 55.5
c0 11.333 1.16699 39.5 3.5 84.5s3.5 70.167 3.5 75.5l9 262c0 4 0.166992 16.333 0.5 37s0.5 33.667 0.5 39c0 16 -0.333008 27.167 -1 33.5s-2.66699 13.833 -6 22.5s-9.33301 14.5 -18 17.5s-20.334 4.5 -35.001 4.5c-33.333 0 -57 -8.33301 -71 -25
c-7.33301 -9.33301 -12.666 -16.833 -15.999 -22.5s-7.33301 -15.334 -12 -29.001s-9 -31.834 -13 -54.501l-29 -10c-5.33301 26 -8 56.333 -8 91c0 30 3.33301 57.333 10 82l12 9c39.333 -0.666992 117.333 -1 234 -1c28 0 65.833 0.833008 113.5 2.5s76.167 2.5 85.5 2.5
c18.667 0 32.334 -1.66699 41.001 -5s13.667 -7 15 -11s2 -10.667 2 -20z" />
    <glyph glyph-name="afii10037" unicode="&#x423;" horiz-adv-x="528" 
d="M518 654c0 -26.667 -19.668 -88.668 -59.001 -186.001l-49 -120c-16 -40 -40.333 -97 -73 -171l-7 -15c-4 -10.667 -7.33301 -18.667 -10 -24l-13 -26.5c-6 -12.333 -11.333 -22.333 -16 -30l-17.5 -28c-7 -11 -13.833 -20 -20.5 -27s-14 -14 -22 -21
s-16.167 -12.167 -24.5 -15.5s-16.833 -5 -25.5 -5c-26.667 0 -40 13 -40 39c0 25.333 5.33301 52 16 80l13 2c8.66699 -11.333 16.334 -19.333 23.001 -24s16 -7 28 -7c10.667 0 19.667 5.5 27 16.5s11 27.833 11 50.5c0 5.33301 -1 12.5 -3 21.5s-5.33301 20.167 -10 33.5
s-9.33398 26 -14.001 38l-18.5 48.5l-19.5 51.5l-32 87c-21.333 57.333 -45.333 112 -72 164c-18 35.333 -42.667 53 -74 53v29c42 12.667 78 19 108 19c12 0 23.667 -10.5 35 -31.5s28.666 -63.5 51.999 -127.5l103 -288h9l46 114c14 36 27.667 77.167 41 123.5
s20 82.5 20 108.5c0 22 -3.16699 36.833 -9.5 44.5s-17.166 14.167 -32.499 19.5l1 23c44.667 9.33301 76.667 14 96 14c12.667 0 21.334 -2.16699 26.001 -6.5s7 -13.166 7 -26.499z" />
    <glyph glyph-name="afii10038" unicode="&#x424;" horiz-adv-x="704" 
d="M668 363c0 -76 -28.001 -140.002 -84.001 -192.002s-118.667 -79 -188 -81l-1 -87c0 -16 -8.66699 -29 -26 -39s-37 -15 -59 -15c4.66699 42.667 7.33398 89.334 8.00098 140.001c-28 0 -56.5 4.16699 -85.5 12.5s-57.833 21.166 -86.5 38.499s-52.167 42.5 -70.5 75.5
s-27.5 71.167 -27.5 114.5c0 42 8.16699 79.833 24.5 113.5s38 60.667 65 81s56 36 87 47s63.167 17.833 96.5 20.5c0.666992 45.333 -3.33301 74.333 -12 87s-28 19 -58 19l3 33c48.667 12 89 18 121 18c17.333 0 26 -21 26 -63c0 -39.333 -0.666992 -70.666 -2 -93.999
c33.333 0 64.333 -3.16699 93 -9.5s57 -17.166 85 -32.499s50.167 -39 66.5 -71s24.5 -70.667 24.5 -116zM582.999 364.998c0 68 -17.833 117 -53.5 147s-79.167 45 -130.5 45l-4 -431c46.667 0 89.667 20.667 129 62s59 100.333 59 177zM316.999 125.998l4 431.001
c-23.333 -2.66699 -45 -7.83398 -65 -15.501s-39.833 -19.5 -59.5 -35.5s-35.167 -39 -46.5 -69s-17 -65.667 -17 -107c0 -66 18.333 -116.5 55 -151.5s79.667 -52.5 129 -52.5z" />
    <glyph glyph-name="afii10039" unicode="&#x425;" horiz-adv-x="514" 
d="M492 31l-1 -32.998c-40.667 -3.33301 -69.667 -5 -87 -5c-15.333 0 -27.166 4.5 -35.499 13.5s-19.166 27.167 -32.499 54.5c-6 12.667 -21.833 50.667 -47.5 114s-42.834 104 -51.501 122c-28.667 -41.333 -54.667 -84.166 -78 -128.499s-35 -77.833 -35 -100.5
c0 -6.66699 0.333008 -12 1 -16s3.16699 -8.16699 7.5 -12.5l7.5 -7.5c0.666992 -0.666992 5.66699 -4.33398 15 -11.001l-1 -23c-32.667 -3.33301 -63.667 -5 -93 -5c-21.333 0 -32 7.66699 -32 23c0 17.333 21 61.833 63 133.5s83.333 134.167 124 187.5
c-60 138 -102 223.667 -126 257c-24.667 34 -50.334 51 -77.001 51v33c38 6.66699 70 10 96 10c24.667 0 47.667 -20 69 -60c4 -8 13.667 -29 29 -63l71 -164c58.667 97.333 88 163.666 88 198.999c0 25.333 -11.333 42 -34 50l1 23c44.667 9.33301 76.667 14 96 14
c12.667 0 21.5 -1.83301 26.5 -5.5s7.5 -10.834 7.5 -21.501c0 -38 -55 -139 -165 -303c50 -111.333 87.333 -191.333 112 -240c14 -28.667 27.5 -50 40.5 -64s26.833 -21.333 41.5 -22z" />
    <glyph glyph-name="afii10040" unicode="&#x426;" horiz-adv-x="631" 
d="M615 23c-2.66699 -30 -11.3291 -66.834 -25.9961 -110.501s-28.334 -77.5 -41.001 -101.5l-27 -2c11.333 55.333 17 96.666 17 123.999c0 44.667 -26.667 67 -80 67c-17.333 0 -55.666 -0.833008 -114.999 -2.5s-106.333 -2.5 -141 -2.5
c-49.333 0 -80.5 5.16699 -93.5 15.5s-19.5 30.5 -19.5 60.5c0 23.333 1.33301 75 4 155l5 231c0.666992 16.667 1 44.667 1 84c0 41.333 -4.66699 68.166 -14 80.499s-27 18.5 -53 18.5v33c54 12 97 18 129 18c18 0 27 -21 27 -63c0 -42.667 -1 -85.667 -3 -129
s-3 -71.666 -3 -84.999c-4.66699 -146 -7 -226 -7 -240c0 -55.333 4.5 -91.5 13.5 -108.5s33.167 -25.5 72.5 -25.5c66 0 126.667 3 182 9c-6.66699 27.333 -9 88.666 -7 183.999l4 238c0 18 0.166992 33.333 0.5 46s0 24.834 -1 36.501s-1.33301 21.167 -1 28.5
s-0.833984 14.333 -3.50098 21s-4 11.667 -4 15s-2.5 6.5 -7.5 9.5s-7.66699 5 -8 6s-4.33301 2.16699 -12 3.5s-11.834 2 -12.501 2s-6.33398 0.333008 -17.001 1v33c54 12 97 18 129 18c11.333 0 18.666 -4.66699 21.999 -14s5 -25.666 5 -48.999
c0 -42.667 -1 -85.667 -3 -129s-3 -71.666 -3 -84.999c-4.66699 -143.333 -7 -222 -7 -236c0 -61.333 5.33301 -102.5 16 -123.5s38 -31.5 82 -31.5z" />
    <glyph glyph-name="afii10041" unicode="&#x427;" horiz-adv-x="573" 
d="M535 27v-27.0049h-107c-11.333 0 -19.166 3.83301 -23.499 11.5s-6.5 21.834 -6.5 42.501c0 10.667 1.66699 60 5 148l5 142c-6.66699 -5.33301 -16 -11.833 -28 -19.5s-34.833 -18 -68.5 -31s-65.5 -19.5 -95.5 -19.5c-29.333 0 -53.5 4.33301 -72.5 13
s-32.667 22.167 -41 40.5s-13.833 37 -16.5 56s-4 43.5 -4 73.5c0 16.667 0.333008 38.667 1 66s1 44.333 1 51c0 26.667 -5.16699 44.334 -15.5 53.001s-27.833 13 -52.5 13v33c54 12 97 18 129 18c18 0 27 -21 27 -63c0 -8 -0.666992 -36.167 -2 -84.5
s-2 -84.166 -2 -107.499c0 -14 0.833008 -26 2.5 -36s5.5 -20.667 11.5 -32s16 -20 30 -26s31.667 -9 53 -9c17.333 0 34.166 2.16699 50.499 6.5s30 9.5 41 15.5s20.667 12.167 29 18.5s14.5 11.833 18.5 16.5l5 6l1 61l2 98c0 34 -4.66699 56.333 -14 67
s-27.666 16.667 -54.999 18v33c54 12 97 18 129 18c18 0 27 -21 27 -63c0 -15.333 -1.33301 -56.166 -4 -122.499s-4.33398 -118.5 -5.00098 -156.5l-3 -140l-2 -89c0 -30 3.66699 -52.667 11 -68s20.333 -23.666 39 -24.999z" />
    <glyph glyph-name="afii10042" unicode="&#x428;" horiz-adv-x="917" 
d="M892 24l0.00390625 -27c-35.333 1.33301 -60.666 2 -75.999 2c-13.333 0 -55.5 -0.166992 -126.5 -0.5s-128.5 -0.5 -172.5 -0.5c-34 0 -86.833 -0.5 -158.5 -1.5s-123.834 -1.5 -156.501 -1.5c-49.333 0 -80.5 5.16699 -93.5 15.5s-19.5 30.5 -19.5 60.5
c0 23.333 1.33301 75 4 155l5 231c0.666992 16.667 1 44.667 1 84c0 41.333 -4.66699 68.166 -14 80.499s-27 18.5 -53 18.5v33c54 12 97 18 129 18c18 0 27 -21 27 -63c0 -42.667 -1 -85.667 -3 -129s-3 -71.666 -3 -84.999c-4.66699 -146 -7 -226 -7 -240
c0 -55.333 4.5 -91.5 13.5 -108.5s33.167 -25.5 72.5 -25.5l172 4c-9.33301 31.333 -14 74.333 -14 129l5 298c2 86 -2 136.667 -12 152c-6 9.33301 -20.333 14.666 -43 15.999c-0.666992 0 -2.33398 0.333008 -5.00098 1h-6v33c54 12 97 18 129 18
c11.333 0 18.666 -4.66699 21.999 -14s5 -25.666 5 -48.999c0 -42.667 -1 -85.667 -3 -129s-3 -71.666 -3 -84.999c-3.33301 -143.333 -5 -217 -5 -221c0 -56.667 4.83301 -96.334 14.5 -119.001s27.5 -34 53.5 -34c67.333 0 128.666 3 183.999 9
c-4.66699 30.667 -7 81.667 -7 153l2 255c0.666992 86 -2.33301 137.333 -9 154c-6 16 -20.333 25.333 -43 28c-4 0 -9 0.333008 -15 1v33c54 12 97 18 129 18c11.333 0 18.666 -4.66699 21.999 -14s5 -25.666 5 -48.999c0 -14.667 -1 -55.667 -3 -123
s-3 -109.666 -3 -126.999v-212c0 -48.667 4.16699 -83.834 12.5 -105.501s23.833 -33.834 46.5 -36.501z" />
    <glyph glyph-name="afii10043" unicode="&#x429;" horiz-adv-x="944" 
d="M931 23c-2.66699 -30 -11.3281 -66.834 -25.9951 -110.501s-28.334 -77.5 -41.001 -101.5l-27 -2c11.333 55.333 17 96.666 17 123.999c0 45.333 -27.667 68 -83 68c-13.333 0 -48 -0.5 -104 -1.5s-106 -1.5 -150 -1.5c-38 0 -93 -0.5 -165 -1.5s-122 -1.5 -150 -1.5
c-49.333 0 -80.5 5.16699 -93.5 15.5s-19.5 30.5 -19.5 60.5c0 23.333 1.33301 75 4 155l5 231c0.666992 16.667 1 44.667 1 84c0 41.333 -4.66699 68.166 -14 80.499s-27 18.5 -53 18.5v33c54 12 97 18 129 18c18 0 27 -21 27 -63c0 -42.667 -1 -85.667 -3 -129
s-3 -71.666 -3 -84.999c-4.66699 -146 -7 -226 -7 -240c0 -55.333 4.5 -91.5 13.5 -108.5s33.167 -25.5 72.5 -25.5l172 4c-9.33301 31.333 -14 74.333 -14 129l5 298c2 86 -2 136.667 -12 152c-6 9.33301 -20.333 14.666 -43 15.999
c-0.666992 0 -2.33398 0.333008 -5.00098 1h-6v33c54 12 97 18 129 18c11.333 0 18.666 -4.66699 21.999 -14s5 -25.666 5 -48.999c0 -42.667 -1 -85.667 -3 -129s-3 -71.666 -3 -84.999c-3.33301 -143.333 -5 -217 -5 -221c0 -56.667 4.83301 -96.334 14.5 -119.001
s27.5 -34 53.5 -34c67.333 0 128.666 3 183.999 9c-4.66699 30.667 -7 81.667 -7 153l2 255c0.666992 86 -2.33301 137.333 -9 154c-6 16 -20.333 25.333 -43 28c-4 0 -9 0.333008 -15 1v33c54 12 97 18 129 18c11.333 0 18.666 -4.66699 21.999 -14s5 -25.666 5 -48.999
c0 -14.667 -1 -55.667 -3 -123s-3 -109.666 -3 -126.999v-200c0 -61.333 5.33301 -102.5 16 -123.5s38 -31.5 82 -31.5z" />
    <glyph glyph-name="afii10044" unicode="&#x42a;" horiz-adv-x="656" 
d="M631 224c0 -39.333 -7.8291 -74.6641 -23.4961 -105.997s-36.167 -56.5 -61.5 -75.5s-52.666 -33.333 -81.999 -43s-59 -14.5 -89 -14.5c-32.667 0 -68.167 3.5 -106.5 10.5s-57.5 14.167 -57.5 21.5c0 4 0.5 10 1.5 18l4 33.5c1.66699 14.333 3.16699 28.833 4.5 43.5
c4 52 7 121.333 9 208l2 194c0.666992 65.333 -3 103 -11 113c-9.33301 10.667 -26 16 -50 16c-34.667 0 -58.334 -8.33301 -71.001 -25c-11.333 -14 -19.5 -27 -24.5 -39s-10.5 -34.333 -16.5 -67l-29 -10c-5.33301 26 -8 56.333 -8 91c0.666992 34 4 61.333 10 82l12 9
l232 -1c10.667 0 18.5 -0.833008 23.5 -2.5s9.33301 -6.66699 13 -15s5.5 -20.833 5.5 -37.5c0 -8.66699 -0.333008 -24.834 -1 -48.501s-1.33398 -54.334 -2.00098 -92.001s-1.33398 -68.834 -2.00098 -93.501l-3 -155c-0.666992 -22.667 -1.66699 -53.167 -3 -91.5
s-2 -60.833 -2 -67.5c0 -19.333 5.16699 -32.833 15.5 -40.5s32.5 -11.5 66.5 -11.5c50 0 88.333 18.667 115 56s40 80.333 40 129c0 96 -42.667 144 -128 144c-36.667 0 -65.334 -4.33301 -86.001 -13v38c29.333 11.333 65.666 17 108.999 17
c58 0 104.833 -14.167 140.5 -42.5s53.5 -72.5 53.5 -132.5z" />
    <glyph glyph-name="afii10045" unicode="&#x42b;" horiz-adv-x="749" 
d="M499 224c0 -39.333 -7.83105 -74.665 -23.498 -105.998s-36.167 -56.5 -61.5 -75.5s-52.666 -33.333 -81.999 -43s-59 -14.5 -89 -14.5c-32.667 0 -68.167 3.5 -106.5 10.5s-57.5 14.167 -57.5 21.5c0 4 0.5 10 1.5 18l4 33.5c1.66699 14.333 3.16699 28.833 4.5 43.5
c6 73.333 9 142.666 9 207.999v137c0 58 -1.5 98.833 -4.5 122.5s-8.83301 39.667 -17.5 48s-23.334 12.5 -44.001 12.5v33c54 12 97 18 129 18c18 0 27 -21 27 -63c0 -8.66699 -0.5 -26.334 -1.5 -53.001s-2 -58 -3 -94s-1.83301 -65 -2.5 -87l-3 -155
c-0.666992 -22.667 -1.66699 -53.167 -3 -91.5s-2 -60.833 -2 -67.5c0 -19.333 5.16699 -32.833 15.5 -40.5s32.5 -11.5 66.5 -11.5c50 0 88.333 18.667 115 56s40 80.333 40 129c0 96 -42.667 144 -128 144c-36.667 0 -65.334 -4.33301 -86.001 -13v38
c29.333 11.333 65.666 17 108.999 17c58 0 104.833 -14.167 140.5 -42.5s53.5 -72.5 53.5 -132.5zM714.002 27.001l0.000976562 -27.0029h-105c-13.333 0 -22.166 3.83301 -26.499 11.5s-6.5 26.167 -6.5 55.5c0 20.667 1.33301 71 4 151l8 239
c2.66699 80.667 1.16699 131.334 -4.5 152.001s-22.834 31 -51.501 31v33c47.333 12 87 18 119 18c18 0 27 -21 27 -63c0 -15.333 -1.33301 -56.166 -4 -122.499s-4.33398 -118.5 -5.00098 -156.5l-3 -140l-2 -89c0 -30 3.66699 -52.667 11 -68s20.333 -23.666 39 -24.999z
" />
    <glyph glyph-name="afii10046" unicode="&#x42c;" horiz-adv-x="524" 
d="M499 224c0 -39.333 -7.83105 -74.665 -23.498 -105.998s-36.167 -56.5 -61.5 -75.5s-52.666 -33.333 -81.999 -43s-59 -14.5 -89 -14.5c-32.667 0 -68.167 3.5 -106.5 10.5s-57.5 14.167 -57.5 21.5c0 4 0.5 10 1.5 18l4 33.5c1.66699 14.333 3.16699 28.833 4.5 43.5
c6 73.333 9 142.666 9 207.999v137c0 58 -1.5 98.833 -4.5 122.5s-8.83301 39.667 -17.5 48s-23.334 12.5 -44.001 12.5v33c54 12 97 18 129 18c18 0 27 -21 27 -63c0 -8.66699 -0.5 -26.334 -1.5 -53.001s-2 -58 -3 -94s-1.83301 -65 -2.5 -87l-3 -155
c-0.666992 -22.667 -1.66699 -53.167 -3 -91.5s-2 -60.833 -2 -67.5c0 -19.333 5.16699 -32.833 15.5 -40.5s32.5 -11.5 66.5 -11.5c50 0 88.333 18.667 115 56s40 80.333 40 129c0 96 -42.667 144 -128 144c-36.667 0 -65.334 -4.33301 -86.001 -13v38
c29.333 11.333 65.666 17 108.999 17c58 0 104.833 -14.167 140.5 -42.5s53.5 -72.5 53.5 -132.5z" />
    <glyph glyph-name="afii10047" unicode="&#x42d;" horiz-adv-x="549" 
d="M508 379c0 -67.333 -9.6709 -127.332 -29.0039 -179.999s-44.5 -93.667 -75.5 -123s-63.833 -51.5 -98.5 -66.5s-70 -22.5 -106 -22.5c-49.333 0 -87 8 -113 24s-39 36 -39 60c0 30 19 56.333 57 79l12 -5c0 -42.667 10.667 -72.167 32 -88.5s47 -24.5 77 -24.5
c12.667 0 26.167 2.16699 40.5 6.5s30.166 13.166 47.499 26.499s33 30.333 47 51s26.333 49.167 37 85.5s17 77.5 19 123.5c-33.333 -2 -79.333 -5.66699 -138 -11s-97 -9.66602 -115 -12.999l11 66l243 -2c-0.666992 99.333 -14.667 172 -42 218s-70.333 69 -129 69
c-18 0 -34.667 -2.16699 -50 -6.5s-28.666 -11.5 -39.999 -21.5s-20.666 -19 -27.999 -27s-14.666 -20 -21.999 -36s-12.333 -27.333 -15 -34s-7 -18.334 -13 -35.001l-30 -7c0 74 4 127 12 159l8 13c4.66699 2.66699 11.834 6.16699 21.501 10.5s30.834 10 63.501 17
s67 10.5 103 10.5c82 0 144.5 -24.5 187.5 -73.5s64.5 -129.833 64.5 -242.5z" />
    <glyph glyph-name="afii10048" unicode="&#x42e;" horiz-adv-x="872" 
d="M830 358c0 -59.333 -7.00195 -112 -21.002 -158s-31 -82 -51 -108s-43.167 -47.333 -69.5 -64s-50.166 -27.667 -71.499 -33s-41.666 -8 -60.999 -8c-78.667 0 -142.334 30.167 -191.001 90.5s-73 149.5 -73 267.5l-112 2l-2 -76c0 -12 -0.5 -34.833 -1.5 -68.5
s-1.5 -56.5 -1.5 -68.5c0 -41.333 2.83301 -68.333 8.5 -81s15.834 -21.334 30.501 -26.001v-27h-97c-11.333 0 -18.833 4.33301 -22.5 13s-5.5 25 -5.5 49c0 29.333 1.33301 84 4 164l5 231c0.666992 16.667 1 44.667 1 84c0 41.333 -4.66699 68.166 -14 80.499
s-27 18.5 -53 18.5l1 33c53.333 12 96 18 128 18c18 0 27 -21 27 -63c0 -30 -1.16699 -73 -3.5 -129s-3.83301 -93.667 -4.5 -113l115 7c5.33301 46.667 15.5 88.334 30.5 125.001s32 65.834 51 87.501s40.333 39.5 64 53.5s46 23.5 67 28.5s42.167 7.5 63.5 7.5
c80.667 0 144 -27.833 190 -83.5s69 -140.167 69 -253.5zM739.998 354c0 198.667 -59.001 298 -177.001 298c-18.667 0 -36 -2.83301 -52 -8.5s-32.333 -16.167 -49 -31.5s-30.667 -35 -42 -59s-20.666 -55.833 -27.999 -95.5s-11 -85.5 -11 -137.5
c0 -95.333 15.833 -167.5 47.5 -216.5s77.167 -73.5 136.5 -73.5c14.667 0 29 2.5 43 7.5s29.333 14.833 46 29.5s31 33.5 43 56.5s22.167 54.333 30.5 94s12.5 85.167 12.5 136.5z" />
    <glyph glyph-name="afii10049" unicode="&#x42f;" horiz-adv-x="523" 
d="M496 27l0.000976562 -26.9961h-107c-11.333 0 -19 4.33301 -23 13s-6 25 -6 49c0 9.33301 0.666992 32.666 2 69.999s2 61 2 71l1 198c1.33301 103.333 0.333008 168.666 -3 195.999c-4 32 -25.667 48 -65 48c-37.333 0 -70 -12.667 -98 -38s-42.333 -60 -43 -104
c0 -84.667 39.333 -134.334 118 -149.001c15.333 -2.66699 41.333 -4 78 -4v-21c-34.667 -10 -59.334 -25.333 -74.001 -46c-12 -18 -24.5 -38.167 -37.5 -60.5l-47.5 -85.5c-18.667 -34.667 -28.334 -52.667 -29.001 -54c-12 -22 -21.667 -38 -29 -48
s-17.5 -19.5 -30.5 -28.5s-28.167 -13.5 -45.5 -13.5c-6 0 -14.333 1.66699 -25 5s-20 6.66602 -28 9.99902l-11 6l4 23c17.333 0 31.5 5.83301 42.5 17.5s25.833 33.167 44.5 64.5c45.333 76.667 71 119.667 77 129c26 38.667 49 65.667 69 81
c-11.333 1.33301 -22.833 3.33301 -34.5 6s-26 8 -43 16s-31.667 17.667 -44 29s-23 26.833 -32 46.5s-13.5 42.167 -13.5 67.5c0 36 7.33301 67 22 93s34.667 46 60 60s51.833 24.167 79.5 30.5s57.5 9.5 89.5 9.5l139 -4l7 -4c-4.66699 -22 -7.66699 -67 -9 -135
c-1.33301 -29.333 -2.66602 -82 -3.99902 -158l-3 -220c0 -52 3 -87.667 9 -107s19.667 -30 41 -32z" />
    <glyph glyph-name="afii10065" unicode="&#x430;" horiz-adv-x="446" 
d="M436 29l-1 -23.001c-40 -10 -69.333 -15 -88 -15c-33.333 0 -51 24.667 -53 74c-40 -51.333 -85.667 -77 -137 -77c-31.333 0 -58 9.66699 -80 29s-33 50 -33 92c0 28.667 4 52.5 12 71.5s21.833 34.5 41.5 46.5s39.167 21 58.5 27s46.666 12.667 81.999 20l61 13
c0.666992 18 1 42.667 1 74c0 28.667 -6 47.834 -18 57.501s-29.333 14.5 -52 14.5c-55.333 0 -81.666 -25.333 -78.999 -76l-8 -11c-49.333 0 -74 12.333 -74 37c0 24 22 45.333 66 64s92.667 28 146 28c37.333 0 63.333 -8.5 78 -25.5s22 -43.167 22 -78.5
c0 -2 -1.66699 -52 -5 -150l-2 -94c0 -40.667 3.66699 -67.167 11 -79.5s24.333 -18.5 51 -18.5zM298 248.999l-55 -11c-40.667 -8.66699 -69 -20.334 -85 -35.001c-20 -18 -30 -43 -30 -75c0 -25.333 5.5 -45.5 16.5 -60.5s26.167 -22.5 45.5 -22.5
c22.667 0 42.667 6.33301 60 19s29 25.334 35 38.001l9 19z" />
    <glyph glyph-name="afii10066" unicode="&#x431;" horiz-adv-x="461" 
d="M445 241c-2.66699 -74 -23.335 -135.335 -62.002 -184.002s-88.667 -73 -150 -73c-62 0 -108.5 23.167 -139.5 69.5s-44.833 113.5 -41.5 201.5c2.66699 79.333 10.167 144 22.5 194s35.5 94.667 69.5 134c13.333 15.333 30.5 30.333 51.5 45s39.833 26.167 56.5 34.5
l57 27.5c21.333 10 34 16 38 18c18 9.33301 31.333 17.5 40 24.5s17.334 18.167 26.001 33.5l20 -4c0 -2 -0.5 -7 -1.5 -15s-1.66699 -13.667 -2 -17s-1.16602 -8.66602 -2.49902 -15.999s-2.66602 -13 -3.99902 -17l-5 -14.5c-2 -5.66699 -4.33301 -10.667 -7 -15
s-5.66699 -8.16602 -9 -11.499c-15.333 -16.667 -48.333 -35.667 -99 -57s-88 -41.666 -112 -60.999c-28 -22 -49.333 -44.833 -64 -68.5s-24.334 -56.167 -29.001 -97.5h8c16.667 33.333 39.5 59.166 68.5 77.499s61.5 27.5 97.5 27.5c50.667 0 93 -19 127 -57
s49.333 -97.667 46 -179zM358.999 206.998c1.33301 40.667 -0.333008 75.833 -5 105.5s-10.834 52.167 -18.501 67.5s-17.5 27.333 -29.5 36s-22.5 13.834 -31.5 15.501s-19.5 2.5 -31.5 2.5c-26.667 0 -51.167 -13.333 -73.5 -40s-34.5 -69.667 -36.5 -129
c-2.66699 -84.667 7.33301 -146 30 -184s51.334 -57 86.001 -57c30 0 55.333 14.667 76 44s32 75.666 34 138.999z" />
    <glyph glyph-name="afii10067" unicode="&#x432;" horiz-adv-x="443" 
d="M412 139c0 -30 -8.16797 -55.668 -24.501 -77.001s-36.5 -36.833 -60.5 -46.5s-45.5 -16.5 -64.5 -20.5s-35.833 -6 -50.5 -6c-95.333 0 -143 17.333 -143 52c0 6 0.833008 25.333 2.5 58s2.83398 56.667 3.50098 72l2 112c0 4.66699 0.166992 18.167 0.5 40.5
s0.5 35.5 0.5 39.5c0 29.333 -4.33301 48.666 -13 57.999s-23 14 -43 14v28c94.667 7.33301 170 11 226 11c97.333 0 146 -32.667 146 -98c0 -54.667 -34 -95 -102 -121l-1 -6c17.333 -2.66699 32 -5.66699 44 -9s24.5 -8.66602 37.5 -15.999s22.833 -18.166 29.5 -32.499
s10 -31.833 10 -52.5zM309.999 358.999c0 50.667 -25.665 75.999 -76.998 75.999c-20.667 0 -35.334 -1.16699 -44.001 -3.5s-16.667 -6.83301 -24 -13.5c-4.66699 -4.66699 -8 -25.667 -10 -63l-2 -97l58 3c31.333 1.33301 55.666 10.333 72.999 27s26 40.334 26 71.001z
M328.001 139.998c0 56.667 -34.667 84.999 -104 84.999c-12.667 0 -25 -0.5 -37 -1.5s-21 -2.16699 -27 -3.5l-8 -1c0 -4.66699 -0.166992 -15 -0.5 -31s-0.5 -28.667 -0.5 -38c0 -52 3 -85 9 -99c8 -14.667 25.333 -22 52 -22c36 0 64.333 9.33301 85 28
s31 46.334 31 83.001z" />
    <glyph glyph-name="afii10068" unicode="&#x433;" horiz-adv-x="391" 
d="M355 110l12.001 -30.002c-59.333 -59.333 -120.666 -89 -183.999 -89c-96 0 -144 37.667 -144 113c0 15.333 2.83301 29.5 8.5 42.5s15.167 25.167 28.5 36.5s24.333 20.166 33 26.499s23.334 15.333 44.001 27l40 22.5c50 30.667 75 67.334 75 110.001
c0 37.333 -21.667 56 -65 56c-35.333 0 -79.333 -24.333 -132 -73l-19 25c66 66 130.667 99 194 99c12 0 23.5 -1 34.5 -3s23.167 -5.5 36.5 -10.5s24.166 -13.667 32.499 -26s12.5 -27.5 12.5 -45.5c0 -21.333 -3.33301 -40.166 -10 -56.499s-18.5 -31.666 -35.5 -45.999
s-30.833 -25 -41.5 -32s-29.334 -17.833 -56.001 -32.5c-0.666992 -0.666992 -4.83398 -3 -12.501 -7s-12.334 -6.66699 -14.001 -8s-5.83398 -4 -12.501 -8s-11.167 -7.33301 -13.5 -10s-6 -6.33398 -11 -11.001s-8.66699 -9.16699 -11 -13.5s-4.83301 -9.33301 -7.5 -15
s-4.5 -11.667 -5.5 -18s-1.5 -13.166 -1.5 -20.499c0 -17.333 6.33301 -33 19 -47s34.334 -21 65.001 -21c22.667 0 47.834 6.66699 75.501 20s49.5 28.333 65.5 45z" />
    <glyph glyph-name="afii10069" unicode="&#x434;" horiz-adv-x="458" 
d="M422 389c0 -47.333 -3.99902 -93.6641 -11.999 -138.997s-20.167 -88.5 -36.5 -129.5s-39 -74 -68 -99s-62.5 -37.5 -100.5 -37.5c-46.667 0 -85.334 21.5 -116.001 64.5s-46 97.167 -46 162.5c0 84.667 19.667 150.167 59 196.5s87.666 69.5 144.999 69.5
c20 0 41.333 -3.33301 64 -10l1 -35c-17.333 7.33301 -40 11 -68 11s-54.167 -17.333 -78.5 -52s-36.5 -87.334 -36.5 -158.001s9 -123.334 27 -158.001s39.333 -52 64 -52c22 0 39.833 8.66699 53.5 26s25.834 42.666 36.501 75.999c16.667 53.333 25 120.666 25 201.999
c0 124.667 -16 213 -48 265s-78.333 78 -139 78c-26 0 -54 -5 -84 -15v30c34 18.667 73.667 28 119 28c76.667 0 135.667 -27.667 177 -83s62 -135.666 62 -240.999z" />
    <glyph glyph-name="afii10070" unicode="&#x435;" horiz-adv-x="429" 
d="M401 373c-1.33301 -36.667 -17.1689 -65.501 -47.502 -86.501s-67.5 -34.5 -111.5 -40.5l-105 -14c-2 -54 9.83301 -98.833 35.5 -134.5s58.834 -53.5 99.501 -53.5c25.333 0 48.333 3 69 9s35 12.333 43 19l12 9v-32c-4.66699 -4 -11.334 -9.33301 -20.001 -16
s-27 -15.334 -55 -26.001s-57 -16 -87 -16c-52.667 0 -96.667 19.167 -132 57.5s-51.666 97.5 -48.999 177.5c1.33301 46 10.333 86.333 27 121s37.167 60.834 61.5 78.501s47.833 30.667 70.5 39s44 12.5 64 12.5c15.333 0 29.5 -1.33301 42.5 -4s26.333 -7.5 40 -14.5
s24.334 -17.667 32.001 -32s11.167 -32.166 10.5 -53.499zM317.997 370.999c0.666992 18.667 -3.66797 34.167 -13.001 46.5s-23.666 18.5 -42.999 18.5c-30.667 0 -57.334 -12.833 -80.001 -38.5s-37 -68.5 -43 -128.5l78 9c64.667 7.33301 98.334 38.333 101.001 93z" />
    <glyph glyph-name="afii10072" unicode="&#x436;" horiz-adv-x="678" 
d="M673 25l-2 -23.999c-32.667 -6 -59 -9 -79 -9c-4 0 -8 0.5 -12 1.5s-8 2.83301 -12 5.5s-7.5 5.16699 -10.5 7.5s-6.66699 6.16602 -11 11.499l-11 14c-3 4 -7 9.83301 -12 17.5l-12.5 19.5l-14.5 23l-15.5 25l-81 128v12c30 15.333 59 39 87 71
c32 36 47.333 65.667 46 89c-0.666992 3.33301 -1.66699 6.16602 -3 8.49902s-2.66602 4 -3.99902 5s-3.66602 2.33301 -6.99902 4l-7 3.5l1 25c47.333 4.66699 78 7 92 7c15.333 0 23 -6 23 -18c0 -19.333 -9 -40.666 -27 -63.999c-18.667 -22 -42 -46 -70 -72
s-48.333 -43.333 -61 -52c11.333 -13.333 33.166 -44.333 65.499 -93s53.166 -78.667 62.499 -90s17 -20.333 23 -27s13.667 -13 23 -19s19 -9.33301 29 -10zM406 28.001l-1.00098 -26.999c-24 -4 -44.667 -6 -62 -6c-14 0 -23.333 4.83301 -28 14.5s-7 27.834 -7 54.501
c0 25.333 1 61.333 3 108l4 111c0.666992 36 0.333984 69 -0.999023 99c-0.666992 14 -2.5 24.667 -5.5 32s-5.66699 11.833 -8 13.5s-7.16602 4.16699 -14.499 7.5l1 28c32 6 58 9 78 9c8 0 13.667 -0.666992 17 -2s6.5 -6.33301 9.5 -15s4.5 -21.667 4.5 -39l-3 -110
l-4 -111c-2 -50 -2.66699 -87.333 -2 -112c0.666992 -18.667 2.16699 -31.834 4.5 -39.501s7.16602 -12.834 14.499 -15.501zM300.999 264.002l-0.998047 -23.001l-34 -45l-98 -132c-34 -47.333 -64.667 -71 -92 -71c-8.66699 0 -18.167 1.5 -28.5 4.5
s-18.5 5.83301 -24.5 8.5l-9 5v22c22.667 -0.666992 53.667 25 93 77l125 160c-20.667 16 -55.667 53.333 -105 112c-19.333 22.667 -33.833 37 -43.5 43s-23.834 10 -42.501 12l1 26c38.667 6 66 9 82 9c14.667 0 25.167 -3.33301 31.5 -10s15.166 -22 26.499 -46
c24.667 -51.333 54.667 -95.666 90 -132.999c6 -6.66699 15.667 -13 29 -19z" />
    <glyph glyph-name="afii10073" unicode="&#x437;" horiz-adv-x="411" 
d="M377 146c0 -48.667 -20.499 -86.668 -61.499 -114.001s-88.167 -41 -141.5 -41c-27.333 0 -50.333 2.33301 -69 7s-32.167 10.834 -40.5 18.501s-14.166 14.834 -17.499 21.501s-5 13.667 -5 21c0 12 5.5 22.833 16.5 32.5s26.167 16.834 45.5 21.501l12 -10
c1.33301 -21.333 9.16602 -38.5 23.499 -51.5s34.166 -19.5 59.499 -19.5c58 0 87 34 87 102c0 20.667 -3.16699 37.667 -9.5 51s-15 22.333 -26 27s-19.667 7.66699 -26 9s-13.833 2 -22.5 2l-77 -6l7 39l56 3c25.333 1.33301 46.833 11.166 64.5 29.499
s26.5 42.5 26.5 72.5c0 51.333 -25.667 77 -77 77c-30 0 -51.833 -9.83301 -65.5 -29.5s-20.5 -42.167 -20.5 -67.5l-12 -10c-37.333 10.667 -56 28 -56 52c0 20.667 17.667 41.5 53 62.5s80.666 31.5 135.999 31.5c12.667 0 25.334 -1.16699 38.001 -3.5
s26.167 -6.5 40.5 -12.5s25.833 -15.833 34.5 -29.5s13 -30.167 13 -49.5c0 -30.667 -9.33301 -55.834 -28 -75.501s-43.667 -37.5 -75 -53.5v-4c78 -10.667 117 -45 117 -103z" />
    <glyph glyph-name="afii10074" unicode="&#x438;" horiz-adv-x="504" 
d="M485 32l-1.99805 -23.999c-42.667 -8.66699 -71.334 -13 -86.001 -13c-12.667 0 -22.167 1.5 -28.5 4.5s-11.5 9.5 -15.5 19.5c-6 18 -8 67 -6 147l2 116c0 6 1.33301 24.5 4 55.5s4 50.167 4 57.5l-3 1c-36.667 -80.667 -68.334 -147.667 -95.001 -201
c-34.667 -69.333 -65.334 -122.666 -92.001 -159.999c-21.333 -30 -43 -45 -65 -45c-20 0 -30 22.333 -30 67c0 24.667 1 65 3 121c2 62.667 3 113 3 151c0 42.667 -4.5 70.5 -13.5 83.5s-24.167 20.5 -45.5 22.5l2 28c40 6 71 9 93 9c17.333 0 29.5 -5.33301 36.5 -16
s10.5 -29.667 10.5 -57c0 -6 -1.33301 -40.333 -4 -103s-4 -103.334 -4 -122.001c0 -42.667 3 -64 9 -64c2 0 4.33301 1 7 3s5.66699 5 9 9s6.5 8 9.5 12s6.5 9.66699 10.5 17s7.33301 13.666 10 18.999l11 21.5l11 21.5l11 22c4.66699 9.33301 8 16.333 10 21l39.5 83
l35 75c9 19.333 16.167 33.333 21.5 42c8 14 29 21 63 21c10 0 16.667 -1.16699 20 -3.5s5 -7.83301 5 -16.5c0 -2.66699 -0.666992 -15 -2 -37s-2.66602 -47.167 -3.99902 -75.5s-2 -50.5 -2 -66.5l-2 -83c-1.33301 -44.667 -0.666016 -80 2.00098 -106
c1.33301 -38 20.666 -57 57.999 -57z" />
    <glyph glyph-name="afii10075" unicode="&#x439;" horiz-adv-x="504" 
d="M373 642l24 -1.99902c-16.667 -38 -40.667 -66.833 -72 -86.5s-65 -29.5 -101 -29.5c-54 0 -81 16.667 -81 50c0 14 5.5 27.167 16.5 39.5s21.833 21.166 32.5 26.499l17 8c12 -26.667 22.5 -44.334 31.5 -53.001s24.167 -13 45.5 -13c13.333 0 28 5.33301 44 16
s30.333 25.334 43 44.001zM485 32.001l-1.99805 -23.999c-42.667 -8.66699 -71.334 -13 -86.001 -13c-12.667 0 -22.167 1.5 -28.5 4.5s-11.5 9.5 -15.5 19.5c-6 18 -8 67 -6 147l2 116c0 6 1.33301 24.5 4 55.5s4 50.167 4 57.5l-3 1
c-36.667 -80.667 -68.334 -147.667 -95.001 -201c-34.667 -69.333 -65.334 -122.666 -92.001 -159.999c-21.333 -30 -43 -45 -65 -45c-20 0 -30 22.333 -30 67c0 24.667 1 65 3 121c2 62.667 3 113 3 151c0 42.667 -4.5 70.5 -13.5 83.5s-24.167 20.5 -45.5 22.5l2 28
c40 6 71 9 93 9c17.333 0 29.5 -5.33301 36.5 -16s10.5 -29.667 10.5 -57c0 -6 -1.33301 -40.333 -4 -103s-4 -103.334 -4 -122.001c0 -42.667 3 -64 9 -64c2 0 4.33301 1 7 3s5.66699 5 9 9s6.5 8 9.5 12s6.5 9.66699 10.5 17s7.33301 13.666 10 18.999l11 21.5l11 21.5
l11 22c4.66699 9.33301 8 16.333 10 21l39.5 83l35 75c9 19.333 16.167 33.333 21.5 42c8 14 29 21 63 21c10 0 16.667 -1.16699 20 -3.5s5 -7.83301 5 -16.5c0 -2.66699 -0.666992 -15 -2 -37s-2.66602 -47.167 -3.99902 -75.5s-2 -50.5 -2 -66.5l-2 -83
c-1.33301 -44.667 -0.666016 -80 2.00098 -106c1.33301 -38 20.666 -57 57.999 -57z" />
    <glyph glyph-name="afii10076" unicode="&#x43a;" horiz-adv-x="438" 
d="M444 29l-1 -27.001c-25.333 -6.66699 -50 -10 -74 -10c-3.33301 0 -6.5 0.166992 -9.5 0.5s-6 1.33301 -9 3s-5.66699 2.83398 -8 3.50098s-4.83301 2.5 -7.5 5.5s-4.83398 5 -6.50098 6s-4 3.5 -7 7.5s-5 6.83301 -6 8.5s-3.16699 5 -6.5 10
s-5.66602 8.16699 -6.99902 9.5c-9.33301 12.667 -25 36.667 -47 72c-42 66.667 -73 107.667 -93 123l1 15c42 18.667 77.667 44.667 107 78c26 31.333 39.667 58.666 41 81.999c0 16 -5.33301 26 -16 30v17c36 4.66699 65 7 87 7c15.333 0 23 -6 23 -18
c0.666992 -16 -14 -42.333 -44 -79c-18.667 -22 -40.167 -44 -64.5 -66s-43.5 -37.667 -57.5 -47c16 -11.333 37.667 -37.333 65 -78c6 -8 14 -19.333 24 -34l27 -39l20 -28c12.667 -16.667 23.667 -28.667 33 -36s21.333 -12.666 36 -15.999zM185 28.999l-1.00781 -27.001
c-35.333 -4.66699 -61.666 -7 -78.999 -7c-14.667 0 -24.167 4.83301 -28.5 14.5s-6.5 30.5 -6.5 62.5c0 22.667 1 56 3 100l4 111c0.666992 14.667 1 28 1 40s-0.333008 22.833 -1 32.5s-1.16699 18 -1.5 25s-1.5 13.167 -3.5 18.5s-3.5 9.83301 -4.5 13.5
s-3.16699 6.83398 -6.5 9.50098s-5.66602 4.66699 -6.99902 6s-4.16602 2.5 -8.49902 3.5s-7.66602 1.66699 -9.99902 2s-6.16602 0.833008 -11.499 1.5l1 28c44.667 6 79.334 9 104.001 9c8 0 13.667 -0.666992 17 -2s6.5 -6.16602 9.5 -14.499s4.5 -21.5 4.5 -39.5
c0 -22.667 -2.66699 -86.667 -8 -192c-2 -48 -2.33301 -95 -1 -141c0.666992 -18 3.33398 -30.833 8.00098 -38.5s13.334 -12.834 26.001 -15.501z" />
    <glyph glyph-name="afii10077" unicode="&#x43b;" horiz-adv-x="423" 
d="M420 29l-0.00195312 -26.999c-33.333 -7.33301 -57.333 -11 -72 -11c-13.333 0 -23 3.5 -29 10.5s-13.333 23.5 -22 49.5c-1.33301 3.33301 -11.666 49.333 -30.999 138l-31 155c-10 47.333 -18 76 -24 86h-8l-25 -76c-52 -158 -77.333 -250.333 -76 -277
c0.666992 -18 3 -30.167 7 -36.5s12.333 -11.5 25 -15.5l-1 -19c-24 -10 -48 -15 -72 -15c-19.333 0 -29.666 11.333 -30.999 34c-2.66699 32 12.333 88.667 45 170l31 78l14 33.5l12.5 31l9.5 24.5c3.33301 8.66699 5.66602 16.167 6.99902 22.5s2 11.833 2 16.5
c-1.33301 21.333 -17.666 32.666 -48.999 33.999v23c56 10.667 100 16 132 16c28.667 0 46.5 -5 53.5 -15s15.833 -43 26.5 -99v-2l29 -148c11.333 -56 20 -93.333 26 -112c10.667 -42.667 27.667 -65.667 51 -69z" />
    <glyph glyph-name="afii10078" unicode="&#x43c;" horiz-adv-x="597" 
d="M589 27l0.00683594 -25.001c-34.667 -8.66699 -59.334 -13 -74.001 -13c-13.333 0 -22.833 3.66699 -28.5 11s-9.83398 23.666 -12.501 48.999c-2 16 -8 96 -18 240l-5 108c-18.667 -48.667 -38.334 -97 -59.001 -145c-39.333 -93.333 -62.333 -146 -69 -158
c-16 -28 -29.333 -42 -40 -42c-7.33301 0 -16.5 11 -27.5 33s-27.5 64 -49.5 126l-28.5 81.5l-19 54.5c-3.66699 10.667 -7.16699 20.334 -10.5 29.001s-6.33301 15.667 -9 21l-17 -93c-12.667 -70.667 -19 -137.667 -19 -201c0 -42.667 14 -68.667 42 -78v-19
c-24 -10 -48 -15 -72 -15c-21.333 0 -32 11.333 -32 34c0 51.333 9 119 27 203l14 64c13.333 60 20 97.667 20 113c0 11.333 -3.5 18.833 -10.5 22.5s-16.833 5.83398 -29.5 6.50098v23c60 10 97.333 15 112 15c12 0 20.667 -5.66699 26 -17
c1.33301 -3.33301 5.66602 -15.666 12.999 -36.999l49 -146c2.66699 -7.33301 5.5 -15.833 8.5 -25.5l7.5 -23.5l6.5 -19c2.33301 -6.66699 4.33301 -11.834 6 -15.501s3.5 -7.16699 5.5 -10.5s4 -5.66602 6 -6.99902s4 -2 6 -2c6.66699 0 14.167 8.66699 22.5 26
s22.166 49.666 41.499 96.999c25.333 64 44.666 115.333 57.999 154c28.667 18.667 54.667 28 78 28c9.33301 0 14.333 -7.33301 15 -22l3 -45l11 -196c3.33301 -54 6.66602 -93.333 9.99902 -118c4 -23.333 9 -39.5 15 -48.5s15 -14.833 27 -17.5z" />
    <glyph glyph-name="afii10079" unicode="&#x43d;" horiz-adv-x="494" 
d="M484 29l-2.00195 -23.999c-36.667 -6.66699 -63.334 -10 -80.001 -10c-14.667 0 -25.667 1.33301 -33 4s-14 10.834 -20 24.501s-9 34.167 -9 61.5l5 137h-186l-1 -27c-2 -50 -2.66699 -87.333 -2 -112c0.666992 -18 3.33398 -30.833 8.00098 -38.5
s13.334 -12.834 26.001 -15.501l-1 -27c-35.333 -4.66699 -61.666 -7 -78.999 -7c-14 0 -23.333 4.16699 -28 12.5s-7 26.166 -7 53.499c0 10.667 0.5 29.334 1.5 56.001s1.5 45 1.5 55c2.66699 81.333 4 133.666 4 156.999c0 41.333 -4.66699 68.833 -14 82.5
s-24.333 21.5 -45 23.5l2 28c40 6 71 9 93 9c31.333 0 47 -24.333 47 -73c0 -16.667 -1.66699 -62.667 -5 -138l186 7l1 15c2 32 3 54.667 3 68c0 24.667 -1.83301 43.167 -5.5 55.5s-7.66699 19.833 -12 22.5s-11.833 4.66699 -22.5 6l1 28c28 6 54.333 9 79 9
c6.66699 0 11.5 -0.333008 14.5 -1s7 -2.5 12 -5.5s8.5 -8.66699 10.5 -17s3 -19.166 3 -32.499c0 -12 -0.5 -31.667 -1.5 -59s-1.5 -44.333 -1.5 -51c-3.33301 -94 -5 -145.333 -5 -154c0 -52.667 4.33301 -86.334 13 -101.001s25 -22 49 -22z" />
    <glyph glyph-name="afii10080" unicode="&#x43e;" horiz-adv-x="471" 
d="M441 248c0 -72.667 -19 -133.667 -57 -183s-88.333 -74 -151 -74c-58.667 0 -104.5 20.167 -137.5 60.5s-49.5 98.833 -49.5 175.5c0 46 7.16699 86.167 21.5 120.5s32.833 60.333 55.5 78s45.5 30.667 68.5 39s45.833 12.5 68.5 12.5c52 0 95.167 -17.333 129.5 -52
s51.5 -93.667 51.5 -177zM355 237c0 42 -2.66602 76.835 -7.99902 104.502s-13.333 48.167 -24 61.5s-21.667 22.5 -33 27.5s-25 7.5 -41 7.5c-33.333 0 -61.333 -16 -84 -48s-34 -83 -34 -153c0 -74.667 10 -127.834 30 -159.501s45.667 -47.5 77 -47.5
c33.333 0 61.166 16.667 83.499 50s33.5 85.666 33.5 156.999z" />
    <glyph glyph-name="afii10081" unicode="&#x43f;" horiz-adv-x="482" 
d="M476 29l-1.99805 -24.002c-36.667 -6.66699 -63.334 -10 -80.001 -10c-22 0 -37.833 6.16699 -47.5 18.5s-14.5 38.833 -14.5 79.5c0 2.66699 0.5 15 1.5 37s2 47.667 3 77s1.5 54.666 1.5 75.999c0 45.333 -4 76.333 -12 93s-23 25 -45 25
c-27.333 0 -52.833 -18.667 -76.5 -56s-38.834 -87.333 -45.501 -150c-2.66699 -28 -4 -65 -4 -111c0 -17.333 2.66699 -30.166 8 -38.499s14.666 -13.833 27.999 -16.5l-1 -27c-35.333 -4.66699 -61.666 -7 -78.999 -7c-14.667 0 -24.667 4.33301 -30 13
s-8 26.334 -8 53.001c0 8.66699 1 28 3 58s3 51 3 63l4 101c1.33301 37.333 1 70.333 -1 99c-0.666992 8 -1.66699 15.167 -3 21.5s-3.33301 11.333 -6 15s-5 6.66699 -7 9s-5 4 -9 5s-7 1.66699 -9 2s-5.33301 0.5 -10 0.5h-8l1 28c42 6.66699 75.333 10 100 10
c7.33301 0 13 -0.833008 17 -2.5s8 -6.83398 12 -15.501s6 -21.667 6 -39c0 -24 -1 -52 -3 -84c22 52 49 88.667 81 110s60.667 32 86 32c30.667 0 53 -9.66699 67 -29s21 -58.333 21 -117c0 -13.333 -1 -43.666 -3 -90.999s-3 -75.666 -3 -84.999c0 -50 4.66699 -83 14 -99
s26 -24 50 -24z" />
    <glyph glyph-name="afii10082" unicode="&#x440;" horiz-adv-x="478" 
d="M443 257c-2 -56 -13.8311 -104.501 -35.498 -145.501s-47.334 -70.667 -77.001 -89s-60.834 -27.5 -93.501 -27.5c-31.333 0 -59.666 5.66699 -84.999 17l-1 -31c0 -12 -0.333008 -23 -1 -33s-1 -19 -1 -27c0 -37.333 2.5 -65 7.5 -83s11.5 -29.167 19.5 -33.5
s20.333 -6.5 37 -6.5l-2 -24c-36.667 -6.66699 -63.334 -10 -80.001 -10c-14.667 0 -25.667 1.33301 -33 4s-14 10.834 -20 24.501s-9 34.167 -9 61.5l5 137l8 204l4 137c0 59.333 -10 92.666 -30 99.999c-4 1.33301 -11 2.33301 -21 3h-5l1 28c44.667 6 79.334 9 104.001 9
c8 0 13.667 -0.666992 17 -2s6.5 -6.16602 9.5 -14.499s4.5 -21.5 4.5 -39.5v-44c15.333 30 35.5 55 60.5 75s53.167 30 84.5 30c40 0 72.667 -17.667 98 -53s36.666 -91 33.999 -167zM360.002 230.999c4 118 -24.334 177 -85.001 177c-31.333 0 -57.833 -18 -79.5 -54
s-33.167 -76 -34.5 -120l-5 -139c2.66699 -17.333 11.334 -32 26.001 -44s32.667 -18 54 -18c78 0 119.333 66 124 198z" />
    <glyph glyph-name="afii10083" unicode="&#x441;" horiz-adv-x="418" 
d="M390 413c-0.666992 -8.66699 -7 -18.3311 -19 -28.998s-27.333 -18.334 -46 -23.001l-12 10c-0.666992 20 -7 35.833 -19 47.5s-27.667 17.5 -47 17.5c-32.667 0 -59.834 -16.5 -81.501 -49.5s-32.5 -80.5 -32.5 -142.5c0 -68.667 10.667 -119.334 32 -152.001
s56.666 -49 105.999 -49c19.333 0 38.166 3.83301 56.499 11.5s31.833 15.167 40.5 22.5l12 11l7 -32c-4.66699 -4.66699 -11.167 -10.5 -19.5 -17.5s-26.166 -16.333 -53.499 -28s-55.666 -17.5 -84.999 -17.5c-51.333 0 -94 17.5 -128 52.5s-51 90.167 -51 165.5
c0 48 7 90.167 21 126.5s31.833 64 53.5 83s43.834 33.167 66.501 42.5s45 14 67 14c88 0 132 -21.333 132 -64z" />
    <glyph glyph-name="afii10084" unicode="&#x442;" horiz-adv-x="723" 
d="M711 29l-2.00488 -23.9971c-36.667 -6.66699 -63.334 -10 -80.001 -10c-20.667 0 -36.167 6.33301 -46.5 19s-15.5 39 -15.5 79c0 2.66699 0.5 15 1.5 37s2 47.667 3 77s1.5 54.666 1.5 75.999c0 43.333 -3.33301 74.5 -10 93.5s-18 28.5 -34 28.5
c-23.333 0 -45 -13.167 -65 -39.5s-34.833 -54 -44.5 -83s-16.167 -56.5 -19.5 -82.5c-3.33301 -26.667 -5 -62.334 -5 -107.001c0 -22 2.5 -38.333 7.5 -49s15.167 -16.667 30.5 -18l-2 -24c-29.333 -4.66699 -51.333 -7 -66 -7c-15.333 0 -26.833 4 -34.5 12
s-11.5 24.667 -11.5 50c0 16.667 1.83301 52.5 5.5 107.5s5.5 92.167 5.5 111.5c0 46 -4.16699 79 -12.5 99s-22.166 30 -41.499 30c-20 0 -39 -12.167 -57 -36.5s-31.833 -51.333 -41.5 -81s-15.5 -56.167 -17.5 -79.5l-1 -13c-2 -50 -2.66699 -87.333 -2 -112
c0.666992 -18 3.33398 -30.833 8.00098 -38.5s13.334 -12.834 26.001 -15.501l-1 -27c-35.333 -4.66699 -61.666 -7 -78.999 -7c-10 0 -17.333 1.66699 -22 5s-8 10.666 -10 21.999s-3 26.833 -3 46.5s0.666992 46.5 2 80.5c0 3.33301 0.166992 5.83301 0.5 7.5s0.5 4 0.5 7
v8.5l4 111c0.666992 20.667 0.333984 53.667 -0.999023 99c0 8 -0.666992 15.167 -2 21.5s-3.33301 11.333 -6 15s-5 6.66699 -7 9s-5 4 -9 5s-7 1.66699 -9 2s-5.33301 0.5 -10 0.5h-9l1 28c44.667 6 79.334 9 104.001 9c8 0 13.667 -0.666992 17 -2
s6.5 -6.16602 9.5 -14.499s4.5 -21.5 4.5 -39.5c0 -36.667 -0.666992 -65.667 -2 -87c13.333 41.333 34.833 75.833 64.5 103.5s60.5 41.5 92.5 41.5c31.333 0 53.833 -11.167 67.5 -33.5s20.5 -49.166 20.5 -80.499v-31c46 96.667 99.667 145 161 145
c26 0 46.333 -9.33301 61 -28s22 -53.334 22 -104.001c0 -13.333 -1 -46 -3 -98s-3 -82.667 -3 -92c0 -50 4.66699 -83 14 -99s26 -24 50 -24z" />
    <glyph glyph-name="afii10085" unicode="&#x443;" horiz-adv-x="456" 
d="M437 442c0 -20 -6.49902 -56.8369 -19.499 -110.504s-34.5 -119.5 -64.5 -197.5l-44 -115c-64.667 -169.333 -132.334 -254 -203.001 -254c-28 0 -42 11 -42 33c0 22.667 7 47.334 21 74.001l13 2c15.333 -20.667 32.666 -31 51.999 -31c16 0 29.167 6.83301 39.5 20.5
s15.5 31.834 15.5 54.501c0 23.333 -13.333 84.333 -40 183l-23 85c-25.333 92.667 -47.666 160.667 -66.999 204c-4.66699 10.667 -10 19.334 -16 26.001s-12.667 11.334 -20 14.001s-12.166 4.16699 -14.499 4.5s-7.16602 0.833008 -14.499 1.5v27
c47.333 6 83.333 9 108 9c12 0 22 -7.33301 30 -22s19.333 -48 34 -100l44 -160c20.667 -78 34 -130.333 40 -157h5l37 106c34 96.667 51 176 51 238c0 18 -3.33301 31.333 -10 40s-17 15 -31 19l-1 21c27.333 7.33301 53 11 77 11c11.333 0 19.166 -0.166992 23.499 -0.5
s8.66602 -2.5 12.999 -6.5s6.5 -10.333 6.5 -19z" />
    <glyph glyph-name="afii10086" unicode="&#x444;" horiz-adv-x="642" 
d="M608 254c0 -78.667 -25.501 -142.498 -76.501 -191.498s-109.833 -74.833 -176.5 -77.5v-8c0 -5.33301 -0.166992 -14 -0.5 -26s-0.5 -22 -0.5 -30c0 -37.333 2.5 -65 7.5 -83s11.5 -29.167 19.5 -33.5s20.333 -6.5 37 -6.5l-2 -24
c-36.667 -6.66699 -63.334 -10 -80.001 -10c-20 0 -35 5.83301 -45 17.5s-15 35.5 -15 71.5c0 14.667 0.166992 33.5 0.5 56.5s0.5 41.833 0.5 56.5v18c-26.667 0 -52.667 3.66699 -78 11s-50.166 19.166 -74.499 35.499s-44 40.5 -59 72.5s-22.5 70 -22.5 114
c0 82 24.833 145 74.5 189s108.834 67.333 177.501 70c0.666992 16 1 29 1 39c0 58 -3.83301 97 -11.5 117s-24.167 30 -49.5 30l-1 23c46.667 8 80 12 100 12c28 0 42 -26 42 -78c0 -12.667 -0.5 -31.334 -1.5 -56.001s-1.5 -47 -1.5 -67v-19
c156.667 0 235 -74.333 235 -223zM522.999 256.002c0 30.667 -3.16699 57.5 -9.5 80.5s-14.333 40.833 -24 53.5s-21.667 22.667 -36 30s-27.833 12.166 -40.5 14.499s-26.667 3.5 -42 3.5l-14 -415c110.667 10.667 166 88.334 166 233.001zM278.999 23.002l14 414.998
c-15.333 -1.33301 -29.333 -3.66602 -42 -6.99902s-27 -9.83301 -43 -19.5s-29.5 -22 -40.5 -37s-20.333 -36.167 -28 -63.5s-11.5 -59.333 -11.5 -96c0 -69.333 15.167 -118.666 45.5 -147.999s65.5 -44 105.5 -44z" />
    <glyph glyph-name="afii10087" unicode="&#x445;" horiz-adv-x="439" 
d="M428 28v-27c-29.333 -6 -58.333 -9 -87 -9c-4 0 -7.5 0.333008 -10.5 1l-9 2c-3 0.666992 -5.83301 2.33398 -8.5 5.00098s-5.16699 5 -7.5 7s-5 5.33301 -8 10l-8 12c-2.33301 3.33301 -5.5 8.66602 -9.5 15.999l-10.5 19.5l-13 24
c-5.66699 10.333 -10.5 19.5 -14.5 27.5l-43 80c-54 -65.333 -81 -108.333 -81 -129c0 -19.333 10 -32.333 30 -39l-1 -24c-26.667 -5.33301 -52 -8 -76 -8c-14.667 0 -25 1.66699 -31 5s-9 10.666 -9 21.999c0 7.33301 3.16699 17 9.5 29s15.666 26.333 27.999 43
s23.833 31.334 34.5 44.001l41.5 49.5l35.5 42.5l-33 64l-17.5 33.5c-5.66699 11 -9.66699 19 -12 24s-5.83301 11.167 -10.5 18.5l-17 26c-18 26 -40.667 39 -68 39v27c42.667 6 76.334 9 101.001 9c13.333 0 24 -6 32 -18s19.333 -34.333 34 -67l47 -104
c49.333 59.333 74 100.333 74 123c0 8 -1.66699 14 -5 18s-11 8 -23 12v21c27.333 7.33301 53 11 77 11c26.667 0 40 -9 40 -27c0 -23.333 -48 -86 -144 -188c34 -69.333 68 -129 102 -179c21.333 -30.667 45 -46 71 -46z" />
    <glyph glyph-name="afii10088" unicode="&#x446;" horiz-adv-x="498" 
d="M488 32c0 -30 -7.66797 -68 -23.001 -114s-30 -79.667 -44 -101l-29 -2c16.667 55.333 25 94.333 25 117c0 14.667 -0.5 25 -1.5 31s-3.83301 12.5 -8.5 19.5s-12.667 11.667 -24 14s-26.666 3.5 -45.999 3.5c-33.333 -0 -63.666 -1.16699 -90.999 -3.5
s-52.333 -3.5 -75 -3.5c-14.667 0 -26.834 0.666992 -36.501 2s-19.834 4.66602 -30.501 9.99902s-18.667 13.833 -24 25.5s-8 26.834 -8 45.501c0 14 2.33301 62.333 7 145c2 42 3 78 3 108c0 41.333 -4.66699 68.833 -14 82.5s-24.333 21.5 -45 23.5l2 28c40 6 71 9 93 9
c31.333 0 47 -25 47 -75c0 -4 -1.66699 -42.667 -5 -116c-4 -80 -6 -128 -6 -144c0 -21.333 0.5 -36.5 1.5 -45.5s4 -18.667 9 -29s13.333 -17.166 25 -20.499s27.834 -5 48.501 -5c34 0 68.333 1.33301 103 4c-0.666992 2 -1.66699 5.33301 -3 10
s-2.83301 18.167 -4.5 40.5s-1.83398 49.166 -0.500977 80.499l4 111c0.666992 20.667 1 43.667 1 69c0 33.333 -3 55.333 -9 66s-16 16.334 -30 17.001l1 28c34.667 6 64.334 9 89.001 9c8 0 13.833 -0.666992 17.5 -2s7 -6.33301 10 -15s4.16699 -21.667 3.5 -39
c0 -3.33301 -0.166992 -11.666 -0.5 -24.999s-0.833008 -28.833 -1.5 -46.5s-1 -30.5 -1 -38.5l-4 -111c-1.33301 -30.667 -2 -62.334 -2 -95.001c0 -16.667 1.66699 -30 5 -40s9.33301 -16.833 18 -20.5s16 -5.83398 22 -6.50098s16.667 -1 32 -1z" />
    <glyph glyph-name="afii10089" unicode="&#x447;" horiz-adv-x="457" 
d="M438 32l-2.00098 -24.002c-42.667 -8.66699 -71.334 -13 -86.001 -13c-22.667 0 -37 8 -43 24c-6.66699 16 -9 45.333 -7 88l3 65l2 62l-23 -18c-15.333 -12 -36 -22.5 -62 -31.5s-49.333 -13.5 -70 -13.5c-61.333 0 -90.666 33.333 -87.999 100
c0 9.33301 0.333008 20.333 1 33s1.16699 25.167 1.5 37.5s0.5 25.833 0.5 40.5c0 8 -0.5 15.167 -1.5 21.5s-2.83301 11.333 -5.5 15s-5 6.66699 -7 9s-5.16699 4 -9.5 5s-7.5 1.66699 -9.5 2s-5.33301 0.5 -10 0.5h-9l1 28c44.667 6 79.334 9 104.001 9
c10.667 0 18.5 -3 23.5 -9s7.5 -18.667 7.5 -38c0 -5.33301 -0.666992 -24.333 -2 -57s-2 -59 -2 -79c0 -22.667 4.66699 -39.5 14 -50.5s26 -16.5 50 -16.5c24.667 0 46 8.83301 64 26.5s29.333 34.834 34 51.501l1 81c0.666992 20.667 -2 34.5 -8 41.5
s-14.667 10.833 -26 11.5l1 28c32.667 6 61.334 9 86.001 9c11.333 0 19.5 -3.5 24.5 -10.5s7.16699 -22.167 6.5 -45.5c0 -5.33301 -0.666992 -21 -2 -47s-2.33301 -46.667 -3 -62l-4 -111c-2.66699 -41.333 -3.33398 -76.666 -2.00098 -105.999
c1.33301 -38 20.333 -57 57 -57z" />
    <glyph glyph-name="afii10090" unicode="&#x448;" horiz-adv-x="720" 
d="M693 29l-1.00293 -27.002c-62 -3.33301 -103 -5 -123 -5h-213c-1.33301 0 -14.333 -0.333008 -39 -1s-53.667 -1.33398 -87 -2.00098s-61 -1 -83 -1c-20 0 -34.667 4.33301 -44 13s-15.833 25.5 -19.5 50.5s-4.83398 63.5 -3.50098 115.5l3 111
c0.666992 14.667 1 28 1 40s-0.333008 22.833 -1 32.5s-1.16699 18 -1.5 25s-1.5 13.167 -3.5 18.5s-3.5 9.83301 -4.5 13.5s-3.16699 6.83398 -6.5 9.50098s-5.66602 4.66699 -6.99902 6s-4.16602 2.5 -8.49902 3.5s-7.66602 1.66699 -9.99902 2
s-6.16602 0.833008 -11.499 1.5l1 28c44.667 6 79.334 9 104.001 9c8 0 13.667 -0.666992 17 -2s6.5 -6.16602 9.5 -14.499s4.5 -21.5 4.5 -39.5c0 -19.333 -1.66699 -70.666 -5 -153.999c-2 -64 -3 -108 -3 -132c0 -36 6.33301 -60.5 19 -73.5s34 -19.5 64 -19.5h97
c-8.66699 14.667 -13 51 -13 109l1 137v99c0 8 -0.666992 15.167 -2 21.5s-3.33301 11.333 -6 15s-5 6.66699 -7 9s-5 4 -9 5s-7 1.66699 -9 2s-5.33301 0.5 -10 0.5h-9l1 28c44 6 78.333 9 103 9c8 0 13.833 -0.666992 17.5 -2s7 -6.33301 10 -15s4.16699 -21.667 3.5 -39
l-3 -110c-3.33301 -120 -5 -181 -5 -183c0 -31.333 2.33301 -52.666 7 -63.999s12.667 -18 24 -20c8 -1.33301 58 -2 150 -2c-10.667 18 -16 55.667 -16 113l3 133c0.666992 34 0.666992 67 0 99c0 8 -0.666992 15.167 -2 21.5s-3.33301 11.333 -6 15s-5 6.66699 -7 9
s-5 4 -9 5s-7 1.66699 -9 2s-5.33301 0.5 -10 0.5h-9l1 28c44 6 78.333 9 103 9c8 0 13.833 -0.666992 17.5 -2s7 -6.33301 10 -15s4.16699 -21.667 3.5 -39l-3 -110c-2.66699 -78.667 -4 -130.334 -4 -155.001c0 -48 2.66699 -79.167 8 -93.5s18.666 -23.833 39.999 -28.5z
" />
    <glyph glyph-name="afii10091" unicode="&#x449;" horiz-adv-x="733" 
d="M722 32c0 -30 -7.66992 -68.001 -23.0029 -114.001s-30 -79.667 -44 -101l-29 -2c16.667 55.333 25 94.333 25 117c0 25.333 -5.16699 43 -15.5 53s-31.833 15 -64.5 15c-20.667 0 -55.334 -0.5 -104.001 -1.5s-85.667 -1.5 -111 -1.5
c-1.33301 0 -14.333 -0.333008 -39 -1s-53.667 -1.33398 -87 -2.00098s-61 -1 -83 -1c-20 0 -34.667 4.33301 -44 13s-15.833 25.5 -19.5 50.5s-4.83398 63.5 -3.50098 115.5l3 111c0.666992 14.667 1 28 1 40s-0.333008 22.833 -1 32.5s-1.16699 18 -1.5 25
s-1.5 13.167 -3.5 18.5s-3.5 9.83301 -4.5 13.5s-3.16699 6.83398 -6.5 9.50098s-5.66602 4.66699 -6.99902 6s-4.16602 2.5 -8.49902 3.5s-7.66602 1.66699 -9.99902 2s-6.16602 0.833008 -11.499 1.5l1 28c44.667 6 79.334 9 104.001 9c8 0 13.667 -0.666992 17 -2
s6.5 -6.16602 9.5 -14.499s4.5 -21.5 4.5 -39.5c0 -19.333 -1.66699 -70.666 -5 -153.999c-2 -64 -3 -108 -3 -132c0 -36 6.33301 -60.5 19 -73.5s34 -19.5 64 -19.5h97c-8.66699 14.667 -13 51 -13 109l1 137v99c0 8 -0.666992 15.167 -2 21.5s-3.33301 11.333 -6 15
s-5 6.66699 -7 9s-5 4 -9 5s-7 1.66699 -9 2s-5.33301 0.5 -10 0.5h-9l1 28c44 6 78.333 9 103 9c8 0 13.833 -0.666992 17.5 -2s7 -6.33301 10 -15s4.16699 -21.667 3.5 -39l-3 -110c-3.33301 -120 -5 -181 -5 -183c0 -31.333 2.33301 -52.666 7 -63.999s12.667 -18 24 -20
c8 -1.33301 58 -2 150 -2c-10.667 18 -16 55.667 -16 113l3 133c0.666992 34 0.666992 67 0 99c0 8 -0.666992 15.167 -2 21.5s-3.33301 11.333 -6 15s-5 6.66699 -7 9s-5 4 -9 5s-7 1.66699 -9 2s-5.33301 0.5 -10 0.5h-9l1 28c44 6 78.333 9 103 9
c8 0 13.833 -0.666992 17.5 -2s7 -6.33301 10 -15s4.16699 -21.667 3.5 -39l-3 -110c-2.66699 -78.667 -4 -147.334 -4 -206.001c0 -16.667 1.66699 -30 5 -40s9.33301 -16.833 18 -20.5s16 -5.83398 22 -6.50098s16.667 -1 32 -1z" />
    <glyph glyph-name="afii10092" unicode="&#x44a;" horiz-adv-x="530" 
d="M510 181c0 -56.667 -22.3311 -102.834 -66.998 -138.501s-92.667 -53.5 -144 -53.5c-80.667 0 -121 15 -121 45c0 6.66699 1.16699 27.334 3.5 62.001s3.83301 59.667 4.5 75l4 112c3.33301 98 1.66602 146.667 -5.00098 146c-12 2 -24.667 3 -38 3
c-25.333 0 -45.166 -12.5 -59.499 -37.5s-26.833 -58.167 -37.5 -99.5l-25 -6c1.33301 33.333 7 91.333 17 174l10 8c32 -1.33301 64.667 -2 98 -2c17.333 0 39.333 0.333008 66 1s41.667 1 45 1l11 -8c-0.666992 -9.33301 -1.33398 -25.333 -2.00098 -48l-2.5 -81l-2.5 -76
c-4.66699 -96.667 -7 -154.667 -7 -174c0 -20.667 4.16699 -35 12.5 -43s20.833 -12 37.5 -12c34.667 0 63.667 13 87 39s35 60.333 35 103c0 60 -24.667 90 -74 90c-22.667 0 -46.334 -5.66699 -71.001 -17l-2 32c42.667 18 79 27 109 27c78.667 0 118 -40.667 118 -122z
" />
    <glyph glyph-name="afii10093" unicode="&#x44b;" horiz-adv-x="614" 
d="M599 29l-2 -24c-36.667 -6.66699 -63.334 -10 -80.001 -10c-20 0 -35.333 5.83301 -46 17.5s-16 33.5 -16 65.5c0 3.33301 1.16699 27 3.5 71s3.83301 75.667 4.5 95c1.33301 78.667 2 123.667 2 135c0 6.66699 -0.333008 12.5 -1 17.5s-1.83398 9.33301 -3.50098 13
l-4.5 10c-1.33301 3 -3.66602 5.33301 -6.99902 7s-5.66602 3 -6.99902 4s-4 1.83301 -8 2.5s-6.5 1.16699 -7.5 1.5s-3.5 0.5 -7.5 0.5h-7l1 28c44 6 78.333 9 103 9c8 0 13.667 -0.666992 17 -2s6.5 -6.16602 9.5 -14.499s4.5 -21.5 4.5 -39.5
c0 -30.667 -1 -67.334 -3 -110.001c-4.66699 -94.667 -7 -154.667 -7 -180c0 -36 4.66699 -61.167 14 -75.5s25.333 -21.5 48 -21.5zM403 181c0 -56.667 -22.3369 -102.836 -67.0039 -138.503s-92.667 -53.5 -144 -53.5c-80.667 0 -121 15 -121 45
c0 6.66699 1.16699 27.334 3.5 62.001s3.83301 59.667 4.5 75l4 112c0.666992 14.667 1 28 1 40s-0.333008 22.833 -1 32.5s-1.16699 18 -1.5 25s-1.5 13.167 -3.5 18.5s-3.5 9.83301 -4.5 13.5s-3.16699 6.83398 -6.5 9.50098s-5.66602 4.66699 -6.99902 6
s-4.16602 2.5 -8.49902 3.5s-7.66602 1.66699 -9.99902 2s-6.16602 0.833008 -11.499 1.5l1 28c44.667 6 79.334 9 104.001 9c8 0 13.667 -0.666992 17 -2s6.5 -6.16602 9.5 -14.499s4.5 -21.5 4.5 -39.5c0 -4.66699 -0.5 -17.167 -1.5 -37.5s-2.16699 -46.333 -3.5 -78
s-2.33301 -57.167 -3 -76.5c-3.33301 -68.667 -5 -113 -5 -133c0 -41.333 16 -62 48 -62c34.667 0 63.667 13 87 39s35 60.333 35 103c0 60 -24.667 90 -74 90c-22.667 0 -46.334 -5.66699 -71.001 -17l-2 32c42.667 18 79 27 109 27c78.667 0 118 -40.667 118 -122z" />
    <glyph glyph-name="afii10094" unicode="&#x44c;" horiz-adv-x="422" 
d="M403 181c0 -56.667 -22.3369 -102.836 -67.0039 -138.503s-92.667 -53.5 -144 -53.5c-80.667 0 -121 15 -121 45c0 6.66699 1.16699 27.334 3.5 62.001s3.83301 59.667 4.5 75l4 112c0.666992 14.667 1 28 1 40s-0.333008 22.833 -1 32.5s-1.16699 18 -1.5 25
s-1.5 13.167 -3.5 18.5s-3.5 9.83301 -4.5 13.5s-3.16699 6.83398 -6.5 9.50098s-5.66602 4.66699 -6.99902 6s-4.16602 2.5 -8.49902 3.5s-7.66602 1.66699 -9.99902 2s-6.16602 0.833008 -11.499 1.5l1 28c44.667 6 79.334 9 104.001 9c8 0 13.667 -0.666992 17 -2
s6.5 -6.16602 9.5 -14.499s4.5 -21.5 4.5 -39.5c0 -4.66699 -0.5 -17.167 -1.5 -37.5s-2.16699 -46.333 -3.5 -78s-2.33301 -57.167 -3 -76.5c-3.33301 -68.667 -5 -113 -5 -133c0 -41.333 16 -62 48 -62c34.667 0 63.667 13 87 39s35 60.333 35 103c0 60 -24.667 90 -74 90
c-22.667 0 -46.334 -5.66699 -71.001 -17l-2 32c42.667 18 79 27 109 27c78.667 0 118 -40.667 118 -122z" />
    <glyph glyph-name="afii10095" unicode="&#x44d;" horiz-adv-x="410" 
d="M377 259c0 -80.667 -21.001 -145.497 -63.001 -194.497s-92.333 -73.5 -151 -73.5c-32.667 0 -59.667 4 -81 12s-35.333 16.5 -42 25.5s-10 18.167 -10 27.5c0 19.333 15.333 39.333 46 60l11 -10c6 -24 16.833 -42.167 32.5 -54.5s33.167 -18.5 52.5 -18.5
c36.667 0 65.667 15.667 87 47s32 78.666 32 141.999l-181 -15l7 52l175 -4c0 70 -9.66699 118 -29 144s-44.666 39 -75.999 39c-33.333 0 -56.833 -10.167 -70.5 -30.5s-19.5 -42.5 -17.5 -66.5l-12 -10c-22.667 2 -38.834 8.33301 -48.501 19s-14.5 21.667 -14.5 33
c0 25.333 15.333 47.333 46 66s70.334 28 119.001 28c24 0 46.5 -3.5 67.5 -10.5s40.833 -18.333 59.5 -34s33.5 -38.334 44.5 -68.001s16.5 -64.834 16.5 -105.501z" />
    <glyph glyph-name="afii10096" unicode="&#x44e;" horiz-adv-x="684" 
d="M647 248c0 -72.667 -19.0039 -133.664 -57.0039 -182.997s-88.333 -74 -151 -74c-58 0 -103.5 19.667 -136.5 59s-49.833 96.666 -50.5 171.999h-93l-1 -27c-2 -50 -2.66699 -87.333 -2 -112c0.666992 -18 3.33398 -30.833 8.00098 -38.5s13.334 -12.834 26.001 -15.501
l-1 -27c-35.333 -4.66699 -61.666 -7 -78.999 -7c-14 0 -23.333 4.16699 -28 12.5s-7 26.166 -7 53.499c0 24.667 1 61.667 3 111l4 111c1.33301 44 1 77 -1 99c-0.666992 9.33301 -2 17.5 -4 24.5s-4 12.333 -6 16s-5.5 6.5 -10.5 8.5s-8.33301 3.16699 -10 3.5
s-5.5 0.5 -11.5 0.5h-10l1 28c44.667 6 79.334 9 104.001 9c8 0 13.667 -0.666992 17 -2s6.5 -6.16602 9.5 -14.499s4.5 -21.5 4.5 -39.5l-3 -110l-2 -45l94 3c4 39.333 13.667 73.666 29 102.999s33.833 51.5 55.5 66.5s43 26 64 33s42.167 10.5 63.5 10.5
c52 0 95.167 -17.333 129.5 -52s51.5 -93.667 51.5 -177zM560.996 237.003c0 42 -2.66602 76.835 -7.99902 104.502s-13.333 48.167 -24 61.5s-21.667 22.5 -33 27.5s-25 7.5 -41 7.5c-33.333 0 -61.333 -16 -84 -48s-34 -83 -34 -153c0 -74.667 10 -127.834 30 -159.501
s45.667 -47.5 77 -47.5c33.333 0 61.166 16.667 83.499 50s33.5 85.666 33.5 156.999z" />
    <glyph glyph-name="afii10097" unicode="&#x44f;" horiz-adv-x="451" 
d="M434 32l-2.00293 -23.9971c-42.667 -8.66699 -71.334 -13 -86.001 -13c-8.66699 0 -15.334 0.666992 -20.001 2s-9.66699 4.66602 -15 9.99902s-9.33301 14.166 -12 26.499s-4 28.5 -4 48.5c0 12 0.666992 29.667 2 53s2 35.666 2 36.999l6 143
c2 50.667 2 80.334 0 89.001c-1.33301 10.667 -4.66602 18.334 -9.99902 23.001s-10.166 7.16699 -14.499 7.5s-12.5 0.5 -24.5 0.5c-25.333 0 -48.833 -8 -70.5 -24s-33.167 -42 -34.5 -78c-0.666992 -22 2.83301 -40.5 10.5 -55.5s18.5 -25.333 32.5 -31
s26.333 -9.5 37 -11.5s22.334 -3 35.001 -3h26l-1 -28h-9c-10 0 -19.667 -2.33301 -29 -7s-18.666 -13.334 -27.999 -26.001s-16.166 -22.334 -20.499 -29.001s-11.666 -19.667 -21.999 -39s-16.166 -30.333 -17.499 -33c-14.667 -28 -27.834 -47.5 -39.501 -58.5
s-29.167 -16.5 -52.5 -16.5c-8.66699 0 -18.167 1 -28.5 3s-18.5 4 -24.5 6l-9 2l1 26c12 -1.33301 23 1 33 7s17.5 12.333 22.5 19s11.833 17 20.5 31c20.667 32.667 38.5 57.667 53.5 75s34.833 32.333 59.5 45v4c-34.667 2.66699 -65.667 13.667 -93 33
s-40.333 48.333 -39 87c3.33301 94 79 141 227 141c43.333 0 75 -4.66699 95 -14c-4 -52.667 -6.66699 -104 -8 -154l-4 -111c-2.66699 -48 -3.33398 -83.333 -2.00098 -106c1.33301 -38 20.333 -57 57 -57z" />
    <glyph glyph-name="afii10071" unicode="&#x451;" horiz-adv-x="429" 
d="M401 373c-1.33301 -36.667 -17.1689 -65.501 -47.502 -86.501s-67.5 -34.5 -111.5 -40.5l-105 -14c-2 -54 9.83301 -98.833 35.5 -134.5s58.834 -53.5 99.501 -53.5c25.333 0 48.333 3 69 9s35 12.333 43 19l12 9v-32c-4.66699 -4 -11.334 -9.33301 -20.001 -16
s-27 -15.334 -55 -26.001s-57 -16 -87 -16c-52.667 0 -96.667 19.167 -132 57.5s-51.666 97.5 -48.999 177.5c1.33301 46 10.333 86.333 27 121s37.167 60.834 61.5 78.501s47.833 30.667 70.5 39s44 12.5 64 12.5c15.333 0 29.5 -1.33301 42.5 -4s26.333 -7.5 40 -14.5
s24.334 -17.667 32.001 -32s11.167 -32.166 10.5 -53.499zM317.997 370.999c0.666992 18.667 -3.66797 34.167 -13.001 46.5s-23.666 18.5 -42.999 18.5c-30.667 0 -57.334 -12.833 -80.001 -38.5s-37 -68.5 -43 -128.5l78 9c64.667 7.33301 98.334 38.333 101.001 93z
M371.995 594.999c0 -15.333 -5.5 -28.666 -16.5 -39.999s-23.833 -17 -38.5 -17s-27.5 5.66699 -38.5 17s-16.5 24.666 -16.5 39.999s5.5 28.666 16.5 39.999s23.833 17 38.5 17s27.5 -5.66699 38.5 -17s16.5 -24.666 16.5 -39.999zM220.995 594.999
c0 -15.333 -5.5 -28.666 -16.5 -39.999s-23.833 -17 -38.5 -17s-27.5 5.66699 -38.5 17s-16.5 24.666 -16.5 39.999s5.5 28.666 16.5 39.999s23.833 17 38.5 17s27.5 -5.66699 38.5 -17s16.5 -24.666 16.5 -39.999z" />
    <glyph glyph-name="afii10099" unicode="&#x452;" horiz-adv-x="455" 
d="M413 246c0 -117.333 -13.668 -216.998 -41.001 -298.998c-38 -115.333 -95.333 -173 -172 -173c-40 0 -60 11 -60 33c0 12 4.16699 24.833 12.5 38.5s18.833 24.167 31.5 31.5l6 -4c7.33301 -30.667 23.666 -46 48.999 -46c33.333 0 57.166 27.167 71.499 81.5
s21.5 142.166 21.5 263.499v91c0 92 -20 138 -60 138c-24.667 0 -46 -12 -64 -36s-30.667 -49 -38 -75s-11.333 -50 -12 -72l-1 -23c-2 -41.333 -2.33301 -78.666 -1 -111.999c1.33301 -18 4.33301 -30.833 9 -38.5s13.334 -12.834 26.001 -15.501l-1 -27
c-35.333 -4.66699 -61.666 -7 -78.999 -7c-14.667 0 -24.334 4.83301 -29.001 14.5s-7 31.167 -7 64.5c0 14.667 0.666992 47.334 2 98.001c6.66699 241.333 10 363.333 10 366l-85 4l8 34l76 7c0 52.667 -20 79 -60 79l-1 23c46.667 8 80 12 100 12
c7.33301 0 13 -0.833008 17 -2.5s8.33301 -5.83398 13 -12.501s7.83398 -17.834 9.50098 -33.501s2.5 -36.5 2.5 -62.5l148 -2l-12 -37c-91.333 -6 -137 -9.33301 -137 -10l-5 -198c15.333 46 36.333 80 63 102s52.334 33 77.001 33c74.667 0 112 -76 112 -228z" />
    <glyph glyph-name="afii10100" unicode="&#x453;" horiz-adv-x="391" 
d="M355 110l12.001 -30.002c-59.333 -59.333 -120.666 -89 -183.999 -89c-96 0 -144 37.667 -144 113c0 15.333 2.83301 29.5 8.5 42.5s15.167 25.167 28.5 36.5s24.333 20.166 33 26.499s23.334 15.333 44.001 27l40 22.5c50 30.667 75 67.334 75 110.001
c0 37.333 -21.667 56 -65 56c-35.333 0 -79.333 -24.333 -132 -73l-19 25c66 66 130.667 99 194 99c12 0 23.5 -1 34.5 -3s23.167 -5.5 36.5 -10.5s24.166 -13.667 32.499 -26s12.5 -27.5 12.5 -45.5c0 -21.333 -3.33301 -40.166 -10 -56.499s-18.5 -31.666 -35.5 -45.999
s-30.833 -25 -41.5 -32s-29.334 -17.833 -56.001 -32.5c-0.666992 -0.666992 -4.83398 -3 -12.501 -7s-12.334 -6.66699 -14.001 -8s-5.83398 -4 -12.501 -8s-11.167 -7.33301 -13.5 -10s-6 -6.33398 -11 -11.001s-8.66699 -9.16699 -11 -13.5s-4.83301 -9.33301 -7.5 -15
s-4.5 -11.667 -5.5 -18s-1.5 -13.166 -1.5 -20.499c0 -17.333 6.33301 -33 19 -47s34.334 -21 65.001 -21c22.667 0 47.834 6.66699 75.501 20s49.5 28.333 65.5 45zM268.001 653.998l82 -13l-135 -123l-26 7z" />
    <glyph glyph-name="afii10101" unicode="&#x454;" horiz-adv-x="401" 
d="M390 413c-0.666992 -8.66699 -7.00195 -18.3311 -19.002 -28.998s-27.333 -18.334 -46 -23.001l-12 10c-0.666992 20 -7 35.833 -19 47.5s-27.667 17.5 -47 17.5c-32 0 -58.333 -15 -79 -45s-32.334 -74.667 -35.001 -134l203 7l-10 -59
c-21.333 4 -85.666 8.66699 -192.999 14c2 -117.333 48 -176 138 -176c19.333 0 38.166 3.83301 56.499 11.5s31.833 15.167 40.5 22.5l12 11l7 -32c-4.66699 -4.66699 -11.167 -10.5 -19.5 -17.5s-26.166 -16.333 -53.499 -28s-55.666 -17.5 -84.999 -17.5
c-50.667 0 -93.167 18.167 -127.5 54.5s-51.5 91.166 -51.5 164.499c0 48 7 90 21 126s31.833 63.667 53.5 83s43.834 33.5 66.501 42.5s45 13.5 67 13.5c88 0 132 -21.333 132 -64z" />
    <glyph glyph-name="afii10102" unicode="&#x455;" horiz-adv-x="387" 
d="M361 149c0 -36 -18.332 -71.3359 -54.999 -106.003s-83 -52 -139 -52c-26 0 -48.333 2.5 -67 7.5s-32.167 11.333 -40.5 19s-14.333 15 -18 22s-5.5 13.833 -5.5 20.5c0 26 23.333 46 70 60l10 -10c0 -52 24.333 -78 73 -78c28.667 0 51 8.33301 67 25
s24 40.334 24 71.001c0 12 -2.5 22.667 -7.5 32s-12.667 17.333 -23 24s-20.166 12.167 -29.499 16.5s-21.333 9.16602 -36 14.499s-25.667 9.66602 -33 12.999c-17.333 8 -30.833 14.833 -40.5 20.5s-20.167 13.334 -31.5 23.001s-19.666 21.334 -24.999 35.001
s-8 29.5 -8 47.5c0 34.667 15.167 63.834 45.5 87.501s71.5 35.5 123.5 35.5c48 0 82.667 -6.5 104 -19.5s32 -27.833 32 -44.5c0 -25.333 -23 -43.333 -69 -54l-8 8c0 47.333 -23.333 71 -70 71c-22.667 0 -41.334 -5.66699 -56.001 -17s-22 -28.666 -22 -51.999
c0 -12 2.16699 -22.5 6.5 -31.5s11.166 -16.833 20.499 -23.5s17.166 -11.667 23.499 -15s16 -7.33301 29 -12s20.833 -7.66699 23.5 -9c4 -2 13.667 -6 29 -12s26 -10.5 32 -13.5s14.667 -8.16699 26 -15.5s19.5 -14.5 24.5 -21.5s9.66699 -16.333 14 -28
s6.5 -24.5 6.5 -38.5z" />
    <glyph glyph-name="afii10103" unicode="&#x456;" horiz-adv-x="230" 
d="M171 595c0 -15.333 -5.66699 -28.666 -17 -39.999s-24.666 -17 -39.999 -17s-28.666 5.66699 -39.999 17s-17 24.666 -17 39.999s5.66699 28.666 17 39.999s24.666 17 39.999 17s28.666 -5.66699 39.999 -17s17 -24.666 17 -39.999zM211 29l-1.99902 -23.999
c-36.667 -6.66699 -63.334 -10 -80.001 -10c-20 0 -35.333 5.83301 -46 17.5s-16 33.5 -16 65.5c0 4 0.5 15.667 1.5 35l3.5 68.5c1.33301 26.333 2.33301 47.166 3 62.499c0.666992 22 1 50.333 1 85c0 41.333 -4.66699 68.833 -14 82.5s-24.333 21.5 -45 23.5l2 28
c40 6 71 9 93 9c31.333 0 47 -24.333 47 -73c0 -19.333 -1 -50.333 -3 -93c-4.66699 -94.667 -7 -154.667 -7 -180c0 -36 4.66699 -61.167 14 -75.5s25.333 -21.5 48 -21.5z" />
    <glyph glyph-name="afii10104" unicode="&#x457;" horiz-adv-x="245" 
d="M223 595c0 -16 -4.16699 -29.5 -12.5 -40.5s-19.833 -16.5 -34.5 -16.5s-26.167 5.5 -34.5 16.5s-12.5 24.5 -12.5 40.5s4.16699 29.5 12.5 40.5s19.833 16.5 34.5 16.5s26.167 -5.5 34.5 -16.5s12.5 -24.5 12.5 -40.5zM103 595c0 -16 -4.16699 -29.5 -12.5 -40.5
s-19.833 -16.5 -34.5 -16.5s-26.167 5.5 -34.5 16.5s-12.5 24.5 -12.5 40.5s4.16699 29.5 12.5 40.5s19.833 16.5 34.5 16.5s26.167 -5.5 34.5 -16.5s12.5 -24.5 12.5 -40.5zM212 29l0.000976562 -27.001c-35.333 -4.66699 -61.666 -7 -78.999 -7
c-16.667 0 -27.334 7 -32.001 21c-4 14 -6 66 -6 156v111c0 15.333 -1.33301 48.333 -4 99c-0.666992 8 -1.66699 15.167 -3 21.5s-3.33301 11.333 -6 15s-5.16699 6.66699 -7.5 9s-5.5 4 -9.5 5s-7 1.66699 -9 2s-5.33301 0.5 -10 0.5h-9v28c44 6 78.333 9 103 9
c8 0 13.667 -0.666992 17 -2s6.66602 -6.16602 9.99902 -14.499s5.33301 -21.5 6 -39.5c0.666992 -8 1 -44.667 1 -110v-111c0 -55.333 0.666992 -92.666 2 -111.999c1.33301 -18 4.5 -30.833 9.5 -38.5s13.833 -12.834 26.5 -15.501z" />
    <glyph glyph-name="afii10105" unicode="&#x458;" horiz-adv-x="238" 
d="M182 595c0 -15.333 -5.66699 -28.666 -17 -39.999s-24.666 -17 -39.999 -17s-28.666 5.66699 -39.999 17s-17 24.666 -17 39.999s5.66699 28.666 17 39.999s24.666 17 39.999 17s28.666 -5.66699 39.999 -17s17 -24.666 17 -39.999zM182 399
c0 -2.66699 -1.66504 -70.6689 -4.99805 -204.002c-3.33301 -121.333 -15 -210.666 -35 -267.999c-14 -40 -36.167 -75.5 -66.5 -106.5s-61.833 -46.5 -94.5 -46.5c-32 0 -48 6.33301 -48 19c-0.666992 16.667 4.33301 39.334 15 68.001l14 4c20 -23.333 38.333 -35 55 -35
c12.667 0 23.5 3.5 32.5 10.5s16.333 17.5 22 31.5s10.167 29.667 13.5 47s5.66602 37.833 6.99902 61.5s2.16602 47.167 2.49902 70.5s0.5 49.333 0.5 78v43c0 16 0.333008 42.5 1 79.5s0.666992 62.833 0 77.5c-0.666992 42 -5.16699 69.667 -13.5 83s-22.5 21 -42.5 23
l2 28c40 6 71 9 93 9c31.333 0 47 -24.333 47 -73z" />
    <glyph glyph-name="afii10106" unicode="&#x459;" horiz-adv-x="621" 
d="M602 158c0 -50.667 -17.833 -91.4971 -53.5 -122.497s-76.834 -46.5 -123.501 -46.5c-27.333 0 -53.333 3.66699 -78 11s-39 17 -43 29c-2 5.33301 -4.5 15.833 -7.5 31.5l-10.5 57.5c-4 22.667 -7.33301 40 -10 52l-34 174c-8.66699 45.333 -16.667 74 -24 86h-8
l-25 -76c-52 -158 -77.333 -250.333 -76 -277c0.666992 -18 3 -30.167 7 -36.5s12.333 -11.5 25 -15.5l-1 -19c-24 -10 -48 -15 -72 -15c-19.333 0 -29.666 11.333 -30.999 34c-2.66699 32 12.333 88.667 45 170l31 78l14 33.5l12.5 31l9.5 24.5
c3.33301 8.66699 5.66602 16.167 6.99902 22.5s2 11.833 2 16.5c-1.33301 21.333 -17.666 32.666 -48.999 33.999v23c56 10.667 100 16 132 16c14 0 23.667 -0.333008 29 -1s11 -2.66699 17 -6s10.333 -9.33301 13 -18s5.66699 -20 9 -34s7 -32.667 11 -56v-1l24 -134
c16.667 -93.333 27 -146 31 -158c8 -24.667 28 -37 60 -37c27.333 0 49.333 9.16699 66 27.5s25 47.166 25 86.499c0 26 -3.83301 47.5 -11.5 64.5s-17.667 28.667 -30 35s-22.5 10.5 -30.5 12.5s-16.667 3 -26 3c-24.667 0 -47 -4.33301 -67 -13l-5 35
c26.667 13.333 60.334 20 101.001 20c10 0 20.167 -0.666992 30.5 -2s22.666 -4.83301 36.999 -10.5s27 -13.334 38 -23.001s20.333 -23.667 28 -42s11.5 -39.833 11.5 -64.5z" />
    <glyph glyph-name="afii10107" unicode="&#x45a;" horiz-adv-x="686" 
d="M415 84c0 -20.667 4.16406 -34.999 12.4971 -42.999s20.833 -12 37.5 -12c34.667 0 63.667 13 87 39s35 60.333 35 103c0 60 -24.667 90 -74 90c-22.667 0 -46.334 -5.66699 -71.001 -17l-2 32c42.667 18 79 27 109 27c78.667 0 118 -40.667 118 -122
c0 -56.667 -22.333 -102.834 -67 -138.501s-92.667 -53.5 -144 -53.5c-80.667 0 -121 15 -121 45c0 6.66699 1.16699 27.334 3.5 62.001s3.83301 59.667 4.5 75l2 51h-186l-1 -27c-2 -50 -2.66699 -87.333 -2 -112c0.666992 -18 3.33398 -30.833 8.00098 -38.5
s13.334 -12.834 26.001 -15.501l-1 -27c-35.333 -4.66699 -61.666 -7 -78.999 -7c-14 0 -23.333 4.16699 -28 12.5s-7 26.166 -7 53.499c0 24.667 1 61.667 3 111l4 111c1.33301 44 1 77 -1 99c-0.666992 9.33301 -2 17.5 -4 24.5s-4 12.333 -6 16s-5.5 6.5 -10.5 8.5
s-8.33301 3.16699 -10 3.5s-5.5 0.5 -11.5 0.5h-10l1 28c44.667 6 79.334 9 104.001 9c8 0 13.667 -0.666992 17 -2s6.5 -6.16602 9.5 -14.499s4.5 -21.5 4.5 -39.5l-3 -110l-2 -45l186 7l1 19c2 22 3 43.333 3 64c0 24.667 -1.83301 43.167 -5.5 55.5
s-7.66699 19.833 -12 22.5s-11.833 4.66699 -22.5 6l1 28c28 6 54.333 9 79 9c6.66699 0 11.5 -0.333008 14.5 -1s6.83301 -2.5 11.5 -5.5s8 -8.66699 10 -17s3.33301 -19.166 4 -32.499c0.666992 -26.667 -0.333008 -63.334 -3 -110.001c-8 -129.333 -12 -203.333 -12 -222
z" />
    <glyph glyph-name="afii10108" unicode="&#x45b;" horiz-adv-x="482" 
d="M474 29l-1.99805 -24.0029c-36.667 -6.66699 -63.334 -10 -80.001 -10c-22 0 -37.833 6.16699 -47.5 18.5s-14.5 38.833 -14.5 79.5c0 2.66699 0.5 15 1.5 37s2 47.667 3 77s1.5 54.666 1.5 75.999c0 45.333 -4 76.333 -12 93s-23 25 -45 25
c-27.333 0 -52.833 -18.667 -76.5 -56s-38.834 -87.333 -45.501 -150c-2.66699 -28 -4 -65 -4 -111c0 -17.333 2.66699 -30.166 8 -38.499s14.666 -13.833 27.999 -16.5l-1 -27c-35.333 -4.66699 -61.666 -7 -78.999 -7c-14.667 0 -24.667 4.33301 -30 13
s-8 26.334 -8 53.001c0 8.66699 1 28 3 58s3 51 3 63l4 101c4 104 6 189 6 255l-88 4l8 34l78 6c-2 30.667 -7.33301 51.667 -16 63s-23 17 -43 17l-1 23c46.667 8 80 12 100 12c6.66699 0 12 -0.833008 16 -2.5s8.33301 -5.5 13 -11.5s8 -16.667 10 -32s3 -35.333 3 -60
l148 -7l-12 -37l-137 -8c-2 -124 -3.66699 -193 -5 -207c22 52 49 88.667 81 110s60.667 32 86 32c30.667 0 53 -9.66699 67 -29s21 -58.333 21 -117c0 -13.333 -1 -43.666 -3 -90.999s-3 -75.666 -3 -84.999c0 -50 4.66699 -83 14 -99s26 -24 50 -24z" />
    <glyph glyph-name="afii10109" unicode="&#x45c;" horiz-adv-x="438" 
d="M444 29l-1 -27.001c-25.333 -6.66699 -50 -10 -74 -10c-3.33301 0 -6.5 0.166992 -9.5 0.5s-6 1.33301 -9 3s-5.66699 2.83398 -8 3.50098s-4.83301 2.5 -7.5 5.5s-4.83398 5 -6.50098 6s-4 3.5 -7 7.5s-5 6.83301 -6 8.5s-3.16699 5 -6.5 10
s-5.66602 8.16699 -6.99902 9.5c-9.33301 12.667 -25 36.667 -47 72c-42 66.667 -73 107.667 -93 123l1 15c42 18.667 77.667 44.667 107 78c26 31.333 39.667 58.666 41 81.999c0 16 -5.33301 26 -16 30v17c36 4.66699 65 7 87 7c15.333 0 23 -6 23 -18
c0.666992 -16 -14 -42.333 -44 -79c-18.667 -22 -40.167 -44 -64.5 -66s-43.5 -37.667 -57.5 -47c16 -11.333 37.667 -37.333 65 -78c6 -8 14 -19.333 24 -34l27 -39l20 -28c12.667 -16.667 23.667 -28.667 33 -36s21.333 -12.666 36 -15.999zM185 28.999l-1.00781 -27.001
c-35.333 -4.66699 -61.666 -7 -78.999 -7c-14.667 0 -24.167 4.83301 -28.5 14.5s-6.5 30.5 -6.5 62.5c0 22.667 1 56 3 100l4 111c0.666992 14.667 1 28 1 40s-0.333008 22.833 -1 32.5s-1.16699 18 -1.5 25s-1.5 13.167 -3.5 18.5s-3.5 9.83301 -4.5 13.5
s-3.16699 6.83398 -6.5 9.50098s-5.66602 4.66699 -6.99902 6s-4.16602 2.5 -8.49902 3.5s-7.66602 1.66699 -9.99902 2s-6.16602 0.833008 -11.499 1.5l1 28c44.667 6 79.334 9 104.001 9c8 0 13.667 -0.666992 17 -2s6.5 -6.16602 9.5 -14.499s4.5 -21.5 4.5 -39.5
c0 -22.667 -2.66699 -86.667 -8 -192c-2 -48 -2.33301 -95 -1 -141c0.666992 -18 3.33398 -30.833 8.00098 -38.5s13.334 -12.834 26.001 -15.501zM267.992 653.998l82 -13l-135 -123l-26 7z" />
    <glyph glyph-name="afii10110" unicode="&#x45e;" horiz-adv-x="456" 
d="M437 442c0 -20 -6.49902 -56.8369 -19.499 -110.504s-34.5 -119.5 -64.5 -197.5l-44 -115c-64.667 -169.333 -132.334 -254 -203.001 -254c-28 0 -42 11 -42 33c0 22.667 7 47.334 21 74.001l13 2c15.333 -20.667 32.666 -31 51.999 -31c16 0 29.167 6.83301 39.5 20.5
s15.5 31.834 15.5 54.501c0 23.333 -13.333 84.333 -40 183l-23 85c-25.333 92.667 -47.666 160.667 -66.999 204c-4.66699 10.667 -10 19.334 -16 26.001s-12.667 11.334 -20 14.001s-12.166 4.16699 -14.499 4.5s-7.16602 0.833008 -14.499 1.5v27
c47.333 6 83.333 9 108 9c12 0 22 -7.33301 30 -22s19.333 -48 34 -100l44 -160c20.667 -78 34 -130.333 40 -157h5l37 106c34 96.667 51 176 51 238c0 18 -3.33301 31.333 -10 40s-17 15 -31 19l-1 21c27.333 7.33301 53 11 77 11c11.333 0 19.166 -0.166992 23.499 -0.5
s8.66602 -2.5 12.999 -6.5s6.5 -10.333 6.5 -19zM383.001 641.996l24.001 -1.99805c-28.667 -77.333 -86.334 -116 -173.001 -116c-54 0 -81 16.667 -81 50c0 14 5.5 27.167 16.5 39.5s21.833 21.166 32.5 26.499l17 8c12 -26.667 22.5 -44.334 31.5 -53.001
s24.167 -13 45.5 -13c35.333 0 64.333 20 87 60z" />
    <glyph glyph-name="afii10193" unicode="&#x45f;" horiz-adv-x="482" 
d="M447 29v-27c-36 -3.33301 -67 -5 -93 -5h-41c-24 -80.667 -44.667 -142.667 -62 -186l-29 -2c12.667 46 19 85.333 19 118c0 46.667 -13 70 -39 70c-4.66699 0 -17 -0.666992 -37 -2s-36.667 -2 -50 -2c-19.333 0 -31.166 10 -35.499 30s-6.5 69.667 -6.5 149v111
c0 15.333 -1.33301 48.333 -4 99c-0.666992 8 -1.66699 15.167 -3 21.5s-3.33301 11.333 -6 15s-5.16699 6.66699 -7.5 9s-5.5 4 -9.5 5s-7 1.66699 -9 2s-5.33301 0.5 -10 0.5h-9v28c44 6 78.333 9 103 9c8 0 13.667 -0.666992 17 -2s6.66602 -6.16602 9.99902 -14.499
s5.33301 -21.5 6 -39.5c0.666992 -8 1 -44.667 1 -110v-111c0 -63.333 0.333008 -100.666 1 -111.999c1.33301 -26.667 13.333 -41.334 36 -44.001c12.667 -1.33301 36.667 -2 72 -2c30 0 56.333 1.33301 79 4c-8.66699 17.333 -13 61 -13 131v111
c0 15.333 -1.33301 48.333 -4 99c-0.666992 8 -1.66699 15.167 -3 21.5s-3.33301 11.333 -6 15s-5.16699 6.66699 -7.5 9s-5.5 4 -9.5 5s-7 1.66699 -9 2s-5.33301 0.5 -10 0.5h-9v28c44 6 78.333 9 103 9c8 0 13.833 -0.666992 17.5 -2s7.16699 -6.33301 10.5 -15
s5 -21.667 5 -39c0 -2.66699 0.166992 -18.667 0.5 -48s0.5 -50 0.5 -62v-111c0 -55.333 0.333008 -87 1 -95c4 -42.667 17.333 -66.334 40 -71.001z" />
    <glyph glyph-name="afii10050" unicode="&#x490;" horiz-adv-x="436" 
d="M400 800l27.999 -5l-29 -148c-20.667 -3.33301 -58.334 -6 -113.001 -8c-60 -1.33301 -94 -9.66602 -102 -24.999c-3.33301 -5.33301 -5.83301 -11.666 -7.5 -18.999s-2.83398 -16.166 -3.50098 -26.499s-1 -19.166 -1 -26.499s0.166992 -17.833 0.5 -31.5
s0.5 -23.834 0.5 -30.501v-314c0 -89.333 17 -135.666 51 -138.999v-27h-107c-11.333 0 -19.166 4.5 -23.499 13.5s-6.5 25.167 -6.5 48.5c0 9.33301 0.5 32.666 1.5 69.999s1.5 61 1.5 71v254c0 4.66699 -1.66699 44.334 -5 119.001
c-0.666992 10 -1.83398 18.667 -3.50098 26s-4.16699 13.166 -7.5 17.499l-8.5 11c-2.33301 3 -6.16602 5.16699 -11.499 6.5s-9.16602 2.16602 -11.499 2.49902s-6.5 0.5 -12.5 0.5h-10v33c102.667 -2.66699 181.334 -0.333984 236.001 6.99902c44.667 6 76 16.667 94 32
s34.667 44.666 50 87.999z" />
    <glyph glyph-name="afii10098" unicode="&#x491;" horiz-adv-x="333" 
d="M83 356c0 22.667 -3.66797 40.333 -11.001 53s-14.333 20 -21 22s-14.667 3.33301 -24 4v28l138 1c45.333 0.666992 78.666 7 99.999 19s39.666 39 54.999 81l22 -6c-12.667 -75.333 -23.334 -116.666 -32.001 -123.999c-9.33301 -8.66699 -26.333 -13 -51 -13
c-9.33301 0 -26.666 0.666992 -51.999 2s-42 2 -50 2c4 -12.667 6 -42 6 -88c0 -24 -0.666992 -51 -2 -81l-3 -61c-2 -50 -2.66699 -87.333 -2 -112c0.666992 -18 3.33398 -30.833 8.00098 -38.5s13.334 -12.834 26.001 -15.501l-1 -27
c-35.333 -4.66699 -61.666 -7 -78.999 -7c-14 0 -23.333 4.16699 -28 12.5s-7 26.166 -7 53.499c0 10.667 0.5 29.334 1.5 56.001s1.5 45 1.5 55c3.33301 120 5 181.333 5 184z" />
    </font>
</defs>
</svg>
