<?xml version="1.0" standalone="no"?>
<!DOCTYPE svg PUBLIC "-//W3C//DTD SVG 1.1//EN" "http://www.w3.org/Graphics/SVG/1.1/DTD/svg11.dtd" >
<svg xmlns="http://www.w3.org/2000/svg" xmlns:xlink="http://www.w3.org/1999/xlink" version="1.1">
<metadata>
Created by FontForge 20141024 at Tue Oct 27 15:36:24 2015
 By Jimmy Warting
Copyright (c) ParaType, Inc., 2008. All rights reserved.
</metadata>
<defs>
<font id="PalladaBold-Regular" horiz-adv-x="480" >
  <font-face 
    font-family="PalladaBold-Regular"
    font-weight="400"
    font-stretch="normal"
    units-per-em="1000"
    panose-1="4 3 7 4 6 1 2 2 2 2"
    ascent="748"
    descent="-252"
    x-height="471.998"
    cap-height="687"
    bbox="-109.998 -251.998 1014 858.004"
    underline-thickness="20"
    underline-position="-113"
    unicode-range="U+0020-F6DE"
  />
<missing-glyph horiz-adv-x="233" 
 />
    <glyph glyph-name="afii10017.var.accented" unicode="&#x410;`" horiz-adv-x="599" 
d="M592 40l-2 -41.9971c-48.667 -3.33301 -81.334 -5 -98.001 -5c-32 0 -54.333 4.83301 -67 14.5s-23.334 29.167 -32.001 58.5c-5.33301 19.333 -18.666 80.666 -39.999 183.999l-198 2c-18 -57.333 -27 -111 -27 -161c0 -17.333 2 -30 6 -38s12.333 -16.333 25 -25
l-2 -30c-52 -3.33301 -87.667 -5 -107 -5c-15.333 0 -25.166 3.5 -29.499 10.5s-6.5 17.833 -6.5 32.5c0 31.333 17.333 92 52 182l56 146c5.33301 14.667 13.833 36 25.5 64l27 66.5c6.33301 16.333 12.333 33.5 18 51.5s8.5 31.333 8.5 40c0 4.66699 -0.5 9 -1.5 13
s-2.66699 7 -5 9s-4.5 3.66699 -6.5 5s-5 2.33301 -9 3s-7.16699 1.16699 -9.5 1.5s-6 0.5 -11 0.5h-10.5v36c102.667 22 167.667 33 195 33c20.667 0 34.5 -6.16699 41.5 -18.5s15.833 -40.166 26.5 -83.499c2 -8.66699 3.66699 -15.334 5 -20.001l70 -289
c22 -92 35 -143.333 39 -154c10.667 -28.667 20.5 -49.334 29.5 -62.001s21.5 -19.334 37.5 -20.001zM172 302.003l171 -5.99902l-49 214c-12 53.333 -20.667 88.666 -26 105.999h-3l-34 -120zM343 858.004l106 -24l-154 -123l-29 11z" />
    <glyph glyph-name="afii10022.var.accented" unicode="&#x415;`" horiz-adv-x="536" 
d="M478 186l33.001 -5.99902l-34 -178c-62 -8 -130.667 -12 -206 -12c-77.333 0 -128.5 2.16699 -153.5 6.5s-37.5 14.5 -37.5 30.5c0 3.33301 0.166992 7.83301 0.5 13.5s0.833008 13.5 1.5 23.5l2 29l4 72c0.666992 12 1.16699 26.667 1.5 44s0.833008 38.166 1.5 62.499
s1.33398 44.5 2.00098 60.5l2.5 89l2.5 89.5c0.666992 24.333 1 40.5 1 48.5c0 29.333 -3.83301 50.666 -11.5 63.999s-22.167 21.666 -43.5 24.999v34c148.667 3.33301 242 5 280 5c75.333 0 122.666 -2.16699 141.999 -6.5s29 -17.166 29 -38.499
c0 -14 -6.16699 -35.5 -18.5 -64.5s-26.5 -52.167 -42.5 -69.5l-38 -5c5.33301 39.333 8 65.333 8 78c0 21.333 -7.33301 35.833 -22 43.5s-38 11.5 -70 11.5c-16 0 -28.667 -0.666992 -38 -2s-18 -4.66602 -26 -9.99902s-12.667 -13.333 -14 -24
c-6.66699 -43.333 -10 -114.333 -10 -213v-9l181 5l-11 -70c-40 7.33301 -97 12 -171 14c0 -36 -0.333008 -73.5 -1 -112.5s-1 -68.167 -1 -87.5c0 -32 5.16699 -53.5 15.5 -64.5s36.166 -16.5 77.499 -16.5c25.333 0 48 4.5 68 13.5s36.333 22 49 39s22 31.333 28 43
s12.333 26.5 19 44.5zM312.001 858.001l106 -24l-154 -123l-29 11z" />
    <glyph glyph-name="afii10026.var.accented" unicode="&#x418;`" horiz-adv-x="676" 
d="M631 34v-34h-143c-13.333 0 -22.5 6.16699 -27.5 18.5s-7.16699 33.5 -6.5 63.5c0 64.667 1.66699 157 5 277l5 171h-6c-43.333 -90.667 -81.333 -174.667 -114 -252c-62.667 -147.333 -106.667 -232.666 -132 -255.999c-11.333 -10 -29.666 -18.5 -54.999 -25.5
s-48 -10.5 -68 -10.5l-7 10c1.33301 25.333 5 137.333 11 336c4 120 6 196 6 228c0 29.333 -3.83301 50.666 -11.5 63.999s-22.167 21.666 -43.5 24.999v34c56.667 3.33301 104 5 142 5c18.667 0 31 -6 37 -18s9 -35 9 -69c0 -21.333 -0.5 -45 -1.5 -71
s-2.16699 -52.833 -3.5 -80.5s-2.33301 -47.5 -3 -59.5c-1.33301 -33.333 -2.66602 -70.333 -3.99902 -111s-2.5 -73.5 -3.5 -98.5s-1.83301 -44.167 -2.5 -57.5c18.667 33.333 57.334 115.666 116.001 246.999l44 103c22 52 40.167 92.5 54.5 121.5
s26.833 49.833 37.5 62.5c7.33301 8.66699 16.166 15.334 26.499 20.001s19.333 7.66699 27 9s19 2.33301 34 3s25.833 1.33398 32.5 2.00098l8 -5c-2.66699 -49.333 -4 -99.333 -4 -150c-2.66699 -252.667 -3.66699 -389 -3 -409c1.33301 -22.667 2.66602 -39 3.99902 -49
s5.16602 -19.333 11.499 -28s15.833 -14 28.5 -16zM382 858l106 -24l-154 -123l-29 11z" />
    <glyph glyph-name="afii10032.var.accented" unicode="&#x41e;`" horiz-adv-x="657" 
d="M618 358c0 -64 -9.66797 -121.167 -29.001 -171.5s-44 -89.166 -74 -116.499s-61.167 -48 -93.5 -62s-63.833 -21 -94.5 -21c-86.667 0 -155.5 28.167 -206.5 84.5s-76.5 141.166 -76.5 254.499c0 58 7.33301 109.5 22 154.5s32.834 80.333 54.501 106
s46.5 46.834 74.5 63.501s53.833 27.667 77.5 33s46.5 8 68.5 8c86 0 153.667 -26.833 203 -80.5s74 -137.834 74 -252.501zM478.999 354c0 99.333 -10.5 171.667 -31.5 217s-56.5 68 -106.5 68c-105.333 0 -158 -103 -158 -309c0 -194 47.667 -291 143 -291
c102 0 153 105 153 315zM371.999 858.001l106 -24l-154 -123l-29 11z" />
    <glyph glyph-name="afii10037.var.accented" unicode="&#x423;`" horiz-adv-x="548" 
d="M535 651c1.33301 -24 -15.9941 -85.666 -51.9941 -184.999l-48 -131c-24.667 -66 -50.667 -130.333 -78 -193c-45.333 -104.667 -96 -157 -152 -157c-35.333 0 -53.333 16.667 -54 50c-0.666992 26 4.33301 53.667 15 83l17 4c17.333 -24 39.666 -36 66.999 -36
c24.667 0 37 15.667 37 47c0 22 -27 91 -81 207l-46 100c-22 46.667 -45 91 -69 133c-24 40 -51.667 60.667 -83 62l-1 33c56 12.667 104.667 19 146 19c15.333 0 30.666 -11.833 45.999 -35.5s35.333 -64.834 60 -123.501l99 -237h5l23 59
c12 30.667 23.167 70.667 33.5 120s15.166 87.333 14.499 114c-0.666992 21.333 -4.33398 35.833 -11.001 43.5s-17.334 13.834 -32.001 18.501l1 26c51.333 10 86.666 15 105.999 15c14 0 23.5 -2.33301 28.5 -7s7.83301 -14.334 8.5 -29.001zM318.006 858.001l106 -24
l-154 -123l-29 11z" />
    <glyph glyph-name="afii10045.var.accented" unicode="&#x42b;`" horiz-adv-x="850" 
d="M549 236c0 -46 -8.83398 -86.168 -26.501 -120.501s-40.834 -60.5 -69.501 -78.5s-57.667 -31.167 -87 -39.5s-59 -12.5 -89 -12.5c-72.667 0 -123.834 3.33301 -153.501 10s-44.5 17.334 -44.5 32.001c0 6 0.333008 13.167 1 21.5s1.66699 20 3 35l4 45.5
c2.66699 40 5.33398 107.667 8.00098 203l2.5 88.5l2.5 89c0.666992 24.333 1 41.166 1 50.499c0 29.333 -3.83301 50.666 -11.5 63.999s-22.167 21.666 -43.5 24.999v34c56.667 3.33301 104 5 142 5c18.667 0 31.334 -6.16699 38.001 -18.5s10 -35.166 10 -68.499
c0 -1.33301 -3 -94 -9 -278c0 -7.33301 -1 -45.666 -3 -114.999s-3 -110.666 -3 -123.999c-0.666992 -14 5.5 -24.667 18.5 -32s31.833 -11 56.5 -11c36.667 0 65.667 13.667 87 41s32 66.666 32 117.999c0 50.667 -7 88.834 -21 114.501s-42 38.5 -84 38.5
c-21.333 0 -43 -4.33301 -65 -13v41c40.667 16.667 76.334 25 107.001 25c131.333 0 197 -56.667 197 -170zM804.999 33.999v-33.999h-147c-14 0 -23.333 6 -28 18s-7 33.333 -7 64c0 27.333 1.5 69.333 4.5 126s4.83301 98 5.5 124c4 120 6 196 6 228
c0 29.333 -3.83301 50.666 -11.5 63.999s-22.167 21.666 -43.5 24.999v34c56.667 3.33301 104 5 142 5c18.667 0 31 -6 37 -18s9 -35 9 -69c0 -26.667 -1.16699 -62.667 -3.5 -108s-3.83301 -79.666 -4.5 -102.999l-5 -254c-1.33301 -62 14 -96 46 -102zM468.999 858
l106 -24l-154 -123l-29 11z" />
    <glyph glyph-name="afii10047.var.accented" unicode="&#x42d;`" horiz-adv-x="555" 
d="M516 367c0 -58.667 -6.83496 -110.833 -20.502 -156.5s-31 -82.167 -52 -109.5s-45.833 -49.833 -74.5 -67.5s-56.667 -29.834 -84 -36.501s-55.333 -10 -84 -10c-46 0 -86.333 7.5 -121 22.5s-52 37.167 -52 66.5s16.333 60.333 49 93l23 -4
c0 -41.333 11 -72.666 33 -93.999s49 -32 81 -32c100.667 0 155.334 93 164.001 279c-77.333 -4 -150.333 -12.333 -219 -25l11 82l209 -8c-0.666992 94 -12 162.167 -34 204.5s-55 63.5 -99 63.5c-71.333 0 -126.333 -45.667 -165 -137l-34 -4c0 76.667 4 131 12 163l12 10
c52.667 13.333 119.334 20 200.001 20c74.667 0 134.167 -25.5 178.5 -76.5s66.5 -132.167 66.5 -243.5zM320.998 858.001l106 -24l-154 -123l-29 11z" />
    <glyph glyph-name="afii10048.var.accented" unicode="&#x42e;`" horiz-adv-x="942" 
d="M906 358c0 -66 -9.67188 -124.001 -29.0049 -174.001s-44.666 -88.667 -75.999 -116s-63.5 -47.666 -96.5 -60.999s-66.167 -20 -99.5 -20c-85.333 0 -152 28.833 -200 86.5s-72.333 143.167 -73 256.5l-111 2v-204c0 -32 2.66699 -54.833 8 -68.5s17 -22.167 35 -25.5
v-34h-143c-13.333 0 -22.5 6.16699 -27.5 18.5s-7.5 33.5 -7.5 63.5c0 22 0.5 61 1.5 117s1.5 102.667 1.5 140v116c0 48.667 -1.66699 88 -5 118c-0.666992 6 -1.66699 11.5 -3 16.5s-2.66602 9.33301 -3.99902 13s-3.16602 7 -5.49902 10l-5.5 7
c-1.33301 1.66699 -3.66602 3.33398 -6.99902 5.00098l-7 3.5c-1.33301 0.666992 -4 1.16699 -8 1.5s-6.5 0.666016 -7.5 0.999023s-3.83301 0.5 -8.5 0.5h-8v42l194 18l13 -6c-1.33301 -16 -2.66602 -64 -3.99902 -144l-2 -161l114 6c6 57.333 20.333 107 43 149
s49.5 73.333 80.5 94s60.667 35.5 89 44.5s55.5 13.5 81.5 13.5c86 0 153.667 -26.667 203 -80s74 -136.333 74 -249zM766.995 353.999c0 96.667 -11.834 167.669 -35.501 213.002s-61.167 68 -112.5 68c-15.333 0 -29.166 -1.83301 -41.499 -5.5
s-25.5 -11.834 -39.5 -24.501s-25.5 -29.667 -34.5 -51s-16.667 -51 -23 -89s-9.5 -83 -9.5 -135c0 -194 50 -291 150 -291c42 0 76.833 24.167 104.5 72.5s41.5 129.166 41.5 242.499zM514.994 858.001l106 -24l-154 -123l-29 11z" />
    <glyph glyph-name="afii10049.var.accented" unicode="&#x42f;`" horiz-adv-x="593" 
d="M559 34l0.000976562 -33.999h-143c-14 0 -23.5 5.83301 -28.5 17.5s-6.83301 33.167 -5.5 64.5l8 319c2 86 3 138.667 3 158c0 30.667 -4.5 51 -13.5 61s-27.833 15 -56.5 15c-33.333 0 -59.166 -11.167 -77.499 -33.5s-27.833 -55.5 -28.5 -99.5
c0 -88.667 34 -139.667 102 -153c14 -2.66699 31.667 -4 53 -4v-27c-20.667 -10.667 -38.667 -25.334 -54 -44.001c-13.333 -17.333 -33.833 -54 -61.5 -110l-43.5 -88c-12 -22 -21.167 -37.5 -27.5 -46.5s-16 -17.333 -29 -25s-28.5 -11.5 -46.5 -11.5
c-9.33301 0 -22.333 0.833008 -39 2.5s-31 3.5 -43 5.5l-18 3v33c12.667 2 24 7 34 15s17.5 15.5 22.5 22.5s14.5 21.167 28.5 42.5c6 8.66699 15.667 24.334 29 47.001s24.666 41 33.999 55s23.166 30.167 41.499 48.5s38.5 33.833 60.5 46.5v4
c-16.667 1.33301 -34 5 -52 11s-37.333 15 -58 27s-37.5 29.5 -50.5 52.5s-19.5 49.5 -19.5 79.5c0.666992 39.333 10 73 28 101s41.667 48.667 71 62s57.833 22.666 85.5 27.999s56.5 8 86.5 8l169 -5l13 -6c-5.33301 -42.667 -10.333 -151.667 -15 -327
c0 -4 -1 -78 -3 -222c0 -30.667 2.83301 -53 8.5 -67s17.5 -22.667 35.5 -26zM340.001 858.001l106 -24l-154 -123l-29 11z" />
    <glyph glyph-name="afii10065.var.accented" unicode="&#x430;`" horiz-adv-x="510" 
d="M490 42l-1.00293 -32c-58 -14 -96.333 -21 -115 -21c-40 0 -62.333 22.333 -67 67c-37.333 -45.333 -83 -68 -137 -68c-34 0 -64.167 9.83301 -90.5 29.5s-38.833 50.834 -37.5 93.501c0.666992 28.667 6 52.667 16 72s26 35 48 47s42.833 21.167 62.5 27.5
s47.834 13.166 84.501 20.499l57 12c0 37.333 -0.333008 60 -1 68c-1.33301 26 -7.16602 43.5 -17.499 52.5s-25.833 13.5 -46.5 13.5c-15.333 0 -31.666 -7 -48.999 -21s-26.333 -35.333 -27 -64l-9 -11c-38.667 0 -64.334 4.83301 -77.001 14.5s-18.667 22.167 -18 37.5
c0.666992 26 22.5 48.333 65.5 67s97.833 28 164.5 28c42 0 76.667 -11.333 104 -34s40.666 -55 39.999 -97l-5 -148c-1.33301 -67.333 -2 -103.666 -2 -108.999c0.666992 -16.667 4.83398 -28.334 12.501 -35.001s22.834 -10 45.501 -10zM307.997 243l-47 -9.99902
c-12 -2.66699 -21.167 -5.16699 -27.5 -7.5s-15 -6.83301 -26 -13.5s-19.333 -16.834 -25 -30.501s-8.83398 -30.5 -9.50098 -50.5c-0.666992 -46.667 18 -70 56 -70c18.667 0 34.334 5.83301 47.001 17.5s20.667 23.5 24 35.5l5 18c2 25.333 3 62.333 3 111z
M277.997 664.001l102 -23l-135 -123l-36 7z" />
    <glyph glyph-name="afii10070.var.accented" unicode="&#x435;`" horiz-adv-x="443" 
d="M428 368c-2 -62.667 -62.6689 -105 -182.002 -127l-68 -13c-0.666992 -34.667 2.5 -64 9.5 -88s16.833 -41.333 29.5 -52s24.834 -18.167 36.501 -22.5s24.167 -6.5 37.5 -6.5c41.333 0 83 13 125 39l3 -43c-2 -2 -4.83301 -4.33301 -8.5 -7s-11.667 -7.66699 -24 -15
s-25 -13.833 -38 -19.5s-29.833 -10.834 -50.5 -15.501s-41.667 -7 -63 -7c-58 0 -104.333 17.667 -139 53s-50.667 91 -48 167c0.666992 42.667 7.33398 80.5 20.001 113.5s27.667 58.833 45 77.5s37 34 59 46s41.5 19.833 58.5 23.5s32.5 5.5 46.5 5.5
s26.333 -0.333008 37 -1s23.834 -3 39.501 -7s28.5 -9.66699 38.5 -17s18.667 -18.166 26 -32.499s10.666 -31.5 9.99902 -51.5zM313.998 368c0 16.667 -4.00098 30.666 -12.001 41.999s-20.667 17 -38 17c-52 0 -80 -51 -84 -153l44 8
c28 4.66699 49.833 14.834 65.5 30.501s23.834 34.167 24.501 55.5zM246.997 663.999l102 -23l-135 -123l-36 7z" />
    <glyph glyph-name="afii10074.var.accented" unicode="&#x438;`" horiz-adv-x="563" 
d="M545 41l-3 -31.998c-44.667 -9.33301 -74.334 -14 -89.001 -14c-33.333 0 -57.333 4.66699 -72 14s-22 28.666 -22 57.999c0 2.66699 0.166992 9.66699 0.5 21s0.5 18.666 0.5 21.999l5 118c1.33301 35.333 6 75 14 119h-5c-22 -47.333 -46.667 -95.333 -74 -144
c-40 -72 -74.333 -128 -103 -168c-22.667 -31.333 -48 -47 -76 -47c-28.667 0 -43 31.333 -43 94c0 43.333 0.666992 79.666 2 108.999l3 90c0.666992 10 1 24.333 1 43c0 38.667 -4.16699 64.834 -12.5 78.501s-21.833 21.5 -40.5 23.5l1 36
c72.667 6.66699 121.334 10 146.001 10c8.66699 0 15 -0.666992 19 -2s8 -6.66602 12 -15.999s6 -23.666 6 -42.999c0 -31.333 -1.5 -73.333 -4.5 -126s-4.5 -82.334 -4.5 -89.001c0 -26.667 3.33301 -40 10 -40c5.33301 0 13 8.5 23 25.5s26 46.5 48 88.5l15 29
c43.333 86 70.666 138 81.999 156c32.667 14.667 64 22 94 22c12 0 19.667 -1.83301 23 -5.5s5.33301 -12.5 6 -26.5c0 -2.66699 -0.833008 -14.167 -2.5 -34.5l-6 -70.5c-2.33301 -26.667 -3.83301 -47.667 -4.5 -63l-4 -81
c-1.33301 -58.667 -1.66602 -93.334 -0.999023 -104.001c1.33301 -34 20 -51 56 -51zM303 664.002l102 -23l-135 -123l-36 7z" />
    <glyph glyph-name="afii10080.var.accented" unicode="&#x43e;`" horiz-adv-x="537" 
d="M502 262c0 -79.333 -22.834 -144.834 -68.501 -196.501s-105.5 -77.5 -179.5 -77.5c-62.667 0 -112.667 20 -150 60s-56 95.667 -56 167c0 48.667 8.33301 91.334 25 128.001s37.834 64.167 63.501 82.5s50.5 31.833 74.5 40.5s46.667 13 68 13s40.666 -1 57.999 -3
s36.833 -7.33301 58.5 -16s39.834 -20.5 54.501 -35.5s27 -36.333 37 -64s15 -60.5 15 -98.5zM368.999 236.999c0 40 -2.50098 73.5 -7.50098 100.5s-12.333 47 -22 60s-19.667 22 -30 27s-22.166 7.5 -35.499 7.5c-32 0 -55.5 -15 -70.5 -45s-22.5 -80 -22.5 -150
c0 -134 32.667 -201 98 -201c60 0 90 67 90 201zM289.998 663.999l102 -23l-135 -123l-36 7z" />
    <glyph glyph-name="afii10085.var.accented" unicode="&#x443;`" horiz-adv-x="494" 
d="M489 437c-1.33301 -56 -33.6709 -156.667 -97.0039 -302l-51 -116c-12 -26.667 -25.667 -53.334 -41 -80.001s-33.5 -53.667 -54.5 -81s-44.167 -49.666 -69.5 -66.999s-50 -26 -74 -26c-14 0 -25.167 2.83301 -33.5 8.5s-12.166 15.167 -11.499 28.5
c0 25.333 7.33301 56.666 22 93.999l18 3c14 -28.667 36 -43 66 -43c12.667 0 23.334 5.66699 32.001 17s13.334 24.666 14.001 39.999c0 22.667 -15.667 90.334 -47 203.001l-24 86c-19.333 69.333 -39.666 130 -60.999 182c-5.33301 13.333 -12.333 23.333 -21 30
s-15.334 10.334 -20.001 11.001s-12 1.33398 -22 2.00098l1 35c69.333 6.66699 116 10 140 10c22 0 36.333 -6 43 -18s17.334 -47.333 32.001 -106l30 -119c20.667 -80 33 -139 37 -177h7l31 87c33.333 94.667 51 169 53 223c0.666992 20.667 -2.16602 36 -8.49902 46
s-18.833 17 -37.5 21l-1 27c43.333 8 77 12 101 12c12 0 20.667 -0.333008 26 -1s10.166 -3.33398 14.499 -8.00098s6.5 -12 6.5 -22zM267.995 664l102 -23l-135 -123l-36 7z" />
    <glyph glyph-name="afii10093.var.accented" unicode="&#x44b;`" horiz-adv-x="713" 
d="M695 38l-1.99902 -32.998c-59.333 -8.66699 -96.333 -13 -111 -13c-22.667 0 -39 4.16699 -49 12.5s-15 26.166 -15 53.499c0 16 0.333008 37.833 1 65.5s1 44.167 1 49.5l2 150c0.666992 43.333 -2.33301 71 -9 83s-20 18.667 -40 20l1 36c68 7.33301 114 11 138 11
c7.33301 0 12.5 -0.333008 15.5 -1s7 -2.5 12 -5.5s8.5 -8.83301 10.5 -17.5s3 -20 3 -34l-3 -110l-3 -99c0 -8 -0.5 -21.833 -1.5 -41.5s-1.5 -33.834 -1.5 -42.501c0 -32 3.16699 -53 9.5 -63s20.166 -17 41.499 -21zM462.001 188.002
c0 -57.333 -24.999 -104.835 -74.999 -142.502s-104 -56.5 -162 -56.5c-104 0 -156 14.667 -156 44c0 5.33301 1.16699 26.833 3.5 64.5s3.83301 69.167 4.5 94.5l2 90c0.666992 15.333 1 35.333 1 60c0 38 -3.33301 61.5 -10 70.5s-21.334 13.5 -44.001 13.5l1 36
c72.667 6.66699 121.334 10 146.001 10c8.66699 0 15 -0.666992 19 -2s8 -6.66602 12 -15.999s6 -23.666 6 -42.999c0 -10 -0.5 -24.667 -1.5 -44s-2.16699 -43.5 -3.5 -72.5s-2.33301 -52.5 -3 -70.5c-3.33301 -88 -5 -133.667 -5 -137c0 -32.667 14.667 -49 44 -49
c27.333 0 49.666 11.667 66.999 35s26 56.333 26 99c0 32 -5 53.833 -15 65.5s-23.667 17.5 -41 17.5c-15.333 0 -34 -4.33301 -56 -13l-3 40c40 16 77.667 24 113 24c42 0 74.167 -9.16699 96.5 -27.5s33.5 -48.5 33.5 -90.5zM378.002 664l102 -23l-135 -123l-36 7z" />
    <glyph glyph-name="afii10095.var.accented" unicode="&#x44d;`" horiz-adv-x="463" 
d="M426 260c0 -81.333 -23.666 -147 -70.999 -197s-106.666 -75 -177.999 -75c-55.333 0 -94.833 7.33301 -118.5 22s-35.5 32.667 -35.5 54c0 31.333 24.333 54.333 73 69l7 -6c2.66699 -30.667 11.667 -53.5 27 -68.5s35.666 -22.5 60.999 -22.5
c34.667 0 60.334 17 77.001 51s25 77.333 25 130l-159 -14l9 66l152 -10c0 64.667 -10 109.167 -30 133.5s-43 36.5 -69 36.5c-22.667 0 -39.834 -6.16699 -51.501 -18.5s-17.5 -28.5 -17.5 -48.5c0 -6.66699 1 -14 3 -22l-7 -10c-61.333 0 -92 15.667 -92 47
c0 26.667 18.167 50 54.5 70s79.5 30 129.5 30c16 0 32.167 -1.33301 48.5 -4s34.666 -8.66699 54.999 -18s38 -21.5 53 -36.5s27.833 -36.167 38.5 -63.5s16 -59 16 -95zM253.001 664l102 -23l-135 -123l-36 7z" />
    <glyph glyph-name="afii10096.var.accented" unicode="&#x44e;`" horiz-adv-x="784" 
d="M614 237c0 40 -2.50098 73.5 -7.50098 100.5s-12.333 47 -22 60s-19.667 22 -30 27s-22.166 7.5 -35.499 7.5c-32 0 -55.5 -15 -70.5 -45s-22.5 -80 -22.5 -150c0 -134 32.667 -201 98 -201c60 0 90 67 90 201zM292.999 215l-0.000976562 6.00293l-88 4l-1 -29
c-1.33301 -38.667 -2 -75.334 -2 -110.001c0 -16.667 2.5 -28.334 7.5 -35.001s14.167 -11.334 27.5 -14.001l-1 -34c-51.333 -5.33301 -85 -8 -101 -8c-24 0 -40.167 5.66699 -48.5 17s-12.5 34.666 -12.5 69.999c0 15.333 1 52 3 110l2 90c0.666992 15.333 1 35.333 1 60
c0 32 -3.66699 54 -11 66s-21.666 18 -42.999 18l1 36c73.333 6.66699 122 10 146 10c8.66699 0 15.167 -0.666992 19.5 -2s8.33301 -6.66602 12 -15.999s5.5 -23.666 5.5 -42.999c0 -12.667 -0.5 -29.667 -1.5 -51s-1.5 -39.666 -1.5 -54.999l-1 -40h90
c5.33301 39.333 16.5 73.666 33.5 102.999s37 51.666 60 66.999s45.667 26.5 68 33.5s44.5 10.5 66.5 10.5c21.333 0 40.666 -1 57.999 -3s36.833 -7.33301 58.5 -16s39.834 -20.5 54.501 -35.5s27 -36.333 37 -64s15 -60.5 15 -98.5
c0 -79.333 -22.833 -144.833 -68.5 -196.5s-105.5 -77.5 -179.5 -77.5c-62.667 0 -112.667 20 -150 60s-56 95.667 -56 167zM412.998 664.003l102 -23l-135 -123l-36 7z" />
    <glyph glyph-name="afii10097.var.accented" unicode="&#x44f;`" horiz-adv-x="504" 
d="M489 41l-2 -32.0059c-52 -9.33301 -85 -14 -99 -14c-24.667 0 -42.667 1.66699 -54 5s-19 10.333 -23 21c-5.33301 12.667 -8 39.334 -8 80.001c0 13.333 2 52 6 116l5 91c2.66699 44.667 4 67.667 4 69c0 18.667 -3.33301 31.5 -10 38.5s-20.334 10.5 -41.001 10.5
c-49.333 0 -75 -31.667 -77 -95c-0.666992 -20.667 1.66602 -38 6.99902 -52s13.166 -24 23.499 -30s19.333 -10 27 -12s17.167 -3.66699 28.5 -5l20 -2l-1 -34l-5 -1c-7.33301 -1.33301 -15.166 -8.16602 -23.499 -20.499s-18.5 -30.666 -30.5 -54.999
s-21.667 -42.5 -29 -54.5c-11.333 -18.667 -20.5 -32 -27.5 -40s-19 -15 -36 -21s-39.5 -9 -67.5 -9c-8.66699 0 -18.5 1 -29.5 3s-19.833 4 -26.5 6l-9 3l1 35c14 0 26 4.16699 36 12.5s20.667 20.833 32 37.5c25.333 34.667 44.833 58.334 58.5 71.001
s32.5 23.334 56.5 32.001v7c-14 2 -27.333 5.16699 -40 9.5s-26.5 10.833 -41.5 19.5s-26.667 21 -35 37s-12.166 35 -11.499 57c0.666992 23.333 5.66699 43.833 15 61.5s22.333 31.667 39 42s33 18.833 49 25.5s34.333 11.334 55 14.001s36.334 4.33398 47.001 5.00098
s21.667 1 33 1c18 0 43.5 -1.5 76.5 -4.5s53.833 -6.5 62.5 -10.5c-4 -54 -6.66699 -105.333 -8 -154l-3 -109c-1.33301 -33.333 -1.5 -61.333 -0.5 -84s5.83301 -39.834 14.5 -51.501s22.667 -18.167 42 -19.5zM273 663.994l102 -23l-135 -123l-36 7z" />
    <glyph glyph-name=".notdef" horiz-adv-x="233" 
 />
    <glyph glyph-name="space" unicode=" " horiz-adv-x="233" 
 />
    <glyph glyph-name="exclam" unicode="!" horiz-adv-x="229" 
d="M62 696l117 21l-32 -526l-50 -8zM191 56c-0.666992 -20 -8.16699 -37.167 -22.5 -51.5s-31.166 -21.5 -50.499 -21.5s-35.833 7.16699 -49.5 21.5s-20.167 31.5 -19.5 51.5s8.16699 37.167 22.5 51.5s31.166 21.5 50.499 21.5s35.833 -7.16699 49.5 -21.5
s20.167 -31.5 19.5 -51.5z" />
    <glyph glyph-name="quotedbl" unicode="&#x22;" horiz-adv-x="329" 
d="M180 680l114 10l-30 -203l-54 -10zM42 680l112 10l-30 -203l-52 -10z" />
    <glyph glyph-name="numbersign" unicode="#" horiz-adv-x="643" 
d="M506 506h118l-10 -57h-117l-44 -249h120l-15 -60h-113l-38 -199h-63l36 200h-147l-36 -200h-63l37 201h-133l13 60h129l45 249h-130l11 55h130l36 211h63l-38 -211h147l35 211h62zM389 201l46 248h-147l-44 -248h145z" />
    <glyph glyph-name="dollar" unicode="$" 
d="M454 196c0 -104.667 -62.999 -171.334 -188.999 -200.001v-75l-53 -35v102h-28c-38 0 -72.5 8.16699 -103.5 24.5s-46.5 39.833 -46.5 70.5c0 6.66699 1.33301 13.667 4 21s6.83398 14.666 12.501 21.999s10.5 13.333 14.5 18s9.66699 10.667 17 18l13 13l18 -6
c6 -90 39.333 -135 100 -135v266c-55.333 28.667 -92.333 50.334 -111 65.001c-48.667 40 -73.334 88.333 -74.001 145c0 46 14.833 85.167 44.5 117.5s76.5 52.166 140.5 59.499v70l51 18v-85c55.333 -0.666992 95.166 -8.16699 119.499 -22.5s36.5 -30.166 36.5 -47.499
c0 -29.333 -18 -63.666 -54 -102.999h-23c0 76 -26 117.333 -78 124v-238l14 -7l25 -11c16 -7.33301 28.5 -13.5 37.5 -18.5s21.667 -13.5 38 -25.5s29 -24.167 38 -36.5s17.333 -28 25 -47s11.5 -39.5 11.5 -61.5zM213.001 432l-0.00195312 207.001
c-21.333 -3.33301 -38.666 -13.833 -51.999 -31.5s-20 -39.834 -20 -66.501c0 -28 5.83301 -50 17.5 -66s29.834 -30.333 54.501 -43zM332.999 162.001c0 26.667 -5.33301 47.668 -16 63.001s-28 30.666 -52 45.999v-225c45.333 18 68 56.667 68 116z" />
    <glyph glyph-name="percent" unicode="%" horiz-adv-x="698" 
d="M331 541c0 -54 -16.332 -96.167 -48.999 -126.5s-68.334 -45.5 -107.001 -45.5c-15.333 0 -30.333 2 -45 6s-30.5 11.167 -47.5 21.5s-30.667 26.666 -41 48.999s-15.5 49.5 -15.5 81.5c0 59.333 15.833 102.833 47.5 130.5s67.834 41.5 108.501 41.5
c12 0 23.667 -0.833008 35 -2.5s24.333 -5.66699 39 -12s27.167 -14.833 37.5 -25.5s19.166 -26.167 26.499 -46.5s11 -44.166 11 -71.499zM484.001 726l62 -1l-157 -363l-157 -376l-77 -18l194 433zM674.001 158c0 -54 -16.332 -96.167 -48.999 -126.5
s-68.334 -45.5 -107.001 -45.5c-15.333 0 -30.333 2 -45 6s-30.5 11.167 -47.5 21.5s-30.667 26.666 -41 48.999s-15.5 49.5 -15.5 81.5c0 59.333 15.833 102.833 47.5 130.5s67.834 41.5 108.501 41.5c12 0 23.667 -0.833008 35 -2.5s24.333 -5.66699 39 -12
s27.167 -14.833 37.5 -25.5s19.166 -26.167 26.499 -46.5s11 -44.166 11 -71.499zM232.002 531c0 85.333 -16.666 128 -49.999 128c-38 0 -57 -40.667 -57 -122c0 -85.333 16.667 -128 50 -128c17.333 0 31.166 8.33301 41.499 25s15.5 49 15.5 97zM575.003 148
c0 85.333 -16.666 128 -49.999 128c-38 0 -57 -40.667 -57 -122c0 -85.333 16.667 -128 50 -128c17.333 0 31.166 8.33301 41.499 25s15.5 49 15.5 97z" />
    <glyph glyph-name="ampersand" unicode="&#x26;" horiz-adv-x="745" 
d="M699 165l27.998 -12.0029c-43.333 -108 -96.333 -162 -159 -162c-24.667 0 -45.834 4.33301 -63.501 13s-40.834 28 -69.501 58c-29.333 -26.667 -57.5 -46.167 -84.5 -58.5s-60.167 -18.5 -99.5 -18.5c-23.333 0 -46.166 3 -68.499 9s-45 15.833 -68 29.5
s-41.5 33.834 -55.5 60.501s-21 58.334 -21 95.001c0 21.333 2.5 40.833 7.5 58.5s10.833 32.167 17.5 43.5s16.167 22.666 28.5 33.999s22.333 19.5 30 24.5s19 11.833 34 20.5s24.833 14.667 29.5 18l-13 20c-12 18.667 -20.333 32 -25 40s-10.167 21.833 -16.5 41.5
s-9.5 39.5 -9.5 59.5c0 45.333 16.833 83.166 50.5 113.499s80.834 45.5 141.501 45.5c42.667 0 78.167 -10.5 106.5 -31.5s42.5 -50.167 42.5 -87.5c0 -15.333 -2.83301 -30.166 -8.5 -44.499s-11.167 -26.166 -16.5 -35.499s-15.166 -20 -29.499 -32
s-24.166 -20 -29.499 -24s-17.166 -11.833 -35.499 -23.5l-30.5 -19.5c37.333 -56.667 97 -130.334 179 -221.001c21.333 34 32 70.667 32 110c0 4 -0.333008 7.83301 -1 11.5s-1.33398 7 -2.00098 10s-2 5.83301 -4 8.5s-3.5 4.83398 -4.5 6.50098s-3 3.5 -6 5.5
s-5.16699 3.33301 -6.5 4s-3.83301 1.83398 -7.5 3.50098s-6 2.66699 -7 3l-7.5 2.5c-4 1.33301 -6.33301 2 -7 2v24c38 8 69 12 93 12c16.667 0 28.167 -1.66699 34.5 -5s9.5 -12 9.5 -26c0 -10 -0.666992 -19.833 -2 -29.5s-3.5 -19.5 -6.5 -29.5s-5.83301 -19 -8.5 -27
s-6.5 -16.667 -11.5 -26l-12 -23c-3 -6 -7.33301 -13.333 -13 -22l-11.5 -17.5l-11 -16.5l-8 -11c22 -25.333 39.667 -42.333 53 -51s28 -13 44 -13c11.333 0 24 6.16699 38 18.5s27.667 32.833 41 61.5zM382.998 564.997c0 26.667 -6.5 48.667 -19.5 66
s-32.833 26 -59.5 26c-24.667 0 -43 -9.16699 -55 -27.5s-18 -42.5 -18 -72.5c0 -23.333 11.667 -53.333 35 -90l20 -31c64.667 35.333 97 78.333 97 129zM403.998 96.9971c-71.333 77.333 -135.666 159.667 -192.999 247c-35.333 -36.667 -53 -84 -53 -142
c0 -41.333 13.167 -77 39.5 -107s58.166 -45 95.499 -45c44 0 81 15.667 111 47z" />
    <glyph glyph-name="quotesingle" unicode="'" horiz-adv-x="172" 
d="M29 680l112 10l-30 -203l-52 -10z" />
    <glyph glyph-name="parenleft" unicode="(" horiz-adv-x="309" 
d="M284 -193l-32 -19.001c-141.333 136 -212 299 -212 489c0 96 19.667 186.5 59 271.5s90.333 158.833 153 221.5l32 -19c-34.667 -47.333 -64 -112.166 -88 -194.499s-36 -175.5 -36 -279.5c0 -106.667 12 -201.167 36 -283.5s53.333 -144.5 88 -186.5z" />
    <glyph glyph-name="parenright" unicode=")" horiz-adv-x="309" 
d="M36 -193c34.667 42 64 104.168 88 186.501s36 176.833 36 283.5c0 104 -12 197.167 -36 279.5s-53.333 147.166 -88 194.499l32 19c62.667 -62.667 113.667 -136.5 153 -221.5s59 -175.5 59 -271.5c0 -190 -70.667 -353 -212 -489z" />
    <glyph glyph-name="asterisk" unicode="*" horiz-adv-x="454" 
d="M386 622l34 -60l-130 -69l129 -67l-33 -59l-126 78l5 -147h-67l7 146l-125 -79l-34 61l129 68l-129 68l34 60l124 -80l-6 147h68l-6 -147z" />
    <glyph glyph-name="plus" unicode="+" horiz-adv-x="552" 
d="M514 315l-18 -77.999c-70 1.33301 -128.333 2.33301 -175 3l4 -175l-78 -15c2 90 3 153.333 3 190l-198 -3l15 78c73.333 -2 134.333 -3.33301 183 -4l-3 173l78 18c-2.66699 -94.667 -4 -158.334 -4 -191.001z" />
    <glyph glyph-name="comma" unicode="," horiz-adv-x="186" 
d="M160 45c0 -27.333 -11.5 -60.3301 -34.5 -98.9971s-50.833 -69.334 -83.5 -92.001l-20 21c4 3.33301 8.83301 7.83301 14.5 13.5s13.167 17 22.5 34s14 33.5 14 49.5c0 10.667 -6.33301 24.667 -19 42s-19 30.666 -19 39.999c0 17.333 7 33.166 21 47.499
s29 21.5 45 21.5c39.333 0 59 -26 59 -78z" />
    <glyph glyph-name="hyphen" unicode="-" horiz-adv-x="416" 
d="M375 321l-15 -65c-86 2.66699 -146 4 -180 4l-135 -4l15 65l158 -5z" />
    <glyph glyph-name="period" unicode="." horiz-adv-x="190" 
d="M169 56c-0.666992 -20 -8.16699 -37.167 -22.5 -51.5s-31.166 -21.5 -50.499 -21.5s-35.833 7.16699 -49.5 21.5s-20.167 31.5 -19.5 51.5s8.16699 37.167 22.5 51.5s31.166 21.5 50.499 21.5s35.833 -7.16699 49.5 -21.5s20.167 -31.5 19.5 -51.5z" />
    <glyph glyph-name="slash" unicode="/" horiz-adv-x="382" 
d="M348 735l42 -18l-332 -883l-39 18z" />
    <glyph glyph-name="zero" unicode="0" 
d="M460 358c0 -69.333 -7.5 -129.667 -22.5 -181s-34.5 -90 -58.5 -116s-48.167 -44.833 -72.5 -56.5s-48.833 -17.5 -73.5 -17.5c-60 0 -109.333 26.833 -148 80.5s-58 136.5 -58 248.5c0 60.667 5.66699 114.167 17 160.5s25 82.5 41 108.5s35 47 57 63
s41.833 26.5 59.5 31.5s35.5 7.5 53.5 7.5c61.333 0 110.833 -28.333 148.5 -85s56.5 -138 56.5 -244zM332 353.999c0 94 -7 164.333 -21 211s-36.667 70 -68 70c-9.33301 0 -17 -1 -23 -3s-13.5 -8.83301 -22.5 -20.5s-16.333 -28 -22 -49s-10.5 -52.167 -14.5 -93.5
s-6 -91 -6 -149c0 -187.333 29.333 -281 88 -281c59.333 0 89 105 89 315z" />
    <glyph glyph-name="one" unicode="1" 
d="M370 34l0.000976562 -33.999h-147c-14 0 -23.333 6 -28 18s-7 33.333 -7 64c0 27.333 1.5 69.333 4.5 126s4.83301 98 5.5 124c4 120 6 186.667 6 200c0 32.667 -21 49 -63 49l-62 -4l1 38l243 73l14 -5c-2.66699 -84.667 -5.33398 -182.334 -8.00098 -293.001l-5 -254
c-1.33301 -62 14 -96 46 -102z" />
    <glyph glyph-name="two" unicode="2" 
d="M411 167l34.0029 -5.99902l-49 -154l-62 -5c-40.667 -2.66699 -83.334 -4 -128.001 -4l-178 5l25 91l42 36.5c8.66699 7.66699 25.834 25.5 51.501 53.5s52.834 60.333 81.501 97c55.333 71.333 83 150 83 236c0 37.333 -8.5 63.333 -25.5 78s-36.167 22 -57.5 22
c-44 0 -89 -28.667 -135 -86l-32 26c65.333 88.667 142 133 230 133c17.333 0 33.666 -1.83301 48.999 -5.5s31.333 -10.334 48 -20.001s30 -25.167 40 -46.5s15 -47.666 15 -78.999c0 -25.333 -4.83301 -51.5 -14.5 -78.5s-20.5 -50.5 -32.5 -70.5s-29.167 -43 -51.5 -69
s-39.333 -45 -51 -57l-52.5 -52c-5.33301 -5.33301 -23.333 -22.333 -54 -51s-51.334 -48.334 -62.001 -59.001c43.333 -2 97 -0.666992 161 4c37.333 2.66699 64.166 7.5 80.499 14.5s31.166 22.5 44.499 46.5z" />
    <glyph glyph-name="three" unicode="3" 
d="M433 251c0 -52 -19.332 -98.334 -57.999 -139.001s-90.334 -73.334 -155.001 -98.001c-22 -8.66699 -47.333 -16 -76 -22s-52 -10 -70 -12l-26 -3l5 43c49.333 2.66699 99.666 18.334 150.999 47.001c26 14.667 48 36 66 64s27 60 27 96c0 37.333 -7.16699 64 -21.5 80
s-35.833 24 -64.5 24c-8.66699 0 -25 -3 -49 -9l-36 -10l1 45l33 13c86 34.667 129 89.334 129 164.001c0 30.667 -8 53 -24 67s-34 21 -54 21c-36 0 -81 -18 -135 -54l-13 40c72 52.667 144 79 216 79c90.667 0 136 -40.667 136 -122c0 -42 -15.167 -78.833 -45.5 -110.5
s-64.166 -55.5 -101.499 -71.5v-7c110 0 165 -41.667 165 -125z" />
    <glyph glyph-name="four" unicode="4" 
d="M458 239l-12 -80.001c-20.667 -4.66699 -42.667 -7.33398 -66 -8.00098v-121c0 -19.333 -10.833 -35.166 -32.5 -47.499s-43.5 -19.833 -65.5 -22.5l-33 -4c1.33301 13.333 2 78.333 2 195c-7.33301 0 -21.5 -0.666992 -42.5 -2s-37.833 -2 -50.5 -2l-129 7l2 58l303 488
l55 -11c-2 -39.333 -3.66699 -87.666 -5 -144.999c-0.666992 -28 -1 -133.333 -1 -316zM252 222.999l8 268l-160 -266c42.667 -2.66699 76 -4 100 -4c8 0 25.333 0.666992 52 2z" />
    <glyph glyph-name="five" unicode="5" 
d="M402 738l33 -6.00195l-30 -154c-16 -8 -52 -13.667 -108 -17s-109.333 -4.33301 -160 -3l-9 -160c34 7.33301 68 11 102 11c14 0 27.833 -0.666992 41.5 -2s30.834 -5.16602 51.501 -11.499s38.667 -15 54 -26s28.5 -27.167 39.5 -48.5s16.5 -46.333 16.5 -75
c0 -51.333 -19.167 -96.5 -57.5 -135.5s-90.166 -71.167 -155.499 -96.5c-22 -8.66699 -47.333 -16 -76 -22s-52 -10 -70 -12l-26 -3l5 43c48 2.66699 98.333 18.334 151 47.001c26.667 14 48.834 35 66.501 63s26.5 60.333 26.5 97c0 82.667 -35.667 124 -107 124
c-12 0 -24.167 -1.16699 -36.5 -3.5s-22.333 -4.83301 -30 -7.5s-16.334 -6 -26.001 -10s-15.834 -6.33301 -18.501 -7l-11 8l23 338c49.333 -2.66699 103.666 -3.66699 162.999 -3c43.333 1.33301 76 6.83301 98 16.5s38.667 28.167 50 55.5z" />
    <glyph glyph-name="six" unicode="6" 
d="M449 257c0 -75.333 -22.6699 -139.166 -68.0029 -191.499s-96.666 -78.5 -153.999 -78.5c-30.667 0 -57.5 5.66699 -80.5 17s-41.333 25.833 -55 43.5s-24.834 39 -33.501 64s-14.5 49.667 -17.5 74s-4.5 50.166 -4.5 77.499c0 106.667 30.833 199.5 92.5 278.5
s134.834 131.833 219.501 158.5l15 -37c-133.333 -55.333 -200 -186 -200 -392c0 -154.667 25 -232 75 -232c28 0 49.5 15.333 64.5 46s22.5 69.667 22.5 117c0 62 -6.5 106 -19.5 132s-32.833 39 -59.5 39c-17.333 0 -36.333 -5.66699 -57 -17l3 42
c32 19.333 67.667 29 107 29c12.667 0 23.334 -0.333008 32.001 -1s21.334 -4 38.001 -10s30 -14.333 40 -25s19.167 -27.667 27.5 -51s12.5 -51 12.5 -83z" />
    <glyph glyph-name="seven" unicode="7" 
d="M440 684l-21.999 -80.999l-224 -603h-103l274 581c-1.33301 0 -9.33301 0.333008 -24 1s-31.834 1 -51.501 1s-40.167 -0.666992 -61.5 -2c-46 -3.33301 -79.167 -8.83301 -99.5 -16.5s-40.166 -24.834 -59.499 -51.501l-26 14l48 142c23.333 11.333 101.333 17 234 17
c13.333 0 32.666 -0.333008 57.999 -1s44.333 -1 57 -1z" />
    <glyph glyph-name="eight" unicode="8" 
d="M454 182c0 -55.333 -20.666 -101.667 -61.999 -139s-94 -56 -158 -56c-62.667 0 -110.834 16.167 -144.501 48.5s-50.5 73.833 -50.5 124.5c0 47.333 13.333 86 40 116s62.667 55.667 108 77c-21.333 14.667 -37.166 26.167 -47.499 34.5s-22.333 19.833 -36 34.5
s-23.5 30.5 -29.5 47.5s-9 36.167 -9 57.5c0 32 7 59.5 21 82.5s32 39.667 54 50s42.333 17.5 61 21.5s37 6 55 6c60.667 0 105 -10 133 -30c32.667 -23.333 49 -60 49 -110c0 -10.667 -1.5 -21.5 -4.5 -32.5s-6.33301 -20.5 -10 -28.5s-9 -16.5 -16 -25.5
s-13 -16.333 -18 -22s-12 -12.167 -21 -19.5s-15.5 -12.5 -19.5 -15.5s-10.5 -7.5 -19.5 -13.5s-13.833 -9.33301 -14.5 -10l25 -15.5c13.333 -8.33301 22.666 -14.5 27.999 -18.5l25 -19.5c11.333 -9 19.666 -17.667 24.999 -26s11.333 -18.5 18 -30.5
s11.334 -25.333 14.001 -40s4 -30.667 4 -48zM348.001 534.999c0 36.667 -8.66504 62.5 -25.998 77.5s-37.333 22.5 -60 22.5s-41.834 -7.5 -57.501 -22.5s-23.5 -36.833 -23.5 -65.5c0 -34.667 7.66699 -62.167 23 -82.5s37.666 -39.5 66.999 -57.5
c51.333 28 77 70.667 77 128zM327.003 166.999c0 35.333 -6.83008 63.832 -20.4971 85.499s-39.5 45.5 -77.5 71.5c-16 -9.33301 -29.333 -18.5 -40 -27.5s-21.334 -24.667 -32.001 -47s-16 -48.166 -16 -77.499c0 -44 8.66699 -77.167 26 -99.5s39.666 -33.5 66.999 -33.5
s49.666 11.333 66.999 34s26 54 26 94z" />
    <glyph glyph-name="nine" unicode="9" 
d="M454 413c0 -107.333 -30.333 -200.666 -91 -279.999s-133 -132.333 -217 -159l-15 37c130.667 55.333 196 187.333 196 396c0 63.333 -6.5 117.166 -19.5 161.499s-33.833 66.5 -62.5 66.5c-53.333 0 -80 -52.667 -80 -158c0 -63.333 6.5 -108.5 19.5 -135.5
s33.167 -40.5 60.5 -40.5c17.333 0 36.333 5.66699 57 17l-3 -42c-31.333 -19.333 -66.666 -29 -105.999 -29c-16 0 -32.167 3.16699 -48.5 9.5s-32.5 16.333 -48.5 30s-29.167 34 -39.5 61s-15.5 58.5 -15.5 94.5c0 76.667 21 136.667 63 180s92.667 65 152 65
c37.333 0 69.666 -8.16699 96.999 -24.5s48 -38.333 62 -66s24 -56.5 30 -86.5s9 -62.333 9 -97z" />
    <glyph glyph-name="colon" unicode=":" horiz-adv-x="190" 
d="M163 413c0 -15.333 -5.66699 -28.666 -17 -39.999s-24.666 -17 -39.999 -17s-28.666 5.66699 -39.999 17s-17 24.666 -17 39.999s5.66699 28.666 17 39.999s24.666 17 39.999 17s28.666 -5.66699 39.999 -17s17 -24.666 17 -39.999zM163 53
c0 -15.333 -5.66699 -28.666 -17 -39.999s-24.666 -17 -39.999 -17s-28.666 5.66699 -39.999 17s-17 24.666 -17 39.999s5.66699 28.666 17 39.999s24.666 17 39.999 17s28.666 -5.66699 39.999 -17s17 -24.666 17 -39.999z" />
    <glyph glyph-name="semicolon" unicode=";" horiz-adv-x="190" 
d="M153 413c0 -15.333 -5.66699 -28.666 -17 -39.999s-24.666 -17 -39.999 -17s-28.666 5.66699 -39.999 17s-17 24.666 -17 39.999s5.66699 28.666 17 39.999s24.666 17 39.999 17s28.666 -5.66699 39.999 -17s17 -24.666 17 -39.999zM160 45
c0 -27.333 -11.5 -60.3301 -34.5 -98.9971s-50.833 -69.334 -83.5 -92.001l-20 21c4 3.33301 8.83301 7.83301 14.5 13.5s13.167 17 22.5 34s14 33.5 14 49.5c0 10.667 -6.33301 24.667 -19 42s-19 30.666 -19 39.999c0 17.333 7 33.166 21 47.499s29 21.5 45 21.5
c39.333 0 59 -26 59 -78z" />
    <glyph glyph-name="less" unicode="&#x3c;" horiz-adv-x="581" 
d="M173 271l357 -174l-30 -53l-437 215v24l437 215l30 -53z" />
    <glyph glyph-name="equal" unicode="=" horiz-adv-x="549" 
d="M496 360l-14 -67l-226 3l-205 -4l11 68c90 -1.33301 157.333 -2 202 -2zM496 214l-14 -67l-226 3l-205 -4l11 68c90 -1.33301 157.333 -2 202 -2z" />
    <glyph glyph-name="greater" unicode="&#x3e;" horiz-adv-x="581" 
d="M74 97l357 174l-357 174l30 53l437 -215v-24l-437 -215z" />
    <glyph glyph-name="question" unicode="?" horiz-adv-x="451" 
d="M415 556c0 -15.333 -1.66406 -30 -4.99707 -44s-6.5 -25.667 -9.5 -35s-9.66699 -20.833 -20 -34.5l-23 -30c-5 -6.33301 -15.5 -18.333 -31.5 -36l-34 -37.5l-39.5 -46.5c-9 -11 -18.833 -26.833 -29.5 -47.5s-17.334 -41.334 -20.001 -62.001l-43 -9
c3.33301 55.333 13.666 101.333 30.999 138c2.66699 6 14.334 27 35.001 63s35.5 66.667 44.5 92s13.5 52 13.5 80c0 20.667 -3 37.667 -9 51s-14.5 22.333 -25.5 27s-19.333 7.5 -25 8.5s-12.834 1.5 -21.501 1.5c-25.333 0 -44.833 -6.66699 -58.5 -20
s-20.5 -32.666 -20.5 -57.999c0 -14 4.33301 -30.667 13 -50c-19.333 -18 -45.333 -27 -78 -27c-8.66699 0 -16.834 4.5 -24.501 13.5s-11.5 22.167 -11.5 39.5c0 42.667 19 79 57 109s90.667 45 158 45c118 0 177 -43.667 177 -131zM248.003 56
c-0.666992 -20 -8.16699 -37.167 -22.5 -51.5s-31.166 -21.5 -50.499 -21.5s-35.833 7.16699 -49.5 21.5s-20.167 31.5 -19.5 51.5s8.16699 37.167 22.5 51.5s31.166 21.5 50.499 21.5s35.833 -7.16699 49.5 -21.5s20.167 -31.5 19.5 -51.5z" />
    <glyph glyph-name="at" unicode="@" horiz-adv-x="861" 
d="M838 416c0 -58.667 -16.335 -112.834 -49.002 -162.501s-72.167 -87.5 -118.5 -113.5s-92.166 -39 -137.499 -39c-16 0 -28.167 3.33301 -36.5 10s-12.5 19.667 -12.5 39l8 58h-5c-48.667 -73.333 -102.667 -110 -162 -110c-20 0 -37.5 7.83301 -52.5 23.5
s-22.5 42.834 -22.5 81.501c0 77.333 25 147 75 209c45.333 58 105 87 179 87c14 0 40 -3 78 -9l63 11l13 -3c-9.33301 -29.333 -18.666 -64 -27.999 -104c-28.667 -123.333 -43 -192.666 -43 -207.999c0 -8.66699 1 -15.167 3 -19.5s4 -6.83301 6 -7.5s4.66699 -1 8 -1
c11.333 0 25.5 5 42.5 15s34.333 24.5 52 43.5s32.834 45 45.501 78s19 69.5 19 109.5c0 78 -25.333 142.5 -76 193.5s-119 76.5 -205 76.5c-108 0 -193.667 -37.667 -257 -113s-95 -174.666 -95 -297.999c0 -108 28.667 -192.5 86 -253.5s141 -91.5 251 -91.5
c99.333 0 187.666 30 264.999 90l13 -33c-92 -68.667 -192.333 -103 -301 -103c-68.667 0 -129.667 10.5 -183 31.5s-96 49.667 -128 86s-56 77.666 -72 123.999s-24 96.166 -24 149.499c0 130 43.167 237.333 129.5 322s192.5 127 318.5 127c111.333 0 198 -27.5 260 -82.5
s93 -126.167 93 -213.5zM515.998 354l21.002 91.999c-12.667 10.667 -30.334 16 -53.001 16c-16.667 0 -33.167 -8 -49.5 -24s-30.5 -38 -42.5 -66c-22.667 -48.667 -34 -99 -34 -151c0 -35.333 9.66699 -53 29 -53c24 0 48.667 19.333 74 58s43.666 81.334 54.999 128.001z
" />
    <glyph glyph-name="A" unicode="A" horiz-adv-x="599" 
d="M592 40l-2 -41.9971c-48.667 -3.33301 -81.334 -5 -98.001 -5c-32 0 -54.333 4.83301 -67 14.5s-23.334 29.167 -32.001 58.5c-5.33301 19.333 -18.666 80.666 -39.999 183.999l-198 2c-18 -57.333 -27 -111 -27 -161c0 -17.333 2 -30 6 -38s12.333 -16.333 25 -25
l-2 -30c-52 -3.33301 -87.667 -5 -107 -5c-15.333 0 -25.166 3.5 -29.499 10.5s-6.5 17.833 -6.5 32.5c0 31.333 17.333 92 52 182l56 146c5.33301 14.667 13.833 36 25.5 64l27 66.5c6.33301 16.333 12.333 33.5 18 51.5s8.5 31.333 8.5 40c0 4.66699 -0.5 9 -1.5 13
s-2.66699 7 -5 9s-4.5 3.66699 -6.5 5s-5 2.33301 -9 3s-7.16699 1.16699 -9.5 1.5s-6 0.5 -11 0.5h-10.5v36c102.667 22 167.667 33 195 33c20.667 0 34.5 -6.16699 41.5 -18.5s15.833 -40.166 26.5 -83.499c2 -8.66699 3.66699 -15.334 5 -20.001l70 -289
c22 -92 35 -143.333 39 -154c10.667 -28.667 20.5 -49.334 29.5 -62.001s21.5 -19.334 37.5 -20.001zM172 302.003l171 -5.99902l-49 214c-12 53.333 -20.667 88.666 -26 105.999h-3l-34 -120z" />
    <glyph glyph-name="B" unicode="B" horiz-adv-x="593" 
d="M550 202c0 -42 -9.33301 -78.167 -28 -108.5s-43 -52.833 -73 -67.5s-59.167 -25.167 -87.5 -31.5s-56.833 -9.5 -85.5 -9.5c-132 0 -198 14 -198 42c0 6 0.333008 13.167 1 21.5s1.66699 20 3 35l4 45.5c4 54.667 6 98.667 6 132l1 194c0 42 -1 75.167 -3 99.5
s-6.5 41.833 -13.5 52.5s-13.667 17.167 -20 19.5s-16.5 3.83301 -30.5 4.5v42c140 9.33301 243 14 309 14c123.333 0 185 -49.667 185 -149c0 -28.667 -8.33301 -55.5 -25 -80.5s-33.667 -43.833 -51 -56.5s-34.333 -22 -51 -28v-6c42 -6 78.667 -22.5 110 -49.5
s47 -65.5 47 -115.5zM384 522c0 75.333 -26 113.001 -78 113.001c-21.333 0 -36.833 -1.33301 -46.5 -4s-18.167 -8.33398 -25.5 -17.001c-4.66699 -6 -7 -30.333 -7 -73l-1 -164l66 4c28 1.33301 50.333 14 67 38s25 58.333 25 103zM410 190.001
c0 44.667 -9.16699 79.498 -27.5 104.498s-44.833 37.5 -79.5 37.5c-27.333 0 -53 -3 -77 -9c0 -7.33301 -1 -45.666 -3 -114.999s-3 -110.666 -3 -123.999c-0.666992 -14 5.5 -24.667 18.5 -32s31.833 -11 56.5 -11c76.667 0 115 49.667 115 149z" />
    <glyph glyph-name="C" unicode="C" horiz-adv-x="554" 
d="M526 613c0 -36.667 -27.334 -71.9971 -82.001 -105.997l-20 16c1.33301 24.667 -0.166992 45.167 -4.5 61.5s-11.166 28.166 -20.499 35.499s-18.5 12.333 -27.5 15s-19.167 4 -30.5 4c-45.333 0 -83.333 -25.333 -114 -76s-46 -128.334 -46 -233.001
c0 -180 50.667 -270 152 -270c64.667 0 123.667 26 177 78l14 -41l-8.5 -11.5c-3.66699 -5 -12.167 -13.833 -25.5 -26.5s-27.666 -23.834 -42.999 -33.501s-35.833 -18.5 -61.5 -26.5s-52.167 -12 -79.5 -12c-76 0 -138.833 26 -188.5 78s-74.5 132.333 -74.5 241
c0 112.667 32.333 206.667 97 282c28.667 34 62.834 59.667 102.501 77s77.167 26 112.5 26c33.333 0 62.166 -2.66699 86.499 -8s42.166 -12.333 53.499 -21s19.333 -17 24 -25s7 -16 7 -24z" />
    <glyph glyph-name="D" unicode="D" horiz-adv-x="647" 
d="M610 390c0 -51.333 -4.50195 -97.8281 -13.502 -139.495s-20.667 -76.334 -35 -104.001s-31.833 -51.834 -52.5 -72.501s-40.834 -36.5 -60.501 -47.5s-41.167 -19.833 -64.5 -26.5s-43.166 -10.834 -59.499 -12.501s-33.166 -2.5 -50.499 -2.5
c-62 0 -112.667 4.33301 -152 13c-19.333 4 -32.333 8.5 -39 13.5s-10 11.5 -10 19.5c0 4.66699 1.33301 17 4 37s4.66699 40.333 6 61c4 54.667 6 98.667 6 132v194c0 48.667 -1.66699 88 -5 118c-4 37.333 -25.333 56.666 -64 57.999v42c127.333 9.33301 224 14 290 14
c13.333 0 26.5 -0.5 39.5 -1.5s30 -3.66699 51 -8s40.333 -10.333 58 -18s36.167 -19 55.5 -34s35.833 -32.5 49.5 -52.5s24.834 -45.833 33.501 -77.5s13 -66.834 13 -105.501zM465.998 364.005c0 36.667 -2.16895 69.498 -6.50195 98.498s-9.66602 52.833 -15.999 71.5
s-14.833 34.667 -25.5 48s-20.5 23.333 -29.5 30s-20.167 11.834 -33.5 15.501s-24.166 5.83398 -32.499 6.50098s-18.5 1 -30.5 1c-29.333 0 -50 -7 -62 -21c-7.33301 -8.66699 -11 -31.334 -11 -68.001c0 -6.66699 0.666992 -36.667 2 -90s2 -96.333 2 -129
c0 -55.333 -0.333008 -96.666 -1 -123.999c-0.666992 -32 -1 -70.333 -1 -115c0 -31.333 20 -47 60 -47c25.333 0 48.333 5 69 15s40.167 26.667 58.5 50s32.5 56.833 42.5 100.5s15 96.167 15 157.5z" />
    <glyph glyph-name="E" unicode="E" horiz-adv-x="536" 
d="M478 186l33.001 -5.99902l-34 -178c-62 -8 -130.667 -12 -206 -12c-77.333 0 -128.5 2.16699 -153.5 6.5s-37.5 14.5 -37.5 30.5c0 3.33301 0.166992 7.83301 0.5 13.5s0.833008 13.5 1.5 23.5l2 29l4 72c0.666992 12 1.16699 26.667 1.5 44s0.833008 38.166 1.5 62.499
s1.33398 44.5 2.00098 60.5l2.5 89l2.5 89.5c0.666992 24.333 1 40.5 1 48.5c0 29.333 -3.83301 50.666 -11.5 63.999s-22.167 21.666 -43.5 24.999v34c148.667 3.33301 242 5 280 5c75.333 0 122.666 -2.16699 141.999 -6.5s29 -17.166 29 -38.499
c0 -14 -6.16699 -35.5 -18.5 -64.5s-26.5 -52.167 -42.5 -69.5l-38 -5c5.33301 39.333 8 65.333 8 78c0 21.333 -7.33301 35.833 -22 43.5s-38 11.5 -70 11.5c-16 0 -28.667 -0.666992 -38 -2s-18 -4.66602 -26 -9.99902s-12.667 -13.333 -14 -24
c-6.66699 -43.333 -10 -114.333 -10 -213v-9l181 5l-11 -70c-40 7.33301 -97 12 -171 14c0 -36 -0.333008 -73.5 -1 -112.5s-1 -68.167 -1 -87.5c0 -32 5.16699 -53.5 15.5 -64.5s36.166 -16.5 77.499 -16.5c25.333 0 48 4.5 68 13.5s36.333 22 49 39s22 31.333 28 43
s12.333 26.5 19 44.5z" />
    <glyph glyph-name="F" unicode="F" horiz-adv-x="503" 
d="M495 642c0 -14 -6.16602 -35.5 -18.499 -64.5s-26.5 -52.167 -42.5 -69.5l-38 -5c5.33301 39.333 8 65.333 8 78c0 21.333 -7.33301 35.833 -22 43.5s-38 11.5 -70 11.5c-16 0 -28.667 -0.666992 -38 -2s-18 -4.66602 -26 -9.99902s-12.667 -13.333 -14 -24
c-6.66699 -43.333 -10 -114.333 -10 -213v-9l181 5l-11 -70c-40 7.33301 -97 12 -171 14l-4 -191c-1.33301 -62 14 -96 46 -102v-34h-147c-14 0 -23.333 6 -28 18s-7 33.333 -7 64c0 27.333 1.5 69.333 4.5 126s4.83301 98 5.5 124c4 120 6 195.667 6 227
c0 29.333 -3.83301 50.666 -11.5 63.999s-22.167 21.666 -43.5 24.999v34c148.667 3.33301 242 5 280 5c75.333 0 122.666 -2.16699 141.999 -6.5s29 -17.166 29 -38.499z" />
    <glyph glyph-name="G" unicode="G" horiz-adv-x="609" 
d="M532 375l13.002 -4.99707c-2 -28.667 -3.66699 -73 -5 -133l-3 -141c-2.66699 -2.66699 -6.83398 -6.5 -12.501 -11.5s-17.5 -13.833 -35.5 -26.5s-36.833 -23.667 -56.5 -33s-44.5 -18 -74.5 -26s-60.333 -12 -91 -12c-69.333 0 -125 25.833 -167 77.5
s-63 132.167 -63 241.5c0 112.667 32.333 206.667 97 282c28.667 34 62.834 59.667 102.501 77s77.167 26 112.5 26c34 0 63.167 -2.66699 87.5 -8s42.166 -12.333 53.499 -21s19.166 -17 23.499 -25s6.5 -16 6.5 -24c0 -36.667 -27.333 -72 -82 -106l-20 16
c1.33301 24.667 -0.166992 45.167 -4.5 61.5s-11.166 28.166 -20.499 35.499s-18.5 12.333 -27.5 15s-19.167 4 -30.5 4c-45.333 0 -83.333 -25.333 -114 -76s-46 -128.334 -46 -233.001c0 -94 12.833 -163.5 38.5 -208.5s60.167 -67.5 103.5 -67.5
c25.333 0 46.5 3.83301 63.5 11.5s27.833 14.834 32.5 21.501c0 84 -0.666992 140.667 -2 170c-0.666992 7.33301 -1.33398 13.666 -2.00098 18.999s-2 10.166 -4 14.499l-5 10.5c-1.33301 2.66699 -4 5 -8 7s-6.83301 3.5 -8.5 4.5s-5.5 1.66699 -11.5 2s-10 0.5 -12 0.5
h-15h-17v43z" />
    <glyph glyph-name="H" unicode="H" horiz-adv-x="659" 
d="M620 34v-33.9971h-149c-13.333 0 -22.5 6.66699 -27.5 20s-7.5 34 -7.5 62c0 24 0.833008 64.167 2.5 120.5s2.83398 101.833 3.50098 136.5l-218 3l-5 -206c-0.666992 -32.667 1.66602 -57 6.99902 -73s17 -25.667 35 -29v-34h-143c-14 0 -23.333 6 -28 18
s-7 33.333 -7 64c0 26.667 1.5 68.334 4.5 125.001s4.83301 98.334 5.5 125.001c4 120 6 196 6 228c0 29.333 -3.83301 50.666 -11.5 63.999s-22.167 21.666 -43.5 24.999v34c56.667 3.33301 104 5 142 5c18.667 0 31 -6 37 -18s9 -35 9 -69c0 -21.333 -0.5 -45 -1.5 -71
s-2.16699 -52.833 -3.5 -80.5s-2.33301 -47.5 -3 -59.5l218 10c1.33301 85.333 2 138.666 2 159.999c0 29.333 -3.83301 50.666 -11.5 63.999s-22.167 21.666 -43.5 24.999v34c56.667 3.33301 104 5 142 5c18.667 0 31 -6 37 -18s9 -35 9 -69c0 -2.66699 -2 -81 -6 -235
c-1.33301 -68 -2 -144.667 -2 -230c0 -32.667 3.5 -57 10.5 -73s20.5 -25.667 40.5 -29z" />
    <glyph glyph-name="I" unicode="I" horiz-adv-x="296" 
d="M265 34v-33.999h-147c-14 0 -23.333 6 -28 18s-7 33.333 -7 64c0 27.333 1.5 69.333 4.5 126s4.83301 98 5.5 124c4 120 6 196 6 228c0 29.333 -3.83301 50.666 -11.5 63.999s-22.167 21.666 -43.5 24.999v34c56.667 3.33301 104 5 142 5c18.667 0 31 -6 37 -18
s9 -35 9 -69c0 -26.667 -1.16699 -62.667 -3.5 -108s-3.83301 -79.666 -4.5 -102.999l-5 -254c-1.33301 -62 14 -96 46 -102z" />
    <glyph glyph-name="J" unicode="J" horiz-adv-x="313" 
d="M254 601c0 -30.667 -2.66406 -102.661 -7.99707 -215.994c-8.66699 -204 -21.334 -329 -38.001 -375c-42.667 -117.333 -109.334 -176 -200.001 -176c-52 0 -78 17 -78 51c0 4.66699 0.333008 9 1 13s2 7.83301 4 11.5l5 9c1.33301 2.33301 4 5.16602 8 8.49902
s6.66699 5.66602 8 6.99902s4.66602 3.33301 9.99902 6s8.5 4.33398 9.5 5.00098s4.5 2.5 10.5 5.5s9.33301 4.5 10 4.5l12 -12c0 -13.333 3.83301 -26.333 11.5 -39s18.5 -19 32.5 -19c8.66699 0 16 1.16699 22 3.5s11 7.16602 15 14.499l9.5 17.5
c2.33301 4.33301 4.33301 12.833 6 25.5s2.66699 21.167 3 25.5s1.16602 14.166 2.49902 29.499c1.33301 14.667 2.33301 65.667 3 153s1.33398 146.666 2.00098 177.999c4 120 6 196 6 228c0 29.333 -3.83301 50.666 -11.5 63.999s-22.167 21.666 -43.5 24.999v34
c56.667 3.33301 104 5 142 5c18.667 0 31 -6 37 -18s9 -35 9 -69z" />
    <glyph glyph-name="K" unicode="K" horiz-adv-x="615" 
d="M608 38l-0.000976562 -34.001c-46 -6.66699 -83.333 -10 -112 -10c-20.667 0 -37 4.5 -49 13.5s-23.333 22.833 -34 41.5c-6 10 -18.333 36.833 -37 80.5s-29 67.167 -31 70.5c-20.667 42 -38.167 71.667 -52.5 89s-29.833 28 -46.5 32l-13 3l2 33
c27.333 11.333 54 30.333 80 57s47 52 63 76c22.667 34.667 34 69.667 34 105c0 24 -12 39.333 -36 46v34c74.667 8 120 12 136 12c21.333 0 32 -6.66699 32 -20c0 -22 -22.333 -64.667 -67 -128c-24 -34 -43.667 -60.333 -59 -79s-37.333 -41.667 -66 -69
c12 -7.33301 21.333 -13.833 28 -19.5s16.334 -17.167 29.001 -34.5s27 -40.666 43 -69.999l25.5 -50.5l37 -72.5c11.667 -22.667 21.167 -39 28.5 -49l8 -12c4 -6 6.5 -9.66699 7.5 -11l6.5 -8.5c3.33301 -4.33301 6 -7.16602 8 -8.49902l9 -6
c4 -2.66699 8 -4.83398 12 -6.50098s8.66699 -3.16699 14 -4.5zM264.999 33.999v-33.998h-147c-14 0 -23.333 6 -28 18s-7 33.333 -7 64c0 27.333 1.5 69.333 4.5 126s4.83301 98 5.5 124c4 120 6 196 6 228c0 29.333 -3.83301 50.666 -11.5 63.999
s-22.167 21.666 -43.5 24.999v34c56.667 3.33301 104 5 142 5c18.667 0 31 -6 37 -18s9 -35 9 -69c0 -18.667 -1.16699 -52 -3.5 -100s-3.83301 -85 -4.5 -111l-5 -254c-1.33301 -62 14 -96 46 -102z" />
    <glyph glyph-name="L" unicode="L" horiz-adv-x="524" 
d="M478 186l33 -5.99805l-34 -178c-62 -8 -131 -12 -207 -12c-77.333 0 -128.5 2.16699 -153.5 6.5s-37.5 14.5 -37.5 30.5c0 3.33301 0.166992 7.83301 0.5 13.5s0.833008 13.5 1.5 23.5l2 29c4 69.333 6 106.666 6 111.999l4 127c4 118.667 6 194.667 6 228
c0 29.333 -3.83301 50.666 -11.5 63.999s-22.167 21.666 -43.5 24.999v34c56.667 3.33301 104 5 142 5c18.667 0 31 -4.66699 37 -14s9 -29 9 -59c0 -13.333 -1.16699 -47.5 -3.5 -102.5s-3.83301 -95.833 -4.5 -122.5c-3.33301 -112 -5 -198.667 -5 -260
c0 -33.333 5.5 -55.666 16.5 -66.999s37.167 -17 78.5 -17c25.333 0 48 4.5 68 13.5s36.333 22 49 39s22 31.333 28 43s12.333 26.5 19 44.5z" />
    <glyph glyph-name="M" unicode="M" horiz-adv-x="785" 
d="M772 35l-0.00976562 -35.9971c-40 -4 -71 -6 -93 -6c-25.333 0 -44.166 4.33301 -56.499 13s-21.166 26.334 -26.499 53.001c-3.33301 16 -12.666 142.333 -27.999 379l-9 138l-10 -32l-27.5 -85c-11.667 -36 -22.5 -67.667 -32.5 -95l-14 -38.5l-15 -41.5l-14.5 -39.5
c-6.33301 -17 -11.666 -30.167 -15.999 -39.5l-15.5 -34c-6 -13.333 -11.5 -23.666 -16.5 -30.999l-16 -22.5c-5.66699 -7.66699 -11.167 -13.167 -16.5 -16.5s-10.666 -5 -15.999 -5c-26 0 -53.667 54 -83 162l-88 324l-17 -79c-31.333 -144.667 -47 -259.334 -47 -344.001
c0 -70 16.667 -110 50 -120v-33c-48.667 -8.66699 -81 -13 -97 -13c-16.667 0 -28.334 3.66699 -35.001 11s-10 20 -10 38c0 56 12.667 141.333 38 256l34 157c15.333 70.667 23 115.334 23 134.001c0 4 -0.333008 7.66699 -1 11s-1.83398 6.16602 -3.50098 8.49902
l-4.5 6.5c-1.33301 2 -3.5 3.5 -6.5 4.5s-5.16699 2 -6.5 3s-4 1.66699 -8 2s-6.66699 0.666016 -8 0.999023s-4.33301 0.666016 -9 0.999023s-7.33398 0.5 -8.00098 0.5v41c106.667 14 168.334 21 185.001 21c6 0 11.5 -0.666992 16.5 -2s9.16699 -2.83301 12.5 -4.5
s6.33301 -4.83398 9 -9.50098s4.83398 -8.33398 6.50098 -11.001s3.5 -7.5 5.5 -14.5s3.33301 -12.333 4 -16l3.5 -19.5l3.5 -20c14.667 -73.333 27.334 -131.333 38.001 -174c12.667 -48.667 22.167 -80.334 28.5 -95.001s13.833 -22 22.5 -22c18 0 41.333 45.667 70 137
c11.333 36 31 106 59 210c12.667 12 33.334 21.667 62.001 29s49.667 11 63 11c12 0 20.333 -5.16699 25 -15.5s8.33398 -34.833 11.001 -73.5l18 -242c10 -127.333 18.333 -212.666 25 -255.999c2.66699 -16.667 4.83398 -28.167 6.50098 -34.5s5.33398 -13 11.001 -20
s13.834 -10.833 24.501 -11.5z" />
    <glyph glyph-name="N" unicode="N" horiz-adv-x="656" 
d="M605 659c0 -11.333 -3.32812 -84.665 -9.99512 -219.998c-4.66699 -99.333 -7.66699 -176 -9 -230v-210l-49 -9c-46.667 46 -124 154.333 -232 325c-58.667 91.333 -105 166 -139 224c-6 -172 -7.66699 -304.667 -5 -398c3.33301 -68 18 -104 44 -108v-34
c-28 -6 -49.667 -9 -65 -9c-19.333 0 -32.833 3.66699 -40.5 11s-11.5 19.666 -11.5 36.999c0 20 1.16699 45.333 3.5 76s3.83301 61.334 4.5 92.001l8 252c1.33301 58 1.33301 96.333 0 115c-0.666992 12 -2.83398 22 -6.50098 30s-8.83398 13.667 -15.501 17
s-12.5 5.5 -17.5 6.5s-11.833 1.66699 -20.5 2s-14.334 0.5 -17.001 0.5l-2 39c95.333 14 151.666 21 168.999 21s29.833 -3.33301 37.5 -10s21.834 -26.667 42.501 -60l107 -178c21.333 -36 49.666 -80.833 84.999 -134.5s55.333 -84.5 60 -92.5
c0 22.667 1.16699 77.167 3.5 163.5s2.16602 139.166 -0.500977 158.499c-0.666992 38.667 -4.5 64.167 -11.5 76.5s-21.5 21.833 -43.5 28.5v34c34 9.33301 69 14 105 14c8.66699 0 15.167 -1.83301 19.5 -5.5s6.5 -11.834 6.5 -24.501z" />
    <glyph glyph-name="O" unicode="O" horiz-adv-x="657" 
d="M618 358c0 -64 -9.66797 -121.167 -29.001 -171.5s-44 -89.166 -74 -116.499s-61.167 -48 -93.5 -62s-63.833 -21 -94.5 -21c-86.667 0 -155.5 28.167 -206.5 84.5s-76.5 141.166 -76.5 254.499c0 58 7.33301 109.5 22 154.5s32.834 80.333 54.501 106
s46.5 46.834 74.5 63.501s53.833 27.667 77.5 33s46.5 8 68.5 8c86 0 153.667 -26.833 203 -80.5s74 -137.834 74 -252.501zM478.999 354c0 99.333 -10.5 171.667 -31.5 217s-56.5 68 -106.5 68c-105.333 0 -158 -103 -158 -309c0 -194 47.667 -291 143 -291
c102 0 153 105 153 315z" />
    <glyph glyph-name="P" unicode="P" horiz-adv-x="575" 
d="M541 524c0 -39.333 -7.5 -73.668 -22.5 -103.001s-34.667 -51.666 -59 -66.999s-47.333 -26.833 -69 -34.5s-43.834 -13.167 -66.501 -16.5c-16 -2 -42.667 -3 -80 -3v46c12 -0.666992 31.667 1 59 5c29.333 4.66699 54.833 20 76.5 46s32.5 63.667 32.5 113
c0 83.333 -31 125 -93 125c-24.667 0 -42.5 -1.16699 -53.5 -3.5s-19.167 -8.16602 -24.5 -17.499c-8 -14 -13.667 -88.667 -17 -224l-5 -254c-1.33301 -62 14 -96 46 -102v-34h-147c-14 0 -23.333 6 -28 18s-7 33.333 -7 64c0 27.333 1.5 69.333 4.5 126
s4.83301 98 5.5 124c4 120 6 197 6 231c0 15.333 -2 28 -6 38s-10.167 16.833 -18.5 20.5s-15.166 6 -20.499 7s-12.666 1.83301 -21.999 2.5v42c132.667 9.33301 232 14 298 14c19.333 0 36.166 -0.5 50.499 -1.5s32.333 -4.5 54 -10.5s39.5 -14.333 53.5 -25
s26.333 -26.834 37 -48.501s16 -47.5 16 -77.5z" />
    <glyph glyph-name="Q" unicode="Q" horiz-adv-x="663" 
d="M645 -17l5.99902 -28.002c-5.33301 -5.33301 -12.5 -11.666 -21.5 -18.999s-24.833 -17.166 -47.5 -29.499s-42.334 -18.5 -59.001 -18.5c-12.667 0 -25 3.16699 -37 9.5s-21.333 12.833 -28 19.5s-15.667 16.334 -27 29.001c-23.333 27.333 -38.333 44 -45 50
c-21.333 -6 -41 -9 -59 -9c-86.667 0 -155.5 28.167 -206.5 84.5s-76.5 141.166 -76.5 254.499c0 59.333 7.33301 111.833 22 157.5s32.834 81.167 54.501 106.5s46.834 46 75.501 62s54.667 26.5 78 31.5s46.333 7.5 69 7.5c85.333 0 152.5 -27.167 201.5 -81.5
s73.5 -138.166 73.5 -251.499c0 -140.667 -45 -245.334 -135 -314.001l39 -41c22.667 -22.667 45.667 -34 69 -34c8 0 16.5 1.16699 25.5 3.5s16.167 4.83301 21.5 7.5zM478.999 353.998c0 97.333 -11.667 169.167 -35 215.5s-60.333 69.5 -111 69.5
c-100 0 -150 -103 -150 -309c0 -194 50 -291 150 -291c97.333 0 146 105 146 315z" />
    <glyph glyph-name="R" unicode="R" horiz-adv-x="609" 
d="M598 43l0.00390625 -32.999c-35.333 -11.333 -72.666 -17 -111.999 -17c-16.667 0 -30.834 3.33301 -42.501 10s-19.334 12.834 -23.001 18.501s-10.167 16.5 -19.5 32.5c-8 14 -20.833 40.333 -38.5 79s-26.834 58.667 -27.501 60c-19.333 40.667 -34.833 70 -46.5 88
s-24.834 30.333 -39.501 37l-9 4v39c13.333 -1.33301 29.666 -2 48.999 -2c33.333 0 62.166 14.167 86.499 42.5s36.5 67.833 36.5 118.5c0 76.667 -31 115 -93 115c-24.667 0 -42.5 -1.16699 -53.5 -3.5s-19.167 -8.16602 -24.5 -17.499c-8 -14 -13.667 -88.667 -17 -224
l-5 -254c-1.33301 -62 14 -96 46 -102v-34h-147c-14 0 -23.333 6 -28 18s-7 33.333 -7 64c0 27.333 1.5 69.333 4.5 126s4.83301 98 5.5 124c4 120 6 197 6 231c0 15.333 -2 28 -6 38s-10.167 16.833 -18.5 20.5s-15.166 6 -20.499 7s-12.666 1.83301 -21.999 2.5v42
c132.667 9.33301 232 14 298 14h35c7.33301 0 19.833 -1 37.5 -3s31.5 -4.66699 41.5 -8s22 -8.83301 36 -16.5s24.833 -16.834 32.5 -27.501s14.334 -24.5 20.001 -41.5s8.5 -36.5 8.5 -58.5c0 -59.333 -19.333 -106.166 -58 -140.499s-81.667 -54.166 -129 -59.499
c35.333 -16.667 65 -47 89 -91c4.66699 -8 12 -22.333 22 -43s19.167 -38.834 27.5 -54.501s15.166 -26.834 20.499 -33.501c2.66699 -3.33301 7 -9.16602 13 -17.499s10.667 -14.333 14 -18s8.16602 -8.33398 14.499 -14.001s13 -9.83398 20 -12.501
s14.833 -4.33398 23.5 -5.00098z" />
    <glyph glyph-name="S" unicode="S" horiz-adv-x="504" 
d="M465 224c0 -74 -27.0029 -131.837 -81.0029 -173.504s-117.667 -62.5 -191 -62.5c-59.333 0 -100 6.83301 -122 20.5s-33 33.5 -33 59.5c0 38.667 15.667 75.334 47 110.001l22 -10c4.66699 -46 18.5 -78.833 41.5 -98.5s47.833 -29.5 74.5 -29.5
c28.667 0 55.334 10.667 80.001 32s37 53.333 37 96c0 14 -2 26.333 -6 37s-12.333 21 -25 31s-22.667 17.333 -30 22s-23.166 13 -47.499 25l-50.5 25c-22 11.333 -36 18.666 -42 21.999s-17.833 11.5 -35.5 24.5s-29.667 24.833 -36 35.5s-12.833 26 -19.5 46
s-10 42 -10 66c0 20.667 4.16699 41.167 12.5 61.5s21.333 40 39 59s43.334 34.5 77.001 46.5s72.5 18 116.5 18c108.667 0 163 -26.667 163 -80c0 -35.333 -18 -70.333 -54 -105l-24 9c-2 44 -13.167 75.667 -33.5 95s-44.833 29 -73.5 29
c-37.333 0 -64.666 -9.33301 -81.999 -28s-26 -41.667 -26 -69c0 -10 0.833008 -19.167 2.5 -27.5s5.16699 -16 10.5 -23s9.5 -12.667 12.5 -17s9.66699 -9.66602 20 -15.999s17.166 -10.666 20.499 -12.999s12 -6.83301 26 -13.5s22.667 -11 26 -13
c5.33301 -2.66699 16.833 -7.66699 34.5 -15s32 -13.666 43 -18.999s24.667 -13.5 41 -24.5s29.333 -22.167 39 -33.5s18.167 -25.666 25.5 -42.999s11 -36 11 -56z" />
    <glyph glyph-name="T" unicode="T" horiz-adv-x="600" 
d="M586 646c0 -14 -6.16797 -35.502 -18.501 -64.502s-26.5 -52.167 -42.5 -69.5l-38 -5c5.33301 39.333 8 65.333 8 78c0 21.333 -6.5 35.833 -19.5 43.5s-33.167 11.5 -60.5 11.5l-59 -5c2.66699 -16 4 -50.333 4 -103c0 -11.333 -0.166992 -25 -0.5 -41
s-0.833008 -34.167 -1.5 -54.5s-1 -35.833 -1 -46.5l-5 -254c-1.33301 -62 14 -96 46 -102v-34h-145c-14 0 -23.333 6 -28 18s-7 33.333 -7 64c0 16 2.66699 86.333 8 211l5 104c2 42 3 82.333 3 121c0 52.667 -3.33301 85.5 -10 98.5s-23 19.5 -49 19.5
c-28 0 -50 -9 -66 -27c-15.333 -18 -31 -55 -47 -111l-36 -12c-7.33301 30.667 -11 65.667 -11 105c0 32.667 3.33301 61.334 10 86.001l14 11c54.667 -3.33301 139.334 -5 254.001 -5c22 0 56.5 1.33301 103.5 4s77.833 4 92.5 4c42.667 0 69.5 -2.16699 80.5 -6.5
s16.5 -17.166 16.5 -38.499z" />
    <glyph glyph-name="U" unicode="U" horiz-adv-x="628" 
d="M553 652c0 -43.333 -1.66797 -117.33 -5.00098 -221.997l-7 -214c-2.66699 -72 -26 -128.667 -70 -170s-99 -62 -165 -62c-150 0 -225 68.667 -225 206c0 4 1.66699 70 5 198l3.5 90.5c1.66699 42.333 2.5 69.5 2.5 81.5c0 29.333 -3.83301 50.666 -11.5 63.999
s-22.167 21.666 -43.5 24.999v34c56.667 3.33301 104 5 142 5c18.667 0 31 -4.66699 37 -14s9 -29 9 -59c0 -19.333 -1.83301 -75 -5.5 -167s-5.5 -172.667 -5.5 -242c0 -102 39 -153 117 -153c23.333 0 43.5 4 60.5 12s29.667 17.167 38 27.5s15.166 25.333 20.499 45
s8.5 35.667 9.5 48s2.16699 30.166 3.5 53.499c3.33301 68 5 166.333 5 295c0 39.333 -3.16699 65.333 -9.5 78s-20.166 22.334 -41.499 29.001v34c42.667 7.33301 78.334 11 107.001 11c4.66699 0 8.66699 -0.333008 12 -1s7 -3.83398 11 -9.50098s6 -13.5 6 -23.5z" />
    <glyph glyph-name="V" unicode="V" horiz-adv-x="601" 
d="M587 650c0 -30.667 -16.6631 -98.6689 -49.9961 -204.002l-36 -112c-17.333 -54 -45.333 -131 -84 -231l-31 -77c-43.333 -26 -86 -39 -128 -39c-10 0 -17 3.66699 -21 11s-8.66699 23 -14 47c-23.333 95.333 -37.333 154.333 -42 177l-39 176
c-18 78.667 -36.667 141 -56 187c-6 14.667 -13.333 25.5 -22 32.5s-15.334 10.833 -20.001 11.5s-13.334 1.33398 -26.001 2.00098v41c50 13.333 96.333 20 139 20c24 0 41.167 -9.83301 51.5 -29.5s25.166 -69.5 44.499 -149.5l21 -86
c5.33301 -22.667 11.333 -49.667 18 -81s14 -63.666 22 -96.999l37 -163h5l35 98c27.333 76.667 49.166 153.667 65.499 231s24.5 133.333 24.5 168c0 20 -3 33.5 -9 40.5s-16.667 13.5 -32 19.5l2 30c52.667 9.33301 88.667 14 108 14c24.667 0 37 -12.333 37 -37z" />
    <glyph glyph-name="W" unicode="W" horiz-adv-x="881" 
d="M855 650c0.666992 -15.333 -2.66504 -43.167 -9.99805 -83.5s-17.333 -80.166 -30 -119.499l-49 -150l-48.5 -141c-16.333 -46 -28.833 -80 -37.5 -102l-12 -33c-27.333 -19.333 -54.666 -29 -81.999 -29c-13.333 0 -22.333 6.16699 -27 18.5
s-11.334 40.833 -20.001 85.5l-44 236l-46 250c-34.667 -130 -76.334 -272 -125.001 -426l-42 -135c-24 -18.667 -53.333 -28 -88 -28c-11.333 0 -19.333 3 -24 9s-8 18.333 -10 37l-9.5 93c-5 49.333 -9.16699 86.666 -12.5 111.999l-20 164c-10 85.333 -21 144 -33 176
c-5.33301 14.667 -12 25.5 -20 32.5s-14.5 11 -19.5 12s-13.5 1.83301 -25.5 2.5v41c62 13.333 114.333 20 157 20c14.667 0 26 -13.333 34 -40s16.333 -71.334 25 -134.001c10 -77.333 20.333 -174.666 31 -291.999l5 -59h4l30 99c17.333 56 53.666 184.667 108.999 386
c14 10 33 18.833 57 26.5s40.667 11.5 50 11.5c8.66699 0 14.334 -0.166992 17.001 -0.5s6 -3.16602 10 -8.49902s7.33301 -14.333 10 -27c2 -8 17 -85.333 45 -232l57 -266h7l12 35c50.667 148.667 76 275 76 379c0 6.66699 -0.166992 12.667 -0.5 18
s-1.16602 10.166 -2.49902 14.499l-3.5 11c-1 3 -2.83301 5.83301 -5.5 8.5s-4.5 4.66699 -5.5 6s-3.5 3 -7.5 5s-6.5 3.16699 -7.5 3.5s-3.83301 1.33301 -8.5 3s-7.33398 2.5 -8.00098 2.5v30c53.333 10 89.333 15 108 15c25.333 0 38.666 -12.333 39.999 -37z" />
    <glyph glyph-name="X" unicode="X" horiz-adv-x="564" 
d="M548 48l-0.995117 -37c-52.667 -12 -93 -18 -121 -18c-22 0 -39.333 6 -52 18s-24.667 29.667 -36 53c-12 26 -29.167 66.333 -51.5 121l-38.5 94c-62 -92 -93 -161 -93 -207c0 -3.33301 0.166992 -6.16602 0.5 -8.49902s0.666016 -4.5 0.999023 -6.5
s1.16602 -4 2.49902 -6l3 -4.5c0.666992 -1 2.33398 -2.5 5.00098 -4.5s4.5 -3.33301 5.5 -4l7 -4.5c3.66699 -2.33301 6.16699 -4.16602 7.5 -5.49902l-2 -30c-48.667 -3.33301 -87.334 -5 -116.001 -5c-24 0 -36 9.33301 -36 28c0 20 20 61.167 60 123.5
s84 124.5 132 186.5c-62 136 -104.333 222 -127 258c-8.66699 14.667 -18.334 25.167 -29.001 31.5s-20.167 9.16602 -28.5 8.49902s-16.833 -1 -25.5 -1v41c52 12.667 97.667 19 137 19c22 0 40.167 -7 54.5 -21s31.166 -43.667 50.499 -89
c8.66699 -20 29.334 -71.333 62.001 -154l12.5 20.5c6.33301 10.333 10.666 17.666 12.999 21.999l11.5 20.5c5.33301 9.33301 9.16602 16.333 11.499 21l9.5 19c4 8 7 14.5 9 19.5s4 10.667 6 17s3.5 12.166 4.5 17.499s1.5 10.333 1.5 15c0 22.667 -11 38.334 -33 47.001
l2 30c52.667 9.33301 88.667 14 108 14c14 0 23.833 -1.83301 29.5 -5.5s8.5 -10.5 8.5 -20.5c0 -8.66699 -4.16699 -22 -12.5 -40s-21.833 -42.167 -40.5 -72.5l-51.5 -81l-65.5 -98.5c47.333 -109.333 85.333 -189 114 -239c30 -52.667 60.333 -80 91 -82z" />
    <glyph glyph-name="Y" unicode="Y" horiz-adv-x="526" 
d="M527 656c0 -34.667 -26.001 -98.666 -78.001 -191.999l-110 -196l-1 -140c-1.33301 -31.333 0.666992 -54 6 -68s17.333 -22.667 36 -26v-34h-143c-13.333 0 -22.333 6 -27 18s-7 33.333 -7 64l5 159l-70 176c-34 82.667 -56 134.667 -66 156
c-19.333 40 -44.666 60.667 -75.999 62v33c56.667 12.667 104.667 19 144 19c16 0 29.5 -8.83301 40.5 -26.5s28.833 -61.5 53.5 -131.5l75 -213l46 86c16.667 31.333 32 66.666 46 105.999s21 68.333 21 87c0 15.333 -2.16699 25.833 -6.5 31.5s-12.833 11.167 -25.5 16.5
l2 30c46 9.33301 78.667 14 98 14c14 0 23.667 -2.16699 29 -6.5s8 -12.5 8 -24.5z" />
    <glyph glyph-name="Z" unicode="Z" horiz-adv-x="513" 
d="M451 182l36 -5.99805l-33 -174c-55.333 -6 -118 -9 -188 -9l-247 5v41l190 326c80.667 143.333 126.334 230.666 137.001 261.999c-23.333 4 -55 6 -95 6s-71.667 -9.66699 -95 -29c-24 -20 -47.667 -55.333 -71 -106l-34 5c1.33301 44.667 8 100.334 20 167.001l14 11
h166c12.667 0 45 0.333008 97 1s84 1 96 1c17.333 0 29.166 -1.33301 35.499 -4s9.5 -7.66699 9.5 -15c0 -20.667 -2.66699 -37.334 -8 -50.001c-6.66699 -16 -17.167 -37.167 -31.5 -63.5l-57.5 -102.5l-57 -101c-20.667 -39.333 -52.167 -96.333 -94.5 -171l-69.5 -123
c21.333 -4 53 -6 95 -6c38.667 0 72.667 10.167 102 30.5s57 55.166 83 104.499z" />
    <glyph glyph-name="bracketleft" unicode="[" horiz-adv-x="335" 
d="M294 -110v-46h-196v886h196v-46h-79v-794h79z" />
    <glyph glyph-name="backslash" unicode="\" horiz-adv-x="408" 
d="M60 735l329 -883l-39 -18l-332 883z" />
    <glyph glyph-name="bracketright" unicode="]" horiz-adv-x="325" 
d="M42 -156v46h79v794h-79v46h196v-886h-196z" />
    <glyph glyph-name="asciicircum" unicode="^" horiz-adv-x="344" 
d="M184 743l143 -206l-34 -10l-115 91l-125 -91l-34 10z" />
    <glyph glyph-name="underscore" unicode="_" horiz-adv-x="488" 
d="M492 -69v-60h-495v60h495z" />
    <glyph glyph-name="grave" unicode="`" horiz-adv-x="192" 
d="M92 748l57 -177l-44 -17l-99 156z" />
    <glyph glyph-name="a" unicode="a" horiz-adv-x="510" 
d="M490 42l-1.00293 -32c-58 -14 -96.333 -21 -115 -21c-40 0 -62.333 22.333 -67 67c-37.333 -45.333 -83 -68 -137 -68c-34 0 -64.167 9.83301 -90.5 29.5s-38.833 50.834 -37.5 93.501c0.666992 28.667 6 52.667 16 72s26 35 48 47s42.833 21.167 62.5 27.5
s47.834 13.166 84.501 20.499l57 12c0 37.333 -0.333008 60 -1 68c-1.33301 26 -7.16602 43.5 -17.499 52.5s-25.833 13.5 -46.5 13.5c-15.333 0 -31.666 -7 -48.999 -21s-26.333 -35.333 -27 -64l-9 -11c-38.667 0 -64.334 4.83301 -77.001 14.5s-18.667 22.167 -18 37.5
c0.666992 26 22.5 48.333 65.5 67s97.833 28 164.5 28c42 0 76.667 -11.333 104 -34s40.666 -55 39.999 -97l-5 -148c-1.33301 -67.333 -2 -103.666 -2 -108.999c0.666992 -16.667 4.83398 -28.334 12.501 -35.001s22.834 -10 45.501 -10zM307.997 243l-47 -9.99902
c-12 -2.66699 -21.167 -5.16699 -27.5 -7.5s-15 -6.83301 -26 -13.5s-19.333 -16.834 -25 -30.501s-8.83398 -30.5 -9.50098 -50.5c-0.666992 -46.667 18 -70 56 -70c18.667 0 34.334 5.83301 47.001 17.5s20.667 23.5 24 35.5l5 18c2 25.333 3 62.333 3 111z" />
    <glyph glyph-name="b" unicode="b" horiz-adv-x="527" 
d="M500 264c-1.33301 -46 -9.33594 -86.9971 -24.0029 -122.997s-33.5 -64.5 -56.5 -85.5s-48.167 -36.833 -75.5 -47.5s-55.333 -16 -84 -16c-49.333 0 -91.5 5.16699 -126.5 15.5s-56.833 21.166 -65.5 32.499c0 3.33301 0.5 9.66602 1.5 18.999s2.33301 24.166 4 44.499
s2.83398 43.833 3.50098 70.5l8 334c1.33301 40 1 72.333 -1 97c-1.33301 14.667 -5.16602 25.667 -11.499 33s-12 11.333 -17 12s-12.833 1.33398 -23.5 2.00098l1 36c66 6.66699 111 10 135 10h5h6c0.666992 0 2.5 -0.166992 5.5 -0.5s5.16699 -0.833008 6.5 -1.5l6 -3
c2.66699 -1.33301 4.5 -2.83301 5.5 -4.5s2.5 -4 4.5 -7s3.5 -6.33301 4.5 -10s2 -7.83398 3 -12.501s1.5 -10 1.5 -16c1.33301 -25.333 1.33301 -51.333 0 -78l-8 -177c10 22.667 28 43.167 54 61.5s53.333 27.5 82 27.5c52.667 0 92.334 -18 119.001 -54s39 -89 37 -159z
M368.997 229.003c-0.666992 10.667 -0.665039 23.167 0.00195312 37.5s-0.333008 29.333 -3 45s-6.16699 30 -10.5 43s-11.833 23.667 -22.5 32s-23.334 12.5 -38.001 12.5c-28.667 0 -50.5 -16.667 -65.5 -50s-23.167 -72.333 -24.5 -117l-4 -157c10 -24 33 -36 69 -36
c28 0 51.167 17.5 69.5 52.5s28.166 80.833 29.499 137.5z" />
    <glyph glyph-name="c" unicode="c" horiz-adv-x="447" 
d="M420 409c0 -15.333 -9.33496 -29.665 -28.002 -42.998s-40.334 -22 -65.001 -26l-10 8c2 52.667 -15.667 79 -53 79c-29.333 0 -50.666 -14.333 -63.999 -43s-20 -73.667 -20 -135c0 -37.333 4.16699 -69.333 12.5 -96s19 -46.167 32 -58.5s25.667 -21.166 38 -26.499
s24.5 -8 36.5 -8c41.333 0 80 14 116 42l4 -43c-44 -45.333 -101.333 -68 -172 -68c-56 0 -103 18.167 -141 54.5s-57 91.5 -57 165.5c0 47.333 7.66699 89.166 23 125.499s34.833 64.166 58.5 83.499s47.834 33.666 72.501 42.999s48.334 14 71.001 14
c50.667 0 87.667 -6.83301 111 -20.5s35 -29.5 35 -47.5z" />
    <glyph glyph-name="d" unicode="d" horiz-adv-x="538" 
d="M518 35l-2.00195 -33.002c-38 -8.66699 -69.667 -13 -95 -13c-30 0 -49.833 7.83301 -59.5 23.5s-13.834 51.834 -12.501 108.501l-7 1c-45.333 -90 -102 -135 -170 -135c-12.667 0 -25 2.33301 -37 7s-25 13 -39 25s-25.167 31.333 -33.5 58
s-11.833 59.334 -10.5 98.001c2.66699 93.333 29.334 167 80.001 221s107 81 169 81h52v31c1.33301 40 1 72.333 -1 97c-1.33301 14.667 -5.16602 25.667 -11.499 33s-12 11.333 -17 12s-12.833 1.33398 -23.5 2.00098l1 36c66 6.66699 111 10 135 10h5h6
c0.666992 0 2.5 -0.166992 5.5 -0.5s5.16699 -0.833008 6.5 -1.5l6 -3c2.66699 -1.33301 4.5 -2.83301 5.5 -4.5s2.5 -4 4.5 -7s3.5 -6.33301 4.5 -10s2 -7.83398 3 -12.501s1.5 -10 1.5 -16v-24.5v-30v-23.5l-12 -368c-1.33301 -61.333 -1.66602 -98 -0.999023 -110
c1.33301 -34.667 17 -52 47 -52zM346.998 298.998l4.00098 113c-19.333 12 -42 18 -68 18c-61.333 0 -94.333 -75.333 -99 -226c-2 -88 14.333 -132 49 -132c27.333 0 52.666 24 75.999 72s36 99.667 38 155z" />
    <glyph glyph-name="e" unicode="e" horiz-adv-x="443" 
d="M428 368c-2 -62.667 -62.6689 -105 -182.002 -127l-68 -13c-0.666992 -34.667 2.5 -64 9.5 -88s16.833 -41.333 29.5 -52s24.834 -18.167 36.501 -22.5s24.167 -6.5 37.5 -6.5c41.333 0 83 13 125 39l3 -43c-2 -2 -4.83301 -4.33301 -8.5 -7s-11.667 -7.66699 -24 -15
s-25 -13.833 -38 -19.5s-29.833 -10.834 -50.5 -15.501s-41.667 -7 -63 -7c-58 0 -104.333 17.667 -139 53s-50.667 91 -48 167c0.666992 42.667 7.33398 80.5 20.001 113.5s27.667 58.833 45 77.5s37 34 59 46s41.5 19.833 58.5 23.5s32.5 5.5 46.5 5.5
s26.333 -0.333008 37 -1s23.834 -3 39.501 -7s28.5 -9.66699 38.5 -17s18.667 -18.166 26 -32.499s10.666 -31.5 9.99902 -51.5zM313.998 368c0 16.667 -4.00098 30.666 -12.001 41.999s-20.667 17 -38 17c-52 0 -80 -51 -84 -153l44 8
c28 4.66699 49.833 14.834 65.5 30.501s23.834 34.167 24.501 55.5z" />
    <glyph glyph-name="f" unicode="f" horiz-adv-x="362" 
d="M420 654c-0.666992 -14.667 -8.83203 -26.832 -24.499 -36.499s-33.5 -16.5 -53.5 -20.5l-12 11c-4 30.667 -20.333 46 -49 46c-25.333 0 -42.333 -12.333 -51 -37s-13 -64.667 -13 -120v-23l140 -7l-10 -47l-131 -5c0 -20 0.333008 -53 1 -99s1 -85.667 1 -119
c0 -120 -16 -214 -48 -282c-18.667 -40.667 -44.167 -73.834 -76.5 -99.501s-68.833 -38.5 -109.5 -38.5c-32.667 0 -55 6 -67 18s-18 25.333 -18 40c0 26.667 20 50.667 60 72l8 -8c0 -48 15.333 -72 46 -72c39.333 0 63.666 53.333 72.999 160
c3.33301 35.333 5 104.333 5 207l-2 221l-76 4l5 49l72 6c6 70 31 126.333 75 169s95 64 153 64c38.667 0 65.5 -5.16699 80.5 -15.5s22.167 -22.833 21.5 -37.5z" />
    <glyph glyph-name="g" unicode="g" horiz-adv-x="537" 
d="M462 480l15.999 -6c-6 -34 -9 -75.667 -9 -125c0 -149.333 -2.33301 -246.333 -7 -291c-10.667 -84.667 -37.667 -152.334 -81 -203.001c-20.667 -24 -48 -43.667 -82 -59s-71.333 -23 -112 -23c-88 0 -132 25.333 -132 76c0 30 30 50.333 90 61l7 -6
c0 -26.667 6 -46.667 18 -60s26 -20 42 -20c36 0 65.5 13.167 88.5 39.5s36.167 75.5 39.5 147.5l5 110l-7 1c-44.667 -90 -100.667 -135 -168 -135c-12.667 0 -25 2.33301 -37 7s-25 13 -39 25s-25.333 31.333 -34 58s-13 59.334 -13 98.001c0 95.333 23 169.5 69 222.5
s104.333 79.5 175 79.5c42.667 0 74.667 -3.66699 96 -11c2.66699 0.666992 14.834 3 36.501 7s34.5 6.33301 38.5 7zM339.999 299l2.00195 113c-19.333 12 -42.333 18 -69 18c-28.667 0 -51.667 -18.167 -69 -54.5s-26 -93.5 -26 -171.5c0 -88 17.333 -132 52 -132
c27.333 0 52.166 24 74.499 72s34.166 99.667 35.499 155z" />
    <glyph glyph-name="h" unicode="h" horiz-adv-x="540" 
d="M524 41l-2 -31.998c-44.667 -9.33301 -74.334 -14 -89.001 -14c-20 0 -34.333 0.333008 -43 1s-17.334 3.5 -26.001 8.5s-15 12.5 -19 22.5c-4.66699 11.333 -7 37 -7 77c0 10.667 0.666992 34.667 2 72c0 7.33301 0.5 22.666 1.5 45.999s1.5 43.333 1.5 60
c0 34.667 -3 57.167 -9 67.5s-18.333 15.5 -37 15.5c-24.667 0 -45.667 -14.5 -63 -43.5s-27 -63.5 -29 -103.5l-1 -22c-2 -40.667 -2.33301 -77.334 -1 -110.001c0.666992 -16 3.33398 -27.5 8.00098 -34.5s13.334 -11.833 26.001 -14.5l-1 -34
c-51.333 -5.33301 -85.333 -8 -102 -8c-24 0 -40.167 5.66699 -48.5 17s-12.5 34.666 -12.5 69.999c0 8 0.666992 25.5 2 52.5s2 43.167 2 48.5l2 99l6 226c1.33301 40 1 72.333 -1 97c-1.33301 14.667 -5.16602 25.667 -11.499 33s-12 11.333 -17 12
s-12.833 1.33398 -23.5 2.00098l1 36c66 6.66699 111 10 135 10h5h6c0.666992 0 2.5 -0.166992 5.5 -0.5s5.16699 -0.833008 6.5 -1.5l6 -3c2.66699 -1.33301 4.5 -2.83301 5.5 -4.5s2.5 -4 4.5 -7s3.5 -6.33301 4.5 -10s2 -7.83398 3 -12.501s1.5 -10 1.5 -16v-78
c-4 -123.333 -6.66699 -193.666 -8 -210.999c27.333 42 57.166 72.5 89.499 91.5s59.833 28.5 82.5 28.5c32 0 55.833 -7.5 71.5 -22.5s23.5 -47.5 23.5 -97.5c0 -16 -1 -42.333 -3 -79l-4 -79c-1.33301 -37.333 -2 -61.333 -2 -72c0 -30 3.66699 -51.333 11 -64
s23 -19 47 -19z" />
    <glyph glyph-name="i" unicode="i" horiz-adv-x="268" 
d="M212 611c0 -20 -7.33496 -37.167 -22.002 -51.5s-31.667 -21.5 -51 -21.5s-35.666 7 -48.999 21s-20 31.333 -20 52c0 20 7.33301 37.167 22 51.5s31.667 21.5 51 21.5c18.667 0 34.834 -7.16699 48.501 -21.5s20.5 -31.5 20.5 -51.5zM253.998 35l-1.99902 -33
c-38.667 -8.66699 -75.334 -13 -110.001 -13c-23.333 0 -41 4.66699 -53 14s-18 27 -18 53c0 18 1 60.333 3 127l3 101c2 58.667 -1 97 -9 115s-22 27.667 -42 29l1 37c59.333 6.66699 100.666 10 123.999 10c15.333 0 25.833 -1 31.5 -3s10.834 -9.33301 15.501 -22
s7 -33.334 7 -62.001c0 -8 -0.666992 -35.333 -2 -82l-3 -109c-1.33301 -34.667 -2 -58.667 -2 -72c0 -39.333 3.16699 -64.166 9.5 -74.499s21.833 -15.5 46.5 -15.5z" />
    <glyph glyph-name="j" unicode="j" horiz-adv-x="277" 
d="M221 611c-0.666992 -20 -8.16699 -37.167 -22.5 -51.5s-31.166 -21.5 -50.499 -21.5s-35.833 7.16699 -49.5 21.5s-20.167 31.5 -19.5 51.5s8.16699 37.167 22.5 51.5s31.166 21.5 50.499 21.5s35.833 -7.16699 49.5 -21.5s20.167 -31.5 19.5 -51.5zM212 306
l-2.99805 -108.996c-3.33301 -131.333 -19.333 -225.333 -48 -282c-46.667 -92 -108.667 -138 -186 -138c-32.667 0 -55 6 -67 18s-18 25.333 -18 40c0 35.333 21.667 59.333 65 72l8 -8c10 -48 25.667 -72 47 -72s36.166 13 44.499 39s15.5 69.333 21.5 130
c1.33301 20.667 3 55.167 5 103.5s3 73.166 3 74.499l2 110c1.33301 41.333 1 73.666 -1 96.999c-0.666992 7.33301 -1.66699 13.666 -3 18.999s-3.16602 9.66602 -5.49902 12.999s-4.33301 6 -6 8s-4.5 3.5 -8.5 4.5s-6.83301 1.66699 -8.5 2s-4.83398 0.5 -9.50098 0.5h-9
l1 37c59.333 6.66699 100.666 10 123.999 10c18 0 30 -2.33301 36 -7s10.667 -18.667 14 -42s4 -63.333 2 -120z" />
    <glyph glyph-name="k" unicode="k" horiz-adv-x="524" 
d="M529 42l-1.00195 -32.998c-61.333 -11.333 -102 -17 -122 -17c-18 0 -33.167 6.16699 -45.5 18.5s-29.166 36.166 -50.499 71.499l-97 159l1 20c24 10.667 42 20 54 28s26.667 21 44 39c11.333 12.667 20.5 27.167 27.5 43.5s10.833 29.5 11.5 39.5
c0 7.33301 -2 12.666 -6 15.999s-8 5.33301 -12 6s-10.333 1 -19 1l1 27c36.667 8 78.334 12 125.001 12c20.667 0 31 -7.33301 31 -22c-0.666992 -18.667 -13.334 -41.667 -38.001 -69c-32.667 -39.333 -72 -75.333 -118 -108c10.667 -13.333 33.167 -43.333 67.5 -90
s58.5 -78.667 72.5 -96c22.667 -28.667 47.334 -44 74.001 -46zM236.998 37.002l-0.998047 -34.001c-51.333 -5.33301 -85.333 -8 -102 -8c-24.667 0 -41 4.5 -49 13.5s-12 29.5 -12 61.5c0 33.333 1 75.333 3 126l5 131c3.33301 130 5 195.333 5 196
c0 55.333 -3.33301 90.833 -10 106.5s-23 23.5 -49 23.5l-1 32c64 8 106 12 126 12h11c11.333 0.666992 19.666 0.333984 24.999 -0.999023s10.833 -5.66602 16.5 -12.999s9.16699 -19.833 10.5 -37.5s1.66602 -41.834 0.999023 -72.501c-0.666992 -34.667 -2 -75 -4 -121
s-3.33301 -78.667 -4 -98l-4 -158c-0.666992 -24 -1 -60.667 -1 -110c0 -16 2.33301 -27.5 7 -34.5s13.667 -11.833 27 -14.5z" />
    <glyph glyph-name="l" unicode="l" horiz-adv-x="293" 
d="M260 41l-2 -31.999c-44.667 -9.33301 -74.334 -14 -89.001 -14c-38 0 -63.333 6.5 -76 19.5s-19 44.833 -19 95.5c0 40 1.66699 97.333 5 172c2.66699 58.667 5 132 7 220c0.666992 40 0 74.333 -2 103c-1.33301 14.667 -5.16602 25.667 -11.499 33s-12 11.333 -17 12
s-12.833 1.33398 -23.5 2.00098l1 36c66 6.66699 111 10 135 10h5h6c0.666992 0 2.5 -0.166992 5.5 -0.5s5.16699 -0.833008 6.5 -1.5l6 -3c2.66699 -1.33301 4.5 -2.83301 5.5 -4.5s2.5 -4 4.5 -7s3.5 -6.33301 4.5 -10s2 -7.83398 3 -12.501s1.5 -10 1.5 -16
c1.33301 -26 1.33301 -52 0 -78c-4 -92.667 -6.66699 -163 -8 -211l-4 -158c-2 -42.667 -2.33301 -77.334 -1 -104.001c2 -34 21 -51 57 -51z" />
    <glyph glyph-name="m" unicode="m" horiz-adv-x="802" 
d="M787 41l-2.00195 -31.999c-44.667 -9.33301 -74.334 -14 -89.001 -14c-20 0 -34.333 0.333008 -43 1s-17.334 3.5 -26.001 8.5s-15 12.5 -19 22.5c-4.66699 11.333 -7 37 -7 77c0 9.33301 0.5 24.166 1.5 44.499s1.5 32.5 1.5 36.5c2.66699 53.333 4 87.333 4 102
c0 31.333 -3.66699 53.333 -11 66s-19 19 -35 19c-38.667 0 -66 -32.667 -82 -98c-8.66699 -38 -13.667 -81.333 -15 -130c-0.666992 -16 -1 -33.333 -1 -52c1.33301 -17.333 4.5 -29.833 9.5 -37.5s15.167 -12.167 30.5 -13.5l-3 -31c-45.333 -10 -75.333 -15 -90 -15
c-26.667 0 -45.834 4.33301 -57.501 13s-17.5 26.334 -17.5 53.001c0 10.667 0.5 30 1.5 58s1.5 47.667 1.5 59c0 10.667 0.666992 27.334 2 50.001s2 42 2 58c0 58.667 -13.667 88 -41 88c-29.333 0 -52.166 -16.167 -68.499 -48.5s-25.5 -68.166 -27.5 -107.499l-1 -22
c-1.33301 -56.667 -1.66602 -93.334 -0.999023 -110.001c0.666992 -16 3.33398 -27.5 8.00098 -34.5s13.334 -11.833 26.001 -14.5l-1 -34c-51.333 -5.33301 -85.333 -8 -102 -8c-24.667 0 -41 5.5 -49 16.5s-12 34.5 -12 70.5c0 18.667 1 57 3 115l2 85
c0.666992 15.333 1 35.333 1 60c0 32 -3.66699 54 -11 66s-21.666 18 -42.999 18l1 36c73.333 6.66699 122 10 146 10c7.33301 0 12.333 -0.333008 15 -1s6 -2.66699 10 -6s6.83301 -9.33301 8.5 -18s2.83398 -20.334 3.50098 -35.001c1.33301 -13.333 1 -32.666 -1 -57.999
c19.333 33.333 44.833 61.666 76.5 84.999s66.834 35 105.501 35c22 0 41 -5.83301 57 -17.5s24 -32.834 24 -63.501v-41c32 44.667 65 76.167 99 94.5s62.667 27.5 86 27.5c15.333 0 28.166 -1.33301 38.499 -4s20.166 -10.5 29.499 -23.5s14 -30.833 14 -53.5
c0 -28.667 -1.33301 -68 -4 -118l-4 -79c-1.33301 -30 -2 -54 -2 -72c0 -30 3.66699 -51.333 11 -64s23 -19 47 -19z" />
    <glyph glyph-name="n" unicode="n" horiz-adv-x="540" 
d="M524 41l-1.99609 -31.9971c-44.667 -9.33301 -74.334 -14 -89.001 -14c-20 0 -34.333 0.333008 -43 1s-17.334 3.5 -26.001 8.5s-15 12.5 -19 22.5c-4.66699 11.333 -7 37 -7 77c0 10.667 0.666992 34.667 2 72c0 7.33301 0.5 22.666 1.5 45.999s1.5 43.333 1.5 60
c0 32.667 -4 54.667 -12 66s-19.333 17 -34 17c-28 0 -49.833 -14 -65.5 -42s-24.5 -63 -26.5 -105l-1 -22c-1.33301 -26 -2 -62.667 -2 -110c0 -16.667 2.5 -28.334 7.5 -35.001s14.167 -11.334 27.5 -14.001l-1 -34c-51.333 -5.33301 -85.333 -8 -102 -8
c-24 0 -40.167 5.66699 -48.5 17s-12.5 34.666 -12.5 69.999c0 7.33301 0.666992 25.5 2 54.5s2 47.5 2 55.5l2 90c0.666992 15.333 1 35.333 1 60c0 34 -3.5 56.5 -10.5 67.5s-21.5 16.5 -43.5 16.5l1 36c66 6.66699 111.333 10 136 10
c7.33301 0 12.666 -0.333008 15.999 -1s7.66602 -2.5 12.999 -5.5s9.33301 -9 12 -18s4.33398 -20.833 5.00098 -35.5c1.33301 -13.333 1 -32.666 -1 -57.999c27.333 42 57.166 72.5 89.499 91.5s59.833 28.5 82.5 28.5c32 0 55.833 -7.5 71.5 -22.5s23.5 -47.5 23.5 -97.5
c0 -16 -1 -42.333 -3 -79l-4 -79c-1.33301 -37.333 -2 -61.333 -2 -72c0 -30 3.66699 -51.333 11 -64s23 -19 47 -19z" />
    <glyph glyph-name="o" unicode="o" horiz-adv-x="537" 
d="M502 262c0 -79.333 -22.834 -144.834 -68.501 -196.501s-105.5 -77.5 -179.5 -77.5c-62.667 0 -112.667 20 -150 60s-56 95.667 -56 167c0 48.667 8.33301 91.334 25 128.001s37.834 64.167 63.501 82.5s50.5 31.833 74.5 40.5s46.667 13 68 13s40.666 -1 57.999 -3
s36.833 -7.33301 58.5 -16s39.834 -20.5 54.501 -35.5s27 -36.333 37 -64s15 -60.5 15 -98.5zM368.999 236.999c0 40 -2.50098 73.5 -7.50098 100.5s-12.333 47 -22 60s-19.667 22 -30 27s-22.166 7.5 -35.499 7.5c-32 0 -55.5 -15 -70.5 -45s-22.5 -80 -22.5 -150
c0 -134 32.667 -201 98 -201c60 0 90 67 90 201z" />
    <glyph glyph-name="p" unicode="p" horiz-adv-x="526" 
d="M501 285c0 -50.667 -7.16504 -95.667 -21.498 -135s-33 -70 -56 -92s-47 -38.5 -72 -49.5s-49.833 -16.5 -74.5 -16.5c-29.333 0 -55.333 4.66699 -78 14v-23c-2.66699 -54 -3.33398 -96 -2.00098 -126c0 -30 15 -46.667 45 -50l-1 -34
c-58.667 -5.33301 -96.334 -8 -113.001 -8c-22.667 0 -38.334 6.16699 -47.001 18.5s-13 34.833 -13 67.5c0 11.333 1.33301 50.333 4 117l10 320c0 38.667 -1.33301 68.667 -4 90c-1.33301 11.333 -3.66602 20.5 -6.99902 27.5s-8 11.833 -14 14.5s-10.667 4.16699 -14 4.5
s-9 0.833008 -17 1.5l1 36c66 6.66699 111 10 135 10c8.66699 0 16 -1 22 -3s11.667 -7.66699 17 -17s8 -22.666 8 -39.999v-40c12 29.333 32.333 54.166 61 74.499s58 30.5 88 30.5c95.333 0 143 -64 143 -192zM370.002 249c0 25.333 -0.666992 46 -2 62s-4.33301 31 -9 45
s-11.5 24.333 -20.5 31s-20.833 10 -35.5 10c-30 0 -53.333 -17.5 -70 -52.5s-25.667 -76.167 -27 -123.5l-3 -125c3.33301 -39.333 26 -59 68 -59c66 0 99 70.667 99 212z" />
    <glyph glyph-name="q" unicode="q" horiz-adv-x="530" 
d="M509 -193l-6.00098 -31c-42.667 -9.33301 -73.667 -14 -93 -14c-30.667 0 -51.167 6 -61.5 18s-15.5 36.333 -15.5 73c0 71.333 2 141.333 6 210l6 58l-7 1c-44.667 -90 -100.667 -135 -168 -135c-12.667 0 -25 2.33301 -37 7s-25 13 -39 25s-25.333 31.333 -34 58
s-13 59.334 -13 98.001c0 96 23 170.333 69 223s104.333 79 175 79c42.667 0 74.667 -3.66699 96 -11c2.66699 0.666992 14.834 3 36.501 7s34.5 6.33301 38.5 7l16 -6c-5.33301 -36.667 -8.33301 -78.334 -9 -125.001l-7 -292c0 -16 -0.5 -39 -1.5 -69s-1.5 -51 -1.5 -63
c0 -46 3 -76.167 9 -90.5s19.667 -23.5 41 -27.5zM339.999 299l2 113c-19.333 12 -39.333 18 -60 18c-69.333 0 -104 -75.333 -104 -226c0 -88 17.333 -132 52 -132c28 0 53.167 22.5 75.5 67.5s33.833 98.167 34.5 159.5z" />
    <glyph glyph-name="r" unicode="r" horiz-adv-x="411" 
d="M75 192l3.00098 89.002l2 59c0 24.667 -2.33301 43.334 -7 56.001s-10.334 20.5 -17.001 23.5s-16.667 5.16699 -30 6.5l1 36c46 6.66699 81 10 105 10c8.66699 0 15.667 -0.333008 21 -1s13 -2.5 23 -5.5s17.667 -9 23 -18s8.33301 -20.833 9 -35.5v-36
c17.333 31.333 39.5 56.333 66.5 75s54.833 28 83.5 28c36.667 0 55 -14 55 -42c-2 -38.667 -24.333 -73 -67 -103l-14 10c-2.66699 25.333 -17 38 -43 38c-22 0 -41.167 -12.333 -57.5 -37s-25.5 -64.667 -27.5 -120l-1 -29c-1.33301 -57.333 -2 -94 -2 -110
c0 -16.667 2.5 -28.334 7.5 -35.001s14.167 -11.334 27.5 -14.001l-1 -34c-51.333 -5.33301 -85.333 -8 -102 -8c-24.667 0 -41.167 5.16699 -49.5 15.5s-12.5 32.833 -12.5 67.5c0 7.33301 0.666992 25.166 2 53.499s2 48.5 2 60.5z" />
    <glyph glyph-name="s" unicode="s" horiz-adv-x="431" 
d="M406 164c-1.33301 -46 -22.8311 -86.4971 -64.498 -121.497s-92.5 -52.5 -152.5 -52.5c-56 0 -95.833 7.66699 -119.5 23s-35.167 33 -34.5 53c0 14.667 8.83301 28.5 26.5 41.5s44.834 19.167 81.501 18.5l7 -10c-3.33301 -8 -5.66602 -16.667 -6.99902 -26
c-0.666992 -18.667 5 -31.834 17 -39.501s26.667 -11.5 44 -11.5c22 0 40.5 7 55.5 21s22.833 33.667 23.5 59c0.666992 14.667 -3 27 -11 37s-15.833 16.833 -23.5 20.5s-21 8.5 -40 14.5s-31.5 10.333 -37.5 13c-0.666992 0 -7.33398 2.5 -20.001 7.5l-23 9
c-2.66699 1 -9.33398 4.16699 -20.001 9.5s-17.5 9.5 -20.5 12.5s-8.16699 7.83301 -15.5 14.5s-12.166 13.167 -14.499 19.5s-4.66602 14 -6.99902 23s-3.16602 18.5 -2.49902 28.5c1.33301 41.333 20.5 76.5 57.5 105.5s84.5 43.5 142.5 43.5
c47.333 0 83.666 -6.66699 108.999 -20s37.666 -31 36.999 -53c-0.666992 -32.667 -31.667 -52.334 -93 -59.001l-7 10c4.66699 5.33301 7 13.333 7 24c0.666992 14 -5.16602 25.667 -17.499 35s-30.166 14 -53.499 14c-20.667 0 -38.334 -4.66699 -53.001 -14
s-22.334 -23.333 -23.001 -42c0 -6.66699 1.16699 -12.834 3.5 -18.501s6.16602 -10.834 11.499 -15.501s10.333 -8.66699 15 -12s11.167 -6.5 19.5 -9.5l19 -7c4.33301 -1.66699 11.166 -3.66699 20.499 -6s14.666 -3.83301 15.999 -4.5
c51.333 -15.333 85 -28.666 101 -39.999c32 -21.333 47.333 -53 46 -95z" />
    <glyph glyph-name="t" unicode="t" horiz-adv-x="341" 
d="M209 476l126.999 -5.99805l-9 -51l-120 -6c-3.33301 -58.667 -5 -159.334 -5 -302.001c0 -17.333 3.16699 -29.666 9.5 -36.999s17.5 -11 33.5 -11c30.667 0 58.667 6.33301 84 19l6 -37c-6 -4 -14.5 -9 -25.5 -15s-32.333 -14.167 -64 -24.5s-62.5 -15.5 -92.5 -15.5
s-50.833 7.66699 -62.5 23s-17.5 39 -17.5 71c0 3.33301 0.166992 10.333 0.5 21s0.5 18 0.5 22l6 207c0 4.66699 0.166992 12.667 0.5 24s0.5 19.333 0.5 24c0 16 -4.5 25.833 -13.5 29.5s-23.833 5.5 -44.5 5.5h-5l4 44l11.5 6c5 2.66699 14.333 9.66699 28 21
s26.5 24.166 38.5 38.499s24.833 34.166 38.5 59.499s24.834 53 33.501 83l42 9z" />
    <glyph glyph-name="u" unicode="u" horiz-adv-x="547" 
d="M522 35l-1.99707 -33c-59.333 -8.66699 -96.333 -13 -111 -13c-22 0 -38 4.33301 -48 13s-15 26.334 -15 53.001c0 21.333 0.666992 38.666 2 51.999c-56.667 -80 -118.334 -120 -185.001 -120c-11.333 0 -20.833 0.833008 -28.5 2.5s-16.834 5.16699 -27.501 10.5
s-18.667 15.166 -24 29.499s-8 32.5 -8 54.5c0 13.333 0.333008 28 1 44s1.5 31.833 2.5 47.5s1.5 25.834 1.5 30.501l3 75l2 59c0 24.667 -2.33301 43.334 -7 56.001s-10.334 20.5 -17.001 23.5s-16.667 5.16699 -30 6.5l1 36c72.667 6.66699 121.334 10 146.001 10
c8.66699 0 15 -0.666992 19 -2s8 -6.66602 12 -15.999s6 -23.666 6 -42.999c0 -16 -1.33301 -60.667 -4 -134c-2 -44 -3 -82 -3 -114c0 -51.333 13.667 -77 41 -77s50.5 15.667 69.5 47s29.5 68 31.5 110l2 42c0.666992 12 1 28 1 48c0 26 -2.33301 46 -7 60
s-9.66699 22.667 -15 26s-13.333 5.66602 -24 6.99902l-1 30c66.667 11.333 108 17 124 17c12 0 21.167 -0.833008 27.5 -2.5s12.5 -8.33398 18.5 -20.001s9 -29.167 9 -52.5c0 -7.33301 -0.333008 -17.333 -1 -30l-2.5 -45.5c-1 -17.667 -1.83301 -30.834 -2.5 -39.501
l-5 -80c-2 -32.667 -3 -60.667 -3 -84c0 -32 3.16699 -53 9.5 -63s20.166 -17 41.499 -21z" />
    <glyph glyph-name="v" unicode="v" horiz-adv-x="497" 
d="M480 437c-1.33301 -40.667 -36.667 -141.001 -106 -301.001l-51 -116c-11.333 -7.33301 -29.833 -15.5 -55.5 -24.5s-45.834 -13.5 -60.501 -13.5c-7.33301 0 -13.5 5.16699 -18.5 15.5s-11.5 30.833 -19.5 61.5l-40 143c-19.333 69.333 -39.666 130 -60.999 182
c-5.33301 13.333 -12.333 23.333 -21 30s-15.334 10.334 -20.001 11.001s-12 1.33398 -22 2.00098l1 35c69.333 6.66699 116 10 140 10c22 0 36.333 -6 43 -18s17.334 -47.333 32.001 -106l30 -119l38 -152h7l28 66c34 81.333 52.333 154.333 55 219
c0.666992 20.667 -2.16602 36 -8.49902 46s-18.833 17 -37.5 21l-1 27c43.333 8 77 12 101 12c12 0 20.667 -0.333008 26 -1s10.166 -3.33398 14.499 -8.00098s6.5 -12 6.5 -22z" />
    <glyph glyph-name="w" unicode="w" horiz-adv-x="722" 
d="M710 437c0 -31.333 -16.3428 -96.6699 -49.0098 -196.003l-65 -191c-8 -22.667 -18.667 -38 -32 -46c-8 -6 -24.5 -11.333 -49.5 -16s-43.167 -7 -54.5 -7c-7.33301 0 -13.166 2 -17.499 6s-7.83301 12 -10.5 24c-1.33301 6.66699 -4.83301 26 -10.5 58l-13.5 75l-43 206
c-20 -78.667 -36.333 -138.667 -49 -180c-25.333 -92 -43.666 -144.333 -54.999 -157c-8 -8 -22.833 -15.333 -44.5 -22s-39.167 -10 -52.5 -10c-8.66699 0 -15.167 1.16699 -19.5 3.5s-7.5 8.16602 -9.5 17.499c-1.33301 4.66699 -2.66602 12.5 -3.99902 23.5
s-3.16602 27.167 -5.49902 48.5s-5.16602 42.333 -8.49902 63l-16 110c-9.33301 65.333 -18.666 111 -27.999 137c-6 13.333 -13.5 23.333 -22.5 30s-15.833 10.334 -20.5 11.001s-12 1.33398 -22 2.00098v35c71.333 6.66699 119 10 143 10c21.333 0 35.333 -10 42 -30
s13.667 -62.333 21 -127l26 -231h5l20 65c23.333 74 42.333 146.333 57 217c2 7.33301 4.33301 17.833 7 31.5l5 25.5c2.66699 8 6 14 10 18c4.66699 4.66699 19.334 11 44.001 19s41 12 49 12c8.66699 0 14.834 -4.5 18.501 -13.5s10.834 -36.167 21.501 -81.5
c23.333 -101.333 44.666 -206.333 63.999 -315h6l25 72c14 40 25 84.333 33 133s12 83.334 12 104.001c0 18.667 -2.83301 31.834 -8.5 39.501s-15.5 13.5 -29.5 17.5v28c32.667 8 61.334 12 86.001 12c16.667 0 28.334 -1.66699 35.001 -5s10 -12 10 -26z" />
    <glyph glyph-name="x" unicode="x" horiz-adv-x="484" 
d="M470 37l-1.00488 -34.999c-52 -6.66699 -92 -10 -120 -10c-25.333 0 -43.666 6.66699 -54.999 20s-28.666 46.666 -51.999 99.999l-30 68c-20.667 -16 -39.167 -36 -55.5 -60s-24.5 -42 -24.5 -54c-0.666992 -9.33301 0.5 -16.333 3.5 -21s10.5 -8.66699 22.5 -12l-3 -33
c-36 -5.33301 -65.667 -8 -89 -8c-16 0 -27.333 2 -34 6s-9.66699 12.333 -9 25c0 11.333 9.16699 28 27.5 50s43 48.833 74 80.5s52.5 54.834 64.5 69.501l-35 69l-16 32.5l-11.5 23.5c-2.33301 4.66699 -5.66602 10.667 -9.99902 18s-9.83301 15.666 -16.5 24.999
c-16 24 -38 36 -66 36l1 35c71.333 6.66699 119 10 143 10c16 0 28.333 -6.16699 37 -18.5s19.667 -34.833 33 -67.5l39 -94c44.667 54 67.334 90.667 68.001 110c0 6.66699 -1.66699 11.667 -5 15s-10.666 7 -21.999 11l1 28c36 8 66 12 90 12c29.333 0 44 -10.333 44 -31
c0 -4 -1.66699 -9.16699 -5 -15.5s-8.5 -14 -15.5 -23s-14 -17.5 -21 -25.5l-27.5 -30.5l-28 -30l-30.5 -31.5c-13 -13.333 -22.167 -23 -27.5 -29c30 -66.667 61 -124 93 -172c19.333 -28.667 42.333 -43 69 -43z" />
    <glyph glyph-name="y" unicode="y" horiz-adv-x="494" 
d="M489 437c-1.33301 -56 -33.6709 -156.667 -97.0039 -302l-51 -116c-12 -26.667 -25.667 -53.334 -41 -80.001s-33.5 -53.667 -54.5 -81s-44.167 -49.666 -69.5 -66.999s-50 -26 -74 -26c-14 0 -25.167 2.83301 -33.5 8.5s-12.166 15.167 -11.499 28.5
c0 25.333 7.33301 56.666 22 93.999l18 3c14 -28.667 36 -43 66 -43c12.667 0 23.334 5.66699 32.001 17s13.334 24.666 14.001 39.999c0 22.667 -15.667 90.334 -47 203.001l-24 86c-19.333 69.333 -39.666 130 -60.999 182c-5.33301 13.333 -12.333 23.333 -21 30
s-15.334 10.334 -20.001 11.001s-12 1.33398 -22 2.00098l1 35c69.333 6.66699 116 10 140 10c22 0 36.333 -6 43 -18s17.334 -47.333 32.001 -106l30 -119c20.667 -80 33 -139 37 -177h7l31 87c33.333 94.667 51 169 53 223c0.666992 20.667 -2.16602 36 -8.49902 46
s-18.833 17 -37.5 21l-1 27c43.333 8 77 12 101 12c12 0 20.667 -0.333008 26 -1s10.166 -3.33398 14.499 -8.00098s6.5 -12 6.5 -22z" />
    <glyph glyph-name="z" unicode="z" horiz-adv-x="438" 
d="M407 469l11 -24.0039c-5.33301 -7.33301 -21.833 -28.5 -49.5 -63.5s-55.5 -72.833 -83.5 -113.5l-113 -161c68 11.333 119.667 17 155 17c58 0 87 -22 87 -66c0 -26 -7.66699 -51 -23 -75l-7 -3c-2 2.66699 -4.83301 5.16699 -8.5 7.5s-8.16699 4.33301 -13.5 6l-15 4.5
c-4.66699 1.33301 -10.834 2.33301 -18.501 3s-14 1.33398 -19 2.00098s-12.167 1 -21.5 1h-20h-21h-19c-88.667 0 -150.667 -2.66699 -186 -8v29c82.667 96.667 163 207.334 241 332.001c-18 -4.66699 -37 -7 -57 -7c-12.667 0 -27 1.16699 -43 3.5s-29 3.5 -39 3.5
s-18.667 -1.16699 -26 -3.5s-15.833 -8.66602 -25.5 -18.999s-18.167 -25.166 -25.5 -44.499l-25 15c10 43.333 23.167 82.333 39.5 117s32.833 52 49.5 52c24 0 59.333 -2.33301 106 -7s74.667 -7 84 -7c38.667 0 67.334 3 86.001 9z" />
    <glyph glyph-name="braceleft" unicode="{" horiz-adv-x="389" 
d="M375 760l0.000976562 -38.002h-29c-32 0 -52.833 -11.667 -62.5 -35s-14.5 -64.666 -14.5 -123.999v-86c0 -26 -3 -48.667 -9 -68c-24.667 -73.333 -65.667 -113 -123 -119v-12c30.667 -4 56.167 -17 76.5 -39s35.833 -48.667 46.5 -80c6 -18.667 9 -41.334 9 -68.001
v-86c0 -59.333 4.83301 -100.666 14.5 -123.999s30.5 -35 62.5 -35h19v-38h-37c-58 0 -102 16 -132 48s-45 79 -45 141v73c0 124 -39.667 186 -119 186h-11v56h11c79.333 0 119 62 119 186v73c0 60.667 18.167 107.334 54.5 140.001s87.166 49 152.499 49h17z" />
    <glyph glyph-name="bar" unicode="|" horiz-adv-x="234" 
d="M160 760v-951h-72v951h72z" />
    <glyph glyph-name="braceright" unicode="}" horiz-adv-x="389" 
d="M12 722l0.000976562 38.002h17c65.333 0 116.166 -16.333 152.499 -49s54.5 -79.334 54.5 -140.001v-73c0 -124 39.667 -186 119 -186h11v-56h-11c-79.333 0 -119 -62 -119 -186v-73c0 -62 -15 -109 -45 -141s-74 -48 -132 -48h-37v38h19c32 0 52.833 11.667 62.5 35
s14.5 64.666 14.5 123.999v86c0 26 3 48.667 9 68c10.667 31.333 26.167 58 46.5 80s45.833 35 76.5 39v12c-57.333 6 -98.333 45.667 -123 119c-6 18.667 -9 41.334 -9 68.001v86c0 59.333 -4.83301 100.666 -14.5 123.999s-30.5 35 -62.5 35h-29z" />
    <glyph glyph-name="asciitilde" unicode="~" horiz-adv-x="588" 
d="M526 384l27.998 -15c-20 -45.333 -42.667 -80.5 -68 -105.5s-57.666 -37.5 -96.999 -37.5c-28 0 -62.833 10.833 -104.5 32.5s-75.167 32.5 -100.5 32.5c-46 0 -83 -20.333 -111 -61l-28 18c24 42 48.333 75 73 99s55.334 36 92.001 36c30.667 0 67 -10.667 109 -32
s74 -32 96 -32c44 0 81 21.667 111 65z" />
    <glyph glyph-name="nbspace" unicode="&#xa0;" horiz-adv-x="233" 
 />
    <glyph glyph-name="currency" unicode="&#xa4;" horiz-adv-x="553" 
d="M459 158l73.999 -73l-37 -42l-77 75c-45.333 -31.333 -89.666 -47 -132.999 -47c-45.333 0 -90 15.667 -134 47l-74 -75l-37 42l71 73c-29.333 41.333 -44 85.666 -44 132.999c0 46.667 14.667 90.667 44 132l-71 74l37 42l74 -77c44 30.667 88.667 46 134 46
c44.667 0 89 -15.333 133 -46l77 77l37 -42l-74 -74c30.667 -43.333 46 -87.333 46 -132c0 -45.333 -15.333 -89.666 -46 -132.999zM444.999 291c0 44.667 -15.667 82.834 -47 114.501s-68.666 47.5 -111.999 47.5s-80.666 -15.833 -111.999 -47.5s-47 -69.834 -47 -114.501
c0 -45.333 15.667 -84.166 47 -116.499s68.666 -48.5 111.999 -48.5s80.666 16.167 111.999 48.5s47 71.166 47 116.499z" />
    <glyph glyph-name="brokenbar" unicode="&#xa6;" horiz-adv-x="211" 
d="M143 696v-351h-72v351h72zM143 196v-351h-72v351h72z" />
    <glyph glyph-name="section" unicode="&#xa7;" horiz-adv-x="433" 
d="M409 334c0 -55.333 -33.998 -105.006 -101.998 -149.006c16 -9.33301 27.333 -16.333 34 -21s15 -11.834 25 -21.501s16.833 -21.167 20.5 -34.5s5.5 -29.333 5.5 -48c0 -44.667 -18.167 -82.167 -54.5 -112.5s-81.833 -45.5 -136.5 -45.5c-98.667 0 -148 23 -148 69
c0 30 23 54.333 69 73l16 -6c5.33301 -57.333 33.333 -86 84 -86c24 0 44.667 6.66699 62 20s26 32 26 56c0 6.66699 -0.833008 12.834 -2.5 18.501s-3.33398 10.5 -5.00098 14.5s-5 8 -10 12s-9 7 -12 9s-8.5 4.66699 -16.5 8s-13.833 5.83301 -17.5 7.5
s-10.834 4.33398 -21.501 8.00098s-18.334 6.16699 -23.001 7.5c-20.667 7.33301 -35.667 12.833 -45 16.5s-24 10.667 -44 21s-35 20.333 -45 30s-19.333 22.5 -28 38.5s-13 33.333 -13 52c0 55.333 34 105 102 149c-16 9.33301 -27.333 16.333 -34 21
s-15 11.834 -25 21.501s-16.833 21.167 -20.5 34.5s-5.5 29.333 -5.5 48c0 44.667 18.167 82.167 54.5 112.5s81.833 45.5 136.5 45.5c44.667 0 80.5 -6 107.5 -18s40.5 -30.333 40.5 -55c0 -27.333 -23 -50.333 -69 -69l-16 6c-5.33301 57.333 -33.333 86 -84 86
c-24 0 -44.667 -6.66699 -62 -20s-26 -32 -26 -56c0 -12 1.83301 -22.167 5.5 -30.5s10.834 -15.666 21.501 -21.999s19.834 -11 27.501 -14s20.5 -7.5 38.5 -13.5c6.66699 -2 11.667 -3.66699 15 -5c18.667 -6 33.667 -11 45 -15s26.166 -10.667 44.499 -20
s33 -19.166 44 -29.499s20.667 -23.666 29 -39.999s12.5 -34.166 12.5 -53.499zM307.002 289.994c0 26 -9.83301 46.666 -29.5 61.999s-46.834 28.666 -81.501 39.999l-27 9c-26.667 -30 -40 -58.667 -40 -86c0 -26 9.83301 -46.667 29.5 -62s46.834 -28.666 81.501 -39.999
l27 -9c26.667 28.667 40 57.334 40 86.001z" />
    <glyph glyph-name="dieresis" unicode="&#xa8;" horiz-adv-x="437" 
d="M411 611c0 -20 -6.66895 -37 -20.002 -51s-29.666 -21 -48.999 -21c-18 0 -33.667 7 -47 21s-20 31 -20 51c0 19.333 6.66699 36.166 20 50.499s29 21.5 47 21.5c18.667 0 34.834 -7.16699 48.501 -21.5s20.5 -31.166 20.5 -50.499zM236.998 611
c0 -20 -6.66895 -37 -20.002 -51s-29 -21 -47 -21c-19.333 0 -35.666 7 -48.999 21s-20 31 -20 51c0 19.333 6.83301 36.166 20.5 50.499s29.834 21.5 48.501 21.5c18 0 33.667 -7.16699 47 -21.5s20 -31.166 20 -50.499z" />
    <glyph glyph-name="copyright" unicode="&#xa9;" horiz-adv-x="763" 
d="M740 348c0 -99.333 -35 -186.331 -105 -260.998s-154.333 -112 -253 -112c-99.333 0 -183.833 36.833 -253.5 110.5s-104.5 161.167 -104.5 262.5s34.833 188.666 104.5 261.999s154.167 110 253.5 110c98.667 0 183 -37.333 253 -112s105 -161.334 105 -260.001z
M698 348.002c0 88 -30.833 164.999 -92.5 230.999s-136.167 99 -223.5 99c-88 0 -162.667 -32.667 -224 -98s-92 -142.666 -92 -231.999c0 -90 30.667 -167.667 92 -233s136 -98 224 -98c87.333 0 161.833 33.167 223.5 99.5s92.5 143.5 92.5 231.5zM512 225.001
l9.00195 -26.001c-4.66699 -5.33301 -10.834 -12 -18.501 -20s-23.667 -18.667 -48 -32s-48.5 -20 -72.5 -20c-54.667 0 -99 17.5 -133 52.5s-51 85.167 -51 150.5c0 76 18.667 135.667 56 179c17.333 20.667 40.166 36.334 68.499 47.001s54.5 16 78.5 16
c26.667 0 48.667 -3.16699 66 -9.5s28.833 -13 34.5 -20s8.5 -14.167 8.5 -21.5c0 -24 -17.667 -46.667 -53 -68l-14 11c1.33301 28.667 -3 47.667 -13 57s-22.667 14 -38 14c-28 0 -52.333 -16.167 -73 -48.5s-31 -79.5 -31 -141.5c0 -56 11 -98.167 33 -126.5
s48 -42.5 78 -42.5c40 0 77.667 16.333 113 49z" />
    <glyph glyph-name="guillemotleft" unicode="&#xab;" horiz-adv-x="417" 
d="M287 272l97 -182l-20 -13l-179 195l179 195l20 -13zM141 272l94 -197l-19 -14l-199 211l199 211l19 -14z" />
    <glyph glyph-name="logicalnot" unicode="&#xac;" horiz-adv-x="513" 
d="M468 288v-143h-56v80h-364v63h420z" />
    <glyph glyph-name="uni00AD" unicode="&#xad;" horiz-adv-x="356" 
d="M320 268l-15 -85c-52.667 2.66699 -96 4 -130 4l-115 -4l15 85l138 -5z" />
    <glyph glyph-name="registered" unicode="&#xae;" horiz-adv-x="759" 
d="M740 348c0 -99.333 -35 -186.331 -105 -260.998s-154.333 -112 -253 -112c-99.333 0 -183.833 36.833 -253.5 110.5s-104.5 161.167 -104.5 262.5s34.833 188.666 104.5 261.999s154.167 110 253.5 110c98.667 0 183 -37.333 253 -112s105 -161.334 105 -260.001z
M698 348.002c0 88 -30.833 164.999 -92.5 230.999s-136.167 99 -223.5 99c-88 0 -162.667 -32.667 -224 -98s-92 -142.666 -92 -231.999c0 -90 30.667 -167.667 92 -233s136 -98 224 -98c87.333 0 161.833 33.167 223.5 99.5s92.5 143.5 92.5 231.5zM565 166.001
l-0.00195312 -22.001c-23.333 -8 -46.666 -12 -69.999 -12c-7.33301 0 -13.666 1.33301 -18.999 4s-9.16602 5.16699 -11.499 7.5s-5.66602 6.83301 -9.99902 13.5l-8.5 13c-8 13.333 -21.667 39 -41 77c-2.66699 4.66699 -6 11 -10 19s-6.83301 13.5 -8.5 16.5
s-4.16699 7.16699 -7.5 12.5s-5.83301 9 -7.5 11s-3.66699 4.66699 -6 8s-4.66602 5.83301 -6.99902 7.5s-4.83301 3.16699 -7.5 4.5l-6 4v25c18 1.33301 30 2.33301 36 3c42.667 8.66699 64 38 64 88c0 47.333 -17.333 71 -52 71c-16.667 0 -27.834 -0.5 -33.501 -1.5
s-10.5 -4.16699 -14.5 -9.5c-4.66699 -4.66699 -7 -19 -7 -43v-122c0 -87.333 0.333008 -134.333 1 -141c0.666992 -2 1.16699 -4.83301 1.5 -8.5s0.666016 -6.33398 0.999023 -8.00098s0.833008 -3.66699 1.5 -6s1.66699 -4.33301 3 -6s3.16602 -3.66699 5.49902 -6
s5.16602 -4.5 8.49902 -6.5v-23c-5.33301 -0.666992 -15.333 -1 -30 -1c-24 0 -48.667 2 -74 6l-1 12c2 30 3 66 3 108v150c0 11.333 -0.5 24.833 -1.5 40.5s-1.5 25.834 -1.5 30.501c0 5.33301 -0.5 9.83301 -1.5 13.5s-2.5 6.83398 -4.5 9.50098s-3.66699 4.66699 -5 6
s-3.66602 2.5 -6.99902 3.5s-5.5 1.5 -6.5 1.5h-7.5l-6 1v26c84.667 6 147 9 187 9c81.333 0 122 -31 122 -93c0 -60.667 -34.333 -99 -103 -115c16 -12.667 32.333 -34.334 49 -65.001c23.333 -42.667 37.333 -67.334 42 -74.001c1.33301 -1.33301 4 -4.66602 8 -9.99902
s7 -9 9 -11s4.83301 -4.66699 8.5 -8s7.66699 -5.66602 12 -6.99902s8.83301 -2.33301 13.5 -3z" />
    <glyph glyph-name="degree" unicode="&#xb0;" horiz-adv-x="311" 
d="M282 561c0 -34 -11.833 -63.001 -35.5 -87.001s-53.167 -36 -88.5 -36c-36.667 0 -66 11.833 -88 35.5s-33 52.834 -33 87.501c0 35.333 11 64.5 33 87.5s51.333 34.5 88 34.5c35.333 0 64.833 -11.667 88.5 -35s35.5 -52.333 35.5 -87zM230 560.999
c0 20 -6.66992 36.667 -20.0029 50s-30.666 20 -51.999 20s-38.166 -6.5 -50.499 -19.5s-18.5 -29.833 -18.5 -50.5c0 -20 6.33301 -36.833 19 -50.5s29.334 -20.5 50.001 -20.5c22 0 39.5 6.16699 52.5 18.5s19.5 29.833 19.5 52.5z" />
    <glyph glyph-name="plusminus" unicode="&#xb1;" horiz-adv-x="526" 
d="M494 365l-18 -68c-63.333 1.33301 -118.333 2.33301 -165 3l4 -115l-68 -15c2 50 3 93.333 3 130l-198 -3l15 68c73.333 -2 134.333 -3.33301 183 -4l-3 123l68 18c-2.66699 -61.333 -4 -108.333 -4 -141zM496 137l-14 -69l-226 3l-205 -4l11 70
c90 -1.33301 157.333 -2 202 -2z" />
    <glyph glyph-name="acute" unicode="&#xb4;" horiz-adv-x="513" 
d="M278 664l102 -23l-135 -123l-36 7z" />
    <glyph glyph-name="mu" unicode="&#xb5;" horiz-adv-x="638" 
d="M597 167l27.998 -6.99902c-2 -13.333 -4.66699 -26 -8 -38s-9 -26.667 -17 -44s-17.667 -32.166 -29 -44.499s-26.666 -23 -45.999 -32s-41.333 -13.5 -66 -13.5c-26.667 0 -46.5 8 -59.5 24s-20.167 34.667 -21.5 56l-1 24c-27.333 -69.333 -74.666 -104 -141.999 -104
c-28 0 -52.333 9.66699 -73 29s-32.667 45 -36 77h-6c0 -98.667 3.16699 -166.334 9.5 -203.001s19.166 -59.667 38.499 -69v-17c-35.333 -22.667 -66.333 -34 -93 -34s-40 16.333 -40 49c0 23.333 7.33301 79.666 22 168.999s22.667 151 24 185l9 286l121 8l-8 -277
c-1.33301 -82 20 -123 64 -123c27.333 0 47.833 9.5 61.5 28.5s20.834 42.5 21.501 70.5l6 292l122 9l-8 -303c0 -2 -0.166992 -5.83301 -0.5 -11.5s-0.5 -10.167 -0.5 -13.5c0 -54.667 14.333 -82 43 -82c22.667 0 41 11.333 55 34s24 47.667 30 75z" />
    <glyph glyph-name="paragraph" unicode="&#xb6;" horiz-adv-x="517" 
d="M476 687l0.000976562 -47h-81v-828h-63v828h-88v-828h-63v604c-92.667 -2.66699 -140.334 42.333 -143.001 135c0 38.667 12.333 71 37 97s58.667 39 102 39h299z" />
    <glyph glyph-name="periodcentered" unicode="&#xb7;" horiz-adv-x="305" 
d="M215 342c0 -16.667 -6 -31 -18 -43s-26.333 -18 -43 -18s-30.834 6 -42.501 18s-17.5 26.333 -17.5 43s5.83301 30.834 17.5 42.501s25.834 17.5 42.501 17.5s31 -5.83301 43 -17.5s18 -25.834 18 -42.501z" />
    <glyph glyph-name="guillemotright" unicode="&#xbb;" horiz-adv-x="417" 
d="M33 90l97 182l-97 182l20 13l179 -195l-179 -195zM182 75l94 197l-94 197l19 14l199 -211l-199 -211z" />
    <glyph glyph-name="tilde" unicode="&#x2dc;" horiz-adv-x="495" 
d="M443 598l23.998 -11.999c-17.333 -38.667 -36.666 -68.667 -57.999 -90s-48.666 -32 -81.999 -32c-23.333 0 -53 9.16699 -89 27.5s-64.667 27.5 -86 27.5c-38.667 0 -70 -17.333 -94 -52l-24 16c20 35.333 40.5 63.166 61.5 83.499s47.167 30.5 78.5 30.5
c26 0 57 -9 93 -27s63.333 -27 82 -27c36.667 0 68 18.333 94 55z" />
    <glyph glyph-name="uni037E" unicode="&#x37e;" horiz-adv-x="190" 
d="M153 413c0 -15.333 -5.66699 -28.666 -17 -39.999s-24.666 -17 -39.999 -17s-28.666 5.66699 -39.999 17s-17 24.666 -17 39.999s5.66699 28.666 17 39.999s24.666 17 39.999 17s28.666 -5.66699 39.999 -17s17 -24.666 17 -39.999zM160 45
c0 -27.333 -11.5 -60.3301 -34.5 -98.9971s-50.833 -69.334 -83.5 -92.001l-20 21c4 3.33301 8.83301 7.83301 14.5 13.5s13.167 17 22.5 34s14 33.5 14 49.5c0 10.667 -6.33301 24.667 -19 42s-19 30.666 -19 39.999c0 17.333 7 33.166 21 47.499s29 21.5 45 21.5
c39.333 0 59 -26 59 -78z" />
    <glyph glyph-name="uni03BC" unicode="&#x3bc;" horiz-adv-x="638" 
d="M597 167l27.998 -6.99902c-2 -13.333 -4.66699 -26 -8 -38s-9 -26.667 -17 -44s-17.667 -32.166 -29 -44.499s-26.666 -23 -45.999 -32s-41.333 -13.5 -66 -13.5c-26.667 0 -46.5 8 -59.5 24s-20.167 34.667 -21.5 56l-1 24c-27.333 -69.333 -74.666 -104 -141.999 -104
c-28 0 -52.333 9.66699 -73 29s-32.667 45 -36 77h-6c0 -98.667 3.16699 -166.334 9.5 -203.001s19.166 -59.667 38.499 -69v-17c-35.333 -22.667 -66.333 -34 -93 -34s-40 16.333 -40 49c0 23.333 7.33301 79.666 22 168.999s22.667 151 24 185l9 286l121 8l-8 -277
c-1.33301 -82 20 -123 64 -123c27.333 0 47.833 9.5 61.5 28.5s20.834 42.5 21.501 70.5l6 292l122 9l-8 -303c0 -2 -0.166992 -5.83301 -0.5 -11.5s-0.5 -10.167 -0.5 -13.5c0 -54.667 14.333 -82 43 -82c22.667 0 41 11.333 55 34s24 47.667 30 75z" />
    <glyph glyph-name="afii10023" unicode="&#x401;" horiz-adv-x="536" 
d="M478 186l33.001 -5.99902l-34 -178c-62 -8 -130.667 -12 -206 -12c-77.333 0 -128.5 2.16699 -153.5 6.5s-37.5 14.5 -37.5 30.5c0 3.33301 0.166992 7.83301 0.5 13.5s0.833008 13.5 1.5 23.5l2 29l4 72c0.666992 12 1.16699 26.667 1.5 44s0.833008 38.166 1.5 62.499
s1.33398 44.5 2.00098 60.5l2.5 89l2.5 89.5c0.666992 24.333 1 40.5 1 48.5c0 29.333 -3.83301 50.666 -11.5 63.999s-22.167 21.666 -43.5 24.999v34c148.667 3.33301 242 5 280 5c75.333 0 122.666 -2.16699 141.999 -6.5s29 -17.166 29 -38.499
c0 -14 -6.16699 -35.5 -18.5 -64.5s-26.5 -52.167 -42.5 -69.5l-38 -5c5.33301 39.333 8 65.333 8 78c0 21.333 -7.33301 35.833 -22 43.5s-38 11.5 -70 11.5c-16 0 -28.667 -0.666992 -38 -2s-18 -4.66602 -26 -9.99902s-12.667 -13.333 -14 -24
c-6.66699 -43.333 -10 -114.333 -10 -213v-9l181 5l-11 -70c-40 7.33301 -97 12 -171 14c0 -36 -0.333008 -73.5 -1 -112.5s-1 -68.167 -1 -87.5c0 -32 5.16699 -53.5 15.5 -64.5s36.166 -16.5 77.499 -16.5c25.333 0 48 4.5 68 13.5s36.333 22 49 39s22 31.333 28 43
s12.333 26.5 19 44.5zM418.001 769.001c0 -15.333 -5.5 -28.333 -16.5 -39s-24.167 -16 -39.5 -16c-14.667 0 -27.834 5.33301 -39.501 16s-17.5 23.667 -17.5 39s5.83301 28.333 17.5 39s24.834 16 39.501 16c15.333 0 28.5 -5.33301 39.5 -16s16.5 -23.667 16.5 -39z
M249.001 769.001c0 -15.333 -5.83301 -28.333 -17.5 -39s-24.834 -16 -39.501 -16c-15.333 0 -28.5 5.33301 -39.5 16s-16.5 23.667 -16.5 39s5.5 28.333 16.5 39s24.167 16 39.5 16c14.667 0 27.834 -5.33301 39.501 -16s17.5 -23.667 17.5 -39z" />
    <glyph glyph-name="afii10051" unicode="&#x402;" horiz-adv-x="716" 
d="M695 222c0 -72.667 -20.999 -129.17 -62.999 -169.503s-86.333 -60.5 -133 -60.5c-55.333 0 -83 14 -83 42s14.667 51.667 44 71l11 -7c6.66699 -38 20.334 -57 41.001 -57c34.667 0 52 50.667 52 152c0 50 -10 88.833 -30 116.5s-50 41.5 -90 41.5
c-40.667 0 -73.334 -8 -98.001 -24l-2 -199c-0.666992 -32 1 -54.833 5 -68.5s12.667 -22.167 26 -25.5v-34h-131c-13.333 0 -22.5 6.16699 -27.5 18.5s-7.5 33.5 -7.5 63.5c0 20.667 0.5 51.167 1.5 91.5s1.5 67.5 1.5 81.5l4 256c0 57.333 -2.33301 92.5 -7 105.5
s-18.334 19.5 -41.001 19.5c-30 0 -51.833 -9.66699 -65.5 -29s-26.167 -55.666 -37.5 -108.999l-36 -12c-7.33301 30.667 -11 65.667 -11 105c0 32.667 3.33301 61.334 10 86.001l14 11c48 -3.33301 129.333 -5 244 -5c22 0 57.5 1.33301 106.5 4s80.833 4 95.5 4
c42.667 0 69.5 -2.16699 80.5 -6.5s16.5 -17.166 16.5 -38.499c0 -14 -6.16699 -35.5 -18.5 -64.5s-26.5 -52.167 -42.5 -69.5l-38 -5c5.33301 39.333 8 65.333 8 78c0 21.333 -6.5 35.833 -19.5 43.5s-33.167 11.5 -60.5 11.5l-77 -5c6 -14.667 9 -46 9 -94v-161
c40.667 17.333 87.667 26 141 26c60.667 0 110.5 -14.667 149.5 -44s58.5 -76 58.5 -140z" />
    <glyph glyph-name="afii10052" unicode="&#x403;" horiz-adv-x="491" 
d="M495 646c0 -14 -6.16602 -35.5 -18.499 -64.5s-26.5 -52.167 -42.5 -69.5l-38 -5c5.33301 39.333 8 65.333 8 78c0 21.333 -7.33301 35.833 -22 43.5s-38 11.5 -70 11.5c-16 0 -28.667 -0.666992 -38 -2s-18 -4.66602 -26 -9.99902s-12.667 -13.333 -14 -24
c-2 -14.667 -5.33301 -87 -10 -217c-3.33301 -112 -5 -195.667 -5 -251c0 -62 15.333 -96 46 -102v-34h-147c-14 0 -23.333 6 -28 18s-7 33.333 -7 64c0 27.333 1.5 69.333 4.5 126s4.83301 98 5.5 124c4 120 6 197 6 231c0 29.333 -3.83301 50.666 -11.5 63.999
s-22.167 21.666 -43.5 24.999v34c148.667 3.33301 242 5 280 5c75.333 0 122.666 -2.16699 141.999 -6.5s29 -17.166 29 -38.499zM287.001 858l106 -24l-154 -123l-29 11z" />
    <glyph glyph-name="afii10053" unicode="&#x404;" horiz-adv-x="549" 
d="M512 138l13.999 -40.9971l-8.5 -11.5c-3.66699 -5 -12.167 -13.833 -25.5 -26.5s-27.666 -23.834 -42.999 -33.501s-35.833 -18.5 -61.5 -26.5s-52.167 -12 -79.5 -12c-76 0 -138.833 26 -188.5 78s-74.5 132.333 -74.5 241c0 118.667 29.667 212.667 89 282
c28 34 61.833 59 101.5 75s77.5 24 113.5 24c42 0 76.667 -4.83301 104 -14.5s45.333 -19.834 54 -30.501s13 -21.667 13 -33c0 -36.667 -27.333 -72 -82 -106l-20 16c1.33301 24.667 -0.166992 45.167 -4.5 61.5s-11.166 28.166 -20.499 35.499s-18.5 12.333 -27.5 15
s-19.167 4 -30.5 4c-40.667 0 -75 -22.333 -103 -67s-44 -110.667 -48 -198l232 3l-9 -69c-16.667 3.33301 -50.334 6.5 -101.001 9.5s-91.667 4.5 -123 4.5c2.66699 -84 17.5 -148 44.5 -192s62.833 -66 107.5 -66c64.667 0 123.667 26 177 78z" />
    <glyph glyph-name="afii10054" unicode="&#x405;" horiz-adv-x="504" 
d="M465 224c0 -74 -27.0029 -131.837 -81.0029 -173.504s-117.667 -62.5 -191 -62.5c-59.333 0 -100 6.83301 -122 20.5s-33 33.5 -33 59.5c0 38.667 15.667 75.334 47 110.001l22 -10c4.66699 -46 18.5 -78.833 41.5 -98.5s47.833 -29.5 74.5 -29.5
c28.667 0 55.334 10.667 80.001 32s37 53.333 37 96c0 14 -2 26.333 -6 37s-12.333 21 -25 31s-22.667 17.333 -30 22s-23.166 13 -47.499 25l-50.5 25c-22 11.333 -36 18.666 -42 21.999s-17.833 11.5 -35.5 24.5s-29.667 24.833 -36 35.5s-12.833 26 -19.5 46
s-10 42 -10 66c0 20.667 4.16699 41.167 12.5 61.5s21.333 40 39 59s43.334 34.5 77.001 46.5s72.5 18 116.5 18c108.667 0 163 -26.667 163 -80c0 -35.333 -18 -70.333 -54 -105l-24 9c-2 44 -13.167 75.667 -33.5 95s-44.833 29 -73.5 29
c-37.333 0 -64.666 -9.33301 -81.999 -28s-26 -41.667 -26 -69c0 -10 0.833008 -19.167 2.5 -27.5s5.16699 -16 10.5 -23s9.5 -12.667 12.5 -17s9.66699 -9.66602 20 -15.999s17.166 -10.666 20.499 -12.999s12 -6.83301 26 -13.5s22.667 -11 26 -13
c5.33301 -2.66699 16.833 -7.66699 34.5 -15s32 -13.666 43 -18.999s24.667 -13.5 41 -24.5s29.333 -22.167 39 -33.5s18.167 -25.666 25.5 -42.999s11 -36 11 -56z" />
    <glyph glyph-name="afii10055" unicode="&#x406;" horiz-adv-x="296" 
d="M265 34v-33.999h-147c-14 0 -23.333 6 -28 18s-7 33.333 -7 64c0 27.333 1.5 69.333 4.5 126s4.83301 98 5.5 124c4 120 6 196 6 228c0 29.333 -3.83301 50.666 -11.5 63.999s-22.167 21.666 -43.5 24.999v34c56.667 3.33301 104 5 142 5c18.667 0 31 -6 37 -18
s9 -35 9 -69c0 -26.667 -1.16699 -62.667 -3.5 -108s-3.83301 -79.666 -4.5 -102.999l-5 -254c-1.33301 -62 14 -96 46 -102z" />
    <glyph glyph-name="afii10056" unicode="&#x407;" horiz-adv-x="304" 
d="M266 779c0 -15.333 -5.5 -28.333 -16.5 -39s-24.167 -16 -39.5 -16c-14.667 0 -27.834 5.33301 -39.501 16s-17.5 23.667 -17.5 39s5.83301 28.333 17.5 39s24.834 16 39.501 16c15.333 0 28.5 -5.33301 39.5 -16s16.5 -23.667 16.5 -39zM131 779
c0 -15.333 -5.83301 -28.333 -17.5 -39s-24.834 -16 -39.501 -16c-15.333 0 -28.5 5.33301 -39.5 16s-16.5 23.667 -16.5 39s5.5 28.333 16.5 39s24.167 16 39.5 16c14.667 0 27.834 -5.33301 39.501 -16s17.5 -23.667 17.5 -39zM265 34v-33.999h-147
c-14 0 -23.333 6 -28 18s-7 33.333 -7 64c0 27.333 1.5 69.333 4.5 126s4.83301 98 5.5 124c4 120 6 196 6 228c0 29.333 -3.83301 50.666 -11.5 63.999s-22.167 21.666 -43.5 24.999v34c56.667 3.33301 104 5 142 5c18.667 0 31 -6 37 -18s9 -35 9 -69
c0 -26.667 -1.16699 -62.667 -3.5 -108s-3.83301 -79.666 -4.5 -102.999l-5 -254c-1.33301 -62 14 -96 46 -102z" />
    <glyph glyph-name="afii10057" unicode="&#x408;" horiz-adv-x="313" 
d="M254 601c0 -30.667 -2.66406 -102.661 -7.99707 -215.994c-8.66699 -204 -21.334 -329 -38.001 -375c-42.667 -117.333 -109.334 -176 -200.001 -176c-52 0 -78 17 -78 51c0 4.66699 0.333008 9 1 13s2 7.83301 4 11.5l5 9c1.33301 2.33301 4 5.16602 8 8.49902
s6.66699 5.66602 8 6.99902s4.66602 3.33301 9.99902 6s8.5 4.33398 9.5 5.00098s4.5 2.5 10.5 5.5s9.33301 4.5 10 4.5l12 -12c0 -13.333 3.83301 -26.333 11.5 -39s18.5 -19 32.5 -19c8.66699 0 16 1.16699 22 3.5s11 7.16602 15 14.499l9.5 17.5
c2.33301 4.33301 4.33301 12.833 6 25.5s2.66699 21.167 3 25.5s1.16602 14.166 2.49902 29.499c1.33301 14.667 2.33301 65.667 3 153s1.33398 146.666 2.00098 177.999c4 120 6 196 6 228c0 29.333 -3.83301 50.666 -11.5 63.999s-22.167 21.666 -43.5 24.999v34
c56.667 3.33301 104 5 142 5c18.667 0 31 -6 37 -18s9 -35 9 -69z" />
    <glyph glyph-name="afii10058" unicode="&#x409;" horiz-adv-x="828" 
d="M805 203c0 -33.333 -6.49902 -62.999 -19.499 -88.999s-29 -46.333 -48 -61s-41 -26.667 -66 -36s-47.667 -15.5 -68 -18.5s-40.166 -4.5 -59.499 -4.5c-40 0 -71.167 3.16699 -93.5 9.5s-37.333 13.5 -45 21.5s-16.167 21 -25.5 39
c-7.33301 13.333 -24 76.666 -50 189.999l-60 257c-12 53.333 -22.667 87.666 -32 102.999h-5l-32 -117c-61.333 -229.333 -92 -362.666 -92 -399.999c0 -32.667 11.333 -57 34 -73v-28c-45.333 -2 -77.333 -3 -96 -3c-15.333 0 -25.166 3.5 -29.499 10.5
s-6.5 17.833 -6.5 32.5c0 34 15.333 98 46 192l43 117c4 13.333 9.83301 31.666 17.5 54.999l20 61.5l17.5 54.5c6 18.667 10.5 34.5 13.5 47.5s4.5 22.167 4.5 27.5c0 11.333 -3.83301 20 -11.5 26s-14.167 9.33301 -19.5 10s-14.333 1.66699 -27 3l1 31
c102.667 17.333 168 26 196 26c20.667 0 34.167 -4.33301 40.5 -13s14.833 -34.334 25.5 -77.001c1.33301 -4 2.16602 -7.16699 2.49902 -9.5s1.16602 -5.66602 2.49902 -9.99902s2.33301 -8.16602 3 -11.499c73.333 -286.667 112.666 -436.667 117.999 -450
c9.33301 -23.333 19.333 -40.833 30 -52.5s25.667 -17.5 45 -17.5c28 0 50.167 12.167 66.5 36.5s24.5 53.833 24.5 88.5c0 46.667 -11.333 86.167 -34 118.5s-58.667 48.5 -108 48.5l-67 -5l-7 43c26.667 6.66699 57 10 91 10c173.333 0 260 -61 260 -183z" />
    <glyph glyph-name="afii10059" unicode="&#x40a;" horiz-adv-x="932" 
d="M895 236c0 -46 -8.83105 -86.166 -26.498 -120.499s-40.834 -60.5 -69.501 -78.5s-57.667 -31.167 -87 -39.5s-59 -12.5 -89 -12.5c-72.667 0 -123.834 3.33301 -153.501 10s-44.5 17.334 -44.5 32.001c0 6 0.333008 13.167 1 21.5s1.66699 20 3 35l4 45.5
c4.66699 96 7.66699 166 9 210l-218 3l-5 -206c-0.666992 -32.667 1.66602 -57 6.99902 -73s17 -25.667 35 -29v-34h-143c-14 0 -23.333 6 -28 18s-7 33.333 -7 64c0 26.667 1.5 68.334 4.5 125.001s4.83301 98.334 5.5 125.001c4 120 6 196 6 228
c0 29.333 -3.83301 50.666 -11.5 63.999s-22.167 21.666 -43.5 24.999v34c56.667 3.33301 104 5 142 5c18.667 0 31 -6 37 -18s9 -35 9 -69c0 -21.333 -0.5 -45 -1.5 -71s-2.16699 -52.833 -3.5 -80.5s-2.33301 -47.5 -3 -59.5l218 10c1.33301 85.333 2 138.666 2 159.999
c0 29.333 -3.83301 50.666 -11.5 63.999s-22.167 21.666 -43.5 24.999v34c58 3.33301 106 5 144 5c18.667 0 31 -6 37 -18s9 -35 9 -69c0 -62.667 -2 -155.334 -6 -278.001c0 -7.33301 -1 -45.666 -3 -114.999s-3 -110.666 -3 -123.999c-0.666992 -14 5.5 -24.667 18.5 -32
s31.833 -11 56.5 -11c36.667 0 65.667 13.667 87 41s32 66.666 32 117.999c0 50.667 -7 88.834 -21 114.501s-42 38.5 -84 38.5c-21.333 0 -43 -4.33301 -65 -13v41c30.667 16.667 66.334 25 107.001 25c131.333 0 197 -56.667 197 -170z" />
    <glyph glyph-name="afii10060" unicode="&#x40b;" horiz-adv-x="746" 
d="M727 34l0.00292969 -34.0039h-143c-14 0 -23.333 4.5 -28 13.5s-7 27.833 -7 56.5c0 18 1 39.667 3 65s3 51 3 77c0 47.333 -7.16699 82.333 -21.5 105s-43.166 34 -86.499 34c-18.667 0 -37.834 -2.5 -57.501 -7.5s-33.5 -10.5 -41.5 -16.5l-2 -199
c-0.666992 -31.333 1.66602 -54 6.99902 -68s17.333 -22.667 36 -26v-34h-143c-13.333 0 -22.5 6.16699 -27.5 18.5s-7.5 33.5 -7.5 63.5c0 20.667 0.5 51.167 1.5 91.5s1.5 67.5 1.5 81.5l4 256c0 57.333 -2.33301 92.5 -7 105.5s-18.334 19.5 -41.001 19.5
c-30 0 -51.833 -9.66699 -65.5 -29s-26.167 -55.666 -37.5 -108.999l-36 -12c-7.33301 30.667 -11 65.667 -11 105c0 32.667 3.33301 61.334 10 86.001l14 11c48 -3.33301 129.333 -5 244 -5c22 0 57.5 1.33301 106.5 4s80.833 4 95.5 4c42.667 0 69.5 -2.16699 80.5 -6.5
s16.5 -17.166 16.5 -38.499c0 -14 -6.16699 -35.5 -18.5 -64.5s-26.5 -52.167 -42.5 -69.5l-38 -5c5.33301 39.333 8 65.333 8 78c0 21.333 -6.5 35.833 -19.5 43.5s-33.167 11.5 -60.5 11.5l-77 -5c6 -14.667 9 -46 9 -94v-161c43.333 21.333 97.666 32 162.999 32
c60 0 104.167 -11.833 132.5 -35.5s42.5 -62.5 42.5 -116.5c0 -31.333 -0.333008 -57.666 -1 -78.999s-1 -39 -1 -53c0 -33.333 2.5 -56.5 7.5 -69.5s16.833 -21.167 35.5 -24.5z" />
    <glyph glyph-name="afii10061" unicode="&#x40c;" horiz-adv-x="616" 
d="M608 38l-0.000976562 -34.001c-46 -6.66699 -83.333 -10 -112 -10c-20.667 0 -37 4.5 -49 13.5s-23.333 22.833 -34 41.5c-6 10 -18.333 36.833 -37 80.5s-29 67.167 -31 70.5c-20.667 42 -38.167 71.667 -52.5 89s-29.833 28 -46.5 32l-13 3l2 33
c27.333 11.333 54 30.333 80 57s47 52 63 76c22.667 34.667 34 69.667 34 105c0 24 -12 39.333 -36 46v34c74.667 8 120 12 136 12c21.333 0 32 -6.66699 32 -20c0 -22 -22.333 -64.667 -67 -128c-24 -34 -43.667 -60.333 -59 -79s-37.333 -41.667 -66 -69
c12 -7.33301 21.333 -13.833 28 -19.5s16.334 -17.167 29.001 -34.5s27 -40.666 43 -69.999l25.5 -50.5l37 -72.5c11.667 -22.667 21.167 -39 28.5 -49l8 -12c4 -6 6.5 -9.66699 7.5 -11l6.5 -8.5c3.33301 -4.33301 6 -7.16602 8 -8.49902l9 -6
c4 -2.66699 8 -4.83398 12 -6.50098s8.66699 -3.16699 14 -4.5zM264.999 33.999v-33.998h-147c-14 0 -23.333 6 -28 18s-7 33.333 -7 64c0 27.333 1.5 69.333 4.5 126s4.83301 98 5.5 124c4 120 6 196 6 228c0 29.333 -3.83301 50.666 -11.5 63.999
s-22.167 21.666 -43.5 24.999v34c56.667 3.33301 104 5 142 5c18.667 0 31 -6 37 -18s9 -35 9 -69c0 -18.667 -1.16699 -52 -3.5 -100s-3.83301 -85 -4.5 -111l-5 -254c-1.33301 -62 14 -96 46 -102zM356.999 858.001l106 -24l-154 -123l-29 11z" />
    <glyph glyph-name="afii10062" unicode="&#x40e;" horiz-adv-x="548" 
d="M535 651c1.33301 -24 -15.9941 -85.666 -51.9941 -184.999l-48 -131c-24.667 -66 -50.667 -130.333 -78 -193c-45.333 -104.667 -96 -157 -152 -157c-35.333 0 -53.333 16.667 -54 50c-0.666992 26 4.33301 53.667 15 83l17 4c17.333 -24 39.666 -36 66.999 -36
c24.667 0 37 15.667 37 47c0 22 -27 91 -81 207l-46 100c-22 46.667 -45 91 -69 133c-24 40 -51.667 60.667 -83 62l-1 33c56 12.667 104.667 19 146 19c15.333 0 30.666 -11.833 45.999 -35.5s35.333 -64.834 60 -123.501l99 -237h5l23 59
c12 30.667 23.167 70.667 33.5 120s15.166 87.333 14.499 114c-0.666992 21.333 -4.33398 35.833 -11.001 43.5s-17.334 13.834 -32.001 18.501l1 26c51.333 10 86.666 15 105.999 15c14 0 23.5 -2.33301 28.5 -7s7.83301 -14.334 8.5 -29.001zM449.006 852.001
l33.0029 -11.001c-22 -45.333 -52.333 -79.166 -91 -101.499s-82.334 -33.5 -131.001 -33.5c-71.333 0 -107 19.333 -107 58c0 16 6 31.333 18 46s24 25.334 36 32.001l18 9c11.333 -28.667 25.166 -48.834 41.499 -60.501s38.833 -17.5 67.5 -17.5
c45.333 0 83.666 26.333 114.999 79z" />
    <glyph glyph-name="afii10145" unicode="&#x40f;" horiz-adv-x="639" 
d="M609 32l-0.000976562 -32.999c-75.333 2 -132.666 2 -171.999 0c-22.667 -8 -39.334 -27.333 -50.001 -58s-19 -72.334 -25 -125.001l-31 -4c-5.33301 42.667 -11 74.667 -17 96c-12.667 48 -34.667 77.333 -66 88c-72 0 -117 3 -135 9s-27 22.667 -27 50
c0 30 0.5 75.5 1.5 136.5s1.5 99.167 1.5 114.5v150c0 41.333 -1.66699 80.666 -5 117.999c-0.666992 6 -1.66699 11.667 -3 17l-3.5 13.5c-1 3.66699 -2.83301 7 -5.5 10s-4.66699 5.5 -6 7.5s-3.66602 3.66699 -6.99902 5s-5.66602 2.5 -6.99902 3.5
s-4.16602 1.66699 -8.49902 2s-7 0.666016 -8 0.999023s-3.66699 0.5 -8 0.5h-7.5v39l194 18l8 -5c-0.666992 -14 -1.16699 -38.667 -1.5 -74s-0.5 -58.666 -0.5 -69.999c-3.33301 -249.333 -2.33301 -396.666 3 -441.999c2.66699 -20.667 10.834 -35.5 24.501 -44.5
s37.167 -13.5 70.5 -13.5c21.333 0 38.666 0.666992 51.999 2s25.666 3.16602 36.999 5.49902l22 4.5c-4 18 -6 78 -6 180l2 222c0 53.333 -1.66699 92.666 -5 117.999c-2 14 -5 25.333 -9 34s-9.83301 14.667 -17.5 18s-13.5 5.33301 -17.5 6s-10.667 1.33398 -20 2.00098
v39l194 18l8 -5c-0.666992 -14 -1.16699 -38.667 -1.5 -74s-0.5 -58.666 -0.5 -69.999c0 -14 -0.666992 -59 -2 -135s-2 -130.333 -2 -163v-131c2 -30.667 6.16699 -50.667 12.5 -60s21.166 -16.333 44.499 -21z" />
    <glyph glyph-name="afii10017" unicode="&#x410;" horiz-adv-x="599" 
d="M592 40l-2 -41.9971c-48.667 -3.33301 -81.334 -5 -98.001 -5c-32 0 -54.333 4.83301 -67 14.5s-23.334 29.167 -32.001 58.5c-5.33301 19.333 -18.666 80.666 -39.999 183.999l-198 2c-18 -57.333 -27 -111 -27 -161c0 -17.333 2 -30 6 -38s12.333 -16.333 25 -25
l-2 -30c-52 -3.33301 -87.667 -5 -107 -5c-15.333 0 -25.166 3.5 -29.499 10.5s-6.5 17.833 -6.5 32.5c0 31.333 17.333 92 52 182l56 146c5.33301 14.667 13.833 36 25.5 64l27 66.5c6.33301 16.333 12.333 33.5 18 51.5s8.5 31.333 8.5 40c0 4.66699 -0.5 9 -1.5 13
s-2.66699 7 -5 9s-4.5 3.66699 -6.5 5s-5 2.33301 -9 3s-7.16699 1.16699 -9.5 1.5s-6 0.5 -11 0.5h-10.5v36c102.667 22 167.667 33 195 33c20.667 0 34.5 -6.16699 41.5 -18.5s15.833 -40.166 26.5 -83.499c2 -8.66699 3.66699 -15.334 5 -20.001l70 -289
c22 -92 35 -143.333 39 -154c10.667 -28.667 20.5 -49.334 29.5 -62.001s21.5 -19.334 37.5 -20.001zM172 302.003l171 -5.99902l-49 214c-12 53.333 -20.667 88.666 -26 105.999h-3l-34 -120z" />
    <glyph glyph-name="afii10018" unicode="&#x411;" horiz-adv-x="602" 
d="M553 236c0 -46 -8.83203 -86.1709 -26.499 -120.504s-40.834 -60.5 -69.501 -78.5s-57.667 -31.167 -87 -39.5s-59 -12.5 -89 -12.5c-72.667 0 -123.834 3.33301 -153.501 10s-44.5 17.334 -44.5 32.001c0 6 0.333008 13.167 1 21.5s1.66699 20 3 35l4 45.5
c4 54.667 6 98.667 6 132l1 138c0 22 0.166992 47.667 0.5 77s0.5 47.333 0.5 54c0 40.667 -5.33301 68.834 -16 84.501s-28 24.167 -52 25.5v42c167.333 3.33301 270 5 308 5c75.333 0 122.666 -2.16699 141.999 -6.5s29 -17.166 29 -38.499
c0 -14 -6.16699 -35.5 -18.5 -64.5s-26.5 -52.167 -42.5 -69.5l-38 -5c5.33301 39.333 8 65.333 8 78c0 21.333 -7.33301 35.833 -22 43.5s-38 11.5 -70 11.5c-47.333 0 -76 -12.667 -86 -38c-2 -4.66699 -3.5 -12.667 -4.5 -24s-1.83301 -25.333 -2.5 -42
s-1.16699 -32.834 -1.5 -48.501s-0.666016 -34.667 -0.999023 -57s-0.5 -40.166 -0.5 -53.499c-0.666992 -25.333 -1.5 -61.166 -2.5 -107.499l-2.5 -118c-0.666992 -32.333 -1 -53.5 -1 -63.5c0 -28.667 25 -43 75 -43c36.667 0 65.667 13.667 87 41s32 66.666 32 117.999
c0 50.667 -7 88.834 -21 114.501s-42 38.5 -84 38.5c-21.333 0 -43 -4.33301 -65 -13v41c40.667 16.667 76.334 25 107.001 25c131.333 0 197 -56.667 197 -170z" />
    <glyph glyph-name="afii10019" unicode="&#x412;" horiz-adv-x="593" 
d="M550 202c0 -42 -9.33301 -78.167 -28 -108.5s-43 -52.833 -73 -67.5s-59.167 -25.167 -87.5 -31.5s-56.833 -9.5 -85.5 -9.5c-132 0 -198 14 -198 42c0 6 0.333008 13.167 1 21.5s1.66699 20 3 35l4 45.5c4 54.667 6 98.667 6 132l1 194c0 42 -1 75.167 -3 99.5
s-6.5 41.833 -13.5 52.5s-13.667 17.167 -20 19.5s-16.5 3.83301 -30.5 4.5v42c140 9.33301 243 14 309 14c123.333 0 185 -49.667 185 -149c0 -28.667 -8.33301 -55.5 -25 -80.5s-33.667 -43.833 -51 -56.5s-34.333 -22 -51 -28v-6c42 -6 78.667 -22.5 110 -49.5
s47 -65.5 47 -115.5zM384 522c0 75.333 -26 113.001 -78 113.001c-21.333 0 -36.833 -1.33301 -46.5 -4s-18.167 -8.33398 -25.5 -17.001c-4.66699 -6 -7 -30.333 -7 -73l-1 -164l66 4c28 1.33301 50.333 14 67 38s25 58.333 25 103zM410 190.001
c0 44.667 -9.16699 79.498 -27.5 104.498s-44.833 37.5 -79.5 37.5c-27.333 0 -53 -3 -77 -9c0 -7.33301 -1 -45.666 -3 -114.999s-3 -110.666 -3 -123.999c-0.666992 -14 5.5 -24.667 18.5 -32s31.833 -11 56.5 -11c76.667 0 115 49.667 115 149z" />
    <glyph glyph-name="afii10020" unicode="&#x413;" horiz-adv-x="491" 
d="M495 646c0 -14 -6.16602 -35.5 -18.499 -64.5s-26.5 -52.167 -42.5 -69.5l-38 -5c5.33301 39.333 8 65.333 8 78c0 21.333 -7.33301 35.833 -22 43.5s-38 11.5 -70 11.5c-16 0 -28.667 -0.666992 -38 -2s-18 -4.66602 -26 -9.99902s-12.667 -13.333 -14 -24
c-2 -14.667 -5.33301 -87 -10 -217c-3.33301 -112 -5 -195.667 -5 -251c0 -62 15.333 -96 46 -102v-34h-147c-14 0 -23.333 6 -28 18s-7 33.333 -7 64c0 27.333 1.5 69.333 4.5 126s4.83301 98 5.5 124c4 120 6 197 6 231c0 29.333 -3.83301 50.666 -11.5 63.999
s-22.167 21.666 -43.5 24.999v34c148.667 3.33301 242 5 280 5c75.333 0 122.666 -2.16699 141.999 -6.5s29 -17.166 29 -38.499z" />
    <glyph glyph-name="afii10021" unicode="&#x414;" horiz-adv-x="654" 
d="M653 44c-7.33301 -62.667 -32.665 -139.666 -75.998 -230.999l-31 -4c8 43.333 12 83 12 119c0 13.333 -1.66699 24.333 -5 33s-7.16602 15.167 -11.499 19.5s-11.666 7.66602 -21.999 9.99902s-19.166 3.66602 -26.499 3.99902s-19 0.5 -35 0.5
c-27.333 0 -57.833 0.166992 -91.5 0.5s-61.834 0.5 -84.501 0.5s-45.334 -0.333008 -68.001 -1c-42 -1.33301 -71.667 -4.5 -89 -9.5s-31 -15.833 -41 -32.5c-5.33301 -9.33301 -10.5 -23.666 -15.5 -42.999s-8.5 -36.333 -10.5 -51l-4 -22l-30 -15
c-4.66699 40.667 -8.33398 82.334 -11.001 125.001l-4 90c30 0 52.667 7.66699 68 23c19.333 19.333 41.666 72.333 66.999 159l39 138c39.333 136.667 59 214.667 59 234c0 10.667 -3.83301 19 -11.5 25s-14.334 9.33301 -20.001 10s-14.834 1.66699 -27.501 3l1 32
c105.333 17.333 172.333 26 201 26c12 0 20.833 -0.5 26.5 -1.5s11.5 -4.83301 17.5 -11.5s10.667 -16.667 14 -30s13 -60.333 29 -141l42 -211c18 -86 30.667 -138.333 38 -157c16.667 -44 34.334 -71.333 53.001 -82c3.33301 -2 9 -3.83301 17 -5.5
s15.333 -2.83398 22 -3.50098h9zM449.001 51.001c-16.667 29.333 -35.666 95.665 -56.999 198.998l-54 269c-10 48.667 -19.333 80.334 -28 95.001h-5l-27 -101l-57 -216l-10.5 -40c-5 -18.667 -8.33301 -31.667 -10 -39s-4.33398 -18.166 -8.00098 -32.499
s-6 -25.333 -7 -33l-3.5 -26c-1.33301 -9.66699 -2 -18.5 -2 -26.5c0 -34.667 28.333 -52 85 -52c74.667 0 136 1 184 3z" />
    <glyph glyph-name="afii10022" unicode="&#x415;" horiz-adv-x="536" 
d="M478 186l33.001 -5.99902l-34 -178c-62 -8 -130.667 -12 -206 -12c-77.333 0 -128.5 2.16699 -153.5 6.5s-37.5 14.5 -37.5 30.5c0 3.33301 0.166992 7.83301 0.5 13.5s0.833008 13.5 1.5 23.5l2 29l4 72c0.666992 12 1.16699 26.667 1.5 44s0.833008 38.166 1.5 62.499
s1.33398 44.5 2.00098 60.5l2.5 89l2.5 89.5c0.666992 24.333 1 40.5 1 48.5c0 29.333 -3.83301 50.666 -11.5 63.999s-22.167 21.666 -43.5 24.999v34c148.667 3.33301 242 5 280 5c75.333 0 122.666 -2.16699 141.999 -6.5s29 -17.166 29 -38.499
c0 -14 -6.16699 -35.5 -18.5 -64.5s-26.5 -52.167 -42.5 -69.5l-38 -5c5.33301 39.333 8 65.333 8 78c0 21.333 -7.33301 35.833 -22 43.5s-38 11.5 -70 11.5c-16 0 -28.667 -0.666992 -38 -2s-18 -4.66602 -26 -9.99902s-12.667 -13.333 -14 -24
c-6.66699 -43.333 -10 -114.333 -10 -213v-9l181 5l-11 -70c-40 7.33301 -97 12 -171 14c0 -36 -0.333008 -73.5 -1 -112.5s-1 -68.167 -1 -87.5c0 -32 5.16699 -53.5 15.5 -64.5s36.166 -16.5 77.499 -16.5c25.333 0 48 4.5 68 13.5s36.333 22 49 39s22 31.333 28 43
s12.333 26.5 19 44.5z" />
    <glyph glyph-name="afii10024" unicode="&#x416;" horiz-adv-x="923" 
d="M906 51l0.000976562 -34c-50 -15.333 -89.333 -23 -118 -23c-5.33301 0 -10.5 0.5 -15.5 1.5s-9.16699 2 -12.5 3s-7 3 -11 6s-7 5.33301 -9 7s-4.83301 4.83398 -8.5 9.50098l-7.5 9.5c-1.33301 1.66699 -4 5.66699 -8 12s-6.66699 10.166 -8 11.499
c-18 26.667 -43 74 -75 142l-23 47c-4 8 -10.5 19.5 -19.5 34.5s-17 25.5 -24 31.5s-14.5 10 -22.5 12l-13 3v28c44 18.667 90.333 64.667 139 138c22.667 34.667 34 69.667 34 105c0 24 -12 39.333 -36 46v34c74.667 8 120 12 136 12c21.333 0 32 -6.66699 32 -20
c0 -22 -22.333 -64.667 -67 -128c-24 -34 -43.667 -60.333 -59 -79s-37.333 -41.667 -66 -69c13.333 -8 26.333 -21.167 39 -39.5s32.667 -51.833 60 -100.5c52.667 -93.333 83.334 -145.333 92.001 -156c11.333 -14 21.666 -23.833 30.999 -29.5s22.666 -10.5 39.999 -14.5
zM555.001 34l0.000976562 -33.999h-133c-14 0 -23.333 6 -28 18s-7 33.333 -7 64c0 20 0.5 55.5 1.5 106.5s1.5 84.833 1.5 101.5v113c0 75.333 -0.666992 127.666 -2 156.999c-1.33301 33.333 -5.5 55.666 -12.5 66.999s-21.167 18.666 -42.5 21.999v34
c56.667 3.33301 104 5 142 5c19.333 0 32.666 -6.16699 39.999 -18.5s11 -35.166 11 -68.499c0 -18 -0.666992 -53.667 -2 -107s-2 -89.666 -2 -108.999v-38c0 -48 -0.5 -92.5 -1.5 -133.5s-1.5 -66.833 -1.5 -77.5c0 -62 12 -96 36 -102zM380.002 352.001
l-0.00195312 -27.9971c-16.667 -16 -29.334 -30.333 -38.001 -43c-16.667 -24 -40.667 -62.667 -72 -116s-51 -86.333 -59 -99c-2 -2.66699 -5.16699 -7.33398 -9.5 -14.001l-8.5 -13c-1.33301 -2 -4 -5.5 -8 -10.5l-8 -10
c-1.33301 -1.66699 -3.66602 -4.33398 -6.99902 -8.00098s-6.16602 -5.83398 -8.49902 -6.50098s-5.33301 -2.16699 -9 -4.5s-7.16699 -3.66602 -10.5 -3.99902s-7.16602 -0.833008 -11.499 -1.5s-8.83301 -1 -13.5 -1c-8.66699 0 -21.834 1.16699 -39.501 3.5
s-33.5 4.83301 -47.5 7.5l-20 4v30c20.667 0 49 27 85 81c2 2 3.33301 3.66699 4 5c8.66699 12 24.834 37.333 48.501 76l50.5 81c8.66699 14 17.5 27 26.5 39s16 20.833 21 26.5l19 22c7.66699 9 12.5 14.5 14.5 16.5c-15.333 17.333 -40.333 50 -75 98
s-60.334 82 -77.001 102c-18.667 22.667 -34.5 37.334 -47.5 44.001s-29.5 10.667 -49.5 12v32c38 12 72 18 102 18c22 0 37.833 -3.83301 47.5 -11.5s21.834 -28.167 36.501 -61.5c36 -80.667 66.667 -141 92 -181c10 -16.667 23 -34.334 39 -53.001s27 -29.334 33 -32.001
z" />
    <glyph glyph-name="afii10025" unicode="&#x417;" horiz-adv-x="518" 
d="M481 210c0 -70 -26.002 -124.669 -78.002 -164.002s-114 -59 -186 -59c-46.667 0 -88.5 7.5 -125.5 22.5s-55.5 37.167 -55.5 66.5c0 37.333 20.333 76.333 61 117l23 -4c0 -51.333 8.83301 -89.166 26.5 -113.499s45.5 -36.5 83.5 -36.5c35.333 0 62.333 13.167 81 39.5
s28 61.5 28 105.5c0 42 -10 75.667 -30 101s-50.667 38 -92 38l-70 -3l8 50l43 3c38 2 68.5 17.667 91.5 47s34.5 66.333 34.5 111c0 69.333 -24.333 104 -73 104c-36.667 0 -65.667 -10.667 -87 -32s-41.666 -59.666 -60.999 -114.999l-34 -4c0 83.333 4 141 12 173l12 10
c58.667 13.333 115.334 20 170.001 20c130.667 0 196 -44 196 -132c0 -44 -13.833 -81.5 -41.5 -112.5s-65.5 -53.5 -113.5 -67.5v-9c118 -16.667 177 -68.667 177 -156z" />
    <glyph glyph-name="afii10026" unicode="&#x418;" horiz-adv-x="676" 
d="M631 34v-34h-143c-13.333 0 -22.5 6.16699 -27.5 18.5s-7.16699 33.5 -6.5 63.5c0 64.667 1.66699 157 5 277l5 171h-6c-43.333 -90.667 -81.333 -174.667 -114 -252c-62.667 -147.333 -106.667 -232.666 -132 -255.999c-11.333 -10 -29.666 -18.5 -54.999 -25.5
s-48 -10.5 -68 -10.5l-7 10c1.33301 25.333 5 137.333 11 336c4 120 6 196 6 228c0 29.333 -3.83301 50.666 -11.5 63.999s-22.167 21.666 -43.5 24.999v34c56.667 3.33301 104 5 142 5c18.667 0 31 -6 37 -18s9 -35 9 -69c0 -21.333 -0.5 -45 -1.5 -71
s-2.16699 -52.833 -3.5 -80.5s-2.33301 -47.5 -3 -59.5c-1.33301 -33.333 -2.66602 -70.333 -3.99902 -111s-2.5 -73.5 -3.5 -98.5s-1.83301 -44.167 -2.5 -57.5c18.667 33.333 57.334 115.666 116.001 246.999l44 103c22 52 40.167 92.5 54.5 121.5
s26.833 49.833 37.5 62.5c7.33301 8.66699 16.166 15.334 26.499 20.001s19.333 7.66699 27 9s19 2.33301 34 3s25.833 1.33398 32.5 2.00098l8 -5c-2.66699 -49.333 -4 -99.333 -4 -150c-2.66699 -252.667 -3.66699 -389 -3 -409c1.33301 -22.667 2.66602 -39 3.99902 -49
s5.16602 -19.333 11.499 -28s15.833 -14 28.5 -16z" />
    <glyph glyph-name="afii10027" unicode="&#x419;" horiz-adv-x="676" 
d="M631 34v-34h-143c-13.333 0 -22.5 6.16699 -27.5 18.5s-7.16699 33.5 -6.5 63.5c0 64.667 1.66699 157 5 277l5 171h-6c-43.333 -90.667 -81.333 -174.667 -114 -252c-62.667 -147.333 -106.667 -232.666 -132 -255.999c-11.333 -10 -29.666 -18.5 -54.999 -25.5
s-48 -10.5 -68 -10.5l-7 10c1.33301 25.333 5 137.333 11 336c4 120 6 196 6 228c0 29.333 -3.83301 50.666 -11.5 63.999s-22.167 21.666 -43.5 24.999v34c56.667 3.33301 104 5 142 5c18.667 0 31 -6 37 -18s9 -35 9 -69c0 -21.333 -0.5 -45 -1.5 -71
s-2.16699 -52.833 -3.5 -80.5s-2.33301 -47.5 -3 -59.5c-1.33301 -33.333 -2.66602 -70.333 -3.99902 -111s-2.5 -73.5 -3.5 -98.5s-1.83301 -44.167 -2.5 -57.5c18.667 33.333 57.334 115.666 116.001 246.999l44 103c22 52 40.167 92.5 54.5 121.5
s26.833 49.833 37.5 62.5c7.33301 8.66699 16.166 15.334 26.499 20.001s19.333 7.66699 27 9s19 2.33301 34 3s25.833 1.33398 32.5 2.00098l8 -5c-2.66699 -49.333 -4 -99.333 -4 -150c-2.66699 -252.667 -3.66699 -389 -3 -409c1.33301 -22.667 2.66602 -39 3.99902 -49
s5.16602 -19.333 11.499 -28s15.833 -14 28.5 -16zM525 852l33.0029 -11.001c-22 -45.333 -52.333 -79.166 -91 -101.499s-82.334 -33.5 -131.001 -33.5c-71.333 0 -107 19.333 -107 58c0 16 6 31.333 18 46s24 25.334 36 32.001l18 9
c11.333 -28.667 25.166 -48.834 41.499 -60.501s38.833 -17.5 67.5 -17.5c45.333 0 83.666 26.333 114.999 79z" />
    <glyph glyph-name="afii10028" unicode="&#x41a;" horiz-adv-x="615" 
d="M608 38l-0.000976562 -34.001c-46 -6.66699 -83.333 -10 -112 -10c-20.667 0 -37 4.5 -49 13.5s-23.333 22.833 -34 41.5c-6 10 -18.333 36.833 -37 80.5s-29 67.167 -31 70.5c-20.667 42 -38.167 71.667 -52.5 89s-29.833 28 -46.5 32l-13 3l2 33
c27.333 11.333 54 30.333 80 57s47 52 63 76c22.667 34.667 34 69.667 34 105c0 24 -12 39.333 -36 46v34c74.667 8 120 12 136 12c21.333 0 32 -6.66699 32 -20c0 -22 -22.333 -64.667 -67 -128c-24 -34 -43.667 -60.333 -59 -79s-37.333 -41.667 -66 -69
c12 -7.33301 21.333 -13.833 28 -19.5s16.334 -17.167 29.001 -34.5s27 -40.666 43 -69.999l25.5 -50.5l37 -72.5c11.667 -22.667 21.167 -39 28.5 -49l8 -12c4 -6 6.5 -9.66699 7.5 -11l6.5 -8.5c3.33301 -4.33301 6 -7.16602 8 -8.49902l9 -6
c4 -2.66699 8 -4.83398 12 -6.50098s8.66699 -3.16699 14 -4.5zM264.999 33.999v-33.998h-147c-14 0 -23.333 6 -28 18s-7 33.333 -7 64c0 27.333 1.5 69.333 4.5 126s4.83301 98 5.5 124c4 120 6 196 6 228c0 29.333 -3.83301 50.666 -11.5 63.999
s-22.167 21.666 -43.5 24.999v34c56.667 3.33301 104 5 142 5c18.667 0 31 -6 37 -18s9 -35 9 -69c0 -18.667 -1.16699 -52 -3.5 -100s-3.83301 -85 -4.5 -111l-5 -254c-1.33301 -62 14 -96 46 -102z" />
    <glyph glyph-name="afii10029" unicode="&#x41b;" horiz-adv-x="580" 
d="M573 38l-0.00195312 -39.001c-56 -4 -92.667 -6 -110 -6c-24 0 -41.667 4.83301 -53 14.5s-21.666 28.834 -30.999 57.501c-8 24 -23.333 87 -46 189l-56 257c-12 53.333 -22.667 87.666 -32 102.999h-5l-32 -117c-61.333 -229.333 -92 -362.666 -92 -399.999
c0 -32.667 11.333 -57 34 -73v-28c-45.333 -2 -77.333 -3 -96 -3c-15.333 0 -25.333 3.5 -30 10.5s-7 17.833 -7 32.5c0 35.333 15.667 97.333 47 186l43 123c48.667 138 73 220 73 246c0 11.333 -3.83301 20 -11.5 26s-14.167 9.33301 -19.5 10s-14.333 1.66699 -27 3l1 31
c102.667 17.333 168 26 196 26c22.667 0 37 -5.5 43 -16.5s16.333 -45.833 31 -104.5l70 -288c20 -82.667 34 -134 42 -154c8.66699 -21.333 15.334 -36.833 20.001 -46.5s11.167 -18.5 19.5 -26.5s17.833 -12.333 28.5 -13z" />
    <glyph glyph-name="afii10030" unicode="&#x41c;" horiz-adv-x="785" 
d="M772 35l-0.00976562 -35.9971c-40 -4 -71 -6 -93 -6c-25.333 0 -44.166 4.33301 -56.499 13s-21.166 26.334 -26.499 53.001c-3.33301 16 -12.666 142.333 -27.999 379l-9 138l-10 -32l-27.5 -85c-11.667 -36 -22.5 -67.667 -32.5 -95l-14 -38.5l-15 -41.5l-14.5 -39.5
c-6.33301 -17 -11.666 -30.167 -15.999 -39.5l-15.5 -34c-6 -13.333 -11.5 -23.666 -16.5 -30.999l-16 -22.5c-5.66699 -7.66699 -11.167 -13.167 -16.5 -16.5s-10.666 -5 -15.999 -5c-26 0 -53.667 54 -83 162l-88 324l-17 -79c-31.333 -144.667 -47 -259.334 -47 -344.001
c0 -70 16.667 -110 50 -120v-33c-48.667 -8.66699 -81 -13 -97 -13c-16.667 0 -28.334 3.66699 -35.001 11s-10 20 -10 38c0 56 12.667 141.333 38 256l34 157c15.333 70.667 23 115.334 23 134.001c0 4 -0.333008 7.66699 -1 11s-1.83398 6.16602 -3.50098 8.49902
l-4.5 6.5c-1.33301 2 -3.5 3.5 -6.5 4.5s-5.16699 2 -6.5 3s-4 1.66699 -8 2s-6.66699 0.666016 -8 0.999023s-4.33301 0.666016 -9 0.999023s-7.33398 0.5 -8.00098 0.5v41c106.667 14 168.334 21 185.001 21c6 0 11.5 -0.666992 16.5 -2s9.16699 -2.83301 12.5 -4.5
s6.33301 -4.83398 9 -9.50098s4.83398 -8.33398 6.50098 -11.001s3.5 -7.5 5.5 -14.5s3.33301 -12.333 4 -16l3.5 -19.5l3.5 -20c14.667 -73.333 27.334 -131.333 38.001 -174c12.667 -48.667 22.167 -80.334 28.5 -95.001s13.833 -22 22.5 -22c18 0 41.333 45.667 70 137
c11.333 36 31 106 59 210c12.667 12 33.334 21.667 62.001 29s49.667 11 63 11c12 0 20.333 -5.16699 25 -15.5s8.33398 -34.833 11.001 -73.5l18 -242c10 -127.333 18.333 -212.666 25 -255.999c2.66699 -16.667 4.83398 -28.167 6.50098 -34.5s5.33398 -13 11.001 -20
s13.834 -10.833 24.501 -11.5z" />
    <glyph glyph-name="afii10031" unicode="&#x41d;" horiz-adv-x="659" 
d="M620 34v-33.9971h-149c-13.333 0 -22.5 6.66699 -27.5 20s-7.5 34 -7.5 62c0 24 0.833008 64.167 2.5 120.5s2.83398 101.833 3.50098 136.5l-218 3l-5 -206c-0.666992 -32.667 1.66602 -57 6.99902 -73s17 -25.667 35 -29v-34h-143c-14 0 -23.333 6 -28 18
s-7 33.333 -7 64c0 26.667 1.5 68.334 4.5 125.001s4.83301 98.334 5.5 125.001c4 120 6 196 6 228c0 29.333 -3.83301 50.666 -11.5 63.999s-22.167 21.666 -43.5 24.999v34c56.667 3.33301 104 5 142 5c18.667 0 31 -6 37 -18s9 -35 9 -69c0 -21.333 -0.5 -45 -1.5 -71
s-2.16699 -52.833 -3.5 -80.5s-2.33301 -47.5 -3 -59.5l218 10c1.33301 85.333 2 138.666 2 159.999c0 29.333 -3.83301 50.666 -11.5 63.999s-22.167 21.666 -43.5 24.999v34c56.667 3.33301 104 5 142 5c18.667 0 31 -6 37 -18s9 -35 9 -69c0 -2.66699 -2 -81 -6 -235
c-1.33301 -68 -2 -144.667 -2 -230c0 -32.667 3.5 -57 10.5 -73s20.5 -25.667 40.5 -29z" />
    <glyph glyph-name="afii10032" unicode="&#x41e;" horiz-adv-x="657" 
d="M618 358c0 -64 -9.66797 -121.167 -29.001 -171.5s-44 -89.166 -74 -116.499s-61.167 -48 -93.5 -62s-63.833 -21 -94.5 -21c-86.667 0 -155.5 28.167 -206.5 84.5s-76.5 141.166 -76.5 254.499c0 58 7.33301 109.5 22 154.5s32.834 80.333 54.501 106
s46.5 46.834 74.5 63.501s53.833 27.667 77.5 33s46.5 8 68.5 8c86 0 153.667 -26.833 203 -80.5s74 -137.834 74 -252.501zM478.999 354c0 99.333 -10.5 171.667 -31.5 217s-56.5 68 -106.5 68c-105.333 0 -158 -103 -158 -309c0 -194 47.667 -291 143 -291
c102 0 153 105 153 315z" />
    <glyph glyph-name="afii10033" unicode="&#x41f;" horiz-adv-x="645" 
d="M602 34l0.00292969 -34h-143c-14 0 -23.333 6 -28 18s-7 33.333 -7 64c0 3.33301 3.33301 86.666 10 249.999c3.33301 81.333 5 153.666 5 216.999c0 32 -8.83301 54.5 -26.5 67.5s-49.834 19.5 -96.501 19.5c-24 0 -56 -2.66699 -96 -8c5.33301 -15.333 8 -47.333 8 -96
c0 -74.667 -1.33301 -138 -4 -190l-5 -206c-0.666992 -32.667 1.66602 -57 6.99902 -73s17 -25.667 35 -29v-34h-143c-14 0 -23.333 6 -28 18s-7 33.333 -7 64c0 26.667 1.5 68.334 4.5 125.001s4.83301 98.334 5.5 125.001c4 120 6 196 6 228c0 28 -4 49 -12 63
s-22.333 22.667 -43 26v34c102.667 2.66699 188.667 4 258 4c129.333 0 204 -4.33301 224 -13s32.667 -20.667 38 -36s8 -45 8 -89c0 -47.333 -2.33301 -116.333 -7 -207l-5 -206c-0.666992 -32.667 1.66602 -57 6.99902 -73s17 -25.667 35 -29z" />
    <glyph glyph-name="afii10034" unicode="&#x420;" horiz-adv-x="575" 
d="M541 524c0 -39.333 -7.5 -73.668 -22.5 -103.001s-34.667 -51.666 -59 -66.999s-47.333 -26.833 -69 -34.5s-43.834 -13.167 -66.501 -16.5c-16 -2 -42.667 -3 -80 -3v46c12 -0.666992 31.667 1 59 5c29.333 4.66699 54.833 20 76.5 46s32.5 63.667 32.5 113
c0 83.333 -31 125 -93 125c-24.667 0 -42.5 -1.16699 -53.5 -3.5s-19.167 -8.16602 -24.5 -17.499c-8 -14 -13.667 -88.667 -17 -224l-5 -254c-1.33301 -62 14 -96 46 -102v-34h-147c-14 0 -23.333 6 -28 18s-7 33.333 -7 64c0 27.333 1.5 69.333 4.5 126
s4.83301 98 5.5 124c4 120 6 197 6 231c0 15.333 -2 28 -6 38s-10.167 16.833 -18.5 20.5s-15.166 6 -20.499 7s-12.666 1.83301 -21.999 2.5v42c132.667 9.33301 232 14 298 14c19.333 0 36.166 -0.5 50.499 -1.5s32.333 -4.5 54 -10.5s39.5 -14.333 53.5 -25
s26.333 -26.834 37 -48.501s16 -47.5 16 -77.5z" />
    <glyph glyph-name="afii10035" unicode="&#x421;" horiz-adv-x="554" 
d="M526 613c0 -36.667 -27.334 -71.9971 -82.001 -105.997l-20 16c1.33301 24.667 -0.166992 45.167 -4.5 61.5s-11.166 28.166 -20.499 35.499s-18.5 12.333 -27.5 15s-19.167 4 -30.5 4c-45.333 0 -83.333 -25.333 -114 -76s-46 -128.334 -46 -233.001
c0 -180 50.667 -270 152 -270c64.667 0 123.667 26 177 78l14 -41l-8.5 -11.5c-3.66699 -5 -12.167 -13.833 -25.5 -26.5s-27.666 -23.834 -42.999 -33.501s-35.833 -18.5 -61.5 -26.5s-52.167 -12 -79.5 -12c-76 0 -138.833 26 -188.5 78s-74.5 132.333 -74.5 241
c0 112.667 32.333 206.667 97 282c28.667 34 62.834 59.667 102.501 77s77.167 26 112.5 26c33.333 0 62.166 -2.66699 86.499 -8s42.166 -12.333 53.499 -21s19.333 -17 24 -25s7 -16 7 -24z" />
    <glyph glyph-name="afii10036" unicode="&#x422;" horiz-adv-x="600" 
d="M586 646c0 -14 -6.16797 -35.502 -18.501 -64.502s-26.5 -52.167 -42.5 -69.5l-38 -5c5.33301 39.333 8 65.333 8 78c0 21.333 -6.5 35.833 -19.5 43.5s-33.167 11.5 -60.5 11.5l-59 -5c2.66699 -16 4 -50.333 4 -103c0 -11.333 -0.166992 -25 -0.5 -41
s-0.833008 -34.167 -1.5 -54.5s-1 -35.833 -1 -46.5l-5 -254c-1.33301 -62 14 -96 46 -102v-34h-145c-14 0 -23.333 6 -28 18s-7 33.333 -7 64c0 16 2.66699 86.333 8 211l5 104c2 42 3 82.333 3 121c0 52.667 -3.33301 85.5 -10 98.5s-23 19.5 -49 19.5
c-28 0 -50 -9 -66 -27c-15.333 -18 -31 -55 -47 -111l-36 -12c-7.33301 30.667 -11 65.667 -11 105c0 32.667 3.33301 61.334 10 86.001l14 11c54.667 -3.33301 139.334 -5 254.001 -5c22 0 56.5 1.33301 103.5 4s77.833 4 92.5 4c42.667 0 69.5 -2.16699 80.5 -6.5
s16.5 -17.166 16.5 -38.499z" />
    <glyph glyph-name="afii10037" unicode="&#x423;" horiz-adv-x="548" 
d="M535 651c1.33301 -24 -15.9941 -85.666 -51.9941 -184.999l-48 -131c-24.667 -66 -50.667 -130.333 -78 -193c-45.333 -104.667 -96 -157 -152 -157c-35.333 0 -53.333 16.667 -54 50c-0.666992 26 4.33301 53.667 15 83l17 4c17.333 -24 39.666 -36 66.999 -36
c24.667 0 37 15.667 37 47c0 22 -27 91 -81 207l-46 100c-22 46.667 -45 91 -69 133c-24 40 -51.667 60.667 -83 62l-1 33c56 12.667 104.667 19 146 19c15.333 0 30.666 -11.833 45.999 -35.5s35.333 -64.834 60 -123.501l99 -237h5l23 59
c12 30.667 23.167 70.667 33.5 120s15.166 87.333 14.499 114c-0.666992 21.333 -4.33398 35.833 -11.001 43.5s-17.334 13.834 -32.001 18.501l1 26c51.333 10 86.666 15 105.999 15c14 0 23.5 -2.33301 28.5 -7s7.83301 -14.334 8.5 -29.001z" />
    <glyph glyph-name="afii10038" unicode="&#x424;" horiz-adv-x="777" 
d="M745 381c0 -46.667 -8.99707 -89.168 -26.9971 -127.501s-41.333 -69.166 -70 -92.499s-59.334 -41.666 -92.001 -54.999s-65.334 -21.333 -98.001 -24l-1 -67c0 -19.333 -11.167 -34.833 -33.5 -46.5s-44.5 -18.5 -66.5 -20.5l-33 -4c4.66699 35.333 7 80.666 7 135.999
c-24 0 -47.167 1.5 -69.5 4.5s-47.5 9.66699 -75.5 20s-52 23.833 -72 40.5s-37 40.5 -51 71.5s-21 66.833 -21 107.5c0 46 8.66699 87.167 26 123.5s40.166 65.333 68.499 87s59 38.334 92 50.001s66.833 18.167 101.5 19.5c0 36 -3.5 59.5 -10.5 70.5
s-21.5 18.167 -43.5 21.5v34c52.667 3.33301 98 5 136 5c30.667 0 46 -21 46 -63c0 -18.667 -0.666992 -41.334 -2 -68.001c192.667 0 289 -74.333 289 -223zM614.003 366.999c0 65.333 -15.001 113.332 -45.001 143.999s-67.333 46.334 -112 47.001v-432
c18 2 35.333 7.33301 52 16s33.334 21.5 50.001 38.5s30 41.5 40 73.5s15 69.667 15 113zM330.002 125.998v433c-104.667 -12 -157 -87.667 -157 -227c0 -68.667 16.167 -120 48.5 -154s68.5 -51.333 108.5 -52z" />
    <glyph glyph-name="afii10039" unicode="&#x425;" horiz-adv-x="564" 
d="M548 48l-0.995117 -37c-52.667 -12 -93 -18 -121 -18c-22 0 -39.333 6 -52 18s-24.667 29.667 -36 53c-12 26 -29.167 66.333 -51.5 121l-38.5 94c-62 -92 -93 -161 -93 -207c0 -3.33301 0.166992 -6.16602 0.5 -8.49902s0.666016 -4.5 0.999023 -6.5
s1.16602 -4 2.49902 -6l3 -4.5c0.666992 -1 2.33398 -2.5 5.00098 -4.5s4.5 -3.33301 5.5 -4l7 -4.5c3.66699 -2.33301 6.16699 -4.16602 7.5 -5.49902l-2 -30c-48.667 -3.33301 -87.334 -5 -116.001 -5c-24 0 -36 9.33301 -36 28c0 20 20 61.167 60 123.5
s84 124.5 132 186.5c-62 136 -104.333 222 -127 258c-8.66699 14.667 -18.334 25.167 -29.001 31.5s-20.167 9.16602 -28.5 8.49902s-16.833 -1 -25.5 -1v41c52 12.667 97.667 19 137 19c22 0 40.167 -7 54.5 -21s31.166 -43.667 50.499 -89
c8.66699 -20 29.334 -71.333 62.001 -154l12.5 20.5c6.33301 10.333 10.666 17.666 12.999 21.999l11.5 20.5c5.33301 9.33301 9.16602 16.333 11.499 21l9.5 19c4 8 7 14.5 9 19.5s4 10.667 6 17s3.5 12.166 4.5 17.499s1.5 10.333 1.5 15c0 22.667 -11 38.334 -33 47.001
l2 30c52.667 9.33301 88.667 14 108 14c14 0 23.833 -1.83301 29.5 -5.5s8.5 -10.5 8.5 -20.5c0 -8.66699 -4.16699 -22 -12.5 -40s-21.833 -42.167 -40.5 -72.5l-51.5 -81l-65.5 -98.5c47.333 -109.333 85.333 -189 114 -239c30 -52.667 60.333 -80 91 -82z" />
    <glyph glyph-name="afii10040" unicode="&#x426;" horiz-adv-x="659" 
d="M655 29c-3.33301 -32 -12.001 -70.3311 -26.001 -114.998s-27 -78.334 -39 -101.001l-31 -4c3.33301 26.667 5 61.334 5 104.001c0 35.333 -6.66699 58.5 -20 69.5s-33 16.5 -59 16.5c-23.333 0 -61 -1 -113 -3s-93 -3 -123 -3c-24.667 0 -43.5 0.166992 -56.5 0.5
s-26.833 1 -41.5 2s-25.5 2.66699 -32.5 5s-13.667 5.5 -20 9.5s-10.5 9.16699 -12.5 15.5s-3 13.833 -3 22.5c0 28 1.5 77.167 4.5 147.5s4.83301 115.833 5.5 136.5c4 120 6 196 6 228c0 29.333 -3.83301 50.666 -11.5 63.999s-22.167 21.666 -43.5 24.999v34
c56.667 3.33301 104 5 142 5c18.667 0 31 -6 37 -18s9 -35 9 -69c0 -28.667 -2 -93.834 -6 -195.501s-6 -167.167 -6 -196.5c0 -52 1.33301 -88.333 4 -109c2.66699 -20 10.334 -34 23.001 -42s33.334 -12 62.001 -12c48 0 90 2.66699 126 8
c-5.33301 26 -6.66602 86 -3.99902 180c4 176 6 284.667 6 326c0 29.333 -3.83301 50.666 -11.5 63.999s-22.167 21.666 -43.5 24.999v34c56.667 3.33301 104 5 142 5c18.667 0 31 -6 37 -18s9 -35 9 -69c0 -9.33301 -2 -56.666 -6 -141.999s-6 -154.666 -6 -207.999
c0 -38 0.166992 -66.333 0.5 -85s1.66602 -38 3.99902 -58s5.16602 -33.833 8.49902 -41.5s9 -15.167 17 -22.5s17 -11.666 27 -12.999s23.333 -2 40 -2z" />
    <glyph glyph-name="afii10041" unicode="&#x427;" horiz-adv-x="618" 
d="M577 34l0.00195312 -33.9971h-143c-14 0 -23.5 6.16699 -28.5 18.5s-6.83301 33.5 -5.5 63.5l8 263c-18.667 -20 -46.5 -37.833 -83.5 -53.5s-72.5 -23.5 -106.5 -23.5c-24 0 -44.333 3 -61 9s-29.334 13.167 -38.001 21.5s-15.5 20.5 -20.5 36.5s-8 30.333 -9 43
s-1.5 30 -1.5 52c-0.666992 16.667 -0.5 40.834 0.5 72.501s1.5 50.834 1.5 57.501c0 29.333 -3.83301 50.666 -11.5 63.999s-22.167 21.666 -43.5 24.999v34c56.667 3.33301 104 5 142 5c18.667 0 31 -6 37 -18s9 -35 9 -69c0 -16.667 -1 -44.834 -3 -84.501
s-3 -66.5 -3 -80.5s0.5 -24.5 1.5 -31.5s3.5 -15.833 7.5 -26.5s11.667 -18.5 23 -23.5s26 -7.5 44 -7.5c30.667 0 57.667 8.5 81 25.5s35 33.833 35 50.5v137c0 17.333 -0.833008 31.166 -2.5 41.499s-6.83398 20.5 -15.501 30.5s-21 15.667 -37 17v34
c56 3.33301 103 5 141 5c18.667 0 31 -6 37 -18s9 -35 9 -69c0 -38 -1.33301 -108 -4 -210l-2.5 -151c-1 -60.667 -1.5 -98.334 -1.5 -113.001c0 -30.667 2.83301 -53 8.5 -67s17.5 -22.667 35.5 -26z" />
    <glyph glyph-name="afii10042" unicode="&#x428;" horiz-adv-x="955" 
d="M914 34l-0.000976562 -31.998c-22.667 -2 -41.334 -3 -56.001 -3c-160 -2.66699 -258 -4 -294 -4c-172 -1.33301 -277 -2 -315 -2c-71.333 0 -116.333 3.5 -135 10.5s-28 24.167 -28 51.5c0 32.667 1 81.834 3 147.501s3 100.167 3 103.5l1 150
c0.666992 78.667 -0.666016 125.667 -3.99902 141c-6 28 -22.333 45 -49 51c-1.33301 0.666992 -3 1 -5 1v34c56.667 3.33301 104 5 142 5c18.667 0 31.5 -6.5 38.5 -19.5s10.5 -36.167 10.5 -69.5c0 -48 -1.33301 -135.333 -4 -262c-0.666992 -29.333 -1 -74.333 -1 -135
c0 -52.667 1 -86.667 3 -102c2.66699 -20 10.334 -34 23.001 -42s33.334 -12 62.001 -12c40 0 78.667 1.33301 116 4c-4 56 -6 107.667 -6 155l1 251c0.666992 78.667 -0.666016 125.667 -3.99902 141c-6 28 -22.333 45 -49 51c-1.33301 0.666992 -3 1 -5 1v34
c56.667 3.33301 104 5 142 5c18.667 0 31.5 -6.5 38.5 -19.5s10.5 -36.167 10.5 -69.5c0 -48 -1.33301 -135.333 -4 -262c-0.666992 -29.333 -1 -74.333 -1 -135c0 -48 1.33301 -81.667 4 -101c3.33301 -20 10.166 -34 20.499 -42s27.833 -12 52.5 -12
c37.333 0 79.333 2.66699 126 8c-4 18.667 -6 47 -6 85c0 55.333 0.333008 94.666 1 117.999l3 198c1.33301 78.667 0 126.667 -4 144c-8 27.333 -26 43.666 -54 48.999v34c56.667 3.33301 104 5 142 5c18.667 0 31.5 -6.5 38.5 -19.5s10.5 -36.167 10.5 -69.5
c0 -90 -1.33301 -177.333 -4 -262c-4 -136.667 -4.66699 -215.334 -2 -236.001c1.33301 -12 3 -21.333 5 -28s5.66699 -13.667 11 -21s12.666 -13.333 21.999 -18z" />
    <glyph glyph-name="afii10043" unicode="&#x429;" horiz-adv-x="977" 
d="M972 29c-3.33301 -32 -12.0029 -70.3311 -26.0029 -114.998s-27 -78.334 -39 -101.001l-31 -4c3.33301 26.667 5 61.334 5 104.001c0 35.333 -6.66699 58.5 -20 69.5s-33 16.5 -59 16.5c-12.667 0 -44.5 -0.666992 -95.5 -2s-98.5 -2 -142.5 -2
c-172 -1.33301 -277 -2 -315 -2c-71.333 0 -116.333 3.5 -135 10.5s-28 24.167 -28 51.5c0 32.667 1 81.834 3 147.501s3 100.167 3 103.5l1 150c0.666992 78.667 -0.666016 125.667 -3.99902 141c-6 28 -22.333 45 -49 51c-1.33301 0.666992 -3 1 -5 1v34
c56.667 3.33301 104 5 142 5c18.667 0 31.5 -6.5 38.5 -19.5s10.5 -36.167 10.5 -69.5c0 -48 -1.33301 -135.333 -4 -262c-0.666992 -29.333 -1 -74.333 -1 -135c0 -52.667 1 -86.667 3 -102c2.66699 -20 10.334 -34 23.001 -42s33.334 -12 62.001 -12
c40 0 78.667 1.33301 116 4c-4 56 -6 107.667 -6 155l1 251c0.666992 78.667 -0.666016 125.667 -3.99902 141c-6 28 -22.333 45 -49 51c-1.33301 0.666992 -3 1 -5 1v34c56.667 3.33301 104 5 142 5c18.667 0 31.5 -6.5 38.5 -19.5s10.5 -36.167 10.5 -69.5
c0 -48 -1.33301 -135.333 -4 -262c-0.666992 -29.333 -1 -74.333 -1 -135c0 -48 1.33301 -81.667 4 -101c3.33301 -20 10.166 -34 20.499 -42s27.833 -12 52.5 -12c37.333 0 79.333 2.66699 126 8c-4 18.667 -6 47 -6 85c0 55.333 0.333008 94.666 1 117.999l3 198
c1.33301 78.667 0 126.667 -4 144c-8 27.333 -26 43.666 -54 48.999v34c56.667 3.33301 104 5 142 5c18.667 0 31.5 -6.5 38.5 -19.5s10.5 -36.167 10.5 -69.5c0 -26.667 -0.666992 -68.834 -2 -126.501s-2 -102.834 -2 -135.501c0 -10.667 -0.5 -31.667 -1.5 -63
s-1.5 -57.666 -1.5 -78.999c0 -27.333 0.333008 -47.833 1 -61.5s2.66699 -28.5 6 -44.5s8.5 -27.667 15.5 -35s16.5 -13.333 28.5 -18s27.333 -7 46 -7z" />
    <glyph glyph-name="afii10044" unicode="&#x42a;" horiz-adv-x="713" 
d="M677 236c0 -46 -8.83008 -86.1709 -26.4971 -120.504s-40.834 -60.5 -69.501 -78.5s-57.667 -31.167 -87 -39.5s-59 -12.5 -89 -12.5c-72.667 0 -123.834 3.33301 -153.501 10s-44.5 17.334 -44.5 32.001c0 6 0.333008 13.167 1 21.5s1.66699 20 3 35l4 45.5
c5.33301 72.667 8 156.334 8 251.001c0 127.333 -2.33301 203.333 -7 228c-4 18.667 -18.667 28 -44 28c-26 0 -47 -9 -63 -27c-18.667 -21.333 -35.334 -58.333 -50.001 -111l-36 -12c-7.33301 30.667 -11 65.667 -11 105c0 28 3.33301 54.333 10 79l14 11l310 10l12 -6
c-1.33301 -23.333 -2 -80.5 -2 -171.5s-0.333008 -154.5 -1 -190.5c0 -7.33301 -1 -45.666 -3 -114.999s-3 -110.666 -3 -123.999c-0.666992 -14 5.5 -24.667 18.5 -32s31.833 -11 56.5 -11c36.667 0 65.667 13.667 87 41s32 66.666 32 117.999
c0 50.667 -7 88.834 -21 114.501s-42 38.5 -84 38.5c-21.333 0 -43 -4.33301 -65 -13v41c37.333 16.667 73 25 107 25c131.333 0 197 -56.667 197 -170z" />
    <glyph glyph-name="afii10045" unicode="&#x42b;" horiz-adv-x="850" 
d="M549 236c0 -46 -8.83398 -86.168 -26.501 -120.501s-40.834 -60.5 -69.501 -78.5s-57.667 -31.167 -87 -39.5s-59 -12.5 -89 -12.5c-72.667 0 -123.834 3.33301 -153.501 10s-44.5 17.334 -44.5 32.001c0 6 0.333008 13.167 1 21.5s1.66699 20 3 35l4 45.5
c2.66699 40 5.33398 107.667 8.00098 203l2.5 88.5l2.5 89c0.666992 24.333 1 41.166 1 50.499c0 29.333 -3.83301 50.666 -11.5 63.999s-22.167 21.666 -43.5 24.999v34c56.667 3.33301 104 5 142 5c18.667 0 31.334 -6.16699 38.001 -18.5s10 -35.166 10 -68.499
c0 -1.33301 -3 -94 -9 -278c0 -7.33301 -1 -45.666 -3 -114.999s-3 -110.666 -3 -123.999c-0.666992 -14 5.5 -24.667 18.5 -32s31.833 -11 56.5 -11c36.667 0 65.667 13.667 87 41s32 66.666 32 117.999c0 50.667 -7 88.834 -21 114.501s-42 38.5 -84 38.5
c-21.333 0 -43 -4.33301 -65 -13v41c40.667 16.667 76.334 25 107.001 25c131.333 0 197 -56.667 197 -170zM804.999 33.999v-33.999h-147c-14 0 -23.333 6 -28 18s-7 33.333 -7 64c0 27.333 1.5 69.333 4.5 126s4.83301 98 5.5 124c4 120 6 196 6 228
c0 29.333 -3.83301 50.666 -11.5 63.999s-22.167 21.666 -43.5 24.999v34c56.667 3.33301 104 5 142 5c18.667 0 31 -6 37 -18s9 -35 9 -69c0 -26.667 -1.16699 -62.667 -3.5 -108s-3.83301 -79.666 -4.5 -102.999l-5 -254c-1.33301 -62 14 -96 46 -102z" />
    <glyph glyph-name="afii10046" unicode="&#x42c;" horiz-adv-x="584" 
d="M549 236c0 -46 -8.83398 -86.168 -26.501 -120.501s-40.834 -60.5 -69.501 -78.5s-57.667 -31.167 -87 -39.5s-59 -12.5 -89 -12.5c-72.667 0 -123.834 3.33301 -153.501 10s-44.5 17.334 -44.5 32.001c0 6 0.333008 13.167 1 21.5s1.66699 20 3 35l4 45.5
c2.66699 40 5.33398 107.667 8.00098 203l2.5 88.5l2.5 89c0.666992 24.333 1 41.166 1 50.499c0 29.333 -3.83301 50.666 -11.5 63.999s-22.167 21.666 -43.5 24.999v34c56.667 3.33301 104 5 142 5c18.667 0 31.334 -6.16699 38.001 -18.5s10 -35.166 10 -68.499
c0 -1.33301 -3 -94 -9 -278c0 -7.33301 -1 -45.666 -3 -114.999s-3 -110.666 -3 -123.999c-0.666992 -14 5.5 -24.667 18.5 -32s31.833 -11 56.5 -11c36.667 0 65.667 13.667 87 41s32 66.666 32 117.999c0 50.667 -7 88.834 -21 114.501s-42 38.5 -84 38.5
c-21.333 0 -43 -4.33301 -65 -13v41c40.667 16.667 76.334 25 107.001 25c131.333 0 197 -56.667 197 -170z" />
    <glyph glyph-name="afii10047" unicode="&#x42d;" horiz-adv-x="555" 
d="M516 367c0 -58.667 -6.83496 -110.833 -20.502 -156.5s-31 -82.167 -52 -109.5s-45.833 -49.833 -74.5 -67.5s-56.667 -29.834 -84 -36.501s-55.333 -10 -84 -10c-46 0 -86.333 7.5 -121 22.5s-52 37.167 -52 66.5s16.333 60.333 49 93l23 -4
c0 -41.333 11 -72.666 33 -93.999s49 -32 81 -32c100.667 0 155.334 93 164.001 279c-77.333 -4 -150.333 -12.333 -219 -25l11 82l209 -8c-0.666992 94 -12 162.167 -34 204.5s-55 63.5 -99 63.5c-71.333 0 -126.333 -45.667 -165 -137l-34 -4c0 76.667 4 131 12 163l12 10
c52.667 13.333 119.334 20 200.001 20c74.667 0 134.167 -25.5 178.5 -76.5s66.5 -132.167 66.5 -243.5z" />
    <glyph glyph-name="afii10048" unicode="&#x42e;" horiz-adv-x="942" 
d="M906 358c0 -66 -9.67188 -124.001 -29.0049 -174.001s-44.666 -88.667 -75.999 -116s-63.5 -47.666 -96.5 -60.999s-66.167 -20 -99.5 -20c-85.333 0 -152 28.833 -200 86.5s-72.333 143.167 -73 256.5l-111 2v-204c0 -32 2.66699 -54.833 8 -68.5s17 -22.167 35 -25.5
v-34h-143c-13.333 0 -22.5 6.16699 -27.5 18.5s-7.5 33.5 -7.5 63.5c0 22 0.5 61 1.5 117s1.5 102.667 1.5 140v116c0 48.667 -1.66699 88 -5 118c-0.666992 6 -1.66699 11.5 -3 16.5s-2.66602 9.33301 -3.99902 13s-3.16602 7 -5.49902 10l-5.5 7
c-1.33301 1.66699 -3.66602 3.33398 -6.99902 5.00098l-7 3.5c-1.33301 0.666992 -4 1.16699 -8 1.5s-6.5 0.666016 -7.5 0.999023s-3.83301 0.5 -8.5 0.5h-8v42l194 18l13 -6c-1.33301 -16 -2.66602 -64 -3.99902 -144l-2 -161l114 6c6 57.333 20.333 107 43 149
s49.5 73.333 80.5 94s60.667 35.5 89 44.5s55.5 13.5 81.5 13.5c86 0 153.667 -26.667 203 -80s74 -136.333 74 -249zM766.995 353.999c0 96.667 -11.834 167.669 -35.501 213.002s-61.167 68 -112.5 68c-15.333 0 -29.166 -1.83301 -41.499 -5.5
s-25.5 -11.834 -39.5 -24.501s-25.5 -29.667 -34.5 -51s-16.667 -51 -23 -89s-9.5 -83 -9.5 -135c0 -194 50 -291 150 -291c42 0 76.833 24.167 104.5 72.5s41.5 129.166 41.5 242.499z" />
    <glyph glyph-name="afii10049" unicode="&#x42f;" horiz-adv-x="593" 
d="M559 34l0.000976562 -33.999h-143c-14 0 -23.5 5.83301 -28.5 17.5s-6.83301 33.167 -5.5 64.5l8 319c2 86 3 138.667 3 158c0 30.667 -4.5 51 -13.5 61s-27.833 15 -56.5 15c-33.333 0 -59.166 -11.167 -77.499 -33.5s-27.833 -55.5 -28.5 -99.5
c0 -88.667 34 -139.667 102 -153c14 -2.66699 31.667 -4 53 -4v-27c-20.667 -10.667 -38.667 -25.334 -54 -44.001c-13.333 -17.333 -33.833 -54 -61.5 -110l-43.5 -88c-12 -22 -21.167 -37.5 -27.5 -46.5s-16 -17.333 -29 -25s-28.5 -11.5 -46.5 -11.5
c-9.33301 0 -22.333 0.833008 -39 2.5s-31 3.5 -43 5.5l-18 3v33c12.667 2 24 7 34 15s17.5 15.5 22.5 22.5s14.5 21.167 28.5 42.5c6 8.66699 15.667 24.334 29 47.001s24.666 41 33.999 55s23.166 30.167 41.499 48.5s38.5 33.833 60.5 46.5v4
c-16.667 1.33301 -34 5 -52 11s-37.333 15 -58 27s-37.5 29.5 -50.5 52.5s-19.5 49.5 -19.5 79.5c0.666992 39.333 10 73 28 101s41.667 48.667 71 62s57.833 22.666 85.5 27.999s56.5 8 86.5 8l169 -5l13 -6c-5.33301 -42.667 -10.333 -151.667 -15 -327
c0 -4 -1 -78 -3 -222c0 -30.667 2.83301 -53 8.5 -67s17.5 -22.667 35.5 -26z" />
    <glyph glyph-name="afii10065" unicode="&#x430;" horiz-adv-x="510" 
d="M490 42l-1.00293 -32c-58 -14 -96.333 -21 -115 -21c-40 0 -62.333 22.333 -67 67c-37.333 -45.333 -83 -68 -137 -68c-34 0 -64.167 9.83301 -90.5 29.5s-38.833 50.834 -37.5 93.501c0.666992 28.667 6 52.667 16 72s26 35 48 47s42.833 21.167 62.5 27.5
s47.834 13.166 84.501 20.499l57 12c0 37.333 -0.333008 60 -1 68c-1.33301 26 -7.16602 43.5 -17.499 52.5s-25.833 13.5 -46.5 13.5c-15.333 0 -31.666 -7 -48.999 -21s-26.333 -35.333 -27 -64l-9 -11c-38.667 0 -64.334 4.83301 -77.001 14.5s-18.667 22.167 -18 37.5
c0.666992 26 22.5 48.333 65.5 67s97.833 28 164.5 28c42 0 76.667 -11.333 104 -34s40.666 -55 39.999 -97l-5 -148c-1.33301 -67.333 -2 -103.666 -2 -108.999c0.666992 -16.667 4.83398 -28.334 12.501 -35.001s22.834 -10 45.501 -10zM307.997 243l-47 -9.99902
c-12 -2.66699 -21.167 -5.16699 -27.5 -7.5s-15 -6.83301 -26 -13.5s-19.333 -16.834 -25 -30.501s-8.83398 -30.5 -9.50098 -50.5c-0.666992 -46.667 18 -70 56 -70c18.667 0 34.334 5.83301 47.001 17.5s20.667 23.5 24 35.5l5 18c2 25.333 3 62.333 3 111z" />
    <glyph glyph-name="afii10066" unicode="&#x431;" horiz-adv-x="530" 
d="M505 253c-2 -74 -25.667 -136.334 -71 -187.001s-102.333 -76 -171 -76c-64 0 -115.167 24.167 -153.5 72.5s-56.166 115.5 -53.499 201.5c2 80 9.16699 146.667 21.5 200s34.833 99.666 67.5 138.999c16.667 19.333 39.667 37.5 69 54.5s60.5 32.333 93.5 46
s51.5 21.5 55.5 23.5l26 15c4.66699 2.66699 10.5 7.83398 17.5 15.501s13.833 17.167 20.5 28.5l28 -5c0 -1.33301 -1 -12.166 -3 -32.499s-3.83301 -35 -5.5 -44s-5.66699 -21.333 -12 -37s-14.5 -28.5 -24.5 -38.5c-18 -18 -52.333 -37.5 -103 -58.5
s-87.667 -40.833 -111 -59.5c-23.333 -18 -38.333 -30 -45 -36s-14.334 -18 -23.001 -36s-13.667 -40 -15 -66h8c20 34 47.667 59.833 83 77.5s72 26.5 110 26.5c58.667 0 105.667 -18 141 -54s52 -92.667 50 -170zM371 211.999
c1.33301 46.667 0.00292969 85.166 -3.99707 115.499s-10.5 52.5 -19.5 66.5s-18.333 23.167 -28 27.5s-21.5 6.5 -35.5 6.5c-61.333 0 -93.333 -54 -96 -162c-2.66699 -83.333 4.16602 -142.166 20.499 -176.499s40.166 -51.5 71.499 -51.5c57.333 0 87.666 58 90.999 174z
" />
    <glyph glyph-name="afii10067" unicode="&#x432;" horiz-adv-x="507" 
d="M474 141c-0.666992 -24.667 -7.49707 -46.498 -20.4971 -65.498s-28.5 -33.833 -46.5 -44.5s-37.833 -19.334 -59.5 -26.001s-40.334 -11 -56.001 -13s-28.834 -3 -39.501 -3c-49.333 0 -87.833 1.83301 -115.5 5.5s-45.834 8.5 -54.501 14.5s-13 14 -13 24
c0 5.33301 1.16699 26.833 3.5 64.5s3.83301 69.167 4.5 94.5l2 90c0.666992 15.333 1 35.333 1 60c0 38 -3.33301 61.5 -10 70.5s-21.334 13.5 -44.001 13.5l1 36c121.333 8 209.333 12 264 12c18 0 35.667 -1.33301 53 -4s35.166 -7.33398 53.499 -14.001
s33.166 -17.167 44.499 -31.5s16.666 -31.5 15.999 -51.5c0 -9.33301 -1.33301 -18.333 -4 -27s-5.66699 -16.167 -9 -22.5s-8.16602 -12.5 -14.499 -18.5s-11.666 -10.667 -15.999 -14s-10.5 -7 -18.5 -11s-13.833 -6.83301 -17.5 -8.5s-9.16699 -3.83398 -16.5 -6.50098
s-11.666 -4.33398 -12.999 -5.00098v-9c38.667 -3.33301 69.334 -12.666 92.001 -27.999s33.667 -42.666 33 -81.999zM326.003 356.002c0.666992 26 -4.33203 44.167 -14.999 54.5s-27 15.5 -49 15.5c-24 0 -42.333 -5.33301 -55 -16c-3.33301 -3.33301 -5 -22.333 -5 -57
v-45.5c0 -24.333 0.333008 -39.5 1 -45.5l50 3c27.333 1.33301 46.166 8.83301 56.499 22.5s15.833 36.5 16.5 68.5zM342.004 142.002c1.33301 52 -27 78.001 -85 78.001c-6.66699 0 -25 -1.66699 -55 -5c-0.666992 -12.667 -2 -36.334 -4 -71.001s-3 -55 -3 -61
c0 -30 19 -45 57 -45c27.333 0 48.833 9.66699 64.5 29s24.167 44.333 25.5 75z" />
    <glyph glyph-name="afii10068" unicode="&#x433;" horiz-adv-x="418" 
d="M385 123l12.999 -44.9932c-48 -59.333 -117.333 -89 -208 -89c-41.333 0 -77.333 9 -108 27s-46 46.667 -46 86c0 9.33301 0.666992 18.166 2 26.499s4.16602 16.166 8.49902 23.499l11 19c3 5.33301 8.5 11.166 16.5 17.499s13.833 11.166 17.5 14.499
s10.834 8 21.501 14s18 10 22 12l25 12c12.667 6 20.667 10 24 12c48.667 24.667 73 55 73 91c0 16 -3 28.5 -9 37.5s-12 14.333 -18 16s-13.667 2.5 -23 2.5c-47.333 0 -94 -22.667 -140 -68l-18 45c26 26 59.833 48.667 101.5 68s79.834 29 114.501 29
c16 0 29.833 -0.833008 41.5 -2.5s24.834 -5.5 39.501 -11.5s26 -16.333 34 -31s12 -33.667 12 -57c0 -17.333 -3.33301 -33 -10 -47s-17.834 -27.333 -33.501 -40s-29 -22.334 -40 -29.001s-27.833 -16.334 -50.5 -29.001c-4 -2 -7 -3.66699 -9 -5
c-24 -13.333 -42.167 -27.5 -54.5 -42.5s-18.5 -35.833 -18.5 -62.5c0 -40 25.667 -60 77 -60c21.333 0 45.833 7.16699 73.5 21.5s47.167 29.166 58.5 44.499z" />
    <glyph glyph-name="afii10069" unicode="&#x434;" horiz-adv-x="514" 
d="M475 359c0 -68.667 -8.33301 -130.669 -25 -186.002s-43.5 -100.666 -80.5 -135.999s-81.5 -53 -133.5 -53c-54.667 0 -99.167 21.167 -133.5 63.5s-51.5 101.5 -51.5 177.5c0 81.333 19.667 144 59 188s87.666 66 144.999 66c16 0 36 -3.66699 60 -11l7 -41
c-12.667 4.66699 -26.667 7 -42 7c-28.667 0 -52.5 -16.667 -71.5 -50s-28.5 -86 -28.5 -158c0 -67.333 7.66699 -116.5 23 -147.5s34 -46.5 56 -46.5c30.667 0 53 21.167 67 63.5s21 107.833 21 196.5c0 144.667 -20.167 249.334 -60.5 314.001s-97.833 97 -172.5 97
c-14 0 -26.667 -1 -38 -3l7 36c26.667 6.66699 50.334 10 71.001 10c42 0 81.333 -6.66699 118 -20s70.667 -34.333 102 -63s56 -69 74 -121s27 -113 27 -183z" />
    <glyph glyph-name="afii10070" unicode="&#x435;" horiz-adv-x="443" 
d="M428 368c-2 -62.667 -62.6689 -105 -182.002 -127l-68 -13c-0.666992 -34.667 2.5 -64 9.5 -88s16.833 -41.333 29.5 -52s24.834 -18.167 36.501 -22.5s24.167 -6.5 37.5 -6.5c41.333 0 83 13 125 39l3 -43c-2 -2 -4.83301 -4.33301 -8.5 -7s-11.667 -7.66699 -24 -15
s-25 -13.833 -38 -19.5s-29.833 -10.834 -50.5 -15.501s-41.667 -7 -63 -7c-58 0 -104.333 17.667 -139 53s-50.667 91 -48 167c0.666992 42.667 7.33398 80.5 20.001 113.5s27.667 58.833 45 77.5s37 34 59 46s41.5 19.833 58.5 23.5s32.5 5.5 46.5 5.5
s26.333 -0.333008 37 -1s23.834 -3 39.501 -7s28.5 -9.66699 38.5 -17s18.667 -18.166 26 -32.499s10.666 -31.5 9.99902 -51.5zM313.998 368c0 16.667 -4.00098 30.666 -12.001 41.999s-20.667 17 -38 17c-52 0 -80 -51 -84 -153l44 8
c28 4.66699 49.833 14.834 65.5 30.501s23.834 34.167 24.501 55.5z" />
    <glyph glyph-name="afii10072" unicode="&#x436;" horiz-adv-x="759" 
d="M760 39l-0.999023 -34c-40.667 -7.33301 -73 -11 -97 -11c-23.333 0 -41.5 4.5 -54.5 13.5s-25.167 22.833 -36.5 41.5l-24.5 45c-11 20.667 -17.167 32 -18.5 34l-22 41.5c-8 15.667 -13.5 26 -16.5 31s-6.83301 10.667 -11.5 17s-9.66699 11.833 -15 16.5l1 20
c37.333 16.667 68 40.667 92 72c21.333 30.667 32.666 56 33.999 76c0 16 -9 26.333 -27 31l1 31c53.333 5.33301 90.666 8 111.999 8c29.333 0 44 -7.33301 44 -22c-0.666992 -16 -20 -44 -58 -84c-36.667 -36.667 -69 -67 -97 -91c18.667 -20 38 -46 58 -78
c44.667 -70.667 67.334 -106.667 68.001 -108c12 -15.333 22.5 -26.5 31.5 -33.5s21.5 -12.5 37.5 -16.5zM472.001 36l-1.00293 -33.9961c-46.667 -4.66699 -78.667 -7 -96 -7c-18 0 -30 5.5 -36 16.5s-9 34.5 -9 70.5c0 18 0.666992 48.333 2 91l2 109
c0.666992 35.333 0.333984 67.666 -0.999023 96.999c-1.33301 18 -3.83301 29.5 -7.5 34.5s-10.5 9.5 -20.5 13.5l1 35c58 6.66699 96.667 10 116 10c7.33301 0 12.333 -0.333008 15 -1s6 -2.66699 10 -6s6.83301 -9.33301 8.5 -18s2.83398 -20.334 3.50098 -35.001
c0.666992 -8 0 -44 -2 -108l-3 -108c-1.33301 -56.667 -1.66602 -93.334 -0.999023 -110.001c0.666992 -17.333 2 -29.333 4 -36s7 -11.334 15 -14.001zM325.998 258.004l-1.00195 -23.001l-20 -25c-18.667 -22.667 -39.167 -51.5 -61.5 -86.5l-37.5 -58.5
c-2.66699 -3.33301 -6.83398 -9 -12.501 -17s-9.33398 -13 -11.001 -15s-4.66699 -5.83301 -9 -11.5s-7.66602 -9.16699 -9.99902 -10.5s-5.66602 -3.66602 -9.99902 -6.99902s-8.33301 -5.33301 -12 -6s-8 -1.5 -13 -2.5s-10.5 -1.5 -16.5 -1.5l-106 8l1 33
c30 5.33301 64 35 102 89c65.333 93.333 104.333 148.333 117 165c-32 39.333 -57.667 67.666 -77 84.999c-23.333 21.333 -42.166 35.5 -56.499 42.5s-31.5 11.167 -51.5 12.5l1 34c38.667 6.66699 74 10 106 10c18 0 30 -2.5 36 -7.5s14 -18.5 24 -40.5l5 -10
c22.667 -50.667 49.667 -93.667 81 -129c12.667 -15.333 23.334 -24.666 32.001 -27.999z" />
    <glyph glyph-name="afii10073" unicode="&#x437;" horiz-adv-x="445" 
d="M282 134c1.33301 56 -26.667 83.9971 -84 83.9971c-12 0 -23.833 -0.666992 -35.5 -2s-20.5 -2.66602 -26.5 -3.99902l-8 -1l9 49l49 3c26 1.33301 46.5 10.333 61.5 27s22.833 39.334 23.5 68.001c1.33301 47.333 -19.667 71 -63 71c-50.667 0 -76 -30.333 -76 -91
l-10 -9c-25.333 2.66699 -44.833 8.33398 -58.5 17.001s-20.167 20 -19.5 34c0.666992 24 18.667 46.167 54 66.5s84.333 30.5 147 30.5c50.667 0 89.834 -6.83301 117.501 -20.5s41.5 -38.5 41.5 -74.5c0 -32 -12.667 -58 -38 -78s-54.666 -35 -87.999 -45v-7
c1.33301 0 6.33301 -0.5 15 -1.5s14.5 -1.83301 17.5 -2.5s8.83301 -1.83398 17.5 -3.50098s15.167 -3.16699 19.5 -4.5s10.166 -3.5 17.499 -6.5s13 -6.33301 17 -10l13.5 -13c5 -5 8.83301 -10.5 11.5 -16.5s5 -13.167 7 -21.5s3 -17.166 3 -26.499
c0 -28 -8 -52.833 -24 -74.5s-36.5 -38.167 -61.5 -49.5s-50.667 -19.833 -77 -25.5s-52.166 -8.5 -77.499 -8.5c-55.333 0 -94.833 7.33301 -118.5 22s-35.5 32.667 -35.5 54c0 31.333 24.333 54.333 73 69l7 -6c2.66699 -30.667 11.667 -53.5 27 -68.5
s35.666 -22.5 60.999 -22.5c28.667 0 50.667 9.83301 66 29.5s23.666 42.5 24.999 68.5z" />
    <glyph glyph-name="afii10074" unicode="&#x438;" horiz-adv-x="563" 
d="M545 41l-3 -31.998c-44.667 -9.33301 -74.334 -14 -89.001 -14c-33.333 0 -57.333 4.66699 -72 14s-22 28.666 -22 57.999c0 2.66699 0.166992 9.66699 0.5 21s0.5 18.666 0.5 21.999l5 118c1.33301 35.333 6 75 14 119h-5c-22 -47.333 -46.667 -95.333 -74 -144
c-40 -72 -74.333 -128 -103 -168c-22.667 -31.333 -48 -47 -76 -47c-28.667 0 -43 31.333 -43 94c0 43.333 0.666992 79.666 2 108.999l3 90c0.666992 10 1 24.333 1 43c0 38.667 -4.16699 64.834 -12.5 78.501s-21.833 21.5 -40.5 23.5l1 36
c72.667 6.66699 121.334 10 146.001 10c8.66699 0 15 -0.666992 19 -2s8 -6.66602 12 -15.999s6 -23.666 6 -42.999c0 -31.333 -1.5 -73.333 -4.5 -126s-4.5 -82.334 -4.5 -89.001c0 -26.667 3.33301 -40 10 -40c5.33301 0 13 8.5 23 25.5s26 46.5 48 88.5l15 29
c43.333 86 70.666 138 81.999 156c32.667 14.667 64 22 94 22c12 0 19.667 -1.83301 23 -5.5s5.33301 -12.5 6 -26.5c0 -2.66699 -0.833008 -14.167 -2.5 -34.5l-6 -70.5c-2.33301 -26.667 -3.83301 -47.667 -4.5 -63l-4 -81
c-1.33301 -58.667 -1.66602 -93.334 -0.999023 -104.001c1.33301 -34 20 -51 56 -51z" />
    <glyph glyph-name="afii10075" unicode="&#x439;" horiz-adv-x="563" 
d="M545 41l-3 -31.998c-44.667 -9.33301 -74.334 -14 -89.001 -14c-33.333 0 -57.333 4.66699 -72 14s-22 28.666 -22 57.999c0 2.66699 0.166992 9.66699 0.5 21s0.5 18.666 0.5 21.999l5 118c1.33301 35.333 6 75 14 119h-5c-22 -47.333 -46.667 -95.333 -74 -144
c-40 -72 -74.333 -128 -103 -168c-22.667 -31.333 -48 -47 -76 -47c-28.667 0 -43 31.333 -43 94c0 43.333 0.666992 79.666 2 108.999l3 90c0.666992 10 1 24.333 1 43c0 38.667 -4.16699 64.834 -12.5 78.501s-21.833 21.5 -40.5 23.5l1 36
c72.667 6.66699 121.334 10 146.001 10c8.66699 0 15 -0.666992 19 -2s8 -6.66602 12 -15.999s6 -23.666 6 -42.999c0 -31.333 -1.5 -73.333 -4.5 -126s-4.5 -82.334 -4.5 -89.001c0 -26.667 3.33301 -40 10 -40c5.33301 0 13 8.5 23 25.5s26 46.5 48 88.5l15 29
c43.333 86 70.666 138 81.999 156c32.667 14.667 64 22 94 22c12 0 19.667 -1.83301 23 -5.5s5.33301 -12.5 6 -26.5c0 -2.66699 -0.833008 -14.167 -2.5 -34.5l-6 -70.5c-2.33301 -26.667 -3.83301 -47.667 -4.5 -63l-4 -81
c-1.33301 -58.667 -1.66602 -93.334 -0.999023 -104.001c1.33301 -34 20 -51 56 -51zM457 667.002l27 -14.999c-27.333 -46 -61 -80.167 -101 -102.5s-81.333 -33.5 -124 -33.5c-60 0 -90 18.333 -90 55c0 15.333 5.5 29.666 16.5 42.999s21.833 23 32.5 29l17 9
c22 -38 57 -57 105 -57c42 0 81 24 117 72z" />
    <glyph glyph-name="afii10076" unicode="&#x43a;" horiz-adv-x="511" 
d="M511 39l-1.00098 -34c-40.667 -7.33301 -73 -11 -97 -11c-18.667 0 -34 2.66699 -46 8s-20.333 11 -25 17s-11.334 16 -20.001 30l-43 75c-7.33301 13.333 -14.666 27.5 -21.999 42.5s-12.666 25.667 -15.999 32s-7.33301 12.666 -12 18.999s-9.66699 11.833 -15 16.5
l1 20c41.333 18 73.666 42.667 96.999 74c18 25.333 27.667 50 29 74c0 16 -9 26.333 -27 31l1 31c53.333 5.33301 90.666 8 111.999 8c29.333 0 44 -7.33301 44 -22c-0.666992 -14.667 -20 -42.667 -58 -84c-27.333 -28.667 -59.666 -59 -96.999 -91
c18 -23.333 36.667 -49.666 56 -78.999l35 -54c16.667 -26 28.334 -43.667 35.001 -53c12 -15.333 22.5 -26.5 31.5 -33.5s21.5 -12.5 37.5 -16.5zM236.999 37l-1.00488 -34c-51.333 -5.33301 -85.333 -8 -102 -8c-24.667 0 -41 5.66699 -49 17s-12 34.666 -12 69.999
c0 10 1 44 3 102l2 86l2 68c0 34.667 -4.16699 57.834 -12.5 69.501s-22.166 17.834 -41.499 18.501l1 36c72.667 6.66699 121.334 10 146.001 10c6.66699 0 11.334 -0.333008 14.001 -1s6 -2.66699 10 -6s6.83301 -9.33301 8.5 -18s2.83398 -20.334 3.50098 -35.001
c0.666992 -8.66699 0.333984 -33.667 -0.999023 -75l-4 -141l-2 -110c0 -28.667 11.667 -45 35 -49z" />
    <glyph glyph-name="afii10077" unicode="&#x43b;" horiz-adv-x="472" 
d="M462 34l0.000976562 -30.998c-30 -8 -55 -12 -75 -12c-34 0 -56 3.33301 -66 10s-19.667 24 -29 52c-4 14 -14 59.333 -30 136l-28 137c-9.33301 47.333 -16.333 74.666 -21 81.999h-5l-23 -71c-44 -136.667 -65 -222.334 -63 -257.001c2 -30 14.667 -47.667 38 -53
l-2 -26c-42.667 -6.66699 -76 -10 -100 -10c-22 0 -33.667 12.667 -35 38c-2 26 15 81.667 51 167l35 82c27.333 63.333 41 103.333 41 120c0 8.66699 -2.83301 15 -8.5 19s-11 6.33301 -16 7s-12.833 1.33398 -23.5 2.00098v31c58 11.333 102.667 17 134 17
c26 0 44 -0.5 54 -1.5s20.333 -5.66699 31 -14s18.167 -19.833 22.5 -34.5s9.5 -37.334 15.5 -68.001l28 -145c13.333 -61.333 21.666 -97.333 24.999 -108c5.33301 -22 11.5 -38.5 18.5 -49.5s17.5 -17.5 31.5 -19.5z" />
    <glyph glyph-name="afii10078" unicode="&#x43c;" horiz-adv-x="680" 
d="M669 33l0.000976562 -29.9971c-44.667 -9.33301 -74.334 -14 -89.001 -14c-24.667 0 -42.667 4 -54 12s-19 25 -23 51c-1.33301 7.33301 -7.33301 88.666 -18 243.999l-5 75c-49.333 -134 -86.666 -224 -111.999 -270c-20.667 -38 -40.667 -57 -60 -57
c-18.667 0 -41.667 36.333 -69 109c-39.333 104.667 -66.333 179 -81 223l-11 -62c-16 -88 -24 -153.667 -24 -197c0 -47.333 13.333 -75 40 -83v-26c-31.333 -7.33301 -59.333 -11 -84 -11c-14.667 0 -25 3.16699 -31 9.5s-9 17.166 -9 32.499c0 42 14.333 118 43 228
c19.333 72.667 29 115 29 127c0 5.33301 -1 9.66602 -3 12.999s-5.5 5.83301 -10.5 7.5s-8.83301 2.83398 -11.5 3.50098s-8 1.33398 -16 2.00098l-12 1v36c65.333 10 114.333 15 147 15c22 0 35.833 -2.33301 41.5 -7s12.167 -19.334 19.5 -44.001l13.5 -42l16 -50
l18.5 -56c17.333 -54 30.666 -81 39.999 -81c6.66699 0 13.667 7.66699 21 23s20 45.666 38 90.999l53 134c23.333 22.667 58.333 34 105 34c8.66699 0 15.167 -4.16699 19.5 -12.5s7.5 -27.833 9.5 -58.5l13 -192c3.33301 -47.333 7 -85.333 11 -114
c4.66699 -36 19.667 -57.333 45 -64z" />
    <glyph glyph-name="afii10079" unicode="&#x43d;" horiz-adv-x="554" 
d="M534 38l-1.99902 -32.9971c-59.333 -8.66699 -96.333 -13 -111 -13c-22.667 0 -39 4.16699 -49 12.5s-15 26.166 -15 53.499c0 16 0.333008 37.833 1 65.5s1 44.167 1 49.5l1 44h-155l-1 -21c-1.33301 -38.667 -2 -75.334 -2 -110.001c0 -16.667 2.5 -28.334 7.5 -35.001
s14.167 -11.334 27.5 -14.001l-1 -34c-51.333 -5.33301 -85 -8 -101 -8c-24 0 -40.167 5.66699 -48.5 17s-12.5 34.666 -12.5 69.999c0 15.333 1 52 3 110l2 90c0.666992 15.333 1 35.333 1 60c0 32 -3.66699 54 -11 66s-21.666 18 -42.999 18l1 36
c73.333 6.66699 122 10 146 10c8.66699 0 15.167 -0.666992 19.5 -2s8.33301 -6.66602 12 -15.999s5.5 -23.666 5.5 -42.999c0 -7.33301 -0.333008 -22 -1 -44s-1.33398 -42.667 -2.00098 -62l-1 -40l155 7v51c0 32 -1.66699 55.167 -5 69.5s-8 23.333 -14 27
s-16 5.83398 -30 6.50098l1 36c68 7.33301 114 11 138 11c7.33301 0 12.5 -0.333008 15.5 -1s7 -2.5 12 -5.5s8.5 -8.83301 10.5 -17.5s3 -20 3 -34l-3 -110l-3 -99c0 -8 -0.5 -21.833 -1.5 -41.5s-1.5 -33.834 -1.5 -42.501c0 -32 3.16699 -53 9.5 -63
s20.166 -17 41.499 -21z" />
    <glyph glyph-name="afii10080" unicode="&#x43e;" horiz-adv-x="537" 
d="M502 262c0 -79.333 -22.834 -144.834 -68.501 -196.501s-105.5 -77.5 -179.5 -77.5c-62.667 0 -112.667 20 -150 60s-56 95.667 -56 167c0 48.667 8.33301 91.334 25 128.001s37.834 64.167 63.501 82.5s50.5 31.833 74.5 40.5s46.667 13 68 13s40.666 -1 57.999 -3
s36.833 -7.33301 58.5 -16s39.834 -20.5 54.501 -35.5s27 -36.333 37 -64s15 -60.5 15 -98.5zM368.999 236.999c0 40 -2.50098 73.5 -7.50098 100.5s-12.333 47 -22 60s-19.667 22 -30 27s-22.166 7.5 -35.499 7.5c-32 0 -55.5 -15 -70.5 -45s-22.5 -80 -22.5 -150
c0 -134 32.667 -201 98 -201c60 0 90 67 90 201z" />
    <glyph glyph-name="afii10081" unicode="&#x43f;" horiz-adv-x="540" 
d="M524 41l-1.99609 -31.9971c-44.667 -9.33301 -74.334 -14 -89.001 -14c-20 0 -34.333 0.333008 -43 1s-17.334 3.5 -26.001 8.5s-15 12.5 -19 22.5c-4.66699 11.333 -7 37 -7 77c0 10.667 0.666992 34.667 2 72c0 7.33301 0.5 22.666 1.5 45.999s1.5 43.333 1.5 60
c0 32.667 -4 54.667 -12 66s-19.333 17 -34 17c-28 0 -49.833 -14 -65.5 -42s-24.5 -63 -26.5 -105l-1 -22c-1.33301 -26 -2 -62.667 -2 -110c0 -16.667 2.5 -28.334 7.5 -35.001s14.167 -11.334 27.5 -14.001l-1 -34c-51.333 -5.33301 -85.333 -8 -102 -8
c-24 0 -40.167 5.66699 -48.5 17s-12.5 34.666 -12.5 69.999c0 7.33301 0.666992 25.5 2 54.5s2 47.5 2 55.5l2 90c0.666992 15.333 1 35.333 1 60c0 34 -3.5 56.5 -10.5 67.5s-21.5 16.5 -43.5 16.5l1 36c66 6.66699 111.333 10 136 10
c7.33301 0 12.666 -0.333008 15.999 -1s7.66602 -2.5 12.999 -5.5s9.33301 -9 12 -18s4.33398 -20.833 5.00098 -35.5c1.33301 -13.333 1 -32.666 -1 -57.999c27.333 42 57.166 72.5 89.499 91.5s59.833 28.5 82.5 28.5c32 0 55.833 -7.5 71.5 -22.5s23.5 -47.5 23.5 -97.5
c0 -16 -1 -42.333 -3 -79l-4 -79c-1.33301 -37.333 -2 -61.333 -2 -72c0 -30 3.66699 -51.333 11 -64s23 -19 47 -19z" />
    <glyph glyph-name="afii10082" unicode="&#x440;" horiz-adv-x="526" 
d="M501 285c0 -50.667 -7.16504 -95.667 -21.498 -135s-33 -70 -56 -92s-47 -38.5 -72 -49.5s-49.833 -16.5 -74.5 -16.5c-29.333 0 -55.333 4.66699 -78 14v-23c-2.66699 -54 -3.33398 -96 -2.00098 -126c0 -30 15 -46.667 45 -50l-1 -34
c-58.667 -5.33301 -96.334 -8 -113.001 -8c-22.667 0 -38.334 6.16699 -47.001 18.5s-13 34.833 -13 67.5c0 11.333 1.33301 50.333 4 117l10 320c0 38.667 -1.33301 68.667 -4 90c-1.33301 11.333 -3.66602 20.5 -6.99902 27.5s-8 11.833 -14 14.5s-10.667 4.16699 -14 4.5
s-9 0.833008 -17 1.5l1 36c66 6.66699 111 10 135 10c8.66699 0 16 -1 22 -3s11.667 -7.66699 17 -17s8 -22.666 8 -39.999v-40c12 29.333 32.333 54.166 61 74.499s58 30.5 88 30.5c95.333 0 143 -64 143 -192zM370.002 249c0 25.333 -0.666992 46 -2 62s-4.33301 31 -9 45
s-11.5 24.333 -20.5 31s-20.833 10 -35.5 10c-30 0 -53.333 -17.5 -70 -52.5s-25.667 -76.167 -27 -123.5l-3 -125c3.33301 -39.333 26 -59 68 -59c66 0 99 70.667 99 212z" />
    <glyph glyph-name="afii10083" unicode="&#x441;" horiz-adv-x="447" 
d="M420 409c0 -15.333 -9.33496 -29.665 -28.002 -42.998s-40.334 -22 -65.001 -26l-10 8c2 52.667 -15.667 79 -53 79c-29.333 0 -50.666 -14.333 -63.999 -43s-20 -73.667 -20 -135c0 -37.333 4.16699 -69.333 12.5 -96s19 -46.167 32 -58.5s25.667 -21.166 38 -26.499
s24.5 -8 36.5 -8c41.333 0 80 14 116 42l4 -43c-44 -45.333 -101.333 -68 -172 -68c-56 0 -103 18.167 -141 54.5s-57 91.5 -57 165.5c0 47.333 7.66699 89.166 23 125.499s34.833 64.166 58.5 83.499s47.834 33.666 72.501 42.999s48.334 14 71.001 14
c50.667 0 87.667 -6.83301 111 -20.5s35 -29.5 35 -47.5z" />
    <glyph glyph-name="afii10084" unicode="&#x442;" horiz-adv-x="802" 
d="M787 41l-2.00195 -31.999c-44.667 -9.33301 -74.334 -14 -89.001 -14c-20 0 -34.333 0.333008 -43 1s-17.334 3.5 -26.001 8.5s-15 12.5 -19 22.5c-4.66699 11.333 -7 37 -7 77c0 9.33301 0.5 24.166 1.5 44.499s1.5 32.5 1.5 36.5c2.66699 53.333 4 87.333 4 102
c0 31.333 -3.66699 53.333 -11 66s-19 19 -35 19c-38.667 0 -66 -32.667 -82 -98c-8.66699 -38 -13.667 -81.333 -15 -130c-0.666992 -16 -1 -33.333 -1 -52c1.33301 -17.333 4.5 -29.833 9.5 -37.5s15.167 -12.167 30.5 -13.5l-3 -31c-45.333 -10 -75.333 -15 -90 -15
c-26.667 0 -45.834 4.33301 -57.501 13s-17.5 26.334 -17.5 53.001c0 10.667 0.5 30 1.5 58s1.5 47.667 1.5 59c0 10.667 0.666992 27.334 2 50.001s2 42 2 58c0 58.667 -13.667 88 -41 88c-29.333 0 -52.166 -16.167 -68.499 -48.5s-25.5 -68.166 -27.5 -107.499l-1 -22
c-1.33301 -56.667 -1.66602 -93.334 -0.999023 -110.001c0.666992 -16 3.33398 -27.5 8.00098 -34.5s13.334 -11.833 26.001 -14.5l-1 -34c-51.333 -5.33301 -85.333 -8 -102 -8c-24.667 0 -41 5.5 -49 16.5s-12 34.5 -12 70.5c0 18.667 1 57 3 115l2 85
c0.666992 15.333 1 35.333 1 60c0 32 -3.66699 54 -11 66s-21.666 18 -42.999 18l1 36c73.333 6.66699 122 10 146 10c7.33301 0 12.333 -0.333008 15 -1s6 -2.66699 10 -6s6.83301 -9.33301 8.5 -18s2.83398 -20.334 3.50098 -35.001c1.33301 -13.333 1 -32.666 -1 -57.999
c19.333 33.333 44.833 61.666 76.5 84.999s66.834 35 105.501 35c22 0 41 -5.83301 57 -17.5s24 -32.834 24 -63.501v-41c32 44.667 65 76.167 99 94.5s62.667 27.5 86 27.5c15.333 0 28.166 -1.33301 38.499 -4s20.166 -10.5 29.499 -23.5s14 -30.833 14 -53.5
c0 -28.667 -1.33301 -68 -4 -118l-4 -79c-1.33301 -30 -2 -54 -2 -72c0 -30 3.66699 -51.333 11 -64s23 -19 47 -19z" />
    <glyph glyph-name="afii10085" unicode="&#x443;" horiz-adv-x="494" 
d="M489 437c-1.33301 -56 -33.6709 -156.667 -97.0039 -302l-51 -116c-12 -26.667 -25.667 -53.334 -41 -80.001s-33.5 -53.667 -54.5 -81s-44.167 -49.666 -69.5 -66.999s-50 -26 -74 -26c-14 0 -25.167 2.83301 -33.5 8.5s-12.166 15.167 -11.499 28.5
c0 25.333 7.33301 56.666 22 93.999l18 3c14 -28.667 36 -43 66 -43c12.667 0 23.334 5.66699 32.001 17s13.334 24.666 14.001 39.999c0 22.667 -15.667 90.334 -47 203.001l-24 86c-19.333 69.333 -39.666 130 -60.999 182c-5.33301 13.333 -12.333 23.333 -21 30
s-15.334 10.334 -20.001 11.001s-12 1.33398 -22 2.00098l1 35c69.333 6.66699 116 10 140 10c22 0 36.333 -6 43 -18s17.334 -47.333 32.001 -106l30 -119c20.667 -80 33 -139 37 -177h7l31 87c33.333 94.667 51 169 53 223c0.666992 20.667 -2.16602 36 -8.49902 46
s-18.833 17 -37.5 21l-1 27c43.333 8 77 12 101 12c12 0 20.667 -0.333008 26 -1s10.166 -3.33398 14.499 -8.00098s6.5 -12 6.5 -22z" />
    <glyph glyph-name="afii10086" unicode="&#x444;" horiz-adv-x="741" 
d="M721 254c0 -44.667 -9 -84.8311 -27 -120.498s-41.5 -63.834 -70.5 -84.501s-59.333 -36.5 -91 -47.5s-63.5 -17.167 -95.5 -18.5v1c-2.66699 -54.667 -3.33398 -97 -2.00098 -127c0.666992 -16.667 3.33398 -28.5 8.00098 -35.5s13.667 -11.5 27 -13.5l-1 -35
c-62 -5.33301 -101.667 -8 -119 -8c-18.667 0 -29.834 12.5 -33.501 37.5s-4.5 80.5 -2.5 166.5l1 13c-22.667 0 -44.667 1.66699 -66 5s-45 10 -71 20s-48.333 23 -67 39s-34.5 38.5 -47.5 67.5s-19.5 62.833 -19.5 101.5c0 37.333 6 71 18 101s27.333 54.5 46 73.5
s40.834 35.167 66.501 48.5s51 23 76 29s50.833 9.66699 77.5 11v18c0.666992 26.667 -0.666016 57.334 -3.99902 92.001c-0.666992 12.667 -2.5 22.834 -5.5 30.501s-7.16699 13 -12.5 16s-10 5 -14 6s-9.33301 1.5 -16 1.5h-4l1 32c67.333 10.667 108.666 16 123.999 16
c8 0 14.167 -0.333008 18.5 -1s9.33301 -2.83398 15 -6.50098s10 -9.83398 13 -18.501s5.16699 -20 6.5 -34c2 -28.667 2 -74.334 0 -137.001v-14c180.667 -2 271 -77 271 -225zM590 256.003c0 115.333 -47.335 173.668 -142.002 175.001l-10 -400
c17.333 2 33.833 6.66699 49.5 14s31.834 18.833 48.501 34.5s29.834 38.667 39.501 69s14.5 66.166 14.5 107.499zM315.998 30.0049l10 399.998c-100.667 -12 -151 -83.667 -151 -215c0 -65.333 14 -112.166 42 -140.499s61 -43.166 99 -44.499z" />
    <glyph glyph-name="afii10087" unicode="&#x445;" horiz-adv-x="484" 
d="M470 37l-1.00488 -34.999c-52 -6.66699 -92 -10 -120 -10c-25.333 0 -43.666 6.66699 -54.999 20s-28.666 46.666 -51.999 99.999l-30 68c-20.667 -16 -39.167 -36 -55.5 -60s-24.5 -42 -24.5 -54c-0.666992 -9.33301 0.5 -16.333 3.5 -21s10.5 -8.66699 22.5 -12l-3 -33
c-36 -5.33301 -65.667 -8 -89 -8c-16 0 -27.333 2 -34 6s-9.66699 12.333 -9 25c0 11.333 9.16699 28 27.5 50s43 48.833 74 80.5s52.5 54.834 64.5 69.501l-35 69l-16 32.5l-11.5 23.5c-2.33301 4.66699 -5.66602 10.667 -9.99902 18s-9.83301 15.666 -16.5 24.999
c-16 24 -38 36 -66 36l1 35c71.333 6.66699 119 10 143 10c16 0 28.333 -6.16699 37 -18.5s19.667 -34.833 33 -67.5l39 -94c44.667 54 67.334 90.667 68.001 110c0 6.66699 -1.66699 11.667 -5 15s-10.666 7 -21.999 11l1 28c36 8 66 12 90 12c29.333 0 44 -10.333 44 -31
c0 -4 -1.66699 -9.16699 -5 -15.5s-8.5 -14 -15.5 -23s-14 -17.5 -21 -25.5l-27.5 -30.5l-28 -30l-30.5 -31.5c-13 -13.333 -22.167 -23 -27.5 -29c30 -66.667 61 -124 93 -172c19.333 -28.667 42.333 -43 69 -43z" />
    <glyph glyph-name="afii10088" unicode="&#x446;" horiz-adv-x="569" 
d="M564 34c-11.333 -79.333 -35.334 -151.333 -72.001 -216l-34 -3c9.33301 48.667 14 85.667 14 111c0 34.667 -6.16699 55.5 -18.5 62.5s-41.5 10.5 -87.5 10.5h-10c-26.667 0 -63 -0.833008 -109 -2.5s-85 -2.5 -117 -2.5c-21.333 0 -37 6.5 -47 19.5s-15 36.5 -15 70.5
c0 10.667 1 31.667 3 63s3.33301 51 4 59l3 75c2 60.667 -0.666992 99.5 -8 116.5s-22 26.5 -44 28.5l1 36c72.667 6.66699 121.334 10 146.001 10c8.66699 0 15 -0.666992 19 -2s8 -6.66602 12 -15.999s6 -23.666 6 -42.999c0 -52.667 -1.33301 -97.334 -4 -134.001
c-5.33301 -68.667 -8 -127.334 -8 -176.001c0 -23.333 6.66699 -38.5 20 -45.5s40.666 -10.5 81.999 -10.5c15.333 0 34.333 0.666992 57 2c-7.33301 24 -9.66602 65.667 -6.99902 125l6 113c2 41.333 1 72.5 -3 93.5s-9 33.833 -15 38.5s-15 7.66699 -27 9l-1 30
c66.667 11.333 108 17 124 17c12 0 21.167 -0.833008 27.5 -2.5s12.5 -8.33398 18.5 -20.001s9 -29.167 9 -52.5c0 -9.33301 -1 -28.666 -3 -57.999l-4 -59l-5 -86c-2 -30.667 -3 -62 -3 -94c0 -22 4.66699 -37.333 14 -46s24 -14.667 44 -18z" />
    <glyph glyph-name="afii10089" unicode="&#x447;" horiz-adv-x="530" 
d="M513 41l-2 -31.999c-54 -9.33301 -90.667 -14 -110 -14c-30 0 -50.333 6.33301 -61 19s-15.667 37.667 -15 75c0 8.66699 0.333008 18.5 1 29.5s1.5 22 2.5 33s1.5 18.167 1.5 21.5l1 48l-16 -12c-48 -35.333 -98.667 -53 -152 -53c-63.333 0 -94.333 38 -93 114
c0.666992 12.667 1.83398 31 3.50098 55s2.5 42 2.5 54c0 8.66699 -0.833008 16 -2.5 22s-3.33398 10.5 -5.00098 13.5s-5 5.5 -10 7.5s-8.5 3.16699 -10.5 3.5s-6.33301 0.5 -13 0.5h-11l1 36c72.667 6.66699 121.334 10 146.001 10c8.66699 0 15 -0.666992 19 -2
s7.83301 -6.5 11.5 -15.5s5.5 -23.167 5.5 -42.5c0 -2 -0.833008 -17.333 -2.5 -46s-2.83398 -53 -3.50098 -73c-1.33301 -39.333 15 -59 49 -59c36 0 63.333 16.333 82 49l1 95c0 14 -1.83301 24.667 -5.5 32s-7.5 11.666 -11.5 12.999s-9 2 -15 2l1 36
c60 6.66699 102 10 126 10c12.667 0 22 -3.66699 28 -11s8.66699 -23.666 8 -48.999l-4 -106l-3 -109c-2 -42.667 -2.33301 -77.334 -1 -104.001c2 -34 21 -51 57 -51z" />
    <glyph glyph-name="afii10090" unicode="&#x448;" horiz-adv-x="808" 
d="M792 41l-2.00098 -32.0049c-24 -10 -71.667 -15 -143 -15c-28.667 0 -77.667 0.833008 -147 2.5s-116.666 2.5 -141.999 2.5c-28 0 -65 -0.833008 -111 -2.5s-81.333 -2.5 -106 -2.5c-26.667 0 -45.334 6 -56.001 18s-16 35.333 -16 70
c0 14.667 1.66699 51.334 5 110.001l5 90c0.666992 15.333 1 35.333 1 60c0 32 -3.66699 54 -11 66s-21.666 18 -42.999 18l1 36c72.667 6.66699 121.334 10 146.001 10c8.66699 0 15 -0.666992 19 -2s8 -6.66602 12 -15.999s6 -23.666 6 -42.999
c0 -40.667 -1.33301 -85.334 -4 -134.001c-5.33301 -96 -8 -155 -8 -177c0 -19.333 2.66699 -32.666 8 -39.999s14.333 -11.666 27 -12.999s32.667 -2 60 -2c15.333 0 34.333 0.666992 57 2c-3.33301 12 -5 27.667 -5 47c0 30 1 67.333 3 112l3 75
c0.666992 8.66699 1 26 1 52c0 37.333 -3 61.833 -9 73.5s-18 18.167 -36 19.5l1 36c67.333 6.66699 113.333 10 138 10c8.66699 0 15 -0.666992 19 -2s8 -6.66602 12 -15.999s6 -23.666 6 -42.999c0 -40.667 -1.33301 -85.334 -4 -134.001
c-4.66699 -102.667 -7 -156 -7 -160c0 -44.667 7.33301 -68 22 -70c12.667 -1.33301 34.667 -2 66 -2c15.333 0 34.333 0.666992 57 2c-6 40.667 -7.66699 93.667 -5 159l3 75c0.666992 8.66699 1 26 1 52c0 37.333 -3 61.833 -9 73.5s-18 18.167 -36 19.5l1 36
c67.333 6.66699 113.333 10 138 10c8.66699 0 15 -0.666992 19 -2s8 -6.66602 12 -15.999s6 -23.666 6 -42.999c0 -52.667 -1.33301 -97.334 -4 -134.001c-6.66699 -96.667 -9.33398 -158.334 -8.00098 -185.001c2 -34 21 -51 57 -51z" />
    <glyph glyph-name="afii10091" unicode="&#x449;" horiz-adv-x="828" 
d="M825 34c-11.333 -79.333 -35.335 -151.336 -72.002 -216.003l-34 -3c9.33301 48.667 14 85.667 14 111c0 34 -6.5 54.667 -19.5 62s-41.833 11 -86.5 11h-10h-259c-28 0 -65 -0.833008 -111 -2.5s-81.333 -2.5 -106 -2.5c-26.667 0 -45.334 6 -56.001 18
s-16 35.333 -16 70c0 14.667 1.66699 51.334 5 110.001l5 90c0.666992 15.333 1 35.333 1 60c0 32 -3.66699 54 -11 66s-21.666 18 -42.999 18l1 36c72.667 6.66699 121.334 10 146.001 10c8.66699 0 15 -0.666992 19 -2s8 -6.66602 12 -15.999s6 -23.666 6 -42.999
c0 -52.667 -1.33301 -97.334 -4 -134.001c-6.66699 -86 -10 -145 -10 -177c0 -32.667 11.667 -50.334 35 -53.001c12.667 -1.33301 33.334 -2 62.001 -2c15.333 0 34.333 0.666992 57 2c-3.33301 12 -5 27.667 -5 47c0 30 1 67.333 3 112l3 75c0.666992 8.66699 1 26 1 52
c0 37.333 -3 61.833 -9 73.5s-18 18.167 -36 19.5l1 36c67.333 6.66699 113.333 10 138 10c8.66699 0 15 -0.666992 19 -2s8 -6.66602 12 -15.999s6 -23.666 6 -42.999c0 -40.667 -1.33301 -85.334 -4 -134.001c-4.66699 -102.667 -7 -156 -7 -160
c0 -44.667 7.33301 -68 22 -70c12.667 -1.33301 34.667 -2 66 -2c15.333 0 34.333 0.666992 57 2c-6 40.667 -7.66699 93.667 -5 159l3 75c0.666992 8.66699 1 26 1 52c0 37.333 -3 61.833 -9 73.5s-18 18.167 -36 19.5l1 36c67.333 6.66699 113.333 10 138 10
c8.66699 0 15 -0.666992 19 -2s8 -6.66602 12 -15.999s6 -23.666 6 -42.999c0 -52.667 -1.33301 -97.334 -4 -134.001c-5.33301 -79.333 -8 -138 -8 -176c0 -22 4.66699 -37.333 14 -46s24 -14.667 44 -18z" />
    <glyph glyph-name="afii10092" unicode="&#x44a;" horiz-adv-x="594" 
d="M577 188c0 -57.333 -24.999 -104.831 -74.999 -142.498s-104 -56.5 -162 -56.5c-103.333 0 -155 14.667 -155 44c0 5.33301 1.16699 26.833 3.5 64.5s3.83301 69.167 4.5 94.5l2 90c0.666992 15.333 1 35.333 1 60c0 27.333 -1 47 -3 59s-4.66699 19.167 -8 21.5
s-9.33301 3.5 -18 3.5c-26.667 0 -48 -9.66699 -64 -29s-31.333 -53.333 -46 -102l-31 -9c-1.33301 68 4.66699 126.333 18 175l11 10c117.333 0.666992 188 1 212 1c22.667 0 37.667 -3.33301 45 -10s11 -23.334 11 -50.001c0 -24 -2 -86.667 -6 -188
c-3.33301 -88.667 -5 -134.334 -5 -137.001c0 -32.667 14.667 -49 44 -49c27.333 0 49.666 11.667 66.999 35s26 56.333 26 99c0 32 -5 53.833 -15 65.5s-23.667 17.5 -41 17.5c-15.333 0 -34 -4.33301 -56 -13l-3 40c40 16 77.667 24 113 24
c42 0 74.167 -9.16699 96.5 -27.5s33.5 -48.5 33.5 -90.5z" />
    <glyph glyph-name="afii10093" unicode="&#x44b;" horiz-adv-x="713" 
d="M695 38l-1.99902 -32.998c-59.333 -8.66699 -96.333 -13 -111 -13c-22.667 0 -39 4.16699 -49 12.5s-15 26.166 -15 53.499c0 16 0.333008 37.833 1 65.5s1 44.167 1 49.5l2 150c0.666992 43.333 -2.33301 71 -9 83s-20 18.667 -40 20l1 36c68 7.33301 114 11 138 11
c7.33301 0 12.5 -0.333008 15.5 -1s7 -2.5 12 -5.5s8.5 -8.83301 10.5 -17.5s3 -20 3 -34l-3 -110l-3 -99c0 -8 -0.5 -21.833 -1.5 -41.5s-1.5 -33.834 -1.5 -42.501c0 -32 3.16699 -53 9.5 -63s20.166 -17 41.499 -21zM462.001 188.002
c0 -57.333 -24.999 -104.835 -74.999 -142.502s-104 -56.5 -162 -56.5c-104 0 -156 14.667 -156 44c0 5.33301 1.16699 26.833 3.5 64.5s3.83301 69.167 4.5 94.5l2 90c0.666992 15.333 1 35.333 1 60c0 38 -3.33301 61.5 -10 70.5s-21.334 13.5 -44.001 13.5l1 36
c72.667 6.66699 121.334 10 146.001 10c8.66699 0 15 -0.666992 19 -2s8 -6.66602 12 -15.999s6 -23.666 6 -42.999c0 -10 -0.5 -24.667 -1.5 -44s-2.16699 -43.5 -3.5 -72.5s-2.33301 -52.5 -3 -70.5c-3.33301 -88 -5 -133.667 -5 -137c0 -32.667 14.667 -49 44 -49
c27.333 0 49.666 11.667 66.999 35s26 56.333 26 99c0 32 -5 53.833 -15 65.5s-23.667 17.5 -41 17.5c-15.333 0 -34 -4.33301 -56 -13l-3 40c40 16 77.667 24 113 24c42 0 74.167 -9.16699 96.5 -27.5s33.5 -48.5 33.5 -90.5z" />
    <glyph glyph-name="afii10094" unicode="&#x44c;" horiz-adv-x="482" 
d="M462 188c0 -57.333 -24.999 -104.835 -74.999 -142.502s-104 -56.5 -162 -56.5c-104 0 -156 14.667 -156 44c0 5.33301 1.16699 26.833 3.5 64.5s3.83301 69.167 4.5 94.5l2 90c0.666992 15.333 1 35.333 1 60c0 38 -3.33301 61.5 -10 70.5s-21.334 13.5 -44.001 13.5
l1 36c72.667 6.66699 121.334 10 146.001 10c8.66699 0 15 -0.666992 19 -2s8 -6.66602 12 -15.999s6 -23.666 6 -42.999c0 -10 -0.5 -24.667 -1.5 -44s-2.16699 -43.5 -3.5 -72.5s-2.33301 -52.5 -3 -70.5c-3.33301 -88 -5 -133.667 -5 -137c0 -32.667 14.667 -49 44 -49
c27.333 0 49.666 11.667 66.999 35s26 56.333 26 99c0 32 -5 53.833 -15 65.5s-23.667 17.5 -41 17.5c-15.333 0 -34 -4.33301 -56 -13l-3 40c40 16 77.667 24 113 24c42 0 74.167 -9.16699 96.5 -27.5s33.5 -48.5 33.5 -90.5z" />
    <glyph glyph-name="afii10095" unicode="&#x44d;" horiz-adv-x="463" 
d="M426 260c0 -81.333 -23.666 -147 -70.999 -197s-106.666 -75 -177.999 -75c-55.333 0 -94.833 7.33301 -118.5 22s-35.5 32.667 -35.5 54c0 31.333 24.333 54.333 73 69l7 -6c2.66699 -30.667 11.667 -53.5 27 -68.5s35.666 -22.5 60.999 -22.5
c34.667 0 60.334 17 77.001 51s25 77.333 25 130l-159 -14l9 66l152 -10c0 64.667 -10 109.167 -30 133.5s-43 36.5 -69 36.5c-22.667 0 -39.834 -6.16699 -51.501 -18.5s-17.5 -28.5 -17.5 -48.5c0 -6.66699 1 -14 3 -22l-7 -10c-61.333 0 -92 15.667 -92 47
c0 26.667 18.167 50 54.5 70s79.5 30 129.5 30c16 0 32.167 -1.33301 48.5 -4s34.666 -8.66699 54.999 -18s38 -21.5 53 -36.5s27.833 -36.167 38.5 -63.5s16 -59 16 -95z" />
    <glyph glyph-name="afii10096" unicode="&#x44e;" horiz-adv-x="784" 
d="M614 237c0 40 -2.50098 73.5 -7.50098 100.5s-12.333 47 -22 60s-19.667 22 -30 27s-22.166 7.5 -35.499 7.5c-32 0 -55.5 -15 -70.5 -45s-22.5 -80 -22.5 -150c0 -134 32.667 -201 98 -201c60 0 90 67 90 201zM292.999 215l-0.000976562 6.00293l-88 4l-1 -29
c-1.33301 -38.667 -2 -75.334 -2 -110.001c0 -16.667 2.5 -28.334 7.5 -35.001s14.167 -11.334 27.5 -14.001l-1 -34c-51.333 -5.33301 -85 -8 -101 -8c-24 0 -40.167 5.66699 -48.5 17s-12.5 34.666 -12.5 69.999c0 15.333 1 52 3 110l2 90c0.666992 15.333 1 35.333 1 60
c0 32 -3.66699 54 -11 66s-21.666 18 -42.999 18l1 36c73.333 6.66699 122 10 146 10c8.66699 0 15.167 -0.666992 19.5 -2s8.33301 -6.66602 12 -15.999s5.5 -23.666 5.5 -42.999c0 -12.667 -0.5 -29.667 -1.5 -51s-1.5 -39.666 -1.5 -54.999l-1 -40h90
c5.33301 39.333 16.5 73.666 33.5 102.999s37 51.666 60 66.999s45.667 26.5 68 33.5s44.5 10.5 66.5 10.5c21.333 0 40.666 -1 57.999 -3s36.833 -7.33301 58.5 -16s39.834 -20.5 54.501 -35.5s27 -36.333 37 -64s15 -60.5 15 -98.5
c0 -79.333 -22.833 -144.833 -68.5 -196.5s-105.5 -77.5 -179.5 -77.5c-62.667 0 -112.667 20 -150 60s-56 95.667 -56 167z" />
    <glyph glyph-name="afii10097" unicode="&#x44f;" horiz-adv-x="504" 
d="M489 41l-2 -32.0059c-52 -9.33301 -85 -14 -99 -14c-24.667 0 -42.667 1.66699 -54 5s-19 10.333 -23 21c-5.33301 12.667 -8 39.334 -8 80.001c0 13.333 2 52 6 116l5 91c2.66699 44.667 4 67.667 4 69c0 18.667 -3.33301 31.5 -10 38.5s-20.334 10.5 -41.001 10.5
c-49.333 0 -75 -31.667 -77 -95c-0.666992 -20.667 1.66602 -38 6.99902 -52s13.166 -24 23.499 -30s19.333 -10 27 -12s17.167 -3.66699 28.5 -5l20 -2l-1 -34l-5 -1c-7.33301 -1.33301 -15.166 -8.16602 -23.499 -20.499s-18.5 -30.666 -30.5 -54.999
s-21.667 -42.5 -29 -54.5c-11.333 -18.667 -20.5 -32 -27.5 -40s-19 -15 -36 -21s-39.5 -9 -67.5 -9c-8.66699 0 -18.5 1 -29.5 3s-19.833 4 -26.5 6l-9 3l1 35c14 0 26 4.16699 36 12.5s20.667 20.833 32 37.5c25.333 34.667 44.833 58.334 58.5 71.001
s32.5 23.334 56.5 32.001v7c-14 2 -27.333 5.16699 -40 9.5s-26.5 10.833 -41.5 19.5s-26.667 21 -35 37s-12.166 35 -11.499 57c0.666992 23.333 5.66699 43.833 15 61.5s22.333 31.667 39 42s33 18.833 49 25.5s34.333 11.334 55 14.001s36.334 4.33398 47.001 5.00098
s21.667 1 33 1c18 0 43.5 -1.5 76.5 -4.5s53.833 -6.5 62.5 -10.5c-4 -54 -6.66699 -105.333 -8 -154l-3 -109c-1.33301 -33.333 -1.5 -61.333 -0.5 -84s5.83301 -39.834 14.5 -51.501s22.667 -18.167 42 -19.5z" />
    <glyph glyph-name="afii10071" unicode="&#x451;" horiz-adv-x="443" 
d="M428 368c-2 -62.667 -62.6689 -105 -182.002 -127l-68 -13c-0.666992 -34.667 2.5 -64 9.5 -88s16.833 -41.333 29.5 -52s24.834 -18.167 36.501 -22.5s24.167 -6.5 37.5 -6.5c41.333 0 83 13 125 39l3 -43c-2 -2 -4.83301 -4.33301 -8.5 -7s-11.667 -7.66699 -24 -15
s-25 -13.833 -38 -19.5s-29.833 -10.834 -50.5 -15.501s-41.667 -7 -63 -7c-58 0 -104.333 17.667 -139 53s-50.667 91 -48 167c0.666992 42.667 7.33398 80.5 20.001 113.5s27.667 58.833 45 77.5s37 34 59 46s41.5 19.833 58.5 23.5s32.5 5.5 46.5 5.5
s26.333 -0.333008 37 -1s23.834 -3 39.501 -7s28.5 -9.66699 38.5 -17s18.667 -18.166 26 -32.499s10.666 -31.5 9.99902 -51.5zM313.998 368c0 16.667 -4.00098 30.666 -12.001 41.999s-20.667 17 -38 17c-52 0 -80 -51 -84 -153l44 8
c28 4.66699 49.833 14.834 65.5 30.501s23.834 34.167 24.501 55.5zM414.997 610.999c0 -20 -6.66895 -37 -20.002 -51s-29.666 -21 -48.999 -21c-18 0 -33.667 7 -47 21s-20 31 -20 51c0 19.333 6.66699 36.166 20 50.499s29 21.5 47 21.5
c18.667 0 34.834 -7.16699 48.501 -21.5s20.5 -31.166 20.5 -50.499zM240.995 610.999c0 -20 -6.66895 -37 -20.002 -51s-29 -21 -47 -21c-19.333 0 -35.666 7 -48.999 21s-20 31 -20 51c0 19.333 6.83301 36.166 20.5 50.499s29.834 21.5 48.501 21.5
c18 0 33.667 -7.16699 47 -21.5s20 -31.166 20 -50.499z" />
    <glyph glyph-name="afii10099" unicode="&#x452;" horiz-adv-x="525" 
d="M474 236c0 -50 -5.50195 -105.003 -16.502 -165.003s-26.833 -111 -47.5 -153c-46.667 -96 -104 -144 -172 -144c-18 0 -33.333 3.83301 -46 11.5s-19 17.5 -19 29.5c0 16 3.83301 29.667 11.5 41s21.834 23.666 42.501 36.999l6 -4c2 -16.667 7.5 -29.167 16.5 -37.5
s19.833 -12.5 32.5 -12.5c11.333 0 21 4.83301 29 14.5s15.167 26.334 21.5 50.001s11.166 58 14.499 103s5 100.5 5 166.5v27c0 68 -5 113.333 -15 136s-27.333 34 -52 34c-26 0 -46 -15.833 -60 -47.5s-21 -68.5 -21 -110.5v-16c0 -12 -0.333008 -30.667 -1 -56
s-0.666992 -43.333 0 -54c0.666992 -16 3.33398 -27.5 8.00098 -34.5s13.334 -11.833 26.001 -14.5l-1 -34c-51.333 -5.33301 -85.333 -8 -102 -8c-24 0 -40.167 5.66699 -48.5 17s-12.5 34.666 -12.5 69.999c0 6 0.333008 19.833 1 41.5s1.66699 45.167 3 70.5
s2 41.333 2 48l7 291h-66v48c42 4 63.667 6 65 6c0 2 -0.166992 5 -0.5 9s-0.5 7 -0.5 9c-1.33301 14.667 -5.16602 25.667 -11.499 33s-12 11.333 -17 12s-12.833 1.33398 -23.5 2.00098l1 36c66 6.66699 111 10 135 10h5h6c0.666992 0 2.5 -0.166992 5.5 -0.5
s5.16699 -0.833008 6.5 -1.5l6 -3c2.66699 -1.33301 4.5 -2.83301 5.5 -4.5s2.5 -4 4.5 -7s3.5 -6.33301 4.5 -10s2 -7.83398 3 -12.501s1.5 -10 1.5 -16v-52l146 -2l-8 -51l-139 -3l-7 -172c13.333 36.667 33.5 64.334 60.5 83.001s51.167 28 72.5 28
c13.333 0 25.166 -1.16699 35.499 -3.5s22 -8.16602 35 -17.499s23.667 -22.166 32 -38.499s15.5 -39.666 21.5 -69.999s9 -66.5 9 -108.5z" />
    <glyph glyph-name="afii10100" unicode="&#x453;" horiz-adv-x="418" 
d="M385 123l12.999 -44.9932c-48 -59.333 -117.333 -89 -208 -89c-41.333 0 -77.333 9 -108 27s-46 46.667 -46 86c0 9.33301 0.666992 18.166 2 26.499s4.16602 16.166 8.49902 23.499l11 19c3 5.33301 8.5 11.166 16.5 17.499s13.833 11.166 17.5 14.499
s10.834 8 21.501 14s18 10 22 12l25 12c12.667 6 20.667 10 24 12c48.667 24.667 73 55 73 91c0 16 -3 28.5 -9 37.5s-12 14.333 -18 16s-13.667 2.5 -23 2.5c-47.333 0 -94 -22.667 -140 -68l-18 45c26 26 59.833 48.667 101.5 68s79.834 29 114.501 29
c16 0 29.833 -0.833008 41.5 -2.5s24.834 -5.5 39.501 -11.5s26 -16.333 34 -31s12 -33.667 12 -57c0 -17.333 -3.33301 -33 -10 -47s-17.834 -27.333 -33.501 -40s-29 -22.334 -40 -29.001s-27.833 -16.334 -50.5 -29.001c-4 -2 -7 -3.66699 -9 -5
c-24 -13.333 -42.167 -27.5 -54.5 -42.5s-18.5 -35.833 -18.5 -62.5c0 -40 25.667 -60 77 -60c21.333 0 45.833 7.16699 73.5 21.5s47.167 29.166 58.5 44.499zM217.999 664.007l102 -23l-135 -123l-36 7z" />
    <glyph glyph-name="afii10101" unicode="&#x454;" horiz-adv-x="431" 
d="M409 409c0 -17.333 -8.83105 -32.168 -26.498 -44.501s-39.167 -20.5 -64.5 -24.5l-10 8c0 52.667 -18.333 79 -55 79c-28 0 -48.167 -13.333 -60.5 -40s-18.833 -69 -19.5 -127l148 13l-7 -66l-140 9c4 -54.667 16.833 -94.5 38.5 -119.5s45.5 -37.5 71.5 -37.5
c18.667 0 39.167 4.66699 61.5 14s39.833 19 52.5 29l5 -43c-5.33301 -5.33301 -12.5 -11.666 -21.5 -18.999s-27.167 -17.333 -54.5 -30s-54 -19 -80 -19c-56.667 0 -104.834 17.833 -144.501 53.5s-59.5 91.167 -59.5 166.5c0 47.333 7.5 89.333 22.5 126
s34.167 64.5 57.5 83.5s46.666 33.167 69.999 42.5s46 14 68 14c98.667 0 148 -22.667 148 -68z" />
    <glyph glyph-name="afii10102" unicode="&#x455;" horiz-adv-x="431" 
d="M406 164c-1.33301 -46 -22.8311 -86.4971 -64.498 -121.497s-92.5 -52.5 -152.5 -52.5c-56 0 -95.833 7.66699 -119.5 23s-35.167 33 -34.5 53c0 14.667 8.83301 28.5 26.5 41.5s44.834 19.167 81.501 18.5l7 -10c-3.33301 -8 -5.66602 -16.667 -6.99902 -26
c-0.666992 -18.667 5 -31.834 17 -39.501s26.667 -11.5 44 -11.5c22 0 40.5 7 55.5 21s22.833 33.667 23.5 59c0.666992 14.667 -3 27 -11 37s-15.833 16.833 -23.5 20.5s-21 8.5 -40 14.5s-31.5 10.333 -37.5 13c-0.666992 0 -7.33398 2.5 -20.001 7.5l-23 9
c-2.66699 1 -9.33398 4.16699 -20.001 9.5s-17.5 9.5 -20.5 12.5s-8.16699 7.83301 -15.5 14.5s-12.166 13.167 -14.499 19.5s-4.66602 14 -6.99902 23s-3.16602 18.5 -2.49902 28.5c1.33301 41.333 20.5 76.5 57.5 105.5s84.5 43.5 142.5 43.5
c47.333 0 83.666 -6.66699 108.999 -20s37.666 -31 36.999 -53c-0.666992 -32.667 -31.667 -52.334 -93 -59.001l-7 10c4.66699 5.33301 7 13.333 7 24c0.666992 14 -5.16602 25.667 -17.499 35s-30.166 14 -53.499 14c-20.667 0 -38.334 -4.66699 -53.001 -14
s-22.334 -23.333 -23.001 -42c0 -6.66699 1.16699 -12.834 3.5 -18.501s6.16602 -10.834 11.499 -15.501s10.333 -8.66699 15 -12s11.167 -6.5 19.5 -9.5l19 -7c4.33301 -1.66699 11.166 -3.66699 20.499 -6s14.666 -3.83301 15.999 -4.5
c51.333 -15.333 85 -28.666 101 -39.999c32 -21.333 47.333 -53 46 -95z" />
    <glyph glyph-name="afii10103" unicode="&#x456;" horiz-adv-x="268" 
d="M212 611c0 -20 -7.33496 -37.167 -22.002 -51.5s-31.667 -21.5 -51 -21.5s-35.666 7 -48.999 21s-20 31.333 -20 52c0 20 7.33301 37.167 22 51.5s31.667 21.5 51 21.5c18.667 0 34.834 -7.16699 48.501 -21.5s20.5 -31.5 20.5 -51.5zM253.998 35l-1.99902 -33
c-38.667 -8.66699 -75.334 -13 -110.001 -13c-23.333 0 -41 4.66699 -53 14s-18 27 -18 53c0 18 1 60.333 3 127l3 101c2 58.667 -1 97 -9 115s-22 27.667 -42 29l1 37c59.333 6.66699 100.666 10 123.999 10c15.333 0 25.833 -1 31.5 -3s10.834 -9.33301 15.501 -22
s7 -33.334 7 -62.001c0 -8 -0.666992 -35.333 -2 -82l-3 -109c-1.33301 -34.667 -2 -58.667 -2 -72c0 -39.333 3.16699 -64.166 9.5 -74.499s21.833 -15.5 46.5 -15.5z" />
    <glyph glyph-name="afii10104" unicode="&#x457;" horiz-adv-x="326" 
d="M301 611c0 -20 -6.66895 -37 -20.002 -51s-29.666 -21 -48.999 -21c-18 0 -33.667 7 -47 21s-20 31 -20 51c0 19.333 6.66699 36.166 20 50.499s29 21.5 47 21.5c18.667 0 34.834 -7.16699 48.501 -21.5s20.5 -31.166 20.5 -50.499zM146.998 611
c0 -20 -6.66895 -37 -20.002 -51s-29 -21 -47 -21c-19.333 0 -35.666 7 -48.999 21s-20 31 -20 51c0 19.333 6.83301 36.166 20.5 50.499s29.834 21.5 48.501 21.5c18 0 33.667 -7.16699 47 -21.5s20 -31.166 20 -50.499zM283.996 35l-1.99902 -33
c-38.667 -8.66699 -75.334 -13 -110.001 -13c-23.333 0 -41 4.66699 -53 14s-18 27 -18 53c0 18 1 60.333 3 127l3 101c2 58.667 -1 97 -9 115s-22 27.667 -42 29l1 37c59.333 6.66699 100.666 10 123.999 10c15.333 0 25.833 -1 31.5 -3s10.834 -9.33301 15.501 -22
s7 -33.334 7 -62.001c0 -8 -0.666992 -35.333 -2 -82l-3 -109c-1.33301 -34.667 -2 -58.667 -2 -72c0 -39.333 3.16699 -64.166 9.5 -74.499s21.833 -15.5 46.5 -15.5z" />
    <glyph glyph-name="afii10105" unicode="&#x458;" horiz-adv-x="277" 
d="M221 611c-0.666992 -20 -8.16699 -37.167 -22.5 -51.5s-31.166 -21.5 -50.499 -21.5s-35.833 7.16699 -49.5 21.5s-20.167 31.5 -19.5 51.5s8.16699 37.167 22.5 51.5s31.166 21.5 50.499 21.5s35.833 -7.16699 49.5 -21.5s20.167 -31.5 19.5 -51.5zM212 306
l-2.99805 -108.996c-3.33301 -131.333 -19.333 -225.333 -48 -282c-46.667 -92 -108.667 -138 -186 -138c-32.667 0 -55 6 -67 18s-18 25.333 -18 40c0 35.333 21.667 59.333 65 72l8 -8c10 -48 25.667 -72 47 -72s36.166 13 44.499 39s15.5 69.333 21.5 130
c1.33301 20.667 3 55.167 5 103.5s3 73.166 3 74.499l2 110c1.33301 41.333 1 73.666 -1 96.999c-0.666992 7.33301 -1.66699 13.666 -3 18.999s-3.16602 9.66602 -5.49902 12.999s-4.33301 6 -6 8s-4.5 3.5 -8.5 4.5s-6.83301 1.66699 -8.5 2s-4.83398 0.5 -9.50098 0.5h-9
l1 37c59.333 6.66699 100.666 10 123.999 10c18 0 30 -2.33301 36 -7s10.667 -18.667 14 -42s4 -63.333 2 -120z" />
    <glyph glyph-name="afii10106" unicode="&#x459;" horiz-adv-x="671" 
d="M653 171c0 -56 -21.332 -100.001 -63.999 -132.001s-92.667 -48 -150 -48c-75.333 0 -124.333 21 -147 63c-9.33301 16.667 -20.333 61.667 -33 135l-25 137c-7.33301 44.667 -14.333 72 -21 82h-5l-23 -71c-44 -136.667 -65 -222.334 -63 -257.001
c2 -30 14.667 -47.667 38 -53l-2 -26c-42.667 -6.66699 -76 -10 -100 -10c-22 0 -33.667 12.667 -35 38c-2 26 15 81.667 51 167l35 82c27.333 63.333 41 103.333 41 120c0 8.66699 -2.83301 15 -8.5 19s-11 6.33301 -16 7s-12.833 1.33398 -23.5 2.00098v31
c58 11.333 102.667 17 134 17c18 0 30.833 -0.166992 38.5 -0.5s16.5 -1.66602 26.5 -3.99902s16.833 -5.66602 20.5 -9.99902s8 -11.333 13 -21s8.83301 -20.5 11.5 -32.5s6 -28.667 10 -50l23 -131c12 -64.667 21.333 -107.667 28 -129c4 -12.667 7.33301 -22 10 -28
s8.16699 -13.167 16.5 -21.5s17.833 -12.5 28.5 -12.5c22 0 39.167 10.5 51.5 31.5s18.5 49.5 18.5 85.5c0 39.333 -8 66.166 -24 80.499s-32.667 21.5 -50 21.5c-24 0 -46.667 -4.33301 -68 -13l-6 41c28 13.333 66 20 114 20c13.333 0 24.166 -0.166992 32.499 -0.5
s21.166 -2.83301 38.499 -7.5s31.333 -11 42 -19s20.334 -21 29.001 -39s13 -39.333 13 -64z" />
    <glyph glyph-name="afii10107" unicode="&#x45a;" horiz-adv-x="766" 
d="M739 188c0 -61.333 -23.332 -109.833 -69.999 -145.5s-100.334 -53.5 -161.001 -53.5c-35.333 0 -70.333 4.33301 -105 13s-52 19 -52 31c0 2.66699 0.5 20.5 1.5 53.5s1.5 61.833 1.5 86.5v44h-155v-21c0 -54.667 0.666992 -91.334 2 -110.001
c1.33301 -16 4.33301 -27.5 9 -34.5s13.334 -11.833 26.001 -14.5v-34c-64.667 -5.33301 -105.334 -8 -122.001 -8c-19.333 0 -31.166 9.66699 -35.499 29s-6.5 69 -6.5 149v109c0 40.667 -1.33301 73 -4 97c-0.666992 8.66699 -2.16699 16 -4.5 22s-4.33301 10.5 -6 13.5
s-5 5.5 -10 7.5s-8.33301 3.16699 -10 3.5s-5.66699 0.5 -12 0.5h-10.5v36c73.333 6.66699 122 10 146 10c8.66699 0 14.834 -0.5 18.501 -1.5s7.5 -6.16699 11.5 -15.5s6.33301 -23.666 7 -42.999c0.666992 -8 1 -43.667 1 -107v-40l155 7v10
c0 15.333 -1.33301 47.666 -4 96.999c-0.666992 8.66699 -2 16 -4 22s-3.83301 10.5 -5.5 13.5s-5 5.5 -10 7.5s-8.33301 3.16699 -10 3.5s-5.83398 0.5 -12.501 0.5h-11v36c73.333 6.66699 122 10 146 10c9.33301 0 15.666 -0.5 18.999 -1.5s7 -6.16699 11 -15.5
s6.33301 -23.666 7 -42.999c2 -22 2.33301 -57.667 1 -107l-1 -81c0 -20.667 -0.666992 -47.167 -2 -79.5s-2 -57.833 -2 -76.5c0 -10 4.66699 -17.5 14 -22.5s20.333 -7.5 33 -7.5c27.333 0 48.833 11.333 64.5 34s23.5 56 23.5 100c0 55.333 -19.333 83 -58 83
c-16 0 -34.333 -4.33301 -55 -13l-4 40c38.667 16 76 24 112 24c88.667 0 133 -39.333 133 -118z" />
    <glyph glyph-name="afii10108" unicode="&#x45b;" horiz-adv-x="540" 
d="M524 41l-1.99805 -31.999c-44.667 -9.33301 -74.334 -14 -89.001 -14c-20 0 -34.333 0.333008 -43 1s-17.334 3.5 -26.001 8.5s-15 12.5 -19 22.5c-4.66699 11.333 -7 37 -7 77c0 10.667 0.666992 34.667 2 72c0 7.33301 0.5 22.666 1.5 45.999s1.5 43.333 1.5 60
c0 32.667 -4 54.667 -12 66s-19.333 17 -34 17c-28 0 -49.833 -14 -65.5 -42s-24.5 -63 -26.5 -105l-1 -22c-0.666992 -15.333 -1 -52 -1 -110c0 -15.333 2.33301 -26.666 7 -33.999s13.667 -12.333 27 -15l-1 -34c-51.333 -5.33301 -85.333 -8 -102 -8
c-24 0 -40.167 5.66699 -48.5 17s-12.5 34.666 -12.5 69.999c0 6 0.333008 19.833 1 41.5s1.66699 45.167 3 70.5s2 41.333 2 48l7 291h-66v48c42 4 63.667 6 65 6c0 2 -0.166992 5 -0.5 9s-0.5 7 -0.5 9c-1.33301 14.667 -5.16602 25.667 -11.499 33s-12 11.333 -17 12
s-12.833 1.33398 -23.5 2.00098l1 36c66 6.66699 111 10 135 10h5h6c0.666992 0 2.5 -0.166992 5.5 -0.5s5.16699 -0.833008 6.5 -1.5l6 -3c2.66699 -1.33301 4.5 -2.83301 5.5 -4.5s2.5 -4 4.5 -7s3.5 -6.33301 4.5 -10s2 -7.83398 3 -12.501s1.5 -10 1.5 -16v-52l146 -2
l-8 -51l-139 -3l-7 -181c27.333 42 57.166 72.5 89.499 91.5s59.833 28.5 82.5 28.5c32 0 55.833 -7.5 71.5 -22.5s23.5 -47.5 23.5 -97.5c0 -16 -1 -42.333 -3 -79l-4 -79c-1.33301 -37.333 -2 -61.333 -2 -72c0 -30 3.66699 -51.333 11 -64s23 -19 47 -19z" />
    <glyph glyph-name="afii10109" unicode="&#x45c;" horiz-adv-x="511" 
d="M511 39l-1.00098 -34c-40.667 -7.33301 -73 -11 -97 -11c-18.667 0 -34 2.66699 -46 8s-20.333 11 -25 17s-11.334 16 -20.001 30l-43 75c-7.33301 13.333 -14.666 27.5 -21.999 42.5s-12.666 25.667 -15.999 32s-7.33301 12.666 -12 18.999s-9.66699 11.833 -15 16.5
l1 20c41.333 18 73.666 42.667 96.999 74c18 25.333 27.667 50 29 74c0 16 -9 26.333 -27 31l1 31c53.333 5.33301 90.666 8 111.999 8c29.333 0 44 -7.33301 44 -22c-0.666992 -14.667 -20 -42.667 -58 -84c-27.333 -28.667 -59.666 -59 -96.999 -91
c18 -23.333 36.667 -49.666 56 -78.999l35 -54c16.667 -26 28.334 -43.667 35.001 -53c12 -15.333 22.5 -26.5 31.5 -33.5s21.5 -12.5 37.5 -16.5zM236.999 37l-1.00488 -34c-51.333 -5.33301 -85.333 -8 -102 -8c-24.667 0 -41 5.66699 -49 17s-12 34.666 -12 69.999
c0 10 1 44 3 102l2 86l2 68c0 34.667 -4.16699 57.834 -12.5 69.501s-22.166 17.834 -41.499 18.501l1 36c72.667 6.66699 121.334 10 146.001 10c6.66699 0 11.334 -0.333008 14.001 -1s6 -2.66699 10 -6s6.83301 -9.33301 8.5 -18s2.83398 -20.334 3.50098 -35.001
c0.666992 -8.66699 0.333984 -33.667 -0.999023 -75l-4 -141l-2 -110c0 -28.667 11.667 -45 35 -49zM277.994 664l102 -23l-135 -123l-36 7z" />
    <glyph glyph-name="afii10110" unicode="&#x45e;" horiz-adv-x="500" 
d="M489 437c-1.33301 -56 -33.6709 -156.667 -97.0039 -302l-51 -116c-12 -26.667 -25.667 -53.334 -41 -80.001s-33.5 -53.667 -54.5 -81s-44.167 -49.666 -69.5 -66.999s-50 -26 -74 -26c-14 0 -25.167 2.83301 -33.5 8.5s-12.166 15.167 -11.499 28.5
c0 25.333 7.33301 56.666 22 93.999l18 3c14 -28.667 36 -43 66 -43c12.667 0 23.334 5.66699 32.001 17s13.334 24.666 14.001 39.999c0 22.667 -15.667 90.334 -47 203.001l-24 86c-19.333 69.333 -39.666 130 -60.999 182c-5.33301 13.333 -12.333 23.333 -21 30
s-15.334 10.334 -20.001 11.001s-12 1.33398 -22 2.00098l1 35c69.333 6.66699 116 10 140 10c22 0 36.333 -6 43 -18s17.334 -47.333 32.001 -106l30 -119c20.667 -80 33 -139 37 -177h7l31 87c33.333 94.667 51 169 53 223c0.666992 20.667 -2.16602 36 -8.49902 46
s-18.833 17 -37.5 21l-1 27c43.333 8 77 12 101 12c12 0 20.667 -0.333008 26 -1s10.166 -3.33398 14.499 -8.00098s6.5 -12 6.5 -22zM426.995 667l27 -14.999c-27.333 -46 -61 -80.167 -101 -102.5s-81.333 -33.5 -124 -33.5c-60 0 -90 18.333 -90 55
c0 15.333 5.5 29.666 16.5 42.999s21.833 23 32.5 29l17 9c22 -38 57 -57 105 -57c42 0 81 24 117 72z" />
    <glyph glyph-name="afii10193" unicode="&#x45f;" horiz-adv-x="544" 
d="M521 35l-1.00195 -32.0049c-54 -2.66699 -102.667 -4 -146 -4c-19.333 -5.33301 -33 -19.5 -41 -42.5s-16 -67.5 -24 -133.5l-31 -8c-2 51.333 -8.66699 94.5 -20 129.5s-25.666 52.5 -42.999 52.5c-12 0 -27.5 -0.5 -46.5 -1.5s-35.167 -1.5 -48.5 -1.5
c-18 0 -31.333 5.83301 -40 17.5s-13 35.834 -13 72.501c0 13.333 0.333008 28 1 44s1.5 31.833 2.5 47.5s1.5 25.834 1.5 30.501l3 75c2.66699 58.667 0 97 -8 115s-22.667 28 -44 30l1 36c72.667 6.66699 121.334 10 146.001 10c8.66699 0 15 -0.666992 19 -2
s8 -6.66602 12 -15.999s6 -23.666 6 -42.999c0 -16 -1.33301 -60.667 -4 -134c-2 -44 -3 -82 -3 -114c0 -36.667 0.833008 -62.667 2.5 -78s4 -24.666 7 -27.999s8.5 -6 16.5 -8c10.667 -2.66699 36 -4 76 -4c12.667 0 30.334 0.666992 53.001 2c-6.66699 26 -9 69 -7 129
l4 109c1.33301 41.333 0.166016 72.5 -3.50098 93.5s-8.5 33.833 -14.5 38.5s-15 7.66699 -27 9l-1 30c66.667 11.333 108 17 124 17c12 0 21.167 -0.833008 27.5 -2.5s12.5 -8.33398 18.5 -20.001s9 -29.167 9 -52.5c0 -9.33301 -1 -28.666 -3 -57.999l-4 -59l-4 -78
c-2 -35.333 -1.33301 -72.333 2 -111c1.33301 -18 4.83301 -31.5 10.5 -40.5s17.167 -14.5 34.5 -16.5z" />
    <glyph glyph-name="afii10050" unicode="&#x490;" horiz-adv-x="458" 
d="M425 817l33 -4.00098c0 -78 -4.66699 -126.667 -14 -146c-4.66699 -9.33301 -9.83398 -16 -15.501 -20s-18.167 -7 -37.5 -9s-50 -3 -92 -3c-30 0 -50.667 -6 -62 -18c-1.33301 -1.33301 -2.5 -2.83301 -3.5 -4.5s-1.83301 -3.83398 -2.5 -6.50098
s-1.33398 -5 -2.00098 -7s-1.16699 -4.83301 -1.5 -8.5s-0.666016 -6.83398 -0.999023 -9.50098s-0.5 -6.5 -0.5 -11.5s-0.166992 -9 -0.5 -12s-0.5 -8 -0.5 -15v-15.5l-5 -399c-0.666992 -29.333 2.83301 -51.5 10.5 -66.5s21.167 -24.167 40.5 -27.5v-34h-151
c-14 0 -23.5 6.16699 -28.5 18.5s-7.16699 33.5 -6.5 63.5l4 313c0 24 0.333008 52.167 1 84.5s1 57.833 1 76.5c0 8 -0.5 15.167 -1.5 21.5s-2 11.833 -3 16.5s-2.83301 9 -5.5 13l-6.5 9.5c-1.66699 2.33301 -4.5 4.5 -8.5 6.5s-6.83301 3.33301 -8.5 4
s-4.66699 1.33398 -9 2.00098s-7.16602 1.16699 -8.49902 1.5s-4.33301 0.5 -9 0.5h-8v42c82.667 0.666992 159 3.33398 229 8.00098c60 4 103.667 23.667 131 59c16 20.667 30 46.334 42 77.001z" />
    <glyph glyph-name="afii10098" unicode="&#x491;" horiz-adv-x="386" 
d="M352 587l33 -4.00391c-10 -83.333 -15.333 -126.666 -16 -129.999c-7.33301 -25.333 -34.666 -38 -81.999 -38c-22 0 -53.667 1.66699 -95 5c6 -26.667 9 -64.667 9 -114c0 -30.667 -1 -67 -3 -109c-1.33301 -37.333 -2 -61.333 -2 -72
c0 -39.333 3.16699 -64.166 9.5 -74.499s21.833 -15.5 46.5 -15.5l-2 -33c-38.667 -8.66699 -75.334 -13 -110.001 -13c-23.333 0 -41 4.66699 -53 14s-18 27 -18 53c0 32.667 1 75 3 127c0 5.33301 0.5 20.833 1.5 46.5s1.5 43.834 1.5 54.501c0 43.333 -1.33301 75 -4 95
c-4 30 -21.333 45.667 -52 47v37l155 1c40 0.666992 69.833 4.16699 89.5 10.5s36.167 17.5 49.5 33.5c5.33301 6.66699 10.166 13.834 14.499 21.501s7.33301 13.5 9 17.5s4.33398 11 8.00098 21s6.16699 16.333 7.5 19z" />
    <glyph glyph-name="uni2010" unicode="&#x2010;" horiz-adv-x="416" 
d="M375 321l-15 -65c-86 2.66699 -146 4 -180 4l-135 -4l15 65l158 -5z" />
    <glyph glyph-name="uni2011" unicode="&#x2011;" horiz-adv-x="416" 
d="M375 321l-15 -65c-86 2.66699 -146 4 -180 4l-135 -4l15 65l158 -5z" />
    <glyph glyph-name="figuredash" unicode="&#x2012;" horiz-adv-x="488" 
d="M448 379l-14 -71l-216 3l-175 -4l11 72c70 -1.33301 127.333 -2 172 -2z" />
    <glyph glyph-name="endash" unicode="&#x2013;" horiz-adv-x="488" 
d="M448 260l-14 -71l-216 3l-175 -4l11 72c70 -1.33301 127.333 -2 172 -2z" />
    <glyph glyph-name="emdash" unicode="&#x2014;" horiz-adv-x="648" 
d="M612 262l-4 -75c-114 3.33301 -207.333 5 -280 5l-290 -3l9 73c111.333 -2.66699 202.333 -4 273 -4z" />
    </font>
</defs>
</svg>
