<?xml version="1.0" standalone="no"?>
<!DOCTYPE svg PUBLIC "-//W3C//DTD SVG 1.1//EN" "http://www.w3.org/Graphics/SVG/1.1/DTD/svg11.dtd" >
<svg xmlns="http://www.w3.org/2000/svg" xmlns:xlink="http://www.w3.org/1999/xlink" version="1.1">
<metadata>
Created by FontForge 20141024 at Mon Oct 26 13:30:58 2015
 By Jimmy Warting
Copyright (c) ParaType, Inc., 2008. All rights reserved.
</metadata>
<defs>
<font id="PalladaBold-Italic" horiz-adv-x="520" >
  <font-face 
    font-family="PalladaBold-Italic"
    font-weight="400"
    font-style="italic"
    font-stretch="normal"
    units-per-em="1000"
    panose-1="4 3 7 4 6 1 2 9 2 2"
    ascent="748"
    descent="-252"
    x-height="472"
    cap-height="687.001"
    bbox="-173 -296.001 1037 866.002"
    underline-thickness="20"
    underline-position="-113"
    slope="-12"
    unicode-range="U+0020-F6DE"
  />
<missing-glyph horiz-adv-x="233" 
 />
    <glyph glyph-name="afii10017.var.accented" unicode="&#x410;`" horiz-adv-x="589" 
d="M580 40l-11 -41.998c-46 -3.33301 -77.333 -5 -94 -5c-28.667 0 -48.667 5 -60 15s-18 29.333 -20 58c-0.666992 11.333 -1.16699 26.166 -1.5 44.499s-0.666016 41.166 -0.999023 68.499s-0.833008 51 -1.5 71l-197 2c-44 -82 -66 -144 -66 -186
c0 -14.667 7.33301 -27.334 22 -38.001l-8 -30c-42.667 -3.33301 -73.667 -5 -93 -5c-28 0 -42 10.333 -42 31c0 28 30 92.667 90 194l87 146l32.5 52l35 56.5l29 49c9.66699 17 17.167 31.833 22.5 44.5s8 22.667 8 30c0 6.66699 -2.16699 11.5 -6.5 14.5
s-9.16602 5 -14.499 6s-12.333 1.5 -21 1.5h-5l8 36c103.333 22 168.666 33 195.999 33c20.667 0 33.167 -6 37.5 -18s7.16602 -40 8.49902 -84c0.666992 -8.66699 1 -15.334 1 -20.001l9 -289c2.66699 -95.333 4.66699 -146.666 6 -153.999
c4.66699 -29.333 10.167 -50.166 16.5 -62.499s17.5 -18.833 33.5 -19.5zM221 302.002l170 -6l-4 214c0 54.667 -1 90 -3 106h-3l-60 -120zM481 866.002l108 -22l-156 -129l-33 11z" />
    <glyph glyph-name="afii10022.var.accented" unicode="&#x415;`" horiz-adv-x="548" 
d="M612 647c0 -15.333 -10.0029 -37.333 -30.0029 -66s-41 -52.667 -63 -72l-39 -5c13.333 36.667 20 63.667 20 81s-6.5 30 -19.5 38s-34.167 12 -63.5 12c-44 0 -73 -7 -87 -21c-11.333 -10 -20.333 -34.333 -27 -73c-1.33301 -8.66699 -6.66602 -36.5 -15.999 -83.5
l-16 -80.5l185 4l-26 -70c-25.333 5.33301 -82.333 10 -171 14l-26 -120c-14.667 -66 -22 -104.667 -22 -116c0 -14.667 6.5 -25.5 19.5 -32.5s37.5 -10.5 73.5 -10.5c25.333 0 49 4.33301 71 13s41.333 21.167 58 37.5s29.834 30.833 39.501 43.5s20.167 28 31.5 46l31 -6
l-55 -173c-30 -8.66699 -102 -13 -216 -13c-92.667 0 -152 2 -178 6c-16.667 2.66699 -25 11.667 -25 27c0 5.33301 1.83301 15.333 5.5 30l16 64.5c7 28.333 13.5 56.166 19.5 83.499l53 250c14.667 68.667 22 113.667 22 135c0 12.667 -3.16699 22.167 -9.5 28.5
s-12.166 9.83301 -17.499 10.5s-14 1.33398 -26 2.00098l9 42c142 9.33301 246 14 312 14c62.667 0 106.167 -2.5 130.5 -7.5s36.5 -15.833 36.5 -32.5zM460.997 866l108 -22l-156 -129l-33 11z" />
    <glyph glyph-name="afii10026.var.accented" unicode="&#x418;`" horiz-adv-x="676" 
d="M702 681c-4.66699 -17.333 -15.6641 -65.667 -32.9971 -145l-33 -156l-34 -163l-16 -78c-6.66699 -34.667 -10 -56.667 -10 -66c0 -12.667 2.5 -21.667 7.5 -27s13.833 -9.33301 26.5 -12l-7 -34h-147c-16.667 0 -25 10 -25 30c0 2.66699 12.667 64.667 38 186l66 317
l-68 -112l-74 -116c-24.667 -38 -40 -62 -46 -72c-79.333 -124.667 -131 -195.334 -155 -212.001c-9.33301 -6.66699 -26.833 -13.5 -52.5 -20.5s-43.834 -10.5 -54.501 -10.5c-6.66699 0 -11.5 0.166992 -14.5 0.5s-5.83301 1.66602 -8.5 3.99902s-4 6.16602 -4 11.499
c0 3.33301 2.83301 17.5 8.5 42.5l20.5 86.5c8 32.667 13.333 56 16 70l53 250c14 63.333 21 110 21 140c0 16 -3.83301 27.167 -11.5 33.5s-21.834 10.833 -42.501 13.5l7 34c65.333 8 117 12 155 12c10.667 0 18.167 -0.333008 22.5 -1s8.33301 -3.16699 12 -7.5
s5.5 -11.166 5.5 -20.499s-3.33301 -30.666 -10 -63.999c-17.333 -87.333 -32.333 -157 -45 -209l-62 -256c43.333 56.667 99 139 167 247c114.667 178.667 178 273.334 190 284.001c19.333 18 56.666 27 111.999 27zM525.003 865.999l108 -22l-156 -129l-33 11z" />
    <glyph glyph-name="afii10032.var.accented" unicode="&#x41e;`" horiz-adv-x="662" 
d="M683 468c0 -50.667 -10.667 -107.332 -32 -169.999s-49.666 -117 -84.999 -163c-77.333 -98.667 -168 -148 -272 -148c-41.333 0 -77.166 6.5 -107.499 19.5s-53.833 31 -70.5 54s-28.834 47.833 -36.501 74.5s-11.5 55.667 -11.5 87c0 60 10.167 118.667 30.5 176
s48.166 106.333 83.499 147c83.333 94.667 175 142 275 142c73.333 0 129.333 -16.333 168 -49s58 -89.334 58 -170.001zM542 495.002c0 93.333 -33.999 140 -101.999 140c-64.667 0 -119.334 -50.333 -164.001 -151c-18.667 -42 -34.5 -90.833 -47.5 -146.5
s-19.5 -108.5 -19.5 -158.5c0 -46 9.66699 -80.833 29 -104.5s45 -35.5 77 -35.5c64 0 117.333 50.333 160 151c44.667 105.333 67 207 67 305zM518.001 866.002l108 -22l-156 -129l-33 11z" />
    <glyph glyph-name="afii10037.var.accented" unicode="&#x423;`" horiz-adv-x="549" 
d="M626 662c0 -22 -32.0029 -87.335 -96.0029 -196.002l-74 -126c-32 -54 -71 -114 -117 -180c-83.333 -118 -156.666 -177 -219.999 -177c-24 0 -36 12.667 -36 38s12 57 36 95l18 4c11.333 -24 30.333 -36 57 -36c14 0 26.167 5.83301 36.5 17.5s15.5 29.5 15.5 53.5
c0 42.667 -7.66699 104.334 -23 185.001l-15 81c-15.333 82.667 -29.333 137 -42 163c-9.33301 18.667 -19.333 31.834 -30 39.501s-25 11.5 -43 11.5l8 32c74.667 18.667 130.667 28 168 28c14 0 24.167 -11.167 30.5 -33.5s15.166 -66.833 26.499 -133.5
c14 -84 25.333 -162.333 34 -235h5l38 59c22.667 35.333 45.834 78.5 69.501 129.5s35.5 89.5 35.5 115.5c0 15.333 -1.66699 26.333 -5 33s-10.666 12 -21.999 16l7 26c48.667 10 82.667 15 102 15c12.667 0 21.834 -1.66699 27.501 -5s8.5 -10 8.5 -20zM460.997 865.998
l108 -22l-156 -129l-33 11z" />
    <glyph glyph-name="afii10045.var.accented" unicode="&#x42b;`" horiz-adv-x="837" 
d="M858 659c0 -7.33301 -3.33203 -28.6689 -9.99902 -64.002l-54 -253l-44 -203c-6.66699 -31.333 -10 -53.333 -10 -66s2.5 -21.667 7.5 -27s13.833 -9.33301 26.5 -12l-7 -34h-147c-16.667 0 -25 10 -25 30c0 10 12.667 68.333 38 175c5.33301 18.667 15 61 29 127
c32 150.667 48 238.334 48 263.001c0 16 -3.83301 27.167 -11.5 33.5s-21.834 10.833 -42.501 13.5l7 34c65.333 8 117 12 155 12c10.667 0 18.167 -0.333008 22.5 -1s8.33301 -3.16699 12 -7.5s5.5 -11.166 5.5 -20.499zM573.001 262.997
c0 -60 -17.3301 -111.837 -51.9971 -155.504s-76 -75 -124 -94s-97.667 -28.5 -149 -28.5c-54.667 0 -108.334 5 -161.001 15c-16.667 3.33301 -25 11.333 -25 24c0 5.33301 2.33301 18.333 7 39s10.667 45.834 18 75.501s12.666 51.834 15.999 66.501l53 250
c16 75.333 24 122 24 140c0 16 -3.83301 27.167 -11.5 33.5s-21.834 10.833 -42.501 13.5l7 34c65.333 8 117 12 155 12c10.667 0 18.167 -0.333008 22.5 -1s8.33301 -3.16699 12 -7.5s5.5 -11.166 5.5 -20.499c0 -7.33301 -3.33301 -28.666 -10 -63.999
c-28 -136.667 -43.333 -210.667 -46 -222l-37 -166c-18 -82.667 -27 -130 -27 -142c0 -18.667 18 -28 54 -28c59.333 0 106 25.667 140 77c24 34.667 36 80.667 36 138c0 28.667 -7.5 52 -22.5 70s-37.833 27 -68.5 27c-25.333 0 -47.333 -3.33301 -66 -10l9 46
c36.667 12.667 73 19 109 19c116 0 174 -47 174 -141zM605.004 865.993l108 -22l-156 -129l-33 11z" />
    <glyph glyph-name="afii10047.var.accented" unicode="&#x42d;`" horiz-adv-x="553" 
d="M569 484c0 -74.667 -12.832 -145.665 -38.499 -212.998s-58.167 -122.333 -97.5 -165c-72.667 -78.667 -157.334 -118 -254.001 -118c-116 0 -174 31 -174 93c0 40.667 29 76.667 87 108l20 -10c-4.66699 -11.333 -7 -29 -7 -53c0 -28 9 -49.333 27 -64
s38.667 -22 62 -22c16.667 0 33.667 3.5 51 10.5s36.5 19.667 57.5 38s40.667 47.166 59 86.499s33.166 87 44.499 143c-78 -4 -153 -12.333 -225 -25l29 82l207 -8c10 50.667 15 97 15 139c0 86 -30.333 129 -91 129c-33.333 0 -64 -12.5 -92 -37.5
s-59.333 -63.833 -94 -116.5l-31 13c16.667 79.333 32.334 133.666 47.001 162.999l14 10c61.333 13.333 119.333 20 174 20c140 0 210 -67.667 210 -203zM463.001 866.002l108 -22l-156 -129l-33 11z" />
    <glyph glyph-name="afii10048.var.accented" unicode="&#x42e;`" horiz-adv-x="966" 
d="M983 468c0 -50 -10.832 -107.004 -32.499 -171.004s-49.834 -118 -84.501 -162c-76 -98.667 -166.667 -148 -272 -148c-79.333 0 -136.5 21 -171.5 63s-52.5 96 -52.5 162c0 46 4.33301 87.333 13 124l-119 2l-44 -199c-6.66699 -33.333 -10 -55.333 -10 -66
c0 -12.667 2.5 -21.667 7.5 -27s13.833 -9.33301 26.5 -12l-7 -34h-147c-16.667 0 -25 10 -25 30c0 8.66699 2.5 24.334 7.5 47.001s11 47.667 18 75s11.167 45 12.5 53l53 250c14 64.667 21 111.334 21 140.001c0 16 -3.83301 27.167 -11.5 33.5
s-21.834 10.833 -42.501 13.5l7 34c65.333 8 117 12 155 12c10.667 0 18.167 -0.333008 22.5 -1s8.33301 -3.16699 12 -7.5s5.5 -11.166 5.5 -20.499c0 -16.667 -3.33301 -40.667 -10 -72l-41 -201l125 6c18 52 41 97.333 69 136s55 67.834 81 87.501
s54.167 35.334 84.5 47.001s54.333 18.667 72 21s34.834 3.5 51.501 3.5c73.333 0 129.333 -16.333 168 -49s58 -89.334 58 -170.001zM842.001 494.996c0 48 -7.66797 83.333 -23.001 106s-39.666 34 -72.999 34c-36 0 -67.667 -12 -95 -36s-52.333 -61 -75 -111
c-18.667 -40.667 -34.5 -89.667 -47.5 -147s-19.5 -111.333 -19.5 -162c0 -45.333 9 -80 27 -104s40.333 -36 67 -36c36 0 67.667 11.167 95 33.5s53 61.5 77 117.5c44.667 105.333 67 207 67 305zM670 865.996l108 -22l-156 -129l-33 11z" />
    <glyph glyph-name="afii10049.var.accented" unicode="&#x42f;`" horiz-adv-x="608" 
d="M595 532l-38 -182.999c-25.333 -117.333 -40 -187.333 -44 -210c-6.66699 -34.667 -10 -56.667 -10 -66c0 -12.667 2.5 -21.667 7.5 -27s13.833 -9.33301 26.5 -12l-7 -34h-147c-16.667 0 -25 10 -25 30c0 5.33301 2 17.333 6 36s9.5 42.667 16.5 72
s12.167 51.666 15.5 66.999l40 196c25.333 124 38 190.333 38 199c0 14 -4.16699 23.333 -12.5 28s-22.166 7 -41.499 7c-39.333 0 -71.166 -15.667 -95.499 -47s-36.5 -70.333 -36.5 -117c0 -63.333 24.333 -101.333 73 -114c10 -2.66699 27.333 -4 52 -4l-7 -31
c-18 -7.33301 -36 -20.666 -54 -39.999c-12.667 -13.333 -25 -27.333 -37 -42s-24 -30.5 -36 -47.5s-21.5 -31 -28.5 -42l-29.5 -46.5l-25 -39c-18.667 -29.333 -36.167 -49.333 -52.5 -60s-41.166 -16 -74.499 -16c-9.33301 0 -21.5 0.833008 -36.5 2.5
s-27.833 3.5 -38.5 5.5l-16 3l7 33c18.667 5.33301 34.5 14.166 47.5 26.499s28.5 31.166 46.5 56.499c14.667 20.667 46.334 61.667 95.001 123l19 22c6 6.66699 12.333 12.834 19 18.501l16.5 14c4.33301 3.66699 10.166 7.66699 17.499 12s12 7 14 8
s7.33301 3.83301 16 8.5l12 6l-30 9c-6.66699 2 -17.667 7 -33 15s-27.333 16.5 -36 25.5s-16.834 21.833 -24.501 38.5s-11.5 35 -11.5 55c0 39.333 8.83301 73.5 26.5 102.5s41.667 51.5 72 67.5s62.666 27.667 96.999 35s71.166 11 110.499 11
c66.667 0 110 -1.66699 130 -5s30 -10.333 30 -21c0 -10 -8 -53 -24 -129zM491 866.001l108 -22l-156 -129l-33 11z" />
    <glyph glyph-name="afii10065.var.accented" unicode="&#x430;`" horiz-adv-x="553" 
d="M539 480l16 -6c-12 -34 -23.667 -75.667 -35 -125c-36 -158 -54 -242.667 -54 -254c0 -8.66699 0.666992 -15.667 2 -21s3.33301 -9 6 -11s5 -3.16699 7 -3.5s4.66699 -0.5 8 -0.5c17.333 0 34 4.33301 50 13v-35c-56 -32 -103 -48 -141 -48c-22 0 -37 4 -45 12
s-12 24 -12 48c0 8 0.833008 18 2.5 30s3.16699 22 4.5 30l2 12h-5c-58.667 -89.333 -124.667 -134 -198 -134c-25.333 0 -47.166 9.33301 -65.499 28s-27.5 51.667 -27.5 99c0 94 31 179.667 93 257c57.333 70.667 130.666 106 219.999 106c31.333 0 63 -3.66699 95 -11
c2.66699 0.666992 15.167 3 37.5 7s35.5 6.33301 39.5 7zM381 299l25.002 113c-18.667 13.333 -40.334 20 -65.001 20c-41.333 0 -79 -37 -113 -111c-27.333 -59.333 -41 -121 -41 -185c0 -42.667 12.333 -64 37 -64c28.667 0 58.667 23.667 90 71s53.666 99.333 66.999 156
zM399.002 660l100 -21l-135 -123l-32 9z" />
    <glyph glyph-name="afii10070.var.accented" unicode="&#x435;`" horiz-adv-x="441" 
d="M468 394c0 -76.667 -69.333 -127.668 -208 -153.001l-68 -12c-2.66699 -21.333 -4 -40.333 -4 -57c0 -75.333 28.667 -113 86 -113c44.667 0 87.667 14.333 129 43v-43c-6 -5.33301 -14.5 -11.666 -25.5 -18.999s-32.667 -17.333 -65 -30s-63.833 -19 -94.5 -19
c-50 0 -89.833 13.5 -119.5 40.5s-44.5 67.5 -44.5 121.5c0 79.333 27.333 153 82 221c30 37.333 63.833 63.833 101.5 79.5s69.834 23.5 96.501 23.5c17.333 0 32.666 -0.833008 45.999 -2.5s27.333 -5 42 -10s26 -13.5 34 -25.5s12 -27 12 -45zM351 382.999
c0 29.333 -12.667 44 -38 44c-51.333 0 -89 -51 -113 -153l46 8c30 5.33301 55 17 75 35s30 40 30 66zM343 659.999l100 -21l-135 -123l-32 9z" />
    <glyph glyph-name="afii10074.var.accented" unicode="&#x438;`" horiz-adv-x="547" 
d="M533 77l4.99902 -35.9961c-5.33301 -4 -12.833 -8.83301 -22.5 -14.5s-28.167 -13.334 -55.5 -23.001s-53.333 -14.5 -78 -14.5c-38.667 0 -58 14 -58 42c0 12 4.66699 37.333 14 76c-71.333 -80 -140.666 -120 -207.999 -120c-44 0 -66 23.333 -66 70
c0 22.667 7.33301 67 22 133l20 91c11.333 56.667 17 94.334 17 113.001c0 3.33301 -0.166992 6.33301 -0.5 9s-1.16602 5 -2.49902 7s-2.33301 3.83301 -3 5.5s-2.16699 3 -4.5 4s-4 1.83301 -5 2.5s-3 1.16699 -6 1.5s-5 0.666016 -6 0.999023
s-3.33301 0.666016 -7 0.999023s-5.83398 0.5 -6.50098 0.5l4 30c67.333 11.333 112 17 134 17c29.333 0 44 -11.333 44 -34c0 -11.333 -1.66699 -25.666 -5 -42.999s-8 -39 -14 -65s-10 -44 -12 -54l-17 -81c-8.66699 -45.333 -13 -71.333 -13 -78
c0 -9.33301 1.83301 -16.5 5.5 -21.5s7.5 -8 11.5 -9s9 -1.5 15 -1.5c26 0 52.667 18.167 80 54.5s44.333 70.5 51 102.5l9 42c11.333 56.667 17 93 17 109c0 3.33301 -0.166992 6.33301 -0.5 9s-1.16602 5 -2.49902 7s-2.33301 3.83301 -3 5.5s-2.16699 3 -4.5 4
s-4 1.83301 -5 2.5s-3 1.16699 -6 1.5s-5 0.666016 -6 0.999023s-3.33301 0.666016 -7 0.999023s-5.83398 0.5 -6.50098 0.5l4 30c67.333 11.333 112 17 134 17c29.333 0 44 -11.333 44 -34c0 -21.333 -10.667 -74 -32 -158l-21 -85
c-13.333 -54.667 -20 -89.334 -20 -104.001c0 -20.667 8 -31 24 -31c14 0 30.333 5.33301 49 16zM395.999 660.004l100 -21l-135 -123l-32 9z" />
    <glyph glyph-name="afii10080.var.accented" unicode="&#x43e;`" 
d="M515 305c0 -88.667 -24.666 -162.669 -73.999 -222.002c-54 -64.667 -124.333 -97 -211 -97c-20.667 0 -40.334 2.5 -59.001 7.5s-37 13.333 -55 25s-32.333 29.334 -43 53.001s-16 51.834 -16 84.501c0 90 24.667 164.667 74 224c54 64.667 124.333 97 211 97
c47.333 0 88 -13 122 -39s51 -70.333 51 -133zM386.001 332.998c0 22 -1.66699 39.999 -5 53.999s-8.33301 23.667 -15 29s-12.5 8.83301 -17.5 10.5s-11.167 2.5 -18.5 2.5c-35.333 0 -65.666 -22.667 -90.999 -68c-13.333 -24.667 -25.5 -58.667 -36.5 -102
s-16.5 -87 -16.5 -131c0 -36 5.83301 -60.667 17.5 -74s24.5 -20 38.5 -20c35.333 0 65.666 22.667 90.999 68c13.333 24 25.5 57.833 36.5 101.5s16.5 86.834 16.5 129.501zM383.001 659.997l100 -21l-135 -123l-32 9z" />
    <glyph glyph-name="afii10085.var.accented" unicode="&#x443;`" horiz-adv-x="500" 
d="M529 437c0 -16 -13.001 -50.3311 -39.001 -102.998s-64 -119 -114 -199l-73 -116c-16.667 -26.667 -35.167 -53.334 -55.5 -80.001s-43.5 -53.667 -69.5 -81s-53.333 -49.666 -82 -66.999s-55 -26 -79 -26c-12 0 -21.333 3.5 -28 10.5s-10 15.833 -10 26.5
c0 22.667 13.333 54 40 94l19 3c8.66699 -28.667 27.667 -43 57 -43c12.667 0 24.334 5.66699 35.001 17s18 24.666 22 39.999c4 24 1 91.667 -9 203l-8 86c-8.66699 88.667 -16.667 149 -24 181c-6.66699 27.333 -26 42 -58 44l7 35c70.667 6.66699 118 10 142 10
c19.333 0 31.333 -4.83301 36 -14.5s8.33398 -34.834 11.001 -75.501c0 -4.66699 0.166992 -8.33398 0.5 -11.001s0.666016 -6.16699 0.999023 -10.5s0.5 -8.5 0.5 -12.5l8 -119c4.66699 -80.667 6 -139.667 4 -177h7l47 87c30 56.667 53.833 109.334 71.5 158.001
s26.5 82 26.5 100c0 19.333 -11.333 30 -34 32l4 27c44.667 8 79 12 103 12c14.667 0 25.167 -2.33301 31.5 -7s9.5 -12.667 9.5 -24zM372.999 660.002l100 -21l-135 -123l-32 9z" />
    <glyph glyph-name="afii10093.var.accented" unicode="&#x44b;`" horiz-adv-x="725" 
d="M714 77l4.99902 -35.9971c-5.33301 -4 -12.833 -8.83301 -22.5 -14.5s-28.167 -13.334 -55.5 -23.001s-53.333 -14.5 -78 -14.5c-38.667 0 -58 14 -58 42c0 13.333 4.66699 41 14 83l37 171c11.333 54.667 17 91 17 109c0 7.33301 -1.16699 13.166 -3.5 17.499
s-4.66602 7.33301 -6.99902 9s-5.83301 3.5 -10.5 5.5l4 30c52 11.333 89 17 111 17c31.333 0 47 -11.333 47 -34c0 -21.333 -10.667 -74 -32 -158l-21 -85c-13.333 -54.667 -20 -89.334 -20 -104.001c0 -20.667 8 -31 24 -31c14 0 30.333 5.33301 49 16zM490.999 222.003
c0 -36.667 -8.83203 -70.3291 -26.499 -100.996s-40.5 -55.334 -68.5 -74.001s-57.833 -33 -89.5 -43s-62.834 -15 -93.501 -15c-34.667 0 -68 4.33301 -100 13s-48 19 -48 31c0 6 11.333 56 34 150l23 99c12 49.333 18 86.666 18 111.999
c0 3.33301 -0.166992 6.33301 -0.5 9s-1.16602 5 -2.49902 7s-2.33301 3.83301 -3 5.5s-2.16699 3 -4.5 4s-4 1.83301 -5 2.5s-3 1.16699 -6 1.5s-5 0.666016 -6 0.999023s-3.33301 0.666016 -7 0.999023s-5.83398 0.5 -6.50098 0.5l4 30c67.333 11.333 112 17 134 17
c27.333 0 41 -11.333 41 -34c0 -13.333 -5.33301 -45.333 -16 -96l-36 -155c-3.33301 -16.667 -7.5 -34.834 -12.5 -54.501l-11.5 -46c-2.66699 -11 -4 -17.5 -4 -19.5c0 -20 13.333 -30 40 -30c30.667 0 57.667 13.667 81 41c13.333 16.667 24 38.334 32 65.001s11 49 9 67
c-0.666992 29.333 -15.667 44 -45 44c-16.667 0 -35.667 -4.33301 -57 -13l4 40c42.667 16 81.667 24 117 24c74.667 0 112 -28 112 -84zM485 660.008l100 -21l-135 -123l-32 9z" />
    <glyph glyph-name="afii10095.var.accented" unicode="&#x44d;`" horiz-adv-x="485" 
d="M486 321c0 -100 -29.667 -180.331 -89 -240.998c-62 -62.667 -133.333 -94 -214 -94c-102 0 -153 24.333 -153 73c0 14 8 27.167 24 39.5s39.667 20.166 71 23.499l11 -11c0 -51.333 20 -77 60 -77c37.333 0 67.333 15.833 90 47.5s40.667 76.834 54 135.501l-163 -14
l21 66l150 -10c6 28 9 55 9 81c0.666992 34 -5.16602 57.333 -17.499 70s-29.166 19 -50.499 19c-29.333 0 -52.333 -8.66699 -69 -26s-24.334 -38.333 -23.001 -63l-15 -12c-28.667 0 -50 4.5 -64 13.5s-21 19.833 -21 32.5c0 27.333 21.167 51.333 63.5 72
s89.166 31 140.499 31c22 0 42.833 -2.33301 62.5 -7s39.167 -12.334 58.5 -23.001s34.833 -26.834 46.5 -48.501s17.5 -47.5 17.5 -77.5zM365 660.002l100 -21l-135 -123l-32 9z" />
    <glyph glyph-name="afii10096.var.accented" unicode="&#x44e;`" horiz-adv-x="764" 
d="M767 305c0 -88.667 -24.666 -162.668 -73.999 -222.001c-54 -64.667 -124.333 -97 -211 -97c-20.667 0 -40.334 2.5 -59.001 7.5s-37 13.333 -55 25s-32.333 29.334 -43 53.001s-16 51.834 -16 84.501c0 18.667 1.66699 39.667 5 63l-87 3l-6 -26
c-14.667 -64.667 -22 -107.667 -22 -129c0 -15.333 8.33301 -23 25 -23l-7 -34c-48.667 -14 -86 -21 -112 -21c-16 0 -26.667 3.33301 -32 10s-8 17.334 -8 32.001c0 18.667 8 66 24 142l23 109c10.667 50.667 16 87.667 16 111c0 10 -2.5 17.667 -7.5 23
s-9.66699 8.16602 -14 8.49902s-11.833 0.833008 -22.5 1.5l8 36c74.667 6.66699 124 10 148 10c10 0 16.667 -2.83301 20 -8.5s5 -16.834 5 -33.501c0 -12 -5 -43 -15 -93l-15 -74l90 3c12.667 44 32 82 58 114c54 64.667 124.333 97 211 97c47.333 0 88 -13 122 -39
s51 -70.333 51 -133zM638.001 332.999c0 22 -1.66699 39.999 -5 53.999s-8.33301 23.667 -15 29s-12.5 8.83301 -17.5 10.5s-11.167 2.5 -18.5 2.5c-35.333 0 -65.666 -22.667 -90.999 -68c-13.333 -24.667 -25.5 -58.667 -36.5 -102s-16.5 -87 -16.5 -131
c0 -36 5.83301 -60.667 17.5 -74s24.5 -20 38.5 -20c35.333 0 65.666 22.667 90.999 68c13.333 24 25.5 57.833 36.5 101.5s16.5 86.834 16.5 129.501zM505.001 659.998l100 -21l-135 -123l-32 9z" />
    <glyph glyph-name="afii10097.var.accented" unicode="&#x44f;`" horiz-adv-x="555" 
d="M538 77l4.99805 -35.998c-5.33301 -4 -12.833 -8.83301 -22.5 -14.5s-28.167 -13.334 -55.5 -23.001s-53.333 -14.5 -78 -14.5c-38.667 0 -58 14 -58 42c0 14.667 13 76.667 39 186l22 91c13.333 52 20 84 20 96c0 16.667 -14 25 -42 25
c-25.333 0 -48.666 -11.5 -69.999 -34.5s-32 -55.833 -32 -98.5c0 -17.333 4.66699 -31 14 -41s18 -16 26 -18s18.667 -3.66699 32 -5l20 -2l-7 -34l-6 -1c-3.33301 -0.666992 -7.16602 -2.33398 -11.499 -5.00098s-8.83301 -6.66699 -13.5 -12l-13.5 -15.5
c-4.33301 -5 -9.5 -12 -15.5 -21s-11 -16.833 -15 -23.5s-9.66699 -15.5 -17 -26.5s-13 -19.833 -17 -26.5c-18 -28 -36.333 -48 -55 -60s-46.667 -18 -84 -18c-8.66699 0 -20.5 1.16699 -35.5 3.5s-27.833 4.83301 -38.5 7.5l-16 3l7 35
c18.667 0.666992 34 5.16699 46 13.5s25.333 21.166 40 38.499l28 33c8 9.33301 16.167 17.5 24.5 24.5s14.5 12.5 18.5 16.5s10.333 8 19 12s13.667 6.5 15 7.5s7.83301 3.33301 19.5 7s18.167 5.83398 19.5 6.50098l2 7c-76.667 12 -115 46.667 -115 104
c0 32.667 8 60.667 24 84s38 41 66 53s56.833 20.667 86.5 26s61.834 8 96.501 8c53.333 0 88.833 -1.83301 106.5 -5.5s26.5 -10.5 26.5 -20.5c0 -4 -0.833008 -10 -2.5 -18s-5.33398 -24.333 -11.001 -49l-17.5 -79l-23 -109c-1.33301 -6.66699 -4 -18.5 -8 -35.5
s-7.33301 -32 -10 -45s-4 -22.5 -4 -28.5c0 -17.333 7.33301 -26 22 -26c14 0 30.333 5.33301 49 16zM399.998 660.002l100 -21l-135 -123l-32 9z" />
    <glyph glyph-name=".notdef" horiz-adv-x="233" 
 />
    <glyph glyph-name="space" unicode=" " horiz-adv-x="233" 
 />
    <glyph glyph-name="exclam" unicode="!" horiz-adv-x="277" 
d="M190 697l140 19l-156 -505l-49 -8zM199 71c0 -28.667 -8.83301 -50.667 -26.5 -66s-37.834 -23 -60.501 -23c-42 0 -63 21.333 -63 64c0 26 8.83301 46.833 26.5 62.5s37.834 23.5 60.501 23.5c42 0 63 -20.333 63 -61z" />
    <glyph glyph-name="quotedbl" unicode="&#x22;" horiz-adv-x="312" 
d="M257 680l114 10l-73 -203l-54 -10zM109 680l112 10l-73 -203l-52 -10z" />
    <glyph glyph-name="numbersign" unicode="#" horiz-adv-x="643" 
d="M506 506h118l-10 -57h-117l-44 -249h120l-15 -60h-113l-38 -199h-63l36 200h-147l-36 -200h-63l37 201h-133l13 60h129l45 249h-130l11 55h130l36 211h63l-38 -211h147l35 211h62zM389 201l46 248h-147l-44 -248h145z" />
    <glyph glyph-name="dollar" unicode="$" 
d="M538 626c0 -10 -6.49805 -25.5 -19.498 -46.5s-32.167 -41.833 -57.5 -62.5h-23c3.33301 16 5 32.333 5 49c0 47.333 -18.667 73.333 -56 78l-51 -241l12 -7l41.5 -25c7.66699 -4.66699 19.167 -13.167 34.5 -25.5s26.166 -23.666 32.499 -33.999s12.333 -24 18 -41
s8.5 -35.5 8.5 -55.5c0 -35.333 -7.66699 -67.333 -23 -96s-35.166 -51.667 -59.499 -69s-49.5 -31 -75.5 -41s-52 -16.333 -78 -19l-14 -69l-60 -35l21 102h-28c-34.667 0 -65 6.5 -91 19.5s-39 34.5 -39 64.5c0 19.333 9.16699 38.666 27.5 57.999
s36.166 34.333 53.499 45l17 -6c-7.33301 -52 -3.33301 -87.667 12 -107s35 -29 59 -29l55 264c-44.667 26 -74.334 45.667 -89.001 59c-36.667 34.667 -55 77.667 -55 129c0 54 20.5 98.833 61.5 134.5s96.5 58.167 166.5 67.5l15 70l55 18l-18 -85
c94.667 -0.666992 142 -22 142 -64zM290.002 432l45 210c-66 -14.667 -99 -54.667 -99 -120c0 -39.333 18 -69.333 54 -90zM365.002 163c0 26.667 -4.50098 46.833 -13.501 60.5s-24.167 28.5 -45.5 44.5l-49 -233c30.667 6 56.334 19.833 77.001 41.5s31 50.5 31 86.5z" />
    <glyph glyph-name="percent" unicode="%" horiz-adv-x="698" 
d="M383 584c0 -52.667 -15.999 -99.001 -47.999 -139.001c-36.667 -44.667 -82.334 -67 -137.001 -67c-30.667 0 -57.167 8.5 -79.5 25.5s-33.5 45.833 -33.5 86.5c0 53.333 16.333 100 49 140c36.667 45.333 82 68 136 68c30.667 0 57.167 -8.66699 79.5 -26
s33.5 -46.666 33.5 -87.999zM553.001 725.999l61 -1l-188 -363l-190 -376l-79 -18l232 433zM697.001 191.999c0 -52.667 -15.999 -99.001 -47.999 -139.001c-36.667 -44.667 -82.334 -67 -137.001 -67c-30.667 0 -57.167 8.5 -79.5 25.5s-33.5 45.833 -33.5 86.5
c0 53.333 16.333 100 49 140c36.667 45.333 82 68 136 68c30.667 0 57.167 -8.66699 79.5 -26s33.5 -46.666 33.5 -87.999zM292.002 601.998c0 12 -1.16797 21.834 -3.50098 29.501s-6.16602 12.667 -11.499 15s-9.16602 3.66602 -11.499 3.99902s-6.5 0.5 -12.5 0.5
c-16 0 -30.667 -11.333 -44 -34c-22 -38 -33 -86.333 -33 -145c0 -35.333 11.333 -53 34 -53c19.333 0 35.666 13.333 48.999 40c22 44 33 91.667 33 143zM606.001 209.999c0 12 -1.16797 21.834 -3.50098 29.501s-6.16602 12.667 -11.499 15
s-9.16602 3.66602 -11.499 3.99902s-6.5 0.5 -12.5 0.5c-16 0 -30.667 -11.333 -44 -34c-22 -38 -33 -86.333 -33 -145c0 -35.333 11.333 -53 34 -53c19.333 0 35.666 13.333 48.999 40c22 44 33 91.667 33 143z" />
    <glyph glyph-name="ampersand" unicode="&#x26;" horiz-adv-x="745" 
d="M711 165l26.002 -16.002c-50 -105.333 -114.667 -158 -194 -158c-25.333 0 -46 4.33301 -62 13s-34.667 28 -56 58c-34.667 -26.667 -66.834 -46.167 -96.501 -58.5s-64.167 -18.5 -103.5 -18.5c-122 0 -183 48.667 -183 146c0 24.667 5 48.834 15 72.501
s21.333 43.334 34 59.001s29.667 32 51 49s38.333 29.333 51 37l49 29.5l-8 16c-17.333 34.667 -26 69.667 -26 105c0 52.667 20.333 97.167 61 133.5s97 54.5 169 54.5c92.667 0 139 -31.333 139 -94c0 -10 -1.33301 -19.667 -4 -29s-7.33398 -18.666 -14.001 -27.999
l-18.5 -25c-5.66699 -7.33301 -14.334 -15.666 -26.001 -24.999l-27 -21.5c-6.33301 -5 -16.666 -12 -30.999 -21l-28 -17.5c-4.33301 -2.66699 -13.833 -8.16699 -28.5 -16.5s-22.667 -12.833 -24 -13.5c34 -70 76 -141.333 126 -214c16 16 30 35.333 42 58
s18 41.667 18 57c0 8 -0.833008 14.833 -2.5 20.5s-4.16699 10.167 -7.5 13.5s-6 5.66602 -8 6.99902s-5.33301 2.83301 -10 4.5s-7.33398 2.5 -8.00098 2.5l5 24c36 8.66699 66 13 90 13c10 0 17.5 -0.333008 22.5 -1s10 -3.16699 15 -7.5s7.5 -10.833 7.5 -19.5
c0 -6.66699 -1.16699 -14.167 -3.5 -22.5s-5.83301 -17 -10.5 -26s-9.5 -17.667 -14.5 -26s-11.333 -17.5 -19 -27.5l-19.5 -25.5c-5.33301 -7 -12.166 -15.333 -20.499 -25l-18.5 -21.5l-16.5 -18.5c-7 -7.66699 -10.833 -11.834 -11.5 -12.501
c16.667 -25.333 30.5 -42.333 41.5 -51s24.833 -13 41.5 -13c28.667 0 60.667 26.667 96 80zM478.002 592.998c0 19.333 -5.33203 32.332 -15.999 38.999s-26 10 -46 10c-26.667 0 -48.834 -9 -66.501 -27s-26.5 -42 -26.5 -72c0 -23.333 6.33301 -48.666 19 -75.999l14 -31
c37.333 18 67 42.333 89 73s33 58.667 33 84zM400.003 99.9971c-36 50 -81.667 130.001 -137 240.001c-59.333 -42 -89 -98.667 -89 -170c0 -42.667 11.333 -73.334 34 -92.001s46.667 -28 72 -28c40.667 0 80.667 16.667 120 50z" />
    <glyph glyph-name="quotesingle" unicode="'" horiz-adv-x="160" 
d="M121 680l114 10l-73 -203l-54 -10z" />
    <glyph glyph-name="parenleft" unicode="(" horiz-adv-x="309" 
d="M386 770l28 -18.9971c-30.667 -30 -59.167 -63.667 -85.5 -101s-52.833 -83.833 -79.5 -139.5s-47.834 -122.334 -63.501 -200.001s-23.5 -161.167 -23.5 -250.5c0 -48.667 4.83301 -96.834 14.5 -144.501s21.834 -83.834 36.501 -108.501l-36 -19
c-82 98.667 -123 218 -123 358c0 268.667 110.667 476.667 332 624z" />
    <glyph glyph-name="parenright" unicode=")" horiz-adv-x="309" 
d="M-47 -212l-28 18.9971c30.667 30 59.167 63.667 85.5 101s52.833 83.833 79.5 139.5s47.834 122.334 63.501 200.001s23.5 161.167 23.5 250.5c0 48.667 -4.83301 96.834 -14.5 144.501s-21.834 83.834 -36.501 108.501l36 19c82 -98.667 123 -218 123 -358
c0 -268.667 -110.667 -476.667 -332 -624z" />
    <glyph glyph-name="asterisk" unicode="*" horiz-adv-x="486" 
d="M449 643l35 -61l-128 -69l127 -67l-34 -60l-125 77l4 -146h-68l7 145l-124 -78l-35 62l127 68l-127 68l35 61l123 -79l-6 146h69l-5 -146z" />
    <glyph glyph-name="plus" unicode="+" horiz-adv-x="552" 
d="M547 315l-18 -77.999c-70 1.33301 -128.333 2.33301 -175 3l4 -175l-78 -15c2 90 3 153.333 3 190l-198 -3l15 78c73.333 -2 134.333 -3.33301 183 -4l-3 173l78 18c-2.66699 -94.667 -4 -158.334 -4 -191.001z" />
    <glyph glyph-name="comma" unicode="," horiz-adv-x="221" 
d="M191 73c0 -36 -16.333 -76.332 -49 -120.999c-25.333 -32.667 -65 -65.334 -119 -98.001l-16 21l18 16c7.33301 6.66699 17.166 18.167 29.499 34.5s18.5 30.5 18.5 42.5c0 14.667 -3 29.167 -9 43.5s-9 25.5 -9 33.5c0 24 7.83301 42.667 23.5 56s36.834 20 63.501 20
c32.667 0 49 -16 49 -48z" />
    <glyph glyph-name="hyphen" unicode="-" horiz-adv-x="416" 
d="M415 321l-15 -65c-86 2.66699 -146 4 -180 4l-135 -4l15 65l158 -5z" />
    <glyph glyph-name="period" unicode="." horiz-adv-x="212" 
d="M185 71c0 -28.667 -8.83301 -50.667 -26.5 -66s-37.834 -23 -60.501 -23c-42 0 -63 21.333 -63 64c0 26 8.83301 46.833 26.5 62.5s37.834 23.5 60.501 23.5c42 0 63 -20.333 63 -61z" />
    <glyph glyph-name="slash" unicode="/" horiz-adv-x="382" 
d="M464 745l48 -28l-519 -883l-45 28z" />
    <glyph glyph-name="zero" unicode="0" 
d="M539 489c0 -70 -10.834 -137.167 -32.501 -201.5s-48.167 -119.833 -79.5 -166.5s-66.666 -80.667 -105.999 -102s-74.333 -32 -105 -32c-47.333 0 -84.5 16 -111.5 48s-40.5 82 -40.5 150c0 138 35.667 260 107 366c32 46.667 67.5 81 106.5 103s75.5 33 109.5 33
c56 0 95.333 -17 118 -51s34 -83 34 -147zM418.999 532c0 37.333 -3.66699 63.833 -11 79.5s-21.333 23.5 -42 23.5c-40.667 0 -78.334 -49.333 -113.001 -148c-16 -45.333 -31.333 -102.333 -46 -171s-22.334 -126.667 -23.001 -174c-1.33301 -68.667 17 -103 55 -103
c8 0 15.333 1.5 22 4.5s14.834 9 24.501 18s20 24.167 31 45.5s22.167 48 33.5 80c16.667 44.667 32.334 101.5 47.001 170.5s22 127.167 22 174.5z" />
    <glyph glyph-name="one" unicode="1" 
d="M432 688l13 -5.00195c-4 -14.667 -15 -61 -33 -139c-7.33301 -30.667 -22 -98 -44 -202l-44 -203c-6.66699 -32 -10 -54 -10 -66c0 -12.667 2.5 -21.667 7.5 -27s13.833 -9.33301 26.5 -12l-7 -34h-147c-16.667 0 -25 10 -25 30c0 8.66699 2 22.334 6 41.001
s9.5 41.834 16.5 69.501s12.167 49.167 15.5 64.5l54 252c7.33301 35.333 11 61 11 77c0 19.333 -3.83301 32 -11.5 38s-17.5 9 -29.5 9l-62 -4l9 38z" />
    <glyph glyph-name="two" unicode="2" 
d="M538 579c0 -32 -7.83398 -64.667 -23.501 -98s-38.167 -66.333 -67.5 -99s-56.166 -60.167 -80.499 -82.5s-53.5 -47.5 -87.5 -75.5l-148 -122c39.333 -2 91 -0.666992 155 4c38 2.66699 65.833 7.5 83.5 14.5s35.5 22.5 53.5 46.5l33 -6l-82 -154l-62 -5
c-41.333 -2.66699 -84.333 -4 -129 -4l-177 5l38 92c81.333 57.333 155 119.333 221 186c92 93.333 138 180 138 260c0 50.667 -22.333 76 -67 76c-44 0 -95 -28.667 -153 -86l-27 26c84.667 88.667 171 133 259 133c82 0 123 -37 123 -111z" />
    <glyph glyph-name="three" unicode="3" 
d="M524 597c0 -26 -5.5 -50.167 -16.5 -72.5s-27.167 -42.5 -48.5 -60.5s-40.833 -32.667 -58.5 -44s-40.167 -24 -67.5 -38v-5c9.33301 0 18.833 -0.5 28.5 -1.5s21.667 -3.5 36 -7.5s26.833 -9.66699 37.5 -17s19.834 -18 27.501 -32s11.5 -30.667 11.5 -50
c0 -113.333 -83.333 -200.333 -250 -261c-24 -8.66699 -53.333 -15.667 -88 -21s-63.334 -8.33301 -86.001 -9l-34 -1l14 43c56.667 2.66699 114.334 18.334 173.001 47.001c88 42 132 109.333 132 202c0 41.333 -21 62 -63 62c-16.667 0 -35.667 -3 -57 -9l-38 -10l11 45
l36 13c111.333 41.333 167 106.666 167 195.999c0 37.333 -19.333 56 -58 56c-50.667 0 -101 -18 -151 -54l-5 40c73.333 52.667 149.666 79 228.999 79c78.667 0 118 -30 118 -90z" />
    <glyph glyph-name="four" unicode="4" 
d="M465 700l51.999 -11.001c-7.33301 -27.333 -19 -75.666 -35 -144.999c-8 -32 -20.333 -87.667 -37 -167s-27.334 -129 -32.001 -149l78 11l-29 -80c-23.333 -4.66699 -46.666 -7.33398 -69.999 -8.00098c-4.66699 -18.667 -10.5 -40.167 -17.5 -64.5
s-12.833 -43.833 -17.5 -58.5l-7 -23c-15.333 -14.667 -34 -25.667 -56 -33s-40 -11.333 -54 -12h-22c6 18.667 21.667 82.334 47 191.001c-7.33301 0 -21.666 -0.666992 -42.999 -2s-38.333 -2 -51 -2l-127 7l14 58zM280.999 222.999l65 268l-216 -266
c42.667 -2.66699 75.667 -4 99 -4c8 0 25.333 0.666992 52 2z" />
    <glyph glyph-name="five" unicode="5" 
d="M540 738l31.998 -6.00098l-63 -154c-18 -8 -55.333 -13.667 -112 -17s-110 -4.33301 -160 -3l-43 -160c34 7.33301 68.667 11 104 11c12.667 0 24.834 -0.5 36.501 -1.5s26.334 -4 44.001 -9s32.667 -11.667 45 -20s23.166 -20.5 32.499 -36.5s14 -35 14 -57
c0 -61.333 -22 -115.166 -66 -161.499s-107.333 -83.5 -190 -111.5c-24 -8 -51.833 -15 -83.5 -21s-57.167 -9.66699 -76.5 -11l-30 -3l14 43c48.667 2.66699 102.334 18.334 161.001 47.001c38 18 69.667 44.833 95 80.5s38 79.167 38 130.5c0 52 -27.333 78 -82 78
c-18 0 -34.833 -2 -50.5 -6s-30.667 -9.33301 -45 -16s-22.833 -10.334 -25.5 -11.001l-10 8l95 338c48.667 -2.66699 103 -3.66699 163 -3c44 1.33301 77.833 6.83301 101.5 16.5s44.167 28.167 61.5 55.5z" />
    <glyph glyph-name="six" unicode="6" 
d="M497 313c0 -90 -27.668 -166.832 -83.001 -230.499s-120.333 -95.5 -195 -95.5c-100.667 0 -151 58.333 -151 175c0 139.333 55 267 165 383c74 76 156.667 127.667 248 155l7 -37c-79.333 -30.667 -148.666 -93.5 -207.999 -188.5s-89 -205.167 -89 -330.5
c0 -28.667 4.5 -53.334 13.5 -74.001s22.833 -31 41.5 -31c28 0 51.667 15.5 71 46.5s32.5 64.833 39.5 101.5s10.5 72.667 10.5 108c0 28 -5 48 -15 60s-25.333 18 -46 18c-14.667 0 -32.667 -4.66699 -54 -14l12 42c34.667 19.333 70.667 29 108 29
c83.333 0 125 -39 125 -117z" />
    <glyph glyph-name="seven" unicode="7" 
d="M555 684l-27.001 -81l-352 -603l-104 -10l398 591c-1.33301 0 -10.333 0.333008 -27 1s-35.834 1 -57.501 1s-43.167 -0.666992 -64.5 -2c-46.667 -3.33301 -80.834 -8.83301 -102.501 -16.5s-45.167 -24.834 -70.5 -51.501l-23 14l78 142
c6 2.66699 14.167 4.83398 24.5 6.50098s23.833 3 40.5 4s31.834 1.83301 45.501 2.5s32.834 1.16699 57.501 1.5s43.834 0.5 57.501 0.5h65h61.5z" />
    <glyph glyph-name="eight" unicode="8" 
d="M543 575c0 -20 -3.16406 -39.0029 -9.49707 -57.0029s-13.833 -32.833 -22.5 -44.5s-19.834 -23.167 -33.501 -34.5s-25.334 -19.833 -35.001 -25.5l-34.5 -19.5c-13.333 -7.33301 -21.666 -12 -24.999 -14c19.333 -14.667 34.833 -27.5 46.5 -38.5
s23.5 -27.667 35.5 -50s18 -46.166 18 -71.499c0 -64.667 -25.333 -119.667 -76 -165s-113.667 -68 -189 -68c-54 0 -94.5 12.333 -121.5 37s-40.5 57.667 -40.5 99c0 32.667 6.5 62.667 19.5 90s30.167 49.833 51.5 67.5s41.666 31.834 60.999 42.501s39 19.334 59 26.001
c-54.667 52 -82 100.667 -82 146c0 39.333 9.16699 72.833 27.5 100.5s41.166 47.5 68.499 59.5s51.5 20.333 72.5 25s39.5 7 55.5 7c102.667 0 154 -37.333 154 -112zM449.003 557.997c0 51.333 -23.999 76.998 -71.999 76.998c-26.667 0 -49.334 -9.33301 -68.001 -28
s-28 -46 -28 -82c0 -48 21.333 -87.333 64 -118c25.333 12.667 49 31.834 71 57.501s33 56.834 33 93.501zM354.004 195.995c0 29.333 -5.83301 52.833 -17.5 70.5s-29.5 35.5 -53.5 53.5c-82.667 -42 -124 -104.333 -124 -187c0 -29.333 6.83301 -52.333 20.5 -69
s32.5 -25 56.5 -25c36.667 0 65.5 15.5 86.5 46.5s31.5 67.833 31.5 110.5z" />
    <glyph glyph-name="nine" unicode="9" 
d="M529 512c0 -139.333 -54.999 -267 -164.999 -383c-74 -76 -156.667 -127.667 -248 -155l-7 37c79.333 30.667 148.666 93.5 207.999 188.5s89 205.167 89 330.5c0 28.667 -4.5 53.334 -13.5 74.001s-22.833 31 -41.5 31c-28 0 -51.667 -15.5 -71 -46.5
s-32.5 -64.833 -39.5 -101.5s-10.5 -72.667 -10.5 -108c0 -28 5 -48 15 -60s25.333 -18 46 -18c15.333 0 33.333 4.66699 54 14l-12 -42c-34.667 -19.333 -70.667 -29 -108 -29c-32 0 -60.833 10.667 -86.5 32s-38.5 55.666 -38.5 102.999
c0 84.667 28.167 157.167 84.5 217.5s120.833 90.5 193.5 90.5c100.667 0 151 -58.333 151 -175z" />
    <glyph glyph-name="colon" unicode=":" horiz-adv-x="190" 
d="M221 417c0 -24 -7.33301 -42.333 -22 -55s-31.334 -19 -50.001 -19c-34.667 0 -52 17.667 -52 53c0 21.333 7.33301 38.5 22 51.5s31.334 19.5 50.001 19.5c34.667 0 52 -16.667 52 -50zM167 65c0 -24 -7.33301 -42.333 -22 -55s-31.334 -19 -50.001 -19
c-34.667 0 -52 17.667 -52 53c0 21.333 7.33301 38.5 22 51.5s31.334 19.5 50.001 19.5c34.667 0 52 -16.667 52 -50z" />
    <glyph glyph-name="semicolon" unicode=";" horiz-adv-x="190" 
d="M221 417c0 -24 -7.33301 -42.333 -22 -55s-31.334 -19 -50.001 -19c-34.667 0 -52 17.667 -52 53c0 21.333 7.33301 38.5 22 51.5s31.334 19.5 50.001 19.5c34.667 0 52 -16.667 52 -50zM191 73c0 -36 -16.333 -76.332 -49 -120.999
c-25.333 -32.667 -65 -65.334 -119 -98.001l-16 21l18 16c7.33301 6.66699 17.166 18.167 29.499 34.5s18.5 30.5 18.5 42.5c0 14.667 -3 29.167 -9 43.5s-9 25.5 -9 33.5c0 24 7.83301 42.667 23.5 56s36.834 20 63.501 20c32.667 0 49 -16 49 -48z" />
    <glyph glyph-name="less" unicode="&#x3c;" horiz-adv-x="581" 
d="M187 271l357 -174l-30 -53l-437 215v24l437 215l30 -53z" />
    <glyph glyph-name="equal" unicode="=" horiz-adv-x="549" 
d="M539 360l-14 -67l-226 3l-205 -4l11 68c90 -1.33301 157.333 -2 202 -2zM539 214l-14 -67l-226 3l-205 -4l11 68c90 -1.33301 157.333 -2 202 -2z" />
    <glyph glyph-name="greater" unicode="&#x3e;" horiz-adv-x="581" 
d="M116 97l357 174l-357 174l30 53l437 -215v-24l-437 -215z" />
    <glyph glyph-name="question" unicode="?" horiz-adv-x="451" 
d="M511 575c0 -24 -3.5 -46.333 -10.5 -67s-18.5 -40.167 -34.5 -58.5s-30.167 -33.166 -42.5 -44.499s-30.5 -26.333 -54.5 -45s-40.667 -32 -50 -40c-20 -17.333 -34.833 -30.666 -44.5 -39.999s-20.5 -22 -32.5 -38s-21.667 -33.333 -29 -52l-45 -9
c17.333 55.333 38.666 99.666 63.999 132.999c6 8 19.5 24.833 40.5 50.5s37.167 46.5 48.5 62.5s22.333 38 33 66s16 56 16 84c0 44.667 -20 67 -60 67c-30 0 -53.5 -8.83301 -70.5 -26.5s-26.5 -39.834 -28.5 -66.501c-1.33301 -12 0 -26.667 4 -44
c-23.333 -18 -49.666 -27 -78.999 -27c-27.333 0 -41 13.667 -41 41c0 43.333 25.833 82.833 77.5 118.5s112.167 53.5 181.5 53.5c16.667 0 32.667 -1.33301 48 -4s31.833 -7.66699 49.5 -15s32 -19.5 43 -36.5s16.5 -37.833 16.5 -62.5zM245 71
c0 -28.667 -8.83301 -50.667 -26.5 -66s-37.834 -23 -60.501 -23c-42 0 -63 21.333 -63 64c0 26 8.83301 46.833 26.5 62.5s37.834 23.5 60.501 23.5c42 0 63 -20.333 63 -61z" />
    <glyph glyph-name="at" unicode="@" horiz-adv-x="861" 
d="M878 416c0 -58.667 -16.3359 -112.834 -49.0029 -162.501s-72.167 -87.5 -118.5 -113.5s-92.166 -39 -137.499 -39c-16 0 -28.167 3.33301 -36.5 10s-12.5 19.667 -12.5 39l8 58h-5c-48.667 -73.333 -102.667 -110 -162 -110c-20 0 -37.5 7.83301 -52.5 23.5
s-22.5 42.834 -22.5 81.501c0 31.333 6.83301 67 20.5 107s31.834 74 54.501 102c47.333 58 107 87 179 87c14 0 40 -3 78 -9l63 11l13 -3c-9.33301 -29.333 -18.666 -64 -27.999 -104c-28.667 -123.333 -43 -192.666 -43 -207.999c0 -8.66699 1 -15.167 3 -19.5
s4 -6.83301 6 -7.5s4.66699 -1 8 -1c11.333 0 25.5 5 42.5 15s34.333 24.5 52 43.5s32.834 45 45.501 78s19 69.5 19 109.5c0 78 -25.333 142.5 -76 193.5s-119 76.5 -205 76.5c-108 0 -193.667 -37.667 -257 -113s-95 -174.666 -95 -297.999
c0 -108 28.667 -192.5 86 -253.5s141 -91.5 251 -91.5c99.333 0 187.666 30 264.999 90l13 -33c-92 -68.667 -192.333 -103 -301 -103c-68.667 0 -129.667 10.5 -183 31.5s-96 49.667 -128 86s-56 77.666 -72 123.999s-24 96.166 -24 149.499
c0 130 43.167 237.333 129.5 322s192.5 127 318.5 127c111.333 0 198 -27.5 260 -82.5s93 -126.167 93 -213.5zM555.997 354l21.002 91.999c-12.667 10.667 -30.334 16 -53.001 16c-16.667 0 -33.167 -8 -49.5 -24s-30.5 -38 -42.5 -66c-22.667 -48.667 -34 -99 -34 -151
c0 -35.333 9.66699 -53 29 -53c24 0 48.667 19.333 74 58s43.666 81.334 54.999 128.001z" />
    <glyph glyph-name="A" unicode="A" horiz-adv-x="589" 
d="M580 40l-11 -41.998c-46 -3.33301 -77.333 -5 -94 -5c-28.667 0 -48.667 5 -60 15s-18 29.333 -20 58c-0.666992 11.333 -1.16699 26.166 -1.5 44.499s-0.666016 41.166 -0.999023 68.499s-0.833008 51 -1.5 71l-197 2c-44 -82 -66 -144 -66 -186
c0 -14.667 7.33301 -27.334 22 -38.001l-8 -30c-42.667 -3.33301 -73.667 -5 -93 -5c-28 0 -42 10.333 -42 31c0 28 30 92.667 90 194l87 146l32.5 52l35 56.5l29 49c9.66699 17 17.167 31.833 22.5 44.5s8 22.667 8 30c0 6.66699 -2.16699 11.5 -6.5 14.5
s-9.16602 5 -14.499 6s-12.333 1.5 -21 1.5h-5l8 36c103.333 22 168.666 33 195.999 33c20.667 0 33.167 -6 37.5 -18s7.16602 -40 8.49902 -84c0.666992 -8.66699 1 -15.334 1 -20.001l9 -289c2.66699 -95.333 4.66699 -146.666 6 -153.999
c4.66699 -29.333 10.167 -50.166 16.5 -62.499s17.5 -18.833 33.5 -19.5zM221 302.002l170 -6l-4 214c0 54.667 -1 90 -3 106h-3l-60 -120z" />
    <glyph glyph-name="B" unicode="B" horiz-adv-x="581" 
d="M601 573c0 -29.333 -5.66992 -56.3281 -17.0029 -80.9951s-26.166 -44.834 -44.499 -60.501s-35.666 -28 -51.999 -37s-32.5 -16.167 -48.5 -21.5l-1 -6c18 -4.66699 33 -9.66699 45 -15s24.833 -12.833 38.5 -22.5s24 -22.667 31 -39s10.5 -35.5 10.5 -57.5
c0 -40.667 -9.5 -77.334 -28.5 -110.001s-44 -58.834 -75 -78.501s-64.667 -34.5 -101 -44.5s-73.166 -15 -110.499 -15c-54.667 0 -108.334 5 -161.001 15c-16.667 3.33301 -25 11.333 -25 24c0 5.33301 1.83301 15.5 5.5 30.5l16 66.5l19.5 84l53 250
c4 18 8 39.833 12 65.5s6.66699 43.167 8 52.5c0 7.33301 0.5 13.666 1.5 18.999s0.5 10 -1.5 14s-3.33301 7.33301 -4 10s-2.66699 5 -6 7s-5.66602 3.5 -6.99902 4.5s-4 1.66699 -8 2s-7 0.666016 -9 0.999023s-5.16699 0.5 -9.5 0.5h-8.5l9 42c142 9.33301 246 14 312 14
c16 0 30 -0.5 42 -1.5s25.667 -3.66699 41 -8s27.833 -10.5 37.5 -18.5s18 -19.333 25 -34s10.5 -32 10.5 -52zM463.997 561.005c0 24.667 -5.99902 43.167 -17.999 55.5s-27.667 18.5 -47 18.5c-32 0 -55 -7 -69 -21c-8.66699 -8.66699 -17.334 -33 -26.001 -73
c-1.33301 -6 -6.33301 -32.333 -15 -79s-14 -75 -16 -85l67 4c38.667 2.66699 69 20.167 91 52.5s33 74.833 33 127.5zM424.998 246.005c0 28 -8.16699 49.332 -24.5 63.999s-38.5 22 -66.5 22c-14.667 0 -38.667 -3 -72 -9l-27 -116c-20.667 -92 -31 -139.333 -31 -142
c0 -18.667 19.333 -28 58 -28c51.333 0 94 25.667 128 77c9.33301 12.667 17.5 31.334 24.5 56.001s10.5 50 10.5 76z" />
    <glyph glyph-name="C" unicode="C" horiz-adv-x="541" 
d="M589 615c0 -16 -8.66797 -34.668 -26.001 -56.001s-43.333 -40 -78 -56l-17 16c6 24 9 44 9 60c0 37.333 -18 56 -54 56c-28.667 0 -58.167 -15 -88.5 -45s-56.833 -71.667 -79.5 -125c-32 -78 -48 -163 -48 -255c0 -46.667 11.5 -83.334 34.5 -110.001
s52.5 -40 88.5 -40c64 0 124.333 26 181 78l8 -47l-11.5 -11c-5 -4.66699 -15.667 -13 -32 -25s-33.333 -22.667 -51 -32s-40.167 -17.666 -67.5 -24.999s-54.666 -11 -81.999 -11c-62 0 -112.167 17.333 -150.5 52s-57.5 88 -57.5 160c0 159.333 50.667 289 152 389
c36 34.667 73.833 59.834 113.5 75.501s75.167 23.5 106.5 23.5c100 0 150 -24 150 -72z" />
    <glyph glyph-name="D" unicode="D" horiz-adv-x="657" 
d="M672 473c0 -120.667 -37.999 -231.997 -113.999 -333.997c-75.333 -101.333 -182.333 -152 -321 -152c-56.667 0 -105.334 4.66699 -146.001 14c-19.333 4 -29 12.667 -29 26c0 5.33301 1.83301 15.333 5.5 30l16 64.5c7 28.333 13.5 56.166 19.5 83.499l53 250
c13.333 64 20 108 20 132c0 10.667 -1.16699 19.167 -3.5 25.5s-6.83301 10.666 -13.5 12.999s-11.667 3.66602 -15 3.99902s-10 0.833008 -20 1.5l9 42c121.333 9.33301 215 14 281 14c172 0 258 -71.333 258 -214zM531.001 488.003c0 27.333 -3.66699 50.8311 -11 70.498
s-15.833 34.167 -25.5 43.5s-21.667 16.833 -36 22.5s-25.5 8.83398 -33.5 9.50098s-17.333 1 -28 1c-30 0 -52 -7 -66 -21c-9.33301 -8 -18 -30.667 -26 -68c-2 -10 -8 -41.667 -18 -95s-18 -94.666 -24 -123.999l-34 -147.5c-14 -59 -21.333 -90.833 -22 -95.5
c-3.33301 -15.333 -2 -26.666 4 -33.999s20.333 -11 43 -11c36.667 0 72.667 11 108 33s66.333 57.667 93 107c21.333 40 39.333 88.667 54 146s22 111.666 22 162.999z" />
    <glyph glyph-name="E" unicode="E" horiz-adv-x="548" 
d="M612 647c0 -15.333 -10.0029 -37.333 -30.0029 -66s-41 -52.667 -63 -72l-39 -5c13.333 36.667 20 63.667 20 81s-6.5 30 -19.5 38s-34.167 12 -63.5 12c-44 0 -73 -7 -87 -21c-11.333 -10 -20.333 -34.333 -27 -73c-1.33301 -8.66699 -6.66602 -36.5 -15.999 -83.5
l-16 -80.5l185 4l-26 -70c-25.333 5.33301 -82.333 10 -171 14l-26 -120c-14.667 -66 -22 -104.667 -22 -116c0 -14.667 6.5 -25.5 19.5 -32.5s37.5 -10.5 73.5 -10.5c25.333 0 49 4.33301 71 13s41.333 21.167 58 37.5s29.834 30.833 39.501 43.5s20.167 28 31.5 46l31 -6
l-55 -173c-30 -8.66699 -102 -13 -216 -13c-92.667 0 -152 2 -178 6c-16.667 2.66699 -25 11.667 -25 27c0 5.33301 1.83301 15.333 5.5 30l16 64.5c7 28.333 13.5 56.166 19.5 83.499l53 250c14.667 68.667 22 113.667 22 135c0 12.667 -3.16699 22.167 -9.5 28.5
s-12.166 9.83301 -17.499 10.5s-14 1.33398 -26 2.00098l9 42c142 9.33301 246 14 312 14c62.667 0 106.167 -2.5 130.5 -7.5s36.5 -15.833 36.5 -32.5z" />
    <glyph glyph-name="F" unicode="F" horiz-adv-x="513" 
d="M605 647c0 -15.333 -10.0029 -37.335 -30.0029 -66.002s-41 -52.667 -63 -72l-39 -5c13.333 36.667 20 63.667 20 81c0 18 -5.5 30.833 -16.5 38.5s-30.833 11.5 -59.5 11.5c-44 0 -73 -7 -87 -21c-11.333 -10 -20.333 -34.333 -27 -73
c-5.33301 -43.333 -15.666 -98 -30.999 -164l184 4l-26 -70c-25.333 5.33301 -81.666 10 -168.999 14l-39 -186c-6.66699 -31.333 -10 -53.333 -10 -66s3.66699 -21.667 11 -27s20.333 -9.33301 39 -12l-7 -34h-166c-16.667 0 -25 10 -25 30
c0 8.66699 2.5 24.334 7.5 47.001s11 47.667 18 75s11.167 45 12.5 53l53 250c14.667 68 22 113 22 135c0 12.667 -3.16699 22.167 -9.5 28.5s-12.166 9.83301 -17.499 10.5s-14 1.33398 -26 2.00098l9 42c142 9.33301 246 14 312 14c62 0 104.167 -2.5 126.5 -7.5
s33.5 -15.833 33.5 -32.5z" />
    <glyph glyph-name="G" unicode="G" horiz-adv-x="609" 
d="M629 609c0 -32.667 -34.665 -68 -103.998 -106l-17 16c5.33301 19.333 8 37.666 8 54.999c0 40.667 -22 61 -66 61c-32 0 -64.333 -15 -97 -45s-61.667 -71.333 -87 -124c-39.333 -80 -59 -165.333 -59 -256c0 -104 33 -156 99 -156c46.667 0 81 11 103 33
c23.333 101.333 35 166.333 35 195c0 12.667 -4.5 21.334 -13.5 26.001s-27.833 7 -56.5 7l9 43l207 17l12 -5c-8.66699 -28 -20 -72.333 -34 -133l-33 -141c-2.66699 -2.66699 -6.83398 -6.5 -12.501 -11.5s-17.834 -13.833 -36.501 -26.5s-38.5 -23.667 -59.5 -33
s-48.167 -18 -81.5 -26s-67.666 -12 -102.999 -12c-116.667 0 -175 67.333 -175 202c0 82.667 15.667 158.667 47 228s70.666 125.333 117.999 168c75.333 68 156.333 102 243 102c102.667 0 154 -26 154 -78z" />
    <glyph glyph-name="H" unicode="H" horiz-adv-x="659" 
d="M677 659c0 -7.33301 -3.33203 -28.6709 -9.99902 -64.0039l-53 -246c-23.333 -105.333 -38.333 -175.333 -45 -210s-10 -56.667 -10 -66c0 -12.667 2.5 -21.667 7.5 -27s13.833 -9.33301 26.5 -12l-7 -34h-147c-16.667 0 -25 10 -25 30c0 8.66699 2.5 24.334 7.5 47.001
s11 47.667 18 75s11.167 45 12.5 53l29 134l-217 3l-44 -203c-6.66699 -31.333 -10 -53.333 -10 -66s2.5 -21.667 7.5 -27s13.833 -9.33301 26.5 -12l-7 -34h-147c-16.667 0 -25 10 -25 30c0 10 12.667 68.333 38 175l29 127c32 140 48 227.667 48 263
c0 16 -3.83301 27.167 -11.5 33.5s-21.834 10.833 -42.501 13.5l7 34c65.333 8 117 12 155 12c10.667 0 18.167 -0.333008 22.5 -1s8.33301 -3.16699 12 -7.5s5.5 -11.166 5.5 -20.499c0 -7.33301 -3.33301 -28.666 -10 -63.999l-44 -205l220 10l12 55
c15.333 72 23 118.667 23 140c0 16 -2.66699 26.833 -8 32.5s-16 10.5 -32 14.5l7 34c56 8 103 12 141 12c10.667 0 18.167 -0.333008 22.5 -1s8.33301 -3.16699 12 -7.5s5.5 -11.166 5.5 -20.499z" />
    <glyph glyph-name="I" unicode="I" horiz-adv-x="304" 
d="M328 659c0 -7.33301 -3.33203 -28.6689 -9.99902 -64.002l-54 -253l-44 -203c-6.66699 -31.333 -10 -53.333 -10 -66s2.5 -21.667 7.5 -27s13.833 -9.33301 26.5 -12l-7 -34h-147c-16.667 0 -25 10 -25 30c0 10 12.667 68.333 38 175c5.33301 18.667 15 61 29 127
c32 150.667 48 238.334 48 263.001c0 16 -3.83301 27.167 -11.5 33.5s-21.834 10.833 -42.501 13.5l7 34c65.333 8 117 12 155 12c10.667 0 18.167 -0.333008 22.5 -1s8.33301 -3.16699 12 -7.5s5.5 -11.166 5.5 -20.499z" />
    <glyph glyph-name="J" unicode="J" horiz-adv-x="313" 
d="M345 659c0 -7.33301 -3.33301 -28.668 -10 -64.001l-27.5 -128c-13.667 -63.333 -22.5 -105 -26.5 -125l-29 -143c-22.667 -104 -47.334 -179 -74.001 -225c-23.333 -41.333 -55.5 -75 -96.5 -101s-81.833 -39 -122.5 -39c-62.667 0 -94 17 -94 51
c0 8.66699 1.83301 16.334 5.5 23.001s9.83398 12.667 18.501 18s15.5 9.16602 20.5 11.499s13.833 5.66602 26.5 9.99902s19.334 6.83301 20.001 7.5l10 -12c0 -38.667 10.667 -58 32 -58c42.667 0 74 50 94 150c2.66699 10.667 10.167 50.5 22.5 119.5
s21.5 117.167 27.5 144.5l7 33c32 148.667 48 236.334 48 263.001c0 16 -3.83301 27.167 -11.5 33.5s-21.834 10.833 -42.501 13.5l7 34c65.333 8 117 12 155 12c10.667 0 18.167 -0.333008 22.5 -1s8.33301 -3.16699 12 -7.5s5.5 -11.166 5.5 -20.499z" />
    <glyph glyph-name="K" unicode="K" horiz-adv-x="608" 
d="M653 667c0 -8.66699 -10.3311 -27.332 -30.998 -55.999s-41.334 -54.667 -62.001 -78c-49.333 -52.667 -101 -101.667 -155 -147c22.667 -28 44.667 -73 66 -135c32 -90.667 51.667 -142.667 59 -156c8 -14 16.167 -23.833 24.5 -29.5s20.833 -10.5 37.5 -14.5l-7 -34
c-53.333 -15.333 -94.333 -23 -123 -23c-6 0 -11.5 0.5 -16.5 1.5s-9.5 2.83301 -13.5 5.5l-10 6.5c-2.66699 1.66699 -5.5 5 -8.5 10s-5.16699 8.33301 -6.5 10s-3.66602 6 -6.99902 13s-5.33301 11.5 -6 13.5c-4.66699 10.667 -12.334 35.5 -23.001 74.5
s-16.667 60.167 -18 63.5c-12 35.333 -20.5 59.666 -25.5 72.999s-11.333 25.333 -19 36s-16.834 17.334 -27.501 20.001l-12 3l9 33c30 12 61 31 93 57s58 51.333 78 76c37.333 44.667 56 83.667 56 117c0 17.333 -8.66699 28.666 -26 33.999l7 34c76.667 8 123 12 139 12
c10.667 0 18 -1.16699 22 -3.5s6 -7.83301 6 -16.5zM328.002 659.002c0 -7.33301 -3.33203 -28.6689 -9.99902 -64.002l-54 -253l-44 -203c-6.66699 -31.333 -10 -53.333 -10 -66s2.5 -21.667 7.5 -27s13.833 -9.33301 26.5 -12l-7 -34h-147c-16.667 0 -25 10 -25 30
c0 10 12.667 68.333 38 175l29 127c32 138.667 48 226.334 48 263.001c0 16 -3.83301 27.167 -11.5 33.5s-21.834 10.833 -42.501 13.5l7 34c65.333 8 117 12 155 12c10.667 0 18.167 -0.333008 22.5 -1s8.33301 -3.16699 12 -7.5s5.5 -11.166 5.5 -20.499z" />
    <glyph glyph-name="L" unicode="L" horiz-adv-x="509" 
d="M489 186l31 -6.00098l-54 -178c-41.333 -5.33301 -108.666 -8 -201.999 -8c-92.667 0 -152 2 -178 6c-16.667 2.66699 -25 11.667 -25 27c0 5.33301 1.83301 15.333 5.5 30l16 64.5c7 28.333 13.5 56.166 19.5 83.499l54 250c16 77.333 24 124 24 140
s-3.83301 27.167 -11.5 33.5s-21.834 10.833 -42.501 13.5l7 34c65.333 8 117 12 155 12c10.667 0 18.167 -0.333008 22.5 -1s8.33301 -3.16699 12 -7.5s5.5 -11.166 5.5 -20.499c0 -7.33301 -3.33301 -28.666 -10 -63.999l-48 -225l-24.5 -111.5l-25.5 -118.5
c-5.33301 -26 -8 -43 -8 -51c0 -15.333 5.83301 -26.333 17.5 -33s33.5 -10 65.5 -10c45.333 0 81 9.83301 107 29.5s55 56.5 87 110.5z" />
    <glyph glyph-name="M" unicode="M" horiz-adv-x="832" 
d="M833 672c0 -13.333 -2.33203 -37.668 -6.99902 -73.001l-29 -242c-16.667 -131.333 -25 -216.666 -25 -255.999c0 -38 16 -60 48 -66l-7 -36c-54 -4 -92 -6 -114 -6c-26.667 0 -45.334 4 -56.001 12s-16 25.333 -16 52c0 10.667 16.667 143 50 397l16 123l-133 -274
c-66 -135.333 -111.333 -220.666 -136 -255.999c-38 -35.333 -67.667 -53 -89 -53c-8.66699 0 -14.167 4.83301 -16.5 14.5s-3.5 29.5 -3.5 59.5v19l-8 495l-44 -95c-33.333 -70.667 -63 -144.834 -89 -222.501s-39 -134.834 -39 -171.501c0 -29.333 10.667 -47.333 32 -54
l-7 -33c-50 -8.66699 -83 -13 -99 -13c-14.667 0 -24.167 3.5 -28.5 10.5s-6.5 16.833 -6.5 29.5c0 48 31.333 136.333 94 265l76 157c36.667 75.333 55 123.333 55 144c0 17.333 -16.667 27.333 -50 30l8 39c107.333 14 169.333 21 186 21c20 0 32.333 -4.33301 37 -13
s7.33398 -28 8.00098 -58c0 -116.667 0.333008 -197 1 -241l2 -206l113 243c68 146 107.667 224 119 234c14.667 12 37.167 21.667 67.5 29s52.166 11 65.499 11h8h6.5c1 0 2.5 -0.166992 4.5 -0.5s3.16699 -1.16602 3.5 -2.49902s0.833008 -3 1.5 -5s1 -4.66699 1 -8z" />
    <glyph glyph-name="N" unicode="N" horiz-adv-x="656" 
d="M698 668c0 -6.66699 -2.16602 -18.9971 -6.49902 -36.9971s-10.833 -43.167 -19.5 -75.5s-15.667 -60.5 -21 -84.5c-24.667 -100 -44.667 -184 -60 -252c-6 -25.333 -12.833 -56.333 -20.5 -93l-18.5 -91l-6 -36l-51 -9c-31.333 46 -83.333 154.333 -156 325l-34.5 79.5
l-39 91l-23.5 55.5c-15.333 -65.333 -28.333 -124 -39 -176c-30 -145.333 -45 -232.333 -45 -261v-9.5v-11.5c0 -2 0.333008 -5.66699 1 -11s1.66699 -9.5 3 -12.5s3 -6.5 5 -10.5s5 -7.5 9 -10.5s8.33301 -5.83301 13 -8.5l-7 -31c-34 -2.66699 -58.667 -4 -74 -4
c-11.333 0 -19.333 0.333008 -24 1s-8.66699 2.66699 -12 6s-5 8.66602 -5 15.999c0 10.667 1.5 23.667 4.5 39s8.66699 39.166 17 71.499l19.5 77.5l59 252c16 68.667 24 110.667 24 126c0 8 -1.16699 14.667 -3.5 20s-6.83301 9.33301 -13.5 12l-14 5.5
c-2.66699 1 -9 1.83301 -19 2.5l-15 2l5 42c89.333 14 142.666 21 159.999 21c11.333 0 19.5 -1 24.5 -3s10.833 -8.16699 17.5 -18.5s14.667 -27.5 24 -51.5l71 -184c14 -34 33.667 -79.167 59 -135.5s40.333 -90.5 45 -102.5l25 114c12 54.667 20.333 93.5 25 116.5
s9.5 51.167 14.5 84.5s7.5 60.666 7.5 81.999c0 25.333 -13.333 42 -40 50l7 34c40 8 73.667 12 101 12c6.66699 0 12.667 -1.83301 18 -5.5s8 -8.16699 8 -13.5z" />
    <glyph glyph-name="O" unicode="O" horiz-adv-x="662" 
d="M683 468c0 -50.667 -10.667 -107.332 -32 -169.999s-49.666 -117 -84.999 -163c-77.333 -98.667 -168 -148 -272 -148c-41.333 0 -77.166 6.5 -107.499 19.5s-53.833 31 -70.5 54s-28.834 47.833 -36.501 74.5s-11.5 55.667 -11.5 87c0 60 10.167 118.667 30.5 176
s48.166 106.333 83.499 147c83.333 94.667 175 142 275 142c73.333 0 129.333 -16.333 168 -49s58 -89.334 58 -170.001zM542 495.002c0 93.333 -33.999 140 -101.999 140c-64.667 0 -119.334 -50.333 -164.001 -151c-18.667 -42 -34.5 -90.833 -47.5 -146.5
s-19.5 -108.5 -19.5 -158.5c0 -46 9.66699 -80.833 29 -104.5s45 -35.5 77 -35.5c64 0 117.333 50.333 160 151c44.667 105.333 67 207 67 305z" />
    <glyph glyph-name="P" unicode="P" horiz-adv-x="564" 
d="M621 564c0 -76.667 -28.667 -139.001 -86 -187.001c-46.667 -39.333 -109.667 -64 -189 -74c-16 -2 -42.667 -3 -80 -3l10 46c10.667 -0.666992 30.667 1 60 5c38 6 72 27 102 63s45 87 45 153c0 21.333 -6.5 38 -19.5 50s-31.833 18 -56.5 18c-38 0 -63.667 -7 -77 -21
c-6.66699 -7.33301 -13.5 -25.333 -20.5 -54s-23.833 -106.334 -50.5 -233.001l-40 -188c-6.66699 -33.333 -10 -55.333 -10 -66c0 -12.667 2.5 -21.667 7.5 -27s13.833 -9.33301 26.5 -12l-7 -34h-147c-16.667 0 -25 10 -25 30c0 10 12.667 68.333 38 175l53 250
c14 66 21 111 21 135c0 12 -3 21.167 -9 27.5s-12 10 -18 11s-14.333 1.83301 -25 2.5l9 42c142 9.33301 246 14 312 14c18.667 0 37 -1.66699 55 -5s36.667 -9.16602 56 -17.499s35 -21.166 47 -38.499s18 -38 18 -62z" />
    <glyph glyph-name="Q" unicode="Q" horiz-adv-x="663" 
d="M683 468c0 -50 -10.832 -106.997 -32.499 -170.997s-49.834 -118 -84.501 -162c-32.667 -42.667 -66 -74.667 -100 -96l12.5 -17c6.33301 -8.66699 11.166 -15 14.499 -19c24.667 -31.333 46.334 -47 65.001 -47c14.667 0 28.167 1.5 40.5 4.5s21.166 6.16699 26.499 9.5
l8 4l10 -24l-21 -20c-8.66699 -8 -26.334 -18.5 -53.001 -31.5s-52.667 -19.5 -78 -19.5c-17.333 0 -33 4 -47 12s-23.667 15.167 -29 21.5s-13.666 17.5 -24.999 33.5l-32 47c-18.667 -4 -40 -6 -64 -6c-77.333 0 -134.333 21.167 -171 63.5s-55 96.166 -55 161.499
c0 129.333 39.667 239.666 119 330.999c46.667 54 94.834 91.5 144.501 112.5s91.5 31.5 125.5 31.5c73.333 0 129.333 -16.333 168 -49s58 -89.334 58 -170.001zM542.001 495.003c0 93.333 -34 140 -102 140c-28.667 0 -57.5 -12.333 -86.5 -37s-54.833 -62.667 -77.5 -114
c-18.667 -42 -34.5 -90.833 -47.5 -146.5s-19.5 -108.5 -19.5 -158.5c0 -46 9.66699 -80.833 29 -104.5s45 -35.5 77 -35.5c32.667 0 61.5 11.167 86.5 33.5s49.5 61.5 73.5 117.5c44.667 105.333 67 207 67 305z" />
    <glyph glyph-name="R" unicode="R" horiz-adv-x="599" 
d="M619 568c0 -30.667 -5.83203 -58.998 -17.499 -84.998s-25.834 -47 -42.501 -63s-35.834 -30 -57.501 -42s-40.334 -20.833 -56.001 -26.5s-30.5 -9.83398 -44.5 -12.501c20 -18.667 39.333 -54.334 58 -107.001l14 -40.5l17.5 -50.5
c5 -14.667 9.16699 -25.334 12.5 -32.001c19.333 -38 44 -59.667 74 -65l-7 -34c-40 -11.333 -79.667 -17 -119 -17c-18 0 -32 5.16699 -42 15.5s-18.333 25.5 -25 45.5c-8 22 -21.667 65 -41 129c-3.33301 9.33301 -7.16602 21.333 -11.499 36s-7.5 25 -9.5 31
s-4.66699 13.333 -8 22s-6.5 15.167 -9.5 19.5s-6.66699 8.66602 -11 12.999s-9.16602 7.83301 -14.499 10.5l-8 4l9 41c30 1.33301 50 3 60 5c42 8 76.667 29 104 63s41 77.667 41 131c0 25.333 -7.33301 44.333 -22 57s-32 19 -52 19c-40 0 -66.667 -7 -80 -21
c-8.66699 -8 -17.667 -32.333 -27 -73l-84 -402c-6.66699 -31.333 -10 -53.333 -10 -66s2.5 -21.667 7.5 -27s13.833 -9.33301 26.5 -12l-7 -34h-147c-16.667 0 -25 10 -25 30c0 8.66699 2.5 24.334 7.5 47.001s10.833 47.5 17.5 74.5s11 44.833 13 53.5l53 250
c13.333 65.333 20 111 20 137c0 12 -3 21 -9 27s-11.667 9.33301 -17 10s-14 1.33398 -26 2.00098l9 42c142.667 9.33301 247 14 313 14c115.333 0 173 -39.667 173 -119z" />
    <glyph glyph-name="S" unicode="S" horiz-adv-x="509" 
d="M562 624c0 -22 -9.00586 -43.999 -27.0059 -65.999s-37.667 -40.667 -59 -56l-17 9c2.66699 22.667 4 37.334 4 44.001c0 53.333 -31.667 80 -95 80c-43.333 0 -75 -11.333 -95 -34s-30 -47 -30 -73c0 -9.33301 0.833008 -18.166 2.5 -26.499s4.83398 -16 9.50098 -23
s8.83398 -13 12.501 -18s9.66699 -10.667 18 -17l18 -13.5c3.66699 -2.66699 10.834 -7.16699 21.501 -13.5l21 -12.5c29.333 -18.667 49 -31.5 59 -38.5s24.167 -18.667 42.5 -35s30.833 -32.833 37.5 -49.5s10 -35.667 10 -57c0 -67.333 -27.833 -123.5 -83.5 -168.5
s-124.167 -67.5 -205.5 -67.5c-60 0 -104.167 8.66699 -132.5 26s-42.5 39.666 -42.5 66.999c0 40.667 29 76.667 87 108l20 -10c-4.66699 -11.333 -7 -29 -7 -53c0 -28 9.16699 -49.333 27.5 -64s39.166 -22 62.499 -22c40 0 73.333 12.5 100 37.5s40 57.5 40 97.5
c0 15.333 -1.66699 28.666 -5 39.999s-9.83301 22 -19.5 32s-17.667 17.5 -24 22.5s-18.5 13.333 -36.5 25l-39 25.5c-2.66699 2 -9.5 6.66699 -20.5 14s-18.333 12.333 -22 15s-10.167 7.66699 -19.5 15s-15.666 13.333 -18.999 18s-8.16602 11 -14.499 19
s-10.666 15.667 -12.999 23s-4.66602 16.166 -6.99902 26.499s-3.5 20.833 -3.5 31.5c0 62 24.667 111.667 74 149s115 56 197 56c59.333 0 103 -6 131 -18s42 -27 42 -45z" />
    <glyph glyph-name="T" unicode="T" horiz-adv-x="587" 
d="M664 643c0 -14.667 -10.501 -37.5 -31.501 -68.5s-42.167 -56.167 -63.5 -75.5l-39 -5c14.667 32.667 22 65 22 97c0 29.333 -25.333 44 -76 44h-43c2 -10.667 -2.66699 -41.667 -14 -93l-42 -200l-44 -203c-5.33301 -25.333 -8 -45.666 -8 -60.999
c0 -24.667 13.667 -39.334 41 -44.001l-7 -34h-154c-16.667 0 -25 10 -25 30c0 12.667 12 71 36 175l36 165c30 142 45 221.667 45 239c0 11.333 -2.83301 18.666 -8.5 21.999s-14.5 5 -26.5 5c-29.333 0 -54 -9 -74 -27c-26 -24.667 -50.333 -61.667 -73 -111l-39 -12
c4 92.667 14.333 154 31 184l17 11c72.667 4 166.334 6 281.001 6c62.667 0 108.5 -0.333008 137.5 -1s54.167 -2.66699 75.5 -6s34.333 -7.66602 39 -12.999s7 -13.333 7 -24z" />
    <glyph glyph-name="U" unicode="U" horiz-adv-x="628" 
d="M660 659c0 -19.333 -12.999 -82.001 -38.999 -188.001l-63 -255c-18 -72 -53.5 -128.667 -106.5 -170s-112.5 -62 -178.5 -62c-126 0 -189 47 -189 141c0 23.333 2.5 48.5 7.5 75.5s13.5 62.667 25.5 107s19.667 74.166 23 89.499c26.667 114 40 180 40 198
c0 16 -3.83301 27.167 -11.5 33.5s-21.834 10.833 -42.501 13.5l7 34c65.333 8 117 12 155 12c10.667 0 18.167 -0.333008 22.5 -1s8.33301 -3.16699 12 -7.5s5.5 -11.166 5.5 -20.499c0 -14.667 -3.33301 -36 -10 -64l-62 -264c-20.667 -89.333 -31 -149.333 -31 -180
c0 -26 7 -48.833 21 -68.5s38 -29.5 72 -29.5c24 0 45.167 4.33301 63.5 13s32.5 17.834 42.5 27.501s19.667 25.167 29 46.5s15.333 37 18 47s7 27.333 13 52c49.333 202.667 74 322 74 358c0 27.333 -11.667 42 -35 44l7 34c28 8.66699 58.333 13 91 13
c26 0 39 -9.66699 39 -29z" />
    <glyph glyph-name="V" unicode="V" horiz-adv-x="569" 
d="M655 656c0 -34 -30.002 -103.999 -90.002 -209.999l-63 -112l-143 -247l-39 -69c-42 -18.667 -86 -28 -132 -28c-8 0 -13 2.66699 -15 8s-3.33301 16.666 -4 33.999c-0.666992 5.33301 -1 9.66602 -1 12.999c-0.666992 11.333 -1.5 28.833 -2.5 52.5
s-1.83301 39.834 -2.5 48.501l-11 258c-4 83.333 -9 143.333 -15 180c-2 11.333 -4.5 20.333 -7.5 27s-7.66699 11.334 -14 14.001s-11.166 4.16699 -14.499 4.5s-9.66602 0.833008 -18.999 1.5l9 41c58 13.333 106 20 144 20c18 0 29.667 -11.833 35 -35.5
s9 -71.5 11 -143.5c4.66699 -135.333 7 -250.333 7 -345v-86h4l58 102c48.667 86 90.334 168.5 125.001 247.5s52 132.5 52 160.5c0 16 -2 27.167 -6 33.5s-12 12.166 -24 17.499l8 30c61.333 9.33301 101.666 14 120.999 14c12.667 0 20.667 -2 24 -6s5 -12.333 5 -25z" />
    <glyph glyph-name="W" unicode="W" horiz-adv-x="866" 
d="M939 650c0 -11.333 -8.33887 -37.6719 -25.0059 -79.0049s-36 -82.666 -58 -123.999l-81 -150l-78 -141l-59 -102l-20 -33c-40 -19.333 -69.333 -29 -88 -29c-10.667 0 -17 6.5 -19 19.5s-2.66699 41.167 -2 84.5c2 128.667 3.33301 205.667 4 231
c0.666992 38 0.833984 85.167 0.500977 141.5s-0.166016 86.833 0.500977 91.5l-129 -259l-149 -280c-50 -18.667 -84.333 -28 -103 -28c-10 0 -15 7.66699 -15 23c0 3.33301 1.33301 18.833 4 46.5s6 60.334 10 98.001s6.66699 65.5 8 83.5l15 164
c8 87.333 9.33301 146 4 176c-2 11.333 -4.5 20.333 -7.5 27s-7.66699 11.334 -14 14.001s-11.166 4.16699 -14.499 4.5s-9.66602 0.833008 -18.999 1.5l9 41c58 13.333 106 20 144 20c20 0 33 -12.167 39 -36.5s6 -70.166 0 -137.499
c-13.333 -140 -23.666 -237.333 -30.999 -292l-8 -59h4l253 500c34.667 20 69.334 30 104.001 30c14.667 0 22 -17 22 -51v-224v-266h7l20 35c48.667 88.667 87.334 172 116.001 250s43 132.333 43 163c0 4 -0.333008 7.5 -1 10.5s-1.83398 5.66699 -3.50098 8
s-3 4.33301 -4 6s-3.16699 3.16699 -6.5 4.5s-5.5 2.33301 -6.5 3s-3.66699 1.83398 -8 3.50098s-6.83301 2.5 -7.5 2.5l7 30c55.333 10 92.333 15 111 15c12.667 0 21.167 -2.83301 25.5 -8.5s6.5 -15.167 6.5 -28.5z" />
    <glyph glyph-name="X" unicode="X" horiz-adv-x="559" 
d="M625 660c0 -4 -1.99902 -10.0059 -5.99902 -18.0059s-10.833 -18.333 -20.5 -31l-28.5 -36l-39 -46.5l-42 -49l-49 -55.5l-49 -55c13.333 -74.667 33.333 -154.667 60 -240c18 -57.333 41.333 -87 70 -89l-11 -42c-48 -3.33301 -87 -5 -117 -5
c-20 0 -34.667 4.5 -44 13.5s-17.333 28.5 -24 58.5c-6.66699 28.667 -14 63.667 -22 105s-15.667 78.666 -23 111.999c-54 -62 -90.833 -108.167 -110.5 -138.5s-29.5 -54.166 -29.5 -71.499c0 -12 1.16699 -20.333 3.5 -25s8.83301 -11 19.5 -19l-8 -30
c-49.333 -3.33301 -88.333 -5 -117 -5c-12.667 0 -21 2.16699 -25 6.5s-6 11.5 -6 21.5c0 38.667 86 142 258 310c-23.333 120.667 -45.666 206.667 -66.999 258c-8 20 -17.167 32.667 -27.5 38s-24.833 8 -43.5 8l9 41c57.333 12 104 18 140 18
c5.33301 0 10 -0.333008 14 -1s7.5 -1.66699 10.5 -3s6 -3.33301 9 -6s5.5 -5.16699 7.5 -7.5s4 -6 6 -11l5 -12.5c1.33301 -3.33301 2.83301 -8.83301 4.5 -16.5l4 -18.5c1 -4.66699 2.66699 -12 5 -22s4.16602 -18.333 5.49902 -25c2 -7.33301 11.667 -57.666 29 -150.999
l23 27.5l24.5 30l22 28c9 11.667 16 21.334 21 29.001s10.167 16.334 15.5 26.001s9.16602 18.334 11.499 26.001s3.5 14.834 3.5 21.501c0 20.667 -8.33301 32.334 -25 35.001l8 30c54.667 9.33301 91.667 14 111 14c12 0 20.667 -1.5 26 -4.5s8 -10.5 8 -22.5z" />
    <glyph glyph-name="Y" unicode="Y" horiz-adv-x="538" 
d="M623 662c0 -25.333 -39.668 -91.333 -119.001 -198l-151 -202l-23 -116c-5.33301 -25.333 -8 -48 -8 -68c0 -24.667 13.667 -39.334 41 -44.001l-7 -34h-154c-16.667 0 -25 10 -25 30s7 61 21 123l19 88l-30 177c-13.333 75.333 -25.333 132.333 -36 171
c-4 14.667 -10.167 25.5 -18.5 32.5s-15.833 11 -22.5 12s-16.667 1.5 -30 1.5l9 41c57.333 12 104 18 140 18c21.333 0 35.666 -9 42.999 -27s15.333 -56.667 24 -116c2 -12 3.33301 -21.333 4 -28c2.66699 -20 8.16699 -53.667 16.5 -101s13.833 -82.666 16.5 -105.999
l63 86c24.667 34 48.834 72.5 72.501 115.5s35.5 73.167 35.5 90.5c0 20 -7.66699 31.667 -23 35l8 30c40 9.33301 73.667 14 101 14c12.667 0 21.334 -1.5 26.001 -4.5s7 -9.83301 7 -20.5z" />
    <glyph glyph-name="Z" unicode="Z" horiz-adv-x="527" 
d="M584 682c0.666992 -21.333 -1.33301 -40.999 -6 -58.999c-10.667 -16 -38.167 -53.833 -82.5 -113.5l-118.5 -163.5c-106 -148.667 -173 -246.334 -201 -293.001c21.333 -4 48 -6 80 -6c93.333 0 164.333 49 213 147l34 -6l-58 -186c-55.333 -6 -122 -9 -200 -9l-229 6
l8 41l231 324l112 158c36.667 54 59.667 90 69 108c-13.333 2 -38 3 -74 3c-40.667 0 -76.667 -11.333 -108 -34c-31.333 -22 -62.333 -55.667 -93 -101l-33 5c10.667 46 29 101.667 55 167l17 11c62.667 -0.666992 117 -1 163 -1c125.333 0 199 0.666992 221 2z" />
    <glyph glyph-name="bracketleft" unicode="[" horiz-adv-x="350" 
d="M242 730h196l-10 -46h-79l-168 -794h79l-10 -46h-196z" />
    <glyph glyph-name="backslash" unicode="\" horiz-adv-x="392" 
d="M136 731l269 -883l-45 -14l-272 883z" />
    <glyph glyph-name="bracketright" unicode="]" horiz-adv-x="335" 
d="M198 -156h-196l10 46h79l168 794h-79l10 46h196z" />
    <glyph glyph-name="asciicircum" unicode="^" horiz-adv-x="344" 
d="M256 743l143 -206l-34 -10l-115 91l-125 -91l-34 10z" />
    <glyph glyph-name="underscore" unicode="_" horiz-adv-x="488" 
d="M492 -69v-60h-495v60h495z" />
    <glyph glyph-name="grave" unicode="`" horiz-adv-x="184" 
d="M100 748l57 -177l-34 -17l-99 156z" />
    <glyph glyph-name="a" unicode="a" horiz-adv-x="553" 
d="M539 480l16 -6c-12 -34 -23.667 -75.667 -35 -125c-36 -158 -54 -242.667 -54 -254c0 -8.66699 0.666992 -15.667 2 -21s3.33301 -9 6 -11s5 -3.16699 7 -3.5s4.66699 -0.5 8 -0.5c17.333 0 34 4.33301 50 13v-35c-56 -32 -103 -48 -141 -48c-22 0 -37 4 -45 12
s-12 24 -12 48c0 8 0.833008 18 2.5 30s3.16699 22 4.5 30l2 12h-5c-58.667 -89.333 -124.667 -134 -198 -134c-25.333 0 -47.166 9.33301 -65.499 28s-27.5 51.667 -27.5 99c0 94 31 179.667 93 257c57.333 70.667 130.666 106 219.999 106c31.333 0 63 -3.66699 95 -11
c2.66699 0.666992 15.167 3 37.5 7s35.5 6.33301 39.5 7zM381 299l25.002 113c-18.667 13.333 -40.334 20 -65.001 20c-41.333 0 -79 -37 -113 -111c-27.333 -59.333 -41 -121 -41 -185c0 -42.667 12.333 -64 37 -64c28.667 0 58.667 23.667 90 71s53.666 99.333 66.999 156
z" />
    <glyph glyph-name="b" unicode="b" horiz-adv-x="527" 
d="M529 264c-19.333 -89.333 -57.001 -156.998 -113.001 -202.998s-115.333 -69 -178 -69c-50 0 -91.333 5.16699 -124 15.5s-52 21.166 -58 32.499c0.666992 3.33301 2.33398 9.66602 5.00098 18.999s6.66699 24.166 12 44.499s10.666 43.833 15.999 70.5l71 334
c9.33301 47.333 15 79.666 17 96.999c1.33301 11.333 1 20.333 -1 27s-5.83301 11.334 -11.5 14.001s-10.167 4.16699 -13.5 4.5s-9 0.833008 -17 1.5l7 36c67.333 6.66699 113 10 137 10h3c6 0 10.667 -0.333008 14 -1s7.33301 -2.5 12 -5.5s7.66699 -8.5 9 -16.5
s1.33301 -18.667 0 -32c-4.66699 -28 -9.66699 -54 -15 -78l-41 -177c15.333 23.333 37.333 44 66 62s57.334 27 86.001 27c84 0 126 -44.667 126 -134c0 -23.333 -3 -49.666 -9 -78.999zM391.999 229.002c8.66699 40 13 71 13 93c0 51.333 -18.667 77 -56 77
c-28.667 0 -53.5 -16.667 -74.5 -50s-36.5 -72.333 -46.5 -117l-33 -157c6 -24 26.667 -36 62 -36c28 0 54.5 17.5 79.5 52.5s43.5 80.833 55.5 137.5z" />
    <glyph glyph-name="c" unicode="c" horiz-adv-x="437" 
d="M476 416c0 -18.667 -10.667 -34.834 -32 -48.501s-46 -22.834 -74 -27.501l-8 8c3.33301 12 5 25 5 39c0 13.333 -2.83301 23.333 -8.5 30s-17.167 10 -34.5 10c-35.333 0 -65.333 -25.167 -90 -75.5s-37 -110.166 -37 -179.499c0 -75.333 28 -113 84 -113
c44.667 0 87.667 14.333 129 43v-43c-6 -5.33301 -14.5 -11.666 -25.5 -18.999s-32.667 -17.333 -65 -30s-63.833 -19 -94.5 -19c-50 0 -89.833 13.5 -119.5 40.5s-44.5 67.5 -44.5 121.5c0 41.333 8.33301 82.333 25 123s37.667 75 63 103
c28.667 32.667 62 57.167 100 73.5s72.667 24.5 104 24.5c82 0 123 -20.333 123 -61z" />
    <glyph glyph-name="d" unicode="d" horiz-adv-x="558" 
d="M582 660c0 -17.333 -4.99902 -49 -14.999 -95c-19.333 -94.667 -34.666 -166.667 -45.999 -216c-36 -158 -54 -242.667 -54 -254c0 -8.66699 0.666992 -15.667 2 -21s3.33301 -9 6 -11s5 -3.16699 7 -3.5s4.66699 -0.5 8 -0.5c17.333 0 34 4.33301 50 13v-35
c-56 -32 -103 -48 -141 -48c-22 0 -37 4 -45 12s-12 24 -12 48c0 8 0.666992 18 2 30s2.66602 22 3.99902 30l3 12h-5c-58.667 -89.333 -124.667 -134 -198 -134c-25.333 0 -47.166 9.33301 -65.499 28s-27.5 51.667 -27.5 99c0 94 31 179.667 93 257
c57.333 70.667 130.666 106 219.999 106l51 -4l7 35c11.333 56.667 17 92.667 17 108c0 8.66699 -1 15.5 -3 20.5s-5.83301 8.5 -11.5 10.5s-9.83398 3.16699 -12.501 3.5s-8 0.833008 -16 1.5l7 36c67.333 6.66699 113 10 137 10c12.667 0 22.167 -2.5 28.5 -7.5
s9.5 -15.167 9.5 -30.5zM382.001 299l25.002 113c-18.667 13.333 -40.334 20 -65.001 20c-41.333 0 -79 -37 -113 -111c-27.333 -59.333 -41 -121 -41 -185c0 -42.667 12.333 -64 37 -64c29.333 0 59.666 23.667 90.999 71s53.333 99.333 66 156z" />
    <glyph glyph-name="e" unicode="e" horiz-adv-x="441" 
d="M468 394c0 -76.667 -69.333 -127.668 -208 -153.001l-68 -12c-2.66699 -21.333 -4 -40.333 -4 -57c0 -75.333 28.667 -113 86 -113c44.667 0 87.667 14.333 129 43v-43c-6 -5.33301 -14.5 -11.666 -25.5 -18.999s-32.667 -17.333 -65 -30s-63.833 -19 -94.5 -19
c-50 0 -89.833 13.5 -119.5 40.5s-44.5 67.5 -44.5 121.5c0 79.333 27.333 153 82 221c30 37.333 63.833 63.833 101.5 79.5s69.834 23.5 96.501 23.5c17.333 0 32.666 -0.833008 45.999 -2.5s27.333 -5 42 -10s26 -13.5 34 -25.5s12 -27 12 -45zM351 382.999
c0 29.333 -12.667 44 -38 44c-51.333 0 -89 -51 -113 -153l46 8c30 5.33301 55 17 75 35s30 40 30 66z" />
    <glyph glyph-name="f" unicode="f" horiz-adv-x="341" 
d="M522 660c0 -16 -9.66699 -29.499 -29 -40.499s-39.333 -18.5 -60 -22.5l-10 11c1.33301 30.667 -12 46 -40 46c-23.333 0 -41.833 -13 -55.5 -39s-26.167 -66.333 -37.5 -121l-4 -20l136 -6l-17 -42l-132 -11l-41 -224c-20 -112 -54.667 -204 -104 -276
c-62.667 -92.667 -132 -139 -208 -139c-54.667 0 -82 17 -82 51c0 19.333 7.16699 36 21.5 50s29.833 23.333 46.5 28l8 -8c0 -46.667 15.333 -70 46 -70c21.333 0 38.833 13 52.5 39s28.834 69.333 45.501 130c10.667 41.333 24 100.666 40 177.999l45 241l-64 4l15 49
l62 6c18.667 64.667 53.667 119.667 105 165s109.666 68 174.999 68c30 0 51.833 -4.83301 65.5 -14.5s20.5 -20.5 20.5 -32.5z" />
    <glyph glyph-name="g" unicode="g" horiz-adv-x="537" 
d="M539 480l16.0029 -6c-12 -34 -23.667 -75.667 -35 -125c-6 -26 -13.167 -59.667 -21.5 -101s-16 -77 -23 -107s-14.5 -57.667 -22.5 -83c-26.667 -83.333 -67.334 -151 -122.001 -203c-25.333 -24 -56.5 -43.667 -93.5 -59s-75.833 -23 -116.5 -23
c-44 0 -74.5 6.5 -91.5 19.5s-25.5 27.833 -25.5 44.5c0 17.333 10.667 33.833 32 49.5s44.666 23.5 69.999 23.5l7 -6c-6 -26.667 -4.16699 -46.667 5.5 -60s22.5 -20 38.5 -20c35.333 0 67.166 13.167 95.499 39.5s51.5 75.5 69.5 147.5l28 110h-5
c-58.667 -89.333 -124.667 -134 -198 -134c-25.333 0 -47.166 9.33301 -65.499 28s-27.5 51.667 -27.5 99c0 94 31 179.667 93 257c57.333 70.667 130.666 106 219.999 106c31.333 0 63 -3.66699 95 -11c2.66699 0.666992 15.167 3 37.5 7s35.5 6.33301 39.5 7zM381.003 299
l25.002 113c-18.667 13.333 -40.334 20 -65.001 20c-41.333 0 -79 -37 -113 -111c-27.333 -59.333 -41 -121 -41 -185c0 -42.667 12.333 -64 37 -64c28.667 0 58.667 23.667 90 71s53.666 99.333 66.999 156z" />
    <glyph glyph-name="h" unicode="h" horiz-adv-x="552" 
d="M537 79l4.99902 -38.001c-52 -34.667 -101.667 -52 -149 -52c-43.333 0 -65 14 -65 42c0 20 8 67.333 24 142l24 109c5.33301 26.667 8 42.667 8 48c0 12.667 -2.33301 21.5 -7 26.5s-13 7.5 -25 7.5c-26.667 0 -53 -16.333 -79 -49s-42 -65 -48 -97l-4 -22
c-14.667 -68.667 -22 -111.667 -22 -129c0 -15.333 8.33301 -23 25 -23l-7 -34c-48.667 -14 -86 -21 -112 -21c-16 0 -26.667 3.33301 -32 10s-8 17.334 -8 32.001c0 18.667 8 66 24 142l23 109l48 226c11.333 56.667 17 92 17 106c0 24 -14.333 36.667 -43 38l7 36
c67.333 6.66699 113 10 137 10c8 0 14 -0.333008 18 -1s8.33301 -3.83398 13 -9.50098s7 -14.167 7 -25.5c0 -17.333 -5 -49.666 -15 -96.999l-47 -211c34.667 42 70.834 72.5 108.501 91.5s68.167 28.5 91.5 28.5c48 0 72 -23.333 72 -70c0 -22 -7.66699 -65 -23 -129
l-19 -79c-13.333 -60 -20 -94.667 -20 -104c0 -20.667 8 -31 24 -31c12.667 0 29 6 49 18z" />
    <glyph glyph-name="i" unicode="i" horiz-adv-x="286" 
d="M307 623c0 -27.333 -8 -48.333 -24 -63s-36 -22 -60 -22c-18.667 0 -33.167 6 -43.5 18s-15.5 27.333 -15.5 46c0 25.333 7.66699 45.333 23 60s35 22 59 22c40.667 0 61 -20.333 61 -61zM274 77l5 -35.998c-5.33301 -4 -12.833 -8.83301 -22.5 -14.5
s-28.167 -13.334 -55.5 -23.001s-53.333 -14.5 -78 -14.5c-16 0 -29.667 3.66699 -41 11s-17 17.666 -17 30.999c0 24 7.33301 71.667 22 143l23 110c11.333 56.667 17 93.667 17 111c0 10 -2.33301 17.667 -7 23s-9 8.16602 -13 8.49902s-11 0.833008 -21 1.5l8 37
c60 6.66699 101.667 10 125 10c16 0 27.167 -2.16699 33.5 -6.5s9.5 -15.166 9.5 -32.499c0 -18.667 -7.33301 -62 -22 -130l-23 -109c-10.667 -47.333 -16 -82.333 -16 -105c0 -20.667 8 -31 24 -31c14 0 30.333 5.33301 49 16z" />
    <glyph glyph-name="j" unicode="j" horiz-adv-x="268" 
d="M307 623c0 -27.333 -8 -48.333 -24 -63s-36 -22 -60 -22c-18.667 0 -33.167 6 -43.5 18s-15.5 27.333 -15.5 46c0 25.333 7.66699 45.333 23 60s35 22 59 22c40.667 0 61 -20.333 61 -61zM262 430c0 -14 -6.99902 -55.999 -20.999 -125.999l-23 -111
c-9.33301 -44.667 -23.5 -94.334 -42.5 -149.001s-38.167 -97.667 -57.5 -129c-25.333 -41.333 -56 -74.833 -92 -100.5s-75 -38.5 -117 -38.5c-18.667 0 -33.834 1.5 -45.501 4.5s-20 7.33301 -25 13s-8.16699 10.834 -9.5 15.501s-2 10.667 -2 18
c0 18.667 9 35.334 27 50.001s36 24.667 54 30l8 -8c0 -48 11 -72 33 -72c21.333 0 38.5 12.833 51.5 38.5s28.167 69.167 45.5 130.5c4 15.333 9.16699 36.833 15.5 64.5l17 76c5 23 7.83301 35.5 8.5 37.5l23 110c10 50 15 86.333 15 109c0 10 -2.5 17.667 -7.5 23
s-9.66699 8.16602 -14 8.49902s-11.833 0.833008 -22.5 1.5l8 36c74.667 6.66699 124 10 148 10c10 0 16.667 -2.83301 20 -8.5s5 -16.834 5 -33.501z" />
    <glyph glyph-name="k" unicode="k" horiz-adv-x="524" 
d="M535 454c0 -15.333 -17 -39.3311 -51 -71.998c-40.667 -39.333 -86.667 -75.333 -138 -108c8 -12.667 25 -42.334 51 -89.001l55 -97c16 -28 37.667 -43.333 65 -46l-7 -33c-35.333 -11.333 -69.666 -17 -102.999 -17c-18 0 -32.5 6.16699 -43.5 18.5
s-25.5 36.166 -43.5 71.499l-82 159l4 20c26 10.667 45.667 20 59 28s30.666 21 51.999 39c36 31.333 54 59 54 83c0 15.333 -10.667 23 -32 23l6 27c38 8 80.667 12 128 12c9.33301 0 16 -1.16699 20 -3.5s6 -7.5 6 -15.5zM315 661.002
c0 -21.333 -3.99902 -50.6689 -11.999 -88.002l-29 -130l-20 -89l-33 -158c-14.667 -67.333 -22 -110.333 -22 -129c0 -15.333 8.33301 -23 25 -23l-7 -34c-48.667 -14 -86 -21 -112 -21c-16 0 -26.667 3.33301 -32 10s-8 17.334 -8 32.001c0 18.667 8 66 24 142l23 109
l49 231c8.66699 39.333 13 70.666 13 93.999c0 16.667 -3.5 28.5 -10.5 35.5s-18.5 10.5 -34.5 10.5l5 32c65.333 8 108 12 128 12h8.5h9c1.66699 0 4.16699 -0.166992 7.5 -0.5s5.66602 -0.666016 6.99902 -0.999023l6 -1.5c2.66699 -0.666992 4.5 -1.66699 5.5 -3
s2.33301 -2.83301 4 -4.5s2.66699 -3.66699 3 -6s0.833008 -5.16602 1.5 -8.49902s1 -7 1 -11z" />
    <glyph glyph-name="l" unicode="l" horiz-adv-x="288" 
d="M315 661c0 -21.333 -4.00195 -50.668 -12.002 -88.001l-29 -130l-20 -89l-33 -158c-13.333 -60 -20 -94.667 -20 -104c0 -20.667 8 -31 24 -31c14 0 30.333 5.33301 49 16l5 -36c-5.33301 -4 -12.833 -8.83301 -22.5 -14.5s-28.167 -13.334 -55.5 -23.001
s-53.333 -14.5 -78 -14.5c-38.667 0 -58 14 -58 42c0 17.333 8 64.666 24 141.999l42 202l16.5 77c5.66699 27.333 9.83398 46.833 12.501 58.5s5.33398 24.334 8.00098 38.001s4.33398 24.5 5.00098 32.5s1 16.667 1 26c0 16.667 -3.5 28.5 -10.5 35.5
s-18.5 10.5 -34.5 10.5l5 32c65.333 8 108 12 128 12h8.5h9c1.66699 0 4.16699 -0.166992 7.5 -0.5s5.66602 -0.666016 6.99902 -0.999023l6 -1.5c2.66699 -0.666992 4.5 -1.66699 5.5 -3s2.33301 -2.83301 4 -4.5s2.66699 -3.66699 3 -6s0.833008 -5.16602 1.5 -8.49902
s1 -7 1 -11z" />
    <glyph glyph-name="m" unicode="m" horiz-adv-x="832" 
d="M818 77l4.99902 -35.999c-5.33301 -4 -12.833 -8.83301 -22.5 -14.5s-28.167 -13.334 -55.5 -23.001s-53.333 -14.5 -78 -14.5c-43.333 0 -65 14 -65 42c0 20 8 67.333 24 142l24 109c5.33301 22.667 8 40.667 8 54c0 14.667 -1.83301 24.667 -5.5 30s-10.5 8 -20.5 8
c-20.667 0 -41.667 -11.167 -63 -33.5s-39 -50.166 -53 -83.499c-15.333 -35.333 -27.666 -73 -36.999 -113c-7.33301 -32 -11 -57.667 -11 -77c0 -6 2.33301 -11.333 7 -16s10.667 -7 18 -7l-7 -34c-48.667 -14 -86 -21 -112 -21c-16 0 -26.667 3.33301 -32 10
s-8 17.334 -8 32.001c0 18.667 8 66 24 142l24 109c5.33301 25.333 8 43.333 8 54c0 14.667 -2.33301 24.667 -7 30s-12 8 -22 8c-30 0 -57.5 -19 -82.5 -57s-40.833 -71 -47.5 -99l-5 -22c-15.333 -70.667 -23 -113.667 -23 -129s8.33301 -23 25 -23l-7 -34
c-48.667 -14 -86 -21 -112 -21c-16 0 -26.667 3.33301 -32 10s-8 17.334 -8 32.001c0 23.333 8 70.666 24 141.999l24 109c11.333 48.667 17 85.667 17 111c0 10 -2.5 17.667 -7.5 23s-9.66699 8.16602 -14 8.49902s-11.833 0.833008 -22.5 1.5l8 36
c74.667 6.66699 124 10 148 10c10 0 16.667 -2.83301 20 -8.5s5 -16.834 5 -33.501c0 -20 -3.66699 -45.333 -11 -76c24 34 54.5 62.5 91.5 85.5s75.5 34.5 115.5 34.5c44 0 66 -22 66 -66l-7 -56c39.333 46.667 76.833 78.667 112.5 96s65.5 26 89.5 26c48 0 72 -22 72 -66
c0 -22.667 -7.66699 -67 -23 -133l-19 -84c-11.333 -50.667 -17 -83.667 -17 -99c0 -20.667 9.33301 -31 28 -31c14 0 30.333 5.33301 49 16z" />
    <glyph glyph-name="n" unicode="n" horiz-adv-x="552" 
d="M537 77l4.99902 -35.998c-5.33301 -4 -12.833 -8.83301 -22.5 -14.5s-28.167 -13.334 -55.5 -23.001s-53.333 -14.5 -78 -14.5c-38.667 0 -58 14 -58 42c0 20 8 67.333 24 142l24 109c5.33301 26.667 8 42.667 8 48c0 12.667 -2.33301 21.5 -7 26.5s-13 7.5 -25 7.5
c-26.667 0 -53 -16.333 -79 -49s-42 -65 -48 -97l-4 -22c-14.667 -68.667 -22 -111.667 -22 -129c0 -15.333 8.33301 -23 25 -23l-7 -34c-48.667 -14 -86 -21 -112 -21c-16 0 -26.667 3.33301 -32 10s-8 17.334 -8 32.001c0 18.667 8 66 24 142l23 109
c10.667 52 16 89 16 111c0 10 -2.5 17.667 -7.5 23s-9.66699 8.16602 -14 8.49902s-11.833 0.833008 -22.5 1.5l8 36c74.667 6.66699 124 10 148 10c10 0 16.667 -2.83301 20 -8.5s5 -16.834 5 -33.501c0 -20 -3.66699 -45.333 -11 -76c34.667 42 70.834 72.5 108.501 91.5
s68.167 28.5 91.5 28.5c48 0 72 -23.333 72 -70c0 -22 -7.66699 -65 -23 -129l-19 -79c-13.333 -60 -20 -94.667 -20 -104c0 -20.667 8 -31 24 -31c14 0 30.333 5.33301 49 16z" />
    <glyph glyph-name="o" unicode="o" 
d="M515 305c0 -88.667 -24.666 -162.669 -73.999 -222.002c-54 -64.667 -124.333 -97 -211 -97c-20.667 0 -40.334 2.5 -59.001 7.5s-37 13.333 -55 25s-32.333 29.334 -43 53.001s-16 51.834 -16 84.501c0 90 24.667 164.667 74 224c54 64.667 124.333 97 211 97
c47.333 0 88 -13 122 -39s51 -70.333 51 -133zM386.001 332.998c0 22 -1.66699 39.999 -5 53.999s-8.33301 23.667 -15 29s-12.5 8.83301 -17.5 10.5s-11.167 2.5 -18.5 2.5c-35.333 0 -65.666 -22.667 -90.999 -68c-13.333 -24.667 -25.5 -58.667 -36.5 -102
s-16.5 -87 -16.5 -131c0 -36 5.83301 -60.667 17.5 -74s24.5 -20 38.5 -20c35.333 0 65.666 22.667 90.999 68c13.333 24 25.5 57.833 36.5 101.5s16.5 86.834 16.5 129.501z" />
    <glyph glyph-name="p" unicode="p" horiz-adv-x="535" 
d="M542 336c0 -40 -7.83105 -82.3311 -23.498 -126.998s-35.834 -82.334 -60.501 -113.001c-56.667 -69.333 -122.667 -104 -198 -104c-30.667 0 -55.667 4.66699 -75 14l-5 -23c-18.667 -86 -28 -135.333 -28 -148c0 -15.333 9 -24.666 27 -27.999l-7 -34
c-52.667 -5.33301 -87.334 -8 -104.001 -8s-28.5 3.66699 -35.5 11s-10.5 20 -10.5 38c0 16 9.33301 67.333 28 154l70 320c8.66699 43.333 13 74.666 13 93.999c0 12 -2.33301 21.5 -7 28.5s-9.66699 11.167 -15 12.5s-12.333 2.33301 -21 3l7 36c68 6.66699 114 10 138 10
h10.5c1.66699 0 5 -0.5 10 -1.5s7.83301 -2.66699 8.5 -5s2.66699 -5.83301 6 -10.5s4.16602 -10.334 2.49902 -17.001s-2.5 -15.334 -2.5 -26.001l-4 -24c46.667 59.333 97.334 89 152.001 89c40 0 70.667 -12.167 92 -36.5s32 -59.166 32 -104.499zM409.002 324.002
c0 50 -18.333 75 -55 75c-26.667 0 -51.167 -17 -73.5 -51s-37.833 -72.667 -46.5 -116l-29 -136c-0.666992 -18.667 4 -32.834 14 -42.501s24.667 -14.5 44 -14.5c62 0 106.667 63.333 134 190c8 38.667 12 70.334 12 95.001z" />
    <glyph glyph-name="q" unicode="q" horiz-adv-x="537" 
d="M539 480l16 -6c-12 -34 -23.667 -75.667 -35 -125l-67 -292c-28 -120.667 -42 -193.667 -42 -219c0 -16 11.667 -26.333 35 -31l-10 -31c-44 -9.33301 -75.667 -14 -95 -14c-24.667 0 -42 2.5 -52 7.5s-15 15.5 -15 31.5c0 25.333 19 108.333 57 249l19 71h-5
c-58.667 -89.333 -124.667 -134 -198 -134c-25.333 0 -47.166 9.33301 -65.499 28s-27.5 51.667 -27.5 99c0 94 31 179.667 93 257c57.333 70.667 130.666 106 219.999 106c41.333 0 73 -3.66699 95 -11c2.66699 0.666992 15.167 3 37.5 7s35.5 6.33301 39.5 7zM381 299
l25.002 113c-16.667 12 -38.334 18 -65.001 18c-42 0 -79.667 -36.333 -113 -109c-27.333 -59.333 -41 -121 -41 -185c0 -42.667 12.333 -64 37 -64c28.667 0 58.667 23.667 90 71s53.666 99.333 66.999 156z" />
    <glyph glyph-name="r" unicode="r" horiz-adv-x="414" 
d="M472 445c0 -17.333 -7.99707 -36.665 -23.9971 -57.998s-36.667 -39 -62 -53l-12 10c2 25.333 -10 38 -36 38c-22.667 0 -44.5 -12.667 -65.5 -38s-37.833 -67.333 -50.5 -126l-4 -22c-14.667 -68.667 -22 -111.667 -22 -129c0 -15.333 8.33301 -23 25 -23l-7 -34
c-48.667 -14 -86 -21 -112 -21c-16 0 -26.667 3.33301 -32 10s-8 17.334 -8 32.001c0 18.667 8 66 24 142l23 109c10.667 48 16 85 16 111c0 10 -2.5 17.667 -7.5 23s-9.66699 8.16602 -14 8.49902s-11.833 0.833008 -22.5 1.5l8 36c65.333 7.33301 109 11 131 11
c9.33301 0 16.166 -0.333008 20.499 -1s8.66602 -3.83398 12.999 -9.50098s6.5 -13.834 6.5 -24.501c0 -17.333 -3.66699 -38.333 -11 -63c22 31.333 49.5 56.5 82.5 75.5s64.167 28.5 93.5 28.5c14 0 24.667 -2 32 -6s11.666 -8 12.999 -12s2 -9.33301 2 -16z" />
    <glyph glyph-name="s" unicode="s" horiz-adv-x="431" 
d="M448 414c0 -16.667 -10.667 -31.499 -32 -44.499s-44 -20.833 -68 -23.5l-5 10c3.33301 16 0.333008 32.167 -9 48.5s-28.333 24.5 -57 24.5c-22 0 -40 -5.5 -54 -16.5s-21 -26.5 -21 -46.5c0 -8 2.33301 -15.167 7 -21.5s11.5 -12 20.5 -17s17.333 -9.16699 25 -12.5
s17 -6.83301 28 -10.5s18.167 -6.16699 21.5 -7.5c22.667 -9.33301 38.167 -16 46.5 -20s20 -11.167 35 -21.5s25.333 -22.166 31 -35.499s8.5 -29.333 8.5 -48c0 -50.667 -25.5 -93.667 -76.5 -129s-108.5 -53 -172.5 -53c-93.333 0 -140 22.333 -140 67
c0 16.667 9.5 31.167 28.5 43.5s46.167 20.833 81.5 25.5l5 -10c-3.33301 -11.333 -5 -20.333 -5 -27c0 -16.667 5.16699 -29.167 15.5 -37.5s23.166 -12.5 38.499 -12.5c25.333 0 47.333 7.5 66 22.5s28 36.5 28 64.5c0 9.33301 -1.66699 17.666 -5 24.999
s-8.66602 13.5 -15.999 18.5s-14 9 -20 12s-14.833 6.83301 -26.5 11.5s-20.5 8.66699 -26.5 12l-29.5 14.5c-15.667 7.66699 -26.5 13.5 -32.5 17.5s-13.833 10.167 -23.5 18.5s-16.5 17.833 -20.5 28.5s-6 23 -6 37c0 47.333 21.167 85.166 63.5 113.499
s94.5 42.5 156.5 42.5c93.333 0 140 -21 140 -63z" />
    <glyph glyph-name="t" unicode="t" horiz-adv-x="343" 
d="M272 476l127.001 -6.00098l-15 -43l-125 -14c-6.66699 -25.333 -18.334 -77.5 -35.001 -156.5s-26 -129.833 -28 -152.5c-1.33301 -27.333 8 -41 28 -41c28.667 0 57 6.33301 85 19v-37c-6 -4 -14.5 -9 -25.5 -15s-32.5 -14.167 -64.5 -24.5s-63 -15.5 -93 -15.5
c-41.333 0 -62 21 -62 63c0 18.667 6 57.334 18 116.001l35 165c7.33301 34 11 58 11 72c0 7.33301 -16.333 11 -49 11l12 44c63.333 18.667 123.333 88 180 208l44 9z" />
    <glyph glyph-name="u" unicode="u" horiz-adv-x="547" 
d="M533 77l4.99902 -35.9961c-5.33301 -4 -12.833 -8.83301 -22.5 -14.5s-28.167 -13.334 -55.5 -23.001s-53.333 -14.5 -78 -14.5c-38.667 0 -58 14 -58 42c0 12 4.66699 37.333 14 76c-71.333 -80 -140.666 -120 -207.999 -120c-44 0 -66 23.333 -66 70
c0 22.667 7.33301 67 22 133l20 91c11.333 56.667 17 94.334 17 113.001c0 3.33301 -0.166992 6.33301 -0.5 9s-1.16602 5 -2.49902 7s-2.33301 3.83301 -3 5.5s-2.16699 3 -4.5 4s-4 1.83301 -5 2.5s-3 1.16699 -6 1.5s-5 0.666016 -6 0.999023
s-3.33301 0.666016 -7 0.999023s-5.83398 0.5 -6.50098 0.5l4 30c67.333 11.333 112 17 134 17c29.333 0 44 -11.333 44 -34c0 -11.333 -1.66699 -25.666 -5 -42.999s-8 -39 -14 -65s-10 -44 -12 -54l-17 -81c-8.66699 -45.333 -13 -71.333 -13 -78
c0 -9.33301 1.83301 -16.5 5.5 -21.5s7.5 -8 11.5 -9s9 -1.5 15 -1.5c26 0 52.667 18.167 80 54.5s44.333 70.5 51 102.5l9 42c11.333 56.667 17 93 17 109c0 3.33301 -0.166992 6.33301 -0.5 9s-1.16602 5 -2.49902 7s-2.33301 3.83301 -3 5.5s-2.16699 3 -4.5 4
s-4 1.83301 -5 2.5s-3 1.16699 -6 1.5s-5 0.666016 -6 0.999023s-3.33301 0.666016 -7 0.999023s-5.83398 0.5 -6.50098 0.5l4 30c67.333 11.333 112 17 134 17c29.333 0 44 -11.333 44 -34c0 -21.333 -10.667 -74 -32 -158l-21 -85
c-13.333 -54.667 -20 -89.334 -20 -104.001c0 -20.667 8 -31 24 -31c14 0 30.333 5.33301 49 16z" />
    <glyph glyph-name="v" unicode="v" horiz-adv-x="482" 
d="M521 437c0 -14.667 -16.001 -53.835 -48.001 -117.502s-67 -125.167 -105 -184.5l-73 -115c-14 -8.66699 -33.5 -17.167 -58.5 -25.5s-47.167 -12.5 -66.5 -12.5c-10 0 -16.667 6.33301 -20 19s-7 39.667 -11 81l-12 120c-9.33301 94.667 -18.333 155.334 -27 182.001
c-4 12.667 -9.66699 22.334 -17 29.001s-13.166 10.5 -17.499 11.5s-11.166 1.83301 -20.499 2.5l7 35c70.667 6.66699 118 10 142 10c19.333 0 31.166 -4.33301 35.499 -13s7.83301 -32.667 10.5 -72c0.666992 -5.33301 1 -9.5 1 -12.5s0.166992 -7 0.5 -12
s0.833008 -9.83301 1.5 -14.5l8 -103l14 -174h7l37 68c30.667 57.333 54.667 109.833 72 157.5s26 81.167 26 100.5s-11.333 30 -34 32l4 27c44.667 8 79 12 103 12c14.667 0 25.167 -2.33301 31.5 -7s9.5 -12.667 9.5 -24z" />
    <glyph glyph-name="w" unicode="w" horiz-adv-x="722" 
d="M761 437c-6.66699 -32.667 -37.3281 -98.0029 -91.9951 -196.003l-106 -191c-12 -22 -26.333 -37.333 -43 -46c-9.33301 -6 -27 -11.333 -53 -16s-44.667 -7 -56 -7c-8 0 -13.5 1.83301 -16.5 5.5s-4.83301 11.834 -5.5 24.501c0 6.66699 0.333008 17.334 1 32.001
s1.5 32 2.5 52l2.5 49c3.33301 102 5 168 5 198l-65 -137c-30 -60.667 -56 -109.667 -78 -147c-16.667 -30 -30 -48 -40 -54s-26.333 -11.333 -49 -16s-40.667 -7 -54 -7c-8 0 -13.5 1.83301 -16.5 5.5s-4.83301 11.834 -5.5 24.501c0 6.66699 3.66699 45.334 11 116.001
l9 119c4.66699 60 4.66699 106 0 138c-2.66699 10 -5.83398 18.167 -9.50098 24.5s-8.83398 10.666 -15.501 12.999s-11.334 3.66602 -14.001 3.99902s-8 0.833008 -16 1.5l7 35c74.667 6.66699 124 10 148 10c20.667 0 32.167 -13.667 34.5 -41
s0.166016 -63.666 -6.50098 -108.999l-24 -238h5l29 51c13.333 24 44.666 87.333 93.999 190l19.5 45l19 44c5 11.333 9.83301 19.666 14.5 24.999c5.33301 6.66699 20.666 13.834 45.999 21.501s43 11.5 53 11.5c12 0 18.333 -31.667 19 -95
c0 -40.667 -0.5 -87.334 -1.5 -140.001s-2.16699 -95 -3.5 -127l-1 -48h6l41 72c23.333 40 44.5 84.5 63.5 133.5s30.5 83.5 34.5 103.5c4 18.667 4.16699 31.834 0.5 39.501s-12.167 13.5 -25.5 17.5l6 28c34 8 63.333 12 88 12c16.667 0 27.834 -1.66699 33.501 -5
s7.16699 -12 4.5 -26z" />
    <glyph glyph-name="x" unicode="x" horiz-adv-x="484" 
d="M524 447c0 -9.33301 -3.83203 -19.999 -11.499 -31.999s-19.167 -25.333 -34.5 -40s-30 -28 -44 -40l-52 -43.5l-47 -39.5c17.333 -66 37.666 -123.333 60.999 -172c14 -28.667 34.333 -43 61 -43l-8 -35c-47.333 -6.66699 -85 -10 -113 -10
c-24.667 0 -41.5 7.16699 -50.5 21.5s-20.167 47.166 -33.5 98.499l-18 68c-23.333 -16 -45.333 -36 -66 -60s-32.334 -42 -35.001 -54c-2.66699 -8 -2.66699 -14.667 0 -20s9.33398 -9.66602 20.001 -12.999l-9 -33c-31.333 -5.33301 -58.666 -8 -81.999 -8
c-16 0 -27.667 1.66699 -35 5s-11 9.66602 -11 18.999c0 8 2.33301 16.833 7 26.5s12 20 22 31l29.5 31c9.66699 9.66699 22.167 20.834 37.5 33.501l37 30.5c9.33301 7.66699 22.166 17.667 38.499 30s26.833 20.5 31.5 24.5l-25 76c-15.333 48 -30.333 80.167 -45 96.5
s-37.334 24.5 -68.001 24.5l7 35c50 11.333 102.667 17 158 17c10.667 0 19.5 -3.83301 26.5 -11.5s11.833 -16 14.5 -25s7 -25.5 13 -49.5l22 -91l15.5 15l15 14.5l13 13c5.66699 5.66699 9.83398 10 12.501 13l10 11.5c4 4.66699 6.83301 8.66699 8.5 12s3.66699 7 6 11
s3.83301 7.66699 4.5 11s1 6.66602 1 9.99902c0 10 -6.66699 17.333 -20 22l6 28c37.333 8 68 12 92 12c25.333 0 38 -7 38 -21z" />
    <glyph glyph-name="y" unicode="y" horiz-adv-x="500" 
d="M529 437c0 -16 -13.001 -50.3311 -39.001 -102.998s-64 -119 -114 -199l-73 -116c-16.667 -26.667 -35.167 -53.334 -55.5 -80.001s-43.5 -53.667 -69.5 -81s-53.333 -49.666 -82 -66.999s-55 -26 -79 -26c-12 0 -21.333 3.5 -28 10.5s-10 15.833 -10 26.5
c0 22.667 13.333 54 40 94l19 3c8.66699 -28.667 27.667 -43 57 -43c12.667 0 24.334 5.66699 35.001 17s18 24.666 22 39.999c4 24 1 91.667 -9 203l-8 86c-8.66699 88.667 -16.667 149 -24 181c-6.66699 27.333 -26 42 -58 44l7 35c70.667 6.66699 118 10 142 10
c19.333 0 31.333 -4.83301 36 -14.5s8.33398 -34.834 11.001 -75.501c0 -4.66699 0.166992 -8.33398 0.5 -11.001s0.666016 -6.16699 0.999023 -10.5s0.5 -8.5 0.5 -12.5l8 -119c4.66699 -80.667 6 -139.667 4 -177h7l47 87c30 56.667 53.833 109.334 71.5 158.001
s26.5 82 26.5 100c0 19.333 -11.333 30 -34 32l4 27c44.667 8 79 12 103 12c14.667 0 25.167 -2.33301 31.5 -7s9.5 -12.667 9.5 -24z" />
    <glyph glyph-name="z" unicode="z" horiz-adv-x="460" 
d="M485 469l5.99805 -24.001l-39.5 -41.5l-60.5 -64l-69 -76.5l-146 -159c66.667 11.333 123 17 169 17c33.333 0 54 -2.5 62 -7.5s12 -15.167 12 -30.5c0 -12.667 -4.5 -30 -13.5 -52s-17.5 -38 -25.5 -48l-8 -3c-1.33301 2.66699 -3.66602 5.16699 -6.99902 7.5
s-7.66602 4.33301 -12.999 6s-10.5 3.16699 -15.5 4.5s-11.667 2.33301 -20 3s-15 1.33398 -20 2.00098s-12.5 1 -22.5 1h-21.5h-22h-19.5c-83.333 0 -143 -2.66699 -179 -8l5 30c149.333 154.667 250 263 302 325c-8.66699 -3.33301 -28 -5 -58 -5
c-12.667 0 -28.667 1.16699 -48 3.5s-34 3.5 -44 3.5c-10.667 0 -19.5 -0.833008 -26.5 -2.5s-16.333 -7.5 -28 -17.5s-23.167 -24.333 -34.5 -43l-22 18c44.667 110.667 83.334 166 116.001 166c29.333 0 69.166 -2.33301 119.499 -7s79.5 -7 87.5 -7
c36.667 0 64.667 3 84 9z" />
    <glyph glyph-name="braceleft" unicode="{" horiz-adv-x="389" 
d="M432 760l44 0.00390625l-8 -41h-29c-32 0 -55.333 -11.333 -70 -34s-28.334 -63.334 -41.001 -122.001l-18 -86c-6.66699 -28.667 -14.334 -51.334 -23.001 -68.001c-38 -68 -86.333 -105 -145 -111l-2 -12c30.667 -4 54.334 -18.667 71.001 -44s25 -53.333 25 -84
c0 -16.667 -2.66699 -39 -8 -67l-18 -86c-9.33301 -42.667 -14 -75.334 -14 -98.001c0 -21.333 4.33301 -36.833 13 -46.5s23.334 -14.5 44.001 -14.5h19l-8 -38h-37c-98.667 0 -148 39 -148 117c0 14 3.66699 38 11 72l16 73c28 130.667 3 196 -75 196h-11l11 54h11
c24 0 45.333 5 64 15s33.667 24.333 45 43s20.333 37.167 27 55.5s12.667 39.833 18 64.5l16 73c14 63.333 38.5 110.666 73.5 141.999s83.833 47 146.5 47z" />
    <glyph glyph-name="bar" unicode="|" horiz-adv-x="277" 
d="M246 760v-951h-72v951h72z" />
    <glyph glyph-name="braceright" unicode="}" horiz-adv-x="388" 
d="M7 -192l-44 -0.00390625l8 41h29c32 0 55.333 11.333 70 34s28.334 63.334 41.001 122.001l18 86c6.66699 28.667 14.334 51.334 23.001 68.001c38 68 86.333 105 145 111l2 12c-30.667 4 -54.334 18.667 -71.001 44s-25 53.333 -25 84c0 16.667 2.66699 39 8 67l18 86
c9.33301 42.667 14 75.334 14 98.001c0 21.333 -4.33301 36.833 -13 46.5s-23.334 14.5 -44.001 14.5h-19l8 38h37c98.667 0 148 -39 148 -117c0 -14 -3.66699 -38 -11 -72l-16 -73c-28 -130.667 -3 -196 75 -196h11l-11 -54h-11c-24 0 -45.333 -5 -64 -15
s-33.667 -24.333 -45 -43s-20.333 -37.167 -27 -55.5s-12.667 -39.833 -18 -64.5l-16 -73c-14 -63.333 -38.5 -110.666 -73.5 -141.999s-83.833 -47 -146.5 -47z" />
    <glyph glyph-name="asciitilde" unicode="~" horiz-adv-x="588" 
d="M526 373l23 -13c-14 -32.667 -35 -61.5 -63 -86.5s-61.333 -37.5 -100 -37.5c-28 0 -63.333 11.5 -106 34.5s-77 34.5 -103 34.5c-46.667 0 -84.667 -21.333 -114 -64l-23 15c50 78.667 104.667 118 164 118c30 0 66 -11.333 108 -34s75.667 -34 101 -34
c44 0 81.667 22.333 113 67z" />
    <glyph glyph-name="nbspace" unicode="&#xa0;" horiz-adv-x="233" 
 />
    <glyph glyph-name="currency" unicode="&#xa4;" horiz-adv-x="568" 
d="M499 158l73.999 -73l-37 -42l-77 75c-45.333 -31.333 -89.666 -47 -132.999 -47c-45.333 0 -90 15.667 -134 47l-74 -75l-37 42l71 73c-29.333 41.333 -44 85.666 -44 132.999c0 46.667 14.667 90.667 44 132l-71 74l37 42l74 -77c44 30.667 88.667 46 134 46
c44.667 0 89 -15.333 133 -46l77 77l37 -42l-74 -74c30.667 -43.333 46 -87.333 46 -132c0 -45.333 -15.333 -89.666 -46 -132.999zM484.999 291c0 44.667 -15.667 82.834 -47 114.501s-68.666 47.5 -111.999 47.5s-80.666 -15.833 -111.999 -47.5s-47 -69.834 -47 -114.501
c0 -45.333 15.667 -84.166 47 -116.499s68.666 -48.5 111.999 -48.5s80.666 16.167 111.999 48.5s47 71.166 47 116.499z" />
    <glyph glyph-name="brokenbar" unicode="&#xa6;" horiz-adv-x="247" 
d="M223 696v-351h-72v351h72zM223 196v-351h-72v351h72z" />
    <glyph glyph-name="section" unicode="&#xa7;" 
d="M530 648c0 -15.333 -9.16699 -30.166 -27.5 -44.499s-37.166 -25.166 -56.499 -32.499l-15 6c7.33301 57.333 -17.334 86 -74.001 86c-26 0 -48.333 -7.33301 -67 -22s-28 -35 -28 -61c0 -18 7 -32.667 21 -44s36.667 -22.666 68 -33.999c52 -17.333 87 -32.333 105 -45
c30 -23.333 45.333 -52.333 46 -87c0 -40.667 -14.5 -76 -43.5 -106s-62.167 -53 -99.5 -69c48.667 -24.667 73 -60.667 73 -108c0 -49.333 -23.5 -92.166 -70.5 -128.499s-102.167 -54.5 -165.5 -54.5c-39.333 0 -71.333 5.66699 -96 17s-37 27.333 -37 48
c0 15.333 9.16699 30.166 27.5 44.499s37.166 25.166 56.499 32.499l15 -6c-7.33301 -57.333 17.334 -86 74.001 -86c24.667 0 46.667 8.83301 66 26.5s29 38.5 29 62.5c0 18 -7 32.667 -21 44s-36.667 22.666 -68 33.999c-52 17.333 -87 32.333 -105 45
c-30.667 22.667 -46 51.667 -46 87c0 40 14.167 74.833 42.5 104.5s60.833 53.834 97.5 72.501c-46.667 23.333 -70 56.666 -70 99.999c0 49.333 23.5 92.166 70.5 128.499s102.167 54.5 165.5 54.5c39.333 0 71.333 -5.66699 96 -17s37 -27.333 37 -48zM392 318
c0 12 -2.66895 22.666 -8.00195 31.999s-13.666 17.333 -24.999 24s-21.5 11.834 -30.5 15.501s-21.167 7.83398 -36.5 12.501l-22 7c-44 -26.667 -66 -61.334 -66 -104.001c0 -16 5.33301 -29.833 16 -41.5s21.834 -20.167 33.501 -25.5s27.5 -11 47.5 -17l22 -7
c46 28 69 62.667 69 104z" />
    <glyph glyph-name="dieresis" unicode="&#xa8;" horiz-adv-x="441" 
d="M488 622c0 -24.667 -7.16699 -43.667 -21.5 -57s-32.5 -20 -54.5 -20c-16.667 0 -29.667 5.5 -39 16.5s-14 24.833 -14 41.5c0 22.667 7 40.667 21 54s31.667 20 53 20c36.667 0 55 -18.333 55 -55zM324 622c0 -24.667 -7.16699 -43.667 -21.5 -57s-32.5 -20 -54.5 -20
c-16.667 0 -29.667 5.5 -39 16.5s-14 24.833 -14 41.5c0 22.667 7 40.667 21 54s31.667 20 53 20c36.667 0 55 -18.333 55 -55z" />
    <glyph glyph-name="copyright" unicode="&#xa9;" horiz-adv-x="763" 
d="M800 348c0 -99.333 -35 -186.331 -105 -260.998s-154.333 -112 -253 -112c-99.333 0 -183.833 36.833 -253.5 110.5s-104.5 161.167 -104.5 262.5s34.833 188.666 104.5 261.999s154.167 110 253.5 110c98.667 0 183 -37.333 253 -112s105 -161.334 105 -260.001z
M758 348.002c0 88 -30.833 164.999 -92.5 230.999s-136.167 99 -223.5 99c-88 0 -162.667 -32.667 -224 -98s-92 -142.666 -92 -231.999c0 -90 30.667 -167.667 92 -233s136 -98 224 -98c87.333 0 161.833 33.167 223.5 99.5s92.5 143.5 92.5 231.5zM572 225.001
l9.00195 -26.001c-4.66699 -5.33301 -10.834 -12 -18.501 -20s-23.667 -18.667 -48 -32s-48.5 -20 -72.5 -20c-54.667 0 -99 17.5 -133 52.5s-51 85.167 -51 150.5c0 76 18.667 135.667 56 179c17.333 20.667 40.166 36.334 68.499 47.001s54.5 16 78.5 16
c26.667 0 48.667 -3.16699 66 -9.5s28.833 -13 34.5 -20s8.5 -14.167 8.5 -21.5c0 -24 -17.667 -46.667 -53 -68l-14 11c1.33301 28.667 -3 47.667 -13 57s-22.667 14 -38 14c-28 0 -52.333 -16.167 -73 -48.5s-31 -79.5 -31 -141.5c0 -56 11 -98.167 33 -126.5
s48 -42.5 78 -42.5c40 0 77.667 16.333 113 49z" />
    <glyph glyph-name="guillemotleft" unicode="&#xab;" horiz-adv-x="460" 
d="M489 472l10 -22l-139 -185l56 -177l-19 -12l-156 197zM331 490l13 -17l-154 -211l61 -190l-20 -12l-172 213z" />
    <glyph glyph-name="logicalnot" unicode="&#xac;" horiz-adv-x="498" 
d="M490 288v-123h-46v70h-374v53h420z" />
    <glyph glyph-name="uni00AD" unicode="&#xad;" horiz-adv-x="356" 
d="M348 268l-33 -85c-52 2.66699 -95 4 -129 4l-116 -4l33 85l137 -5z" />
    <glyph glyph-name="registered" unicode="&#xae;" horiz-adv-x="759" 
d="M800 348c0 -99.333 -35 -186.331 -105 -260.998s-154.333 -112 -253 -112c-99.333 0 -183.833 36.833 -253.5 110.5s-104.5 161.167 -104.5 262.5s34.833 188.666 104.5 261.999s154.167 110 253.5 110c98.667 0 183 -37.333 253 -112s105 -161.334 105 -260.001z
M758 348.002c0 88 -30.833 164.999 -92.5 230.999s-136.167 99 -223.5 99c-88 0 -162.667 -32.667 -224 -98s-92 -142.666 -92 -231.999c0 -90 30.667 -167.667 92 -233s136 -98 224 -98c87.333 0 161.833 33.167 223.5 99.5s92.5 143.5 92.5 231.5zM625 166.001
l-0.00195312 -22.001c-23.333 -8 -46.666 -12 -69.999 -12c-7.33301 0 -13.666 1.33301 -18.999 4s-9.16602 5.16699 -11.499 7.5s-5.66602 6.83301 -9.99902 13.5l-8.5 13c-8 13.333 -21.667 39 -41 77c-2.66699 4.66699 -6 11 -10 19s-6.83301 13.5 -8.5 16.5
s-4.16699 7.16699 -7.5 12.5s-5.83301 9 -7.5 11s-3.66699 4.66699 -6 8s-4.66602 5.83301 -6.99902 7.5s-4.83301 3.16699 -7.5 4.5l-6 4v25c18 1.33301 30 2.33301 36 3c42.667 8.66699 64 38 64 88c0 47.333 -17.333 71 -52 71c-16.667 0 -27.834 -0.5 -33.501 -1.5
s-10.5 -4.16699 -14.5 -9.5c-4.66699 -4.66699 -7 -19 -7 -43v-122c0 -87.333 0.333008 -134.333 1 -141c0.666992 -2 1.16699 -4.83301 1.5 -8.5s0.666016 -6.33398 0.999023 -8.00098s0.833008 -3.66699 1.5 -6s1.66699 -4.33301 3 -6s3.16602 -3.66699 5.49902 -6
s5.16602 -4.5 8.49902 -6.5v-23c-5.33301 -0.666992 -15.333 -1 -30 -1c-24 0 -48.667 2 -74 6l-1 12c2 30 3 66 3 108v150c0 11.333 -0.5 24.833 -1.5 40.5s-1.5 25.834 -1.5 30.501c0 5.33301 -0.5 9.83301 -1.5 13.5s-2.5 6.83398 -4.5 9.50098s-3.66699 4.66699 -5 6
s-3.66602 2.5 -6.99902 3.5s-5.5 1.5 -6.5 1.5h-7.5l-6 1v26c84.667 6 147 9 187 9c81.333 0 122 -31 122 -93c0 -60.667 -34.333 -99 -103 -115c16 -12.667 32.333 -34.334 49 -65.001c23.333 -42.667 37.333 -67.334 42 -74.001c1.33301 -1.33301 4 -4.66602 8 -9.99902
s7 -9 9 -11s4.83301 -4.66699 8.5 -8s7.66699 -5.66602 12 -6.99902s8.83301 -2.33301 13.5 -3z" />
    <glyph glyph-name="degree" unicode="&#xb0;" horiz-adv-x="311" 
d="M330 541c0 -34 -11.833 -63.001 -35.5 -87.001s-53.167 -36 -88.5 -36c-36.667 0 -66 11.833 -88 35.5s-33 52.834 -33 87.501s11 63.667 33 87s51.333 35 88 35c34.667 0 64 -11.833 88 -35.5s36 -52.5 36 -86.5zM284 540.999c0 22 -7.16797 40.167 -21.501 54.5
s-33.166 21.5 -56.499 21.5c-22.667 0 -40.834 -7.16699 -54.501 -21.5s-20.5 -32.5 -20.5 -54.5s6.83301 -40.333 20.5 -55s31.834 -22 54.501 -22c24 0 43 6.66699 57 20s21 32.333 21 57z" />
    <glyph glyph-name="plusminus" unicode="&#xb1;" horiz-adv-x="544" 
d="M515 365l-18 -68c-63.333 1.33301 -118.333 2.33301 -165 3l4 -115l-68 -15c2 50 3 93.333 3 130l-198 -3l15 68c73.333 -2 134.333 -3.33301 183 -4l-3 123l68 18c-2.66699 -61.333 -4 -108.333 -4 -141zM517 137l-14 -69l-226 3l-205 -4l11 70
c90 -1.33301 157.333 -2 202 -2z" />
    <glyph glyph-name="acute" unicode="&#xb4;" horiz-adv-x="522" 
d="M384 660l100 -21l-135 -123l-32 9z" />
    <glyph glyph-name="mu" unicode="&#xb5;" horiz-adv-x="647" 
d="M622 175l29.9951 -14.9971l-30.5 -54.5c-7 -12.333 -17.167 -27.333 -30.5 -45s-25.666 -30.834 -36.999 -39.501s-25.666 -16.334 -42.999 -23.001s-36 -10 -56 -10c-29.333 0 -49.666 8 -60.999 24s-16.333 35.333 -15 58l1 22
c-22.667 -36.667 -45.167 -63.167 -67.5 -79.5s-49.166 -24.5 -80.499 -24.5c-68.667 0 -103 43 -103 129c-10.667 -34 -20.5 -76.667 -29.5 -128s-13.5 -96.333 -13.5 -135c0 -21.333 7 -35 21 -41l-3 -17c-5.33301 -5.33301 -17.5 -10.833 -36.5 -16.5
s-33.833 -8.5 -44.5 -8.5c-18.667 0 -31.167 3.83301 -37.5 11.5s-9.5 18.5 -9.5 32.5c0 26 20.333 93.333 61 202s63.667 173.667 69 195l64 256h128l-61 -277c-6 -28 -9 -51.667 -9 -71c0 -12 4.33301 -23.667 13 -35s21.667 -17 39 -17c44 0 75.667 41.333 95 124l66 276
h130l-73 -303c-8 -30 -12 -53 -12 -69c0 -23.333 10.333 -35 31 -35c18 0 36.833 11.667 56.5 35s35.834 49.666 48.501 78.999z" />
    <glyph glyph-name="paragraph" unicode="&#xb6;" horiz-adv-x="517" 
d="M276 687h299l-10 -47h-81l-176 -828h-63l176 828h-88l-176 -828h-63l128 604c-76 -2 -114 35.667 -114 113c0 46 16.5 83.833 49.5 113.5s72.5 44.5 118.5 44.5z" />
    <glyph glyph-name="periodcentered" unicode="&#xb7;" horiz-adv-x="277" 
d="M244 342c0 -16.667 -6 -31 -18 -43s-26.333 -18 -43 -18s-30.834 6 -42.501 18s-17.5 26.333 -17.5 43s5.83301 30.834 17.5 42.501s25.834 17.5 42.501 17.5s31 -5.83301 43 -17.5s18 -25.834 18 -42.501z" />
    <glyph glyph-name="guillemotright" unicode="&#xbb;" horiz-adv-x="437" 
d="M44 74l-10 22l139 185l-56 177l19 12l156 -197zM202 56l-13 17l154 211l-61 190l20 12l172 -213z" />
    <glyph glyph-name="tilde" unicode="&#x2dc;" horiz-adv-x="452" 
d="M495 598l23.998 -11.999c-17.333 -38.667 -36.666 -68.667 -57.999 -90s-48.666 -32 -81.999 -32c-23.333 0 -53 9.16699 -89 27.5s-64.667 27.5 -86 27.5c-38.667 0 -70 -17.333 -94 -52l-24 16c20 35.333 40.5 63.166 61.5 83.499s47.167 30.5 78.5 30.5
c26 0 57 -9 93 -27s63.333 -27 82 -27c36.667 0 68 18.333 94 55z" />
    <glyph glyph-name="uni037E" unicode="&#x37e;" horiz-adv-x="190" 
d="M221 417c0 -24 -7.33301 -42.333 -22 -55s-31.334 -19 -50.001 -19c-34.667 0 -52 17.667 -52 53c0 21.333 7.33301 38.5 22 51.5s31.334 19.5 50.001 19.5c34.667 0 52 -16.667 52 -50zM191 73c0 -36 -16.333 -76.332 -49 -120.999
c-25.333 -32.667 -65 -65.334 -119 -98.001l-16 21l18 16c7.33301 6.66699 17.166 18.167 29.499 34.5s18.5 30.5 18.5 42.5c0 14.667 -3 29.167 -9 43.5s-9 25.5 -9 33.5c0 24 7.83301 42.667 23.5 56s36.834 20 63.501 20c32.667 0 49 -16 49 -48z" />
    <glyph glyph-name="uni03BC" unicode="&#x3bc;" horiz-adv-x="647" 
d="M622 175l29.9951 -14.9971l-30.5 -54.5c-7 -12.333 -17.167 -27.333 -30.5 -45s-25.666 -30.834 -36.999 -39.501s-25.666 -16.334 -42.999 -23.001s-36 -10 -56 -10c-29.333 0 -49.666 8 -60.999 24s-16.333 35.333 -15 58l1 22
c-22.667 -36.667 -45.167 -63.167 -67.5 -79.5s-49.166 -24.5 -80.499 -24.5c-68.667 0 -103 43 -103 129c-10.667 -34 -20.5 -76.667 -29.5 -128s-13.5 -96.333 -13.5 -135c0 -21.333 7 -35 21 -41l-3 -17c-5.33301 -5.33301 -17.5 -10.833 -36.5 -16.5
s-33.833 -8.5 -44.5 -8.5c-18.667 0 -31.167 3.83301 -37.5 11.5s-9.5 18.5 -9.5 32.5c0 26 20.333 93.333 61 202s63.667 173.667 69 195l64 256h128l-61 -277c-6 -28 -9 -51.667 -9 -71c0 -12 4.33301 -23.667 13 -35s21.667 -17 39 -17c44 0 75.667 41.333 95 124l66 276
h130l-73 -303c-8 -30 -12 -53 -12 -69c0 -23.333 10.333 -35 31 -35c18 0 36.833 11.667 56.5 35s35.834 49.666 48.501 78.999z" />
    <glyph glyph-name="afii10023" unicode="&#x401;" horiz-adv-x="548" 
d="M612 647c0 -15.333 -10.0029 -37.333 -30.0029 -66s-41 -52.667 -63 -72l-39 -5c13.333 36.667 20 63.667 20 81s-6.5 30 -19.5 38s-34.167 12 -63.5 12c-44 0 -73 -7 -87 -21c-11.333 -10 -20.333 -34.333 -27 -73c-1.33301 -8.66699 -6.66602 -36.5 -15.999 -83.5
l-16 -80.5l185 4l-26 -70c-25.333 5.33301 -82.333 10 -171 14l-26 -120c-14.667 -66 -22 -104.667 -22 -116c0 -14.667 6.5 -25.5 19.5 -32.5s37.5 -10.5 73.5 -10.5c25.333 0 49 4.33301 71 13s41.333 21.167 58 37.5s29.834 30.833 39.501 43.5s20.167 28 31.5 46l31 -6
l-55 -173c-30 -8.66699 -102 -13 -216 -13c-92.667 0 -152 2 -178 6c-16.667 2.66699 -25 11.667 -25 27c0 5.33301 1.83301 15.333 5.5 30l16 64.5c7 28.333 13.5 56.166 19.5 83.499l53 250c14.667 68.667 22 113.667 22 135c0 12.667 -3.16699 22.167 -9.5 28.5
s-12.166 9.83301 -17.499 10.5s-14 1.33398 -26 2.00098l9 42c142 9.33301 246 14 312 14c62.667 0 106.167 -2.5 130.5 -7.5s36.5 -15.833 36.5 -32.5zM548.997 793c0 -18.667 -6.16602 -34.834 -18.499 -48.501s-28.5 -20.5 -48.5 -20.5c-34 0 -51 15.667 -51 47
c0 21.333 6.66699 37.833 20 49.5s30 17.5 50 17.5c15.333 0 27.166 -4.16699 35.499 -12.5s12.5 -19.166 12.5 -32.499zM384.998 793c0 -18.667 -6.16602 -34.834 -18.499 -48.501s-28.833 -20.5 -49.5 -20.5c-33.333 0 -50 15.667 -50 47
c0 21.333 6.83301 37.833 20.5 49.5s30.167 17.5 49.5 17.5c15.333 0 27.166 -4.16699 35.499 -12.5s12.5 -19.166 12.5 -32.499z" />
    <glyph glyph-name="afii10051" unicode="&#x402;" horiz-adv-x="716" 
d="M704 253c0 -33.333 -6.16992 -64.835 -18.5029 -94.502s-28.166 -54.334 -47.499 -74.001s-40.666 -36.667 -63.999 -51s-46 -24.833 -68 -31.5s-41.667 -10 -59 -10c-31.333 0 -52 3.66699 -62 11s-15 17.666 -15 30.999c0 10.667 5.83301 22.334 17.5 35.001
s26.167 23 43.5 31l10 -7c0 -34 13 -51 39 -51c18.667 0 34.834 10 48.501 30s23.334 42.333 29.001 67s8.5 49 8.5 73c0 10 -0.166992 18.333 -0.5 25s-1.33301 16.334 -3 29.001s-4.83398 23.167 -9.50098 31.5s-10.5 17 -17.5 26s-16.833 15.833 -29.5 20.5
s-27.334 7 -44.001 7c-33.333 0 -62.333 -8 -87 -24l-25 -104c-19.333 -81.333 -29 -131.666 -29 -150.999c0 -15.333 4 -28.666 12 -39.999l-7 -33c-26 -1.33301 -49.333 -2 -70 -2c-49.333 0 -74 10.667 -74 32c0 14.667 11 73.334 33 176.001l35 165
c30 142 45 221.667 45 239c0 11.333 -2.83301 18.666 -8.5 21.999s-14.5 5 -26.5 5c-29.333 0 -54 -9 -74 -27c-26 -24.667 -50.333 -61.667 -73 -111l-39 -12c4 92.667 14.333 154 31 184l17 11c72.667 4 166.334 6 281.001 6c120 0 198.167 -2.5 234.5 -7.5
s54.5 -17.167 54.5 -36.5c0 -14.667 -10.5 -37.5 -31.5 -68.5s-42.167 -56.167 -63.5 -75.5l-39 -5c14.667 32.667 22 65 22 97c0 16.667 -5.83301 28.167 -17.5 34.5s-31.167 9.5 -58.5 9.5h-73c0 -32.667 -15 -117.667 -45 -255c48 21.333 98.667 32 152 32
c54.667 0 96 -14 124 -42s42 -67 42 -117z" />
    <glyph glyph-name="afii10052" unicode="&#x403;" horiz-adv-x="513" 
d="M605 647c0 -15.333 -10.001 -37.335 -30.001 -66.002s-41 -52.667 -63 -72l-39 -5c13.333 36.667 20 63.667 20 81c0 18 -5.5 30.833 -16.5 38.5s-30.833 11.5 -59.5 11.5c-44 0 -73 -7 -87 -21c-9.33301 -8.66699 -18.333 -33 -27 -73l-81 -402
c-6.66699 -31.333 -10 -53.333 -10 -66s3.66699 -21.667 11 -27s20.333 -9.33301 39 -12l-7 -34h-166c-16.667 0 -25 10 -25 30c0 8.66699 2.5 24.334 7.5 47.001s11 47.667 18 75s11.167 45 12.5 53l53 250c14.667 68 22 113 22 135c0 12.667 -3.16699 22.167 -9.5 28.5
s-12.166 9.83301 -17.499 10.5s-14 1.33398 -26 2.00098l9 42c142 9.33301 246 14 312 14c62 0 104.167 -2.5 126.5 -7.5s33.5 -15.833 33.5 -32.5zM420.999 865.998l108 -22l-156 -129l-33 11z" />
    <glyph glyph-name="afii10053" unicode="&#x404;" horiz-adv-x="548" 
d="M619 609c0 -32.667 -34.666 -68.002 -103.999 -106.002l-17 16c6 24 9 44 9 60c0 37.333 -22.333 56 -67 56c-40 0 -80.667 -24.167 -122 -72.5s-72 -111.833 -92 -190.5l228 8l-28 -77c-56.667 10.667 -126.667 17.334 -210 20.001c-6 -35.333 -9 -73 -9 -113
c0 -45.333 11.667 -81.666 35 -108.999s52.666 -41 87.999 -41c64 0 124.333 26 181 78l8 -47l-11.5 -11c-5 -4.66699 -15.667 -13 -32 -25s-33.333 -22.667 -51 -32s-40.167 -17.666 -67.5 -24.999s-54.666 -11 -81.999 -11c-62 0 -112.167 17.333 -150.5 52
s-57.5 88 -57.5 160c0 82 16.167 157.167 48.5 225.5s70.166 122.833 113.499 163.5c36 33.333 75.5 58.166 118.5 74.499s82.167 24.5 117.5 24.5c102.667 0 154 -26 154 -78z" />
    <glyph glyph-name="afii10054" unicode="&#x405;" horiz-adv-x="509" 
d="M562 624c0 -22 -9.00586 -43.999 -27.0059 -65.999s-37.667 -40.667 -59 -56l-17 9c2.66699 22.667 4 37.334 4 44.001c0 53.333 -31.667 80 -95 80c-43.333 0 -75 -11.333 -95 -34s-30 -47 -30 -73c0 -9.33301 0.833008 -18.166 2.5 -26.499s4.83398 -16 9.50098 -23
s8.83398 -13 12.501 -18s9.66699 -10.667 18 -17l18 -13.5c3.66699 -2.66699 10.834 -7.16699 21.501 -13.5l21 -12.5c29.333 -18.667 49 -31.5 59 -38.5s24.167 -18.667 42.5 -35s30.833 -32.833 37.5 -49.5s10 -35.667 10 -57c0 -67.333 -27.833 -123.5 -83.5 -168.5
s-124.167 -67.5 -205.5 -67.5c-60 0 -104.167 8.66699 -132.5 26s-42.5 39.666 -42.5 66.999c0 40.667 29 76.667 87 108l20 -10c-4.66699 -11.333 -7 -29 -7 -53c0 -28 9.16699 -49.333 27.5 -64s39.166 -22 62.499 -22c40 0 73.333 12.5 100 37.5s40 57.5 40 97.5
c0 15.333 -1.66699 28.666 -5 39.999s-9.83301 22 -19.5 32s-17.667 17.5 -24 22.5s-18.5 13.333 -36.5 25l-39 25.5c-2.66699 2 -9.5 6.66699 -20.5 14s-18.333 12.333 -22 15s-10.167 7.66699 -19.5 15s-15.666 13.333 -18.999 18s-8.16602 11 -14.499 19
s-10.666 15.667 -12.999 23s-4.66602 16.166 -6.99902 26.499s-3.5 20.833 -3.5 31.5c0 62 24.667 111.667 74 149s115 56 197 56c59.333 0 103 -6 131 -18s42 -27 42 -45z" />
    <glyph glyph-name="afii10055" unicode="&#x406;" horiz-adv-x="304" 
d="M328 659c0 -7.33301 -3.33203 -28.6689 -9.99902 -64.002l-54 -253l-44 -203c-6.66699 -31.333 -10 -53.333 -10 -66s2.5 -21.667 7.5 -27s13.833 -9.33301 26.5 -12l-7 -34h-147c-16.667 0 -25 10 -25 30c0 10 12.667 68.333 38 175c5.33301 18.667 15 61 29 127
c32 150.667 48 238.334 48 263.001c0 16 -3.83301 27.167 -11.5 33.5s-21.834 10.833 -42.501 13.5l7 34c65.333 8 117 12 155 12c10.667 0 18.167 -0.333008 22.5 -1s8.33301 -3.16699 12 -7.5s5.5 -11.166 5.5 -20.499z" />
    <glyph glyph-name="afii10056" unicode="&#x407;" horiz-adv-x="304" 
d="M398 783c0 -18.667 -6.16602 -34.834 -18.499 -48.501s-28.5 -20.5 -48.5 -20.5c-34 0 -51 15.667 -51 47c0 21.333 6.66699 37.833 20 49.5s30 17.5 50 17.5c15.333 0 27.166 -4.16699 35.499 -12.5s12.5 -19.166 12.5 -32.499zM260.001 783
c0 -18.667 -6.16602 -34.834 -18.499 -48.501s-28.833 -20.5 -49.5 -20.5c-33.333 0 -50 15.667 -50 47c0 21.333 6.83301 37.833 20.5 49.5s30.167 17.5 49.5 17.5c15.333 0 27.166 -4.16699 35.499 -12.5s12.5 -19.166 12.5 -32.499zM328.002 659
c0 -7.33301 -3.33203 -28.6689 -9.99902 -64.002l-54 -253l-44 -203c-6.66699 -31.333 -10 -53.333 -10 -66s2.5 -21.667 7.5 -27s13.833 -9.33301 26.5 -12l-7 -34h-147c-16.667 0 -25 10 -25 30c0 10 12.667 68.333 38 175c5.33301 18.667 15 61 29 127
c32 150.667 48 238.334 48 263.001c0 16 -3.83301 27.167 -11.5 33.5s-21.834 10.833 -42.501 13.5l7 34c65.333 8 117 12 155 12c10.667 0 18.167 -0.333008 22.5 -1s8.33301 -3.16699 12 -7.5s5.5 -11.166 5.5 -20.499z" />
    <glyph glyph-name="afii10057" unicode="&#x408;" horiz-adv-x="313" 
d="M345 659c0 -7.33301 -3.33301 -28.668 -10 -64.001l-27.5 -128c-13.667 -63.333 -22.5 -105 -26.5 -125l-29 -143c-22.667 -104 -47.334 -179 -74.001 -225c-23.333 -41.333 -55.5 -75 -96.5 -101s-81.833 -39 -122.5 -39c-62.667 0 -94 17 -94 51
c0 8.66699 1.83301 16.334 5.5 23.001s9.83398 12.667 18.501 18s15.5 9.16602 20.5 11.499s13.833 5.66602 26.5 9.99902s19.334 6.83301 20.001 7.5l10 -12c0 -38.667 10.667 -58 32 -58c42.667 0 74 50 94 150c2.66699 10.667 10.167 50.5 22.5 119.5
s21.5 117.167 27.5 144.5l7 33c32 148.667 48 236.334 48 263.001c0 16 -3.83301 27.167 -11.5 33.5s-21.834 10.833 -42.501 13.5l7 34c65.333 8 117 12 155 12c10.667 0 18.167 -0.333008 22.5 -1s8.33301 -3.16699 12 -7.5s5.5 -11.166 5.5 -20.499z" />
    <glyph glyph-name="afii10058" unicode="&#x409;" horiz-adv-x="863" 
d="M850 226c0 -38 -10.0049 -72.502 -30.0049 -103.502s-45.167 -55.333 -75.5 -73s-61.333 -31 -93 -40s-61.5 -13.5 -89.5 -13.5c-28.667 0 -51 0.5 -67 1.5s-33 5 -51 12s-30.667 17.167 -38 30.5c-9.33301 18 -15 81 -17 189v8v8v9l-5 257
c-1.33301 52.667 -4.66602 87 -9.99902 103h-5l-57 -117c-110 -228.667 -169 -362 -177 -400c-7.33301 -32 -1.33301 -56.333 18 -73l-6 -28c-45.333 -2 -77.333 -3 -96 -3c-15.333 0 -24.666 4.16699 -27.999 12.5s-3 18.5 1 30.5c8 35.333 36.667 99.333 86 192l68 117
l29.5 54.5l33.5 62l28.5 54c10.333 19.667 18.333 35.834 24 48.501s9.16699 21.667 10.5 27c2 11.333 -0.166992 20 -6.5 26s-12.166 9.33301 -17.499 10s-14 1.66699 -26 3l7 31c106.667 17.333 174 26 202 26c22.667 0 35.834 -5.33301 39.501 -16s6.5 -45.667 8.5 -105
c10 -293.333 16.333 -446.666 19 -459.999c4 -20.667 10.833 -35.5 20.5 -44.5s25.834 -13.5 48.501 -13.5c31.333 0 57.833 14.667 79.5 44s32.5 68.333 32.5 117c0 16.667 -0.166992 29.167 -0.5 37.5s-2.33301 19.5 -6 33.5s-9 24.333 -16 31s-17.5 12.834 -31.5 18.501
s-31.333 8.5 -52 8.5l-68 -5l2 43c22.667 5.33301 53.667 8 93 8c45.333 0 83 -3.83301 113 -11.5s52.333 -19.334 67 -35.001s24.667 -32 30 -49s8 -37.833 8 -62.5z" />
    <glyph glyph-name="afii10059" unicode="&#x40a;" horiz-adv-x="930" 
d="M922 265c0 -60 -17.3311 -111.84 -51.998 -155.507s-76 -75 -124 -94s-97.667 -28.5 -149 -28.5c-54.667 0 -108.334 5 -161.001 15c-16.667 3.33301 -25 11.333 -25 24c0 5.33301 2.33301 18.333 7 39s10.667 45.834 18 75.501s12.666 51.834 15.999 66.501l29 132
l-217 3l-44 -203c-6.66699 -31.333 -10 -53.333 -10 -66s2.5 -21.667 7.5 -27s13.833 -9.33301 26.5 -12l-7 -34h-147c-16.667 0 -25 10 -25 30c0 10 12.667 68.333 38 175l29 127c32 140 48 227.667 48 263c0 16 -3.83301 27.167 -11.5 33.5s-21.834 10.833 -42.501 13.5
l7 34c65.333 8 117 12 155 12c10.667 0 18.167 -0.333008 22.5 -1s8.33301 -3.16699 12 -7.5s5.5 -11.166 5.5 -20.499c0 -7.33301 -3.33301 -28.666 -10 -63.999l-44 -205l220 10l12 55c15.333 72 23 118.667 23 140c0 16 -2.66699 26.833 -8 32.5s-16 10.5 -32 14.5l7 34
c56 8 103 12 141 12c10.667 0 18.167 -0.333008 22.5 -1s8.33301 -3.16699 12 -7.5s5.5 -11.166 5.5 -20.499c0 -7.33301 -3.33301 -28.666 -10 -63.999c-25.333 -124 -40.666 -197.333 -45.999 -220c-10 -49.333 -22.333 -104.666 -37 -165.999
c-20.667 -92 -31 -139.333 -31 -142c0 -18.667 19.333 -28 58 -28c59.333 0 106 25.667 140 77c24 34.667 36 80.667 36 138c0 28.667 -7.5 52 -22.5 70s-37.833 27 -68.5 27c-25.333 0 -47.333 -3.33301 -66 -10l9 46c36.667 12.667 73 19 109 19c116 0 174 -47 174 -141z
" />
    <glyph glyph-name="afii10060" unicode="&#x40b;" horiz-adv-x="761" 
d="M692 34l-7.00195 -33.999h-147c-16.667 0 -25 10 -25 30c0 11.333 7.33301 53.666 22 126.999c13.333 66.667 20 105.667 20 117c0 10 -0.833008 18.5 -2.5 25.5s-5.16699 15 -10.5 24s-14.833 15.833 -28.5 20.5s-30.834 7 -51.501 7c-33.333 0 -62.333 -8 -87 -24
l-25 -104c-19.333 -81.333 -29 -131.666 -29 -150.999c0 -20.667 11.333 -33.334 34 -38.001l-7 -34h-147c-16.667 0 -25 10 -25 30c0 8.66699 2.33301 23.834 7 45.501s10.834 47.667 18.501 78s11.834 47.5 12.501 51.5l36 165c30 142 45 221.667 45 239
c0 11.333 -2.83301 18.666 -8.5 21.999s-14.5 5 -26.5 5c-29.333 0 -54 -9 -74 -27c-26 -24.667 -50.333 -61.667 -73 -111l-39 -12c4 92.667 14.333 154 31 184l17 11c72.667 4 166.334 6 281.001 6c120 0 198.167 -2.5 234.5 -7.5s54.5 -17.167 54.5 -36.5
c0 -14.667 -10.5 -37.5 -31.5 -68.5s-42.167 -56.167 -63.5 -75.5l-39 -5c14.667 32.667 22 65 22 97c0 16.667 -5.83301 28.167 -17.5 34.5s-31.167 9.5 -58.5 9.5h-73c0 -32.667 -15 -117.667 -45 -255c48 21.333 95.667 32 143 32c61.333 0 103.5 -10.833 126.5 -32.5
s34.5 -52.5 34.5 -92.5c0 -12 -6.66699 -52 -20 -120c-8.66699 -48 -13 -79.333 -13 -94c0 -12.667 2.66699 -21.667 8 -27s14.333 -9.33301 27 -12z" />
    <glyph glyph-name="afii10061" unicode="&#x40c;" horiz-adv-x="608" 
d="M653 667c0 -8.66699 -10.3311 -27.332 -30.998 -55.999s-41.334 -54.667 -62.001 -78c-49.333 -52.667 -101 -101.667 -155 -147c22.667 -28 44.667 -73 66 -135c32 -90.667 51.667 -142.667 59 -156c8 -14 16.167 -23.833 24.5 -29.5s20.833 -10.5 37.5 -14.5l-7 -34
c-53.333 -15.333 -94.333 -23 -123 -23c-6 0 -11.5 0.5 -16.5 1.5s-9.5 2.83301 -13.5 5.5l-10 6.5c-2.66699 1.66699 -5.5 5 -8.5 10s-5.16699 8.33301 -6.5 10s-3.66602 6 -6.99902 13s-5.33301 11.5 -6 13.5c-4.66699 10.667 -12.334 35.5 -23.001 74.5
s-16.667 60.167 -18 63.5c-12 35.333 -20.5 59.666 -25.5 72.999s-11.333 25.333 -19 36s-16.834 17.334 -27.501 20.001l-12 3l9 33c30 12 61 31 93 57s58 51.333 78 76c37.333 44.667 56 83.667 56 117c0 17.333 -8.66699 28.666 -26 33.999l7 34c76.667 8 123 12 139 12
c10.667 0 18 -1.16699 22 -3.5s6 -7.83301 6 -16.5zM328.002 659.002c0 -7.33301 -3.33203 -28.6689 -9.99902 -64.002l-54 -253l-44 -203c-6.66699 -31.333 -10 -53.333 -10 -66s2.5 -21.667 7.5 -27s13.833 -9.33301 26.5 -12l-7 -34h-147c-16.667 0 -25 10 -25 30
c0 10 12.667 68.333 38 175l29 127c32 138.667 48 226.334 48 263.001c0 16 -3.83301 27.167 -11.5 33.5s-21.834 10.833 -42.501 13.5l7 34c65.333 8 117 12 155 12c10.667 0 18.167 -0.333008 22.5 -1s8.33301 -3.16699 12 -7.5s5.5 -11.166 5.5 -20.499zM491.003 865.999
l108 -22l-156 -129l-33 11z" />
    <glyph glyph-name="afii10062" unicode="&#x40e;" horiz-adv-x="549" 
d="M626 662c0 -22 -32.0029 -87.335 -96.0029 -196.002l-74 -126c-32 -54 -71 -114 -117 -180c-83.333 -118 -156.666 -177 -219.999 -177c-24 0 -36 12.667 -36 38s12 57 36 95l18 4c11.333 -24 30.333 -36 57 -36c14 0 26.167 5.83301 36.5 17.5s15.5 29.5 15.5 53.5
c0 42.667 -7.66699 104.334 -23 185.001l-15 81c-15.333 82.667 -29.333 137 -42 163c-9.33301 18.667 -19.333 31.834 -30 39.501s-25 11.5 -43 11.5l8 32c74.667 18.667 130.667 28 168 28c14 0 24.167 -11.167 30.5 -33.5s15.166 -66.833 26.499 -133.5
c14 -84 25.333 -162.333 34 -235h5l38 59c22.667 35.333 45.834 78.5 69.501 129.5s35.5 89.5 35.5 115.5c0 15.333 -1.66699 26.333 -5 33s-10.666 12 -21.999 16l7 26c48.667 10 82.667 15 102 15c12.667 0 21.834 -1.66699 27.501 -5s8.5 -10 8.5 -20zM562.997 846.998
l29.998 -10c-40 -82 -107.333 -123 -202 -123c-64.667 0 -97 17.667 -97 53c0 14.667 5.33301 28.667 16 42s21.334 23 32.001 29l17 8c10.667 -26 23.334 -44.333 38.001 -55s35 -16 61 -16c40.667 0 75.667 24 105 72z" />
    <glyph glyph-name="afii10145" unicode="&#x40f;" horiz-adv-x="656" 
d="M671 659c0 -14.667 -3.33398 -36.0029 -10.001 -64.0029l-37 -162.5c-21.333 -93 -35.333 -155.833 -42 -188.5c-18.667 -85.333 -28 -136.666 -28 -153.999v-9.5v-11c0 -1.66699 0.333008 -4.66699 1 -9s2 -7.33301 4 -9s4.33301 -4.16699 7 -7.5
s6.33398 -5.83301 11.001 -7.5s10.334 -3.16699 17.001 -4.5l-12 -32h-147c-11.333 0 -21.833 -1.83301 -31.5 -5.5s-18.334 -9.5 -26.001 -17.5s-14.167 -15.833 -19.5 -23.5s-10.666 -18.667 -15.999 -33s-9.5 -26 -12.5 -35s-7.16699 -22.167 -12.5 -39.5
s-9.33301 -30 -12 -38l-38 -4c3.33301 43.333 5 78 5 104c0 61.333 -27 92 -81 92h-81c-16 0 -27 2.5 -33 7.5s-9 13.167 -9 24.5c0 10 11.333 67.333 34 172l54 252c16 73.333 24 119.666 24 138.999c0 16 -3.83301 27.167 -11.5 33.5s-21.834 10.833 -42.501 13.5l7 34
c65.333 8 117 12 155 12c10.667 0 18.167 -0.333008 22.5 -1s8.33301 -3.16699 12 -7.5s5.5 -11.166 5.5 -20.499c0 -7.33301 -3.33301 -28.666 -10 -63.999l-48 -224c-37.333 -176.667 -56 -267 -56 -271c0 -20.667 6.66699 -35.5 20 -44.5s37 -13.5 71 -13.5
c38 0 76.333 4.66699 115 14c0 24.667 10.333 84 31 178l49 222c15.333 68 23 114.333 23 139c0 16 -2.66699 26.833 -8 32.5s-16 10.5 -32 14.5l7 34c56 8 103 12 141 12c10.667 0 18.167 -0.333008 22.5 -1s8.33301 -3.16699 12 -7.5s5.5 -11.166 5.5 -20.499z" />
    <glyph glyph-name="afii10017" unicode="&#x410;" horiz-adv-x="589" 
d="M580 40l-11 -41.998c-46 -3.33301 -77.333 -5 -94 -5c-28.667 0 -48.667 5 -60 15s-18 29.333 -20 58c-0.666992 11.333 -1.16699 26.166 -1.5 44.499s-0.666016 41.166 -0.999023 68.499s-0.833008 51 -1.5 71l-197 2c-44 -82 -66 -144 -66 -186
c0 -14.667 7.33301 -27.334 22 -38.001l-8 -30c-42.667 -3.33301 -73.667 -5 -93 -5c-28 0 -42 10.333 -42 31c0 28 30 92.667 90 194l87 146l32.5 52l35 56.5l29 49c9.66699 17 17.167 31.833 22.5 44.5s8 22.667 8 30c0 6.66699 -2.16699 11.5 -6.5 14.5
s-9.16602 5 -14.499 6s-12.333 1.5 -21 1.5h-5l8 36c103.333 22 168.666 33 195.999 33c20.667 0 33.167 -6 37.5 -18s7.16602 -40 8.49902 -84c0.666992 -8.66699 1 -15.334 1 -20.001l9 -289c2.66699 -95.333 4.66699 -146.666 6 -153.999
c4.66699 -29.333 10.167 -50.166 16.5 -62.499s17.5 -18.833 33.5 -19.5zM221 302.002l170 -6l-4 214c0 54.667 -1 90 -3 106h-3l-60 -120z" />
    <glyph glyph-name="afii10018" unicode="&#x411;" horiz-adv-x="584" 
d="M615 647c0 -15.333 -9.99902 -37.3359 -29.999 -66.0029s-41 -52.667 -63 -72l-39 -5c13.333 36.667 20 63.667 20 81c0 18 -6.83301 30.833 -20.5 38.5s-35.5 11.5 -65.5 11.5c-41.333 0 -70.333 -7 -87 -21c-10.667 -8.66699 -20 -34 -28 -76l-11 -65
c-5.33301 -32 -11.666 -65.333 -18.999 -100c-10 -49.333 -22.333 -104.666 -37 -165.999c-20.667 -92 -31 -139.333 -31 -142c0 -18.667 19.333 -28 58 -28c59.333 0 106 25.667 140 77c24 34.667 36 80.667 36 138c0 28.667 -7.5 52 -22.5 70s-37.833 27 -68.5 27
c-25.333 0 -47.333 -3.33301 -66 -10l9 46c36.667 12.667 73 19 109 19c116 0 174 -47 174 -141c0 -60 -17.333 -111.833 -52 -155.5s-76 -75 -124 -94s-97.667 -28.5 -149 -28.5c-54.667 0 -108.334 5 -161.001 15c-16.667 3.33301 -25 11.333 -25 24
c0 5.33301 2.33301 18.333 7 39s10.667 45.834 18 75.501s12.666 51.834 15.999 66.501l53 250c13.333 62.667 20 107.334 20 134.001c0 12 -2.83301 21.167 -8.5 27.5s-11.667 10.166 -18 11.499s-14.833 2.33301 -25.5 3l9 42c142 9.33301 246 14 312 14
c63.333 0 107.5 -2.5 132.5 -7.5s37.5 -15.833 37.5 -32.5z" />
    <glyph glyph-name="afii10019" unicode="&#x412;" horiz-adv-x="581" 
d="M601 573c0 -29.333 -5.66992 -56.3281 -17.0029 -80.9951s-26.166 -44.834 -44.499 -60.501s-35.666 -28 -51.999 -37s-32.5 -16.167 -48.5 -21.5l-1 -6c18 -4.66699 33 -9.66699 45 -15s24.833 -12.833 38.5 -22.5s24 -22.667 31 -39s10.5 -35.5 10.5 -57.5
c0 -40.667 -9.5 -77.334 -28.5 -110.001s-44 -58.834 -75 -78.501s-64.667 -34.5 -101 -44.5s-73.166 -15 -110.499 -15c-54.667 0 -108.334 5 -161.001 15c-16.667 3.33301 -25 11.333 -25 24c0 5.33301 1.83301 15.5 5.5 30.5l16 66.5l19.5 84l53 250
c4 18 8 39.833 12 65.5s6.66699 43.167 8 52.5c0 7.33301 0.5 13.666 1.5 18.999s0.5 10 -1.5 14s-3.33301 7.33301 -4 10s-2.66699 5 -6 7s-5.66602 3.5 -6.99902 4.5s-4 1.66699 -8 2s-7 0.666016 -9 0.999023s-5.16699 0.5 -9.5 0.5h-8.5l9 42c142 9.33301 246 14 312 14
c16 0 30 -0.5 42 -1.5s25.667 -3.66699 41 -8s27.833 -10.5 37.5 -18.5s18 -19.333 25 -34s10.5 -32 10.5 -52zM463.997 561.005c0 24.667 -5.99902 43.167 -17.999 55.5s-27.667 18.5 -47 18.5c-32 0 -55 -7 -69 -21c-8.66699 -8.66699 -17.334 -33 -26.001 -73
c-1.33301 -6 -6.33301 -32.333 -15 -79s-14 -75 -16 -85l67 4c38.667 2.66699 69 20.167 91 52.5s33 74.833 33 127.5zM424.998 246.005c0 28 -8.16699 49.332 -24.5 63.999s-38.5 22 -66.5 22c-14.667 0 -38.667 -3 -72 -9l-27 -116c-20.667 -92 -31 -139.333 -31 -142
c0 -18.667 19.333 -28 58 -28c51.333 0 94 25.667 128 77c9.33301 12.667 17.5 31.334 24.5 56.001s10.5 50 10.5 76z" />
    <glyph glyph-name="afii10020" unicode="&#x413;" horiz-adv-x="513" 
d="M605 647c0 -15.333 -10.001 -37.335 -30.001 -66.002s-41 -52.667 -63 -72l-39 -5c13.333 36.667 20 63.667 20 81c0 18 -5.5 30.833 -16.5 38.5s-30.833 11.5 -59.5 11.5c-44 0 -73 -7 -87 -21c-9.33301 -8.66699 -18.333 -33 -27 -73l-81 -402
c-6.66699 -31.333 -10 -53.333 -10 -66s3.66699 -21.667 11 -27s20.333 -9.33301 39 -12l-7 -34h-166c-16.667 0 -25 10 -25 30c0 8.66699 2.5 24.334 7.5 47.001s11 47.667 18 75s11.167 45 12.5 53l53 250c14.667 68 22 113 22 135c0 12.667 -3.16699 22.167 -9.5 28.5
s-12.166 9.83301 -17.499 10.5s-14 1.33398 -26 2.00098l9 42c142 9.33301 246 14 312 14c62 0 104.167 -2.5 126.5 -7.5s33.5 -15.833 33.5 -32.5z" />
    <glyph glyph-name="afii10021" unicode="&#x414;" horiz-adv-x="648" 
d="M645 42c-10 -34 -27.333 -74.8301 -52 -122.497s-45.667 -83.167 -63 -106.5l-32 -4c6 18.667 12 43 18 73s9 50.667 9 62c0 20 -5.16699 33.667 -15.5 41s-28.5 11 -54.5 11c-156.667 0 -248 -0.333008 -274 -1c-38.667 -0.666992 -66.167 -4.16699 -82.5 -10.5
s-32.5 -18.166 -48.5 -35.499c-8 -8.66699 -15.833 -22.334 -23.5 -41.001s-13.167 -35.334 -16.5 -50.001l-6 -22l-36 -14c3.33301 93.333 12.666 165 27.999 215c29.333 6 50.333 13.667 63 23c16 12 32.333 29.333 49 52s39.334 61 68.001 115l71 131l30.5 56l34.5 62
l29 53.5c10 19 17.667 34.5 23 46.5s8 20.333 8 25c0 3.33301 -0.333008 6.33301 -1 9s-1.33398 5 -2.00098 7s-2 3.66699 -4 5s-3.66699 2.33301 -5 3s-3.5 1.16699 -6.5 1.5s-5.33301 0.666016 -7 0.999023s-4.5 0.666016 -8.5 0.999023s-6.66699 0.5 -8 0.5l9 32
c104.667 17.333 171.334 26 200.001 26c16 0 26.833 -3 32.5 -9s8.5 -19.333 8.5 -40c0 -21.333 -1.33301 -51.333 -4 -90l-17 -273c-2.66699 -44 -4 -80 -4 -108c0 -35.333 3.16699 -61.333 9.5 -78s17.833 -28.667 34.5 -36zM432 272.003l18.001 247
c3.33301 45.333 3.33301 77 0 95h-5l-56 -101c-18 -32.667 -56.667 -106.667 -116 -222c-8 -16.667 -17.833 -36.167 -29.5 -58.5l-28.5 -54.5l-21.5 -43c-7 -14.667 -12.167 -26.834 -15.5 -36.501s-5 -17.5 -5 -23.5c0 -10.667 7.66699 -18.167 23 -22.5
s41.666 -6.5 78.999 -6.5c25.333 0 78 1.66699 158 5c-4.66699 22 -7 46 -7 72c0 40.667 2 90.334 6 149.001z" />
    <glyph glyph-name="afii10022" unicode="&#x415;" horiz-adv-x="548" 
d="M612 647c0 -15.333 -10.0029 -37.333 -30.0029 -66s-41 -52.667 -63 -72l-39 -5c13.333 36.667 20 63.667 20 81s-6.5 30 -19.5 38s-34.167 12 -63.5 12c-44 0 -73 -7 -87 -21c-11.333 -10 -20.333 -34.333 -27 -73c-1.33301 -8.66699 -6.66602 -36.5 -15.999 -83.5
l-16 -80.5l185 4l-26 -70c-25.333 5.33301 -82.333 10 -171 14l-26 -120c-14.667 -66 -22 -104.667 -22 -116c0 -14.667 6.5 -25.5 19.5 -32.5s37.5 -10.5 73.5 -10.5c25.333 0 49 4.33301 71 13s41.333 21.167 58 37.5s29.834 30.833 39.501 43.5s20.167 28 31.5 46l31 -6
l-55 -173c-30 -8.66699 -102 -13 -216 -13c-92.667 0 -152 2 -178 6c-16.667 2.66699 -25 11.667 -25 27c0 5.33301 1.83301 15.333 5.5 30l16 64.5c7 28.333 13.5 56.166 19.5 83.499l53 250c14.667 68.667 22 113.667 22 135c0 12.667 -3.16699 22.167 -9.5 28.5
s-12.166 9.83301 -17.499 10.5s-14 1.33398 -26 2.00098l9 42c142 9.33301 246 14 312 14c62.667 0 106.167 -2.5 130.5 -7.5s36.5 -15.833 36.5 -32.5z" />
    <glyph glyph-name="afii10024" unicode="&#x416;" horiz-adv-x="923" 
d="M968 667c0 -8.66699 -10.3311 -27.332 -30.998 -55.999s-41.334 -54.667 -62.001 -78c-49.333 -52.667 -101 -101.667 -155 -147c22.667 -28 44.667 -73 66 -135c32 -90.667 51.667 -142.667 59 -156c8 -14 16.167 -23.833 24.5 -29.5s20.833 -10.5 37.5 -14.5l-7 -34
c-53.333 -15.333 -94.333 -23 -123 -23c-6 0 -11.5 0.5 -16.5 1.5s-9.5 2.83301 -13.5 5.5l-10 6.5c-2.66699 1.66699 -5.5 5 -8.5 10s-5.16699 8.33301 -6.5 10s-3.66602 6 -6.99902 13s-5.33301 11.5 -6 13.5c-4.66699 10.667 -12.334 35.5 -23.001 74.5
s-16.667 60.167 -18 63.5c-12 35.333 -20.5 59.666 -25.5 72.999s-11.333 25.333 -19 36s-16.834 17.334 -27.501 20.001l-12 3l9 33c30 12 61 31 93 57s58 51.333 78 76c37.333 44.667 56 83.667 56 117c0 17.333 -8.66699 28.666 -26 33.999l7 34c76.667 8 123 12 139 12
c10.667 0 18 -1.16699 22 -3.5s6 -7.83301 6 -16.5zM641.002 659.002c0 -7.33301 -3.33105 -28.6689 -9.99805 -64.002l-54 -253l-44 -203c-6.66699 -32 -10 -54 -10 -66c0 -8.66699 0.666992 -15.5 2 -20.5s2.66602 -8.33301 3.99902 -10s4 -4.5 8 -8.5l-7 -34h-127
c-16.667 0 -25 10 -25 30c0 10 12.667 68.333 38 175c5.33301 18.667 15 61 29 127c32 150.667 48 238.334 48 263.001c0 16 -1.83301 26.833 -5.5 32.5s-10.834 10.5 -21.501 14.5l7 34c47.333 8 90 12 128 12c10.667 0 18.167 -0.333008 22.5 -1s8.33301 -3.16699 12 -7.5
s5.5 -11.166 5.5 -20.499zM438.004 364.999l-8 -31.002c-20.667 -8 -42.334 -24.333 -65.001 -49c-10 -10.667 -24.333 -28.667 -43 -54l-67 -94.5l-50 -72.5c-21.333 -30 -38.833 -49.333 -52.5 -58s-37.5 -13 -71.5 -13c-13.333 0 -28 1.5 -44 4.5
s-28.667 6.16699 -38 9.5l-14 5l4 35c26.667 4.66699 55 25.334 85 62.001l75 98.5c36.667 49 63.334 83.5 80.001 103.5c37.333 46 72.666 80.333 105.999 103l-99 168c-13.333 22 -27.666 36.667 -42.999 44s-35.333 12.333 -60 15l7 32c50 12 87.667 18 113 18
c10.667 0 19 -1 25 -3s13 -8.66699 21 -20s15.667 -28.666 23 -51.999c34.667 -110 61.667 -181.667 81 -215c13.333 -21.333 25 -33.333 35 -36z" />
    <glyph glyph-name="afii10025" unicode="&#x417;" horiz-adv-x="503" 
d="M531 572c0 -45.333 -16.332 -84.998 -48.999 -118.998s-80 -59.667 -142 -77l-2 -9c43.333 -3.33301 77 -16.333 101 -39s36 -51 36 -85c0 -72.667 -27.667 -133.334 -83 -182.001s-126.333 -73 -213 -73c-60 0 -104.167 8.66699 -132.5 26s-42.5 39.666 -42.5 66.999
c0 40.667 29 76.667 87 108l20 -10c-4.66699 -11.333 -7 -29 -7 -53c0 -28 9.16699 -49.333 27.5 -64s39.166 -22 62.499 -22c40 0 73.333 17.5 100 52.5s40 80.833 40 137.5c0 28.667 -8 51.334 -24 68.001s-40.667 25 -74 25l-71 -3l19 50l43 3
c45.333 2.66699 84.166 23 116.499 61s48.5 84 48.5 138c0 42 -18.667 63 -56 63c-35.333 0 -66.333 -11.833 -93 -35.5s-56 -63.167 -88 -118.5l-31 13c16.667 79.333 32.334 133.666 47.001 162.999l14 10c61.333 13.333 119.333 20 174 20
c114.667 0 172 -38.333 172 -115z" />
    <glyph glyph-name="afii10026" unicode="&#x418;" horiz-adv-x="676" 
d="M702 681c-4.66699 -17.333 -15.6641 -65.667 -32.9971 -145l-33 -156l-34 -163l-16 -78c-6.66699 -34.667 -10 -56.667 -10 -66c0 -12.667 2.5 -21.667 7.5 -27s13.833 -9.33301 26.5 -12l-7 -34h-147c-16.667 0 -25 10 -25 30c0 2.66699 12.667 64.667 38 186l66 317
l-68 -112l-74 -116c-24.667 -38 -40 -62 -46 -72c-79.333 -124.667 -131 -195.334 -155 -212.001c-9.33301 -6.66699 -26.833 -13.5 -52.5 -20.5s-43.834 -10.5 -54.501 -10.5c-6.66699 0 -11.5 0.166992 -14.5 0.5s-5.83301 1.66602 -8.5 3.99902s-4 6.16602 -4 11.499
c0 3.33301 2.83301 17.5 8.5 42.5l20.5 86.5c8 32.667 13.333 56 16 70l53 250c14 63.333 21 110 21 140c0 16 -3.83301 27.167 -11.5 33.5s-21.834 10.833 -42.501 13.5l7 34c65.333 8 117 12 155 12c10.667 0 18.167 -0.333008 22.5 -1s8.33301 -3.16699 12 -7.5
s5.5 -11.166 5.5 -20.499s-3.33301 -30.666 -10 -63.999c-17.333 -87.333 -32.333 -157 -45 -209l-62 -256c43.333 56.667 99 139 167 247c114.667 178.667 178 273.334 190 284.001c19.333 18 56.666 27 111.999 27z" />
    <glyph glyph-name="afii10027" unicode="&#x419;" horiz-adv-x="676" 
d="M665 862l36 -11.002c-24 -45.333 -57.167 -79.166 -99.5 -101.499s-89.833 -33.5 -142.5 -33.5c-78 0 -117 19.333 -117 58c0 16 6.5 31.333 19.5 46s25.833 25.334 38.5 32.001l20 9c12.667 -28 28 -48 46 -60s42.333 -18 73 -18c48.667 0 90.667 26.333 126 79z
M702 680.998c-4.66699 -17.333 -15.6641 -65.667 -32.9971 -145l-33 -156l-34 -163l-16 -78c-6.66699 -34.667 -10 -56.667 -10 -66c0 -12.667 2.5 -21.667 7.5 -27s13.833 -9.33301 26.5 -12l-7 -34h-147c-16.667 0 -25 10 -25 30c0 2.66699 12.667 64.667 38 186l66 317
l-68 -112l-74 -116c-24.667 -38 -40 -62 -46 -72c-79.333 -124.667 -131 -195.334 -155 -212.001c-9.33301 -6.66699 -26.833 -13.5 -52.5 -20.5s-43.834 -10.5 -54.501 -10.5c-6.66699 0 -11.5 0.166992 -14.5 0.5s-5.83301 1.66602 -8.5 3.99902s-4 6.16602 -4 11.499
c0 3.33301 2.83301 17.5 8.5 42.5l20.5 86.5c8 32.667 13.333 56 16 70l53 250c14 63.333 21 110 21 140c0 16 -3.83301 27.167 -11.5 33.5s-21.834 10.833 -42.501 13.5l7 34c65.333 8 117 12 155 12c10.667 0 18.167 -0.333008 22.5 -1s8.33301 -3.16699 12 -7.5
s5.5 -11.166 5.5 -20.499s-3.33301 -30.666 -10 -63.999c-17.333 -87.333 -32.333 -157 -45 -209l-62 -256c43.333 56.667 99 139 167 247c114.667 178.667 178 273.334 190 284.001c19.333 18 56.666 27 111.999 27z" />
    <glyph glyph-name="afii10028" unicode="&#x41a;" horiz-adv-x="608" 
d="M653 667c0 -8.66699 -10.3311 -27.332 -30.998 -55.999s-41.334 -54.667 -62.001 -78c-49.333 -52.667 -101 -101.667 -155 -147c22.667 -28 44.667 -73 66 -135c32 -90.667 51.667 -142.667 59 -156c8 -14 16.167 -23.833 24.5 -29.5s20.833 -10.5 37.5 -14.5l-7 -34
c-53.333 -15.333 -94.333 -23 -123 -23c-6 0 -11.5 0.5 -16.5 1.5s-9.5 2.83301 -13.5 5.5l-10 6.5c-2.66699 1.66699 -5.5 5 -8.5 10s-5.16699 8.33301 -6.5 10s-3.66602 6 -6.99902 13s-5.33301 11.5 -6 13.5c-4.66699 10.667 -12.334 35.5 -23.001 74.5
s-16.667 60.167 -18 63.5c-12 35.333 -20.5 59.666 -25.5 72.999s-11.333 25.333 -19 36s-16.834 17.334 -27.501 20.001l-12 3l9 33c30 12 61 31 93 57s58 51.333 78 76c37.333 44.667 56 83.667 56 117c0 17.333 -8.66699 28.666 -26 33.999l7 34c76.667 8 123 12 139 12
c10.667 0 18 -1.16699 22 -3.5s6 -7.83301 6 -16.5zM328.002 659.002c0 -7.33301 -3.33203 -28.6689 -9.99902 -64.002l-54 -253l-44 -203c-6.66699 -31.333 -10 -53.333 -10 -66s2.5 -21.667 7.5 -27s13.833 -9.33301 26.5 -12l-7 -34h-147c-16.667 0 -25 10 -25 30
c0 10 12.667 68.333 38 175l29 127c32 138.667 48 226.334 48 263.001c0 16 -3.83301 27.167 -11.5 33.5s-21.834 10.833 -42.501 13.5l7 34c65.333 8 117 12 155 12c10.667 0 18.167 -0.333008 22.5 -1s8.33301 -3.16699 12 -7.5s5.5 -11.166 5.5 -20.499z" />
    <glyph glyph-name="afii10029" unicode="&#x41b;" horiz-adv-x="573" 
d="M564 36l-7.00098 -36.9951c-59.333 -4 -97.666 -6 -114.999 -6c-33.333 0 -53.833 9.16699 -61.5 27.5s-11.5 58.166 -11.5 119.499c0 7.33301 0.333008 26.666 1 57.999s1 50 1 56l5 257c0.666992 55.333 -2.66602 89.666 -9.99902 102.999h-5l-57 -117l-49 -99.5
c-24.667 -49.667 -42 -85.334 -52 -107.001l-38 -83.5c-15.333 -34 -26 -60.833 -32 -80.5s-9 -35.167 -9 -46.5c0 -24.667 7 -43.334 21 -56.001l-6 -28c-34 -2 -62.333 -3 -85 -3c-16.667 0 -27.834 2.5 -33.501 7.5s-8.5 13.833 -8.5 26.5c0 31.333 29 97.666 87 198.999
l68 119c66.667 116 106 189.667 118 221c6 16 9 28.333 9 37c0 6 -1.16699 10.667 -3.5 14s-6.66602 6 -12.999 8s-11 3.16699 -14 3.5s-8.83301 0.833008 -17.5 1.5l7 31c106.667 17.333 174 26 202 26c21.333 0 34.666 -7.16699 39.999 -21.5s8 -47.5 8 -99.5l-1 -288
c0 -69.333 2 -120.666 6 -153.999c3.33301 -28 9 -48.5 17 -61.5s21 -21.833 39 -26.5z" />
    <glyph glyph-name="afii10030" unicode="&#x41c;" horiz-adv-x="832" 
d="M833 672c0 -13.333 -2.33203 -37.668 -6.99902 -73.001l-29 -242c-16.667 -131.333 -25 -216.666 -25 -255.999c0 -38 16 -60 48 -66l-7 -36c-54 -4 -92 -6 -114 -6c-26.667 0 -45.334 4 -56.001 12s-16 25.333 -16 52c0 10.667 16.667 143 50 397l16 123l-133 -274
c-66 -135.333 -111.333 -220.666 -136 -255.999c-38 -35.333 -67.667 -53 -89 -53c-8.66699 0 -14.167 4.83301 -16.5 14.5s-3.5 29.5 -3.5 59.5v19l-8 495l-44 -95c-33.333 -70.667 -63 -144.834 -89 -222.501s-39 -134.834 -39 -171.501c0 -29.333 10.667 -47.333 32 -54
l-7 -33c-50 -8.66699 -83 -13 -99 -13c-14.667 0 -24.167 3.5 -28.5 10.5s-6.5 16.833 -6.5 29.5c0 48 31.333 136.333 94 265l76 157c36.667 75.333 55 123.333 55 144c0 17.333 -16.667 27.333 -50 30l8 39c107.333 14 169.333 21 186 21c20 0 32.333 -4.33301 37 -13
s7.33398 -28 8.00098 -58c0 -116.667 0.333008 -197 1 -241l2 -206l113 243c68 146 107.667 224 119 234c14.667 12 37.167 21.667 67.5 29s52.166 11 65.499 11h8h6.5c1 0 2.5 -0.166992 4.5 -0.5s3.16699 -1.16602 3.5 -2.49902s0.833008 -3 1.5 -5s1 -4.66699 1 -8z" />
    <glyph glyph-name="afii10031" unicode="&#x41d;" horiz-adv-x="659" 
d="M677 659c0 -7.33301 -3.33203 -28.6709 -9.99902 -64.0039l-53 -246c-23.333 -105.333 -38.333 -175.333 -45 -210s-10 -56.667 -10 -66c0 -12.667 2.5 -21.667 7.5 -27s13.833 -9.33301 26.5 -12l-7 -34h-147c-16.667 0 -25 10 -25 30c0 8.66699 2.5 24.334 7.5 47.001
s11 47.667 18 75s11.167 45 12.5 53l29 134l-217 3l-44 -203c-6.66699 -31.333 -10 -53.333 -10 -66s2.5 -21.667 7.5 -27s13.833 -9.33301 26.5 -12l-7 -34h-147c-16.667 0 -25 10 -25 30c0 10 12.667 68.333 38 175l29 127c32 140 48 227.667 48 263
c0 16 -3.83301 27.167 -11.5 33.5s-21.834 10.833 -42.501 13.5l7 34c65.333 8 117 12 155 12c10.667 0 18.167 -0.333008 22.5 -1s8.33301 -3.16699 12 -7.5s5.5 -11.166 5.5 -20.499c0 -7.33301 -3.33301 -28.666 -10 -63.999l-44 -205l220 10l12 55
c15.333 72 23 118.667 23 140c0 16 -2.66699 26.833 -8 32.5s-16 10.5 -32 14.5l7 34c56 8 103 12 141 12c10.667 0 18.167 -0.333008 22.5 -1s8.33301 -3.16699 12 -7.5s5.5 -11.166 5.5 -20.499z" />
    <glyph glyph-name="afii10032" unicode="&#x41e;" horiz-adv-x="662" 
d="M683 468c0 -50.667 -10.667 -107.332 -32 -169.999s-49.666 -117 -84.999 -163c-77.333 -98.667 -168 -148 -272 -148c-41.333 0 -77.166 6.5 -107.499 19.5s-53.833 31 -70.5 54s-28.834 47.833 -36.501 74.5s-11.5 55.667 -11.5 87c0 60 10.167 118.667 30.5 176
s48.166 106.333 83.499 147c83.333 94.667 175 142 275 142c73.333 0 129.333 -16.333 168 -49s58 -89.334 58 -170.001zM542 495.002c0 93.333 -33.999 140 -101.999 140c-64.667 0 -119.334 -50.333 -164.001 -151c-18.667 -42 -34.5 -90.833 -47.5 -146.5
s-19.5 -108.5 -19.5 -158.5c0 -46 9.66699 -80.833 29 -104.5s45 -35.5 77 -35.5c64 0 117.333 50.333 160 151c44.667 105.333 67 207 67 305z" />
    <glyph glyph-name="afii10033" unicode="&#x41f;" horiz-adv-x="642" 
d="M662 656c0 -28 -5.99805 -69.333 -17.998 -124l-38 -183c-25.333 -117.333 -40 -187.333 -44 -210c-6.66699 -34.667 -10 -56.667 -10 -66c0 -12.667 2.5 -21.667 7.5 -27s13.833 -9.33301 26.5 -12l-7 -34h-147c-16.667 0 -25 10 -25 30c0 5.33301 2 17.333 6 36
s9.5 42.667 16.5 72s12.167 51.666 15.5 66.999l53 251c13.333 62.667 20 107 20 133c0 11.333 -2.83301 20.333 -8.5 27s-14.667 11.334 -27 14.001s-22.833 4.33398 -31.5 5.00098s-21.334 1 -38.001 1c-20.667 0 -52.334 -2.66699 -95.001 -8
c-4.66699 -36 -19.667 -116.667 -45 -242l-53 -247c-6.66699 -28.667 -10 -50.667 -10 -66c0 -12.667 2.5 -21.667 7.5 -27s13.833 -9.33301 26.5 -12l-7 -34h-147c-16.667 0 -25 10 -25 30c0 8.66699 2.5 24.334 7.5 47.001s11 47.667 18 75s11.167 45 12.5 53l53 250
c13.333 65.333 20 108.666 20 129.999c0 18 -4.16699 29.833 -12.5 35.5s-21.5 9.16699 -39.5 10.5l9 42c112.667 9.33301 205 14 277 14c136.667 0 214 -2.66699 232 -8c13.333 -4.66699 20 -12.334 20 -23.001z" />
    <glyph glyph-name="afii10034" unicode="&#x420;" horiz-adv-x="564" 
d="M621 564c0 -76.667 -28.667 -139.001 -86 -187.001c-46.667 -39.333 -109.667 -64 -189 -74c-16 -2 -42.667 -3 -80 -3l10 46c10.667 -0.666992 30.667 1 60 5c38 6 72 27 102 63s45 87 45 153c0 21.333 -6.5 38 -19.5 50s-31.833 18 -56.5 18c-38 0 -63.667 -7 -77 -21
c-6.66699 -7.33301 -13.5 -25.333 -20.5 -54s-23.833 -106.334 -50.5 -233.001l-40 -188c-6.66699 -33.333 -10 -55.333 -10 -66c0 -12.667 2.5 -21.667 7.5 -27s13.833 -9.33301 26.5 -12l-7 -34h-147c-16.667 0 -25 10 -25 30c0 10 12.667 68.333 38 175l53 250
c14 66 21 111 21 135c0 12 -3 21.167 -9 27.5s-12 10 -18 11s-14.333 1.83301 -25 2.5l9 42c142 9.33301 246 14 312 14c18.667 0 37 -1.66699 55 -5s36.667 -9.16602 56 -17.499s35 -21.166 47 -38.499s18 -38 18 -62z" />
    <glyph glyph-name="afii10035" unicode="&#x421;" horiz-adv-x="541" 
d="M589 615c0 -16 -8.66797 -34.668 -26.001 -56.001s-43.333 -40 -78 -56l-17 16c6 24 9 44 9 60c0 37.333 -18 56 -54 56c-28.667 0 -58.167 -15 -88.5 -45s-56.833 -71.667 -79.5 -125c-32 -78 -48 -163 -48 -255c0 -46.667 11.5 -83.334 34.5 -110.001
s52.5 -40 88.5 -40c64 0 124.333 26 181 78l8 -47l-11.5 -11c-5 -4.66699 -15.667 -13 -32 -25s-33.333 -22.667 -51 -32s-40.167 -17.666 -67.5 -24.999s-54.666 -11 -81.999 -11c-62 0 -112.167 17.333 -150.5 52s-57.5 88 -57.5 160c0 159.333 50.667 289 152 389
c36 34.667 73.833 59.834 113.5 75.501s75.167 23.5 106.5 23.5c100 0 150 -24 150 -72z" />
    <glyph glyph-name="afii10036" unicode="&#x422;" horiz-adv-x="587" 
d="M664 643c0 -14.667 -10.501 -37.5 -31.501 -68.5s-42.167 -56.167 -63.5 -75.5l-39 -5c14.667 32.667 22 65 22 97c0 29.333 -25.333 44 -76 44h-43c2 -10.667 -2.66699 -41.667 -14 -93l-42 -200l-44 -203c-5.33301 -25.333 -8 -45.666 -8 -60.999
c0 -24.667 13.667 -39.334 41 -44.001l-7 -34h-154c-16.667 0 -25 10 -25 30c0 12.667 12 71 36 175l36 165c30 142 45 221.667 45 239c0 11.333 -2.83301 18.666 -8.5 21.999s-14.5 5 -26.5 5c-29.333 0 -54 -9 -74 -27c-26 -24.667 -50.333 -61.667 -73 -111l-39 -12
c4 92.667 14.333 154 31 184l17 11c72.667 4 166.334 6 281.001 6c62.667 0 108.5 -0.333008 137.5 -1s54.167 -2.66699 75.5 -6s34.333 -7.66602 39 -12.999s7 -13.333 7 -24z" />
    <glyph glyph-name="afii10037" unicode="&#x423;" horiz-adv-x="549" 
d="M626 662c0 -22 -32.0029 -87.335 -96.0029 -196.002l-74 -126c-32 -54 -71 -114 -117 -180c-83.333 -118 -156.666 -177 -219.999 -177c-24 0 -36 12.667 -36 38s12 57 36 95l18 4c11.333 -24 30.333 -36 57 -36c14 0 26.167 5.83301 36.5 17.5s15.5 29.5 15.5 53.5
c0 42.667 -7.66699 104.334 -23 185.001l-15 81c-15.333 82.667 -29.333 137 -42 163c-9.33301 18.667 -19.333 31.834 -30 39.501s-25 11.5 -43 11.5l8 32c74.667 18.667 130.667 28 168 28c14 0 24.167 -11.167 30.5 -33.5s15.166 -66.833 26.499 -133.5
c14 -84 25.333 -162.333 34 -235h5l38 59c22.667 35.333 45.834 78.5 69.501 129.5s35.5 89.5 35.5 115.5c0 15.333 -1.66699 26.333 -5 33s-10.666 12 -21.999 16l7 26c48.667 10 82.667 15 102 15c12.667 0 21.834 -1.66699 27.501 -5s8.5 -10 8.5 -20z" />
    <glyph glyph-name="afii10038" unicode="&#x424;" horiz-adv-x="776" 
d="M790 419c0 -40 -7.1709 -77.335 -21.5039 -112.002s-33.333 -64 -57 -88s-50.667 -44.833 -81 -62.5s-61 -30.834 -92 -39.501s-61.5 -13.667 -91.5 -15l-30 -108c-15.333 -14.667 -34.333 -25.667 -57 -33s-41.667 -11 -57 -11l-23 -1c12.667 40 26.334 91 41.001 153
c-30.667 0 -59 2.5 -85 7.5s-51.5 13.333 -76.5 25s-44.833 29.334 -59.5 53.001s-22 52.5 -22 86.5c0 50 10.833 95 32.5 135s49.834 72 84.501 96s71.334 42.667 110.001 56s77.334 21 116.001 23l4 23.5c2 11.667 3 21.834 3 30.501c0 16 -4.33301 27.167 -13 33.5
s-23.667 10.833 -45 13.5l7 34c63.333 8 114 12 152 12c10.667 0 18.167 -0.333008 22.5 -1s8.33301 -3.16699 12 -7.5s5.5 -11.166 5.5 -20.499c0 -22 -7.33301 -61.333 -22 -118c162 0 243 -55 243 -165zM655.996 418.998c0 40.667 -10.835 70.499 -32.502 89.499
s-50.167 28.833 -85.5 29.5l-83 -392c16.667 2 33.334 5.83301 50.001 11.5s34.334 15.334 53.001 29.001s35 30.167 49 49.5s25.667 44.833 35 76.5s14 67.167 14 106.5zM329.994 147.997l83.002 392.001c-16.667 -2 -33.334 -5.83301 -50.001 -11.5
s-34.334 -15.334 -53.001 -29.001s-35 -30.167 -49 -49.5s-25.667 -44.833 -35 -76.5s-14 -67.167 -14 -106.5c0 -40.667 10.833 -70.5 32.5 -89.5s50.167 -28.833 85.5 -29.5z" />
    <glyph glyph-name="afii10039" unicode="&#x425;" horiz-adv-x="559" 
d="M625 660c0 -4 -1.99902 -10.0059 -5.99902 -18.0059s-10.833 -18.333 -20.5 -31l-28.5 -36l-39 -46.5l-42 -49l-49 -55.5l-49 -55c13.333 -74.667 33.333 -154.667 60 -240c18 -57.333 41.333 -87 70 -89l-11 -42c-48 -3.33301 -87 -5 -117 -5
c-20 0 -34.667 4.5 -44 13.5s-17.333 28.5 -24 58.5c-6.66699 28.667 -14 63.667 -22 105s-15.667 78.666 -23 111.999c-54 -62 -90.833 -108.167 -110.5 -138.5s-29.5 -54.166 -29.5 -71.499c0 -12 1.16699 -20.333 3.5 -25s8.83301 -11 19.5 -19l-8 -30
c-49.333 -3.33301 -88.333 -5 -117 -5c-12.667 0 -21 2.16699 -25 6.5s-6 11.5 -6 21.5c0 38.667 86 142 258 310c-23.333 120.667 -45.666 206.667 -66.999 258c-8 20 -17.167 32.667 -27.5 38s-24.833 8 -43.5 8l9 41c57.333 12 104 18 140 18
c5.33301 0 10 -0.333008 14 -1s7.5 -1.66699 10.5 -3s6 -3.33301 9 -6s5.5 -5.16699 7.5 -7.5s4 -6 6 -11l5 -12.5c1.33301 -3.33301 2.83301 -8.83301 4.5 -16.5l4 -18.5c1 -4.66699 2.66699 -12 5 -22s4.16602 -18.333 5.49902 -25c2 -7.33301 11.667 -57.666 29 -150.999
l23 27.5l24.5 30l22 28c9 11.667 16 21.334 21 29.001s10.167 16.334 15.5 26.001s9.16602 18.334 11.499 26.001s3.5 14.834 3.5 21.501c0 20.667 -8.33301 32.334 -25 35.001l8 30c54.667 9.33301 91.667 14 111 14c12 0 20.667 -1.5 26 -4.5s8 -10.5 8 -22.5z" />
    <glyph glyph-name="afii10040" unicode="&#x426;" horiz-adv-x="669" 
d="M663 659c0 -9.33301 -3.32812 -30.6709 -9.99512 -64.0039c-9.33301 -47.333 -24.333 -117 -45 -209c-39.333 -174 -59 -272.333 -59 -295c0 -17.333 6.5 -30 19.5 -38s34.5 -13 64.5 -15c-10.667 -34 -27.834 -74.333 -51.501 -121s-43.834 -81.334 -60.501 -104.001
l-32 -4c17.333 58.667 26 103.334 26 134.001c0 18 -4.83301 31.333 -14.5 40s-26.834 13 -51.501 13c-23.333 0 -60.166 -0.5 -110.499 -1.5s-90.5 -1.5 -120.5 -1.5c-58.667 0 -97.834 2.33301 -117.501 7s-29.5 16 -29.5 34c0 14 10.333 70.667 31 170l54 252
c14 62.667 21 109 21 139c0 16 -3.83301 27.167 -11.5 33.5s-21.834 10.833 -42.501 13.5l7 34c65.333 8 117 12 155 12c10.667 0 18.167 -0.333008 22.5 -1s8.33301 -3.16699 12 -7.5s5.5 -11.166 5.5 -20.499s-3.33301 -30.666 -10 -63.999
c-3.33301 -17.333 -18.333 -87 -45 -209c-37.333 -170.667 -56 -266 -56 -286c0 -19.333 6 -33.166 18 -41.499s31 -12.5 57 -12.5c46 0 87 2.66699 123 8c0 22 11 82 33 180l49 221c14 63.333 21 110 21 140c0 16 -3.83301 27.167 -11.5 33.5s-21.834 10.833 -42.501 13.5
l7 34c65.333 8 117 12 155 12c10.667 0 18.167 -0.333008 22.5 -1s8.33301 -3.16699 12 -7.5s5.5 -11.166 5.5 -20.499z" />
    <glyph glyph-name="afii10041" unicode="&#x427;" horiz-adv-x="603" 
d="M627 659c0 -9.33301 -3.33203 -30.6689 -9.99902 -64.002l-96 -456c-6.66699 -34.667 -10 -56.667 -10 -66c0 -12.667 2.5 -21.667 7.5 -27s13.833 -9.33301 26.5 -12l-7 -34h-147c-16.667 0 -25 10 -25 30c0 5.33301 1.83301 16.666 5.5 33.999s9 40.5 16 69.5
s12.5 52.833 16.5 71.5l28 133c-21.333 -16.667 -50.333 -32.5 -87 -47.5s-71 -22.5 -103 -22.5c-80 0 -120 29.667 -120 89c0 20.667 4.33301 50.334 13 89.001c18 84 27 133.667 27 149c0 16 -3.83301 27.167 -11.5 33.5s-21.834 10.833 -42.501 13.5l7 34
c65.333 8 117 12 155 12c10.667 0 18.167 -0.333008 22.5 -1s8.33301 -3.16699 12 -7.5s5.5 -11.166 5.5 -20.499s-3.33301 -30.666 -10 -63.999c-22 -112 -33 -177.667 -33 -197c0 -32.667 19.333 -49 58 -49c29.333 0 56.5 9.5 81.5 28.5s39.5 36.5 43.5 52.5l7 26
c14.667 53.333 22 99.666 22 138.999c0 15.333 -2.5 26 -7.5 32s-13.833 11 -26.5 15l7 34c52 8 97 12 135 12c10.667 0 18.167 -0.333008 22.5 -1s8.33301 -3.16699 12 -7.5s5.5 -11.166 5.5 -20.499z" />
    <glyph glyph-name="afii10042" unicode="&#x428;" horiz-adv-x="955" 
d="M983 659c0 -9.33301 -3.32812 -30.6709 -9.99512 -64.0039c-13.333 -68.667 -28.333 -138.334 -45 -209.001c-43.333 -183.333 -65 -283.666 -65 -300.999c0 -26 8.66699 -43 26 -51l-7 -32c-22.667 -2 -41.334 -3 -56.001 -3c-160 -2.66699 -257.667 -4 -293 -4
c-172 -1.33301 -277 -2 -315 -2c-58.667 0 -97.834 2.33301 -117.501 7s-29.5 16 -29.5 34c0 19.333 10.333 76 31 170l54 252c14 62.667 21 109 21 139c0 16 -3.83301 27.167 -11.5 33.5s-21.834 10.833 -42.501 13.5l7 34c65.333 8 117 12 155 12
c10.667 0 18.167 -0.333008 22.5 -1s8.33301 -3.16699 12 -7.5s5.5 -11.166 5.5 -20.499s-3.33301 -30.666 -10 -63.999c-3.33301 -17.333 -18.333 -87 -45 -209l-22.5 -102c-11.667 -53.333 -20.167 -94.333 -25.5 -123s-8 -49 -8 -61c0 -20 6 -34 18 -42s31 -12 57 -12
c38 0 77 1.33301 117 4c0 28 8.33301 79.667 25 155l53 251c14 62.667 21 109 21 139c0 16 -3.83301 27.167 -11.5 33.5s-21.834 10.833 -42.501 13.5l7 34c65.333 8 117 12 155 12c10.667 0 18.167 -0.333008 22.5 -1s8.33301 -3.16699 12 -7.5s5.5 -11.166 5.5 -20.499
s-3.33301 -30.666 -10 -63.999c-3.33301 -17.333 -18.333 -87 -45 -209c-37.333 -170.667 -56 -271 -56 -301c0 -12.667 4.5 -22.167 13.5 -28.5s25.5 -9.5 49.5 -9.5c37.333 0 80 2.66699 128 8c-0.666992 22.667 10 82.667 32 180l49 221c14 63.333 21 109.666 21 138.999
c0 16 -3.83301 27.167 -11.5 33.5s-21.834 10.833 -42.501 13.5l7 34c65.333 8 117 12 155 12c10.667 0 18.167 -0.333008 22.5 -1s8.33301 -3.16699 12 -7.5s5.5 -11.166 5.5 -20.499z" />
    <glyph glyph-name="afii10043" unicode="&#x429;" horiz-adv-x="975" 
d="M983 659c0 -9.33301 -3.32617 -30.6699 -9.99316 -64.0029c-17.333 -87.333 -32.333 -157 -45 -209c-42 -168 -63 -266 -63 -294c0 -10 1.5 -18.333 4.5 -25s11.167 -13 24.5 -19s31.666 -9 54.999 -9c-10.667 -34 -27.834 -74.333 -51.501 -121
s-43.834 -81.334 -60.501 -104.001l-32 -4c16 64 24 109 24 135c0 34.667 -21.333 52 -64 52c-82.667 -1.33301 -160 -2 -232 -2c-172 -1.33301 -277 -2 -315 -2c-58.667 0 -97.834 2.33301 -117.501 7s-29.5 16 -29.5 34c0 19.333 10.333 76 31 170l54 252
c14 62.667 21 109 21 139c0 16 -3.83301 27.167 -11.5 33.5s-21.834 10.833 -42.501 13.5l7 34c65.333 8 117 12 155 12c10.667 0 18.167 -0.333008 22.5 -1s8.33301 -3.16699 12 -7.5s5.5 -11.166 5.5 -20.499s-3.33301 -30.666 -10 -63.999
c-3.33301 -17.333 -18.333 -87 -45 -209l-22.5 -102c-11.667 -53.333 -20.167 -94.333 -25.5 -123s-8 -49 -8 -61c0 -20 6 -34 18 -42s31 -12 57 -12c38 0 77 1.33301 117 4c0 28 8.33301 79.667 25 155l53 251c14 62.667 21 109 21 139c0 16 -3.83301 27.167 -11.5 33.5
s-21.834 10.833 -42.501 13.5l7 34c65.333 8 117 12 155 12c10.667 0 18.167 -0.333008 22.5 -1s8.33301 -3.16699 12 -7.5s5.5 -11.166 5.5 -20.499s-3.33301 -30.666 -10 -63.999c-3.33301 -17.333 -18.333 -87 -45 -209c-37.333 -170.667 -56 -271 -56 -301
c0 -12.667 4.5 -22.167 13.5 -28.5s25.5 -9.5 49.5 -9.5c37.333 0 80 2.66699 128 8c-0.666992 22.667 10 82.667 32 180l49 221c14 63.333 21 109.666 21 138.999c0 16 -3.83301 27.167 -11.5 33.5s-21.834 10.833 -42.501 13.5l7 34c65.333 8 117 12 155 12
c10.667 0 18.167 -0.333008 22.5 -1s8.33301 -3.16699 12 -7.5s5.5 -11.166 5.5 -20.499z" />
    <glyph glyph-name="afii10044" unicode="&#x42a;" horiz-adv-x="713" 
d="M705 263c0 -60 -17.332 -111.833 -51.999 -155.5s-76 -75 -124 -94s-97.667 -28.5 -149 -28.5c-54.667 0 -108.334 5 -161.001 15c-16.667 3.33301 -25 11.333 -25 24c0 5.33301 2.33301 18.333 7 39s10.667 45.834 18 75.501s12.666 51.834 15.999 66.501l53 250
c16 75.333 24 126.666 24 153.999c0 11.333 -2.83301 18.666 -8.5 21.999s-14.5 5 -26.5 5c-26 0 -49 -9 -69 -27c-22.667 -21.333 -47 -58.333 -73 -111l-39 -12c8.66699 85.333 21.334 146.666 38.001 183.999l17 11l312 10l11 -6c-10.667 -38 -34 -142 -70 -312
c-10 -49.333 -22.333 -104.666 -37 -165.999c-18 -80 -27 -127.333 -27 -142c0 -18.667 18 -28 54 -28c59.333 0 106 25.667 140 77c24 34.667 36 80.667 36 138c0 28.667 -7.5 52 -22.5 70s-37.833 27 -68.5 27c-25.333 0 -47.333 -3.33301 -66 -10l9 46
c36.667 12.667 73 19 109 19c116 0 174 -47 174 -141z" />
    <glyph glyph-name="afii10045" unicode="&#x42b;" horiz-adv-x="837" 
d="M573 263c0 -60 -17.3301 -111.837 -51.9971 -155.504s-76 -75 -124 -94s-97.667 -28.5 -149 -28.5c-54.667 0 -108.334 5 -161.001 15c-16.667 3.33301 -25 11.333 -25 24c0 5.33301 2.33301 18.333 7 39s10.667 45.834 18 75.501s12.666 51.834 15.999 66.501l53 250
c16 75.333 24 122 24 140c0 16 -3.83301 27.167 -11.5 33.5s-21.834 10.833 -42.501 13.5l7 34c65.333 8 117 12 155 12c10.667 0 18.167 -0.333008 22.5 -1s8.33301 -3.16699 12 -7.5s5.5 -11.166 5.5 -20.499c0 -7.33301 -3.33301 -28.666 -10 -63.999
c-28 -136.667 -43.333 -210.667 -46 -222l-37 -166c-18 -82.667 -27 -130 -27 -142c0 -18.667 18 -28 54 -28c59.333 0 106 25.667 140 77c24 34.667 36 80.667 36 138c0 28.667 -7.5 52 -22.5 70s-37.833 27 -68.5 27c-25.333 0 -47.333 -3.33301 -66 -10l9 46
c36.667 12.667 73 19 109 19c116 0 174 -47 174 -141zM858.003 658.996c0 -7.33301 -3.33203 -28.6689 -9.99902 -64.002l-54 -253l-44 -203c-6.66699 -31.333 -10 -53.333 -10 -66s2.5 -21.667 7.5 -27s13.833 -9.33301 26.5 -12l-7 -34h-147c-16.667 0 -25 10 -25 30
c0 10 12.667 68.333 38 175c5.33301 18.667 15 61 29 127c32 150.667 48 238.334 48 263.001c0 16 -3.83301 27.167 -11.5 33.5s-21.834 10.833 -42.501 13.5l7 34c65.333 8 117 12 155 12c10.667 0 18.167 -0.333008 22.5 -1s8.33301 -3.16699 12 -7.5
s5.5 -11.166 5.5 -20.499z" />
    <glyph glyph-name="afii10046" unicode="&#x42c;" horiz-adv-x="584" 
d="M573 263c0 -60 -17.3301 -111.837 -51.9971 -155.504s-76 -75 -124 -94s-97.667 -28.5 -149 -28.5c-54.667 0 -108.334 5 -161.001 15c-16.667 3.33301 -25 11.333 -25 24c0 5.33301 2.33301 18.333 7 39s10.667 45.834 18 75.501s12.666 51.834 15.999 66.501l53 250
c16 75.333 24 122 24 140c0 16 -3.83301 27.167 -11.5 33.5s-21.834 10.833 -42.501 13.5l7 34c65.333 8 117 12 155 12c10.667 0 18.167 -0.333008 22.5 -1s8.33301 -3.16699 12 -7.5s5.5 -11.166 5.5 -20.499c0 -7.33301 -3.33301 -28.666 -10 -63.999
c-28 -136.667 -43.333 -210.667 -46 -222l-37 -166c-18 -82.667 -27 -130 -27 -142c0 -18.667 18 -28 54 -28c59.333 0 106 25.667 140 77c24 34.667 36 80.667 36 138c0 28.667 -7.5 52 -22.5 70s-37.833 27 -68.5 27c-25.333 0 -47.333 -3.33301 -66 -10l9 46
c36.667 12.667 73 19 109 19c116 0 174 -47 174 -141z" />
    <glyph glyph-name="afii10047" unicode="&#x42d;" horiz-adv-x="553" 
d="M569 484c0 -74.667 -12.832 -145.665 -38.499 -212.998s-58.167 -122.333 -97.5 -165c-72.667 -78.667 -157.334 -118 -254.001 -118c-116 0 -174 31 -174 93c0 40.667 29 76.667 87 108l20 -10c-4.66699 -11.333 -7 -29 -7 -53c0 -28 9 -49.333 27 -64
s38.667 -22 62 -22c16.667 0 33.667 3.5 51 10.5s36.5 19.667 57.5 38s40.667 47.166 59 86.499s33.166 87 44.499 143c-78 -4 -153 -12.333 -225 -25l29 82l207 -8c10 50.667 15 97 15 139c0 86 -30.333 129 -91 129c-33.333 0 -64 -12.5 -92 -37.5
s-59.333 -63.833 -94 -116.5l-31 13c16.667 79.333 32.334 133.666 47.001 162.999l14 10c61.333 13.333 119.333 20 174 20c140 0 210 -67.667 210 -203z" />
    <glyph glyph-name="afii10048" unicode="&#x42e;" horiz-adv-x="966" 
d="M983 468c0 -50 -10.832 -107.004 -32.499 -171.004s-49.834 -118 -84.501 -162c-76 -98.667 -166.667 -148 -272 -148c-79.333 0 -136.5 21 -171.5 63s-52.5 96 -52.5 162c0 46 4.33301 87.333 13 124l-119 2l-44 -199c-6.66699 -33.333 -10 -55.333 -10 -66
c0 -12.667 2.5 -21.667 7.5 -27s13.833 -9.33301 26.5 -12l-7 -34h-147c-16.667 0 -25 10 -25 30c0 8.66699 2.5 24.334 7.5 47.001s11 47.667 18 75s11.167 45 12.5 53l53 250c14 64.667 21 111.334 21 140.001c0 16 -3.83301 27.167 -11.5 33.5
s-21.834 10.833 -42.501 13.5l7 34c65.333 8 117 12 155 12c10.667 0 18.167 -0.333008 22.5 -1s8.33301 -3.16699 12 -7.5s5.5 -11.166 5.5 -20.499c0 -16.667 -3.33301 -40.667 -10 -72l-41 -201l125 6c18 52 41 97.333 69 136s55 67.834 81 87.501
s54.167 35.334 84.5 47.001s54.333 18.667 72 21s34.834 3.5 51.501 3.5c73.333 0 129.333 -16.333 168 -49s58 -89.334 58 -170.001zM842.001 494.996c0 48 -7.66797 83.333 -23.001 106s-39.666 34 -72.999 34c-36 0 -67.667 -12 -95 -36s-52.333 -61 -75 -111
c-18.667 -40.667 -34.5 -89.667 -47.5 -147s-19.5 -111.333 -19.5 -162c0 -45.333 9 -80 27 -104s40.333 -36 67 -36c36 0 67.667 11.167 95 33.5s53 61.5 77 117.5c44.667 105.333 67 207 67 305z" />
    <glyph glyph-name="afii10049" unicode="&#x42f;" horiz-adv-x="608" 
d="M595 532l-38 -182.999c-25.333 -117.333 -40 -187.333 -44 -210c-6.66699 -34.667 -10 -56.667 -10 -66c0 -12.667 2.5 -21.667 7.5 -27s13.833 -9.33301 26.5 -12l-7 -34h-147c-16.667 0 -25 10 -25 30c0 5.33301 2 17.333 6 36s9.5 42.667 16.5 72
s12.167 51.666 15.5 66.999l40 196c25.333 124 38 190.333 38 199c0 14 -4.16699 23.333 -12.5 28s-22.166 7 -41.499 7c-39.333 0 -71.166 -15.667 -95.499 -47s-36.5 -70.333 -36.5 -117c0 -63.333 24.333 -101.333 73 -114c10 -2.66699 27.333 -4 52 -4l-7 -31
c-18 -7.33301 -36 -20.666 -54 -39.999c-12.667 -13.333 -25 -27.333 -37 -42s-24 -30.5 -36 -47.5s-21.5 -31 -28.5 -42l-29.5 -46.5l-25 -39c-18.667 -29.333 -36.167 -49.333 -52.5 -60s-41.166 -16 -74.499 -16c-9.33301 0 -21.5 0.833008 -36.5 2.5
s-27.833 3.5 -38.5 5.5l-16 3l7 33c18.667 5.33301 34.5 14.166 47.5 26.499s28.5 31.166 46.5 56.499c14.667 20.667 46.334 61.667 95.001 123l19 22c6 6.66699 12.333 12.834 19 18.501l16.5 14c4.33301 3.66699 10.166 7.66699 17.499 12s12 7 14 8
s7.33301 3.83301 16 8.5l12 6l-30 9c-6.66699 2 -17.667 7 -33 15s-27.333 16.5 -36 25.5s-16.834 21.833 -24.501 38.5s-11.5 35 -11.5 55c0 39.333 8.83301 73.5 26.5 102.5s41.667 51.5 72 67.5s62.666 27.667 96.999 35s71.166 11 110.499 11
c66.667 0 110 -1.66699 130 -5s30 -10.333 30 -21c0 -10 -8 -53 -24 -129z" />
    <glyph glyph-name="afii10065" unicode="&#x430;" horiz-adv-x="553" 
d="M539 480l16 -6c-12 -34 -23.667 -75.667 -35 -125c-36 -158 -54 -242.667 -54 -254c0 -8.66699 0.666992 -15.667 2 -21s3.33301 -9 6 -11s5 -3.16699 7 -3.5s4.66699 -0.5 8 -0.5c17.333 0 34 4.33301 50 13v-35c-56 -32 -103 -48 -141 -48c-22 0 -37 4 -45 12
s-12 24 -12 48c0 8 0.833008 18 2.5 30s3.16699 22 4.5 30l2 12h-5c-58.667 -89.333 -124.667 -134 -198 -134c-25.333 0 -47.166 9.33301 -65.499 28s-27.5 51.667 -27.5 99c0 94 31 179.667 93 257c57.333 70.667 130.666 106 219.999 106c31.333 0 63 -3.66699 95 -11
c2.66699 0.666992 15.167 3 37.5 7s35.5 6.33301 39.5 7zM381 299l25.002 113c-18.667 13.333 -40.334 20 -65.001 20c-41.333 0 -79 -37 -113 -111c-27.333 -59.333 -41 -121 -41 -185c0 -42.667 12.333 -64 37 -64c28.667 0 58.667 23.667 90 71s53.666 99.333 66.999 156
z" />
    <glyph glyph-name="afii10066" unicode="&#x431;" horiz-adv-x="514" 
d="M541 782l25.998 -8.00098c-0.666992 -2.66699 -2 -9.83398 -4 -21.501s-3.66699 -19.667 -5 -24s-3.33301 -11.833 -6 -22.5s-5.5 -18.834 -8.5 -24.501l-11 -21c-4.33301 -8.33301 -9.66602 -15.666 -15.999 -21.999s-13.166 -12.5 -20.499 -18.5
c-22 -16.667 -64.167 -35.5 -126.5 -56.5s-101.5 -35.5 -117.5 -43.5c-59.333 -29.333 -96.333 -76 -111 -140h10c26.667 32.667 58.5 57.334 95.5 74.001s74.833 25 113.5 25c42 0 78.333 -11.833 109 -35.5s46 -62.834 46 -117.501c0 -106 -30 -193.333 -90 -262
c-46.667 -53.333 -112 -80 -196 -80c-50 0 -90.333 15.333 -121 46s-46 75.334 -46 134.001c0 26 3.33301 61.667 10 107s13 79 19 101c14 52 29.5 96.167 46.5 132.5s42.5 70.5 76.5 102.5c20.667 19.333 47.167 36.833 79.5 52.5s65.833 29.334 100.5 41.001
s54.334 18.5 59.001 20.5c43.333 20 72.666 40.333 87.999 61zM385.998 335.999c0 62 -20 93 -60 93c-50 0 -87.333 -39 -112 -117c-18 -55.333 -27 -117 -27 -185c0 -63.333 19.667 -95 59 -95c36.667 0 68.667 29.667 96 89c29.333 63.333 44 135 44 215z" />
    <glyph glyph-name="afii10067" unicode="&#x432;" horiz-adv-x="498" 
d="M500 386c0 -55.333 -46.668 -99.3311 -140.001 -131.998v-3c16 -0.666992 30.167 -2.33398 42.5 -5.00098s25 -6.66699 38 -12s23 -13.666 30 -24.999s10.5 -25.333 10.5 -42c0 -33.333 -10.667 -62.5 -32 -87.5s-47.166 -43.5 -77.499 -55.5
s-57.833 -20.833 -82.5 -26.5s-44.667 -8.5 -60 -8.5c-22.667 0 -41 0.333008 -55 1s-31.5 2.66699 -52.5 6s-36.833 9.33301 -47.5 18s-16 19.667 -16 33s8 54.666 24 123.999l38 165c5.33301 22 13.666 41.5 24.999 58.5s24.833 30.333 40.5 40s30.834 17.667 45.501 24
s30.667 10.666 48 12.999s30.5 3.83301 39.5 4.5s18.5 1 28.5 1c102 0 153 -30.333 153 -91zM379.999 375.002c0 20 -3.83301 34 -11.5 42s-20.5 12 -38.5 12c-40.667 0 -69 -28 -85 -84c-8 -28.667 -14.333 -56.667 -19 -84l51 3c29.333 1.33301 53.833 12.5 73.5 33.5
s29.5 46.833 29.5 77.5zM346.999 157.002c0 19.333 -4 34.166 -12 44.499s-15.833 16.333 -23.5 18s-16.834 2.5 -27.501 2.5c-21.333 0 -43.666 -2 -66.999 -6c-18 -82 -27 -130 -27 -144c0 -23.333 16 -35 48 -35c33.333 0 59.833 11.333 79.5 34s29.5 51.334 29.5 86.001
z" />
    <glyph glyph-name="afii10068" unicode="&#x433;" horiz-adv-x="426" 
d="M434 388c0 -35.333 -12.1709 -63.998 -36.5039 -85.998s-65.833 -48.667 -124.5 -80c-36.667 -20 -60.667 -36.333 -72 -49c-14 -16.667 -21 -36.334 -21 -59.001c0 -38 23 -57 69 -57c20.667 0 45.5 7.16699 74.5 21.5s50.833 29.166 65.5 44.499l5 -45
c-24 -24.667 -55.167 -45.667 -93.5 -63s-81.833 -26 -130.5 -26c-36 0 -67 7.5 -93 22.5s-39 40.833 -39 77.5c0 13.333 2.83301 26.333 8.5 39s11.834 23.167 18.501 31.5s17.334 17.666 32.001 27.999s26.334 17.833 35.001 22.5l42.5 22c19.667 10 32.834 17 39.501 21
c28.667 16 49.5 32.333 62.5 49s19.5 36.334 19.5 59.001c0 26 -15.333 39 -46 39c-41.333 0 -90 -22.667 -146 -68l-10 45c30.667 27.333 66.5 50.333 107.5 69s78.833 28 113.5 28c79.333 0 119 -28.667 119 -86z" />
    <glyph glyph-name="afii10069" unicode="&#x434;" horiz-adv-x="499" 
d="M517 454c0 -55.333 -6.99609 -110.501 -20.9961 -165.501s-33.667 -105.333 -59 -151s-58 -82.667 -98 -111s-83.667 -42.5 -131 -42.5c-46.667 0 -83.5 12.833 -110.5 38.5s-40.5 65.5 -40.5 119.5c0 83.333 24.333 159.333 73 228c22 32 50.333 58.167 85 78.5
s68 30.5 100 30.5c15.333 0 34.666 -3.66699 57.999 -11v-41c-12 4.66699 -25.667 7 -41 7c-33.333 0 -64 -24.333 -92 -73c-14.667 -24 -27.334 -57.833 -38.001 -101.5s-16 -85.5 -16 -125.5c0 -68 18 -102 54 -102c34 0 64.667 34 92 102
c15.333 38 29.166 89.833 41.499 155.5s18.5 128.834 18.5 189.501c0 45.333 -5.83301 83.5 -17.5 114.5s-27.834 54 -48.501 69s-40 25.5 -58 31.5s-38.667 10 -62 12l14 36c36 0 67.5 -2 94.5 -6s53.833 -12.167 80.5 -24.5s48.5 -28.833 65.5 -49.5
s30.667 -48.5 41 -83.5s15.5 -76.5 15.5 -124.5z" />
    <glyph glyph-name="afii10070" unicode="&#x435;" horiz-adv-x="441" 
d="M468 394c0 -76.667 -69.333 -127.668 -208 -153.001l-68 -12c-2.66699 -21.333 -4 -40.333 -4 -57c0 -75.333 28.667 -113 86 -113c44.667 0 87.667 14.333 129 43v-43c-6 -5.33301 -14.5 -11.666 -25.5 -18.999s-32.667 -17.333 -65 -30s-63.833 -19 -94.5 -19
c-50 0 -89.833 13.5 -119.5 40.5s-44.5 67.5 -44.5 121.5c0 79.333 27.333 153 82 221c30 37.333 63.833 63.833 101.5 79.5s69.834 23.5 96.501 23.5c17.333 0 32.666 -0.833008 45.999 -2.5s27.333 -5 42 -10s26 -13.5 34 -25.5s12 -27 12 -45zM351 382.999
c0 29.333 -12.667 44 -38 44c-51.333 0 -89 -51 -113 -153l46 8c30 5.33301 55 17 75 35s30 40 30 66z" />
    <glyph glyph-name="afii10072" unicode="&#x436;" horiz-adv-x="808" 
d="M817 454c0 -18 -15.668 -42.667 -47.001 -74c-42.667 -42.667 -90 -80.334 -142 -113.001c5.33301 -10 18 -35.833 38 -77.5s36.333 -73.167 49 -94.5c4.66699 -7.33301 11.5 -14 20.5 -20s16.833 -9 23.5 -9c14 0 29.667 4.33301 47 13l5 -32
c-4.66699 -4 -11.167 -9 -19.5 -15s-23.5 -14.167 -45.5 -24.5s-41.667 -15.5 -59 -15.5c-27.333 0 -46.666 5.33301 -57.999 16s-25.333 35.334 -42 74.001l-67 154l4 20c42.667 17.333 79.667 39.333 111 66c36 31.333 54 59 54 83c0 16.667 -10.667 25 -32 25l6 31
c38 8 80.667 12 128 12c9.33301 0 16 -1.16699 20 -3.5s6 -7.5 6 -15.5zM546.999 430c0 -10.667 -5 -41.667 -15 -93l-29 -141c-14.667 -73.333 -22 -116.333 -22 -129c0 -18 5.66699 -28 17 -30l-7 -34c-47.333 -5.33301 -79.333 -8 -96 -8
c-17.333 0 -29.666 2.83301 -36.999 8.5s-11 16.834 -11 33.501c0 14 8 59.333 24 136l23 109c10.667 50.667 16 87.667 16 111c0 10 -2.33301 17.667 -7 23s-9.33398 8.33301 -14.001 9l-7 1l8 36c64 6.66699 108 10 132 10c10 0 16.667 -2.83301 20 -8.5
s5 -16.834 5 -33.501zM374.999 266l-4.00391 -21.999l-34 -38c-20 -22 -43.833 -51.5 -71.5 -88.5s-46.167 -61.167 -55.5 -72.5c-20 -24.667 -36.667 -39.5 -50 -44.5s-35.666 -7.5 -66.999 -7.5c-10.667 0 -23.334 1.66699 -38.001 5s-27 6.66602 -37 9.99902l-14 6l6 27
c10.667 0 22 3.16699 34 9.5s21 12.333 27 18s15.333 15.167 28 28.5l21 22c55.333 55.333 110.333 118.333 165 189c-21.333 36.667 -43.666 65 -66.999 85s-55.666 32.333 -96.999 37l6 33c67.333 10 102 15 104 15c14.667 0 25.334 -3.5 32.001 -10.5
s14.667 -20.833 24 -41.5c2 -5.33301 3.66699 -9.33301 5 -12c26.667 -58.667 43.667 -95 51 -109c12.667 -21.333 23.334 -34.333 32.001 -39z" />
    <glyph glyph-name="afii10073" unicode="&#x437;" horiz-adv-x="446" 
d="M451 389c0 -58.667 -48.3359 -104.332 -145.003 -136.999v-6c82.667 -7.33301 124 -38.333 124 -93c0 -37.333 -14.5 -69.333 -43.5 -96s-61.167 -45.167 -96.5 -55.5s-69.666 -15.5 -102.999 -15.5c-102 0 -153 24.333 -153 73c0 14 8 27.167 24 39.5
s39.667 20.166 71 23.499l11 -11c0 -51.333 20 -77 60 -77c28.667 0 50.834 10.833 66.501 32.5s23.5 49.167 23.5 82.5c0 42.667 -23.333 64 -70 64l-70 -4l18 45l57 4c25.333 1.33301 47.5 12 66.5 32s28.5 47 28.5 81c0 38.667 -19.667 58 -59 58
c-23.333 0 -41.666 -8.83301 -54.999 -26.5s-21.333 -39.167 -24 -64.5l-15 -11c-25.333 0 -44.5 4.5 -57.5 13.5s-19.5 20.5 -19.5 34.5c0 30 22 54.5 66 73.5s96.333 28.5 157 28.5c92 0 138 -29.333 138 -88z" />
    <glyph glyph-name="afii10074" unicode="&#x438;" horiz-adv-x="547" 
d="M533 77l4.99902 -35.9961c-5.33301 -4 -12.833 -8.83301 -22.5 -14.5s-28.167 -13.334 -55.5 -23.001s-53.333 -14.5 -78 -14.5c-38.667 0 -58 14 -58 42c0 12 4.66699 37.333 14 76c-71.333 -80 -140.666 -120 -207.999 -120c-44 0 -66 23.333 -66 70
c0 22.667 7.33301 67 22 133l20 91c11.333 56.667 17 94.334 17 113.001c0 3.33301 -0.166992 6.33301 -0.5 9s-1.16602 5 -2.49902 7s-2.33301 3.83301 -3 5.5s-2.16699 3 -4.5 4s-4 1.83301 -5 2.5s-3 1.16699 -6 1.5s-5 0.666016 -6 0.999023
s-3.33301 0.666016 -7 0.999023s-5.83398 0.5 -6.50098 0.5l4 30c67.333 11.333 112 17 134 17c29.333 0 44 -11.333 44 -34c0 -11.333 -1.66699 -25.666 -5 -42.999s-8 -39 -14 -65s-10 -44 -12 -54l-17 -81c-8.66699 -45.333 -13 -71.333 -13 -78
c0 -9.33301 1.83301 -16.5 5.5 -21.5s7.5 -8 11.5 -9s9 -1.5 15 -1.5c26 0 52.667 18.167 80 54.5s44.333 70.5 51 102.5l9 42c11.333 56.667 17 93 17 109c0 3.33301 -0.166992 6.33301 -0.5 9s-1.16602 5 -2.49902 7s-2.33301 3.83301 -3 5.5s-2.16699 3 -4.5 4
s-4 1.83301 -5 2.5s-3 1.16699 -6 1.5s-5 0.666016 -6 0.999023s-3.33301 0.666016 -7 0.999023s-5.83398 0.5 -6.50098 0.5l4 30c67.333 11.333 112 17 134 17c29.333 0 44 -11.333 44 -34c0 -21.333 -10.667 -74 -32 -158l-21 -85
c-13.333 -54.667 -20 -89.334 -20 -104.001c0 -20.667 8 -31 24 -31c14 0 30.333 5.33301 49 16z" />
    <glyph glyph-name="afii10075" unicode="&#x439;" horiz-adv-x="547" 
d="M533 77l4.99902 -35.9961c-5.33301 -4 -12.833 -8.83301 -22.5 -14.5s-28.167 -13.334 -55.5 -23.001s-53.333 -14.5 -78 -14.5c-38.667 0 -58 14 -58 42c0 12 4.66699 37.333 14 76c-71.333 -80 -140.666 -120 -207.999 -120c-44 0 -66 23.333 -66 70
c0 22.667 7.33301 67 22 133l20 91c11.333 56.667 17 94.334 17 113.001c0 3.33301 -0.166992 6.33301 -0.5 9s-1.16602 5 -2.49902 7s-2.33301 3.83301 -3 5.5s-2.16699 3 -4.5 4s-4 1.83301 -5 2.5s-3 1.16699 -6 1.5s-5 0.666016 -6 0.999023
s-3.33301 0.666016 -7 0.999023s-5.83398 0.5 -6.50098 0.5l4 30c67.333 11.333 112 17 134 17c29.333 0 44 -11.333 44 -34c0 -11.333 -1.66699 -25.666 -5 -42.999s-8 -39 -14 -65s-10 -44 -12 -54l-17 -81c-8.66699 -45.333 -13 -71.333 -13 -78
c0 -9.33301 1.83301 -16.5 5.5 -21.5s7.5 -8 11.5 -9s9 -1.5 15 -1.5c26 0 52.667 18.167 80 54.5s44.333 70.5 51 102.5l9 42c11.333 56.667 17 93 17 109c0 3.33301 -0.166992 6.33301 -0.5 9s-1.16602 5 -2.49902 7s-2.33301 3.83301 -3 5.5s-2.16699 3 -4.5 4
s-4 1.83301 -5 2.5s-3 1.16699 -6 1.5s-5 0.666016 -6 0.999023s-3.33301 0.666016 -7 0.999023s-5.83398 0.5 -6.50098 0.5l4 30c67.333 11.333 112 17 134 17c29.333 0 44 -11.333 44 -34c0 -21.333 -10.667 -74 -32 -158l-21 -85
c-13.333 -54.667 -20 -89.334 -20 -104.001c0 -20.667 8 -31 24 -31c14 0 30.333 5.33301 49 16zM508.999 678.004l31 -9c-16.667 -40 -44.834 -72.167 -84.501 -96.5s-82.167 -36.5 -127.5 -36.5c-64.667 0 -97 18.333 -97 55c0 16 6.5 30.833 19.5 44.5
s26.167 23.167 39.5 28.5l20 9c20.667 -40.667 52.334 -61 95.001 -61c37.333 0 72 22 104 66z" />
    <glyph glyph-name="afii10076" unicode="&#x43a;" horiz-adv-x="522" 
d="M535 454c0 -18 -15.666 -42.666 -46.999 -73.999c-42.667 -42.667 -90 -80.334 -142 -113.001c2 -3.33301 14.5 -27.5 37.5 -72.5s41.167 -78.167 54.5 -99.5c4.66699 -7.33301 11.5 -14 20.5 -20s16.833 -9 23.5 -9c14 0 29.667 4.33301 47 13l5 -32
c-4.66699 -4 -11.334 -9 -20.001 -15s-24.834 -14.167 -48.501 -24.5s-45.834 -15.5 -66.501 -15.5c-23.333 0 -41.166 6.33301 -53.499 19s-26.166 37 -41.499 73l-66 152l4 20c38 15.333 73.333 37 106 65c36.667 31.333 55 59.333 55 84c0 16.667 -9.33301 25 -28 25
l6 31c38 8 80.667 12 128 12c9.33301 0 16 -1.16699 20 -3.5s6 -7.5 6 -15.5zM265.001 430.001c0 -10.667 -5 -41.666 -15 -92.999l-29 -141c-14.667 -73.333 -22 -116.333 -22 -129c0 -15.333 8.33301 -23 25 -23l-7 -34c-48.667 -14 -86 -21 -112 -21
c-16 0 -26.667 3.33301 -32 10s-8 17.334 -8 32.001c0 18 8 65.333 24 142l23 109c10.667 50.667 16 87.667 16 111c0 10 -2.5 17.667 -7.5 23s-9.66699 8.16602 -14 8.49902s-11.833 0.833008 -22.5 1.5l8 36c74.667 6.66699 124 10 148 10c10 0 16.667 -2.83301 20 -8.5
s5 -16.834 5 -33.501z" />
    <glyph glyph-name="afii10077" unicode="&#x43b;" horiz-adv-x="507" 
d="M495 77l5 -36.002c-50.667 -34.667 -100.334 -52 -149.001 -52c-22 0 -37.333 6.33301 -46 19s-13 34.667 -13 66c0 12 4.33301 50.667 13 116l18 142c4.66699 39.333 7 66.333 7 81h-3l-47 -64c-50.667 -68.667 -87.5 -124.667 -110.5 -168
s-34.5 -80.666 -34.5 -111.999c0 -18 10.333 -30.333 31 -37l-7 -25c-45.333 -10.667 -80 -16 -104 -16c-21.333 0 -32 10.667 -32 32c0 10 1.83301 20.667 5.5 32s10.5 25.5 20.5 42.5s19.167 31.833 27.5 44.5l40.5 59.5l46 67.5l37 50.5
c16.667 22.333 29.834 40.666 39.501 54.999s14.5 24.833 14.5 31.5c0 13.333 -10.333 20.666 -31 21.999c-2 0.666992 -5.66699 1 -11 1h-5l8 32c66 8.66699 114.667 13 146 13c18 0 31.333 -0.166992 40 -0.5s18.167 -1.66602 28.5 -3.99902
s17.666 -6.16602 21.999 -11.499s6.5 -12.666 6.5 -21.999c0 -26.667 -3 -59 -9 -97l-19 -129c-6 -44 -9 -83.333 -9 -118c0 -20.667 10 -31 30 -31c14.667 0 29.334 5.33301 44.001 16z" />
    <glyph glyph-name="afii10078" unicode="&#x43c;" horiz-adv-x="740" 
d="M715 77l4.99805 -36c-4.66699 -4 -11.5 -8.83301 -20.5 -14.5s-26.5 -13.334 -52.5 -23.001s-51.333 -14.5 -76 -14.5c-23.333 0 -40 4.16699 -50 12.5s-15 23.833 -15 46.5c0 20 10.333 81.667 31 185l27 138c-64 -109.333 -122.667 -199.333 -176 -270
c-29.333 -38 -54 -57 -74 -57s-34.667 36.333 -44 109l-27 223l-24 -62c-4 -10.667 -9.66699 -25 -17 -43s-12.5 -31.167 -15.5 -39.5l-12 -32c-5 -13 -8.5 -23 -10.5 -30s-4.16699 -15.167 -6.5 -24.5s-4 -17.666 -5 -24.999s-1.5 -14.666 -1.5 -21.999
c0 -16 2.16699 -28.5 6.5 -37.5s12.5 -16.5 24.5 -22.5l-5 -26c-37.333 -10 -68.333 -15 -93 -15c-13.333 0 -22 2.33301 -26 7s-6 13 -6 25c0 34.667 29.667 114 89 238c35.333 75.333 54 117.666 56 126.999c0 4 0.166992 7.33301 0.5 10s-1 5 -4 7s-5.16699 3.5 -6.5 4.5
s-4.16602 1.83301 -8.49902 2.5l-10 1.5c-2.33301 0.333008 -5.5 0.666016 -9.5 0.999023s-7 0.5 -9 0.5l7 36c70 10 121.333 15 154 15c18.667 0 31.167 -3.16699 37.5 -9.5s10.5 -20.166 12.5 -41.499c2 -18 4 -42.167 6 -72.5s4 -55.833 6 -76.5
c4.66699 -49.333 9.66699 -74 15 -74c12 0 40.667 38.667 86 116c16.667 28 34 55.333 52 82s28 41.667 30 45c16.667 10 37.667 18 63 24s43 9 53 9c9.33301 0 15.833 -1.5 19.5 -4.5s5.5 -9.16699 5.5 -18.5c0 -8.66699 -2 -24.667 -6 -48l-36 -192
c-11.333 -61.333 -17 -99.333 -17 -114c0 -14 2.5 -23.5 7.5 -28.5s13.5 -7.5 25.5 -7.5c14.667 0 29.334 5.33301 44.001 16z" />
    <glyph glyph-name="afii10079" unicode="&#x43d;" horiz-adv-x="552" 
d="M538 77l4.99902 -35.999c-5.33301 -4 -12.833 -8.83301 -22.5 -14.5s-28.167 -13.334 -55.5 -23.001s-53.333 -14.5 -78 -14.5c-37.333 0 -56 14 -56 42c0 8 5.66699 41 17 99l18 87l-139 5l-6 -26c-14.667 -64.667 -22 -107.667 -22 -129c0 -15.333 8.33301 -23 25 -23
l-7 -34c-48.667 -14 -86 -21 -112 -21c-16 0 -26.667 3.33301 -32 10s-8 17.334 -8 32.001c0 18.667 8 66 24 142l23 109c10.667 50.667 16 87.667 16 111c0 10 -2.5 17.667 -7.5 23s-9.66699 8.16602 -14 8.49902s-11.833 0.833008 -22.5 1.5l8 36
c74.667 6.66699 124 10 148 10c10 0 16.667 -2.83301 20 -8.5s5 -16.834 5 -33.501c0 -12 -5 -43 -15 -93l-15 -74c15.333 0.666992 35 1.33398 59 2.00098s43.667 1.33398 59 2.00098l23 1l4 17c11.333 50 17 86.333 17 109c0 7.33301 -1.16699 13.166 -3.5 17.499
s-4.66602 7.33301 -6.99902 9s-5.83301 3.5 -10.5 5.5l4 30c52 11.333 89 17 111 17c31.333 0 47 -11.333 47 -34c0 -21.333 -10.667 -74 -32 -158l-21 -85c-13.333 -56 -20 -90.667 -20 -104c0 -20.667 8 -31 24 -31c14 0 30.333 5.33301 49 16z" />
    <glyph glyph-name="afii10080" unicode="&#x43e;" 
d="M515 305c0 -88.667 -24.666 -162.669 -73.999 -222.002c-54 -64.667 -124.333 -97 -211 -97c-20.667 0 -40.334 2.5 -59.001 7.5s-37 13.333 -55 25s-32.333 29.334 -43 53.001s-16 51.834 -16 84.501c0 90 24.667 164.667 74 224c54 64.667 124.333 97 211 97
c47.333 0 88 -13 122 -39s51 -70.333 51 -133zM386.001 332.998c0 22 -1.66699 39.999 -5 53.999s-8.33301 23.667 -15 29s-12.5 8.83301 -17.5 10.5s-11.167 2.5 -18.5 2.5c-35.333 0 -65.666 -22.667 -90.999 -68c-13.333 -24.667 -25.5 -58.667 -36.5 -102
s-16.5 -87 -16.5 -131c0 -36 5.83301 -60.667 17.5 -74s24.5 -20 38.5 -20c35.333 0 65.666 22.667 90.999 68c13.333 24 25.5 57.833 36.5 101.5s16.5 86.834 16.5 129.501z" />
    <glyph glyph-name="afii10081" unicode="&#x43f;" horiz-adv-x="552" 
d="M537 77l4.99902 -35.998c-5.33301 -4 -12.833 -8.83301 -22.5 -14.5s-28.167 -13.334 -55.5 -23.001s-53.333 -14.5 -78 -14.5c-38.667 0 -58 14 -58 42c0 20 8 67.333 24 142l24 109c5.33301 26.667 8 42.667 8 48c0 12.667 -2.33301 21.5 -7 26.5s-13 7.5 -25 7.5
c-26.667 0 -53 -16.333 -79 -49s-42 -65 -48 -97l-4 -22c-14.667 -68.667 -22 -111.667 -22 -129c0 -15.333 8.33301 -23 25 -23l-7 -34c-48.667 -14 -86 -21 -112 -21c-16 0 -26.667 3.33301 -32 10s-8 17.334 -8 32.001c0 18.667 8 66 24 142l23 109
c10.667 52 16 89 16 111c0 10 -2.5 17.667 -7.5 23s-9.66699 8.16602 -14 8.49902s-11.833 0.833008 -22.5 1.5l8 36c74.667 6.66699 124 10 148 10c10 0 16.667 -2.83301 20 -8.5s5 -16.834 5 -33.501c0 -20 -3.66699 -45.333 -11 -76c34.667 42 70.834 72.5 108.501 91.5
s68.167 28.5 91.5 28.5c48 0 72 -23.333 72 -70c0 -22 -7.66699 -65 -23 -129l-19 -79c-13.333 -60 -20 -94.667 -20 -104c0 -20.667 8 -31 24 -31c14 0 30.333 5.33301 49 16z" />
    <glyph glyph-name="afii10082" unicode="&#x440;" horiz-adv-x="535" 
d="M542 336c0 -40 -7.83105 -82.3311 -23.498 -126.998s-35.834 -82.334 -60.501 -113.001c-56.667 -69.333 -122.667 -104 -198 -104c-30.667 0 -55.667 4.66699 -75 14l-5 -23c-18.667 -86 -28 -135.333 -28 -148c0 -15.333 9 -24.666 27 -27.999l-7 -34
c-52.667 -5.33301 -87.334 -8 -104.001 -8s-28.5 3.66699 -35.5 11s-10.5 20 -10.5 38c0 16 9.33301 67.333 28 154l70 320c8.66699 43.333 13 74.666 13 93.999c0 12 -2.33301 21.5 -7 28.5s-9.66699 11.167 -15 12.5s-12.333 2.33301 -21 3l7 36c68 6.66699 114 10 138 10
h10.5c1.66699 0 5 -0.5 10 -1.5s7.83301 -2.66699 8.5 -5s2.66699 -5.83301 6 -10.5s4.16602 -10.334 2.49902 -17.001s-2.5 -15.334 -2.5 -26.001l-4 -24c46.667 59.333 97.334 89 152.001 89c40 0 70.667 -12.167 92 -36.5s32 -59.166 32 -104.499zM409.002 324.002
c0 50 -18.333 75 -55 75c-26.667 0 -51.167 -17 -73.5 -51s-37.833 -72.667 -46.5 -116l-29 -136c-0.666992 -18.667 4 -32.834 14 -42.501s24.667 -14.5 44 -14.5c62 0 106.667 63.333 134 190c8 38.667 12 70.334 12 95.001z" />
    <glyph glyph-name="afii10083" unicode="&#x441;" horiz-adv-x="437" 
d="M476 416c0 -18.667 -10.667 -34.834 -32 -48.501s-46 -22.834 -74 -27.501l-8 8c3.33301 12 5 25 5 39c0 13.333 -2.83301 23.333 -8.5 30s-17.167 10 -34.5 10c-35.333 0 -65.333 -25.167 -90 -75.5s-37 -110.166 -37 -179.499c0 -75.333 28 -113 84 -113
c44.667 0 87.667 14.333 129 43v-43c-6 -5.33301 -14.5 -11.666 -25.5 -18.999s-32.667 -17.333 -65 -30s-63.833 -19 -94.5 -19c-50 0 -89.833 13.5 -119.5 40.5s-44.5 67.5 -44.5 121.5c0 41.333 8.33301 82.333 25 123s37.667 75 63 103
c28.667 32.667 62 57.167 100 73.5s72.667 24.5 104 24.5c82 0 123 -20.333 123 -61z" />
    <glyph glyph-name="afii10084" unicode="&#x442;" horiz-adv-x="832" 
d="M818 77l4.99902 -35.999c-5.33301 -4 -12.833 -8.83301 -22.5 -14.5s-28.167 -13.334 -55.5 -23.001s-53.333 -14.5 -78 -14.5c-43.333 0 -65 14 -65 42c0 20 8 67.333 24 142l24 109c5.33301 22.667 8 40.667 8 54c0 14.667 -1.83301 24.667 -5.5 30s-10.5 8 -20.5 8
c-20.667 0 -41.667 -11.167 -63 -33.5s-39 -50.166 -53 -83.499c-15.333 -35.333 -27.666 -73 -36.999 -113c-7.33301 -32 -11 -57.667 -11 -77c0 -6 2.33301 -11.333 7 -16s10.667 -7 18 -7l-7 -34c-48.667 -14 -86 -21 -112 -21c-16 0 -26.667 3.33301 -32 10
s-8 17.334 -8 32.001c0 18.667 8 66 24 142l24 109c5.33301 25.333 8 43.333 8 54c0 14.667 -2.33301 24.667 -7 30s-12 8 -22 8c-30 0 -57.5 -19 -82.5 -57s-40.833 -71 -47.5 -99l-5 -22c-15.333 -70.667 -23 -113.667 -23 -129s8.33301 -23 25 -23l-7 -34
c-48.667 -14 -86 -21 -112 -21c-16 0 -26.667 3.33301 -32 10s-8 17.334 -8 32.001c0 23.333 8 70.666 24 141.999l24 109c11.333 48.667 17 85.667 17 111c0 10 -2.5 17.667 -7.5 23s-9.66699 8.16602 -14 8.49902s-11.833 0.833008 -22.5 1.5l8 36
c74.667 6.66699 124 10 148 10c10 0 16.667 -2.83301 20 -8.5s5 -16.834 5 -33.501c0 -20 -3.66699 -45.333 -11 -76c24 34 54.5 62.5 91.5 85.5s75.5 34.5 115.5 34.5c44 0 66 -22 66 -66l-7 -56c39.333 46.667 76.833 78.667 112.5 96s65.5 26 89.5 26c48 0 72 -22 72 -66
c0 -22.667 -7.66699 -67 -23 -133l-19 -84c-11.333 -50.667 -17 -83.667 -17 -99c0 -20.667 9.33301 -31 28 -31c14 0 30.333 5.33301 49 16z" />
    <glyph glyph-name="afii10085" unicode="&#x443;" horiz-adv-x="500" 
d="M529 437c0 -16 -13.001 -50.3311 -39.001 -102.998s-64 -119 -114 -199l-73 -116c-16.667 -26.667 -35.167 -53.334 -55.5 -80.001s-43.5 -53.667 -69.5 -81s-53.333 -49.666 -82 -66.999s-55 -26 -79 -26c-12 0 -21.333 3.5 -28 10.5s-10 15.833 -10 26.5
c0 22.667 13.333 54 40 94l19 3c8.66699 -28.667 27.667 -43 57 -43c12.667 0 24.334 5.66699 35.001 17s18 24.666 22 39.999c4 24 1 91.667 -9 203l-8 86c-8.66699 88.667 -16.667 149 -24 181c-6.66699 27.333 -26 42 -58 44l7 35c70.667 6.66699 118 10 142 10
c19.333 0 31.333 -4.83301 36 -14.5s8.33398 -34.834 11.001 -75.501c0 -4.66699 0.166992 -8.33398 0.5 -11.001s0.666016 -6.16699 0.999023 -10.5s0.5 -8.5 0.5 -12.5l8 -119c4.66699 -80.667 6 -139.667 4 -177h7l47 87c30 56.667 53.833 109.334 71.5 158.001
s26.5 82 26.5 100c0 19.333 -11.333 30 -34 32l4 27c44.667 8 79 12 103 12c14.667 0 25.167 -2.33301 31.5 -7s9.5 -12.667 9.5 -24z" />
    <glyph glyph-name="afii10086" unicode="&#x444;" horiz-adv-x="741" 
d="M754 312c0 -92.667 -32.334 -170.336 -97.001 -233.003c-32 -31.333 -71.5 -55 -118.5 -71s-86.5 -24 -118.5 -24h-6c-13.333 -62.667 -21.666 -105 -24.999 -127c-2.66699 -16.667 -2.33398 -28.5 0.999023 -35.5s11.333 -11.5 24 -13.5l-7 -35
c-63.333 -5.33301 -103.666 -8 -120.999 -8c-10 0 -17.333 2.66699 -22 8s-7 15 -7 29c0 22 10.333 77.667 31 167l4 14c-156.667 2 -235 60.333 -235 175c0 87.333 32.333 162.333 97 225c32 31.333 71.5 55 118.5 71s86.5 24 118.5 24h6l3 18l6.5 33.5
c3 15.667 5.16699 29.334 6.5 41.001s2 23.834 2 36.501c0 22 -14.667 33.667 -44 35l7 32c70 10.667 112.667 16 128 16c14.667 0 25.167 -2.83301 31.5 -8.5s9.5 -17.167 9.5 -34.5c0 -27.333 -8.33301 -78.666 -25 -153.999l-3 -14c156.667 -2 235 -57.667 235 -167z
M623.999 315.998c0 76.667 -38.333 115.667 -115 117l-85 -402c23.333 0 48 7.16699 74 21.5s49 35.833 69 64.5c38 54 57 120.333 57 199zM301.999 28.998l85 402c-23.333 0 -48 -7.16699 -74 -21.5s-49 -35.833 -69 -64.5c-38 -54 -57 -120.333 -57 -199
c0 -76.667 38.333 -115.667 115 -117z" />
    <glyph glyph-name="afii10087" unicode="&#x445;" horiz-adv-x="484" 
d="M524 447c0 -9.33301 -3.83203 -19.999 -11.499 -31.999s-19.167 -25.333 -34.5 -40s-30 -28 -44 -40l-52 -43.5l-47 -39.5c17.333 -66 37.666 -123.333 60.999 -172c14 -28.667 34.333 -43 61 -43l-8 -35c-47.333 -6.66699 -85 -10 -113 -10
c-24.667 0 -41.5 7.16699 -50.5 21.5s-20.167 47.166 -33.5 98.499l-18 68c-23.333 -16 -45.333 -36 -66 -60s-32.334 -42 -35.001 -54c-2.66699 -8 -2.66699 -14.667 0 -20s9.33398 -9.66602 20.001 -12.999l-9 -33c-31.333 -5.33301 -58.666 -8 -81.999 -8
c-16 0 -27.667 1.66699 -35 5s-11 9.66602 -11 18.999c0 8 2.33301 16.833 7 26.5s12 20 22 31l29.5 31c9.66699 9.66699 22.167 20.834 37.5 33.501l37 30.5c9.33301 7.66699 22.166 17.667 38.499 30s26.833 20.5 31.5 24.5l-25 76c-15.333 48 -30.333 80.167 -45 96.5
s-37.334 24.5 -68.001 24.5l7 35c50 11.333 102.667 17 158 17c10.667 0 19.5 -3.83301 26.5 -11.5s11.833 -16 14.5 -25s7 -25.5 13 -49.5l22 -91l15.5 15l15 14.5l13 13c5.66699 5.66699 9.83398 10 12.501 13l10 11.5c4 4.66699 6.83301 8.66699 8.5 12s3.66699 7 6 11
s3.83301 7.66699 4.5 11s1 6.66602 1 9.99902c0 10 -6.66699 17.333 -20 22l6 28c37.333 8 68 12 92 12c25.333 0 38 -7 38 -21z" />
    <glyph glyph-name="afii10088" unicode="&#x446;" horiz-adv-x="593" 
d="M575 102l19.9971 -23.9951c-35.333 -40.667 -53 -79.334 -53 -116.001c0 -2.66699 0.5 -13.667 1.5 -33s1.5 -37.333 1.5 -54c0 -29.333 -14 -58 -42 -86s-61.333 -52.667 -100 -74l-17 23c12.667 11.333 21.834 20.666 27.501 27.999s11.167 19 16.5 35
s8.33301 36.667 9 62c1.33301 41.333 6 74 14 98c2 6 5.33301 12.167 10 18.5s11.334 14 20.001 23l16 16.5l-9 4c-10.667 -8 -29.167 -15.667 -55.5 -23s-47.5 -11 -63.5 -11c-22 0 -37 4.16699 -45 12.5s-9.66699 26.166 -5 53.499c3.33301 20.667 7 38 11 52
c-71.333 -80 -140.666 -120 -207.999 -120c-44 0 -66 23.333 -66 70c0 22.667 7.33301 67 22 133l20 91c11.333 56.667 17 94.334 17 113.001c0 3.33301 -0.166992 6.33301 -0.5 9s-1.16602 5 -2.49902 7s-2.33301 3.83301 -3 5.5s-2.16699 3 -4.5 4s-4 1.83301 -5 2.5
s-3 1.16699 -6 1.5s-5 0.666016 -6 0.999023s-3.33301 0.666016 -7 0.999023s-5.83398 0.5 -6.50098 0.5l4 30c67.333 11.333 112 17 134 17c29.333 0 44 -11.333 44 -34c0 -11.333 -1.66699 -25.666 -5 -42.999s-8 -39 -14 -65s-10 -44 -12 -54l-17 -81
c-8.66699 -45.333 -13 -71.333 -13 -78c0 -9.33301 1.83301 -16.5 5.5 -21.5s7.5 -8 11.5 -9s9 -1.5 15 -1.5c26.667 0 53.167 16.833 79.5 50.5s43.5 69.167 51.5 106.5l9 42c7.33301 33.333 13 63.333 17 90c2 6.66699 2.5 12.5 1.5 17.5s-1.5 9.33301 -1.5 13
s-1.33301 6.66699 -4 9s-4.66699 4.16602 -6 5.49902s-3.83301 2.33301 -7.5 3s-6.16699 1.16699 -7.5 1.5s-4 0.666016 -8 0.999023s-6.66699 0.5 -8 0.5l4 30c73.333 11.333 118 17 134 17c8 0 13.667 -0.166992 17 -0.5s7.83301 -1.83301 13.5 -4.5
s9.33398 -6.66699 11.001 -12s2.5 -13.5 2.5 -24.5s-1.66699 -24.5 -5 -40.5c-2 -11.333 -6.33301 -29.5 -13 -54.5s-11.334 -43.5 -14.001 -55.5l-19 -78c-14 -63.333 -21 -100.333 -21 -111c0 -8 0.5 -14.167 1.5 -18.5s3.5 -7.33301 7.5 -9s6.5 -2.5 7.5 -2.5h11.5
c10 0 24.5 3.5 43.5 10.5s35.167 16.833 48.5 29.5z" />
    <glyph glyph-name="afii10089" unicode="&#x447;" horiz-adv-x="544" 
d="M528 77l4.99805 -36c-5.33301 -4 -12.833 -8.83301 -22.5 -14.5s-28.167 -13.334 -55.5 -23.001s-53.333 -14.5 -78 -14.5c-38.667 0 -58 14 -58 42c0 12 2 28.833 6 50.5s8.33301 41.334 13 59.001l15 56.5c5.33301 20 8.33301 31.333 9 34
c-27.333 -31.333 -58.666 -55.5 -93.999 -72.5s-64.666 -25.5 -87.999 -25.5c-29.333 0 -51.833 4.33301 -67.5 13s-23.5 25.667 -23.5 51c0 12.667 6 53.334 18 122.001c7.33301 42.667 11 67.667 11 75c0 3.33301 -0.166992 6.33301 -0.5 9s-1.16602 5 -2.49902 7
s-2.33301 3.83301 -3 5.5s-2.16699 3 -4.5 4s-4 1.83301 -5 2.5s-3 1.16699 -6 1.5s-5 0.666016 -6 0.999023s-3.33301 0.666016 -7 0.999023s-5.83398 0.5 -6.50098 0.5l4 30c67.333 11.333 112 17 134 17c29.333 0 44 -11.333 44 -34c0 -11.333 -6 -45.666 -18 -102.999
c-8.66699 -40 -13 -66 -13 -78c0 -13.333 3.16699 -22.166 9.5 -26.499s15.166 -6.5 26.499 -6.5c25.333 0 48.833 10.333 70.5 31s35.834 41.667 42.501 63c7.33301 24.667 11 47.667 11 69c0 12 -1.66699 21 -5 27s-6.33301 9.33301 -9 10s-6.66699 1 -12 1l4 30
c56.667 11.333 96 17 118 17c29.333 0 44 -11.333 44 -34c0 -21.333 -10.667 -74 -32 -158l-21 -85c-13.333 -54.667 -20 -89.334 -20 -104.001c0 -20.667 8 -31 24 -31c14 0 30.333 5.33301 49 16z" />
    <glyph glyph-name="afii10090" unicode="&#x448;" horiz-adv-x="808" 
d="M794 77l4.99902 -35.999c-5.33301 -4 -12.833 -8.83301 -22.5 -14.5s-28.167 -13.334 -55.5 -23.001s-53.333 -14.5 -78 -14.5c-38.667 0 -58 14 -58 42c0 12 4.66699 37.333 14 76c-71.333 -80 -140.666 -120 -207.999 -120c-42 0 -63 18 -63 54
c0 24.667 2.33301 46.667 7 66c-71.333 -80 -140.666 -120 -207.999 -120c-44 0 -66 23.333 -66 70c0 22.667 7.33301 67 22 133l20 91c11.333 56.667 17 94.334 17 113.001c0 3.33301 -0.166992 6.33301 -0.5 9s-1.16602 5 -2.49902 7s-2.33301 3.83301 -3 5.5
s-2.16699 3 -4.5 4s-4 1.83301 -5 2.5s-3 1.16699 -6 1.5s-5 0.666016 -6 0.999023s-3.33301 0.666016 -7 0.999023s-5.83398 0.5 -6.50098 0.5l4 30c67.333 11.333 112 17 134 17c29.333 0 44 -11.333 44 -34c0 -11.333 -1.66699 -25.666 -5 -42.999s-8 -39 -14 -65
s-10 -44 -12 -54l-17 -81c-8.66699 -45.333 -13 -71.333 -13 -78c0 -24 10.333 -36 31 -36c25.333 0 52.166 19.833 80.499 59.5s45.5 73.5 51.5 101.5l9 42c11.333 56.667 17 93 17 109c0 21.333 -8.66699 32 -26 32l4 30c46 11.333 84 17 114 17
c29.333 0 44 -11.333 44 -34c0 -11.333 -1.66699 -25.666 -5 -42.999s-8 -39 -14 -65s-10 -44 -12 -54l-17 -81c-8.66699 -39.333 -13 -63 -13 -71c0 -28.667 10.333 -43 31 -43c25.333 0 52.333 20 81 60s45.667 73.667 51 101l9 42c11.333 56.667 17 93 17 109
c0 21.333 -8.66699 32 -26 32l4 30c57.333 11.333 97 17 119 17c29.333 0 44 -11.333 44 -34c0 -21.333 -10.667 -74 -32 -158l-21 -85c-13.333 -54.667 -20 -89.334 -20 -104.001c0 -20.667 8 -31 24 -31c14 0 30.333 5.33301 49 16z" />
    <glyph glyph-name="afii10091" unicode="&#x449;" horiz-adv-x="862" 
d="M843 102l19.9941 -23.998c-35.333 -40.667 -53 -79.334 -53 -116.001c0 -2.66699 0.5 -13.667 1.5 -33s1.5 -37.333 1.5 -54c0 -29.333 -14 -58 -42 -86s-61.333 -52.667 -100 -74l-17 23c12.667 11.333 21.834 20.666 27.501 27.999s11.167 19 16.5 35
s8.33301 36.667 9 62c1.33301 41.333 6 74 14 98c2 6 5.33301 12.167 10 18.5s11.334 14 20.001 23l16 16.5l-9 4c-10.667 -8 -29.167 -15.667 -55.5 -23s-47.5 -11 -63.5 -11c-22 0 -37 4.16699 -45 12.5s-9.66699 26.166 -5 53.499c3.33301 20.667 7 38 11 52
c-71.333 -80 -140.666 -120 -207.999 -120c-42 0 -63 18 -63 54c0 24.667 2.33301 46.667 7 66c-71.333 -80 -140.666 -120 -207.999 -120c-44 0 -66 23.333 -66 70c0 22.667 7.33301 67 22 133l20 91c11.333 56.667 17 94.334 17 113.001
c0 3.33301 -0.166992 6.33301 -0.5 9s-1.16602 5 -2.49902 7s-2.33301 3.83301 -3 5.5s-2.16699 3 -4.5 4s-4 1.83301 -5 2.5s-3 1.16699 -6 1.5s-5 0.666016 -6 0.999023s-3.33301 0.666016 -7 0.999023s-5.83398 0.5 -6.50098 0.5l4 30c67.333 11.333 112 17 134 17
c29.333 0 44 -11.333 44 -34c0 -11.333 -1.66699 -25.666 -5 -42.999s-8 -39 -14 -65s-10 -44 -12 -54l-17 -81c-8.66699 -43.333 -13 -69.333 -13 -78c0 -24 10.333 -36 31 -36c26 0 52.833 18.667 80.5 56s44.834 72.333 51.501 105l9 42c11.333 56.667 17 93 17 109
c0 21.333 -8.66699 32 -26 32l4 30c46 11.333 84 17 114 17c29.333 0 44 -11.333 44 -34c0 -11.333 -1.66699 -25.666 -5 -42.999s-8 -39 -14 -65s-10 -44 -12 -54l-17 -81c-8.66699 -45.333 -13 -69 -13 -71c0 -28.667 10.333 -43 31 -43c25.333 0 52.333 20 81 60
s45.667 73.667 51 101l9 42c11.333 56.667 17 93 17 109c0 21.333 -8.66699 32 -26 32l4 30c57.333 11.333 97 17 119 17c29.333 0 44 -11.333 44 -34c0 -21.333 -10.667 -74 -32 -158l-21 -85c-13.333 -56 -19.666 -90.667 -18.999 -104c0 -8 0.5 -14.167 1.5 -18.5
s3.5 -7.33301 7.5 -9s6.5 -2.5 7.5 -2.5h11.5c10 0 24.5 3.5 43.5 10.5s35.167 16.833 48.5 29.5z" />
    <glyph glyph-name="afii10092" unicode="&#x44a;" horiz-adv-x="522" 
d="M524 222c0 -64.667 -30.501 -120.166 -91.501 -166.499s-123.833 -69.5 -188.5 -69.5c-95.333 0 -143 36.333 -143 109c0 49.333 20.333 98.333 61 147c11.333 13.333 24.5 26.666 39.5 39.999s27.667 23.833 38 31.5l44 31.5l39.5 28l-5 5c-38 -16.667 -67 -25 -87 -25
c-15.333 0 -31.833 0.666992 -49.5 2s-31.5 2 -41.5 2c-12 0 -20.667 -0.666992 -26 -2s-12.666 -5.83301 -21.999 -13.5s-20 -19.834 -32 -36.501l-29 10c42.667 101.333 82.334 152 119.001 152c16.667 0 43.167 -1.83301 79.5 -5.5s70.833 -5.5 103.5 -5.5
c36.667 0 69.667 6.66699 99 20l13 -30c-1.33301 -2 -17.666 -19.5 -48.999 -52.5s-57.5 -64.167 -78.5 -93.5s-39.833 -63 -56.5 -101c-20 -44.667 -30 -83 -30 -115c0 -16 4 -28.333 12 -37s17.333 -13 28 -13c24 0 48.667 15 74 45c13.333 16 24.666 37.833 33.999 65.5
s14 49.834 14 66.501s-3.5 28 -10.5 34s-17.167 9 -30.5 9c-10.667 0 -27.334 -5.33301 -50.001 -16l15 44c31.333 18.667 65 28 101 28c70.667 0 106 -29.333 106 -88z" />
    <glyph glyph-name="afii10093" unicode="&#x44b;" horiz-adv-x="725" 
d="M714 77l4.99902 -35.9971c-5.33301 -4 -12.833 -8.83301 -22.5 -14.5s-28.167 -13.334 -55.5 -23.001s-53.333 -14.5 -78 -14.5c-38.667 0 -58 14 -58 42c0 13.333 4.66699 41 14 83l37 171c11.333 54.667 17 91 17 109c0 7.33301 -1.16699 13.166 -3.5 17.499
s-4.66602 7.33301 -6.99902 9s-5.83301 3.5 -10.5 5.5l4 30c52 11.333 89 17 111 17c31.333 0 47 -11.333 47 -34c0 -21.333 -10.667 -74 -32 -158l-21 -85c-13.333 -54.667 -20 -89.334 -20 -104.001c0 -20.667 8 -31 24 -31c14 0 30.333 5.33301 49 16zM490.999 222.003
c0 -36.667 -8.83203 -70.3291 -26.499 -100.996s-40.5 -55.334 -68.5 -74.001s-57.833 -33 -89.5 -43s-62.834 -15 -93.501 -15c-34.667 0 -68 4.33301 -100 13s-48 19 -48 31c0 6 11.333 56 34 150l23 99c12 49.333 18 86.666 18 111.999
c0 3.33301 -0.166992 6.33301 -0.5 9s-1.16602 5 -2.49902 7s-2.33301 3.83301 -3 5.5s-2.16699 3 -4.5 4s-4 1.83301 -5 2.5s-3 1.16699 -6 1.5s-5 0.666016 -6 0.999023s-3.33301 0.666016 -7 0.999023s-5.83398 0.5 -6.50098 0.5l4 30c67.333 11.333 112 17 134 17
c27.333 0 41 -11.333 41 -34c0 -13.333 -5.33301 -45.333 -16 -96l-36 -155c-3.33301 -16.667 -7.5 -34.834 -12.5 -54.501l-11.5 -46c-2.66699 -11 -4 -17.5 -4 -19.5c0 -20 13.333 -30 40 -30c30.667 0 57.667 13.667 81 41c13.333 16.667 24 38.334 32 65.001s11 49 9 67
c-0.666992 29.333 -15.667 44 -45 44c-16.667 0 -35.667 -4.33301 -57 -13l4 40c42.667 16 81.667 24 117 24c74.667 0 112 -28 112 -84z" />
    <glyph glyph-name="afii10094" unicode="&#x44c;" horiz-adv-x="467" 
d="M491 222c0 -36.667 -8.83203 -70.3291 -26.499 -100.996s-40.5 -55.334 -68.5 -74.001s-57.833 -33 -89.5 -43s-62.834 -15 -93.501 -15c-34.667 0 -68 4.33301 -100 13s-48 19 -48 31c0 6 11.333 56 34 150l23 99c12 49.333 18 86.666 18 111.999
c0 3.33301 -0.166992 6.33301 -0.5 9s-1.16602 5 -2.49902 7s-2.33301 3.83301 -3 5.5s-2.16699 3 -4.5 4s-4 1.83301 -5 2.5s-3 1.16699 -6 1.5s-5 0.666016 -6 0.999023s-3.33301 0.666016 -7 0.999023s-5.83398 0.5 -6.50098 0.5l4 30c67.333 11.333 112 17 134 17
c27.333 0 41 -11.333 41 -34c0 -13.333 -5.33301 -45.333 -16 -96l-36 -155c-3.33301 -16.667 -7.5 -34.834 -12.5 -54.501l-11.5 -46c-2.66699 -11 -4 -17.5 -4 -19.5c0 -20 13.333 -30 40 -30c30.667 0 57.667 13.667 81 41c13.333 16.667 24 38.334 32 65.001s11 49 9 67
c-0.666992 29.333 -15.667 44 -45 44c-16.667 0 -35.667 -4.33301 -57 -13l4 40c42.667 16 81.667 24 117 24c74.667 0 112 -28 112 -84z" />
    <glyph glyph-name="afii10095" unicode="&#x44d;" horiz-adv-x="485" 
d="M486 321c0 -100 -29.667 -180.331 -89 -240.998c-62 -62.667 -133.333 -94 -214 -94c-102 0 -153 24.333 -153 73c0 14 8 27.167 24 39.5s39.667 20.166 71 23.499l11 -11c0 -51.333 20 -77 60 -77c37.333 0 67.333 15.833 90 47.5s40.667 76.834 54 135.501l-163 -14
l21 66l150 -10c6 28 9 55 9 81c0.666992 34 -5.16602 57.333 -17.499 70s-29.166 19 -50.499 19c-29.333 0 -52.333 -8.66699 -69 -26s-24.334 -38.333 -23.001 -63l-15 -12c-28.667 0 -50 4.5 -64 13.5s-21 19.833 -21 32.5c0 27.333 21.167 51.333 63.5 72
s89.166 31 140.499 31c22 0 42.833 -2.33301 62.5 -7s39.167 -12.334 58.5 -23.001s34.833 -26.834 46.5 -48.501s17.5 -47.5 17.5 -77.5z" />
    <glyph glyph-name="afii10096" unicode="&#x44e;" horiz-adv-x="764" 
d="M767 305c0 -88.667 -24.666 -162.668 -73.999 -222.001c-54 -64.667 -124.333 -97 -211 -97c-20.667 0 -40.334 2.5 -59.001 7.5s-37 13.333 -55 25s-32.333 29.334 -43 53.001s-16 51.834 -16 84.501c0 18.667 1.66699 39.667 5 63l-87 3l-6 -26
c-14.667 -64.667 -22 -107.667 -22 -129c0 -15.333 8.33301 -23 25 -23l-7 -34c-48.667 -14 -86 -21 -112 -21c-16 0 -26.667 3.33301 -32 10s-8 17.334 -8 32.001c0 18.667 8 66 24 142l23 109c10.667 50.667 16 87.667 16 111c0 10 -2.5 17.667 -7.5 23
s-9.66699 8.16602 -14 8.49902s-11.833 0.833008 -22.5 1.5l8 36c74.667 6.66699 124 10 148 10c10 0 16.667 -2.83301 20 -8.5s5 -16.834 5 -33.501c0 -12 -5 -43 -15 -93l-15 -74l90 3c12.667 44 32 82 58 114c54 64.667 124.333 97 211 97c47.333 0 88 -13 122 -39
s51 -70.333 51 -133zM638.001 332.999c0 22 -1.66699 39.999 -5 53.999s-8.33301 23.667 -15 29s-12.5 8.83301 -17.5 10.5s-11.167 2.5 -18.5 2.5c-35.333 0 -65.666 -22.667 -90.999 -68c-13.333 -24.667 -25.5 -58.667 -36.5 -102s-16.5 -87 -16.5 -131
c0 -36 5.83301 -60.667 17.5 -74s24.5 -20 38.5 -20c35.333 0 65.666 22.667 90.999 68c13.333 24 25.5 57.833 36.5 101.5s16.5 86.834 16.5 129.501z" />
    <glyph glyph-name="afii10097" unicode="&#x44f;" horiz-adv-x="555" 
d="M538 77l4.99805 -35.998c-5.33301 -4 -12.833 -8.83301 -22.5 -14.5s-28.167 -13.334 -55.5 -23.001s-53.333 -14.5 -78 -14.5c-38.667 0 -58 14 -58 42c0 14.667 13 76.667 39 186l22 91c13.333 52 20 84 20 96c0 16.667 -14 25 -42 25
c-25.333 0 -48.666 -11.5 -69.999 -34.5s-32 -55.833 -32 -98.5c0 -17.333 4.66699 -31 14 -41s18 -16 26 -18s18.667 -3.66699 32 -5l20 -2l-7 -34l-6 -1c-3.33301 -0.666992 -7.16602 -2.33398 -11.499 -5.00098s-8.83301 -6.66699 -13.5 -12l-13.5 -15.5
c-4.33301 -5 -9.5 -12 -15.5 -21s-11 -16.833 -15 -23.5s-9.66699 -15.5 -17 -26.5s-13 -19.833 -17 -26.5c-18 -28 -36.333 -48 -55 -60s-46.667 -18 -84 -18c-8.66699 0 -20.5 1.16699 -35.5 3.5s-27.833 4.83301 -38.5 7.5l-16 3l7 35
c18.667 0.666992 34 5.16699 46 13.5s25.333 21.166 40 38.499l28 33c8 9.33301 16.167 17.5 24.5 24.5s14.5 12.5 18.5 16.5s10.333 8 19 12s13.667 6.5 15 7.5s7.83301 3.33301 19.5 7s18.167 5.83398 19.5 6.50098l2 7c-76.667 12 -115 46.667 -115 104
c0 32.667 8 60.667 24 84s38 41 66 53s56.833 20.667 86.5 26s61.834 8 96.501 8c53.333 0 88.833 -1.83301 106.5 -5.5s26.5 -10.5 26.5 -20.5c0 -4 -0.833008 -10 -2.5 -18s-5.33398 -24.333 -11.001 -49l-17.5 -79l-23 -109c-1.33301 -6.66699 -4 -18.5 -8 -35.5
s-7.33301 -32 -10 -45s-4 -22.5 -4 -28.5c0 -17.333 7.33301 -26 22 -26c14 0 30.333 5.33301 49 16z" />
    <glyph glyph-name="afii10071" unicode="&#x451;" horiz-adv-x="441" 
d="M468 394c0 -76.667 -69.333 -127.668 -208 -153.001l-68 -12c-2.66699 -21.333 -4 -40.333 -4 -57c0 -75.333 28.667 -113 86 -113c44.667 0 87.667 14.333 129 43v-43c-6 -5.33301 -14.5 -11.666 -25.5 -18.999s-32.667 -17.333 -65 -30s-63.833 -19 -94.5 -19
c-50 0 -89.833 13.5 -119.5 40.5s-44.5 67.5 -44.5 121.5c0 79.333 27.333 153 82 221c30 37.333 63.833 63.833 101.5 79.5s69.834 23.5 96.501 23.5c17.333 0 32.666 -0.833008 45.999 -2.5s27.333 -5 42 -10s26 -13.5 34 -25.5s12 -27 12 -45zM351 382.999
c0 29.333 -12.667 44 -38 44c-51.333 0 -89 -51 -113 -153l46 8c30 5.33301 55 17 75 35s30 40 30 66zM488 621.999c0 -24.667 -7.16699 -43.667 -21.5 -57s-32.5 -20 -54.5 -20c-16.667 0 -29.667 5.5 -39 16.5s-14 24.833 -14 41.5c0 22.667 7 40.667 21 54
s31.667 20 53 20c36.667 0 55 -18.333 55 -55zM324 621.999c0 -24.667 -7.16699 -43.667 -21.5 -57s-32.5 -20 -54.5 -20c-16.667 0 -29.667 5.5 -39 16.5s-14 24.833 -14 41.5c0 22.667 7 40.667 21 54s31.667 20 53 20c36.667 0 55 -18.333 55 -55z" />
    <glyph glyph-name="afii10099" unicode="&#x452;" horiz-adv-x="525" 
d="M520 346c0 -46.667 -9.49609 -107.331 -28.4961 -181.998s-47.833 -145.334 -86.5 -212.001c-69.333 -118.667 -142 -178 -218 -178c-42.667 0 -64 14.333 -64 43c0 14 8.66699 28 26 42s36.333 24.333 57 31l5 -4c0 -36.667 9.66699 -55 29 -55c16 0 33.333 17 52 51
s36.667 84.667 54 152c7.33301 28.667 15.333 69.5 24 122.5s13 89.5 13 109.5c0 2.66699 0.166992 9 0.5 19s0.333008 17 0 21l-1.5 18.5c-0.666992 8.33301 -1.83398 14.5 -3.50098 18.5s-3.83398 8.5 -6.50098 13.5s-6.33398 8.5 -11.001 10.5s-10.334 3 -17.001 3
c-26 0 -50.5 -17.167 -73.5 -51.5s-39.5 -75.166 -49.5 -122.499c-14.667 -72 -22 -115 -22 -129c0 -15.333 8.33301 -23 25 -23l-7 -34c-48.667 -14 -86 -21 -112 -21c-16 0 -26.667 3.33301 -32 10s-8 17.334 -8 32.001c0 18.667 8 66 24 142l76 360h-62l10 48l61 5
c2.66699 24.667 0.5 42 -6.5 52s-19.833 15 -38.5 15l5 32c65.333 8 108 12 128 12h10h9.5c1 0 3.66699 -0.166992 8 -0.5s7 -0.833008 8 -1.5s3 -1.66699 6 -3s4.83301 -2.83301 5.5 -4.5s1.83398 -3.83398 3.50098 -6.50098s2.66699 -5.83398 3 -9.50098
s0.5 -7.83398 0.5 -12.501c0 -14 -3 -36.667 -9 -68l150 -2l-19 -51l-143 -3l-41 -181c27.333 42 56.666 72.5 87.999 91.5s58 28.5 80 28.5c65.333 0 98 -42.667 98 -128z" />
    <glyph glyph-name="afii10100" unicode="&#x453;" horiz-adv-x="426" 
d="M434 388c0 -35.333 -12.1709 -63.998 -36.5039 -85.998s-65.833 -48.667 -124.5 -80c-36.667 -20 -60.667 -36.333 -72 -49c-14 -16.667 -21 -36.334 -21 -59.001c0 -38 23 -57 69 -57c20.667 0 45.5 7.16699 74.5 21.5s50.833 29.166 65.5 44.499l5 -45
c-24 -24.667 -55.167 -45.667 -93.5 -63s-81.833 -26 -130.5 -26c-36 0 -67 7.5 -93 22.5s-39 40.833 -39 77.5c0 13.333 2.83301 26.333 8.5 39s11.834 23.167 18.501 31.5s17.334 17.666 32.001 27.999s26.334 17.833 35.001 22.5l42.5 22c19.667 10 32.834 17 39.501 21
c28.667 16 49.5 32.333 62.5 49s19.5 36.334 19.5 59.001c0 26 -15.333 39 -46 39c-41.333 0 -90 -22.667 -146 -68l-10 45c30.667 27.333 66.5 50.333 107.5 69s78.833 28 113.5 28c79.333 0 119 -28.667 119 -86zM393.996 660.002l100 -21l-135 -123l-32 9z" />
    <glyph glyph-name="afii10101" unicode="&#x454;" horiz-adv-x="449" 
d="M476 416c0 -18.667 -10.666 -34.832 -31.999 -48.499s-46 -22.834 -74 -27.501l-8 8c3.33301 12 5 25 5 39c0 13.333 -2.83301 23.333 -8.5 30s-17.167 10 -34.5 10c-26.667 0 -50.834 -15.167 -72.501 -45.5s-37.167 -69.5 -46.5 -117.5l172 4l-25 -61
c-26.667 5.33301 -77.667 8.66602 -153 9.99902c-1.33301 -18.667 -2 -33.667 -2 -45c0 -75.333 28 -113 84 -113c44.667 0 87.667 14.333 129 43v-43c-6 -5.33301 -14.5 -11.666 -25.5 -18.999s-32.667 -17.333 -65 -30s-63.833 -19 -94.5 -19
c-50 0 -89.833 13.5 -119.5 40.5s-44.5 67.5 -44.5 121.5c0 41.333 8.33301 82.333 25 123s37.667 75 63 103c28.667 32.667 62 57.167 100 73.5s72.667 24.5 104 24.5c82 0 123 -20.333 123 -61z" />
    <glyph glyph-name="afii10102" unicode="&#x455;" horiz-adv-x="431" 
d="M448 414c0 -16.667 -10.667 -31.499 -32 -44.499s-44 -20.833 -68 -23.5l-5 10c3.33301 16 0.333008 32.167 -9 48.5s-28.333 24.5 -57 24.5c-22 0 -40 -5.5 -54 -16.5s-21 -26.5 -21 -46.5c0 -8 2.33301 -15.167 7 -21.5s11.5 -12 20.5 -17s17.333 -9.16699 25 -12.5
s17 -6.83301 28 -10.5s18.167 -6.16699 21.5 -7.5c22.667 -9.33301 38.167 -16 46.5 -20s20 -11.167 35 -21.5s25.333 -22.166 31 -35.499s8.5 -29.333 8.5 -48c0 -50.667 -25.5 -93.667 -76.5 -129s-108.5 -53 -172.5 -53c-93.333 0 -140 22.333 -140 67
c0 16.667 9.5 31.167 28.5 43.5s46.167 20.833 81.5 25.5l5 -10c-3.33301 -11.333 -5 -20.333 -5 -27c0 -16.667 5.16699 -29.167 15.5 -37.5s23.166 -12.5 38.499 -12.5c25.333 0 47.333 7.5 66 22.5s28 36.5 28 64.5c0 9.33301 -1.66699 17.666 -5 24.999
s-8.66602 13.5 -15.999 18.5s-14 9 -20 12s-14.833 6.83301 -26.5 11.5s-20.5 8.66699 -26.5 12l-29.5 14.5c-15.667 7.66699 -26.5 13.5 -32.5 17.5s-13.833 10.167 -23.5 18.5s-16.5 17.833 -20.5 28.5s-6 23 -6 37c0 47.333 21.167 85.166 63.5 113.499
s94.5 42.5 156.5 42.5c93.333 0 140 -21 140 -63z" />
    <glyph glyph-name="afii10103" unicode="&#x456;" horiz-adv-x="286" 
d="M307 623c0 -27.333 -8 -48.333 -24 -63s-36 -22 -60 -22c-18.667 0 -33.167 6 -43.5 18s-15.5 27.333 -15.5 46c0 25.333 7.66699 45.333 23 60s35 22 59 22c40.667 0 61 -20.333 61 -61zM274 77l5 -35.998c-5.33301 -4 -12.833 -8.83301 -22.5 -14.5
s-28.167 -13.334 -55.5 -23.001s-53.333 -14.5 -78 -14.5c-16 0 -29.667 3.66699 -41 11s-17 17.666 -17 30.999c0 24 7.33301 71.667 22 143l23 110c11.333 56.667 17 93.667 17 111c0 10 -2.33301 17.667 -7 23s-9 8.16602 -13 8.49902s-11 0.833008 -21 1.5l8 37
c60 6.66699 101.667 10 125 10c16 0 27.167 -2.16699 33.5 -6.5s9.5 -15.166 9.5 -32.499c0 -18.667 -7.33301 -62 -22 -130l-23 -109c-10.667 -47.333 -16 -82.333 -16 -105c0 -20.667 8 -31 24 -31c14 0 30.333 5.33301 49 16z" />
    <glyph glyph-name="afii10104" unicode="&#x457;" horiz-adv-x="288" 
d="M352 622c0 -24.667 -7.16699 -43.667 -21.5 -57s-32.5 -20 -54.5 -20c-16.667 0 -29.667 5.5 -39 16.5s-14 24.833 -14 41.5c0 22.667 7 40.667 21 54s31.667 20 53 20c36.667 0 55 -18.333 55 -55zM198 622c0 -24.667 -7.16699 -43.667 -21.5 -57s-32.5 -20 -54.5 -20
c-16.667 0 -29.667 5.5 -39 16.5s-14 24.833 -14 41.5c0 22.667 7 40.667 21 54s31.667 20 53 20c36.667 0 55 -18.333 55 -55zM274 77l5 -35.998c-5.33301 -4 -12.833 -8.83301 -22.5 -14.5s-28.167 -13.334 -55.5 -23.001s-53.333 -14.5 -78 -14.5
c-16 0 -29.667 3.66699 -41 11s-17 17.666 -17 30.999c0 24 7.33301 71.667 22 143l23 110c11.333 56.667 17 93.667 17 111c0 10 -2.33301 17.667 -7 23s-9 8.16602 -13 8.49902s-11 0.833008 -21 1.5l8 37c60 6.66699 101.667 10 125 10c16 0 27.167 -2.16699 33.5 -6.5
s9.5 -15.166 9.5 -32.499c0 -18.667 -7.33301 -62 -22 -130l-23 -109c-10.667 -47.333 -16 -82.333 -16 -105c0 -20.667 8 -31 24 -31c14 0 30.333 5.33301 49 16z" />
    <glyph glyph-name="afii10105" unicode="&#x458;" horiz-adv-x="268" 
d="M307 623c0 -27.333 -8 -48.333 -24 -63s-36 -22 -60 -22c-18.667 0 -33.167 6 -43.5 18s-15.5 27.333 -15.5 46c0 25.333 7.66699 45.333 23 60s35 22 59 22c40.667 0 61 -20.333 61 -61zM262 430c0 -14 -6.99902 -55.999 -20.999 -125.999l-23 -111
c-9.33301 -44.667 -23.5 -94.334 -42.5 -149.001s-38.167 -97.667 -57.5 -129c-25.333 -41.333 -56 -74.833 -92 -100.5s-75 -38.5 -117 -38.5c-18.667 0 -33.834 1.5 -45.501 4.5s-20 7.33301 -25 13s-8.16699 10.834 -9.5 15.501s-2 10.667 -2 18
c0 18.667 9 35.334 27 50.001s36 24.667 54 30l8 -8c0 -48 11 -72 33 -72c21.333 0 38.5 12.833 51.5 38.5s28.167 69.167 45.5 130.5c4 15.333 9.16699 36.833 15.5 64.5l17 76c5 23 7.83301 35.5 8.5 37.5l23 110c10 50 15 86.333 15 109c0 10 -2.5 17.667 -7.5 23
s-9.66699 8.16602 -14 8.49902s-11.833 0.833008 -22.5 1.5l8 36c74.667 6.66699 124 10 148 10c10 0 16.667 -2.83301 20 -8.5s5 -16.834 5 -33.501z" />
    <glyph glyph-name="afii10106" unicode="&#x459;" horiz-adv-x="683" 
d="M685 205c0 -62 -26.332 -113.501 -78.999 -154.501s-116.334 -61.5 -191.001 -61.5c-43.333 0 -73.5 5.33301 -90.5 16s-27.5 28 -31.5 52c-2 10 -1 54 3 132l5 130c1.33301 48 0.333008 77.333 -3 88h-5l-47 -79l-32 -57l-28 -51l-21.5 -39.5
c-9 -16.333 -15.167 -28.333 -18.5 -36l-11.5 -27.5c-4.33301 -10.667 -7.16602 -19.667 -8.49902 -27s-2 -14.333 -2 -21c0 -18 10.333 -30.333 31 -37l-7 -25c-42.667 -10.667 -76 -16 -100 -16c-21.333 0 -32 10.667 -32 32c0 30 44.667 112 134 246
c4.66699 7.33301 13.167 19.833 25.5 37.5l27.5 40c6 9 11.833 19.5 17.5 31.5s8.5 21.667 8.5 29c0 2.66699 -0.166992 5 -0.5 7s-1.16602 3.66699 -2.49902 5l-3.5 3.5c-1 1 -2.66699 1.83301 -5 2.5s-4.33301 1.33398 -6 2.00098s-4 1 -7 1s-5.33301 0.166992 -7 0.5
s-4.33398 0.5 -8.00098 0.5h-7.5l8 32c66 8.66699 114.667 13 146 13c38.667 0 63 -7.16699 73 -21.5s14.333 -46.833 13 -97.5c-0.666992 -54 -1.33398 -97.667 -2.00098 -131c0 -11.333 -0.833008 -31.5 -2.5 -60.5s-2.5 -48.833 -2.5 -59.5c0 -26 3.16699 -43 9.5 -51
s18.166 -12 35.499 -12c28.667 0 52.834 14.5 72.501 43.5s29.5 63.5 29.5 103.5c0 24.667 -5.83301 41.667 -17.5 51s-24.5 14 -38.5 14c-24 0 -47.667 -4.33301 -71 -13l3 41c31.333 13.333 67 20 107 20c93.333 0 140 -32 140 -96z" />
    <glyph glyph-name="afii10107" unicode="&#x45a;" horiz-adv-x="728" 
d="M751 222c0 -67.333 -29.501 -123.001 -88.501 -167.001s-122.167 -66 -189.5 -66c-96 0 -144 14 -144 42c0 14 4.66699 41.667 14 83l23 103l-139 5l-6 -26c-14.667 -64.667 -22 -107.667 -22 -129c0 -15.333 8.33301 -23 25 -23l-7 -34c-48.667 -14 -86 -21 -112 -21
c-16 0 -26.667 3.33301 -32 10s-8 17.334 -8 32.001c0 18.667 8 66 24 142l23 109c10.667 50.667 16 87.667 16 111c0 10 -2.5 17.667 -7.5 23s-9.66699 8.16602 -14 8.49902s-11.833 0.833008 -22.5 1.5l8 36c70.667 6.66699 118 10 142 10
c11.333 0 19.333 -2.16699 24 -6.5s7 -14.5 7 -30.5c0 -15.333 -5 -48 -15 -98l-15 -74c15.333 0.666992 35 1.33398 59 2.00098s43.667 1.33398 59 2.00098l23 1l4 17c11.333 50 17 86.333 17 109c0 7.33301 -1.16699 13.166 -3.5 17.499s-4.66602 7.33301 -6.99902 9
s-5.83301 3.5 -10.5 5.5l4 30c52 11.333 89 17 111 17c23.333 0 37.333 -3.66699 42 -11c3.33301 -4.66699 5 -10.334 5 -17.001c0 -27.333 -17.333 -113 -52 -257l-28 -120c0 -20 13.333 -30 40 -30c30.667 0 57.667 13.667 81 41c13.333 16.667 24 38.334 32 65.001
s11 49 9 67c-0.666992 29.333 -15.667 44 -45 44c-16.667 0 -35.667 -4.33301 -57 -13l4 40c42.667 16 81.667 24 117 24c74.667 0 112 -28 112 -84z" />
    <glyph glyph-name="afii10108" unicode="&#x45b;" horiz-adv-x="552" 
d="M537 79l4.99805 -37.998c-52 -34.667 -101.667 -52 -149 -52c-43.333 0 -65 14 -65 42c0 20 8 67.333 24 142l24 109c5.33301 26.667 8 42.667 8 48c0 12.667 -2.33301 21.5 -7 26.5s-13 7.5 -25 7.5c-26.667 0 -53 -16.333 -79 -49s-42 -65 -48 -97l-4 -21
c-14.667 -76 -22 -119.333 -22 -130c0 -15.333 8.33301 -23 25 -23l-7 -34c-48.667 -14 -86 -21 -112 -21c-16 0 -26.667 3.33301 -32 10s-8 17.334 -8 32.001c0 18.667 8 66 24 142l76 360h-62l10 48l61 5c2.66699 24.667 0.5 42 -6.5 52s-19.833 15 -38.5 15l5 32
c65.333 8 108 12 128 12h10h9.5c1 0 3.66699 -0.166992 8 -0.5s7 -0.833008 8 -1.5s3 -1.66699 6 -3s4.83301 -2.83301 5.5 -4.5s1.83398 -3.83398 3.50098 -6.50098s2.66699 -5.83398 3 -9.50098s0.5 -7.83398 0.5 -12.501c0 -14 -3 -36.667 -9 -68l150 -2l-19 -51l-143 -3
l-41 -181c34.667 42 70.834 72.5 108.501 91.5s68.167 28.5 91.5 28.5c48 0 72 -23.333 72 -70c0 -22 -7.66699 -65 -23 -129l-19 -79c-13.333 -60 -20 -94.667 -20 -104c0 -20.667 8 -31 24 -31c12.667 0 29 6 49 18z" />
    <glyph glyph-name="afii10109" unicode="&#x45c;" horiz-adv-x="522" 
d="M535 454c0 -18 -15.666 -42.666 -46.999 -73.999c-42.667 -42.667 -90 -80.334 -142 -113.001c2 -3.33301 14.5 -27.5 37.5 -72.5s41.167 -78.167 54.5 -99.5c4.66699 -7.33301 11.5 -14 20.5 -20s16.833 -9 23.5 -9c14 0 29.667 4.33301 47 13l5 -32
c-4.66699 -4 -11.334 -9 -20.001 -15s-24.834 -14.167 -48.501 -24.5s-45.834 -15.5 -66.501 -15.5c-23.333 0 -41.166 6.33301 -53.499 19s-26.166 37 -41.499 73l-66 152l4 20c38 15.333 73.333 37 106 65c36.667 31.333 55 59.333 55 84c0 16.667 -9.33301 25 -28 25
l6 31c38 8 80.667 12 128 12c9.33301 0 16 -1.16699 20 -3.5s6 -7.5 6 -15.5zM265.001 430.001c0 -10.667 -5 -41.666 -15 -92.999l-29 -141c-14.667 -73.333 -22 -116.333 -22 -129c0 -15.333 8.33301 -23 25 -23l-7 -34c-48.667 -14 -86 -21 -112 -21
c-16 0 -26.667 3.33301 -32 10s-8 17.334 -8 32.001c0 18 8 65.333 24 142l23 109c10.667 50.667 16 87.667 16 111c0 10 -2.5 17.667 -7.5 23s-9.66699 8.16602 -14 8.49902s-11.833 0.833008 -22.5 1.5l8 36c74.667 6.66699 124 10 148 10c10 0 16.667 -2.83301 20 -8.5
s5 -16.834 5 -33.501zM384.001 660.002l100 -21l-135 -123l-32 9z" />
    <glyph glyph-name="afii10110" unicode="&#x45e;" horiz-adv-x="500" 
d="M529 437c0 -16 -13.001 -50.3311 -39.001 -102.998s-64 -119 -114 -199l-73 -116c-16.667 -26.667 -35.167 -53.334 -55.5 -80.001s-43.5 -53.667 -69.5 -81s-53.333 -49.666 -82 -66.999s-55 -26 -79 -26c-12 0 -21.333 3.5 -28 10.5s-10 15.833 -10 26.5
c0 22.667 13.333 54 40 94l19 3c8.66699 -28.667 27.667 -43 57 -43c12.667 0 24.334 5.66699 35.001 17s18 24.666 22 39.999c4 24 1 91.667 -9 203l-8 86c-8.66699 88.667 -16.667 149 -24 181c-6.66699 27.333 -26 42 -58 44l7 35c70.667 6.66699 118 10 142 10
c19.333 0 31.333 -4.83301 36 -14.5s8.33398 -34.834 11.001 -75.501c0 -4.66699 0.166992 -8.33398 0.5 -11.001s0.666016 -6.16699 0.999023 -10.5s0.5 -8.5 0.5 -12.5l8 -119c4.66699 -80.667 6 -139.667 4 -177h7l47 87c30 56.667 53.833 109.334 71.5 158.001
s26.5 82 26.5 100c0 19.333 -11.333 30 -34 32l4 27c44.667 8 79 12 103 12c14.667 0 25.167 -2.33301 31.5 -7s9.5 -12.667 9.5 -24zM498.999 678.002l31 -9c-16.667 -40 -44.834 -72.167 -84.501 -96.5s-82.167 -36.5 -127.5 -36.5c-64.667 0 -97 18.333 -97 55
c0 16 6.5 30.833 19.5 44.5s26.167 23.167 39.5 28.5l20 9c20.667 -40.667 52.334 -61 95.001 -61c37.333 0 72 22 104 66z" />
    <glyph glyph-name="afii10193" unicode="&#x45f;" horiz-adv-x="547" 
d="M273 -3l22.001 -16.001c-10.667 -16 -19.334 -42.333 -26.001 -79c-2 -11.333 -3.33301 -25.166 -4 -41.499s-2 -29.833 -4 -40.5c-8.66699 -46.667 -53 -85.334 -133 -116.001l-14 23c18 13.333 31 27 39 41s13.333 33.333 16 58
c4.66699 42.667 11.667 73.334 21 92.001c7.33301 14.667 35 41 83 79zM533.001 76.999l4.99902 -35.9961c-5.33301 -4 -12.833 -8.83301 -22.5 -14.5s-28.167 -13.334 -55.5 -23.001s-53.333 -14.5 -78 -14.5c-38.667 0 -58 14 -58 42c0 12 4.66699 37.333 14 76
c-71.333 -80 -140.666 -120 -207.999 -120c-44 0 -66 23.333 -66 70c0 22.667 7.33301 67 22 133l20 91c11.333 56.667 17 94.334 17 113.001c0 3.33301 -0.166992 6.33301 -0.5 9s-1.16602 5 -2.49902 7s-2.33301 3.83301 -3 5.5s-2.16699 3 -4.5 4s-4 1.83301 -5 2.5
s-3 1.16699 -6 1.5s-5 0.666016 -6 0.999023s-3.33301 0.666016 -7 0.999023s-5.83398 0.5 -6.50098 0.5l4 30c67.333 11.333 112 17 134 17c29.333 0 44 -11.333 44 -34c0 -11.333 -1.66699 -25.666 -5 -42.999s-8 -39 -14 -65s-10 -44 -12 -54l-17 -81
c-8.66699 -45.333 -13 -71.333 -13 -78c0 -9.33301 1.83301 -16.5 5.5 -21.5s7.5 -8 11.5 -9s9 -1.5 15 -1.5c26 0 52.667 18.167 80 54.5s44.333 70.5 51 102.5l9 42c11.333 56.667 17 93 17 109c0 3.33301 -0.166992 6.33301 -0.5 9s-1.16602 5 -2.49902 7
s-2.33301 3.83301 -3 5.5s-2.16699 3 -4.5 4s-4 1.83301 -5 2.5s-3 1.16699 -6 1.5s-5 0.666016 -6 0.999023s-3.33301 0.666016 -7 0.999023s-5.83398 0.5 -6.50098 0.5l4 30c67.333 11.333 112 17 134 17c29.333 0 44 -11.333 44 -34c0 -21.333 -10.667 -74 -32 -158
l-21 -85c-13.333 -54.667 -20 -89.334 -20 -104.001c0 -20.667 8 -31 24 -31c14 0 30.333 5.33301 49 16z" />
    <glyph glyph-name="afii10050" unicode="&#x490;" horiz-adv-x="456" 
d="M548 800l34.9971 -4l-10 -40.5l-10 -41l-8.5 -34c-3 -11.667 -5.83301 -21 -8.5 -28s-5 -11.5 -7 -13.5c-5.33301 -6 -10.666 -10 -15.999 -12s-15.666 -3 -30.999 -3c-8.66699 0 -23.667 1 -45 3s-36 3 -44 3c-39.333 0 -64.333 -6 -75 -18
c-11.333 -12.667 -20.666 -37.334 -27.999 -74.001l-64 -329c-16 -80.667 -24 -126 -24 -136c0 -12.667 3.66699 -21.667 11 -27s20.333 -9.33301 39 -12l-7 -34h-166c-16.667 0 -25 10 -25 30c0 8.66699 2.5 24.334 7.5 47.001s11 47.667 18 75s11.167 45 12.5 53l53 250
c14.667 71.333 22 116.333 22 135c0 12.667 -3.16699 22.167 -9.5 28.5s-12.166 9.83301 -17.499 10.5s-14 1.33398 -26 2.00098l9 42c78 2.66699 150 6 216 10c41.333 2.66699 74.166 8.66699 98.499 18s42.5 20.666 54.5 33.999s27.333 35 46 65z" />
    <glyph glyph-name="afii10098" unicode="&#x491;" horiz-adv-x="418" 
d="M453 597l32 -4.00098c-14.667 -73.333 -24.334 -116.666 -29.001 -129.999c-7.33301 -19.333 -17.166 -32.333 -29.499 -39s-34.5 -10 -66.5 -10c-4 0 -19.667 0.833008 -47 2.5s-44 2.16699 -50 1.5c0 -24.667 -3 -51.667 -9 -81l-30 -141
c-14.667 -64.667 -22 -107.667 -22 -129c0 -15.333 8.33301 -23 25 -23l-7 -34c-48.667 -14 -86 -21 -112 -21c-16 0 -26.667 3.33301 -32 10s-8 17.334 -8 32.001c0 18.667 8 66 24 142l23 109c11.333 55.333 17 89 17 101s-2.33301 21.333 -7 28s-9.66699 10.667 -15 12
s-12 2.33301 -20 3l7 37c70.667 -0.666992 134.667 1.66602 192 6.99902c46 4 81.667 18.667 107 44c22 22 41 49.667 57 83z" />
    <glyph glyph-name="uni2010" unicode="&#x2010;" horiz-adv-x="416" 
d="M415 321l-15 -65c-86 2.66699 -146 4 -180 4l-135 -4l15 65l158 -5z" />
    <glyph glyph-name="uni2011" unicode="&#x2011;" horiz-adv-x="416" 
d="M415 321l-15 -65c-86 2.66699 -146 4 -180 4l-135 -4l15 65l158 -5z" />
    <glyph glyph-name="figuredash" unicode="&#x2012;" horiz-adv-x="488" 
d="M501 379l-14 -71l-216 3l-175 -4l11 72c70 -1.33301 127.333 -2 172 -2z" />
    <glyph glyph-name="endash" unicode="&#x2013;" horiz-adv-x="488" 
d="M501 260l-14 -71l-216 3l-175 -4l11 72c70 -1.33301 127.333 -2 172 -2z" />
    <glyph glyph-name="emdash" unicode="&#x2014;" horiz-adv-x="648" 
d="M657 262l-4 -75c-114 3.33301 -207.333 5 -280 5l-290 -3l9 73c111.333 -2.66699 202.333 -4 273 -4z" />
    <glyph glyph-name="afii00208" unicode="&#x2015;" horiz-adv-x="648" 
d="M657 262l-4 -75c-114 3.33301 -207.333 5 -280 5l-290 -3l9 73c111.333 -2.66699 202.333 -4 273 -4z" />
    <glyph glyph-name="quoteleft" unicode="&#x2018;" horiz-adv-x="178" 
d="M85 548c0 36 16.333 76.332 49 120.999c25.333 32.667 65 65.334 119 98.001l16 -21l-18 -16c-7.33301 -6.66699 -17.166 -18.167 -29.499 -34.5s-18.5 -30.5 -18.5 -42.5c0 -14.667 3 -29.167 9 -43.5s9 -25.5 9 -33.5c0 -24 -7.83301 -42.667 -23.5 -56
s-36.834 -20 -63.501 -20c-32.667 0 -49 16 -49 48z" />
    </font>
</defs>
</svg>
