<svg width="118px" height="38px" viewBox="119 383 118 38" version="1.1" xmlns="http://www.w3.org/2000/svg" xmlns:xlink="http://www.w3.org/1999/xlink">
    <!-- Generator: Sketch 3.8.3 (29802) - http://www.bohemiancoding.com/sketch -->
    <desc>Created with Sketch.</desc>
    <defs></defs>
    <g id="logo" stroke="none" stroke-width="1" fill="none" fill-rule="evenodd" transform="translate(119.000000, 383.000000)">
        <g id="Group">
            <path d="M89.828,23.917 C89.828,33.039 95.912,37.857 103.39,37.857 C110.803,37.857 117.014,33.041 117.014,23.917 L117.014,1.531 C117.014,0.911 116.512,0.624 116.096,0.623 C113.741,0.617 111.27,0.624 108.855,0.626 C108.295,0.626 107.952,1.011 107.952,1.67 L107.952,23.599 C107.952,27.97 106.241,30.19 103.39,30.19 C100.602,30.19 98.827,27.972 98.827,23.599 L98.827,1.519 C98.827,0.809 98.158,0.626 97.951,0.626 L90.72,0.626 C90.076,0.626 89.828,1.172 89.828,1.528 L89.828,23.917 L89.828,23.917 Z" id="Shape" fill="#D9DADA"></path>
            <path d="M68.395,37.033 L75.609,37.033 C76.151,37.033 76.509,36.618 76.509,36.137 L76.509,12.866 C76.509,9.888 78.156,7.733 81.008,7.733 C82.225,7.733 83.483,7.937 84.651,8.212 C85.242,8.352 85.62,7.949 85.717,7.529 C86.154,5.65 86.592,3.771 87.03,1.892 C87.171,1.287 86.728,0.916 86.407,0.83 C84.689,0.347 82.747,0.065 80.946,0.065 C73.405,0.065 67.511,5.199 67.511,12.865 L67.511,36.156 C67.511,36.835 68.14,37.033 68.395,37.033 L68.395,37.033 Z" id="Shape" fill="#D9DADA"></path>
            <path d="M36.462,37.033 L43.681,37.033 C44.126,37.033 44.557,36.662 44.557,36.178 L44.557,20.224 L49.557,20.224 C49.72,20.224 50.236,20.161 50.419,19.542 C50.748,18.124 51.072,16.716 51.398,15.305 C51.54,14.777 51.127,14.205 50.537,14.205 L44.557,14.205 L44.557,10.593 C44.557,8.946 45.507,7.805 47.661,7.805 C48.828,7.805 49.995,8.008 51.161,8.317 C51.453,8.4 52.072,8.341 52.253,7.665 C52.706,5.804 53.159,3.942 53.613,2.081 C53.768,1.499 53.219,1.095 52.998,1.036 C51.05,0.481 49.094,0.139 47.091,0.139 C41.451,0.139 35.559,3.562 35.559,10.594 L35.559,14.206 L32.129,14.206 C31.593,14.206 31.25,14.646 31.25,15.099 L31.25,19.352 C31.25,19.787 31.614,20.226 32.137,20.226 L35.559,20.226 L35.559,36.169 C35.559,36.823 36.172,37.033 36.462,37.033 L36.462,37.033 Z" id="Shape" fill="#41ABEB"></path>
            <path d="M0.187,23.434 C0.187,32.494 6.144,37.945 14.318,37.945 C22.493,37.945 28.449,32.495 28.449,23.434 L28.449,15.206 C28.449,6.144 22.493,0.695 14.318,0.695 C6.144,0.695 0.187,6.145 0.187,15.206 L0.187,23.434 L0.187,23.434 L0.187,23.434 Z M9.186,23.117 L9.186,15.522 C9.186,11.15 10.453,8.362 14.318,8.362 C18.12,8.362 19.45,11.151 19.45,15.522 L19.45,23.117 C19.45,27.489 18.12,30.277 14.318,30.277 C10.516,30.277 9.186,27.489 9.186,23.117 L9.186,23.117 Z" id="Shape" fill="#41ABEB"></path>
            <path d="M55.908,37.514 C58.76,37.514 61.167,35.043 61.167,32.128 C61.167,29.15 58.696,26.932 55.908,26.932 C53.12,26.932 50.65,29.15 50.65,32.128 C50.65,35.043 53.057,37.514 55.908,37.514 L55.908,37.514 Z" id="Shape" fill="#D9DADA"></path>
        </g>
    </g>
</svg>